<svg xmlns="http://www.w3.org/2000/svg" fill="#ddd" stroke="#ddd" stroke-miterlimit="10" stroke-width="5" style="height:10rem;width:10rem" viewBox="0 0 300 300"><style>path{fill-opacity:0}circle{stroke-opacity:0}</style><path d="m23 90 45.5-42.5L117 31l55-14 35 17-10 78 34-28 15-43 33 49-37 38 45 5-30 39-32 90-12-52-55-26-36-36 20-55-43-15z"/><path d="m172 17-22 36 29 25-37 15m100 35-73 5-11 51-78-20-2-50-44 34"/><path d="m257 172-48-7-40-32"/><circle cx="68.5" cy="47.5" r="18.5"/><circle cx="117" cy="31" r="12"/><circle cx="172" cy="17" r="17"/><circle cx="150" cy="53" r="10"/><circle cx="23" cy="90" r="23"/><circle cx="142" cy="93" r="16"/><circle cx="99" cy="78" r="11"/><circle cx="179" cy="78" r="10"/><circle cx="197" cy="112" r="10"/><circle cx="207" cy="34" r="11"/><circle cx="209" cy="165" r="10"/><circle cx="287" cy="133" r="11"/><circle cx="169" cy="133" r="11"/><circle cx="225" cy="262" r="12"/><circle cx="242" cy="128" r="12"/><circle cx="80" cy="164" r="14"/><circle cx="78" cy="114" r="16"/><circle cx="246" cy="41" r="17"/><circle cx="122" cy="148" r="17"/><circle cx="158" cy="184" r="17"/><circle cx="213" cy="210" r="19"/><circle cx="34" cy="148" r="19"/><circle cx="279" cy="90" r="19"/><circle cx="257" cy="172" r="22"/><circle cx="231" cy="84" r="17" fill="#f06292"/></svg>
