<svg xmlns="http://www.w3.org/2000/svg" xmlns:xlink="http://www.w3.org/1999/xlink" id="b" viewBox="0 0 234.94 130.62"><defs><style>.f,.g,.h,.i,.j{fill:none}.k{fill:#fff}.l{fill:#ff8c00}.m{fill:#4169e1}.g{stroke-linecap:square}.g,.j{stroke:#000;stroke-width:.25px}.n{clip-path:url(#e)}.o{clip-path:url(#d)}.h{stroke:gray;stroke-dasharray:0 0 0 0 0 0 3.95 1.71;stroke-width:1.07px}.h,.j{stroke-linejoin:round}.i{stroke:red;stroke-dasharray:0 0 0 0 0 0 2.63 1.14;stroke-width:.71px}</style><clipPath id="d"><rect width="100.31" height="88.18" x="26.5" y="24.14" class="f"/></clipPath><clipPath id="e"><rect width="100.32" height="88.18" x="134.49" y="24.14" class="f"/></clipPath></defs><g id="c"><rect width="100.31" height="88.18" x="26.5" y="24.14" class="k"/><g class="o"><path d="m33.98,62.34c.37,0,.72-.15.98-.41s.4-.61.4-.97-.15-.71-.4-.97c-.26-.26-.61-.4-.98-.4s-.71.15-.97.4c-.26.26-.4.61-.4.97s.15.72.4.97.61.41.97.41" class="l"/><path d="m33.98,76.88c.37,0,.72-.14.98-.4s.4-.61.4-.97-.15-.72-.4-.98c-.26-.26-.61-.4-.98-.4s-.71.15-.97.4c-.26.26-.4.61-.4.98s.15.71.4.97c.26.26.61.4.97.4" class="l"/><path d="m48.46,40.6c.37,0,.72-.15.97-.41.26-.26.4-.61.4-.97s-.15-.72-.4-.97c-.26-.26-.61-.41-.97-.41s-.72.15-.97.41c-.26.26-.4.61-.4.97s.15.72.4.97c.26.26.61.41.97.41" class="l"/><path d="m48.46,98.61c.37,0,.72-.15.97-.4s.4-.61.4-.97-.15-.72-.4-.97-.61-.41-.97-.41-.72.15-.97.41c-.26.26-.4.61-.4.97s.15.72.4.97.61.4.97.4" class="l"/><path d="m70.36,29.68c.37,0,.72-.14.97-.4.26-.26.4-.61.4-.97s-.15-.72-.4-.98c-.26-.26-.61-.4-.97-.4s-.72.14-.97.4c-.26.26-.41.61-.41.98s.15.71.41.97c.26.26.61.4.97.4" class="l"/><path d="m70.36,109.54c.37,0,.72-.15.97-.4s.4-.61.4-.98-.15-.71-.4-.97c-.26-.26-.61-.4-.97-.4s-.72.15-.97.4-.41.61-.41.97.15.72.41.98.61.4.97.4" class="l"/><path d="m43.13,48.86c.37,0,.72-.14.97-.4.26-.26.4-.61.4-.98s-.14-.71-.4-.97c-.26-.26-.61-.4-.97-.4s-.72.14-.97.4c-.26.26-.4.61-.4.97s.14.72.4.98.61.4.97.4" class="l"/><path d="m43.13,90.36c.37,0,.72-.15.97-.4s.4-.61.4-.98-.14-.71-.4-.97-.61-.4-.97-.4-.72.15-.97.4-.4.61-.4.97.14.72.4.98.61.4.97.4" class="l"/><path d="m38.65,62.33c.37,0,.72-.15.97-.4s.4-.61.4-.97-.14-.72-.4-.97c-.26-.26-.61-.41-.97-.41s-.72.15-.97.41c-.26.26-.4.61-.4.97s.15.72.4.97.61.4.97.4" class="l"/><path d="m38.65,76.89c.37,0,.72-.15.97-.41.26-.26.4-.61.4-.97s-.14-.72-.4-.97c-.26-.26-.61-.4-.97-.4s-.72.15-.97.4-.4.61-.4.97.15.72.4.97.61.41.97.41" class="l"/><path d="m39.93,66.73c.37,0,.72-.15.97-.41.26-.26.4-.61.4-.97s-.14-.72-.4-.97c-.26-.26-.61-.41-.97-.41s-.71.15-.97.41-.4.61-.4.97.14.72.4.97c.26.26.61.41.97.41" class="l"/><path d="m39.93,72.49c.37,0,.72-.15.97-.41.26-.26.4-.61.4-.97s-.14-.72-.4-.97c-.26-.26-.61-.41-.97-.41s-.71.15-.97.41-.4.61-.4.97.14.72.4.97c.26.26.61.41.97.41" class="l"/><path d="m70.41,33.02c.37,0,.72-.15.97-.41.26-.26.4-.61.4-.97s-.15-.72-.4-.97c-.26-.26-.61-.41-.97-.41s-.72.14-.97.41c-.26.26-.4.61-.4.97s.15.72.4.97c.26.26.61.41.97.41" class="l"/><path d="m70.41,106.2c.37,0,.72-.15.97-.41.26-.26.4-.61.4-.97s-.15-.72-.4-.97-.61-.41-.97-.41-.72.14-.97.41c-.26.26-.4.61-.4.97s.15.71.4.97c.26.26.61.41.97.41" class="l"/><path d="m113.15,69.61c.37,0,.72-.15.97-.41.26-.26.4-.61.4-.97s-.14-.72-.4-.97c-.26-.26-.61-.41-.97-.41s-.72.15-.97.41c-.26.26-.4.61-.4.97s.15.71.4.97c.26.26.61.41.97.41" class="l"/><path d="m96.71,39.94c.37,0,.72-.14.98-.41.26-.26.4-.61.4-.97s-.14-.71-.4-.97c-.26-.26-.61-.4-.98-.4s-.71.14-.97.4c-.26.26-.4.61-.4.97s.14.72.4.97c.26.26.61.41.97.41" class="l"/><path d="m96.71,99.27c.37,0,.72-.15.98-.4.26-.26.4-.61.4-.97s-.14-.72-.4-.98-.61-.4-.98-.4-.71.15-.97.4c-.26.26-.4.61-.4.98s.14.71.4.97.61.4.97.4" class="l"/><path d="m84.82,34.85c.36,0,.71-.14.97-.41.26-.26.4-.61.4-.97s-.15-.72-.4-.97c-.26-.26-.61-.41-.97-.41s-.72.15-.98.41-.4.61-.4.97.14.72.4.97c.26.26.61.41.98.41" class="l"/><path d="m84.82,104.37c.36,0,.71-.15.97-.41s.4-.61.4-.97-.15-.72-.4-.97-.61-.41-.97-.41-.72.15-.98.41-.4.61-.4.97.14.72.4.97c.26.26.61.41.98.41" class="l"/><path d="m71.38,35.63c.36,0,.71-.15.97-.4.26-.26.4-.61.4-.97s-.15-.72-.4-.97c-.26-.26-.61-.41-.97-.41s-.72.15-.98.41-.4.61-.4.97.14.72.4.97c.26.26.61.4.98.4" class="l"/><path d="m71.38,103.58c.36,0,.71-.14.97-.41.26-.26.4-.61.4-.97s-.15-.72-.4-.97-.61-.4-.97-.4-.72.15-.98.4c-.26.26-.4.61-.4.97s.14.72.4.97c.26.26.61.41.98.41" class="l"/><path d="m102.17,50.02c.37,0,.71-.15.97-.41s.4-.61.4-.97-.15-.72-.4-.97c-.26-.26-.61-.41-.97-.41s-.72.15-.98.41-.4.61-.4.97.14.71.4.97c.26.26.61.41.98.41" class="l"/><path d="m102.17,89.2c.37,0,.71-.15.97-.41s.4-.61.4-.97-.15-.72-.4-.97c-.26-.26-.61-.4-.97-.4s-.72.15-.98.4c-.26.26-.4.61-.4.97s.14.72.4.97c.26.26.61.41.98.41" class="l"/><path d="m108.77,69.61c.37,0,.72-.15.97-.41.26-.26.4-.61.4-.97s-.15-.72-.4-.97c-.26-.26-.61-.41-.97-.41s-.72.15-.97.41c-.26.26-.4.61-.4.97s.15.71.4.97c.26.26.61.41.97.41" class="l"/><path d="m105.63,69.61c.37,0,.71-.15.97-.41s.4-.61.4-.97-.15-.72-.4-.97c-.26-.26-.61-.41-.97-.41s-.72.15-.97.41c-.26.26-.41.61-.41.97s.15.71.41.97c.26.26.61.41.97.41" class="l"/><path d="m102.47,57.72c.37,0,.72-.15.97-.4.26-.26.41-.61.41-.97s-.15-.72-.41-.97c-.26-.26-.61-.4-.97-.4s-.72.14-.97.4c-.26.26-.4.61-.4.97s.15.71.4.97c.26.26.61.4.97.4" class="l"/><path d="m102.47,81.5c.37,0,.72-.15.97-.41.26-.26.41-.61.41-.97s-.15-.71-.41-.97c-.26-.26-.61-.4-.97-.4s-.72.14-.97.4c-.26.26-.4.61-.4.97s.15.71.4.97c.26.26.61.41.97.41" class="l"/><path d="m49.99,60.35c.37,0,.72-.15.97-.41.26-.26.4-.61.4-.97s-.15-.71-.4-.97c-.26-.26-.61-.4-.97-.4s-.72.15-.97.4-.4.61-.4.97.15.72.4.97.61.41.97.41" class="l"/><path d="m49.99,78.87c.37,0,.72-.14.97-.4.26-.26.4-.61.4-.97s-.15-.72-.4-.98c-.26-.26-.61-.4-.97-.4s-.72.15-.97.4-.4.61-.4.98.15.71.4.97c.26.26.61.4.97.4" class="l"/><path d="m57.59,49.25c.37,0,.72-.15.97-.4.26-.26.4-.61.4-.97s-.15-.72-.4-.98c-.26-.26-.61-.4-.97-.4s-.72.15-.97.4c-.26.26-.4.61-.4.98s.14.71.4.97c.26.26.61.4.97.4" class="l"/><path d="m57.59,89.96c.37,0,.72-.14.97-.4.26-.26.4-.61.4-.98s-.15-.71-.4-.97c-.26-.26-.61-.4-.97-.4s-.72.14-.97.4c-.26.26-.4.61-.4.97s.14.72.4.98.61.4.97.4" class="l"/><path d="m88.22,43.82c.37,0,.71-.15.97-.4.26-.26.4-.61.4-.97s-.15-.72-.4-.97c-.26-.26-.61-.4-.97-.4s-.72.14-.97.4c-.26.26-.4.61-.4.97s.15.71.4.97c.26.26.61.4.97.4" class="l"/><path d="m88.22,95.39c.37,0,.71-.15.97-.41s.4-.61.4-.97-.15-.71-.4-.97c-.26-.26-.61-.4-.97-.4s-.72.14-.97.4c-.26.26-.4.61-.4.97s.15.71.4.97c.26.26.61.41.97.41" class="l"/><path d="m78.51,43.03c.37,0,.72-.15.98-.41s.4-.61.4-.97-.14-.72-.4-.97c-.26-.26-.61-.41-.98-.41s-.71.15-.97.41-.4.61-.4.97.15.72.4.97c.26.26.61.41.97.41" class="l"/><path d="m78.51,96.18c.37,0,.72-.15.98-.4.26-.26.4-.61.4-.97s-.14-.72-.4-.97c-.26-.26-.61-.41-.98-.41s-.71.14-.97.41c-.26.26-.4.61-.4.97s.15.72.4.97.61.4.97.4" class="l"/><path d="m68.83,46.79c.37,0,.72-.14.97-.41.26-.26.4-.61.4-.97s-.15-.71-.4-.97c-.26-.26-.61-.4-.97-.4s-.72.15-.97.4c-.26.26-.4.61-.4.97s.15.72.4.97c.26.26.61.41.97.41" class="l"/><path d="m68.83,92.43c.37,0,.72-.15.97-.4s.4-.61.4-.97-.15-.72-.4-.98c-.26-.26-.61-.4-.97-.4s-.72.15-.97.4-.4.61-.4.98.15.71.4.97c.26.26.61.4.97.4" class="l"/><path d="m95.15,57.84c.36,0,.71-.15.97-.41s.4-.61.4-.97-.15-.72-.4-.97c-.26-.26-.61-.41-.97-.41s-.72.15-.98.41-.4.61-.4.97.14.71.4.97.61.41.98.41" class="l"/><path d="m95.15,81.38c.36,0,.71-.15.97-.41s.4-.61.4-.97-.15-.72-.4-.97-.61-.41-.97-.41-.72.15-.98.41-.4.61-.4.97.14.71.4.97.61.41.98.41" class="l"/><path d="m87.18,50.19c.37,0,.72-.15.97-.4.26-.26.4-.61.4-.97s-.15-.72-.4-.97c-.26-.26-.61-.41-.97-.41s-.72.15-.97.41c-.26.26-.4.61-.4.97s.15.72.4.97c.26.26.61.4.97.4" class="l"/><path d="m87.18,89.03c.37,0,.72-.15.97-.41.26-.26.4-.61.4-.97s-.15-.72-.4-.97-.61-.4-.97-.4-.72.15-.97.4-.4.61-.4.97.15.72.4.97.61.41.97.41" class="l"/><path d="m94.87,66.61c.37,0,.72-.14.97-.4.26-.26.4-.61.4-.97s-.14-.72-.4-.98-.61-.4-.97-.4-.72.14-.97.4c-.26.26-.4.61-.4.98s.15.71.4.97c.26.26.61.4.97.4" class="l"/><path d="m94.87,72.6c.37,0,.72-.15.97-.4s.4-.61.4-.98-.14-.71-.4-.97-.61-.4-.97-.4-.72.15-.97.4-.4.61-.4.97.15.72.4.98c.26.26.61.4.97.4" class="l"/><path d="m90.6,58.13c.37,0,.72-.15.97-.4s.4-.61.4-.97-.14-.72-.4-.98-.61-.4-.97-.4-.72.15-.97.4c-.26.26-.4.61-.4.98s.15.71.4.97c.26.26.61.4.97.4" class="l"/><path d="m90.6,81.09c.37,0,.72-.14.97-.4.26-.26.4-.61.4-.98s-.14-.71-.4-.97-.61-.4-.97-.4-.72.14-.97.4c-.26.26-.4.61-.4.97s.15.72.4.98c.26.26.61.4.97.4" class="l"/><path d="m51.96,69.61c.37,0,.72-.15.98-.41s.4-.61.4-.97-.15-.72-.4-.97-.61-.41-.98-.41-.71.15-.97.41-.4.61-.4.97.14.71.4.97.61.41.97.41" class="l"/><path d="m57.99,55.99c.37,0,.72-.15.97-.41.26-.26.4-.61.4-.97s-.14-.72-.4-.97c-.26-.26-.61-.4-.97-.4s-.72.15-.97.4c-.26.26-.4.61-.4.97s.15.72.4.97c.26.26.61.41.97.41" class="l"/><path d="m57.99,83.22c.37,0,.72-.14.97-.4.26-.26.4-.61.4-.97s-.14-.72-.4-.97c-.26-.26-.61-.4-.97-.4s-.72.15-.97.4-.4.61-.4.97.15.72.4.97.61.4.97.4" class="l"/><path d="m55.59,69.61c.37,0,.72-.15.97-.41.26-.26.4-.61.4-.97s-.15-.72-.4-.97-.61-.41-.97-.41-.71.15-.97.41-.4.61-.4.97.14.71.4.97.61.41.97.41" class="l"/><path d="m61.4,58.91c.37,0,.72-.15.97-.4s.4-.61.4-.97-.15-.72-.4-.98c-.26-.26-.61-.4-.97-.4s-.71.14-.97.4-.4.61-.4.98.15.71.4.97c.26.26.61.4.97.4" class="l"/><path d="m61.4,80.3c.37,0,.72-.15.97-.4s.4-.61.4-.98-.15-.71-.4-.97c-.26-.26-.61-.4-.97-.4s-.71.14-.97.4-.4.61-.4.97.15.72.4.98c.26.26.61.4.97.4" class="l"/><path d="m69.66,52.19c.37,0,.72-.14.97-.4.26-.26.4-.61.4-.97s-.14-.72-.4-.97c-.26-.26-.61-.4-.97-.4s-.71.15-.97.4c-.26.26-.4.61-.4.97s.15.71.4.97c.26.26.61.4.97.4" class="l"/><path d="m69.66,87.03c.37,0,.72-.15.97-.41.26-.26.4-.61.4-.97s-.14-.72-.4-.97c-.26-.26-.61-.4-.97-.4s-.71.15-.97.4c-.26.26-.4.61-.4.97s.15.72.4.97.61.41.97.41" class="l"/><path d="m78.86,51.77c.37,0,.71-.14.97-.41.26-.26.4-.61.4-.97s-.15-.72-.4-.97c-.26-.26-.61-.4-.97-.4s-.72.14-.97.4c-.26.26-.4.61-.4.97s.15.72.4.97c.26.26.61.41.97.41" class="l"/><path d="m78.86,87.45c.37,0,.71-.15.97-.41s.4-.61.4-.97-.15-.72-.4-.97-.61-.41-.97-.41-.72.14-.97.41c-.26.26-.4.61-.4.97s.15.72.4.97.61.41.97.41" class="l"/><path d="m71.45,55.52c.37,0,.72-.15.97-.4.26-.26.4-.61.4-.97s-.15-.72-.4-.97c-.26-.26-.61-.4-.97-.4s-.72.15-.97.4c-.26.26-.4.61-.4.97s.14.71.4.97c.26.26.61.4.97.4" class="l"/><path d="m71.45,83.7c.37,0,.72-.15.97-.41.26-.26.4-.61.4-.97s-.15-.71-.4-.97c-.26-.26-.61-.4-.97-.4s-.72.15-.97.4-.4.61-.4.97.14.72.4.97c.26.26.61.41.97.41" class="l"/><path d="m80.73,55.38c.37,0,.72-.15.98-.41s.4-.61.4-.97-.15-.72-.4-.97c-.26-.26-.61-.41-.98-.41s-.71.15-.97.41-.4.61-.4.97.15.72.4.97c.26.26.61.41.97.41" class="l"/><path d="m80.73,83.84c.37,0,.72-.15.98-.41s.4-.61.4-.97-.15-.72-.4-.97-.61-.41-.98-.41-.71.15-.97.41-.4.61-.4.97.15.72.4.97.61.41.97.41" class="l"/><path d="m81.68,66.61c.37,0,.72-.15.97-.41.26-.26.41-.61.41-.97s-.15-.72-.41-.97c-.26-.26-.61-.41-.97-.41s-.72.15-.97.41c-.26.26-.4.61-.4.97s.14.71.4.97.61.41.97.41" class="l"/><path d="m81.68,72.61c.37,0,.72-.15.97-.41.26-.26.41-.61.41-.97s-.15-.72-.41-.97c-.26-.26-.61-.41-.97-.41s-.72.15-.97.41c-.26.26-.4.61-.4.97s.14.72.4.97c.26.26.61.41.97.41" class="l"/><path d="m70.35,69.61c.37,0,.72-.15.97-.41.26-.26.4-.61.4-.97s-.15-.72-.4-.97-.61-.41-.97-.41-.72.15-.97.41c-.26.26-.4.61-.4.97s.14.71.4.97.61.41.97.41" class="l"/><path d="m76.02,66.07c.37,0,.71-.14.97-.41.26-.26.4-.61.4-.97s-.15-.71-.4-.97c-.26-.26-.61-.4-.97-.4s-.72.14-.97.4c-.26.26-.4.61-.4.97s.14.72.4.97c.26.26.61.41.97.41" class="l"/><path d="m76.02,73.14c.37,0,.71-.15.97-.4.26-.26.4-.61.4-.97s-.15-.72-.4-.97-.61-.41-.97-.41-.72.14-.97.41c-.26.26-.4.61-.4.97s.14.71.4.97.61.4.97.4" class="l"/><path d="m73.51,108.31c10.63,0,20.82-4.22,28.34-11.74,7.51-7.52,11.74-17.71,11.74-28.34s-4.22-20.83-11.74-28.34c-7.52-7.52-17.71-11.74-28.34-11.74s-20.83,4.22-28.34,11.74c-7.51,7.52-11.74,17.71-11.74,28.34s4.22,20.82,11.74,28.34,17.71,11.74,28.34,11.74Z" class="i"/><line x1="26.5" x2="126.81" y1="68.23" y2="68.23" class="h"/><line x1="73.51" x2="73.51" y1="112.32" y2="24.14" class="h"/></g><line x1="26.5" x2="26.5" y1="112.32" y2="24.14" class="g"/><line x1="126.81" x2="126.81" y1="112.32" y2="24.14" class="g"/><line x1="26.5" x2="126.81" y1="112.32" y2="112.32" class="g"/><line x1="26.5" x2="126.81" y1="24.14" y2="24.14" class="g"/><rect width="100.32" height="88.18" x="134.49" y="24.14" class="k"/><g class="n"><path d="m230.25,69.61c.37,0,.71-.15.97-.41s.4-.61.4-.97-.14-.72-.4-.97c-.26-.26-.61-.41-.97-.41s-.72.15-.97.41c-.26.26-.4.61-.4.97s.15.71.4.97c.26.26.61.41.97.41" class="m"/><path d="m139.05,64.21c.37,0,.72-.14.97-.41.26-.26.4-.61.4-.97s-.15-.71-.4-.97c-.26-.26-.61-.4-.97-.4s-.72.15-.97.4c-.26.26-.4.61-.4.97s.15.72.4.97c.26.26.61.41.97.41" class="m"/><path d="m139.05,75c.37,0,.72-.15.97-.4.26-.26.4-.61.4-.97s-.15-.72-.4-.97c-.26-.26-.61-.41-.97-.41s-.72.15-.97.41c-.26.26-.4.61-.4.97s.15.71.4.97c.26.26.61.4.97.4" class="m"/><path d="m143.07,55.23c.37,0,.72-.15.97-.4.26-.26.4-.61.4-.97s-.14-.72-.4-.97c-.26-.26-.61-.4-.97-.4s-.72.15-.97.4c-.26.26-.4.61-.4.97s.15.72.4.97c.26.26.61.4.97.4" class="m"/><path d="m143.07,83.98c.37,0,.72-.15.97-.41.26-.26.4-.61.4-.97s-.14-.72-.4-.97c-.26-.26-.61-.4-.97-.4s-.72.15-.97.4c-.26.26-.4.61-.4.97s.15.71.4.97c.26.26.61.41.97.41" class="m"/><path d="m222.31,68.57c.36,0,.72-.15.98-.41s.4-.61.4-.97-.14-.72-.4-.97c-.26-.26-.61-.41-.98-.41s-.71.15-.97.41-.4.61-.4.97.15.72.4.97c.26.26.61.41.97.41" class="m"/><path d="m222.31,70.64c.36,0,.72-.14.98-.4s.4-.61.4-.97-.14-.72-.4-.97c-.26-.26-.61-.4-.98-.4s-.71.15-.97.4c-.26.26-.4.61-.4.97s.15.72.4.97c.26.26.61.4.97.4" class="m"/><path d="m220.87,69.61c.37,0,.71-.15.97-.41s.4-.61.4-.97-.14-.72-.4-.97c-.26-.26-.61-.41-.97-.41s-.72.15-.97.41c-.26.26-.4.61-.4.97s.14.71.4.97.61.41.97.41" class="m"/><path d="m216.39,55.36c.37,0,.72-.15.98-.41s.4-.61.4-.97-.14-.72-.4-.97c-.26-.26-.61-.4-.98-.4s-.71.15-.97.4c-.26.26-.4.61-.4.97s.15.72.4.97c.26.26.61.41.97.41" class="m"/><path d="m216.39,83.86c.37,0,.72-.15.98-.4.26-.26.4-.61.4-.97s-.14-.72-.4-.97c-.26-.26-.61-.41-.98-.41s-.71.15-.97.41-.4.61-.4.97.15.72.4.97c.26.26.61.4.97.4" class="m"/><path d="m196.04,35.07c.36,0,.71-.15.97-.4.26-.26.4-.61.4-.97s-.14-.72-.4-.98-.61-.4-.97-.4-.72.15-.98.4c-.26.26-.4.61-.4.98s.14.71.4.97c.26.26.61.4.98.4" class="m"/><path d="m196.04,104.14c.36,0,.71-.15.97-.4.26-.26.4-.61.4-.98s-.14-.71-.4-.97-.61-.4-.97-.4-.72.15-.98.4c-.26.26-.4.61-.4.97s.14.72.4.98.61.4.98.4" class="m"/><path d="m176.12,31.45c.36,0,.72-.15.97-.41.26-.26.41-.61.41-.97s-.15-.72-.41-.97c-.26-.26-.61-.41-.97-.41s-.72.15-.97.41c-.26.26-.41.61-.41.97s.14.72.41.97c.26.26.61.41.97.41" class="m"/><path d="m176.12,107.77c.36,0,.72-.14.97-.4.26-.26.41-.61.41-.97s-.15-.72-.41-.97c-.26-.26-.61-.4-.97-.4s-.72.15-.97.4c-.26.26-.41.61-.41.97s.14.72.41.97c.26.26.61.4.97.4" class="m"/><path d="m185.39,35.22c.36,0,.72-.15.97-.41.26-.26.41-.61.41-.97s-.15-.72-.41-.97c-.26-.26-.61-.41-.97-.41s-.72.15-.97.41c-.26.26-.4.61-.4.97s.14.72.4.97c.26.26.61.41.97.41" class="m"/><path d="m185.39,103.99c.36,0,.72-.15.97-.4.26-.26.41-.61.41-.97s-.15-.72-.41-.97c-.26-.26-.61-.4-.97-.4s-.72.15-.97.4c-.26.26-.4.61-.4.97s.14.72.4.97c.26.26.61.4.97.4" class="m"/><path d="m180.66,34.86c.36,0,.71-.15.97-.41s.4-.61.4-.97-.14-.72-.4-.97c-.26-.26-.61-.4-.97-.4s-.72.15-.97.4c-.26.26-.4.61-.4.97s.14.72.4.97c.26.26.61.41.97.41" class="m"/><path d="m180.66,104.36c.36,0,.71-.14.97-.41.26-.26.4-.61.4-.97s-.14-.72-.4-.97c-.26-.26-.61-.41-.97-.41s-.72.15-.97.41c-.26.26-.4.61-.4.97s.14.72.4.97c.26.26.61.41.97.41" class="m"/><path d="m158.73,42.51c.36,0,.71-.15.97-.4.26-.26.4-.61.4-.98s-.14-.71-.4-.97c-.26-.26-.61-.4-.97-.4s-.72.14-.97.4c-.26.26-.4.61-.4.97s.14.72.4.98.61.4.97.4" class="m"/><path d="m158.73,96.7c.36,0,.71-.14.97-.4s.4-.61.4-.98-.14-.71-.4-.97-.61-.4-.97-.4-.72.15-.97.4c-.26.26-.4.61-.4.97s.14.72.4.98.61.4.97.4" class="m"/><path d="m203.36,44.16c.36,0,.72-.15.97-.41.26-.26.4-.61.4-.97s-.14-.72-.4-.97c-.26-.26-.61-.41-.97-.41s-.72.15-.97.41c-.26.26-.4.61-.4.97s.15.72.4.97c.26.26.61.41.97.41" class="m"/><path d="m203.36,95.06c.36,0,.72-.15.97-.41.26-.26.4-.61.4-.97s-.14-.72-.4-.97c-.26-.26-.61-.41-.97-.41s-.72.14-.97.41c-.26.26-.4.61-.4.97s.15.72.4.97c.26.26.61.41.97.41" class="m"/><path d="m173.9,39.82c.36,0,.72-.15.97-.4.26-.26.4-.61.4-.98s-.14-.71-.4-.97c-.26-.26-.61-.4-.97-.4s-.71.15-.97.4c-.26.26-.4.61-.4.97s.14.72.4.98.61.4.97.4" class="m"/><path d="m173.9,99.39c.36,0,.72-.15.97-.4.26-.26.4-.61.4-.98s-.14-.71-.4-.97-.61-.4-.97-.4-.71.15-.97.4c-.26.26-.4.61-.4.97s.14.72.4.98.61.4.97.4" class="m"/><path d="m155.88,50.4c.37,0,.72-.14.98-.4.26-.26.4-.61.4-.97s-.15-.72-.4-.97c-.26-.26-.61-.4-.98-.4s-.71.14-.97.4c-.26.26-.4.61-.4.97s.15.72.4.97c.26.26.61.4.97.4" class="m"/><path d="m155.88,88.81c.37,0,.72-.15.98-.41s.4-.61.4-.97-.15-.72-.4-.97c-.26-.26-.61-.4-.98-.4s-.71.15-.97.4c-.26.26-.4.61-.4.97s.15.72.4.97c.26.26.61.41.97.41" class="m"/><path d="m193.82,44.7c.36,0,.72-.15.97-.4.26-.26.4-.61.4-.97s-.15-.72-.4-.97c-.26-.26-.61-.41-.97-.41s-.72.15-.97.41c-.26.26-.4.61-.4.97s.14.71.4.97c.26.26.61.4.97.4" class="m"/><path d="m193.82,94.52c.36,0,.72-.14.97-.41.26-.26.4-.61.4-.97s-.15-.72-.4-.97c-.26-.26-.61-.4-.97-.4s-.72.14-.97.4c-.26.26-.4.61-.4.97s.14.72.4.97c.26.26.61.41.97.41" class="m"/><path d="m210.1,69.61c.37,0,.72-.15.97-.41.26-.26.4-.61.4-.97s-.15-.72-.4-.97c-.26-.26-.61-.41-.97-.41s-.72.15-.97.41c-.26.26-.4.61-.4.97s.14.71.4.97.61.41.97.41" class="m"/><path d="m198.4,49.76c.37,0,.72-.15.97-.4.26-.26.4-.61.4-.98s-.15-.71-.4-.97c-.26-.26-.61-.4-.97-.4s-.72.15-.97.4c-.26.26-.4.61-.4.97s.14.72.4.98.61.4.97.4" class="m"/><path d="m198.4,89.46c.37,0,.72-.14.97-.4.26-.26.4-.61.4-.97s-.15-.72-.4-.98c-.26-.26-.61-.4-.97-.4s-.72.14-.97.4c-.26.26-.4.61-.4.98s.14.71.4.97.61.4.97.4" class="m"/><path d="m204.71,62.2c.36,0,.71-.15.97-.4.26-.26.4-.61.4-.97s-.14-.72-.4-.97c-.26-.26-.61-.4-.97-.4s-.72.15-.98.4c-.26.26-.4.61-.4.97s.14.71.4.97.61.4.98.4" class="m"/><path d="m204.71,77.02c.36,0,.71-.15.97-.41s.4-.61.4-.97-.14-.71-.4-.97-.61-.4-.97-.4-.72.14-.98.4-.4.61-.4.97.14.71.4.97.61.41.98.41" class="m"/><path d="m205.54,65.64c.37,0,.71-.14.97-.4s.4-.61.4-.97-.14-.72-.4-.97c-.26-.26-.61-.41-.97-.41s-.72.15-.98.41-.4.61-.4.97.14.71.4.97.61.4.98.4" class="m"/><path d="m205.54,73.57c.37,0,.71-.15.97-.41s.4-.61.4-.97-.14-.71-.4-.97-.61-.4-.97-.4-.72.15-.98.4c-.26.26-.4.61-.4.97s.14.72.4.97c.26.26.61.41.98.41" class="m"/><path d="m151.49,67.11c.37,0,.71-.15.97-.4.26-.26.4-.61.4-.97s-.15-.72-.4-.97c-.26-.26-.61-.41-.97-.41s-.72.15-.97.41c-.26.26-.4.61-.4.97s.15.72.4.97c.26.26.61.4.97.4" class="m"/><path d="m151.49,72.11c.37,0,.71-.14.97-.41.26-.26.4-.61.4-.97s-.15-.72-.4-.97c-.26-.26-.61-.4-.97-.4s-.72.15-.97.4c-.26.26-.4.61-.4.97s.15.72.4.97c.26.26.61.41.97.41" class="m"/><path d="m164.75,49.46c.37,0,.72-.14.97-.41.26-.26.4-.61.4-.97s-.15-.72-.4-.97c-.26-.26-.61-.4-.97-.4s-.72.15-.97.4c-.26.26-.4.61-.4.97s.14.72.4.97c.26.26.61.41.97.41" class="m"/><path d="m164.75,89.76c.37,0,.72-.15.97-.41.26-.26.4-.61.4-.97s-.15-.72-.4-.97c-.26-.26-.61-.41-.97-.41s-.72.15-.97.41c-.26.26-.4.61-.4.97s.14.72.4.97c.26.26.61.41.97.41" class="m"/><path d="m155.07,63.42c.37,0,.71-.15.97-.4.26-.26.4-.61.4-.98s-.15-.71-.4-.97c-.26-.26-.61-.4-.97-.4s-.72.14-.97.4c-.26.26-.4.61-.4.97s.14.72.4.98.61.4.97.4" class="m"/><path d="m155.07,75.8c.37,0,.71-.15.97-.4.26-.26.4-.61.4-.98s-.15-.71-.4-.97c-.26-.26-.61-.4-.97-.4s-.72.15-.97.4c-.26.26-.4.61-.4.97s.14.72.4.98.61.4.97.4" class="m"/><path d="m185.05,47.29c.37,0,.72-.15.97-.41.26-.26.4-.61.4-.97s-.14-.72-.4-.97c-.26-.26-.61-.4-.97-.4s-.72.15-.97.4c-.26.26-.4.61-.4.97s.14.72.4.97c.26.26.61.41.97.41" class="m"/><path d="m185.05,91.93c.37,0,.72-.15.97-.41.26-.26.4-.61.4-.97s-.14-.72-.4-.97c-.26-.26-.61-.41-.97-.41s-.72.15-.97.41c-.26.26-.4.61-.4.97s.14.72.4.97c.26.26.61.41.97.41" class="m"/><path d="m193.58,52.38c.37,0,.71-.15.97-.41s.4-.61.4-.97-.14-.71-.4-.97c-.26-.26-.61-.4-.97-.4s-.72.15-.97.4c-.26.26-.4.61-.4.97s.14.72.4.97c.26.26.61.41.97.41" class="m"/><path d="m193.58,86.83c.37,0,.71-.14.97-.4s.4-.61.4-.97-.14-.72-.4-.98-.61-.4-.97-.4-.72.15-.97.4c-.26.26-.4.61-.4.98s.14.71.4.97.61.4.97.4" class="m"/><path d="m186.89,50.18c.37,0,.71-.15.97-.41s.4-.61.4-.97-.15-.72-.4-.97c-.26-.26-.61-.4-.97-.4s-.72.15-.97.4c-.26.26-.41.61-.41.97s.14.72.41.97c.26.26.61.41.97.41" class="m"/><path d="m186.89,89.04c.37,0,.71-.15.97-.4.26-.26.4-.61.4-.97s-.15-.72-.4-.97c-.26-.26-.61-.41-.97-.41s-.72.15-.97.41c-.26.26-.41.61-.41.97s.14.72.41.97c.26.26.61.4.97.4" class="m"/><path d="m172.92,49.93c.37,0,.72-.15.97-.4.26-.26.4-.61.4-.98s-.14-.71-.4-.97c-.26-.26-.61-.4-.97-.4s-.71.14-.97.4c-.26.26-.4.61-.4.97s.14.71.4.98c.26.26.61.4.97.4" class="m"/><path d="m172.92,89.29c.37,0,.72-.15.97-.4.26-.26.4-.61.4-.97s-.14-.72-.4-.98-.61-.4-.97-.4-.71.15-.97.4c-.26.26-.4.61-.4.98s.14.71.4.97.61.4.97.4" class="m"/><path d="m166.07,55.14c.36,0,.72-.15.97-.4.26-.26.4-.61.4-.97s-.14-.72-.4-.98-.61-.4-.97-.4-.72.15-.97.4c-.26.26-.4.61-.4.98s.14.71.4.97c.26.26.61.4.97.4" class="m"/><path d="m166.07,84.08c.36,0,.72-.14.97-.4.26-.26.4-.61.4-.98s-.14-.71-.4-.97-.61-.4-.97-.4-.72.15-.97.4c-.26.26-.4.61-.4.97s.14.72.4.98.61.4.97.4" class="m"/><path d="m160.54,69.61c.37,0,.71-.15.97-.41s.4-.61.4-.97-.14-.72-.4-.97c-.26-.26-.61-.41-.97-.41s-.72.15-.97.41c-.26.26-.4.61-.4.97s.14.71.4.97.61.41.97.41" class="m"/><path d="m167.09,59.38c.36,0,.71-.15.97-.4.26-.26.4-.61.4-.97s-.14-.72-.4-.98-.61-.4-.97-.4-.72.15-.98.4c-.26.26-.4.61-.4.98s.14.71.4.97.61.4.98.4" class="m"/><path d="m167.09,79.84c.36,0,.71-.15.97-.41s.4-.61.4-.97-.14-.71-.4-.97-.61-.4-.97-.4-.72.14-.98.4-.4.61-.4.97.14.72.4.97c.26.26.61.41.98.41" class="m"/><path d="m166.41,69.61c.37,0,.72-.15.97-.41.26-.26.4-.61.4-.97s-.14-.72-.4-.97c-.26-.26-.61-.41-.97-.41s-.72.15-.97.41c-.26.26-.4.61-.4.97s.14.71.4.97.61.41.97.41" class="m"/><path d="m194.24,59.75c.36,0,.72-.15.97-.41.26-.26.4-.61.4-.97s-.14-.72-.4-.97c-.26-.26-.61-.41-.97-.41s-.72.15-.97.41c-.26.26-.4.61-.4.97s.14.72.4.97c.26.26.61.41.97.41" class="m"/><path d="m194.24,79.47c.36,0,.72-.15.97-.41.26-.26.4-.61.4-.97s-.14-.72-.4-.97c-.26-.26-.61-.41-.97-.41s-.72.15-.97.41c-.26.26-.4.61-.4.97s.14.72.4.97c.26.26.61.41.97.41" class="m"/><path d="m179.44,56.78c.36,0,.71-.15.97-.41s.4-.61.4-.97-.14-.72-.4-.97c-.26-.26-.61-.4-.97-.4s-.72.15-.98.4c-.26.26-.4.61-.4.97s.14.72.4.97c.26.26.61.41.98.41" class="m"/><path d="m179.44,82.43c.36,0,.71-.15.97-.4.26-.26.4-.61.4-.97s-.14-.72-.4-.97c-.26-.26-.61-.41-.97-.41s-.72.15-.98.41-.4.61-.4.97.14.71.4.97.61.4.98.4" class="m"/><path d="m179.13,60.3c.36,0,.72-.14.97-.4.26-.26.4-.61.4-.97s-.14-.72-.4-.98-.61-.4-.97-.4-.71.15-.97.4c-.26.26-.4.61-.4.98s.14.71.4.97.61.4.97.4" class="m"/><path d="m179.13,78.92c.36,0,.72-.15.97-.41.26-.26.4-.61.4-.97s-.14-.71-.4-.97-.61-.4-.97-.4-.71.15-.97.4c-.26.26-.4.61-.4.97s.14.72.4.97c.26.26.61.41.97.41" class="m"/><path d="m177.51,69.61c.36,0,.72-.15.98-.41s.4-.61.4-.97-.14-.72-.4-.97c-.26-.26-.61-.41-.98-.41s-.71.15-.97.41-.4.61-.4.97.14.71.4.97.61.41.97.41" class="m"/><path d="m192.84,69.61c.37,0,.72-.15.97-.41.26-.26.4-.61.4-.97s-.14-.72-.4-.97c-.26-.26-.61-.41-.97-.41s-.72.15-.97.41c-.26.26-.41.61-.41.97s.15.71.41.97c.26.26.61.41.97.41" class="m"/><path d="m187.86,69.61c.37,0,.72-.15.97-.41.26-.26.4-.61.4-.97s-.15-.72-.4-.97c-.26-.26-.61-.41-.97-.41s-.72.15-.97.41c-.26.26-.4.61-.4.97s.14.71.4.97.61.41.97.41" class="m"/><path d="m181.51,108.31c10.63,0,20.83-4.22,28.34-11.74,7.52-7.52,11.74-17.71,11.74-28.34s-4.22-20.83-11.74-28.34c-7.52-7.52-17.71-11.74-28.34-11.74s-20.83,4.22-28.34,11.74c-7.52,7.52-11.74,17.71-11.74,28.34s4.22,20.82,11.74,28.34c7.51,7.52,17.71,11.74,28.34,11.74Z" class="i"/><line x1="134.49" x2="234.81" y1="68.23" y2="68.23" class="h"/><line x1="181.51" x2="181.51" y1="112.32" y2="24.14" class="h"/></g><line x1="134.49" x2="134.49" y1="112.32" y2="24.14" class="g"/><line x1="234.81" x2="234.81" y1="112.32" y2="24.14" class="g"/><line x1="134.49" x2="234.81" y1="112.32" y2="112.32" class="g"/><line x1="134.49" x2="234.81" y1="24.14" y2="24.14" class="g"/><line x1="26.63" x2="24.11" y1="28.16" y2="28.16" class="j"/><line x1="26.63" x2="24.11" y1="48.25" y2="48.25" class="j"/><line x1="26.63" x2="24.11" y1="68.33" y2="68.33" class="j"/><line x1="26.63" x2="24.11" y1="88.42" y2="88.42" class="j"/><line x1="26.63" x2="24.11" y1="108.51" y2="108.51" class="j"/><line x1="134.61" x2="132.1" y1="28.16" y2="28.16" class="j"/><line x1="134.61" x2="132.1" y1="48.25" y2="48.25" class="j"/><line x1="134.61" x2="132.1" y1="68.33" y2="68.33" class="j"/><line x1="134.61" x2="132.1" y1="88.42" y2="88.42" class="j"/><line x1="134.61" x2="132.1" y1="108.51" y2="108.51" class="j"/><line x1="33.72" x2="33.72" y1="112.27" y2="114.78" class="j"/><line x1="73.43" x2="73.43" y1="112.27" y2="114.78" class="j"/><line x1="113.26" x2="113.26" y1="112.27" y2="114.78" class="j"/><line x1="142.31" x2="142.31" y1="112.27" y2="114.78" class="j"/><line x1="181.52" x2="181.52" y1="112.27" y2="114.78" class="j"/><line x1="221.84" x2="221.84" y1="112.27" y2="114.78" class="j"/><path d="m16.06,25.85h.78v3.95h-.39v-3.56h-.62l.24-.38h-.01Z"/><path d="m18.49,29.54c0-.09.03-.17.1-.23s.14-.1.23-.1.17.03.23.1c.06.06.1.14.1.24s-.03.17-.1.24c-.06.06-.14.1-.23.1s-.17-.03-.23-.1c-.07-.07-.1-.14-.1-.24h0Z"/><path d="m20.74,29.89c-.43,0-.75-.18-.98-.53s-.34-.87-.34-1.55.12-1.2.34-1.55c.23-.35.55-.53.98-.53s.76.18,1,.54c.25.36.37.87.37,1.54s-.12,1.18-.37,1.54-.58.54-1,.54Zm0-3.77c-.3,0-.54.15-.71.44-.17.29-.25.72-.25,1.27,0,1.14.32,1.71.96,1.71.31,0,.55-.15.73-.45s.26-.72.26-1.27-.09-.97-.27-1.26-.42-.44-.72-.44Z"/><path d="m5.66.14v4.94h-.62v-.85c-.56.68-1.21,1.01-1.93,1.01s-1.34-.26-1.84-.78-.75-1.13-.75-1.85.25-1.33.75-1.84,1.1-.77,1.8-.77c.81,0,1.46.34,1.96,1.03V.13h.63Zm-.59,2.49c0-.56-.19-1.04-.57-1.43s-.84-.58-1.39-.58-1.01.2-1.39.6-.57.87-.57,1.42.19,1.02.58,1.42c.38.4.84.6,1.38.6s1-.19,1.38-.58c.38-.38.58-.87.58-1.45Z"/><path d="m15.49,49.98c-.43,0-.75-.18-.98-.53s-.34-.87-.34-1.55.12-1.2.34-1.55c.23-.35.55-.53.98-.53s.76.18,1,.54c.25.36.37.87.37,1.54s-.12,1.18-.37,1.54-.58.54-1,.54Zm0-3.77c-.3,0-.54.15-.71.44-.17.29-.25.72-.25,1.27,0,1.14.32,1.71.96,1.71.31,0,.55-.15.73-.45s.26-.72.26-1.27-.09-.97-.27-1.26-.42-.44-.72-.44Z"/><path d="m17.26,49.62c0-.09.03-.17.1-.23s.14-.1.23-.1.17.03.23.1c.06.06.1.14.1.24s-.03.17-.1.24c-.06.06-.14.1-.23.1s-.17-.03-.23-.1c-.07-.07-.1-.14-.1-.24h0Z"/><path d="m20.91,45.93v.37h-1.41l-.2,1.08c.18-.05.34-.08.5-.08.34,0,.63.12.86.37.23.24.35.56.35.94s-.12.71-.38.97c-.25.27-.58.4-1,.4-.32,0-.58-.09-.81-.28s-.35-.45-.4-.77h.4c.05.22.15.39.3.51.15.12.32.18.52.18.26,0,.49-.1.67-.29s.28-.44.28-.73c0-.26-.08-.48-.25-.65-.17-.17-.38-.26-.65-.26s-.56.07-.88.21l.37-1.96h1.73Z"/><path d="m19.91,70.07c-.43,0-.75-.18-.98-.53s-.34-.87-.34-1.55.12-1.2.34-1.55c.23-.35.55-.53.98-.53s.76.18,1,.54c.25.36.37.87.37,1.54s-.12,1.18-.37,1.54-.58.54-1,.54Zm0-3.77c-.3,0-.54.15-.71.44s-.25.72-.25,1.27c0,1.14.32,1.71.96,1.71.31,0,.55-.15.73-.45s.26-.72.26-1.27-.09-.97-.27-1.26-.42-.44-.72-.44Z"/><path d="m13.84,88.25h-2.75v-.33h2.75v.33Z"/><path d="m15.34,90.15c-.43,0-.75-.18-.98-.53s-.34-.87-.34-1.55.12-1.2.34-1.55c.23-.35.55-.53.98-.53s.76.18,1,.54c.25.36.37.87.37,1.54s-.12,1.18-.37,1.54-.58.54-1,.54Zm0-3.77c-.3,0-.54.15-.71.44s-.25.72-.25,1.27c0,1.14.32,1.71.96,1.71.31,0,.55-.15.73-.45s.26-.72.26-1.27-.09-.97-.27-1.26-.42-.44-.72-.44Z"/><path d="m17.11,89.79c0-.09.03-.17.1-.23.07-.06.14-.1.23-.1s.17.03.23.1c.06.06.1.14.1.24s-.03.17-.1.24c-.06.06-.14.1-.23.1s-.17-.03-.23-.1c-.07-.07-.1-.14-.1-.24h0Z"/><path d="m20.76,86.1v.37h-1.41l-.2,1.08c.18-.05.34-.08.5-.08.34,0,.63.12.86.37.23.24.35.56.35.94s-.12.71-.38.97c-.25.27-.58.4-1,.4-.32,0-.58-.09-.81-.28s-.35-.45-.4-.77h.4c.05.22.15.39.3.51.15.12.32.18.52.18.26,0,.49-.1.67-.29s.28-.44.28-.73c0-.26-.08-.48-.25-.65s-.38-.26-.65-.26-.56.07-.88.21l.37-1.96h1.73Z"/><path d="m.12,82.86v-.47h4.67v.47H.12Z"/><path d="m1.33,81.4v-.44h.6c-.46-.31-.69-.7-.69-1.18,0-.26.07-.48.22-.69.15-.2.35-.34.61-.41-.27-.14-.47-.33-.62-.55-.14-.22-.21-.48-.21-.76s.11-.55.33-.78c.22-.23.66-.35,1.32-.35h1.88v.46h-1.88c-.32,0-.55.02-.7.06s-.28.12-.38.25c-.1.13-.15.3-.15.52s.07.42.21.6c.14.19.33.31.55.38.22.07.55.1,1,.1h1.35v.44h-1.77c-.37,0-.63.02-.79.06s-.29.12-.4.26c-.11.13-.16.3-.16.49s.06.38.17.55.27.31.47.4.54.15,1.01.15h1.46v.44H1.31h.02Z"/><path d="m1.33,71.87h3.45v.44h-.59c.47.39.71.84.71,1.35s-.18.93-.54,1.28-.79.52-1.29.52-.93-.18-1.29-.53-.54-.77-.54-1.26c0-.56.24-1.02.72-1.37h-.63v-.44h0Zm1.74.41c-.39,0-.73.13-1,.4-.27.26-.41.59-.41.97s.14.71.42.97.61.4.99.4.71-.13.99-.4.42-.59.42-.96-.13-.7-.4-.97c-.27-.27-.61-.4-1.01-.4h0Z"/><path d="m1.33,67.84v-.45h2.67c.47,0,.82.04,1.04.12s.41.2.55.36c.15.16.26.34.34.57.08.22.12.46.12.73,0,.9-.36,1.5-1.08,1.78v-.48c.45-.25.68-.68.68-1.28,0-.29-.06-.54-.17-.76-.11-.21-.26-.37-.43-.45s-.45-.13-.82-.13h-.15c.22.18.39.39.49.63.11.24.16.5.16.77,0,.5-.17.92-.51,1.25s-.75.5-1.21.5-.9-.18-1.24-.53c-.35-.35-.52-.79-.52-1.29s.23-.95.69-1.33h-.61Zm1.67-.02c-.38,0-.69.13-.95.38-.25.26-.38.57-.38.95,0,.4.14.73.41.99.28.26.59.4.95.4s.66-.13.91-.38.37-.58.37-.98-.12-.72-.36-.98c-.24-.25-.56-.38-.94-.38h0Z"/><path d="m.37,66.7c-.1,0-.19-.04-.26-.11s-.11-.16-.11-.26.04-.19.11-.26.16-.11.26-.11.19.04.26.11.11.16.11.26-.04.19-.11.26-.16.11-.25.11h-.01Zm.96-.14v-.45h3.45v.45H1.33Z"/><path d="m1.33,65.19v-.45h.62c-.47-.36-.71-.79-.71-1.29,0-.26.07-.49.21-.7s.32-.35.55-.44.56-.13,1-.13h1.77v.44h-1.64c-.4,0-.68.02-.82.06s-.26.09-.36.17-.18.17-.23.29-.08.26-.08.43.04.33.12.49.2.3.34.41c.15.11.3.19.46.23s.47.06.94.06h1.27v.45H1.32v-.02Z"/><path d="m1.33,57.79h3.45v.44h-.59c.47.39.71.84.71,1.35s-.18.93-.54,1.28-.79.52-1.29.52-.93-.18-1.29-.53-.54-.77-.54-1.26c0-.56.24-1.02.72-1.37h-.63v-.44h0Zm1.74.41c-.39,0-.73.13-1,.4-.27.26-.41.59-.41.97s.14.71.42.97.61.4.99.4.71-.13.99-.4.42-.59.42-.96-.13-.7-.4-.97c-.27-.27-.61-.4-1.01-.4h0Z"/><path d="m1.33,56.96v-.46h.5c-.2-.12-.35-.24-.45-.35-.1-.12-.14-.24-.14-.38s.04-.28.12-.43l.38.23c-.04.07-.06.13-.06.2,0,.13.07.26.21.38s.32.21.54.26c.22.06.62.08,1.19.08h1.17v.46H1.33Z"/><path d="m1.33,55.17v-.47l2.66-1.19-2.66-1.15v-.47l4.71,2.06v.47l-1.52-.66-3.19,1.42h0Z"/><path d="m15.17,108.34h-2.75v-.33h2.75v.33Z"/><path d="m16.08,106.2h.78v3.95h-.39v-3.56h-.62l.24-.38h-.01Z"/><path d="m18.51,109.89c0-.09.03-.17.1-.23.07-.06.14-.1.23-.1s.17.03.23.1c.06.06.1.14.1.24s-.03.17-.1.24c-.06.06-.14.1-.23.1s-.17-.03-.23-.1c-.07-.07-.1-.14-.1-.24h0Z"/><path d="m20.75,110.24c-.43,0-.75-.18-.98-.53s-.34-.87-.34-1.55.12-1.2.34-1.55c.23-.35.55-.53.98-.53s.76.18,1,.54c.25.36.37.87.37,1.54s-.12,1.18-.37,1.54-.58.54-1,.54Zm0-3.77c-.3,0-.54.15-.71.44s-.25.72-.25,1.27c0,1.14.32,1.71.96,1.71.31,0,.55-.15.73-.45s.26-.72.26-1.27-.09-.97-.27-1.26-.42-.44-.72-.44Z"/><path d="m34.18,119.13h-2.75v-.33h2.75v.33Z"/><path d="m35.1,116.99h.78v3.95h-.39v-3.56h-.62l.24-.38h0Z"/><path d="m73.06,121.03c-.43,0-.75-.18-.98-.53s-.34-.87-.34-1.55.12-1.2.34-1.55c.23-.35.55-.53.98-.53s.76.18,1,.54c.25.36.37.87.37,1.54s-.12,1.18-.37,1.54-.58.54-1,.54h0Zm.01-3.77c-.3,0-.54.15-.71.44s-.25.72-.25,1.27c0,1.14.32,1.71.96,1.71.31,0,.55-.15.73-.45s.26-.72.26-1.27-.09-.97-.27-1.26-.42-.44-.72-.44Z"/><path d="m70.68,125.83h.93c.52,0,.88.02,1.07.07s.35.12.49.22.24.24.32.4c.08.16.12.35.12.55,0,.4-.14.71-.42.94s-.68.33-1.2.32l1.68,2.17h-.58l-1.68-2.17h-.27v2.17h-.47v-4.67h0Zm.47.46v1.59h.81c.4,0,.69-.06.88-.19s.28-.33.28-.61-.09-.48-.28-.6c-.19-.13-.47-.19-.86-.19h-.83,0Z"/><path d="m77.34,129.38l.38.19c-.37.69-.92,1.04-1.65,1.04-.52,0-.95-.18-1.29-.54-.34-.36-.51-.79-.51-1.29s.17-.93.51-1.29c.34-.36.76-.54,1.26-.54s.92.17,1.26.5c.34.33.52.79.53,1.37h-3.11c.01.42.14.75.39,1s.55.38.91.38c.58,0,1.02-.27,1.31-.83h.01Zm0-.94c-.06-.33-.21-.59-.46-.77-.24-.19-.52-.28-.84-.28-.65,0-1.08.35-1.27,1.05,0,0,2.57,0,2.57,0Z"/><path d="m82.14,127.05v3.45h-.44v-.59c-.39.47-.84.71-1.35.71s-.93-.18-1.28-.54-.52-.79-.52-1.29.18-.93.53-1.29.77-.54,1.26-.54c.56,0,1.02.24,1.37.72v-.63h.44-.01Zm-.41,1.74c0-.39-.13-.73-.4-1-.26-.27-.59-.41-.97-.41s-.71.14-.97.42-.4.61-.4.99.13.71.4.99c.27.28.59.42.96.42s.7-.13.97-.4.4-.61.4-1.01h.01Z"/><path d="m83.07,125.71h.44v4.78h-.44v-4.78Z"/><path d="m54.78,14.9h.92c.49,0,.86.1,1.11.3s.38.48.38.85c0,.2-.05.39-.15.56s-.25.31-.45.41c.32.1.56.26.73.47s.25.46.25.74c0,.39-.14.71-.42.96s-.65.38-1.09.38h-1.29v-4.67h0Zm.46.46v1.5h.27c.41,0,.71-.06.91-.19.2-.13.3-.33.3-.61,0-.46-.31-.69-.94-.69h-.54Zm0,1.96v1.79h.58c.33,0,.58-.03.74-.1.16-.07.29-.17.39-.31s.15-.28.15-.43-.03-.28-.08-.39c-.06-.11-.14-.21-.25-.3s-.24-.15-.4-.2c-.15-.04-.44-.06-.86-.06h-.27Z"/><path d="m61.33,18.45l.38.19c-.37.69-.92,1.04-1.65,1.04-.52,0-.95-.18-1.29-.54-.34-.36-.51-.79-.51-1.29s.17-.93.51-1.29c.34-.36.76-.54,1.26-.54s.92.17,1.26.5c.34.33.52.79.53,1.37h-3.11c.01.42.14.75.39,1s.55.38.91.38c.58,0,1.02-.27,1.31-.83h.01Zm0-.94c-.06-.33-.21-.59-.46-.77-.24-.19-.52-.28-.84-.28-.65,0-1.08.35-1.27,1.05,0,0,2.57,0,2.57,0Z"/><path d="m64.08,14.88v.44c-.17-.07-.32-.11-.45-.11s-.22.04-.26.13-.06.22-.06.41v.38h.72v.38h-.72v3.07h-.45v-3.07h-.45v-.38h.45v-.45c0-.3.06-.53.17-.67s.29-.21.53-.21c.14,0,.31.03.52.09h0Z"/><path d="m64.37,17.87c0-.51.17-.94.52-1.3.35-.36.77-.54,1.27-.54s.92.18,1.27.54.52.79.52,1.29-.17.93-.52,1.29c-.34.36-.77.54-1.28.54s-.93-.18-1.28-.54-.52-.79-.52-1.28h.02Zm3.15,0c0-.38-.13-.71-.4-.99-.27-.28-.58-.42-.95-.42s-.68.14-.95.42c-.26.28-.4.61-.4,1s.13.71.38.98c.26.27.57.4.95.4s.7-.14.96-.41.39-.6.39-.98h.02Z"/><path d="m68.62,16.12h.46v.5c.12-.2.24-.35.35-.45.12-.1.24-.14.38-.14s.28.04.43.12l-.23.38c-.07-.04-.13-.06-.2-.06-.13,0-.26.07-.38.21s-.21.32-.26.54c-.06.22-.08.62-.08,1.19v1.17h-.46v-3.45h0Z"/><path d="m73.56,18.45l.38.19c-.37.69-.92,1.04-1.65,1.04-.52,0-.95-.18-1.29-.54-.34-.36-.51-.79-.51-1.29s.17-.93.51-1.29c.34-.36.76-.54,1.26-.54s.92.17,1.26.5c.34.33.52.79.53,1.37h-3.11c.01.42.14.75.39,1s.55.38.91.38c.58,0,1.02-.27,1.31-.83h.01Zm0-.94c-.06-.33-.21-.59-.46-.77-.24-.19-.52-.28-.84-.28-.65,0-1.08.35-1.27,1.05,0,0,2.57,0,2.57,0Z"/><path d="m77.34,19.03c0,.12.02.19.05.21.03.02.11.03.23.03h.27v.38c-.18.03-.33.05-.43.05-.19,0-.34-.05-.43-.14s-.14-.24-.14-.45v-2.6h-.61v-.38h.61v-1.33h.45v1.33h.7v.38h-.7v2.53h0Z"/><path d="m78.54,16.12h.46v.5c.12-.2.24-.35.35-.45.12-.1.24-.14.38-.14s.28.04.43.12l-.23.38c-.07-.04-.13-.06-.2-.06-.13,0-.26.07-.38.21s-.21.32-.26.54c-.06.22-.08.62-.08,1.19v1.17h-.46v-3.45h0Z"/><path d="m84.07,16.12v3.45h-.44v-.59c-.39.47-.84.71-1.35.71s-.93-.18-1.28-.54-.52-.79-.52-1.29.18-.93.53-1.29.77-.54,1.26-.54c.56,0,1.02.24,1.37.72v-.63h.44-.01Zm-.41,1.74c0-.39-.13-.73-.4-1-.26-.27-.59-.41-.97-.41s-.71.14-.97.42-.4.61-.4.99.13.71.4.99c.27.28.59.42.96.42s.7-.13.97-.4.4-.61.4-1.01h.01Z"/><path d="m84.86,15.16c0-.1.04-.19.11-.26s.16-.11.26-.11.19.04.26.11.11.16.11.26-.04.19-.11.26-.16.11-.26.11-.19-.04-.26-.11-.11-.16-.11-.25h0Zm.14.96h.45v3.45h-.45v-3.45Z"/><path d="m86.37,16.12h.45v.62c.36-.47.79-.71,1.29-.71.26,0,.49.07.7.21s.35.32.44.55.13.56.13,1v1.77h-.44v-1.64c0-.4-.02-.68-.06-.82s-.09-.26-.17-.36-.17-.18-.29-.23-.26-.08-.43-.08-.33.04-.49.12-.3.2-.41.34c-.11.15-.19.3-.23.46s-.06.47-.06.94v1.27h-.45v-3.45h.02Z"/><path d="m90.13,15.16c0-.1.04-.19.11-.26s.16-.11.26-.11.19.04.26.11.11.16.11.26-.04.19-.11.26-.16.11-.26.11-.19-.04-.26-.11-.11-.16-.11-.25h0Zm.14.96h.45v3.45h-.45v-3.45Z"/><path d="m91.64,16.12h.45v.62c.36-.47.79-.71,1.29-.71.26,0,.49.07.7.21s.35.32.44.55.13.56.13,1v1.77h-.44v-1.64c0-.4-.02-.68-.06-.82s-.09-.26-.17-.36-.17-.18-.29-.23-.26-.08-.43-.08-.33.04-.49.12-.3.2-.41.34c-.11.15-.19.3-.23.46s-.06.47-.06.94v1.27h-.45v-3.45h.02Z"/><path d="m98.62,16.12h.45v2.67c0,.47-.04.82-.12,1.04s-.2.41-.36.55c-.16.15-.34.26-.57.34-.22.08-.46.12-.73.12-.9,0-1.5-.36-1.78-1.08h.48c.25.45.68.68,1.28.68.29,0,.54-.06.76-.17.21-.11.37-.26.45-.43.09-.18.13-.45.13-.82v-.15c-.18.22-.39.39-.63.49-.24.11-.5.16-.77.16-.5,0-.92-.17-1.25-.51s-.5-.75-.5-1.21.18-.9.53-1.24c.35-.35.79-.52,1.29-.52s.95.23,1.33.69v-.6h.01Zm.02,1.67c0-.38-.13-.69-.38-.95-.26-.26-.57-.38-.95-.38-.4,0-.73.14-.99.41-.26.28-.4.59-.4.95s.13.66.38.91.58.37.98.37.72-.12.98-.36c.25-.24.38-.56.38-.94h0Z"/><path d="m167.01,14.72l2.18,4.86h-.5l-.73-1.59h-2.01l-.73,1.59h-.52l2.2-4.86h.12,0Zm-.06,1.03l-.8,1.75h1.59l-.79-1.75Z"/><path d="m171.26,14.88v.44c-.17-.07-.32-.11-.45-.11s-.22.04-.26.13-.06.22-.06.41v.38h.72v.38h-.72v3.07h-.45v-3.07h-.45v-.38h.45v-.45c0-.3.06-.53.17-.67s.29-.21.53-.21c.14,0,.31.03.52.09h0Z"/><path d="m172.74,19.03c0,.12.02.19.05.21.03.02.11.03.23.03h.27v.38c-.18.03-.33.05-.43.05-.19,0-.34-.05-.43-.14s-.14-.24-.14-.45v-2.6h-.61v-.38h.61v-1.33h.45v1.33h.7v.38h-.7v2.53h0Z"/><path d="m177.01,18.45l.38.19c-.37.69-.92,1.04-1.65,1.04-.52,0-.95-.18-1.29-.54s-.51-.79-.51-1.29.17-.93.51-1.29.76-.54,1.26-.54.92.17,1.26.5.52.79.53,1.37h-3.11c0,.42.14.75.39,1s.55.38.91.38c.58,0,1.02-.27,1.31-.83h0Zm0-.94c-.06-.33-.21-.59-.46-.77-.24-.19-.52-.28-.84-.28-.65,0-1.08.35-1.27,1.05,0,0,2.57,0,2.57,0Z"/><path d="m178.17,16.12h.46v.5c.12-.2.24-.35.35-.45.12-.1.24-.14.38-.14s.28.04.43.12l-.23.38c-.07-.04-.13-.06-.2-.06-.13,0-.26.07-.38.21s-.21.32-.26.54c-.06.22-.08.62-.08,1.19v1.17h-.46v-3.45h-.01Z"/><path d="m182.75,19.03c0,.12.02.19.05.21.03.02.11.03.23.03h.27v.38c-.18.03-.33.05-.43.05-.19,0-.34-.05-.43-.14s-.14-.24-.14-.45v-2.6h-.61v-.38h.61v-1.33h.45v1.33h.7v.38h-.7v2.53h0Z"/><path d="m183.95,16.12h.46v.5c.12-.2.24-.35.35-.45.12-.1.24-.14.38-.14s.28.04.43.12l-.23.38c-.07-.04-.13-.06-.2-.06-.13,0-.26.07-.38.21s-.21.32-.26.54c-.06.22-.08.62-.08,1.19v1.17h-.46v-3.45h-.01Z"/><path d="m189.49,16.12v3.45h-.44v-.59c-.39.47-.84.71-1.35.71s-.93-.18-1.28-.54-.52-.79-.52-1.29.18-.93.53-1.29.77-.54,1.26-.54c.56,0,1.02.24,1.37.72v-.63h.44,0Zm-.41,1.74c0-.39-.13-.73-.4-1-.26-.27-.59-.41-.97-.41s-.71.14-.97.42-.4.61-.4.99.13.71.4.99c.27.28.59.42.96.42s.7-.13.97-.4.4-.61.4-1.01h0Z"/><path d="m190.28,15.16c0-.1.04-.19.11-.26s.16-.11.26-.11.19.04.26.11c.07.07.11.16.11.26s-.04.19-.11.26-.16.11-.26.11-.19-.04-.26-.11c-.07-.07-.11-.16-.11-.25h0Zm.14.96h.45v3.45h-.45v-3.45Z"/><path d="m191.79,16.12h.45v.62c.36-.47.79-.71,1.29-.71.26,0,.49.07.7.21s.35.32.44.55.13.56.13,1v1.77h-.44v-1.64c0-.4-.02-.68-.06-.82s-.09-.26-.17-.36-.17-.18-.29-.23-.26-.08-.43-.08-.33.04-.49.12-.3.2-.41.34c-.11.15-.19.3-.23.46s-.06.47-.06.94v1.27h-.45v-3.45h.02Z"/><path d="m195.55,15.16c0-.1.04-.19.11-.26s.16-.11.26-.11.19.04.26.11c.07.07.11.16.11.26s-.04.19-.11.26-.16.11-.26.11-.19-.04-.26-.11c-.07-.07-.11-.16-.11-.25h0Zm.14.96h.45v3.45h-.45v-3.45Z"/><path d="m197.05,16.12h.45v.62c.36-.47.79-.71,1.29-.71.26,0,.49.07.7.21s.35.32.44.55.13.56.13,1v1.77h-.44v-1.64c0-.4-.02-.68-.06-.82s-.09-.26-.17-.36-.17-.18-.29-.23-.26-.08-.43-.08-.33.04-.49.12-.3.2-.41.34c-.11.15-.19.3-.23.46s-.06.47-.06.94v1.27h-.45v-3.45h.02Z"/><path d="m204.04,16.12h.45v2.67c0,.47-.04.82-.12,1.04s-.2.41-.36.55c-.16.15-.34.26-.57.34-.22.08-.46.12-.73.12-.9,0-1.5-.36-1.78-1.08h.48c.25.45.68.68,1.28.68.29,0,.54-.06.76-.17.21-.11.37-.26.45-.43.09-.18.13-.45.13-.82v-.15c-.18.22-.39.39-.63.49-.24.11-.5.16-.77.16-.5,0-.92-.17-1.25-.51s-.5-.75-.5-1.21.18-.9.53-1.24c.35-.35.79-.52,1.29-.52s.95.23,1.33.69v-.6h.01Zm.02,1.67c0-.38-.13-.69-.38-.95-.26-.26-.57-.38-.95-.38-.4,0-.73.14-.99.41-.26.28-.4.59-.4.95s.13.66.38.91.58.37.98.37.72-.12.98-.36c.25-.24.38-.56.38-.94h0Z"/><path d="m103.88,2.59h2.68v.46h-2.21v1.46h2.19v.46h-2.19v1.83h2.19v.46h-2.66V2.59h0Z"/><path d="m107.08,2.85c0-.1.04-.19.11-.26.07-.07.16-.11.26-.11s.19.04.26.11c.07.07.11.16.11.26s-.04.19-.11.26c-.07.07-.16.11-.26.11s-.19-.04-.26-.11c-.07-.07-.11-.16-.11-.25h0Zm.14.96h.45v3.45h-.45v-3.45Z"/><path d="m111.61,3.81h.45v2.67c0,.47-.04.82-.12,1.04s-.2.41-.36.55c-.16.15-.34.26-.57.34-.22.08-.46.12-.73.12-.9,0-1.5-.36-1.78-1.08h.48c.25.45.68.68,1.28.68.29,0,.54-.06.76-.17.21-.11.37-.26.45-.43.09-.18.13-.45.13-.82v-.15c-.18.22-.39.39-.63.49-.24.11-.5.16-.77.16-.5,0-.92-.17-1.25-.51s-.5-.75-.5-1.21.18-.9.53-1.24c.35-.35.79-.52,1.29-.52s.95.23,1.33.69v-.6h.01Zm.02,1.67c0-.38-.13-.69-.38-.95-.26-.26-.57-.38-.95-.38-.4,0-.73.14-.99.41-.26.28-.4.59-.4.95s.13.66.38.91.58.37.98.37.72-.12.98-.36c.25-.24.38-.56.38-.94h0Z"/><path d="m115.86,6.14l.38.19c-.37.69-.92,1.04-1.65,1.04-.52,0-.95-.18-1.29-.54s-.51-.79-.51-1.29.17-.93.51-1.29.76-.54,1.26-.54.92.17,1.26.5.52.79.53,1.37h-3.11c0,.42.14.75.39,1s.55.38.91.38c.58,0,1.02-.27,1.31-.83h0Zm0-.94c-.06-.33-.21-.59-.46-.77-.24-.19-.52-.28-.84-.28-.65,0-1.08.35-1.27,1.05h2.57Z"/><path d="m117.18,3.81h.45v.62c.36-.47.79-.71,1.29-.71.26,0,.49.07.7.21s.35.32.44.55.13.56.13,1v1.77h-.44v-1.64c0-.4-.02-.68-.06-.82s-.09-.26-.17-.36-.17-.18-.29-.23c-.12-.05-.26-.08-.43-.08s-.33.04-.49.12-.3.2-.41.34c-.11.15-.19.3-.23.46s-.06.47-.06.94v1.27h-.45v-3.45h.02Z"/><path d="m120.76,3.81h.47l1.15,2.63,1.15-2.63h.47l-1.58,3.57h-.08l-1.59-3.57h.01Z"/><path d="m128.1,3.81v3.45h-.44v-.59c-.39.47-.84.71-1.35.71s-.93-.18-1.28-.54-.52-.79-.52-1.29.18-.93.53-1.29.77-.54,1.26-.54c.56,0,1.02.24,1.37.72v-.63h.44,0Zm-.41,1.74c0-.39-.13-.73-.4-1-.26-.27-.59-.41-.97-.41s-.71.14-.97.42-.4.61-.4.99.13.71.4.99c.27.28.59.42.96.42s.7-.13.97-.4.4-.61.4-1.01h0Z"/><path d="m129.04,2.48h.44v4.78h-.44s0-4.78,0-4.78Z"/><path d="m133.37,7.26h-.45v-.62c-.36.47-.79.71-1.29.71-.26,0-.49-.07-.7-.21-.21-.14-.36-.33-.44-.55-.09-.23-.13-.56-.13-1v-1.77h.44v1.64c0,.4.02.68.06.82.04.14.09.26.17.36.08.1.17.18.29.23.12.05.26.08.43.08s.33-.04.49-.12.3-.2.41-.34c.11-.15.19-.3.23-.46s.06-.47.06-.94v-1.27h.45v3.45h-.02Z"/><path d="m137.26,6.14l.38.19c-.37.69-.92,1.04-1.65,1.04-.52,0-.95-.18-1.29-.54s-.51-.79-.51-1.29.17-.93.51-1.29.76-.54,1.26-.54.92.17,1.26.5.52.79.53,1.37h-3.11c0,.42.14.75.39,1s.55.38.91.38c.58,0,1.02-.27,1.31-.83h0Zm0-.94c-.06-.33-.21-.59-.46-.77-.24-.19-.52-.28-.84-.28-.65,0-1.08.35-1.27,1.05h2.57Z"/><path d="m140.34,4.19l-.29.29c-.24-.23-.47-.34-.7-.34-.15,0-.27.05-.37.14-.1.09-.15.21-.15.34s.05.25.16.35.29.21.55.35c.26.14.46.28.59.44s.21.35.21.58c0,.29-.1.54-.3.73-.2.2-.45.3-.74.3-.2,0-.38-.04-.56-.13s-.33-.21-.46-.36l.28-.31c.23.26.47.38.72.38.18,0,.33-.06.46-.18s.19-.25.19-.41-.06-.29-.17-.39-.29-.22-.55-.35c-.26-.13-.45-.27-.58-.43s-.19-.35-.19-.6.09-.45.27-.63.42-.26.71-.26.6.16.92.47v.02Z"/><path d="m142.59,5.56c0-.51.17-.94.52-1.3.35-.36.77-.54,1.27-.54s.92.18,1.27.54.52.79.52,1.29-.17.93-.52,1.29c-.34.36-.77.54-1.28.54s-.93-.18-1.28-.54-.52-.79-.52-1.28h.02Zm3.15,0c0-.38-.13-.71-.4-.99-.27-.28-.58-.42-.95-.42s-.68.14-.95.42c-.26.28-.4.61-.4,1s.13.71.38.98c.26.27.57.4.95.4s.7-.14.96-.41c.26-.27.39-.6.39-.98h.02Z"/><path d="m148.43,2.57v.44c-.17-.07-.32-.11-.45-.11s-.22.04-.26.13-.06.22-.06.41v.38h.72v.38h-.72v3.07h-.45v-3.07h-.45v-.38h.45v-.45c0-.3.06-.53.17-.67s.29-.21.53-.21c.14,0,.31.03.52.09h0Z"/><path d="m149.71,2.59h.48l.95,3.48,1.34-3.48h.09l1.33,3.48.97-3.48h.47l-1.34,4.78h-.09l-1.38-3.65-1.41,3.65h-.08l-1.32-4.78h0Z"/><path d="m155.53,6.06h.31v1.35c.25-.33.54-.49.9-.49.18,0,.34.05.49.15.14.1.25.23.31.38.06.16.09.39.09.7v1.23h-.31v-1.14c0-.25,0-.42-.02-.51,0-.09-.05-.18-.1-.27s-.12-.15-.21-.19c-.08-.04-.19-.07-.31-.07s-.24.03-.35.09-.21.14-.28.24c-.08.1-.13.21-.16.32s-.04.33-.04.65v.88h-.31v-3.31h0Z"/><path d="m178.68,125.83h.93c.52,0,.88.02,1.07.07s.35.12.49.22.24.24.32.4c.08.16.12.35.12.55,0,.4-.14.71-.42.94s-.68.33-1.2.32l1.68,2.17h-.58l-1.68-2.17h-.27v2.17h-.47v-4.67h0Zm.47.46v1.59h.81c.4,0,.69-.06.88-.19s.28-.33.28-.61-.09-.48-.28-.6c-.19-.13-.47-.19-.86-.19h-.83Z"/><path d="m185.34,129.38l.38.19c-.37.69-.92,1.04-1.65,1.04-.52,0-.95-.18-1.29-.54s-.51-.79-.51-1.29.17-.93.51-1.29.76-.54,1.26-.54.92.17,1.26.5.52.79.53,1.37h-3.11c0,.42.14.75.39,1s.55.38.91.38c.58,0,1.02-.27,1.31-.83h0Zm0-.94c-.06-.33-.21-.59-.46-.77-.24-.19-.52-.28-.84-.28-.65,0-1.08.35-1.27,1.05h2.57Z"/><path d="m190.13,127.05v3.45h-.44v-.59c-.39.47-.84.71-1.35.71s-.93-.18-1.28-.54-.52-.79-.52-1.29.18-.93.53-1.29.77-.54,1.26-.54c.56,0,1.02.24,1.37.72v-.63h.44,0Zm-.41,1.74c0-.39-.13-.73-.4-1-.26-.27-.59-.41-.97-.41s-.71.14-.97.42-.4.61-.4.99.13.71.4.99c.27.28.59.42.96.42s.7-.13.97-.4.4-.61.4-1.01h0Z"/><path d="m191.07,125.71h.44v4.78h-.44v-4.78Z"/><path d="m113.41,116.99h.78v3.95h-.39v-3.56h-.62l.24-.38h-.01Z"/><path d="m142.77,119.13h-2.75v-.33h2.75v.33Z"/><path d="m143.68,116.99h.78v3.95h-.39v-3.56h-.62l.24-.38h-.01Z"/><path d="m181.15,121.03c-.43,0-.75-.18-.98-.53s-.34-.87-.34-1.55.12-1.2.34-1.55c.23-.35.55-.53.98-.53s.76.18,1,.54c.25.36.37.87.37,1.54s-.12,1.18-.37,1.54-.58.54-1,.54h0Zm0-3.77c-.3,0-.54.15-.71.44-.17.29-.25.72-.25,1.27,0,1.14.32,1.71.96,1.71.31,0,.55-.15.73-.45s.26-.72.26-1.27-.09-.97-.27-1.26-.42-.44-.72-.44h0Z"/><path d="m222,116.99h.78v3.95h-.39v-3.56h-.62l.24-.38h-.01Z"/></g></svg>