<svg xmlns="http://www.w3.org/2000/svg" xmlns:xlink="http://www.w3.org/1999/xlink" id="b" viewBox="0 0 148.01 102.43"><defs><style>.f,.g,.h,.i,.j,.k{fill:none}.g{stroke:#4c72b0}.g,.h{stroke-linecap:round}.g,.h,.i{stroke-linejoin:round;stroke-width:1.09px}.h{stroke:#dd8452}.l{fill:#fff}.i{stroke:gray;stroke-dasharray:0 0 0 0 0 0 1.09 1.8}.j,.k{stroke:#000;stroke-width:.25px}.k{stroke-linecap:square}.m{opacity:.8}.n{clip-path:url(#e)}.o{clip-path:url(#d)}</style><clipPath id="d"><rect width="75.82" height="19.38" x="69.08" y="60.05" class="f"/></clipPath><clipPath id="e"><rect width="75.82" height="19.38" x="69.08" y="60.05" class="f"/></clipPath></defs><g id="c"><rect width="106.33" height="73.99" x="41.56" y="8.44" class="l"/><line x1="54.46" x2="54.46" y1="82.43" y2="20.75" class="i"/><line x1="105.47" x2="105.47" y1="82.43" y2="44.24" class="i"/><polyline points="46.4 30.75 49.08 23.38 51.77 21.32 54.46 20.75 57.14 20.78 59.82 21.09 62.51 21.54 65.2 22.06 67.88 22.62 70.56 23.2 73.25 23.77 75.93 24.35 78.62 24.91 81.3 25.46 83.99 25.99 86.67 26.51 89.36 27.01 92.04 27.5 94.73 27.98 97.41 28.43 100.1 28.87 102.79 29.3 105.47 29.72 108.15 30.12 110.84 30.51 113.53 30.89 116.21 31.25 118.89 31.61 121.58 31.95 124.26 32.29 126.95 32.61 129.63 32.93 132.32 33.23 135 33.53 137.69 33.82 140.38 34.1 143.06 34.38" class="g"/><polyline points="46.4 73.22 49.08 65.44 51.77 59.57 54.46 55.46 57.14 52.58 59.82 50.52 62.51 49.02 65.2 47.89 67.88 47.05 70.56 46.4 73.25 45.89 75.93 45.5 78.62 45.19 81.3 44.95 83.99 44.76 86.67 44.61 89.36 44.49 92.04 44.4 94.73 44.34 97.41 44.29 100.1 44.26 102.79 44.24 105.47 44.24 108.15 44.24 110.84 44.25 113.53 44.26 116.21 44.29 118.89 44.32 121.58 44.36 124.26 44.39 132.32 44.53 135 44.58 140.38 44.69 143.06 44.74" class="h"/><line x1="41.56" x2="41.56" y1="82.43" y2="8.44" class="k"/><line x1="147.89" x2="147.89" y1="82.43" y2="8.44" class="k"/><line x1="41.56" x2="147.89" y1="82.43" y2="82.43" class="k"/><line x1="41.56" x2="147.89" y1="8.44" y2="8.44" class="k"/><g class="m"><g class="o"><g class="n"><path d="m70.28,79.43h73.42c.8,0,1.2-.4,1.2-1.2v-16.98c0-.8-.4-1.2-1.2-1.2h-73.42c-.8,0-1.2.4-1.2,1.2v16.98c0,.8.4,1.2,1.2,1.2" class="l"/></g></g></g><line x1="71.48" x2="83.45" y1="64.9" y2="64.9" class="g"/><line x1="71.48" x2="83.45" y1="73.7" y2="73.7" class="h"/><path d="m4.38,3.47l.54.28c-.53.99-1.32,1.49-2.36,1.49-.74,0-1.36-.26-1.84-.77-.48-.51-.72-1.13-.72-1.85S.24,1.28.73.77s1.09-.77,1.8-.77,1.32.24,1.8.72c.49.48.74,1.13.76,1.95H.64c.02.6.21,1.07.56,1.44s.79.54,1.3.54c.84,0,1.46-.39,1.88-1.18Zm0-1.35c-.09-.47-.3-.84-.65-1.11-.35-.27-.75-.4-1.2-.4-.93,0-1.54.5-1.82,1.51,0,0,3.67,0,3.67,0Z"/><path d="m31.25,12.96h.78v3.95h-.39v-3.56h-.62l.24-.38h0Z"/><path d="m33.67,16.64c0-.09.03-.17.1-.23s.14-.1.23-.1.17.03.23.1.1.14.1.24-.03.17-.1.24c-.06.06-.14.1-.23.1s-.17-.03-.23-.1c-.07-.07-.1-.15-.1-.24h0Z"/><path d="m35.93,17c-.42,0-.75-.17-.98-.52s-.34-.87-.34-1.55.11-1.2.34-1.55c.23-.35.55-.52.98-.52s.76.18,1,.54.37.87.37,1.54-.12,1.18-.37,1.54-.58.54-1,.54v-.02Zm.01-3.77c-.3,0-.54.15-.71.44-.17.29-.25.72-.25,1.27,0,1.14.32,1.7.96,1.7.31,0,.55-.15.73-.45.17-.3.26-.72.26-1.27s-.09-.97-.27-1.26-.42-.44-.72-.44h0Z"/><path d="m30.62,30.46c-.42,0-.75-.17-.98-.52-.23-.35-.34-.87-.34-1.55s.11-1.2.34-1.55.55-.52.98-.52.76.18,1,.54.37.87.37,1.54-.12,1.18-.37,1.54-.58.54-1,.54v-.02Zm.01-3.77c-.3,0-.54.15-.71.44-.17.29-.25.72-.25,1.27,0,1.14.32,1.7.96,1.7.31,0,.55-.15.73-.45.17-.3.26-.72.26-1.27s-.09-.97-.27-1.26c-.18-.29-.42-.44-.72-.44h0Z"/><path d="m32.39,30.1c0-.09.03-.17.1-.23s.14-.1.23-.1.17.03.23.1.1.14.1.24-.03.17-.1.24c-.06.06-.14.1-.23.1s-.17-.03-.23-.1c-.07-.07-.1-.15-.1-.24h0Z"/><path d="m35.39,28.19c.5.25.75.59.75,1.03,0,.35-.12.65-.37.88s-.57.35-.97.35-.72-.12-.96-.35-.36-.52-.36-.85c0-.46.25-.82.76-1.07-.38-.21-.58-.49-.58-.85,0-.27.11-.51.34-.72s.5-.31.82-.31.59.1.81.3.33.45.33.74c0,.35-.19.63-.57.84h0Zm.35,1.04c0-.22-.09-.42-.27-.59-.18-.17-.4-.25-.66-.25s-.48.09-.67.26-.28.38-.28.62.09.43.26.59.4.23.68.23.51-.08.68-.25.26-.37.26-.6h0Zm-.18-1.9c0-.18-.07-.33-.21-.45-.14-.13-.32-.19-.54-.19s-.4.06-.55.19-.21.28-.21.46.08.34.23.48c.16.14.33.21.53.21s.37-.07.52-.21.22-.3.22-.49h0Z"/><path d="m30.69,43.91c-.42,0-.75-.17-.98-.52-.23-.35-.34-.87-.34-1.55s.11-1.2.34-1.55.55-.52.98-.52.76.18,1,.54.37.87.37,1.54-.12,1.18-.37,1.54-.58.54-1,.54v-.02Zm.01-3.77c-.3,0-.54.15-.71.44-.17.29-.25.72-.25,1.27,0,1.14.32,1.7.96,1.7.31,0,.55-.15.73-.45.17-.3.26-.72.26-1.27s-.09-.97-.27-1.26c-.18-.29-.42-.44-.72-.44h0Z"/><path d="m32.46,43.56c0-.09.03-.17.1-.23s.14-.1.23-.1.17.03.23.1.1.14.1.24-.03.17-.1.24c-.06.06-.14.1-.23.1s-.17-.03-.23-.1c-.07-.07-.1-.15-.1-.24h0Z"/><path d="m35.23,39.77l.32.21-1.07,1.62c.15-.05.29-.08.43-.08.29,0,.55.12.77.35s.33.52.33.85-.12.62-.36.85-.53.35-.87.35-.63-.12-.86-.35c-.23-.23-.34-.52-.34-.86,0-.16.03-.33.09-.5s.18-.39.36-.65l1.2-1.79h0Zm.4,2.93c0-.23-.08-.43-.24-.59s-.36-.24-.59-.24-.43.08-.59.24-.24.36-.24.59.08.43.25.59c.16.16.36.24.58.24s.42-.08.58-.24.25-.36.25-.59Z"/><path d="m30.64,57.37c-.42,0-.75-.17-.98-.52s-.34-.87-.34-1.55.11-1.2.34-1.55.55-.52.98-.52.76.18,1,.54.37.87.37,1.54-.12,1.18-.37,1.54-.58.54-1,.54v-.02Zm.01-3.77c-.3,0-.54.15-.71.44-.17.29-.25.72-.25,1.27,0,1.14.32,1.7.96,1.7.31,0,.55-.15.73-.45.17-.3.26-.72.26-1.27s-.09-.97-.27-1.26c-.18-.29-.42-.44-.72-.44h0Z"/><path d="m32.42,57.01c0-.09.03-.17.1-.23.07-.06.14-.1.23-.1s.17.03.23.1.1.14.1.24-.03.17-.1.24c-.06.06-.14.1-.23.1s-.17-.03-.23-.1c-.07-.07-.1-.15-.1-.24h0Z"/><path d="m35.56,53.22h.08v2.75h.48v.38h-.48v.92h-.39v-.92h-1.89l2.2-3.13h0Zm-.31,2.75v-1.64l-1.17,1.64h1.17Z"/><path d="m30.77,70.82c-.42,0-.75-.17-.98-.52s-.34-.87-.34-1.55.11-1.2.34-1.55c.23-.35.55-.52.98-.52s.76.18,1,.54.37.87.37,1.54-.12,1.18-.37,1.54-.58.54-1,.54v-.02Zm.01-3.77c-.3,0-.54.15-.71.44-.17.29-.25.72-.25,1.27,0,1.14.32,1.7.96,1.7.31,0,.55-.15.73-.45.17-.3.26-.72.26-1.27s-.09-.97-.27-1.26-.42-.44-.72-.44h0Z"/><path d="m32.55,70.46c0-.09.03-.17.1-.23.07-.06.14-.1.23-.1s.17.03.23.1.1.14.1.24-.03.17-.1.24c-.06.06-.14.1-.23.1s-.17-.03-.23-.1c-.07-.07-.1-.15-.1-.24h0Z"/><path d="m34.21,68.01h-.38c.02-.4.15-.73.4-.97s.55-.37.9-.37.65.11.88.34c.23.23.35.51.35.84,0,.25-.07.47-.2.68s-.33.46-.59.74l-.98,1.06h1.82v.38h-2.68l1.51-1.63c.26-.29.45-.51.57-.68.11-.17.17-.35.17-.57s-.08-.4-.25-.56c-.17-.16-.37-.24-.62-.24s-.45.08-.62.25c-.16.17-.26.4-.28.71v.02Z"/><path d="m35.09,84.27c-.42,0-.75-.17-.98-.52s-.34-.87-.34-1.55.11-1.2.34-1.55c.23-.35.55-.52.98-.52s.76.18,1,.54.37.87.37,1.54-.12,1.18-.37,1.54-.58.54-1,.54v-.02Zm.01-3.77c-.3,0-.54.15-.71.44-.17.29-.25.72-.25,1.27,0,1.14.32,1.7.96,1.7.31,0,.55-.15.73-.45.17-.3.26-.72.26-1.27s-.09-.97-.27-1.26-.42-.44-.72-.44h0Z"/><path d="m43.55,90.51c-.42,0-.75-.17-.98-.52s-.34-.87-.34-1.55.11-1.2.34-1.55c.23-.35.55-.52.98-.52s.76.18,1,.54.37.87.37,1.54-.12,1.18-.37,1.54-.58.54-1,.54v-.02Zm.01-3.77c-.3,0-.54.15-.71.44-.17.29-.25.72-.25,1.27,0,1.14.32,1.7.96,1.7.31,0,.55-.15.73-.45.17-.3.26-.72.26-1.27s-.09-.97-.27-1.26-.42-.44-.72-.44h0Z"/><path d="m68.22,87.7h-.38c.02-.4.15-.73.4-.97s.55-.37.9-.37.65.11.88.34c.23.23.35.51.35.84,0,.25-.07.47-.2.68s-.33.46-.59.74l-.98,1.06h1.82v.38h-2.68l1.51-1.63c.26-.29.45-.51.57-.68.11-.17.17-.35.17-.57s-.08-.4-.25-.56c-.17-.16-.37-.24-.62-.24s-.45.08-.62.25c-.16.17-.26.4-.28.71v.02Z"/><path d="m72.1,90.51c-.42,0-.75-.17-.98-.52s-.34-.87-.34-1.55.11-1.2.34-1.55c.23-.35.55-.52.98-.52s.76.18,1,.54.37.87.37,1.54-.12,1.18-.37,1.54-.58.54-1,.54v-.02Zm.01-3.77c-.3,0-.54.15-.71.44-.17.29-.25.72-.25,1.27,0,1.14.32,1.7.96,1.7.31,0,.55-.15.73-.45.17-.3.26-.72.26-1.27s-.09-.97-.27-1.26-.42-.44-.72-.44h0Z"/><path d="m85.61,64.59c0-.45.11-.87.32-1.25.22-.38.51-.68.89-.9s.79-.32,1.23-.32.86.11,1.24.32.68.51.9.89.33.79.33,1.24-.11.86-.33,1.23-.51.68-.89.89c-.38.22-.79.33-1.23.33s-.86-.11-1.24-.32-.68-.51-.9-.89-.33-.78-.33-1.22h0Zm4.43-.02c0-.56-.19-1.03-.58-1.42s-.85-.58-1.4-.58-1.03.19-1.4.58c-.38.39-.56.86-.56,1.42s.19,1.03.58,1.41c.39.39.85.58,1.4.58s1.01-.19,1.39-.57.58-.85.58-1.43h-.01Z"/><path d="m94.83,62.12v4.78h-.44v-.59c-.39.47-.85.71-1.35.71s-.94-.18-1.28-.54-.52-.79-.52-1.29.17-.93.53-1.29c.35-.36.77-.54,1.26-.54.56,0,1.02.24,1.37.72v-1.96h.44-.01Zm-.41,3.08c0-.39-.13-.73-.39-1s-.58-.41-.98-.41-.72.14-.98.42-.39.61-.39.99.13.71.4.99.59.42.95.42.69-.13.96-.4c.28-.27.42-.6.42-1.01h.01Z"/><path d="m95.67,65.2c0-.51.17-.94.52-1.3.35-.36.77-.54,1.27-.54s.92.18,1.27.54c.35.36.52.79.52,1.29s-.17.93-.52,1.29c-.34.36-.77.54-1.28.54s-.93-.18-1.28-.54-.52-.79-.52-1.28h.02Zm3.15,0c0-.38-.13-.71-.4-.99s-.58-.42-.95-.42-.68.14-.95.42c-.26.28-.4.61-.4,1s.13.71.38.98c.26.27.57.4.95.4s.7-.14.96-.41c.26-.27.39-.6.39-.98h.02Z"/><path d="m103.06,66.9h-.45v-.62c-.36.47-.79.71-1.29.71-.26,0-.49-.07-.7-.21-.21-.14-.36-.33-.44-.55-.09-.23-.13-.56-.13-1v-1.77h.44v1.64c0,.4.02.68.06.82s.09.26.17.36c.08.1.17.18.29.23s.26.08.43.08.33-.04.49-.12.3-.2.41-.34c.11-.15.19-.3.23-.46.04-.16.06-.47.06-.94v-1.27h.45v3.45h-.02Z"/><path d="m103.88,63.45h.46v.5c.12-.2.24-.35.35-.45.12-.1.24-.14.38-.14s.28.04.43.12l-.23.38c-.06-.04-.13-.06-.2-.06-.13,0-.26.07-.38.21s-.21.32-.26.54c-.06.22-.08.62-.08,1.19v1.17h-.46v-3.45h0Z"/><path d="m105.21,65.79h1.85v.32h-1.53v1.01h1.52v.31h-1.52v1.27h1.52v.32h-1.84s0-3.23,0-3.23Z"/><path d="m107.44,65.79h.33l.66,2.41.93-2.41h.06l.92,2.41.67-2.41h.33l-.93,3.31h-.06l-.96-2.52-.98,2.52h-.06l-.91-3.31Z"/><path d="m111.8,69.02l.46-3.23h.05l1.31,2.65,1.3-2.65h.05l.46,3.23h-.32l-.32-2.31-1.14,2.31h-.08l-1.16-2.33-.32,2.33h-.31.02Z"/><path d="m117.4,65.66l1.51,3.36h-.35l-.51-1.1h-1.4l-.5,1.1h-.36l1.53-3.36h.08Zm-.04.72l-.55,1.21h1.1l-.55-1.21h0Z"/><path d="m121.54,61.84h.52c-.22.45-.39.96-.51,1.53s-.18,1.14-.18,1.72c0,1.13.18,2.13.53,2.98h-.49c-.34-.84-.51-1.82-.51-2.92,0-1.2.21-2.3.64-3.3h0Z"/><path d="m122.95,63.45h.44v.63c.35-.48.81-.72,1.37-.72.49,0,.9.18,1.25.54s.53.79.53,1.29-.17.93-.52,1.29-.76.54-1.25.54c-.53,0-.99-.24-1.38-.71v1.85h-.44v-4.71Zm3.15,1.74c0-.39-.13-.72-.4-.99s-.59-.41-.98-.41-.71.14-.97.41c-.26.27-.39.61-.39,1s.13.73.4,1,.59.41.97.41.7-.14.97-.41c.27-.28.41-.61.41-1h0Z"/><path d="m130.28,65.79l.38.19c-.37.69-.92,1.04-1.65,1.04-.52,0-.95-.18-1.29-.54s-.51-.79-.51-1.29.17-.93.51-1.29.76-.54,1.26-.54.92.17,1.26.5.52.79.53,1.37h-3.11c.01.42.14.75.39,1s.55.38.91.38c.58,0,1.02-.27,1.31-.83h0Zm0-.94c-.06-.33-.21-.59-.46-.77-.24-.19-.52-.28-.84-.28-.65,0-1.07.35-1.27,1.05h2.57,0Z"/><path d="m135.07,63.45v3.45h-.44v-.59c-.39.47-.85.71-1.35.71s-.93-.18-1.28-.54-.52-.79-.52-1.29.18-.93.53-1.29.77-.54,1.26-.54c.56,0,1.02.24,1.37.72v-.63h.44-.01Zm-.41,1.74c0-.39-.13-.73-.4-1-.26-.27-.59-.41-.97-.41s-.71.14-.97.42-.4.61-.4.99.13.71.4.99.59.42.96.42.7-.13.97-.4.4-.61.4-1.01h.01Z"/><path d="m136,62.12h.45v2.72l1.59-1.39h.66l-1.9,1.64,2.01,1.81h-.63l-1.73-1.55v1.55h-.45v-4.78Z"/><path d="m139.43,63.76c0-.11.04-.2.12-.28s.17-.12.28-.12.2.04.27.11c.08.08.11.17.11.28s-.04.2-.11.28-.17.11-.28.11-.2-.04-.28-.11-.11-.17-.11-.28h0Zm0,2.84c0-.11.04-.2.12-.28s.17-.11.28-.11.2.04.27.11c.08.08.11.17.11.28s-.04.2-.11.28c-.08.08-.17.11-.27.11s-.2-.04-.28-.12-.12-.17-.12-.28h0Z"/><path d="m144.76,64.34c.59.29.88.7.88,1.22,0,.42-.15.76-.44,1.04s-.68.42-1.15.42-.86-.14-1.14-.42c-.29-.28-.43-.61-.43-1,0-.55.3-.97.9-1.26-.45-.24-.68-.58-.68-1.01,0-.32.13-.6.4-.85s.59-.37.96-.37.7.12.96.36.4.53.4.87c0,.42-.22.75-.67.99h0Zm.42,1.23c0-.26-.11-.5-.32-.7s-.47-.3-.78-.3-.57.1-.79.31-.33.45-.33.73.1.51.31.69c.2.18.47.27.8.27s.6-.1.81-.29c.21-.2.31-.43.31-.72h0Zm-.21-2.24c0-.21-.08-.39-.24-.54s-.37-.22-.64-.22-.48.07-.65.22c-.17.15-.25.33-.25.54s.09.4.28.57c.18.17.39.25.63.25s.44-.08.61-.25c.17-.16.26-.36.26-.58h0Z"/><path d="m146.71,61.84c.43,1,.64,2.1.64,3.3,0,1.11-.17,2.08-.51,2.92h-.49c.36-.86.53-1.85.53-2.98,0-.58-.06-1.15-.18-1.72s-.29-1.08-.51-1.53h.52,0Z"/><path d="m85.61,73.3c0-.45.11-.87.32-1.25.22-.38.51-.68.89-.9s.79-.32,1.23-.32.86.11,1.24.32.68.51.9.89.33.79.33,1.24-.11.86-.33,1.23-.51.68-.89.89c-.38.22-.79.33-1.23.33s-.86-.11-1.24-.32-.68-.51-.9-.89-.33-.78-.33-1.22h0Zm4.43-.02c0-.56-.19-1.03-.58-1.42s-.85-.58-1.4-.58-1.03.19-1.4.58c-.38.39-.56.86-.56,1.42s.19,1.03.58,1.41c.39.39.85.58,1.4.58s1.01-.19,1.39-.57.58-.85.58-1.43h-.01Z"/><path d="m94.83,70.83v4.78h-.44v-.59c-.39.47-.85.71-1.35.71s-.94-.18-1.28-.54-.52-.79-.52-1.29.17-.93.53-1.29c.35-.36.77-.54,1.26-.54.56,0,1.02.24,1.37.72v-1.96h.44-.01Zm-.41,3.08c0-.39-.13-.73-.39-1s-.58-.41-.98-.41-.72.14-.98.42-.39.61-.39.99.13.71.4.99.59.42.95.42.69-.13.96-.4c.28-.27.42-.6.42-1.01h.01Z"/><path d="m95.68,73.91c0-.51.17-.94.52-1.3.35-.36.77-.54,1.27-.54s.92.18,1.27.54c.35.36.52.79.52,1.29s-.17.93-.52,1.29c-.34.36-.77.54-1.28.54s-.93-.18-1.28-.54-.52-.79-.52-1.28h.02Zm3.15,0c0-.38-.13-.71-.4-.99s-.58-.42-.95-.42-.68.14-.95.42c-.26.28-.4.61-.4,1s.13.71.38.98c.26.27.57.4.95.4s.7-.14.96-.41c.26-.27.39-.6.39-.98h.02Z"/><path d="m103.06,75.61h-.45v-.62c-.36.47-.79.71-1.29.71-.26,0-.49-.07-.7-.21-.21-.14-.36-.33-.44-.55-.09-.23-.13-.56-.13-1v-1.77h.44v1.64c0,.4.02.68.06.82s.09.26.17.36c.08.1.17.18.29.23s.26.08.43.08.33-.04.49-.12.3-.2.41-.34c.11-.15.19-.3.23-.46.04-.16.06-.47.06-.94v-1.27h.45v3.45h-.02Z"/><path d="m103.88,72.16h.46v.5c.12-.2.24-.35.35-.45.12-.1.24-.14.38-.14s.28.04.43.12l-.23.38c-.06-.04-.13-.06-.2-.06-.13,0-.26.07-.38.21s-.21.32-.26.54c-.06.22-.08.62-.08,1.19v1.17h-.46v-3.45h0Z"/><path d="m105.22,74.5h1.85v.32h-1.53v1.01h1.52v.31h-1.52v1.27h1.52v.32h-1.84s0-3.23,0-3.23Z"/><path d="m107.63,77.73v-3.23h.07l2.15,2.48v-2.48h.32v3.23h-.07l-2.13-2.44v2.44h-.34Z"/><path d="m113.96,75.1l-.25.19c-.3-.37-.69-.56-1.16-.56-.38,0-.71.14-.99.41s-.42.6-.42.99.14.72.41.98.61.39,1.02.39c.46,0,.83-.18,1.14-.53l.25.19c-.16.21-.36.37-.6.48-.24.11-.51.16-.81.16-.51,0-.93-.16-1.26-.49-.33-.32-.49-.73-.49-1.23,0-.31.08-.59.23-.85.15-.26.36-.46.63-.61.27-.15.56-.22.87-.22s.59.06.83.18c.25.12.45.29.6.5v.02Z"/><path d="m117.02,70.55h.52c-.22.45-.39.96-.51,1.53s-.18,1.14-.18,1.72c0,1.13.18,2.13.53,2.98h-.49c-.34-.84-.51-1.82-.51-2.92,0-1.2.21-2.3.64-3.3h0Z"/><path d="m118.43,72.16h.44v.63c.35-.48.81-.72,1.37-.72.49,0,.9.18,1.25.54s.53.79.53,1.29-.17.93-.52,1.29-.76.54-1.25.54c-.53,0-.99-.24-1.38-.71v1.85h-.44v-4.71Zm3.15,1.74c0-.39-.13-.72-.4-.99s-.59-.41-.98-.41-.71.14-.97.41c-.26.27-.39.61-.39,1s.13.73.4,1,.59.41.97.41.7-.14.97-.41c.27-.28.41-.61.41-1h0Z"/><path d="m125.77,74.5l.38.19c-.37.69-.92,1.04-1.65,1.04-.52,0-.95-.18-1.29-.54s-.51-.79-.51-1.29.17-.93.51-1.29.76-.54,1.26-.54.92.17,1.26.5.52.79.53,1.37h-3.11c.01.42.14.75.39,1s.55.38.91.38c.58,0,1.02-.27,1.31-.83h0Zm0-.94c-.06-.33-.21-.59-.46-.77-.24-.19-.52-.28-.84-.28-.65,0-1.07.35-1.27,1.05h2.57,0Z"/><path d="m130.55,72.16v3.45h-.44v-.59c-.39.47-.85.71-1.35.71s-.93-.18-1.28-.54-.52-.79-.52-1.29.18-.93.53-1.29.77-.54,1.26-.54c.56,0,1.02.24,1.37.72v-.63h.44-.01Zm-.41,1.74c0-.39-.13-.73-.4-1-.26-.27-.59-.41-.97-.41s-.71.14-.97.42-.4.61-.4.99.13.71.4.99.59.42.96.42.7-.13.97-.4.4-.61.4-1.01h.01Z"/><path d="m131.49,70.83h.45v2.72l1.59-1.39h.66l-1.9,1.64,2.01,1.81h-.63l-1.73-1.55v1.55h-.45v-4.78h0Z"/><path d="m134.91,72.47c0-.11.04-.2.12-.28s.17-.12.28-.12.2.04.27.11c.08.08.11.17.11.28s-.04.2-.11.28-.17.11-.28.11-.2-.04-.28-.11-.11-.17-.11-.28h0Zm0,2.84c0-.11.04-.2.12-.28s.17-.11.28-.11.2.04.27.11c.08.08.11.17.11.28s-.04.2-.11.28c-.08.08-.17.11-.27.11s-.2-.04-.28-.12-.12-.17-.12-.28h0Z"/><path d="m140.51,70.83h.09v3.25h.57v.45h-.57v1.09h-.46v-1.09h-2.24l2.61-3.7Zm-.37,3.25v-1.94l-1.38,1.94h1.38Z"/><path d="m143.73,70.83l.38.25-1.26,1.91c.18-.06.35-.09.51-.09.35,0,.65.14.91.41.26.28.39.61.39,1.01s-.14.73-.43,1c-.28.27-.63.41-1.03.41s-.74-.14-1.01-.42-.41-.62-.41-1.01c0-.19.04-.39.11-.59s.21-.46.42-.77l1.42-2.11h0Zm.47,3.46c0-.27-.1-.5-.29-.7-.19-.19-.42-.29-.7-.29s-.5.1-.7.29c-.19.19-.29.42-.29.7s.1.5.29.7c.19.19.42.29.69.29s.5-.1.69-.29.29-.42.29-.7h.02Z"/><path d="m145.86,70.55c.43,1,.64,2.1.64,3.3,0,1.11-.17,2.08-.51,2.92h-.49c.36-.86.53-1.85.53-2.98,0-.58-.06-1.15-.18-1.72s-.29-1.08-.51-1.53h.52,0Z"/><path d="m96.78,86.36h.08v2.75h.48v.38h-.48v.92h-.39v-.92h-1.89l2.2-3.13h0Zm-.31,2.75v-1.64l-1.17,1.64h1.17Z"/><path d="m98.96,90.51c-.42,0-.75-.17-.98-.52s-.34-.87-.34-1.55.11-1.2.34-1.55c.23-.35.55-.52.98-.52s.76.18,1,.54.37.87.37,1.54-.12,1.18-.37,1.54-.58.54-1,.54v-.02Zm.01-3.77c-.3,0-.54.15-.71.44-.17.29-.25.72-.25,1.27,0,1.14.32,1.7.96,1.7.31,0,.55-.15.73-.45.17-.3.26-.72.26-1.27s-.09-.97-.27-1.26-.42-.44-.72-.44h0Z"/><path d="m123.5,86.36l.32.21-1.07,1.62c.15-.05.29-.08.43-.08.29,0,.55.12.77.35.22.23.33.52.33.85s-.12.62-.36.85c-.24.23-.53.35-.87.35s-.63-.12-.86-.35c-.23-.23-.34-.52-.34-.86,0-.16.03-.33.09-.5s.18-.39.36-.65c0,0,1.2-1.79,1.2-1.79Zm.4,2.93c0-.23-.08-.43-.24-.59s-.36-.24-.59-.24-.43.08-.59.24-.24.36-.24.59.08.43.25.59c.16.16.36.24.58.24s.42-.08.58-.24.25-.36.25-.59Z"/><path d="m126,90.51c-.42,0-.75-.17-.98-.52s-.34-.87-.34-1.55.11-1.2.34-1.55c.23-.35.55-.52.98-.52s.76.18,1,.54.37.87.37,1.54-.12,1.18-.37,1.54-.58.54-1,.54v-.02Zm.01-3.77c-.3,0-.54.15-.71.44-.17.29-.25.72-.25,1.27,0,1.14.32,1.7.96,1.7.31,0,.55-.15.73-.45.17-.3.26-.72.26-1.27s-.09-.97-.27-1.26-.42-.44-.72-.44h0Z"/><path d="m65.02,96.51h.48l.95,3.48,1.34-3.48h.09l1.33,3.48.97-3.48h.47l-1.34,4.78h-.09l-1.38-3.64-1.41,3.64h-.08l-1.32-4.78h-.01Z"/><path d="m71.18,96.76c0-.1.04-.19.11-.26.07-.07.16-.11.26-.11s.19.04.26.11.11.16.11.26-.04.19-.11.26c-.07.07-.16.11-.26.11s-.19-.04-.26-.11-.11-.16-.11-.25h0Zm.14.96h.45v3.45h-.45v-3.45Z"/><path d="m72.69,97.72h.45v.62c.36-.47.79-.71,1.29-.71.26,0,.49.07.7.21.21.14.36.32.44.55.09.23.13.56.13,1v1.77h-.44v-1.64c0-.4-.02-.68-.05-.82-.04-.14-.09-.26-.17-.36s-.17-.18-.29-.23-.26-.08-.43-.08-.33.04-.49.12-.3.2-.41.34c-.11.15-.19.3-.23.46-.04.16-.06.47-.06.94v1.27h-.45v-3.45h0Z"/><path d="m80.09,96.39v4.78h-.44v-.59c-.39.47-.85.71-1.35.71s-.94-.18-1.28-.54c-.35-.36-.52-.79-.52-1.29s.17-.93.53-1.29.77-.54,1.26-.54c.56,0,1.02.24,1.37.72v-1.96h.44-.01Zm-.41,3.08c0-.39-.13-.73-.39-1s-.58-.41-.97-.41-.72.14-.98.42-.39.61-.39.99.13.71.4.99.59.42.95.42.69-.13.96-.4.42-.6.42-1.01h0Z"/><path d="m80.94,99.47c0-.51.17-.94.52-1.3.35-.36.77-.54,1.27-.54s.92.18,1.27.54c.35.36.52.79.52,1.29s-.17.93-.52,1.29c-.34.36-.77.54-1.28.54s-.93-.18-1.28-.54-.52-.79-.52-1.28h.02Zm3.14,0c0-.38-.13-.71-.4-.99s-.58-.42-.95-.42-.68.14-.94.42-.4.61-.4,1,.13.71.38.98c.26.27.57.4.95.4s.7-.14.96-.41.39-.6.39-.98h0Z"/><path d="m84.83,97.72h.46l1.05,2.62,1.11-2.62h.08l1.1,2.62,1.07-2.62h.47l-1.5,3.57h-.08l-1.1-2.59-1.1,2.59h-.08l-1.47-3.57h0Z"/><path d="m94.05,98.1l-.29.29c-.24-.23-.47-.34-.7-.34-.15,0-.27.05-.37.14s-.15.21-.15.34.05.25.16.35c.11.1.29.21.55.35.26.14.46.28.59.44.14.16.2.35.2.58,0,.29-.1.53-.3.73s-.45.3-.74.3c-.19,0-.38-.04-.56-.13s-.33-.21-.46-.36l.28-.31c.23.26.47.38.72.38.18,0,.33-.06.46-.18.12-.12.19-.25.19-.41s-.06-.29-.17-.39c-.11-.1-.29-.22-.55-.35s-.45-.27-.58-.43-.19-.35-.19-.6.09-.45.27-.63c.18-.17.42-.26.71-.26s.6.16.92.47v.02Z"/><path d="m94.63,96.76c0-.1.04-.19.11-.26.07-.07.16-.11.26-.11s.19.04.26.11.11.16.11.26-.04.19-.11.26c-.07.07-.16.11-.26.11s-.19-.04-.26-.11-.11-.16-.11-.25h0Zm.14.96h.45v3.45h-.45v-3.45Z"/><path d="m95.86,97.72h2.53l-1.96,3.05h1.89v.4h-2.66l1.96-3.06h-1.77v-.39h0Z"/><path d="m101.77,100.05l.38.19c-.37.69-.92,1.04-1.65,1.04-.52,0-.95-.18-1.29-.54s-.51-.79-.51-1.29.17-.93.51-1.29.76-.54,1.26-.54.92.17,1.26.5.52.79.53,1.36h-3.1c.01.42.14.75.39,1s.55.38.91.38c.58,0,1.02-.27,1.31-.82h0Zm0-.94c-.06-.33-.21-.59-.46-.77-.24-.19-.52-.28-.84-.28-.65,0-1.07.35-1.27,1.05h2.57,0Z"/><path d="m105.71,96.11h.52c-.22.45-.39.96-.51,1.53s-.18,1.14-.18,1.71c0,1.13.18,2.12.53,2.98h-.49c-.34-.84-.51-1.81-.51-2.92,0-1.2.21-2.3.64-3.3Z"/><path d="m108.79,98.1l-.29.29c-.24-.23-.47-.34-.7-.34-.15,0-.27.05-.37.14s-.15.21-.15.34.05.25.16.35c.11.1.29.21.55.35.26.14.46.28.59.44.14.16.2.35.2.58,0,.29-.1.53-.3.73s-.45.3-.74.3c-.19,0-.38-.04-.56-.13s-.33-.21-.46-.36l.28-.31c.23.26.47.38.72.38.18,0,.33-.06.46-.18.12-.12.19-.25.19-.41s-.06-.29-.17-.39c-.11-.1-.29-.22-.55-.35s-.45-.27-.58-.43-.19-.35-.19-.6.09-.45.27-.63c.18-.17.42-.26.71-.26s.6.16.92.47v.02Z"/><path d="m110.41,100.62c0,.12.01.19.04.21s.11.03.23.03h.27v.38c-.18.03-.32.05-.43.05-.19,0-.34-.05-.43-.14s-.14-.24-.14-.45v-2.6h-.61v-.38h.61v-1.33h.45v1.33h.7v.38h-.7v2.53h0Z"/><path d="m114.68,100.05l.38.19c-.37.69-.92,1.04-1.65,1.04-.52,0-.95-.18-1.29-.54s-.51-.79-.51-1.29.17-.93.51-1.29.76-.54,1.26-.54.92.17,1.26.5.52.79.53,1.36h-3.1c.01.42.14.75.39,1s.55.38.91.38c.58,0,1.02-.27,1.31-.82h0Zm0-.94c-.06-.33-.21-.59-.46-.77-.24-.19-.52-.28-.84-.28-.65,0-1.07.35-1.27,1.05h2.57,0Z"/><path d="m116,97.72h.44v.63c.35-.48.81-.72,1.37-.72.48,0,.9.18,1.25.54s.53.79.53,1.29-.17.93-.52,1.29-.76.54-1.25.54c-.53,0-.99-.24-1.38-.71v1.85h-.44v-4.71Zm3.15,1.74c0-.39-.13-.72-.4-.99s-.59-.41-.98-.41-.71.14-.97.41c-.26.27-.39.6-.39,1s.13.73.4,1,.59.41.96.41.7-.14.97-.41c.27-.27.41-.61.41-1h0Z"/><path d="m122.16,98.1l-.29.29c-.24-.23-.47-.34-.7-.34-.15,0-.27.05-.37.14s-.15.21-.15.34.05.25.16.35c.11.1.29.21.55.35.26.14.46.28.59.44.14.16.2.35.2.58,0,.29-.1.53-.3.73s-.45.3-.74.3c-.19,0-.38-.04-.56-.13s-.33-.21-.46-.36l.28-.31c.23.26.47.38.72.38.18,0,.33-.06.46-.18.12-.12.19-.25.19-.41s-.06-.29-.17-.39c-.11-.1-.29-.22-.55-.35s-.45-.27-.58-.43-.19-.35-.19-.6.09-.45.27-.63c.18-.17.42-.26.71-.26s.6.16.92.47v.02Z"/><path d="m123.36,96.11c.43,1,.64,2.1.64,3.3,0,1.11-.17,2.08-.51,2.92h-.49c.35-.86.53-1.85.53-2.98,0-.58-.06-1.15-.18-1.71s-.29-1.08-.51-1.53h.52Z"/><path d="m19.1,69.72v-.93c0-.52.02-.88.07-1.07s.12-.35.22-.49.24-.24.4-.32.35-.12.54-.12c.4,0,.71.14.94.42s.33.68.32,1.2l2.17-1.68v.58l-2.17,1.68v.27h2.17v.47h-4.67,0Zm.46-.47h1.59v-.81c0-.4-.06-.69-.18-.88-.13-.19-.33-.28-.61-.28s-.48.09-.6.28-.19.47-.19.87v.83h-.01Z"/><path d="m22.65,63.06l.19-.38c.69.37,1.04.92,1.04,1.65,0,.52-.18.95-.54,1.29-.36.34-.79.51-1.29.51s-.93-.17-1.29-.51c-.36-.34-.54-.76-.54-1.26s.17-.92.5-1.26c.33-.34.79-.52,1.37-.53v3.11c.42-.01.75-.14,1-.39s.38-.55.38-.91c0-.58-.27-1.02-.82-1.31h0Zm-.94,0c-.33.06-.59.21-.77.46-.19.24-.28.52-.28.84,0,.65.35,1.08,1.05,1.27,0,0,0-2.57,0-2.57Z"/><path d="m20.32,58.72v-.45h2.67c.47,0,.82.04,1.04.12s.4.2.55.36.26.34.34.57c.08.22.12.46.12.73,0,.9-.36,1.5-1.08,1.78v-.48c.45-.25.68-.68.68-1.28,0-.29-.06-.54-.17-.76-.11-.21-.26-.37-.43-.46-.17-.09-.45-.13-.82-.13h-.15c.22.18.39.39.49.63.11.24.16.5.16.77,0,.5-.17.92-.51,1.25s-.74.5-1.21.5-.89-.18-1.24-.53c-.35-.35-.52-.79-.52-1.29s.23-.95.69-1.33h-.61Zm1.67-.02c-.38,0-.69.13-.95.38-.25.26-.38.57-.38.95,0,.4.14.73.41,1,.28.26.59.4.95.4s.66-.13.91-.38c.25-.26.37-.58.37-.98s-.12-.72-.36-.98c-.24-.25-.56-.38-.94-.38h-.01Z"/><path d="m20.32,57.54v-.46h.5c-.2-.12-.35-.24-.45-.35-.09-.11-.14-.24-.14-.38s.04-.28.12-.43l.38.23c-.04.07-.06.13-.06.2,0,.13.07.26.21.38s.32.21.54.26c.22.06.62.08,1.19.08h1.17v.46h-3.46Z"/><path d="m22.65,52.6l.19-.38c.69.37,1.04.92,1.04,1.65,0,.52-.18.95-.54,1.29-.36.34-.79.51-1.29.51s-.93-.17-1.29-.51c-.36-.34-.54-.76-.54-1.26s.17-.92.5-1.26.79-.52,1.37-.53v3.11c.42,0,.75-.14,1-.39s.38-.55.38-.91c0-.58-.27-1.02-.82-1.31h0Zm-.94,0c-.33.06-.59.21-.77.46-.19.24-.28.52-.28.84,0,.65.35,1.08,1.05,1.27v-2.57Z"/><path d="m20.69,49.51l.29.29c-.23.24-.35.47-.35.7,0,.15.05.27.14.37.09.1.21.15.34.15s.25-.05.35-.16.21-.29.35-.55.28-.46.44-.59.35-.21.58-.21c.29,0,.54.1.73.3.2.2.3.45.3.74,0,.2-.04.38-.13.56s-.21.33-.36.46l-.31-.28c.26-.23.38-.47.38-.72,0-.18-.06-.33-.18-.46s-.25-.19-.41-.19-.29.05-.39.17c-.1.11-.22.29-.35.55s-.27.45-.43.58c-.15.13-.35.19-.6.19s-.45-.09-.63-.27-.26-.42-.26-.71.16-.6.47-.92h.03Z"/><path d="m20.69,46.99l.29.29c-.23.24-.35.47-.35.7,0,.15.05.27.14.37.09.1.21.15.34.15s.25-.05.35-.16.21-.29.35-.55.28-.46.44-.59.35-.21.58-.21c.29,0,.54.1.73.3.2.2.3.45.3.74,0,.2-.04.38-.13.56s-.21.33-.36.46l-.31-.28c.26-.23.38-.47.38-.72,0-.18-.06-.33-.18-.46s-.25-.19-.41-.19-.29.05-.39.17c-.1.11-.22.29-.35.55s-.27.45-.43.58c-.15.13-.35.19-.6.19s-.45-.09-.63-.27-.26-.42-.26-.71.16-.6.47-.92h.03Z"/><path d="m19.35,46.41c-.1,0-.19-.04-.26-.11s-.11-.16-.11-.26.04-.19.11-.26.16-.11.26-.11.19.04.26.11.11.16.11.26-.04.19-.11.26c-.07.07-.16.11-.25.11h-.01Zm.96-.14v-.45h3.45v.45h-3.45Z"/><path d="m22.07,45.07c-.51,0-.94-.17-1.3-.52-.36-.35-.54-.77-.54-1.27s.18-.92.54-1.27c.36-.35.79-.52,1.29-.52s.93.17,1.29.52c.36.34.54.77.54,1.28s-.18.93-.54,1.28c-.36.35-.79.52-1.28.52v-.02Zm0-3.15c-.38,0-.71.13-.99.4s-.42.58-.42.95.14.68.42.95c.28.26.61.4,1,.4s.71-.13.98-.38c.27-.26.4-.57.4-.95s-.14-.7-.41-.96-.6-.39-.99-.39v-.02Z"/><path d="m20.32,40.65v-.45h.62c-.47-.36-.71-.79-.71-1.29,0-.26.07-.49.21-.7s.33-.36.55-.44c.23-.09.56-.13,1-.13h1.77v.44h-1.64c-.4,0-.68.02-.82.06s-.26.09-.36.17-.18.17-.23.29c-.05.12-.08.26-.08.43s.04.33.12.49.2.3.34.41.3.19.46.23.47.06.94.06h1.27v.45h-3.45v-.02Z"/><path d="m19.08,33.63h.44c-.07.17-.11.32-.11.45s.04.22.13.26.22.06.41.06h.38v-.72h.38v.72h3.07v.45h-3.07v.45h-.38v-.45h-.45c-.3,0-.53-.06-.67-.17s-.21-.29-.21-.53c0-.14.03-.31.09-.52h-.01Z"/><path d="m19.35,33.22c-.1,0-.19-.04-.26-.11s-.11-.16-.11-.26.04-.19.11-.26.16-.11.26-.11.19.04.26.11.11.16.11.26-.04.19-.11.26c-.07.07-.16.11-.25.11h-.01Zm.96-.14v-.45h3.45v.45h-3.45Z"/><path d="m23.22,30.88c.12,0,.19,0,.21-.04s.03-.11.03-.23v-.27h.38c.03.18.04.33.04.43,0,.19-.05.34-.14.43-.1.09-.25.14-.45.14h-2.6v.61h-.38v-.61h-1.33v-.45h1.33v-.7h.38v.7h2.53Z"/><path d="m19.1,26.53v-.93c0-.52.02-.88.07-1.07s.12-.35.22-.49c.1-.14.24-.24.4-.32s.35-.12.54-.12c.4,0,.71.14.94.42s.33.68.32,1.2l2.17-1.68v.58l-2.17,1.68v.27h2.17v.47h-4.67,0Zm.46-.47h1.59v-.81c0-.4-.06-.69-.18-.88-.13-.19-.33-.28-.61-.28s-.48.09-.6.28-.19.47-.19.87v.83h-.01Z"/><path d="m18.67,22.52v.31c-.33-.01-.6-.12-.79-.33s-.3-.45-.3-.74.09-.53.28-.72.42-.29.69-.29c.2,0,.39.05.56.16.17.11.37.27.61.48l.87.81v-1.49h.31v2.2l-1.33-1.23c-.23-.22-.42-.37-.55-.46-.13-.09-.29-.14-.46-.14s-.33.07-.46.2c-.13.14-.2.31-.2.51s.07.37.2.5c.14.13.33.21.58.23h-.01Z"/><line x1="41.56" x2="39.47" y1="15.57" y2="15.57" class="j"/><line x1="41.56" x2="39.47" y1="28.94" y2="28.94" class="j"/><line x1="41.56" x2="39.47" y1="42.31" y2="42.31" class="j"/><line x1="41.56" x2="39.47" y1="55.68" y2="55.68" class="j"/><line x1="41.56" x2="39.47" y1="69.06" y2="69.06" class="j"/><line x1="41.56" x2="39.47" y1="82.43" y2="82.43" class="j"/><line x1="43.92" x2="43.92" y1="82.43" y2="84.54" class="j"/><line x1="70.96" x2="70.96" y1="82.43" y2="84.54" class="j"/><line x1="98" x2="98" y1="82.43" y2="84.54" class="j"/><line x1="125.04" x2="125.04" y1="82.43" y2="84.54" class="j"/></g></svg>