<svg xmlns="http://www.w3.org/2000/svg" xmlns:xlink="http://www.w3.org/1999/xlink" id="b" x="0" y="0" version="1.1" viewBox="0 0 76.2 87.4" style="enable-background:new 0 0 76.2 87.4" xml:space="preserve"><style type="text/css">.st0{fill:none;stroke:#000;stroke-width:.25;stroke-linecap:square}.st1{fill:#fff}.st2{fill:none}.st3{opacity:.95}.st4{fill:#6a5acd}.st5{fill:red}.st6{fill:#2e8b57}.st7,.st8{fill:none;stroke:#000;stroke-width:.47;stroke-linejoin:round}.st8{stroke-width:.71}.st9{opacity:.5}.st10{fill:none;stroke:gray;stroke-width:.28;stroke-linecap:round;stroke-linejoin:round}.st11{fill:none;stroke:#000;stroke-width:.25}</style><line x1="20.9" x2="20.9" y1="67.8" y2="10.1" class="st0"/><line x1="76" x2="76" y1="67.8" y2="10.1" class="st0"/><line x1="20.9" x2="76" y1="67.8" y2="67.8" class="st0"/><line x1="20.9" x2="76" y1="10.1" y2="10.1" class="st0"/><rect width="55.1" height="57.7" x="20.9" y="10.1" class="st1"/><rect width="1" height="1.7" x="68" y="56.1" class="st2"/><rect width="1" height="1.7" x="68" y="56.1" class="st2"/><g class="st3"><rect width="1" height="1.7" x="68" y="56.1" class="st2"/><polygon points="68 57.7 68.4 57.5 68.3 57.7 68.7 57.8 68.7 57.6 69 57.8 68.7 56.1" class="st4"/></g><rect width=".9" height="1.3" x="67.5" y="58.7" class="st2"/><rect width=".9" height="1.3" x="67.5" y="58.7" class="st2"/><g class="st3"><rect width=".9" height="1.3" x="67.5" y="58.7" class="st2"/><polygon points="67.5 59.7 67.8 59.7 67.7 59.8 67.9 59.9 68 59.8 68.2 60 68.4 58.7 68.4 58.7" class="st5"/></g><rect width="1" height="1.8" x="68.3" y="56.5" class="st2"/><rect width="1" height="1.8" x="68.3" y="56.5" class="st2"/><g class="st3"><rect width="1" height="1.8" x="68.3" y="56.5" class="st2"/><polygon points="69 56.5 68.3 58.1 68.3 58.1 68.7 58 68.6 58.2 69 58.2 69 58 69.3 58.2" class="st5"/></g><rect width="1.4" height=".8" x="54.2" y="56.3" class="st2"/><rect width="1.4" height=".8" x="54.2" y="56.3" class="st2"/><g class="st3"><rect width="1.4" height=".8" x="54.2" y="56.3" class="st2"/><polygon points="55.3 56.3 54.2 56.3 54.4 56.5 54.3 56.6 54.4 56.8 54.5 56.8 54.4 57.1 55.6 56.3" class="st4"/></g><rect width=".6" height="1" x="56.3" y="56" class="st2"/><rect width=".6" height="1" x="56.3" y="56" class="st2"/><g class="st3"><rect width=".6" height="1" x="56.3" y="56" class="st2"/><polygon points="56.8 56 56.7 56.2 56.6 56.1 56.5 56.1 56.5 56.2 56.3 56.2 56.9 57 56.8 56" class="st4"/></g><rect width="1.2" height="2.2" x="56.5" y="57.3" class="st2"/><rect width="1.2" height="2.2" x="56.5" y="57.3" class="st2"/><g class="st3"><rect width="1.2" height="2.2" x="56.5" y="57.3" class="st2"/><polygon points="56.5 57.3 56.7 59.5 57.8 57.5 57.3 57.7 57.4 57.4 56.9 57.3 56.9 57.6" class="st4"/></g><rect width="2.3" height="1.4" x="54.3" y="59.8" class="st2"/><rect width="2.3" height="1.4" x="54.3" y="59.8" class="st2"/><g class="st3"><rect width="2.3" height="1.4" x="54.3" y="59.8" class="st2"/><polygon points="54.3 61.2 56.6 61.1 56.2 60.7 56.5 60.7 56.3 60.2 56.1 60.3 56.1 59.8" class="st4"/></g><rect width="2.6" height="1.4" x="50.4" y="61.2" class="st2"/><rect width="2.6" height="1.4" x="50.4" y="61.2" class="st2"/><g class="st3"><rect width="2.6" height="1.4" x="50.4" y="61.2" class="st2"/><polygon points="50.4 62.6 52.7 62.4 52.3 62.1 53 61.8 52.8 61.4 52.1 61.7 52.2 61.2" class="st4"/></g><rect width=".6" height=".8" x="48.4" y="62.4" class="st2"/><rect width=".6" height=".8" x="48.4" y="62.4" class="st2"/><g class="st3"><rect width=".6" height=".8" x="48.4" y="62.4" class="st2"/><polygon points="48.4 63 48.6 63 48.5 63.1 48.7 63.2 48.7 63.1 48.8 63.2 49 62.4" class="st4"/></g><rect width="1.1" height="1.2" x="48.5" y="61.8" class="st2"/><rect width="1.1" height="1.2" x="48.5" y="61.8" class="st2"/><g class="st3"><rect width="1.1" height="1.2" x="48.5" y="61.8" class="st2"/><polygon points="48.5 63.1 48.5 63.1 49.6 62.3 49.3 62.3 49.4 62.2 49.2 62 49.1 62.1 49 61.8" class="st4"/></g><rect width=".4" height=".4" x="47.7" y="63.4" class="st2"/><rect width=".4" height=".4" x="47.7" y="63.4" class="st2"/><g class="st3"><rect width=".4" height=".4" x="47.7" y="63.4" class="st2"/><path d="M47.7,63.6l0.1-0.2L47.7,63.6z M48,63.4l-0.2,0l-0.1,0.2l0.1,0.2l0.2,0l0.1-0.2L48,63.4L48,63.4L48,63.4z" class="st4"/></g><rect width=".9" height="1.1" x="47.4" y="63.2" class="st2"/><rect width=".9" height="1.1" x="47.4" y="63.2" class="st2"/><g class="st3"><rect width=".9" height="1.1" x="47.4" y="63.2" class="st2"/><polygon points="47.9 63.4 47.8 63.3 47.6 63.4 47.7 63.5 47.4 63.5 48.4 64.3 48 63.2" class="st4"/></g><rect width=".4" height=".4" x="48.6" y="64.5" class="st2"/><rect width=".4" height=".4" x="48.6" y="64.5" class="st2"/><g class="st3"><rect width=".4" height=".4" x="48.6" y="64.5" class="st2"/><polygon points="48.7 64.5 48.6 64.6 48.6 64.8 48.8 64.9 49 64.8 49 64.6" class="st4"/></g><rect width="1.4" height=".8" x="48.5" y="64.6" class="st2"/><rect width="1.4" height=".8" x="48.5" y="64.6" class="st2"/><g class="st3"><rect width="1.4" height=".8" x="48.5" y="64.6" class="st2"/><polygon points="48.5 64.6 48.6 64.8 48.5 64.8 48.5 65.1 48.6 65.1 48.5 65.4 48.5 65.4 49.8 65 49.8 65 48.5 64.6" class="st4"/></g><rect width=".5" height=".3" x="50.3" y="64.9" class="st2"/><rect width=".5" height=".3" x="50.3" y="64.9" class="st2"/><g class="st3"><rect width=".5" height=".3" x="50.3" y="64.9" class="st2"/><polygon points="50.3 65.1 50.8 65.2 50.8 65.2 50.7 65.1 50.8 65.1 50.8 65 50.7 65 50.8 64.9" class="st4"/></g><rect width="2.6" height="1.3" x="49.9" y="64.4" class="st2"/><rect width="2.6" height="1.3" x="49.9" y="64.4" class="st2"/><g class="st3"><rect width="2.6" height="1.3" x="49.9" y="64.4" class="st2"/><polygon points="50.5 64.8 49.9 64.9 50 65.3 50.5 65.3 50.4 65.8 52.5 64.9 50.2 64.4" class="st4"/></g><rect width=".4" height=".4" x="54.1" y="64.5" class="st2"/><rect width=".4" height=".4" x="54.1" y="64.5" class="st2"/><g class="st3"><rect width=".4" height=".4" x="54.1" y="64.5" class="st2"/><path d="M54.5,64.9l0-0.2L54.5,64.9z M54.1,64.6l0,0.2l0.2,0.1l0,0l0.2-0.1l0-0.2l-0.2-0.1L54.1,64.6L54.1,64.6 L54.1,64.6z" class="st4"/></g><rect width="3.3" height="1.3" x="54.6" y="64.1" class="st2"/><rect width="3.3" height="1.3" x="54.6" y="64.1" class="st2"/><g class="st3"><rect width="3.3" height="1.3" x="54.6" y="64.1" class="st2"/><polygon points="55.9 64.5 54.6 64.8 54.7 65.2 56 64.9 55.9 65.4 57.9 64.3 55.6 64.1" class="st4"/></g><rect width="1.1" height=".6" x="60.1" y="63.7" class="st2"/><rect width="1.1" height=".6" x="60.1" y="63.7" class="st2"/><g class="st3"><rect width="1.1" height=".6" x="60.1" y="63.7" class="st2"/><polygon points="60.2 63.7 60.3 63.9 60.2 63.9 60.2 64.1 60.3 64.1 60.1 64.3 61.2 64.2" class="st4"/></g><rect width="3.2" height="1.3" x="61.8" y="63.4" class="st2"/><rect width="3.2" height="1.3" x="61.8" y="63.4" class="st2"/><g class="st3"><rect width="3.2" height="1.3" x="61.8" y="63.4" class="st2"/><polygon points="62.7 63.4 63 63.8 61.8 64 61.9 64.5 63.1 64.2 63 64.7 65 63.5 62.7 63.4" class="st4"/></g><rect width=".9" height=".5" x="67.2" y="62.9" class="st2"/><rect width=".9" height=".5" x="67.2" y="62.9" class="st2"/><g class="st3"><rect width=".9" height=".5" x="67.2" y="62.9" class="st2"/><polygon points="67.2 62.9 67.3 63.1 67.2 63.1 67.2 63.2 67.3 63.2 67.2 63.4 68.1 63.2" class="st4"/></g><rect width="1.7" height=".9" x="68.6" y="62.7" class="st2"/><rect width="1.7" height=".9" x="68.6" y="62.7" class="st2"/><g class="st3"><rect width="1.7" height=".9" x="68.6" y="62.7" class="st2"/><polygon points="68.9 63 68.7 63 68.8 63.3 68.9 63.3 68.8 63.7 68.8 63.7 70.3 62.8 68.6 62.7" class="st4"/></g><rect width=".7" height=".7" x="71.2" y="62.1" class="st2"/><rect width=".7" height=".7" x="71.2" y="62.1" class="st2"/><g class="st3"><rect width=".7" height=".7" x="71.2" y="62.1" class="st2"/><polygon points="72 62.1 71.2 62.5 71.4 62.6 71.4 62.6 71.5 62.7 71.5 62.7 71.6 62.8" class="st4"/></g><rect width=".5" height=".5" x="72.3" y="61.5" class="st2"/><rect width=".5" height=".5" x="72.3" y="61.5" class="st2"/><g class="st3"><rect width=".5" height=".5" x="72.3" y="61.5" class="st2"/><polygon points="72.3 61.7 72.4 61.8 72.3 61.8 72.4 61.9 72.5 61.8 72.5 62 72.8 61.5 72.8 61.5" class="st4"/></g><rect width=".6" height="1.1" x="72.8" y="60.4" class="st2"/><rect width=".6" height="1.1" x="72.8" y="60.4" class="st2"/><g class="st3"><rect width=".6" height="1.1" x="72.8" y="60.4" class="st2"/><polygon points="72.8 61.3 73.1 61.2 73 61.3 73.2 61.4 73.3 61.3 73.4 61.4 73.4 60.4" class="st4"/></g><rect width=".9" height="1.6" x="73.1" y="58.4" class="st2"/><rect width=".9" height="1.6" x="73.1" y="58.4" class="st2"/><g class="st3"><rect width=".9" height="1.6" x="73.1" y="58.4" class="st2"/><polygon points="73.1 60 73.3 59.8 73.4 59.9 73.7 59.9 73.6 59.7 74 59.8 74 59.8 73.2 58.4" class="st4"/></g><rect width=".9" height="1.5" x="72.5" y="56.2" class="st2"/><rect width=".9" height="1.5" x="72.5" y="56.2" class="st2"/><g class="st3"><rect width=".9" height="1.5" x="72.5" y="56.2" class="st2"/><polygon points="72.7 56.2 72.5 57.8 72.8 57.6 72.8 57.7 73.1 57.7 73.1 57.5 73.4 57.6 72.7 56.2" class="st6"/></g><rect width="1.6" height="1.5" x="71.2" y="54.4" class="st2"/><rect width="1.6" height="1.5" x="71.2" y="54.4" class="st2"/><g class="st3"><rect width="1.6" height="1.5" x="71.2" y="54.4" class="st2"/><polygon points="71.2 54.4 72.2 55.9 72.3 55.6 72.4 55.7 72.6 55.4 72.5 55.3 72.9 55.2 71.2 54.4" class="st6"/></g><rect width="1.2" height=".7" x="69.2" y="53.5" class="st2"/><rect width="1.2" height=".7" x="69.2" y="53.5" class="st2"/><g class="st3"><rect width="1.2" height=".7" x="69.2" y="53.5" class="st2"/><polygon points="69.2 53.7 70.3 54.2 70.2 54 70.3 54 70.3 53.8 70.2 53.7 70.3 53.5 70.3 53.5" class="st6"/></g><rect width="2.3" height="1.3" x="66.2" y="53.1" class="st2"/><rect width="2.3" height="1.3" x="66.2" y="53.1" class="st2"/><g class="st3"><rect width="2.3" height="1.3" x="66.2" y="53.1" class="st2"/><polygon points="66.2 54.3 68.5 54.3 68.1 54 68.4 53.9 68.3 53.5 68 53.5 68.1 53.1" class="st6"/></g><rect width="2.4" height="1.3" x="62.3" y="54.1" class="st2"/><rect width="2.4" height="1.3" x="62.3" y="54.1" class="st2"/><g class="st3"><rect width="2.4" height="1.3" x="62.3" y="54.1" class="st2"/><polygon points="62.3 55.3 64.6 55.3 64.6 55.3 64.3 55 64.7 54.8 64.6 54.4 64.1 54.5 64.2 54.1" class="st6"/></g><rect width="3.4" height="1.3" x="57.3" y="54.6" class="st2"/><rect width="3.4" height="1.3" x="57.3" y="54.6" class="st2"/><g class="st3"><rect width="3.4" height="1.3" x="57.3" y="54.6" class="st2"/><polygon points="59.5 54.6 57.3 54.6 59.2 55.9 59.1 55.4 60.6 55.8 60.7 55.4 59.3 54.9 59.6 54.6" class="st6"/></g><rect width="3.9" height="1.9" x="51.1" y="52.4" class="st2"/><rect width="3.9" height="1.9" x="51.1" y="52.4" class="st2"/><g class="st3"><rect width="3.9" height="1.9" x="51.1" y="52.4" class="st2"/><polygon points="52.9 53.9 52.9 53.4 54.8 54.3 55 53.9 53 53 53.4 52.7 51.1 52.4" class="st6"/></g><rect width="3.3" height="2.2" x="45.3" y="49.5" class="st2"/><rect width="3.3" height="2.2" x="45.3" y="49.5" class="st2"/><g class="st3"><rect width="3.3" height="2.2" x="45.3" y="49.5" class="st2"/><polygon points="45.3 49.5 46.8 51.3 46.8 50.8 48.4 51.8 48.6 51.4 47.1 50.4 47.5 50.2 45.3 49.5" class="st6"/></g><rect width="2.1" height="1.4" x="41.2" y="47.7" class="st2"/><rect width="2.1" height="1.4" x="41.2" y="47.7" class="st2"/><g class="st3"><rect width="2.1" height="1.4" x="41.2" y="47.7" class="st2"/><polygon points="42.8 49.1 42.8 49.1 42.8 48.6 42.9 48.7 43.1 48.3 42.9 48.3 43.3 48 41.2 47.7" class="st6"/></g><rect width=".9" height=".5" x="38.9" y="47" class="st2"/><rect width=".9" height=".5" x="38.9" y="47" class="st2"/><g class="st3"><rect width=".9" height=".5" x="38.9" y="47" class="st2"/><polygon points="38.9 47.2 38.9 47.2 39.8 47.5 39.8 47.5 39.7 47.4 39.8 47.4 39.8 47.2 39.7 47.2 39.8 47" class="st6"/></g><rect width=".7" height=".7" x="37.8" y="47" class="st2"/><rect width=".7" height=".7" x="37.8" y="47" class="st2"/><g class="st3"><rect width=".7" height=".7" x="37.8" y="47" class="st2"/><polygon points="38.1 47 37.8 47.8 38.4 47.3 38.3 47.3 38.3 47.2 38.2 47.2 38.2 47.2" class="st6"/></g><rect width="1.6" height="1.9" x="36.3" y="47.7" class="st2"/><rect width="1.6" height="1.9" x="36.3" y="47.7" class="st2"/><g class="st3"><rect width="1.6" height="1.9" x="36.3" y="47.7" class="st2"/><polygon points="36.3 49.5 37.9 48.3 37.5 48.3 37.6 48.1 37.3 47.9 37.1 48 37 47.7" class="st6"/></g><rect width="2" height="1.9" x="33.9" y="49.8" class="st2"/><rect width="2" height="1.9" x="33.9" y="49.8" class="st2"/><g class="st3"><rect width="2" height="1.9" x="33.9" y="49.8" class="st2"/><polygon points="35 49.8 33.9 51.6 35.9 50.7 35.4 50.5 35.6 50.4 35.3 50.1 35.2 50.2 35 49.8" class="st6"/></g><rect width="1.7" height="1.7" x="31.5" y="51.9" class="st2"/><rect width="1.7" height="1.7" x="31.5" y="51.9" class="st2"/><g class="st3"><rect width="1.7" height="1.7" x="31.5" y="51.9" class="st2"/><polygon points="32.4 51.9 31.5 53.6 31.5 53.6 33.2 52.7 32.8 52.6 32.9 52.4 32.7 52.2 32.5 52.3 32.4 51.9" class="st6"/></g><rect width="1.5" height=".9" x="29.3" y="53.9" class="st2"/><rect width="1.5" height=".9" x="29.3" y="53.9" class="st2"/><g class="st3"><rect width="1.5" height=".9" x="29.3" y="53.9" class="st2"/><polygon points="29.3 54.8 30.7 54.7 30.5 54.5 30.6 54.4 30.5 54.2 30.4 54.2 30.4 53.9" class="st6"/></g><rect width=".7" height=".4" x="27.7" y="54.9" class="st2"/><rect width=".7" height=".4" x="27.7" y="54.9" class="st2"/><g class="st3"><rect width=".7" height=".4" x="27.7" y="54.9" class="st2"/><polygon points="27.7 55.1 28.4 55.3 28.3 55.2 28.4 55.1 28.3 55 28.3 55 28.3 54.9" class="st6"/></g><rect width=".7" height=".9" x="26.7" y="55" class="st2"/><rect width=".7" height=".9" x="26.7" y="55" class="st2"/><g class="st3"><rect width=".7" height=".9" x="26.7" y="55" class="st2"/><polygon points="27 55 26.7 55.9 27.4 55.3 27.2 55.3 27.3 55.2 27.2 55.1 27.1 55.2" class="st6"/></g><rect width=".9" height="1.4" x="25.8" y="56" class="st2"/><rect width=".9" height="1.4" x="25.8" y="56" class="st2"/><g class="st3"><rect width=".9" height="1.4" x="25.8" y="56" class="st2"/><polygon points="26 56 25.8 57.5 26.7 56.4 26.4 56.4 26.5 56.3 26.2 56.2 26.2 56.3" class="st6"/></g><rect width=".9" height="1.7" x="25" y="58" class="st2"/><rect width=".9" height="1.7" x="25" y="58" class="st2"/><g class="st3"><rect width=".9" height="1.7" x="25" y="58" class="st2"/><polygon points="25 59.6 25.9 58.2 25.5 58.3 25.6 58.1 25.3 58.1 25.2 58.2 25 58" class="st6"/></g><rect width=".7" height="1.3" x="24.4" y="60.2" class="st2"/><rect width=".7" height="1.3" x="24.4" y="60.2" class="st2"/><g class="st3"><rect width=".7" height="1.3" x="24.4" y="60.2" class="st2"/><polygon points="24.4 60.3 24.4 61.6 24.4 61.6 25.1 60.5 24.8 60.5 24.8 60.4 24.6 60.3 24.6 60.4 24.4 60.2" class="st6"/></g><rect width=".3" height=".6" x="24" y="62.1" class="st2"/><rect width=".3" height=".6" x="24" y="62.1" class="st2"/><g class="st3"><rect width=".3" height=".6" x="24" y="62.1" class="st2"/><polygon points="24 62.1 24 62.7 24.3 62.2 24.2 62.2 24.2 62.2 24.1 62.1 24.1 62.2" class="st6"/></g><rect width=".4" height=".4" x="23.7" y="62.8" class="st2"/><rect width=".4" height=".4" x="23.7" y="62.8" class="st2"/><g class="st3"><rect width=".4" height=".4" x="23.7" y="62.8" class="st2"/><path d="M23.9,63.2l0.2,0L23.9,63.2z M24,62.8l-0.2,0L23.7,63l0.1,0.2l0.2,0l0.1-0.2l0,0L24,62.8z" class="st6"/></g><rect width=".4" height=".4" x="23.6" y="63" class="st2"/><rect width=".4" height=".4" x="23.6" y="63" class="st2"/><g class="st3"><rect width=".4" height=".4" x="23.6" y="63" class="st2"/><path d="M23.9,63.4l0.1-0.2L23.9,63.4z M23.6,63.2L23.6,63.2l0.1,0.2l0.2,0l0.1-0.2L24,63l-0.2,0L23.6,63.2z" class="st6"/></g><rect width=".4" height=".4" x="23.7" y="63.1" class="st2"/><rect width=".4" height=".4" x="23.7" y="63.1" class="st2"/><g class="st3"><rect width=".4" height=".4" x="23.7" y="63.1" class="st2"/><path d="M23.9,63.6l0.2-0.1L23.9,63.6z M23.9,63.1l-0.2,0.1v0.2l0.2,0.1l0,0l0.2-0.1v-0.2L23.9,63.1L23.9,63.1 L23.9,63.1z" class="st6"/></g><rect width=".4" height=".4" x="23.7" y="63.4" class="st2"/><rect width=".4" height=".4" x="23.7" y="63.4" class="st2"/><g class="st3"><rect width=".4" height=".4" x="23.7" y="63.4" class="st2"/><path d="M23.9,63.9l0.2-0.1L23.9,63.9z M23.9,63.4l-0.2,0.1v0.2l0.2,0.1l0.2-0.1v-0.2L23.9,63.4z" class="st6"/></g><rect width=".4" height=".4" x="23.7" y="63.8" class="st2"/><rect width=".4" height=".4" x="23.7" y="63.8" class="st2"/><g class="st3"><rect width=".4" height=".4" x="23.7" y="63.8" class="st2"/><path d="M23.9,64.2l0.2-0.1L23.9,64.2z M24,63.8l-0.2,0.1l-0.1,0.2l0.2,0.2l0.2-0.1l0.1-0.2L24,63.8L24,63.8L24,63.8z" class="st6"/></g><rect width=".4" height=".4" x="23.6" y="64.1" class="st2"/><rect width=".4" height=".4" x="23.6" y="64.1" class="st2"/><g class="st3"><rect width=".4" height=".4" x="23.6" y="64.1" class="st2"/><path d="M23.8,64.5l0.2,0L23.8,64.5z M23.9,64.1l-0.2,0l-0.1,0.2l0.1,0.2l0.2,0l0.1-0.2L23.9,64.1L23.9,64.1L23.9,64.1 z" class="st6"/></g><rect width=".4" height=".4" x="23.6" y="64.2" class="st2"/><rect width=".4" height=".4" x="23.6" y="64.2" class="st2"/><g class="st3"><rect width=".4" height=".4" x="23.6" y="64.2" class="st2"/><polygon points="23.9 64.2 23.7 64.2 23.6 64.4 23.7 64.6 23.9 64.6 24 64.4" class="st6"/></g><rect width=".4" height=".4" x="23.6" y="64.2" class="st2"/><rect width=".4" height=".4" x="23.6" y="64.2" class="st2"/><g class="st3"><rect width=".4" height=".4" x="23.6" y="64.2" class="st2"/><polygon points="23.9 64.2 23.7 64.2 23.6 64.4 23.8 64.6 24 64.6 24 64.3 23.9 64.2" class="st4"/></g><rect width=".4" height=".4" x="23.8" y="64.1" class="st2"/><rect width=".4" height=".4" x="23.8" y="64.1" class="st2"/><g class="st3"><rect width=".4" height=".4" x="23.8" y="64.1" class="st2"/><polygon points="24.1 64.1 23.9 64.2 23.8 64.4 24 64.6 24.2 64.5 24.3 64.3" class="st4"/></g><rect width=".9" height=".5" x="24.6" y="63.9" class="st2"/><rect width=".9" height=".5" x="24.6" y="63.9" class="st2"/><g class="st3"><rect width=".9" height=".5" x="24.6" y="63.9" class="st2"/><polygon points="25.5 63.9 24.6 64 24.8 64.1 24.7 64.1 24.7 64.3 24.8 64.3 24.8 64.4 24.8 64.4 25.5 63.9" class="st4"/></g><rect width="1.6" height="1" x="25.9" y="63.2" class="st2"/><rect width="1.6" height="1" x="25.9" y="63.2" class="st2"/><g class="st3"><rect width="1.6" height="1" x="25.9" y="63.2" class="st2"/><polygon points="27.5 63.2 25.9 63.4 25.9 63.4 26.1 63.6 26 63.7 26.1 63.9 26.3 63.9 26.2 64.2" class="st4"/></g><rect width="2.3" height="1.4" x="28.4" y="62.1" class="st2"/><rect width="2.3" height="1.4" x="28.4" y="62.1" class="st2"/><g class="st3"><rect width="2.3" height="1.4" x="28.4" y="62.1" class="st2"/><polygon points="30.7 62.1 28.4 62.3 28.4 62.3 28.8 62.6 28.4 62.8 28.6 63.2 28.9 63 28.9 63.5" class="st4"/></g><rect width="2.8" height="1.3" x="32.2" y="60.9" class="st2"/><rect width="2.8" height="1.3" x="32.2" y="60.9" class="st2"/><g class="st3"><rect width="2.8" height="1.3" x="32.2" y="60.9" class="st2"/><polygon points="35 60.9 32.7 60.9 33 61.2 32.2 61.5 32.3 61.9 33.2 61.7 33.1 62.2" class="st4"/></g><rect width="3" height="1.3" x="36.9" y="59.7" class="st2"/><rect width="3" height="1.3" x="36.9" y="59.7" class="st2"/><g class="st3"><rect width="3" height="1.3" x="36.9" y="59.7" class="st2"/><polygon points="37.9 60.1 36.9 60.2 37 60.7 38 60.5 37.9 61 39.9 59.9 39.9 59.9 37.6 59.7" class="st4"/></g><rect width="2.8" height="1.3" x="42" y="59" class="st2"/><rect width="2.8" height="1.3" x="42" y="59" class="st2"/><g class="st3"><rect width="2.8" height="1.3" x="42" y="59" class="st2"/><polygon points="42.8 59.4 42 59.4 42 59.9 42.9 59.8 42.7 60.3 44.8 59.5 42.6 59" class="st4"/></g><rect width="2.3" height="1.3" x="46.8" y="58.8" class="st2"/><rect width="2.3" height="1.3" x="46.8" y="58.8" class="st2"/><g class="st3"><rect width="2.3" height="1.3" x="46.8" y="58.8" class="st2"/><polygon points="47 58.8 47.1 59.3 46.8 59.2 46.8 59.7 47.1 59.7 46.8 60.1 49.1 59.7 49.1 59.7" class="st4"/></g><rect width="1.8" height="1" x="50.6" y="59.3" class="st2"/><rect width="1.8" height="1" x="50.6" y="59.3" class="st2"/><g class="st3"><rect width="1.8" height="1" x="50.6" y="59.3" class="st2"/><polygon points="50.8 59.3 50.9 59.7 50.7 59.6 50.7 60 50.8 60 50.6 60.3 50.6 60.3 52.4 60.2" class="st4"/></g><rect width="1.3" height=".7" x="53.5" y="60" class="st2"/><rect width="1.3" height=".7" x="53.5" y="60" class="st2"/><g class="st3"><rect width="1.3" height=".7" x="53.5" y="60" class="st2"/><polygon points="53.7 60.2 53.6 60.2 53.5 60.5 53.7 60.5 53.5 60.7 54.8 60.5 53.6 60" class="st4"/></g><rect width="1.2" height=".7" x="55.6" y="60.3" class="st2"/><rect width="1.2" height=".7" x="55.6" y="60.3" class="st2"/><g class="st3"><rect width="1.2" height=".7" x="55.6" y="60.3" class="st2"/><polygon points="55.6 60.3 55.6 60.3 55.8 60.5 55.7 60.5 55.7 60.8 55.8 60.7 55.7 61 56.8 60.5 56.8 60.5 55.6 60.3" class="st4"/></g><rect width="1.3" height=".7" x="57.6" y="60" class="st2"/><rect width="1.3" height=".7" x="57.6" y="60" class="st2"/><g class="st3"><rect width="1.3" height=".7" x="57.6" y="60" class="st2"/><polygon points="57.6 60 57.7 60.2 57.6 60.3 57.7 60.5 57.8 60.5 57.8 60.7 58.8 60 58.8 60" class="st4"/></g><rect width="1.1" height=".6" x="59.5" y="59.5" class="st2"/><rect width="1.1" height=".6" x="59.5" y="59.5" class="st2"/><g class="st3"><rect width="1.1" height=".6" x="59.5" y="59.5" class="st2"/><polygon points="59.7 59.7 59.6 59.7 59.6 59.9 59.8 59.9 59.7 60.1 60.7 59.5 59.5 59.5" class="st4"/></g><rect width="1" height=".6" x="61.4" y="59.1" class="st2"/><rect width="1" height=".6" x="61.4" y="59.1" class="st2"/><g class="st3"><rect width="1" height=".6" x="61.4" y="59.1" class="st2"/><polygon points="61.4 59.1 61.5 59.3 61.4 59.3 61.4 59.5 61.5 59.5 61.4 59.7 62.5 59.5" class="st4"/></g><rect width="1.1" height=".6" x="63.1" y="59.2" class="st2"/><rect width="1.1" height=".6" x="63.1" y="59.2" class="st2"/><g class="st3"><rect width="1.1" height=".6" x="63.1" y="59.2" class="st2"/><polygon points="63.3 59.2 63.3 59.4 63.2 59.4 63.2 59.6 63.3 59.6 63.1 59.8 63.1 59.8 64.2 59.8" class="st4"/></g><rect width=".9" height=".5" x="64.9" y="59.6" class="st2"/><rect width=".9" height=".5" x="64.9" y="59.6" class="st2"/><g class="st3"><rect width=".9" height=".5" x="64.9" y="59.6" class="st2"/><polygon points="65 59.8 64.9 59.8 64.9 60 65 60 64.9 60.1 65.8 59.9 64.9 59.6" class="st4"/></g><rect width=".9" height=".6" x="66.3" y="59.5" class="st2"/><rect width=".9" height=".6" x="66.3" y="59.5" class="st2"/><g class="st3"><rect width=".9" height=".6" x="66.3" y="59.5" class="st2"/><polygon points="67.1 59.5 66.3 59.7 66.4 59.8 66.4 59.8 66.4 60 66.5 59.9 66.5 60.1 66.5 60.1" class="st4"/></g><rect width=".8" height="1.3" x="67.3" y="58.3" class="st2"/><rect width=".8" height="1.3" x="67.3" y="58.3" class="st2"/><g class="st3"><rect width=".8" height="1.3" x="67.3" y="58.3" class="st2"/><polygon points="67.3 59.2 67.6 59.2 67.6 59.3 67.8 59.4 67.8 59.3 68 59.5 68 59.5 68.2 58.3" class="st4"/></g><rect width="1.1" height="2" x="68.2" y="53.4" class="st2"/><rect width="1.1" height="2" x="68.2" y="53.4" class="st2"/><g class="st3"><rect width="1.1" height="2" x="68.2" y="53.4" class="st2"/><path d="M68.4,53.4l-0.1,2l0.3-0.3l0,0.2l0.4-0.1l0-0.2l0.4,0.1l0,0L68.4,53.4L68.4,53.4L68.4,53.4z" class="st6"/></g><rect width="1" height="1" x="67.3" y="51.7" class="st2"/><rect width="1" height="1" x="67.3" y="51.7" class="st2"/><g class="st3"><rect width="1" height="1" x="67.3" y="51.7" class="st2"/><polygon points="67.8 52.7 67.9 52.5 68 52.6 68.2 52.4 68.1 52.3 68.3 52.3 67.3 51.7" class="st6"/></g><rect width="1.2" height=".7" x="65.7" y="51" class="st2"/><rect width="1.2" height=".7" x="65.7" y="51" class="st2"/><g class="st3"><rect width="1.2" height=".7" x="65.7" y="51" class="st2"/><polygon points="66.7 51 65.7 51.7 66.9 51.7 66.7 51.5 66.8 51.4 66.8 51.2 66.6 51.2 66.7 51" class="st6"/></g><rect width="1.3" height=".8" x="63.6" y="51.4" class="st2"/><rect width="1.3" height=".8" x="63.6" y="51.4" class="st2"/><g class="st3"><rect width="1.3" height=".8" x="63.6" y="51.4" class="st2"/><polygon points="63.6 52.1 65 52.2 64.8 52 64.9 51.9 64.8 51.7 64.7 51.7 64.8 51.4" class="st6"/></g><rect width="2" height="1.2" x="60.8" y="51.7" class="st2"/><rect width="2" height="1.2" x="60.8" y="51.7" class="st2"/><g class="st3"><rect width="2" height="1.2" x="60.8" y="51.7" class="st2"/><polygon points="60.8 52.5 60.8 52.5 62.8 52.8 62.6 52.5 62.8 52.5 62.7 52.1 62.5 52.1 62.7 51.7" class="st6"/></g><rect width="2.8" height="1.3" x="56.7" y="52" class="st2"/><rect width="2.8" height="1.3" x="56.7" y="52" class="st2"/><g class="st3"><rect width="2.8" height="1.3" x="56.7" y="52" class="st2"/><polygon points="58.8 52 56.7 53.1 59 53.4 58.7 53 59.5 52.8 59.5 52.4 58.6 52.5 58.8 52" class="st6"/></g><rect width="3.5" height="1.3" x="51.3" y="52.6" class="st2"/><rect width="3.5" height="1.3" x="51.3" y="52.6" class="st2"/><g class="st3"><rect width="3.5" height="1.3" x="51.3" y="52.6" class="st2"/><polygon points="53.6 52.6 51.3 53.1 53.5 53.9 53.3 53.5 54.8 53.5 54.8 53.1 53.3 53" class="st6"/></g><rect width="3.6" height="1.3" x="45.3" y="52" class="st2"/><rect width="3.6" height="1.3" x="45.3" y="52" class="st2"/><g class="st3"><rect width="3.6" height="1.3" x="45.3" y="52" class="st2"/><polygon points="47.6 52 45.3 52.1 45.3 52.1 47.3 53.3 47.2 52.8 48.8 53.2 48.9 52.8 47.3 52.4" class="st6"/></g><rect width="2.8" height="1.4" x="40.1" y="50.6" class="st2"/><rect width="2.8" height="1.4" x="40.1" y="50.6" class="st2"/><g class="st3"><rect width="2.8" height="1.4" x="40.1" y="50.6" class="st2"/><polygon points="41.9 52.1 41.9 51.6 42.7 51.9 42.9 51.5 42.1 51.2 42.4 50.8 40.1 50.6" class="st6"/></g><rect width="1.9" height="1.9" x="36.7" y="48.7" class="st2"/><rect width="1.9" height="1.9" x="36.7" y="48.7" class="st2"/><g class="st3"><rect width="1.9" height="1.9" x="36.7" y="48.7" class="st2"/><polygon points="36.7 48.7 37.8 50.6 37.9 50.1 38.1 50.2 38.4 49.9 38.2 49.8 38.7 49.6 36.7 48.7" class="st6"/></g><rect width=".9" height="1" x="34.9" y="47.3" class="st2"/><rect width=".9" height="1" x="34.9" y="47.3" class="st2"/><g class="st3"><rect width=".9" height="1" x="34.9" y="47.3" class="st2"/><polygon points="34.9 47.3 35.4 48.2 35.5 48 35.5 48.1 35.7 48 35.6 47.9 35.9 47.8 34.9 47.3" class="st6"/></g><rect width=".9" height="1.5" x="33.9" y="46.8" class="st2"/><rect width=".9" height="1.5" x="33.9" y="46.8" class="st2"/><g class="st3"><rect width=".9" height="1.5" x="33.9" y="46.8" class="st2"/><polygon points="34 46.8 33.9 48.3 34.8 47.1 34.5 47.1 34.5 47 34.3 46.9 34.2 47" class="st6"/></g><rect width="1.7" height="2.3" x="32.3" y="48.8" class="st2"/><rect width="1.7" height="2.3" x="32.3" y="48.8" class="st2"/><g class="st3"><rect width="1.7" height="2.3" x="32.3" y="48.8" class="st2"/><polygon points="33.3 48.8 33.1 49.3 32.8 48.8 32.3 51.1 33.9 49.5 33.4 49.5 33.7 49" class="st6"/></g><rect width="1.8" height="2.2" x="30" y="52" class="st2"/><rect width="1.8" height="2.2" x="30" y="52" class="st2"/><g class="st3"><rect width="1.8" height="2.2" x="30" y="52" class="st2"/><polygon points="30.7 52 30 54.2 31.8 52.7 31.3 52.7 31.6 52.2 31.2 52 30.9 52.4" class="st6"/></g><rect width="1.6" height="1.5" x="27.8" y="54.8" class="st2"/><rect width="1.6" height="1.5" x="27.8" y="54.8" class="st2"/><g class="st3"><rect width="1.6" height="1.5" x="27.8" y="54.8" class="st2"/><polygon points="27.8 56.4 29.4 55.6 29 55.4 29.2 55.3 28.9 55.1 28.8 55.2 28.7 54.8" class="st6"/></g><rect width=".9" height=".5" x="26.2" y="56.7" class="st2"/><rect width=".9" height=".5" x="26.2" y="56.7" class="st2"/><g class="st3"><rect width=".9" height=".5" x="26.2" y="56.7" class="st2"/><polygon points="26.9 56.7 26.2 57.2 27 57.2 26.9 57 27 57 26.9 56.9 26.9 56.9 26.9 56.7" class="st6"/></g><rect width=".4" height=".4" x="25.4" y="57.1" class="st2"/><rect width=".4" height=".4" x="25.4" y="57.1" class="st2"/><g class="st3"><rect width=".4" height=".4" x="25.4" y="57.1" class="st2"/><polygon points="25.7 57.1 25.5 57.2 25.4 57.4 25.6 57.5 25.8 57.5 25.8 57.3" class="st6"/></g><rect width=".4" height=".4" x="24.7" y="57.3" class="st2"/><rect width=".4" height=".4" x="24.7" y="57.3" class="st2"/><g class="st3"><rect width=".4" height=".4" x="24.7" y="57.3" class="st2"/><polygon points="24.9 57.3 24.7 57.5 24.8 57.7 25 57.7 25.2 57.5 25.1 57.3" class="st6"/></g><rect width=".4" height=".6" x="24.5" y="57.8" class="st2"/><rect width=".4" height=".6" x="24.5" y="57.8" class="st2"/><g class="st3"><rect width=".4" height=".6" x="24.5" y="57.8" class="st2"/><polygon points="24.5 57.8 24.6 58.4 24.9 57.8 24.7 57.9 24.8 57.8 24.6 57.8 24.6 57.8" class="st6"/></g><rect width=".8" height="1.4" x="24.1" y="58.6" class="st2"/><rect width=".8" height="1.4" x="24.1" y="58.6" class="st2"/><g class="st3"><rect width=".8" height="1.4" x="24.1" y="58.6" class="st2"/><polygon points="24.1 58.6 24.3 60 24.3 60 24.8 58.7 24.8 58.7 24.6 58.8 24.6 58.7 24.3 58.6 24.3 58.8 24.1 58.6" class="st6"/></g><rect width=".6" height="1.2" x="23.8" y="60.5" class="st2"/><rect width=".6" height="1.2" x="23.8" y="60.5" class="st2"/><g class="st3"><rect width=".6" height="1.2" x="23.8" y="60.5" class="st2"/><polygon points="23.8 60.5 23.9 61.7 24.4 60.7 24.4 60.7 24.2 60.7 24.2 60.6 24 60.6 24 60.7" class="st6"/></g><rect width=".3" height=".5" x="23.5" y="62.2" class="st2"/><rect width=".3" height=".5" x="23.5" y="62.2" class="st2"/><g class="st3"><rect width=".3" height=".5" x="23.5" y="62.2" class="st2"/><polygon points="23.5 62.2 23.6 62.7 23.8 62.2 23.8 62.2 23.7 62.2 23.7 62.2 23.6 62.2 23.6 62.2" class="st6"/></g><rect width=".4" height=".4" x="23.3" y="62.7" class="st2"/><rect width=".4" height=".4" x="23.3" y="62.7" class="st2"/><g class="st3"><rect width=".4" height=".4" x="23.3" y="62.7" class="st2"/><path d="M23.5,63.1l0.2,0L23.5,63.1z M23.6,62.7l-0.2,0l-0.1,0.2l0.1,0.2l0.2,0l0.1-0.2C23.8,62.8,23.6,62.7,23.6,62.7 z" class="st6"/></g><rect width=".4" height=".4" x="23.2" y="62.9" class="st2"/><rect width=".4" height=".4" x="23.2" y="62.9" class="st2"/><g class="st3"><rect width=".4" height=".4" x="23.2" y="62.9" class="st2"/><path d="M23.5,63.3l0.1-0.2L23.5,63.3z M23.3,62.9l-0.1,0.2l0,0l0.1,0.2l0.2,0l0.1-0.2l0,0L23.5,63L23.3,62.9 L23.3,62.9L23.3,62.9z" class="st6"/></g><rect width=".4" height=".4" x="23.3" y="63.1" class="st2"/><rect width=".4" height=".4" x="23.3" y="63.1" class="st2"/><g class="st3"><rect width=".4" height=".4" x="23.3" y="63.1" class="st2"/><path d="M23.6,63.5l0.1-0.2L23.6,63.5z M23.4,63.1l-0.1,0.2l0.1,0.2l0.2,0l0.1-0.2l-0.1-0.2L23.4,63.1z" class="st4"/></g><rect width=".4" height=".4" x="23.4" y="63.4" class="st2"/><rect width=".4" height=".4" x="23.4" y="63.4" class="st2"/><g class="st3"><rect width=".4" height=".4" x="23.4" y="63.4" class="st2"/><path d="M23.6,63.8l0.2-0.1L23.6,63.8z M23.6,63.4l-0.2,0.1l0,0.2l0.2,0.1l0.2-0.1l0-0.2L23.6,63.4L23.6,63.4 L23.6,63.4z" class="st4"/></g><rect width=".4" height=".4" x="23.4" y="63.7" class="st2"/><rect width=".4" height=".4" x="23.4" y="63.7" class="st2"/><g class="st3"><rect width=".4" height=".4" x="23.4" y="63.7" class="st2"/><path d="M23.6,64.2l0.2-0.1L23.6,64.2z M23.6,63.7l-0.2,0.1v0.2l0.2,0.1l0.2-0.1v-0.2L23.6,63.7L23.6,63.7L23.6,63.7z" class="st4"/></g><rect width=".4" height=".4" x="23.4" y="64.1" class="st2"/><rect width=".4" height=".4" x="23.4" y="64.1" class="st2"/><g class="st3"><rect width=".4" height=".4" x="23.4" y="64.1" class="st2"/><path d="M23.6,64.5l0.2-0.1L23.6,64.5z M23.6,64.1l-0.2,0.1v0.2l0.2,0.1l0,0l0.2-0.1v-0.2L23.6,64.1z" class="st4"/></g><rect width=".4" height=".4" x="23.4" y="64.2" class="st2"/><rect width=".4" height=".4" x="23.4" y="64.2" class="st2"/><g class="st3"><rect width=".4" height=".4" x="23.4" y="64.2" class="st2"/><polygon points="23.5 64.2 23.4 64.4 23.5 64.6 23.7 64.6 23.8 64.4 23.8 64.2" class="st4"/></g><rect width=".4" height=".4" x="23.5" y="64.2" class="st2"/><rect width=".4" height=".4" x="23.5" y="64.2" class="st2"/><g class="st3"><rect width=".4" height=".4" x="23.5" y="64.2" class="st2"/><polygon points="23.8 64.2 23.6 64.3 23.5 64.5 23.5 64.5 23.7 64.6 23.9 64.6 23.9 64.4" class="st4"/></g><rect width=".5" height=".2" x="24" y="64.2" class="st2"/><rect width=".5" height=".2" x="24" y="64.2" class="st2"/><g class="st3"><rect width=".5" height=".2" x="24" y="64.2" class="st2"/><polygon points="24.1 64.3 24 64.3 24 64.4 24.1 64.4 24.1 64.5 24.4 64.2 24 64.2" class="st4"/></g><rect width=".9" height=".6" x="24.7" y="63.8" class="st2"/><rect width=".9" height=".6" x="24.7" y="63.8" class="st2"/><g class="st3"><rect width=".9" height=".6" x="24.7" y="63.8" class="st2"/><polygon points="24.7 63.9 24.8 64.1 24.7 64.1 24.8 64.2 24.9 64.2 24.8 64.4 25.6 63.8 25.6 63.8" class="st4"/></g><rect width="1.7" height="1.1" x="26" y="63.1" class="st2"/><rect width="1.7" height="1.1" x="26" y="63.1" class="st2"/><g class="st3"><rect width="1.7" height="1.1" x="26" y="63.1" class="st2"/><polygon points="27.7 63.1 26 63.2 26 63.2 26.3 63.5 26.1 63.5 26.3 63.8 26.4 63.8 26.4 64.2" class="st4"/></g><rect width="2.3" height="1.4" x="28.8" y="62" class="st2"/><rect width="2.3" height="1.4" x="28.8" y="62" class="st2"/><g class="st3"><rect width="2.3" height="1.4" x="28.8" y="62" class="st2"/><polygon points="28.8 62.1 29.2 62.5 28.8 62.6 28.9 63 29.3 62.9 29.3 63.3 31.1 62" class="st4"/></g><rect width="2.9" height="1.3" x="32.6" y="60.7" class="st2"/><rect width="2.9" height="1.3" x="32.6" y="60.7" class="st2"/><g class="st3"><rect width="2.9" height="1.3" x="32.6" y="60.7" class="st2"/><polygon points="33.5 61.1 32.6 61.3 32.7 61.8 33.6 61.5 33.6 62 33.6 62 35.5 60.7 33.2 60.7" class="st4"/></g><rect width="3" height="1.3" x="37.4" y="59.5" class="st2"/><rect width="3" height="1.3" x="37.4" y="59.5" class="st2"/><g class="st3"><rect width="3" height="1.3" x="37.4" y="59.5" class="st2"/><polygon points="38.5 59.9 37.4 60.1 37.5 60.5 38.5 60.4 38.4 60.8 40.5 59.8 38.2 59.5" class="st4"/></g><rect width="2.8" height="1.3" x="42.6" y="58.9" class="st2"/><rect width="2.8" height="1.3" x="42.6" y="58.9" class="st2"/><g class="st3"><rect width="2.8" height="1.3" x="42.6" y="58.9" class="st2"/><polygon points="43.3 59.3 42.6 59.3 42.6 59.4 42.6 59.8 43.3 59.8 43.1 60.2 43.1 60.2 45.3 59.5 43.1 58.9" class="st4"/></g><rect width="2.3" height="1.3" x="47.2" y="58.8" class="st2"/><rect width="2.3" height="1.3" x="47.2" y="58.8" class="st2"/><g class="st3"><rect width="2.3" height="1.3" x="47.2" y="58.8" class="st2"/><polygon points="47.4 58.8 47.5 59.3 47.3 59.2 47.2 59.7 47.5 59.7 47.2 60.1 49.5 59.7" class="st4"/></g><rect width="1.7" height="1" x="50.9" y="59.3" class="st2"/><rect width="1.7" height="1" x="50.9" y="59.3" class="st2"/><g class="st3"><rect width="1.7" height="1" x="50.9" y="59.3" class="st2"/><polygon points="51.1 59.3 51.2 59.7 51.1 59.7 51 60 51.2 60 50.9 60.3 50.9 60.3 52.6 60.2" class="st4"/></g><rect width="1.3" height=".7" x="53.7" y="60" class="st2"/><rect width="1.3" height=".7" x="53.7" y="60" class="st2"/><g class="st3"><rect width="1.3" height=".7" x="53.7" y="60" class="st2"/><polygon points="53.8 60 53.9 60.3 53.8 60.2 53.8 60.5 53.9 60.5 53.7 60.7 55 60.5" class="st4"/></g><rect width="1.2" height=".7" x="55.8" y="60.3" class="st2"/><rect width="1.2" height=".7" x="55.8" y="60.3" class="st2"/><g class="st3"><rect width="1.2" height=".7" x="55.8" y="60.3" class="st2"/><polygon points="55.9 60.5 55.8 60.5 55.9 60.7 56 60.7 55.9 61 57 60.4 55.8 60.3" class="st4"/></g><rect width="1.2" height=".7" x="57.7" y="59.9" class="st2"/><rect width="1.2" height=".7" x="57.7" y="59.9" class="st2"/><g class="st3"><rect width="1.2" height=".7" x="57.7" y="59.9" class="st2"/><polygon points="59 59.9 57.7 60 57.9 60.2 57.8 60.2 57.9 60.4 58 60.4 58 60.7" class="st4"/></g><rect width="1.1" height=".6" x="59.7" y="59.4" class="st2"/><rect width="1.1" height=".6" x="59.7" y="59.4" class="st2"/><g class="st3"><rect width="1.1" height=".6" x="59.7" y="59.4" class="st2"/><polygon points="59.9 59.6 59.8 59.6 59.8 59.8 59.9 59.8 59.9 60.1 60.8 59.5 59.7 59.4" class="st4"/></g><rect width="1" height=".6" x="61.6" y="59.1" class="st2"/><rect width="1.1" height=".6" x="61.6" y="59.1" class="st2"/><g class="st3"><rect width="1" height=".6" x="61.6" y="59.1" class="st2"/><polygon points="61.6 59.1 61.7 59.3 61.6 59.3 61.6 59.5 61.7 59.5 61.6 59.7 62.6 59.5" class="st4"/></g><rect width="1.1" height=".6" x="63.2" y="59.2" class="st2"/><rect width="1.1" height=".6" x="63.2" y="59.2" class="st2"/><g class="st3"><rect width="1.1" height=".6" x="63.2" y="59.2" class="st2"/><polygon points="63.4 59.2 63.4 59.5 63.3 59.4 63.3 59.6 63.4 59.7 63.2 59.8 64.3 59.8" class="st4"/></g><rect width=".9" height=".5" x="64.9" y="59.6" class="st2"/><rect width=".9" height=".5" x="64.9" y="59.6" class="st2"/><g class="st3"><rect width=".9" height=".5" x="64.9" y="59.6" class="st2"/><polygon points="65.1 59.6 65.1 59.8 65 59.8 65 60 65.1 60 64.9 60.2 65.9 60.1 65.1 59.6" class="st4"/></g><rect width=".9" height=".5" x="66.4" y="60" class="st2"/><rect width=".9" height=".5" x="66.4" y="60" class="st2"/><g class="st3"><rect width=".9" height=".5" x="66.4" y="60" class="st2"/><polygon points="67.3 60 66.4 60 66.4 60 66.6 60.1 66.5 60.2 66.5 60.3 66.6 60.3 66.6 60.5" class="st4"/></g><rect width="1.3" height="2.7" x="68.3" y="53" class="st2"/><rect width="1.3" height="2.7" x="68.3" y="53" class="st2"/><g class="st3"><rect width="1.3" height="2.7" x="68.3" y="53" class="st2"/><polygon points="68.3 55.3 68.7 55 68.9 55.7 69.3 55.6 69.2 54.9 69.6 55 68.6 53" class="st6"/></g><rect width="1.5" height="1.8" x="67.3" y="50.2" class="st2"/><rect width="1.5" height="1.8" x="67.3" y="50.2" class="st2"/><g class="st3"><rect width="1.5" height="1.8" x="67.3" y="50.2" class="st2"/><polygon points="67.8 52 68 51.7 68.1 51.8 68.4 51.6 68.3 51.5 68.7 51.4 67.3 50.2" class="st6"/></g><rect width="1.8" height="1" x="64.9" y="48.9" class="st2"/><rect width="1.8" height="1" x="64.9" y="48.9" class="st2"/><g class="st3"><rect width="1.8" height="1" x="64.9" y="48.9" class="st2"/><polygon points="66.4 50 66.3 49.6 66.5 49.7 66.6 49.3 66.5 49.3 66.7 49 64.9 48.9" class="st6"/></g><rect width="1.9" height="1.1" x="61.9" y="48.1" class="st2"/><rect width="1.9" height="1.1" x="61.9" y="48.1" class="st2"/><g class="st3"><rect width="1.9" height="1.1" x="61.9" y="48.1" class="st2"/><polygon points="63.7 48.1 61.9 48.8 63.8 49.2 63.8 49.2 63.6 48.9 63.8 48.9 63.7 48.5 63.6 48.5 63.7 48.1" class="st6"/></g><rect width="2.8" height="1.3" x="57.8" y="48.3" class="st2"/><rect width="2.8" height="1.3" x="57.8" y="48.3" class="st2"/><g class="st3"><rect width="2.8" height="1.3" x="57.8" y="48.3" class="st2"/><polygon points="57.8 49.3 60.1 49.7 59.8 49.2 60.6 49.1 60.6 48.7 59.8 48.8 59.9 48.3" class="st6"/></g><rect width="3.3" height="1.3" x="52.6" y="48.8" class="st2"/><rect width="3.3" height="1.3" x="52.6" y="48.8" class="st2"/><g class="st3"><rect width="3.3" height="1.3" x="52.6" y="48.8" class="st2"/><polygon points="54.8 48.8 52.6 49.5 54.8 50.1 54.6 49.7 55.9 49.7 55.9 49.2 54.5 49.2 54.8 48.8" class="st6"/></g><rect width="4" height="1.3" x="46.3" y="48.9" class="st2"/><rect width="4" height="1.3" x="46.3" y="48.9" class="st2"/><g class="st3"><rect width="4" height="1.3" x="46.3" y="48.9" class="st2"/><polygon points="46.3 49.5 48.5 50.2 48.2 49.8 50.2 49.7 50.2 49.3 48.2 49.3 48.5 48.9" class="st6"/></g><rect width="3.4" height="1.3" x="40.1" y="49" class="st2"/><rect width="3.4" height="1.3" x="40.1" y="49" class="st2"/><g class="st3"><rect width="3.4" height="1.3" x="40.1" y="49" class="st2"/><polygon points="42.3 49 40.1 49.9 42.4 50.3 42.1 49.9 43.5 49.8 43.5 49.8 43.4 49.3 42.1 49.5 42.3 49" class="st6"/></g><rect width="2.1" height="1.2" x="35.8" y="49.4" class="st2"/><rect width="2.1" height="1.2" x="35.8" y="49.4" class="st2"/><g class="st3"><rect width="2.1" height="1.2" x="35.8" y="49.4" class="st2"/><polygon points="37.8 49.4 35.8 49.8 37.7 50.6 37.5 50.2 37.7 50.2 37.8 49.8 37.6 49.8" class="st6"/></g><rect width="1.1" height="1.1" x="33.5" y="48.9" class="st2"/><rect width="1.1" height="1.1" x="33.5" y="48.9" class="st2"/><g class="st3"><rect width="1.1" height="1.1" x="33.5" y="48.9" class="st2"/><polygon points="34.1 50 34.2 49.7 34.3 49.8 34.4 49.6 34.3 49.5 34.6 49.4 34.6 49.4 33.5 48.9" class="st6"/></g><rect width=".7" height="1.3" x="32.5" y="47.3" class="st2"/><rect width=".7" height="1.3" x="32.5" y="47.3" class="st2"/><g class="st3"><rect width=".7" height="1.3" x="32.5" y="47.3" class="st2"/><polygon points="32.6 47.3 32.5 48.6 32.7 48.4 32.7 48.5 32.9 48.5 32.9 48.4 33.2 48.4" class="st6"/></g><rect width=".4" height=".4" x="32.3" y="46.5" class="st2"/><rect width=".4" height=".4" x="32.3" y="46.5" class="st2"/><g class="st3"><rect width=".4" height=".4" x="32.3" y="46.5" class="st2"/><path d="M32.5,46.5l-0.2,0.1L32.5,46.5z M32.5,46.5l-0.2,0.1l0,0.2l0.2,0.1l0.2-0.1l0-0.2L32.5,46.5L32.5,46.5 L32.5,46.5z" class="st6"/></g><rect width=".8" height=".6" x="31.7" y="45.9" class="st2"/><rect width=".8" height=".6" x="31.7" y="45.9" class="st2"/><g class="st3"><rect width=".8" height=".6" x="31.7" y="45.9" class="st2"/><polygon points="31.7 46.5 31.7 46.5 32.5 46.3 32.5 46.3 32.4 46.2 32.5 46.2 32.4 46 32.3 46.1 32.3 45.9" class="st6"/></g><rect width="1.4" height="1.8" x="30.3" y="46.4" class="st2"/><rect width="1.4" height="1.8" x="30.3" y="46.4" class="st2"/><g class="st3"><rect width="1.4" height="1.8" x="30.3" y="46.4" class="st2"/><polygon points="30.8 46.4 30.3 48.2 31.7 47 31.3 47 31.4 46.8 31.1 46.6 31 46.8" class="st6"/></g><rect width="1.4" height="1.2" x="28.4" y="48.6" class="st2"/><rect width="1.4" height="1.2" x="28.4" y="48.6" class="st2"/><g class="st3"><rect width="1.4" height="1.2" x="28.4" y="48.6" class="st2"/><polygon points="28.4 49.8 29.8 49.3 29.5 49.1 29.6 49 29.5 48.8 29.4 48.9 29.3 48.6" class="st6"/></g><rect width=".5" height=".6" x="27.3" y="49.8" class="st2"/><rect width=".5" height=".6" x="27.3" y="49.8" class="st2"/><g class="st3"><rect width=".5" height=".6" x="27.3" y="49.8" class="st2"/><polygon points="27.3 49.8 27.5 50.4 27.5 50.4 27.6 50.3 27.6 50.3 27.7 50.2 27.7 50.2 27.8 50.2 27.8 50.2 27.3 49.8" class="st6"/></g><rect width=".9" height="1.5" x="26.6" y="48.2" class="st2"/><rect width=".9" height="1.5" x="26.6" y="48.2" class="st2"/><g class="st3"><rect width=".9" height="1.5" x="26.6" y="48.2" class="st2"/><polygon points="27.2 48.2 26.6 49.5 26.9 49.4 26.9 49.6 27.1 49.6 27.2 49.5 27.4 49.7 27.4 49.7" class="st6"/></g><rect width=".7" height=".6" x="27.3" y="47.1" class="st2"/><rect width=".7" height=".6" x="27.3" y="47.1" class="st2"/><g class="st3"><rect width=".7" height=".6" x="27.3" y="47.1" class="st2"/><polygon points="28 47.1 27.3 47.3 27.4 47.4 27.4 47.4 27.5 47.6 27.5 47.5 27.6 47.7" class="st6"/></g><rect width=".3" height=".5" x="28.3" y="46.8" class="st2"/><rect width=".3" height=".5" x="28.3" y="46.8" class="st2"/><g class="st3"><rect width=".3" height=".5" x="28.3" y="46.8" class="st2"/><polygon points="28.3 46.8 28.3 46.9 28.3 47.3 28.6 46.9 28.4 46.9 28.5 46.9 28.4 46.8 28.4 46.9" class="st6"/></g><rect width=".4" height=".4" x="28" y="47.3" class="st2"/><rect width=".4" height=".4" x="28" y="47.3" class="st2"/><g class="st3"><rect width=".4" height=".4" x="28" y="47.3" class="st2"/><polygon points="28.3 47.3 28 47.4 28 47.6 28.1 47.8 28.1 47.8 28.3 47.7 28.4 47.5" class="st6"/></g><rect width=".7" height="1.1" x="27.3" y="46.5" class="st2"/><rect width=".7" height="1.1" x="27.3" y="46.5" class="st2"/><g class="st3"><rect width=".7" height="1.1" x="27.3" y="46.5" class="st2"/><polygon points="27.3 47.7 27.3 47.7 27.5 47.5 27.5 47.7 27.7 47.7 27.7 47.5 28 47.6 28 47.6 27.6 46.5" class="st6"/></g><rect width="1.3" height="2.5" x="27" y="43.6" class="st2"/><rect width="1.3" height="2.5" x="27" y="43.6" class="st2"/><g class="st3"><rect width="1.3" height="2.5" x="27" y="43.6" class="st2"/><polygon points="28.3 43.6 27 45.5 27.5 45.4 27.4 46 27.8 46.1 27.9 45.5 28.3 45.9" class="st6"/></g><rect width="1.5" height="3" x="28.6" y="39.4" class="st2"/><rect width="1.5" height="3" x="28.6" y="39.4" class="st2"/><g class="st3"><rect width="1.5" height="3" x="28.6" y="39.4" class="st2"/><polygon points="28.6 41.2 28.6 41.2 29.1 41.2 28.6 42.3 29 42.5 29.5 41.3 29.8 41.7 30 39.4" class="st6"/></g><rect width="1.4" height="1.3" x="30.6" y="37.1" class="st2"/><rect width="1.4" height="1.3" x="30.6" y="37.1" class="st2"/><g class="st3"><rect width="1.4" height="1.3" x="30.6" y="37.1" class="st2"/><polygon points="30.6 37.7 30.9 37.8 30.8 37.9 31 38.1 31.1 38 31.2 38.4 32 37.1" class="st6"/></g><rect width="1.2" height="2.1" x="32.2" y="36.6" class="st2"/><rect width="1.2" height="2.1" x="32.2" y="36.6" class="st2"/><g class="st3"><rect width="1.2" height="2.1" x="32.2" y="36.6" class="st2"/><polygon points="33 36.8 33 36.6 32.6 36.6 32.6 36.8 32.2 36.6 32.2 36.6 32.8 38.7 33.4 36.6" class="st6"/></g><rect width="1.3" height="2.7" x="32" y="39.6" class="st2"/><rect width="1.3" height="2.7" x="32" y="39.6" class="st2"/><g class="st3"><rect width="1.3" height="2.7" x="32" y="39.6" class="st2"/><polygon points="32.7 39.6 32.4 40.4 32.1 40 32 42.3 33.3 40.4 33.3 40.4 32.8 40.5 33.1 39.8" class="st6"/></g><rect width="1" height=".9" x="30.6" y="42.9" class="st2"/><rect width="1" height=".9" x="30.6" y="42.9" class="st2"/><g class="st3"><rect width="1" height=".9" x="30.6" y="42.9" class="st2"/><polygon points="31.2 43.8 31.2 43.6 31.3 43.7 31.5 43.5 31.4 43.4 31.6 43.3 30.6 42.9" class="st6"/></g><rect width="1.1" height="2" x="29.5" y="40.7" class="st2"/><rect width="1.1" height="2" x="29.5" y="40.7" class="st2"/><g class="st3"><rect width="1.1" height="2" x="29.5" y="40.7" class="st2"/><polygon points="30.4 40.7 29.5 42.5 29.9 42.4 29.8 42.6 30.2 42.6 30.3 42.5 30.6 42.7 30.6 42.7" class="st6"/></g><rect width=".4" height=".7" x="30.5" y="39.7" class="st2"/><rect width=".4" height=".7" x="30.5" y="39.7" class="st2"/><g class="st3"><rect width=".4" height=".7" x="30.5" y="39.7" class="st2"/><polygon points="30.8 39.8 30.8 39.8 30.6 39.8 30.7 39.9 30.5 39.9 30.9 40.4 30.9 39.7" class="st6"/></g><rect width="1.3" height="2.7" x="30.4" y="40.6" class="st2"/><rect width="1.3" height="2.7" x="30.4" y="40.6" class="st2"/><g class="st3"><rect width="1.3" height="2.7" x="30.4" y="40.6" class="st2"/><polygon points="30.9 40.6 30.8 41.4 30.4 41.1 30.7 43.4 31.7 41.3 31.2 41.4 31.3 40.7" class="st6"/></g><rect width="1.3" height="3.5" x="29.5" y="44.6" class="st2"/><rect width="1.3" height="3.5" x="29.5" y="44.6" class="st2"/><g class="st3"><rect width="1.3" height="3.5" x="29.5" y="44.6" class="st2"/><polygon points="29.9 46.1 29.5 45.8 29.6 48.1 30.8 46.1 30.8 46.1 30.3 46.2 30.7 44.7 30.3 44.6" class="st6"/></g><rect width="1.4" height="2.6" x="27.9" y="49.6" class="st2"/><rect width="1.4" height="2.6" x="27.9" y="49.6" class="st2"/><g class="st3"><rect width="1.4" height="2.6" x="27.9" y="49.6" class="st2"/><polygon points="28.7 49.6 28.4 50.3 28.1 50 27.9 52.3 29.3 50.5 28.8 50.5 29.1 49.8" class="st6"/></g><rect width="1.1" height=".7" x="26.2" y="53.1" class="st2"/><rect width="1.1" height=".7" x="26.2" y="53.1" class="st2"/><g class="st3"><rect width="1.1" height=".7" x="26.2" y="53.1" class="st2"/><polygon points="27 53.8 27 53.5 27.1 53.6 27.2 53.4 27.1 53.3 27.3 53.2 26.2 53.1" class="st6"/></g><rect width="1.3" height="2.7" x="24.9" y="50.3" class="st2"/><rect width="1.3" height="2.7" x="24.9" y="50.3" class="st2"/><g class="st3"><rect width="1.3" height="2.7" x="24.9" y="50.3" class="st2"/><polygon points="24.9 52.5 25.3 52.2 25.3 52.9 25.7 53 25.8 52.2 26.2 52.5 25.6 50.3" class="st6"/></g><rect width="1.4" height="5.1" x="25.4" y="43.9" class="st2"/><rect width="1.4" height="5.1" x="25.4" y="43.9" class="st2"/><g class="st3"><rect width="1.4" height="5.1" x="25.4" y="43.9" class="st2"/><polygon points="26.6 43.9 25.5 46 26 45.8 25.4 48.9 25.9 49 26.4 45.9 26.8 46.2 26.6 43.9" class="st6"/></g><rect width="2.1" height="4.8" x="27" y="36.8" class="st2"/><rect width="2.1" height="4.8" x="27" y="36.8" class="st2"/><g class="st3"><rect width="2.1" height="4.8" x="27" y="36.8" class="st2"/><polygon points="27.7 38.6 28.1 38.5 27 41.4 27.4 41.6 28.6 38.7 28.9 39.1 29.1 36.8" class="st6"/></g><rect width="1.3" height=".8" x="30.3" y="34.1" class="st2"/><rect width="1.3" height=".8" x="30.3" y="34.1" class="st2"/><g class="st3"><rect width="1.3" height=".8" x="30.3" y="34.1" class="st2"/><polygon points="30.5 34.4 30.4 34.4 30.4 34.6 30.5 34.7 30.3 34.9 30.4 34.9 31.7 34.7 30.5 34.1" class="st6"/></g><rect width="1.3" height="4.8" x="31.8" y="34.8" class="st2"/><rect width="1.3" height="4.8" x="31.8" y="34.8" class="st2"/><g class="st3"><rect width="1.3" height="4.8" x="31.8" y="34.8" class="st2"/><polygon points="32.3 34.8 32.2 37.6 31.8 37.3 32.3 39.6 33.1 37.4 33.1 37.4 32.6 37.6 32.8 34.8" class="st6"/></g><rect width="1.3" height="2.9" x="31.1" y="41.8" class="st2"/><rect width="1.3" height="2.9" x="31.1" y="41.8" class="st2"/><g class="st3"><rect width="1.3" height="2.9" x="31.1" y="41.8" class="st2"/><polygon points="31.6 42.8 31.2 42.4 31.1 44.7 31.1 44.7 32.5 42.8 32.5 42.8 32 42.9 32.3 41.9 31.9 41.8" class="st6"/></g><rect width="1.1" height=".6" x="29.5" y="45.8" class="st2"/><rect width="1.1" height=".6" x="29.5" y="45.8" class="st2"/><g class="st3"><rect width="1.1" height=".6" x="29.5" y="45.8" class="st2"/><polygon points="29.5 46.3 29.5 46.4 30.5 46.4 30.5 46.4 30.4 46.2 30.5 46.2 30.4 46 30.3 46 30.4 45.8" class="st6"/></g><rect width="1.3" height="3" x="28" y="43.5" class="st2"/><rect width="1.3" height="3" x="28" y="43.5" class="st2"/><g class="st3"><rect width="1.3" height="3" x="28" y="43.5" class="st2"/><polygon points="28.3 43.5 28 45.8 28 45.8 28.4 45.5 28.5 46.5 29 46.5 28.8 45.4 29.3 45.6 29.3 45.6" class="st6"/></g><rect width=".7" height="1.2" x="27.7" y="42" class="st2"/><rect width=".7" height="1.2" x="27.7" y="42" class="st2"/><g class="st3"><rect width=".7" height="1.2" x="27.7" y="42" class="st2"/><polygon points="28.1 42.2 28.1 42 27.9 42 27.9 42.2 27.7 42.1 28.1 43.2 28.3 42 28.3 42" class="st6"/></g><rect width=".6" height=".7" x="27.6" y="43.6" class="st2"/><rect width=".6" height=".7" x="27.6" y="43.6" class="st2"/><g class="st3"><rect width=".6" height=".7" x="27.6" y="43.6" class="st2"/><polygon points="27.9 43.6 27.6 44.2 28.3 43.9 28.1 43.8 28.2 43.8 28.1 43.7 28 43.7" class="st6"/></g><rect width="1" height=".7" x="27.2" y="44" class="st2"/><rect width="1" height=".7" x="27.2" y="44" class="st2"/><g class="st3"><rect width="1" height=".7" x="27.2" y="44" class="st2"/><polygon points="28.2 44 27.2 44.2 27.4 44.4 27.3 44.4 27.4 44.6 27.5 44.5 27.5 44.8" class="st6"/></g><rect width=".4" height=".4" x="28.5" y="43.6" class="st2"/><rect width=".4" height=".4" x="28.5" y="43.6" class="st2"/><g class="st3"><rect width=".4" height=".4" x="28.5" y="43.6" class="st2"/><path d="M28.5,43.8l0.1-0.2L28.5,43.8z M28.6,43.6l-0.1,0.2l0.2,0.2l0.2-0.1l0.1-0.2l0,0l-0.2-0.2L28.6,43.6L28.6,43.6 L28.6,43.6z" class="st6"/></g><rect width="1.3" height="3.1" x="27.5" y="43.3" class="st2"/><rect width="1.3" height="3.1" x="27.5" y="43.3" class="st2"/><g class="st3"><rect width="1.3" height="3.1" x="27.5" y="43.3" class="st2"/><polygon points="27.9 44.4 27.5 44.2 27.9 46.4 28.8 44.3 28.3 44.5 28.5 43.4 28 43.3" class="st6"/></g><rect width="1.4" height="2.5" x="26.8" y="47.8" class="st2"/><rect width="1.4" height="2.5" x="26.8" y="47.8" class="st2"/><g class="st3"><rect width="1.4" height="2.5" x="26.8" y="47.8" class="st2"/><polygon points="27.5 47.8 27.3 48.4 26.9 48 26.8 50.3 28.2 48.5 27.7 48.5 27.9 48" class="st6"/></g><rect width=".7" height=".6" x="25.6" y="51.1" class="st2"/><rect width=".7" height=".6" x="25.6" y="51.1" class="st2"/><g class="st3"><rect width=".7" height=".6" x="25.6" y="51.1" class="st2"/><polygon points="25.6 51.1 26 51.6 26 51.5 26.1 51.5 26.1 51.4 26.1 51.4 26.2 51.3 25.6 51.1" class="st6"/></g><rect width="1.5" height="6" x="25" y="44.9" class="st2"/><rect width="1.5" height="6" x="25" y="44.9" class="st2"/><g class="st3"><rect width="1.5" height="6" x="25" y="44.9" class="st2"/><polygon points="26.2 44.9 25.2 47 25.6 46.8 25 50.8 25.4 50.9 25.4 50.9 26.1 46.9 26.5 47.2 26.2 44.9" class="st6"/></g><rect width="1.8" height="5.6" x="26.7" y="36.5" class="st2"/><rect width="1.8" height="5.6" x="26.7" y="36.5" class="st2"/><g class="st3"><rect width="1.8" height="5.6" x="26.7" y="36.5" class="st2"/><polygon points="28.4 36.5 27.2 38.5 27.7 38.4 26.7 42 27.1 42.1 27.1 42.1 28.1 38.5 28.4 38.8 28.4 38.8" class="st6"/></g><rect width="1.3" height="3.1" x="28.9" y="33.9" class="st2"/><rect width="1.3" height="3.1" x="28.9" y="33.9" class="st2"/><g class="st3"><rect width="1.3" height="3.1" x="28.9" y="33.9" class="st2"/><polygon points="29.7 33.9 29.3 33.9 29.4 35 28.9 34.9 29.8 37 30.2 34.7 29.8 35" class="st6"/></g><rect width=".4" height=".4" x="29.8" y="38.3" class="st2"/><rect width=".4" height=".4" x="29.8" y="38.3" class="st2"/><g class="st3"><rect width=".4" height=".4" x="29.8" y="38.3" class="st2"/><polygon points="29.9 38.3 29.8 38.5 29.9 38.7 30.1 38.7 30.2 38.5 30.2 38.5 30.1 38.3" class="st6"/></g><rect width="1.1" height=".9" x="30.2" y="37.4" class="st2"/><rect width="1.1" height=".9" x="30.2" y="37.4" class="st2"/><g class="st3"><rect width="1.1" height=".9" x="30.2" y="37.4" class="st2"/><polygon points="30.2 37.7 30.4 37.9 30.3 37.9 30.4 38.1 30.5 38 30.5 38.3 30.5 38.3 31.3 37.4" class="st6"/></g><rect width="1.4" height="3.8" x="30.7" y="37.1" class="st2"/><rect width="1.4" height="3.8" x="30.7" y="37.1" class="st2"/><g class="st3"><rect width="1.4" height="3.8" x="30.7" y="37.1" class="st2"/><polygon points="31.1 38.9 30.8 38.5 30.7 40.8 32 39 31.5 39 32.1 37.2 31.7 37.1" class="st6"/></g><rect width="1.4" height="3.4" x="28.7" y="42.5" class="st2"/><rect width="1.4" height="3.4" x="28.7" y="42.5" class="st2"/><g class="st3"><rect width="1.4" height="3.4" x="28.7" y="42.5" class="st2"/><polygon points="29.6 42.5 29.1 44 28.8 43.7 28.7 46 30 44.1 29.5 44.2 30 42.7" class="st6"/></g><rect width="1.2" height="1.6" x="27.1" y="47.3" class="st2"/><rect width="1.2" height="1.6" x="27.1" y="47.3" class="st2"/><g class="st3"><rect width="1.2" height="1.6" x="27.1" y="47.3" class="st2"/><polygon points="27.4 47.3 27.1 48.9 28.3 47.8 27.9 47.8 28 47.6 27.7 47.5 27.6 47.6 27.5 47.3" class="st6"/></g><rect width="1.1" height="1.1" x="25.7" y="49.3" class="st2"/><rect width="1.1" height="1.1" x="25.7" y="49.3" class="st2"/><g class="st3"><rect width="1.1" height="1.1" x="25.7" y="49.3" class="st2"/><polygon points="26.3 49.3 25.7 50.4 25.7 50.4 26.8 49.8 26.5 49.8 26.6 49.7 26.4 49.5 26.4 49.6" class="st6"/></g><rect width=".4" height=".4" x="24.9" y="50.7" class="st2"/><rect width=".4" height=".4" x="24.9" y="50.7" class="st2"/><g class="st3"><rect width=".4" height=".4" x="24.9" y="50.7" class="st2"/><polygon points="25 50.7 24.9 50.8 25 51 25.2 51 25.3 50.8 25.2 50.7" class="st6"/></g><rect width="1.3" height="2.8" x="24.5" y="48.2" class="st2"/><rect width="1.3" height="2.8" x="24.5" y="48.2" class="st2"/><g class="st3"><rect width="1.3" height="2.8" x="24.5" y="48.2" class="st2"/><polygon points="25.6 48.2 24.5 50.2 25 50.1 24.8 50.9 25.3 51 25.4 50.2 25.8 50.5" class="st6"/></g><rect width="1.7" height="4.7" x="25.7" y="42.3" class="st2"/><rect width="1.7" height="4.7" x="25.7" y="42.3" class="st2"/><g class="st3"><rect width="1.7" height="4.7" x="25.7" y="42.3" class="st2"/><polygon points="26.1 44.2 26.6 44.1 25.7 46.8 26.1 47 26.1 47 27 44.2 27.4 44.6 27.4 42.3" class="st6"/></g><rect width="1.3" height="2.8" x="28" y="40" class="st2"/><rect width="1.3" height="2.8" x="28" y="40" class="st2"/><g class="st3"><rect width="1.3" height="2.8" x="28" y="40" class="st2"/><polygon points="28.7 40 28.3 40.1 28.4 41 28 40.8 29.1 42.9 29.3 40.6 28.9 40.9" class="st6"/></g><rect width="1.1" height="1.7" x="28.9" y="44" class="st2"/><rect width="1.1" height="1.7" x="28.9" y="44" class="st2"/><g class="st3"><rect width="1.1" height="1.7" x="28.9" y="44" class="st2"/><polygon points="29 44 28.9 45.7 29.9 44.4 29.6 44.4 29.6 44.3 29.3 44.1 29.2 44.3" class="st6"/></g><rect width=".4" height=".4" x="28.2" y="46.2" class="st2"/><rect width=".4" height=".4" x="28.2" y="46.2" class="st2"/><g class="st3"><rect width=".4" height=".4" x="28.2" y="46.2" class="st2"/><path d="M28.3,46.7l0.2,0L28.3,46.7z M28.5,46.2l-0.2,0l-0.1,0.2l0.1,0.2l0.2,0l0.1-0.2L28.5,46.2L28.5,46.2z" class="st6"/></g><rect width="1.3" height="3" x="27.4" y="43.8" class="st2"/><rect width="1.3" height="3" x="27.4" y="43.8" class="st2"/><g class="st3"><rect width="1.3" height="3" x="27.4" y="43.8" class="st2"/><polygon points="27.5 43.8 27.4 46.2 27.7 45.8 28 46.9 28.4 46.8 28.2 45.7 28.7 45.8" class="st6"/></g><rect width="1.3" height="2.6" x="26.3" y="42.4" class="st2"/><rect width="1.3" height="2.6" x="26.3" y="42.4" class="st2"/><g class="st3"><rect width="1.3" height="2.6" x="26.3" y="42.4" class="st2"/><polygon points="27.2 42.4 26.8 42.4 26.8 43 26.3 42.8 27 45 27.7 42.8 27.7 42.8 27.2 43" class="st6"/></g><rect width="1.7" height="7.3" x="26.8" y="39" class="st2"/><rect width="1.7" height="7.3" x="26.8" y="39" class="st2"/><g class="st3"><rect width="1.7" height="7.3" x="26.8" y="39" class="st2"/><polygon points="28.2 39 27.2 41.1 27.7 41 26.8 46.2 27.3 46.3 28.1 41 28.5 41.3" class="st6"/></g><rect width="1.3" height="1.5" x="28.7" y="34.3" class="st2"/><rect width="1.3" height="1.5" x="28.7" y="34.3" class="st2"/><g class="st3"><rect width="1.3" height="1.5" x="28.7" y="34.3" class="st2"/><polygon points="28.7 35.3 28.7 35.3 29 35.4 28.9 35.5 29.2 35.7 29.3 35.6 29.4 35.9 30 34.3" class="st6"/></g><rect width="3" height="5.5" x="30.4" y="28.3" class="st2"/><rect width="3" height="5.5" x="30.4" y="28.3" class="st2"/><g class="st3"><rect width="3" height="5.5" x="30.4" y="28.3" class="st2"/><polygon points="33.4 28.3 31.8 30 32.3 30 30.4 33.6 30.8 33.8 32.7 30.2 33 30.6" class="st6"/></g><rect width="1.6" height="2.2" x="34.8" y="25.5" class="st2"/><rect width="1.6" height="2.2" x="34.8" y="25.5" class="st2"/><g class="st3"><rect width="1.6" height="2.2" x="34.8" y="25.5" class="st2"/><polygon points="35.6 25.9 35.5 25.6 35.1 25.9 35.3 26.1 34.8 26.1 36.4 27.7 36.4 27.7 35.9 25.5" class="st6"/></g><rect width="2.1" height="7" x="35.3" y="28.6" class="st2"/><rect width="2.1" height="7" x="35.3" y="28.6" class="st2"/><g class="st3"><rect width="2.1" height="7" x="35.3" y="28.6" class="st2"/><polygon points="36.9 28.6 35.6 33.6 35.3 33.3 35.3 35.6 36.5 33.6 36.1 33.7 37.4 28.7" class="st6"/></g><rect width="1.8" height="5.6" x="32.5" y="38.9" class="st2"/><rect width="1.8" height="5.6" x="32.5" y="38.9" class="st2"/><g class="st3"><rect width="1.8" height="5.6" x="32.5" y="38.9" class="st2"/><polygon points="33.8 38.9 32.8 42.5 32.5 42.2 32.5 44.5 32.5 44.5 33.8 42.5 33.3 42.6 34.3 39 33.9 38.9" class="st6"/></g><rect width="1.4" height="3.1" x="30.3" y="47.1" class="st2"/><rect width="1.4" height="3.1" x="30.3" y="47.1" class="st2"/><g class="st3"><rect width="1.4" height="3.1" x="30.3" y="47.1" class="st2"/><polygon points="31.3 47.1 30.8 48.2 30.5 47.9 30.3 50.2 31.7 48.3 31.2 48.4 31.7 47.2" class="st6"/></g><rect width="1.8" height="2.9" x="27.9" y="51.5" class="st2"/><rect width="1.8" height="2.9" x="27.9" y="51.5" class="st2"/><g class="st3"><rect width="1.8" height="2.9" x="27.9" y="51.5" class="st2"/><polygon points="29.3 51.5 28.7 52.6 28.4 52.2 27.9 54.4 27.9 54.4 29.6 52.8 29.1 52.8 29.7 51.7" class="st6"/></g><rect width="1.3" height="1.4" x="25.8" y="55.5" class="st2"/><rect width="1.3" height="1.4" x="25.8" y="55.5" class="st2"/><g class="st3"><rect width="1.3" height="1.4" x="25.8" y="55.5" class="st2"/><polygon points="25.8 56.9 27.1 56 26.8 56 26.9 55.8 26.7 55.7 26.6 55.8 26.4 55.5" class="st6"/></g><rect width="6.6" height="20.3" x="24.9" y="37.2" class="st2"/><rect width="6.6" height="20.3" x="24.9" y="37.2" class="st2"/><g class="st3"><rect width="6.6" height="20.3" x="24.9" y="37.2" class="st2"/><polygon points="30.2 39.1 30.7 39 24.9 57.3 25.3 57.5 25.3 57.5 31.1 39.1 31.5 39.5 31.5 37.2 31.5 37.2" class="st6"/></g><rect width="2.3" height="3.4" x="33.9" y="27.4" class="st2"/><rect width="2.3" height="3.4" x="33.9" y="27.4" class="st2"/><g class="st3"><rect width="2.3" height="3.4" x="33.9" y="27.4" class="st2"/><polygon points="35.8 27.4 34.8 29 34.5 28.6 33.9 30.8 33.9 30.8 35.6 29.3 35.1 29.2 36.2 27.6" class="st6"/></g><rect width="2.2" height="3.2" x="32.2" y="29.4" class="st2"/><rect width="2.2" height="3.2" x="32.2" y="29.4" class="st2"/><g class="st3"><rect width="2.2" height="3.2" x="32.2" y="29.4" class="st2"/><polygon points="32.6 30.8 33.1 30.9 32.2 32.3 32.2 32.3 32.6 32.5 32.6 32.5 33.5 31.1 33.7 31.5 34.4 29.4 34.4 29.4" class="st6"/></g><rect width="7.2" height="10.4" x="35.7" y="17.6" class="st2"/><rect width="7.2" height="10.4" x="35.7" y="17.6" class="st2"/><g class="st3"><rect width="7.2" height="10.4" x="35.7" y="17.6" class="st2"/><polygon points="42.9 17.6 41.1 19.1 41.6 19.1 35.7 27.8 36 28 41.9 19.4 42.2 19.8" class="st6"/></g><rect width="2.7" height="8.6" x="45.3" y="12.6" class="st2"/><rect width="2.7" height="8.6" x="45.3" y="12.6" class="st2"/><g class="st3"><rect width="2.7" height="8.6" x="45.3" y="12.6" class="st2"/><polygon points="47.6 12.6 45.7 19.3 45.3 19 45.4 21.2 46.6 19.3 46.1 19.4 48 12.8" class="st6"/></g><rect width="2.4" height="7.4" x="41.4" y="25.3" class="st2"/><rect width="2.4" height="7.4" x="41.4" y="25.3" class="st2"/><g class="st3"><rect width="2.4" height="7.4" x="41.4" y="25.3" class="st2"/><polygon points="41.8 30.8 41.4 30.4 41.4 32.7 42.7 30.8 42.2 30.9 43.8 25.4 43.4 25.3" class="st6"/></g><rect width="2.4" height="4" x="37.7" y="36.1" class="st2"/><rect width="2.4" height="4" x="37.7" y="36.1" class="st2"/><g class="st3"><rect width="2.4" height="4" x="37.7" y="36.1" class="st2"/><polygon points="39.7 36.1 38.5 38.3 38.2 37.9 37.7 40.1 39.3 38.5 38.8 38.5 40 36.3" class="st6"/></g><rect width="3.6" height="14.3" x="35.9" y="27.8" class="st2"/><rect width="3.6" height="14.3" x="35.9" y="27.8" class="st2"/><g class="st3"><rect width="3.6" height="14.3" x="35.9" y="27.8" class="st2"/><polygon points="38.3 29.8 38.7 29.6 35.9 42 36.4 42 39.2 29.7 39.5 30 39.4 27.8" class="st6"/></g><rect width="2.1" height="5.9" x="39.8" y="20.9" class="st2"/><rect width="2.1" height="5.9" x="39.8" y="20.9" class="st2"/><g class="st3"><rect width="2.1" height="5.9" x="39.8" y="20.9" class="st2"/><polygon points="41.5 20.9 40.2 24.8 39.8 24.4 39.8 26.7 39.8 26.7 41.1 24.8 40.6 24.9 41.9 21 41.5 20.9" class="st6"/></g><rect width="2.4" height="7.8" x="36.2" y="29.4" class="st2"/><rect width="2.4" height="7.8" x="36.2" y="29.4" class="st2"/><g class="st3"><rect width="2.4" height="7.8" x="36.2" y="29.4" class="st2"/><polygon points="38.2 29.4 36.6 35.2 36.2 34.9 36.3 37.2 37.5 35.3 37 35.4 38.6 29.5" class="st6"/></g><path d="M54.3,58.4c0.4,0,0.9-0.2,1.2-0.5s0.5-0.7,0.5-1.2s-0.2-0.9-0.5-1.2c-0.3-0.3-0.7-0.5-1.2-0.5s-0.9,0.2-1.2,0.5	c-0.3,0.3-0.5,0.7-0.5,1.2s0.2,0.9,0.5,1.2C53.4,58.2,53.9,58.4,54.3,58.4"/><path d="M54.3,58.4c0.4,0,0.9-0.2,1.2-0.5s0.5-0.7,0.5-1.2s-0.2-0.9-0.5-1.2c-0.3-0.3-0.7-0.5-1.2-0.5s-0.9,0.2-1.2,0.5	c-0.3,0.3-0.5,0.7-0.5,1.2s0.2,0.9,0.5,1.2C53.4,58.2,53.9,58.4,54.3,58.4z" class="st7"/><path d="M32.4,38.5l4.7,4.7 M32.4,43.3l4.7-4.7"/><path d="M32.4,38.5l4.7,4.7 M32.4,43.3l4.7-4.7" class="st8"/><rect width="50.4" height="52.7" x="23.3" y="12.6" class="st2"/><rect width="50.4" height="52.7" x="23.3" y="12.6" class="st2"/><g class="st9"><rect width="50.4" height="52.7" x="23.3" y="12.6" class="st2"/><rect width="50.4" height="52.7" x="23.3" y="12.6" class="st2"/><polyline points="54.3 56.7 56.5 56.1 57.2 57.4 56.4 60.5 48.6 63.1 49.3 62.1 47.9 63.6 47.7 63.4 48.8 64.7 48.5 64.9 50.8 65.1 49.9 65.1 54.3 64.8 54.6 65 60.2 64 61.9 64.2 67.2 63.2 68.7 63.2 71.4 62.7 72.4 61.8 73.1 61.3 73.5 59.9 73 57.7 72.5 55.5 70.3 53.9 68.4 53.7 64.6 54.6 60.6 55.6 54.9 54.1 48.5 51.6 43 48.5 39.8 47.3 38.3 47.2 37.4 48 35.4 50.2 32.8 52.3 30.6 54.3 28.4 55.1 27.2 55.2 26.4 56.2 25.4 58.1 23.8 63.2 23.9 63.3 23.8 64.3 23.8 64.4 23.8 64.4 24.7 64.2 26.1 63.8 32.2 61.7 36.9 60.5 42 59.6 46.8 59.5 50.7 59.8 53.6 60.3 55.7 60.6 57.7 60.4 59.6 59.8 61.4 59.4 63.2 59.5 64.9 59.9 66.4 59.9 67.7 59.4 68.5 57.7 68.8 55.3 68.1 52.5 66.8 51.3 62.7 52.3 59.5 52.6 54.8 53.3 48.9 53 42.8 51.7 38.2 50.1 35.6 48 34.4 46.9 33.5 48.9 31.4 52.1 29.1 55.2 27 57 25 57.5 24.7 57.8 24.5 58.7 24.1 60.6 23.4 63.1 23.6 63.6 23.6 64 23.6 64.4 23.7 64.4 24.7 64.2 32.7 61.5 37.5 60.3 42.6 59.6 47.3 59.5 51 59.8 53.8 60.4 55.8 60.6 57.8 60.3 59.8 59.7 61.6 59.4 63.3 59.5 66.5 60.2 67.8 59.8 68.8 58.2 69.1 55.7 68.3 51.7 66.6 49.5 63.8 48.7 60.6 48.9 55.9 49.4 50.2 49.5 43.5 49.6 37.8 50 34.3 49.7 32.8 48.5 32.4 46.1 31.3 46.7 29.5 48.9 27.7 50.3 27 49.6 27.4 47.5 28.4 46.9 28.2 47.5 27.6 47.7 27.6 46 28.8 42.4 30.9 38 32.8 36.6 32.9 39.7 31.4 43.6 30 42.6 30.7 39.8 31.1 40.7 30.5 44.7 28.9 49.7 27.1 53.5 25.5 52.9 25.6 49 27.2 41.5 30.4 34.5 32.5 34.8 32.1 41.8 30.4 46.1 28.8 46.5 28 42 28.1 43.7 27.3 44.5 28.7 43.8 28.2 43.4 27.7 47.9 26.1 51.5 25.2 50.9 26.9 42 29.5 33.9 30 38.5 30.4 38 31.9 37.1 27.9 47.5 26.5 49.6 25.1 50.9 25.9 46.9 28.5 40.1 29.5 44.2 28.2 46.8 27 42.4 27 46.3 29 35.6 30.6 33.7 35.3 25.8 37.2 28.7 34.1 38.9 31.5 47.2 29.5 51.6 26.8 55.8 25.1 57.4 36 27.5 32.4 32.4 35.8 27.9 47.8 12.7 43.6 25.3 39.9 36.2 36.1 42 41.7 20.9 38.4 29.5 34.7 40.9" class="st10"/></g><path d="M5,1.1L4.5,1.5c-0.4-0.6-1-0.9-1.8-0.9c-0.6,0-1.1,0.2-1.5,0.6C0.8,1.6,0.6,2,0.6,2.6s0.2,1,0.6,1.4	c0.4,0.4,0.9,0.6,1.5,0.6c0.7,0,1.3-0.3,1.8-0.9L5,4.1C4.8,4.5,4.5,4.7,4,4.9S3.2,5.2,2.7,5.2C1.9,5.2,1.3,5,0.8,4.5	C0.3,4,0,3.4,0,2.6s0.3-1.4,0.8-1.9C1.3,0.3,2,0,2.8,0c0.5,0,0.9,0.1,1.3,0.3C4.5,0.5,4.8,0.8,5,1.1L5,1.1L5,1.1z"/><path d="M16.4,14.3L16.4,14.3l0.1,2.8H17v0.4h-0.5v0.9h-0.4v-0.9h-1.9L16.4,14.3L16.4,14.3L16.4,14.3z M16.1,17.1v-1.6l-1.2,1.6	H16.1z"/><path d="M15,31.4h-0.4c0-0.4,0.1-0.7,0.4-1s0.6-0.4,0.9-0.4s0.6,0.1,0.9,0.3c0.2,0.2,0.4,0.5,0.4,0.8c0,0.2-0.1,0.5-0.2,0.7	c-0.1,0.2-0.3,0.5-0.6,0.7l-1,1.1h1.8v0.4h-2.7l1.5-1.6c0.3-0.3,0.4-0.5,0.6-0.7c0.1-0.2,0.2-0.4,0.2-0.6s-0.1-0.4-0.2-0.6	s-0.4-0.2-0.6-0.2s-0.4,0.1-0.6,0.2S15.1,31.1,15,31.4L15,31.4L15,31.4z"/><path d="M15.2,50c-0.4,0-0.8-0.2-1-0.5s-0.3-0.9-0.3-1.5s0.1-1.2,0.3-1.5c0.2-0.3,0.6-0.5,1-0.5s0.8,0.2,1,0.5	c0.2,0.4,0.4,0.9,0.4,1.5s-0.1,1.2-0.4,1.5S15.6,50,15.2,50z M15.2,46.2c-0.3,0-0.5,0.2-0.7,0.4c-0.2,0.3-0.2,0.7-0.2,1.3	c0,1.1,0.3,1.7,1,1.7c0.3,0,0.6-0.2,0.7-0.5s0.3-0.7,0.3-1.3s-0.1-1-0.3-1.3C15.7,46.4,15.5,46.2,15.2,46.2L15.2,46.2L15.2,46.2z"/><path d="M14.3,63.9h-2.8v-0.3h2.8V63.9z"/><path d="M14.9,63h-0.4c0-0.4,0.1-0.7,0.4-1s0.6-0.4,0.9-0.4s0.6,0.1,0.9,0.3c0.2,0.2,0.4,0.5,0.4,0.8c0,0.2-0.1,0.5-0.2,0.7	c-0.1,0.2-0.3,0.5-0.6,0.7l-1,1.1h1.8v0.4h-2.7l1.5-1.6c0.3-0.3,0.4-0.5,0.6-0.7c0.1-0.2,0.2-0.3,0.2-0.6s-0.1-0.4-0.2-0.6	S16.1,62,15.8,62s-0.4,0.1-0.6,0.2S14.9,62.6,14.9,63L14.9,63L14.9,63z"/><path d="M21,81.6h0.9c0.6,0,0.9,0,1.1,0.1s0.3,0.1,0.5,0.2s0.2,0.2,0.3,0.4s0.1,0.3,0.1,0.5c0,0.3-0.1,0.6-0.3,0.8	c-0.2,0.2-0.4,0.3-0.6,0.4c-0.3,0.1-0.7,0.1-1.2,0.1h-0.3v2.2H21C21,86.3,21,81.6,21,81.6z M21.5,82v1.6h0.8c0.5,0,0.8-0.1,0.9-0.2	s0.2-0.3,0.2-0.6c0-0.5-0.4-0.8-1.1-0.8L21.5,82L21.5,82L21.5,82z"/><path d="M29.2,82.4l-0.4,0.3c-0.4-0.5-1-0.8-1.7-0.8c-0.6,0-1,0.2-1.4,0.6s-0.6,0.9-0.6,1.4s0.2,1,0.6,1.4s0.9,0.6,1.5,0.6	c0.7,0,1.2-0.3,1.6-0.8l0.4,0.3c-0.2,0.3-0.5,0.5-0.9,0.7c-0.4,0.2-0.7,0.2-1.2,0.2c-0.7,0-1.4-0.2-1.8-0.7	c-0.5-0.5-0.7-1.1-0.7-1.8c0-0.4,0.1-0.8,0.3-1.2c0.2-0.4,0.5-0.7,0.9-0.9s0.8-0.3,1.2-0.3s0.9,0.1,1.2,0.2S29,82.1,29.2,82.4	L29.2,82.4L29.2,82.4z"/><path d="M30.8,81.6h0.9v4.7h-0.5V82h-0.7L30.8,81.6L30.8,81.6L30.8,81.6z"/><path d="M36.3,81.2h0.5c-0.2,0.4-0.4,1-0.5,1.5s-0.2,1.1-0.2,1.7c0,1.1,0.2,2.1,0.5,3h-0.5c-0.3-0.8-0.5-1.8-0.5-2.9	C35.6,83.3,35.8,82.2,36.3,81.2L36.3,81.2L36.3,81.2z"/><path d="M37.4,81.6h0.5l1.6,3.7l1.6-3.7h0.5l-2,4.8h-0.1L37.4,81.6z"/><path d="M45.5,82.8v3.4H45v-0.6c-0.4,0.5-0.8,0.7-1.4,0.7s-0.9-0.2-1.3-0.5s-0.5-0.8-0.5-1.3s0.2-0.9,0.5-1.3s0.8-0.5,1.3-0.5	c0.6,0,1,0.2,1.4,0.7v-0.6H45.5L45.5,82.8L45.5,82.8z M45.1,84.5c0-0.4-0.1-0.7-0.4-1c-0.3-0.3-0.6-0.4-1-0.4s-0.7,0.1-1,0.4	s-0.4,0.6-0.4,1s0.1,0.7,0.4,1c0.3,0.3,0.6,0.4,1,0.4s0.7-0.1,1-0.4C44.9,85.3,45,84.9,45.1,84.5L45.1,84.5L45.1,84.5z"/><path d="M46.3,82.8h0.5v0.5c0.1-0.2,0.2-0.3,0.4-0.4s0.2-0.1,0.4-0.1s0.3,0,0.4,0.1l-0.2,0.4c-0.1,0-0.1-0.1-0.2-0.1	c-0.1,0-0.3,0.1-0.4,0.2c-0.1,0.1-0.2,0.3-0.3,0.5c-0.1,0.2-0.1,0.6-0.1,1.2v1.2h-0.5L46.3,82.8L46.3,82.8L46.3,82.8z"/><path d="M48.5,81.6h2.7V82H49v1.5h2.2V84H49v1.8h2.2v0.5h-2.7L48.5,81.6L48.5,81.6L48.5,81.6z"/><path d="M53,84.8l-1,1.4h-0.5l1.3-1.8l-1.1-1.6h0.5l0.9,1.2l0.9-1.2h0.5l-1.1,1.6l1.3,1.8H54L53,84.8L53,84.8L53,84.8z"/><path d="M55.1,82.8h0.4v0.6c0.4-0.5,0.8-0.7,1.4-0.7c0.5,0,0.9,0.2,1.3,0.5c0.4,0.4,0.5,0.8,0.5,1.3s-0.2,0.9-0.5,1.3	s-0.8,0.5-1.2,0.5c-0.5,0-1-0.2-1.4-0.7v1.8h-0.4L55.1,82.8L55.1,82.8L55.1,82.8z M58.2,84.5c0-0.4-0.1-0.7-0.4-1s-0.6-0.4-1-0.4	s-0.7,0.1-1,0.4c-0.3,0.3-0.4,0.6-0.4,1s0.1,0.7,0.4,1c0.3,0.3,0.6,0.4,1,0.4s0.7-0.1,1-0.4S58.2,84.9,58.2,84.5L58.2,84.5	L58.2,84.5z"/><path d="M59.6,83.1c0-0.1,0-0.2,0.1-0.3s0.2-0.1,0.3-0.1s0.2,0,0.3,0.1c0.1,0.1,0.1,0.2,0.1,0.3s0,0.2-0.1,0.3s-0.2,0.1-0.3,0.1	s-0.2,0-0.3-0.1C59.6,83.3,59.6,83.2,59.6,83.1L59.6,83.1L59.6,83.1z M59.6,85.9c0-0.1,0-0.2,0.1-0.3s0.2-0.1,0.3-0.1s0.2,0,0.3,0.1	c0.1,0.1,0.1,0.2,0.1,0.3s0,0.2-0.1,0.3c-0.1,0.1-0.2,0.1-0.3,0.1s-0.2,0-0.3-0.1S59.6,86,59.6,85.9L59.6,85.9L59.6,85.9z"/><path d="M64.2,86.4c-0.5,0-0.9-0.2-1.2-0.6s-0.4-1-0.4-1.8s0.1-1.4,0.4-1.8s0.7-0.6,1.1-0.6s0.9,0.2,1.2,0.6c0.3,0.4,0.4,1,0.4,1.8	s-0.1,1.4-0.4,1.8C65.1,86.2,64.7,86.4,64.2,86.4L64.2,86.4L64.2,86.4z M64.2,81.9c-0.4,0-0.6,0.2-0.8,0.5s-0.3,0.8-0.3,1.5	c0,1.3,0.4,2,1.1,2c0.4,0,0.7-0.2,0.9-0.5c0.2-0.3,0.3-0.8,0.3-1.5s-0.1-1.1-0.3-1.5S64.6,81.9,64.2,81.9L64.2,81.9L64.2,81.9z"/><path d="M66.3,85.9c0-0.1,0-0.2,0.1-0.3s0.2-0.1,0.3-0.1s0.2,0,0.3,0.1c0.1,0.1,0.1,0.2,0.1,0.3s0,0.2-0.1,0.3	c-0.1,0.1-0.2,0.1-0.3,0.1s-0.2,0-0.3-0.1S66.3,86,66.3,85.9L66.3,85.9L66.3,85.9z"/><path d="M70,81.5L70,81.5l0.1,3.2h0.6v0.4h-0.6v1.1h-0.5v-1.1h-2.2L70,81.5L70,81.5L70,81.5z M69.7,84.7v-1.9l-1.4,1.9H69.7z"/><path d="M72.6,86.4c-0.5,0-0.9-0.2-1.2-0.6s-0.4-1-0.4-1.8s0.1-1.4,0.4-1.8s0.7-0.6,1.1-0.6s0.9,0.2,1.2,0.6c0.3,0.4,0.4,1,0.4,1.8	s-0.1,1.4-0.4,1.8C73.5,86.2,73.1,86.4,72.6,86.4L72.6,86.4L72.6,86.4z M72.6,81.9c-0.4,0-0.6,0.2-0.8,0.5s-0.3,0.8-0.3,1.5	c0,1.3,0.4,2,1.1,2c0.4,0,0.7-0.2,0.9-0.5c0.2-0.3,0.3-0.8,0.3-1.5s-0.1-1.1-0.3-1.5S73,81.9,72.6,81.9L72.6,81.9L72.6,81.9z"/><path d="M75.3,81.2c0.4,1,0.6,2.1,0.6,3.3c0,1.1-0.2,2.1-0.5,2.9H75c0.4-0.9,0.5-1.8,0.5-3c0-0.6-0.1-1.2-0.2-1.7s-0.3-1.1-0.5-1.5	H75.3L75.3,81.2L75.3,81.2z"/><path d="M35.2,75.9c-0.4,0-0.8-0.2-1-0.5s-0.3-0.9-0.3-1.6s0.1-1.2,0.3-1.6c0.2-0.3,0.6-0.5,1-0.5s0.8,0.2,1,0.5	c0.2,0.4,0.4,0.9,0.4,1.5s-0.1,1.2-0.4,1.5S35.6,75.9,35.2,75.9z M35.2,72.1c-0.3,0-0.5,0.2-0.7,0.4c-0.2,0.3-0.2,0.7-0.2,1.3	c0,1.1,0.3,1.7,1,1.7c0.3,0,0.6-0.2,0.7-0.4s0.3-0.7,0.3-1.3s-0.1-1-0.3-1.3C35.8,72.3,35.5,72.1,35.2,72.1L35.2,72.1L35.2,72.1z"/><path d="M55.4,73.1H55c0-0.4,0.1-0.7,0.4-1s0.6-0.4,0.9-0.4s0.6,0.1,0.9,0.3c0.2,0.2,0.4,0.5,0.4,0.8c0,0.2-0.1,0.5-0.2,0.7	c-0.1,0.2-0.3,0.5-0.6,0.7l-1,1.1h1.8v0.4h-2.7l1.5-1.6c0.3-0.3,0.4-0.5,0.6-0.7c0.1-0.2,0.2-0.3,0.2-0.6s-0.1-0.4-0.2-0.6	c-0.2-0.2-0.4-0.2-0.6-0.2s-0.4,0.1-0.6,0.2S55.4,72.7,55.4,73.1L55.4,73.1L55.4,73.1z"/><path d="M58.3,75.5c0-0.1,0-0.2,0.1-0.2c0.1-0.1,0.1-0.1,0.2-0.1s0.2,0,0.2,0.1c0.1,0.1,0.1,0.1,0.1,0.2s0,0.2-0.1,0.2	c-0.1,0.1-0.1,0.1-0.2,0.1s-0.2,0-0.2-0.1C58.3,75.7,58.3,75.6,58.3,75.5L58.3,75.5L58.3,75.5z"/><path d="M61.9,71.8v0.4h-1.4l-0.2,1.1c0.2-0.1,0.3-0.1,0.5-0.1c0.3,0,0.6,0.1,0.9,0.4c0.2,0.2,0.4,0.6,0.4,0.9s-0.1,0.7-0.4,1	c-0.2,0.3-0.6,0.4-1,0.4c-0.3,0-0.6-0.1-0.8-0.3c-0.2-0.2-0.4-0.4-0.4-0.8h0.4c0.1,0.2,0.1,0.4,0.3,0.5c0.1,0.1,0.3,0.2,0.5,0.2	c0.3,0,0.5-0.1,0.7-0.3c0.2-0.2,0.3-0.4,0.3-0.7c0-0.3-0.1-0.5-0.2-0.7s-0.4-0.3-0.6-0.3s-0.6,0.1-0.9,0.2l0.4-2L61.9,71.8	L61.9,71.8z"/><path d="M0.7,66.4v-0.9c0-0.6,0-0.9,0.1-1.1S0.8,64.1,1,64s0.2-0.2,0.4-0.3s0.3-0.1,0.5-0.1c0.3,0,0.6,0.1,0.8,0.3	C2.9,64,3,64.2,3.1,64.4c0.1,0.3,0.1,0.7,0.1,1.2V66h2.2v0.5H0.7L0.7,66.4L0.7,66.4z M1.1,66h1.6v-0.8c0-0.5-0.1-0.8-0.2-0.9	S2.1,64,1.9,64c-0.5,0-0.8,0.4-0.8,1.1L1.1,66L1.1,66L1.1,66z"/><path d="M1.5,58.2l0.3,0.4C1.3,59,1,59.6,1,60.3c0,0.6,0.2,1,0.6,1.4s0.9,0.6,1.4,0.6s1-0.2,1.4-0.6S5,60.8,5,60.2	c0-0.7-0.3-1.2-0.8-1.7l0.3-0.4c0.3,0.2,0.5,0.5,0.7,0.9c0.2,0.3,0.2,0.7,0.2,1.2c0,0.7-0.2,1.3-0.7,1.8S3.7,62.8,3,62.8	c-0.4,0-0.9-0.1-1.2-0.3c-0.4-0.2-0.7-0.5-0.9-0.9s-0.3-0.8-0.3-1.2s0.1-0.8,0.2-1.2S1.2,58.5,1.5,58.2L1.5,58.2L1.5,58.2z"/><path d="M2.1,57.1v0.5c-0.5,0-0.9-0.2-1.1-0.5S0.6,56.5,0.6,56s0.1-0.8,0.4-1s0.6-0.4,1-0.4c0.3,0,0.6,0.1,0.8,0.2	C3,55,3.3,55.2,3.6,55.5l1.3,1.2v-2.2h0.4v3.2l-1.9-1.8c-0.3-0.3-0.6-0.5-0.8-0.7C2.4,55.1,2.2,55,2,55s-0.5,0.1-0.7,0.3	S1,55.8,1,56.1s0.1,0.5,0.3,0.7S1.8,57.1,2.1,57.1L2.1,57.1L2.1,57.1z"/><path d="M0.3,51.2v-0.5c0.4,0.2,1,0.4,1.5,0.5c0.6,0.1,1.1,0.2,1.7,0.2c1.1,0,2.1-0.2,3-0.5v0.5c-0.8,0.3-1.8,0.5-2.9,0.5	C2.4,51.8,1.3,51.6,0.3,51.2L0.3,51.2L0.3,51.2z"/><path d="M0.7,50v-0.5L4.4,48l-3.7-1.6v-0.5l4.8,2V48C5.5,48,0.7,50,0.7,50z"/><path d="M1.9,42h3.4v0.4H4.7c0.5,0.4,0.7,0.8,0.7,1.3S5.3,44.7,4.9,45s-0.8,0.5-1.3,0.5S2.7,45.4,2.3,45s-0.5-0.8-0.5-1.3	c0-0.6,0.2-1,0.7-1.4H1.9L1.9,42L1.9,42L1.9,42z M3.6,42.4c-0.4,0-0.7,0.1-1,0.4c-0.3,0.3-0.4,0.6-0.4,1s0.1,0.7,0.4,1	s0.6,0.4,1,0.4s0.7-0.1,1-0.4s0.4-0.6,0.4-1s-0.1-0.7-0.4-1C4.4,42.5,4,42.4,3.6,42.4L3.6,42.4L3.6,42.4z"/><path d="M1.9,41.2v-0.5h0.5c-0.2-0.1-0.4-0.2-0.4-0.3c-0.1-0.1-0.1-0.2-0.1-0.4s0-0.3,0.1-0.4l0.4,0.2c0,0.1-0.1,0.1-0.1,0.2	c0,0.1,0.1,0.3,0.2,0.4c0.1,0.1,0.3,0.2,0.5,0.3c0.2,0.1,0.6,0.1,1.2,0.1h1.2v0.5L1.9,41.2L1.9,41.2z"/><path d="M0.7,38.9v-2.7h0.5v2.2h1.5v-2.2H3v2.2h1.8v-2.2h0.5v2.7H0.7L0.7,38.9z"/><path d="M3.9,34.5l1.4,1V36l-1.8-1.3l-1.6,1.1v-0.5l1.2-0.9l-1.2-0.9v-0.5l1.6,1.1l1.8-1.3v0.5L3.9,34.5L3.9,34.5L3.9,34.5z"/><path d="M1.9,32.4v-0.4h0.6c-0.5-0.4-0.7-0.8-0.7-1.4c0-0.5,0.2-0.9,0.5-1.2s0.8-0.5,1.3-0.5s0.9,0.2,1.3,0.5s0.5,0.8,0.5,1.2	c0,0.5-0.2,1-0.7,1.4h1.9v0.4L1.9,32.4L1.9,32.4L1.9,32.4z M3.6,29.2c-0.4,0-0.7,0.1-1,0.4s-0.4,0.6-0.4,1s0.1,0.7,0.4,1	c0.3,0.3,0.6,0.4,1,0.4s0.7-0.1,1-0.4S5,31,5,30.6s-0.1-0.7-0.4-1C4.4,29.4,4,29.2,3.6,29.2L3.6,29.2L3.6,29.2z"/><path d="M2.2,27.9c-0.1,0-0.2,0-0.3-0.1s-0.1-0.2-0.1-0.3s0-0.2,0.1-0.3s0.2-0.1,0.3-0.1s0.2,0,0.3,0.1s0.1,0.2,0.1,0.3	s0,0.2-0.1,0.3S2.3,27.9,2.2,27.9L2.2,27.9L2.2,27.9z M5,27.9c-0.1,0-0.2,0-0.3-0.1s-0.1-0.2-0.1-0.3s0-0.2,0.1-0.3	c0.1-0.1,0.2-0.1,0.3-0.1s0.2,0,0.3,0.1c0.1,0.1,0.1,0.2,0.1,0.3s0,0.2-0.1,0.3S5.1,27.9,5,27.9L5,27.9L5,27.9z"/><path d="M5.5,23.2c0,0.5-0.2,0.9-0.6,1.2c-0.4,0.3-1,0.4-1.8,0.4s-1.4-0.1-1.8-0.4s-0.6-0.7-0.6-1.1s0.2-0.9,0.6-1.2	c0.4-0.3,1-0.4,1.8-0.4s1.4,0.1,1.8,0.4C5.2,22.4,5.5,22.8,5.5,23.2L5.5,23.2L5.5,23.2z M1,23.2c0,0.4,0.2,0.6,0.5,0.8	s0.9,0.3,1.5,0.3c1.3,0,2-0.4,2-1.1c0-0.4-0.2-0.7-0.5-0.9c-0.4-0.2-0.9-0.3-1.5-0.3s-1.1,0.1-1.5,0.3S1,22.9,1,23.2z"/><path d="M5,21.1c-0.1,0-0.2,0-0.3-0.1s-0.1-0.2-0.1-0.3s0-0.2,0.1-0.3c0.1-0.1,0.2-0.1,0.3-0.1s0.2,0,0.3,0.1	c0.1,0.1,0.1,0.2,0.1,0.3s0,0.2-0.1,0.3S5.1,21.1,5,21.1L5,21.1L5,21.1z"/><path d="M2.1,19.2v0.5c-0.5,0-0.9-0.2-1.1-0.5s-0.4-0.6-0.4-1.1s0.1-0.8,0.4-1s0.6-0.4,1-0.4c0.3,0,0.6,0.1,0.8,0.2s0.5,0.4,0.9,0.7	l1.3,1.2v-2.2h0.4v3.2L3.4,18c-0.3-0.3-0.6-0.5-0.8-0.7S2.2,17.1,2,17.1s-0.5,0.1-0.7,0.3S1,17.8,1,18.1s0.1,0.5,0.3,0.7	C1.5,19,1.8,19.1,2.1,19.2L2.1,19.2L2.1,19.2z"/><path d="M0.6,14l0.2-0.4l1.9,1.3c-0.1-0.2-0.1-0.4-0.1-0.5c0-0.4,0.1-0.6,0.4-0.9c0.3-0.3,0.6-0.4,1-0.4s0.7,0.1,1,0.4	c0.3,0.3,0.4,0.6,0.4,1s-0.1,0.7-0.4,1S4.4,16,4,16c-0.2,0-0.4,0-0.6-0.1S3,15.6,2.7,15.4L0.6,14L0.6,14L0.6,14z M4,13.5	c-0.3,0-0.5,0.1-0.7,0.3S3,14.2,3,14.5s0.1,0.5,0.3,0.7s0.4,0.3,0.7,0.3s0.5-0.1,0.7-0.3C4.9,15,5,14.8,5,14.5S4.9,14,4.7,13.9	C4.5,13.7,4.3,13.6,4,13.5L4,13.5z"/><path d="M0.3,11.9c1-0.4,2.1-0.6,3.3-0.6c1.1,0,2.1,0.2,2.9,0.5v0.5c-0.9-0.4-1.9-0.5-3-0.5c-0.6,0-1.1,0.1-1.7,0.2	s-1.1,0.3-1.5,0.5L0.3,11.9L0.3,11.9L0.3,11.9z"/><line x1="58.8" x2="58.8" y1="67.8" y2="69.8" class="st11"/><line x1="35.8" x2="35.8" y1="67.8" y2="69.8" class="st11"/><line x1="20.9" x2="18.8" y1="64" y2="64" class="st11"/><line x1="20.9" x2="18.8" y1="48.3" y2="48.3" class="st11"/><line x1="20.9" x2="18.8" y1="32.7" y2="32.7" class="st11"/><line x1="20.9" x2="18.8" y1="17" y2="17" class="st11"/></svg>