<svg xmlns="http://www.w3.org/2000/svg" xmlns:xlink="http://www.w3.org/1999/xlink" id="b" viewBox="0 0 383.26 124.37"><defs><style>.g,.h,.i,.j,.k,.l,.m,.n{fill:none}.o{fill:#fff}.h{stroke-dasharray:0 0 0 0 0 0 4.29 1.85}.h,.i{stroke-width:1.16px}.h,.i,.j,.l,.m,.n{stroke-linejoin:round}.h,.l,.n{stroke:#dd8452}.i,.j{stroke:#4c72b0;stroke-linecap:round}.j,.l,.m,.n{stroke-width:1.19px}.k{stroke:#000;stroke-linecap:square;stroke-width:.25px}.l{stroke-dasharray:0 0 0 0 0 0 4.39 1.9}.m{stroke:gray;stroke-dasharray:0 0 0 0 0 0 1.19 1.96}.n{stroke-dasharray:0 0 0 0 0 0 4.4 1.9}.p{clip-path:url(#e)}.q{clip-path:url(#f)}.r{clip-path:url(#d)}</style><clipPath id="d"><rect width="106.13" height="77.55" x="276.47" y="13.16" class="g"/></clipPath><clipPath id="e"><rect width="105.88" height="77.36" x="11.29" y="13.14" class="g"/></clipPath><clipPath id="f"><rect width="105.88" height="77.36" x="143.91" y="13.09" class="g"/></clipPath></defs><g id="c"><rect width="106.13" height="77.55" x="276.47" y="13.17" class="o"/><g class="r"><polyline points="267.13 90.71 270.26 90.66 272.13 90.51 273.38 90.32 274.63 90.04 277.14 89.31 279.01 88.82 280.26 88.61 284.01 88.22 285.27 88.01 286.51 87.7 287.77 87.23 289.01 86.58 290.27 85.73 291.52 84.72 293.39 83.01 295.27 81.11 296.52 79.7 297.77 78.12 301.52 73.06 302.77 71.63 304.65 69.59 305.9 68 306.52 67.05 307.15 65.99 307.78 64.81 308.4 63.5 309.65 60.5 310.9 57.05 314.03 47.95 314.65 46.4 315.28 45.02 315.9 43.81 316.53 42.74 317.78 40.87 319.03 38.98 319.65 37.91 320.28 36.68 320.9 35.29 321.53 33.74 322.78 30.19 325.28 22.56 325.91 20.92 326.53 19.51 327.16 18.39 327.78 17.57 328.41 17.06 329.03 16.86 329.66 16.93 330.28 17.23 330.91 17.71 331.53 18.34 332.79 19.89 334.03 21.69 335.29 23.77 336.54 26.23 337.79 29.14 339.04 32.44 340.91 37.56 342.16 40.6 342.79 41.92 343.41 43.07 344.04 44.05 344.66 44.87 345.29 45.54 345.91 46.08 346.54 46.48 347.17 46.79 347.79 47 349.04 47.26 350.92 47.54 351.54 47.7 352.17 47.93 352.79 48.25 353.42 48.69 354.04 49.28 354.67 50.02 355.3 50.95 355.92 52.05 356.54 53.34 357.17 54.8 358.42 58.2 359.67 62.1 364.05 76.55 364.67 78.28 365.3 79.86 365.92 81.26 366.55 82.48 367.17 83.53 367.8 84.41 368.42 85.14 369.05 85.73 369.68 86.23 370.3 86.63 371.55 87.22 372.8 87.65 374.68 88.13 377.81 88.75 380.31 89.27 384.68 90.29 385.93 90.48 387.81 90.64 390.31 90.7 391.56 90.71" class="j"/><polyline points="267.51 90.71 271.26 90.64 273.13 90.51 275.01 90.28 285.65 88.63 288.15 88.08 290.03 87.55 291.27 87.1 292.53 86.54 293.78 85.89 295.03 85.13 296.28 84.27 297.53 83.28 298.78 82.14 300.03 80.82 301.28 79.25 301.91 78.32 302.53 77.23 303.16 75.94 303.79 74.39 304.41 72.52 305.03 70.27 305.66 67.6 306.29 64.5 306.91 60.98 308.16 52.93 310.04 40.16 310.67 36.34 311.29 32.95 311.92 30.11 312.54 27.85 313.17 26.18 313.79 25.07 314.42 24.45 315.05 24.24 315.67 24.35 316.29 24.68 317.55 25.68 318.8 26.73 319.42 27.17 320.05 27.53 321.3 28.06 323.17 28.69 323.8 28.98 324.43 29.36 325.05 29.86 325.68 30.49 326.3 31.26 326.93 32.16 327.55 33.19 328.81 35.54 332.56 43.11 333.19 44.18 333.81 45.14 334.43 45.98 335.06 46.68 335.69 47.24 336.31 47.66 336.94 47.95 337.56 48.11 338.19 48.15 338.81 48.06 339.44 47.87 340.07 47.57 340.69 47.16 341.32 46.67 341.94 46.08 343.19 44.65 344.44 42.95 348.19 37.44 348.82 36.72 349.45 36.14 350.07 35.73 350.7 35.52 351.32 35.52 351.95 35.74 352.57 36.21 353.2 36.93 353.83 37.89 354.45 39.1 355.07 40.55 355.7 42.23 356.33 44.12 357.58 48.47 358.83 53.42 360.71 61.51 362.58 69.66 363.83 74.63 365.09 78.92 365.71 80.76 366.34 82.38 366.96 83.78 367.59 84.96 368.21 85.94 368.84 86.73 369.46 87.36 370.09 87.85 370.71 88.23 371.34 88.52 372.59 88.89 373.84 89.11 375.72 89.3 380.72 89.68 383.23 90.08 385.73 90.45 387.6 90.62 390.11 90.7 391.98 90.71" class="n"/><line x1="329.54" x2="329.54" y1="90.71" y2="13.16" class="m"/></g><line x1="276.47" x2="276.47" y1="90.71" y2="13.16" class="k"/><line x1="382.6" x2="382.6" y1="90.71" y2="13.16" class="k"/><line x1="276.47" x2="382.6" y1="90.71" y2="90.71" class="k"/><line x1="276.47" x2="382.6" y1="13.16" y2="13.16" class="k"/><path d="m5.14.02v6.84h-.62v-.85c-.56.68-1.21,1.01-1.94,1.01s-1.34-.26-1.84-.77c-.5-.51-.74-1.13-.74-1.85s.25-1.33.75-1.85c.5-.51,1.1-.77,1.8-.77.81,0,1.46.34,1.96,1.03V0h.62v.02Zm-.59,4.41c0-.56-.19-1.04-.56-1.43s-.84-.59-1.4-.59-1.02.2-1.4.6-.56.87-.56,1.41.19,1.02.58,1.42c.38.4.84.6,1.36.6s.98-.19,1.38-.57.59-.86.59-1.45h0Z"/><path d="m143.42,5.26l.54.28c-.53.99-1.32,1.49-2.36,1.49-.74,0-1.36-.26-1.84-.77-.48-.51-.72-1.13-.72-1.85s.24-1.34.73-1.85c.49-.51,1.09-.77,1.8-.77s1.32.24,1.8.72c.49.48.74,1.13.76,1.95h-4.45c.02.6.21,1.07.56,1.44s.79.54,1.3.54c.84,0,1.46-.39,1.88-1.18Zm0-1.35c-.09-.47-.3-.84-.65-1.11-.35-.27-.75-.4-1.2-.4-.93,0-1.54.5-1.82,1.51h3.67Z"/><path d="m273.98.15v.62c-.24-.11-.46-.16-.65-.16s-.31.06-.37.18-.08.32-.08.59v.54h1.03v.54h-1.03v4.4h-.64V2.46h-.64v-.54h.64v-.64c0-.43.08-.75.24-.96s.41-.31.75-.31c.2,0,.45.04.74.13h.01Z"/><rect width="105.88" height="77.36" x="11.29" y="13.14" class="o"/><g class="p"><polyline points="3.3 90.5 5.75 90.44 6.98 90.35 8.2 90.19 10.04 89.79 11.87 89.39 13.1 89.23 14.33 89.15 19.22 89.02 21.06 88.83 22.29 88.6 23.51 88.24 24.73 87.69 25.96 86.93 27.18 85.94 28.41 84.72 29.64 83.28 33.31 78.56 34.54 77.29 35.15 76.77 35.76 76.32 36.99 75.61 39.44 74.41 40.05 73.99 40.66 73.47 41.27 72.81 41.88 71.98 42.5 71.01 43.11 69.88 44.33 67.24 46.17 62.83 48.62 56.73 49.23 55.05 49.85 53.21 50.46 51.17 51.07 48.91 52.3 43.76 54.74 32.62 55.36 30.13 55.97 27.89 56.58 25.9 57.2 24.16 57.81 22.66 58.42 21.36 59.03 20.23 59.65 19.26 60.26 18.45 60.87 17.79 61.48 17.32 62.09 17.07 62.71 17.05 63.32 17.29 63.93 17.81 64.54 18.59 65.16 19.64 65.77 20.92 66.38 22.42 66.99 24.1 68.22 27.98 69.44 32.5 70.67 37.61 72.51 46.06 74.35 54.44 75.57 59.46 76.79 63.89 78.02 67.81 79.24 71.31 80.47 74.4 81.08 75.75 81.69 76.95 82.3 77.98 82.92 78.83 83.53 79.51 84.15 80.04 84.76 80.43 85.37 80.72 85.98 80.93 87.21 81.19 89.66 81.55 90.27 81.73 90.88 82 91.49 82.38 92.1 82.88 92.72 83.5 93.94 85 95.17 86.56 95.78 87.25 96.39 87.85 97.01 88.34 97.62 88.73 98.23 89.01 98.84 89.22 100.07 89.47 101.29 89.59 103.74 89.69 106.8 89.72 109.25 89.65 115.38 89.36 116.6 89.44 117.83 89.64 120.89 90.27 122.11 90.4 122.72 90.44" class="j"/><polyline points="3.38 90.5 5.82 90.45 7.66 90.29 8.89 90.08 12.56 89.34 13.78 89.24 16.23 89.2 18.68 89.13 20.52 88.98 21.74 88.81 22.96 88.53 24.19 88.09 25.41 87.45 26.64 86.58 27.86 85.48 29.09 84.13 30.31 82.59 32.76 79.43 33.98 78.07 35.2 76.97 36.43 76.14 39.49 74.42 40.1 73.93 40.71 73.33 41.33 72.6 41.94 71.72 42.55 70.71 43.16 69.56 44.39 66.93 47.45 59.69 48.67 56.74 49.9 53.43 50.51 51.5 51.12 49.35 52.34 44.35 55.41 30.7 56.02 28.4 56.63 26.36 57.24 24.56 57.85 22.98 58.47 21.6 59.08 20.39 59.69 19.34 60.3 18.44 60.91 17.71 61.53 17.18 62.14 16.88 62.75 16.83 63.36 17.06 63.98 17.57 64.59 18.36 65.2 19.41 65.81 20.72 66.42 22.25 67.04 23.98 68.26 27.97 69.48 32.59 70.71 37.74 74.99 56.69 76.22 61.35 77.44 65.51 78.66 69.25 79.89 72.62 81.11 75.55 81.73 76.79 82.34 77.87 82.95 78.77 83.56 79.49 84.17 80.04 84.79 80.45 85.4 80.73 86.01 80.9 86.62 81 87.85 81.05 89.07 81.07 89.69 81.15 90.3 81.31 90.91 81.59 91.52 82.02 92.13 82.58 92.74 83.28 93.97 84.9 95.19 86.55 95.8 87.26 96.42 87.86 97.03 88.35 97.64 88.72 98.25 89 98.86 89.2 100.09 89.43 101.93 89.59 104.37 89.67 107.44 89.67 110.5 89.56 115.39 89.29 116.61 89.37 117.84 89.59 120.9 90.25 122.13 90.39 122.72 90.44" class="l"/><line x1="64.23" x2="64.23" y1="90.51" y2="13.14" class="m"/></g><line x1="11.3" x2="11.3" y1="90.51" y2="13.14" class="k"/><line x1="117.17" x2="117.17" y1="90.51" y2="13.14" class="k"/><line x1="11.3" x2="11.3" y1="90.51" y2="92.62" class="k"/><line x1="37.76" x2="37.76" y1="90.51" y2="92.62" class="k"/><line x1="64.23" x2="64.23" y1="90.51" y2="92.62" class="k"/><line x1="90.7" x2="90.7" y1="90.51" y2="92.62" class="k"/><line x1="117.17" x2="117.17" y1="90.51" y2="92.62" class="k"/><line x1="117.17" x2="11.3" y1="90.51" y2="90.51" class="k"/><line x1="11.3" x2="117.17" y1="13.14" y2="13.14" class="k"/><rect width="105.88" height="77.36" x="143.91" y="13.09" class="o"/><g class="q"><polyline points="137.7 90.44 141.27 90.4 143.05 90.27 144.84 90.02 147.22 89.64 148.41 89.55 152.57 89.41 157.92 88.95 160.3 88.82 162.68 88.69 164.46 88.46 165.65 88.23 166.25 88.06 166.84 87.84 167.44 87.52 168.03 87.08 168.63 86.49 169.22 85.7 169.81 84.71 170.41 83.47 171 81.98 171.6 80.22 172.19 78.19 172.79 75.87 173.98 70.47 176.95 55.71 177.55 53.39 178.14 51.52 178.73 50.15 179.33 49.28 179.92 48.9 180.52 48.96 181.11 49.33 181.71 49.92 182.9 51.21 183.49 51.66 184.09 51.85 184.68 51.72 185.27 51.24 185.87 50.4 186.46 49.22 187.06 47.77 188.25 44.34 189.44 40.88 190.03 39.36 190.63 38.1 191.22 37.16 191.81 36.58 192.41 36.38 193 36.59 193.6 37.21 194.19 38.26 194.79 39.71 195.38 41.53 196.57 45.95 198.36 52.98 199.54 57.13 200.73 60.87 202.52 66.08 203.71 69.21 204.9 71.87 206.08 74.05 207.27 75.87 208.46 77.46 211.44 81.36 213.22 83.79 214.41 85.16 215 85.72 215.6 86.18 216.19 86.56 217.38 87.13 218.57 87.54 219.76 87.81 220.95 87.95 225.11 88.23 226.9 88.56 229.27 89.15 232.25 89.91 233.44 90.12 234.63 90.25 236.41 90.3 241.17 90.24 243.54 90.1 245.92 89.97 247.71 89.97 249.49 90.07 253.06 90.39 255.34 90.44" class="j"/><polyline points="137.41 90.44 140.4 90.38 141.6 90.28 142.79 90.09 146.98 89.21 148.77 89.1 151.17 88.98 154.75 88.69 158.94 88.24 161.92 88.08 163.12 87.85 163.72 87.66 164.32 87.4 164.91 87.07 165.51 86.64 166.11 86.11 166.71 85.46 167.31 84.65 167.91 83.65 168.5 82.43 169.1 80.93 169.7 79.08 170.3 76.84 170.89 74.14 171.49 70.93 172.09 67.16 172.69 62.84 173.29 58 174.48 47.15 175.68 35.93 176.27 30.75 176.87 26.15 177.47 22.35 178.07 19.47 178.66 17.61 179.26 16.77 179.86 16.92 180.46 17.96 181.06 19.79 181.65 22.26 182.25 25.22 183.45 32.01 185.24 42.61 186.44 49.17 187.63 55.1 188.83 60.23 189.43 62.41 190.02 64.31 190.62 65.89 191.22 67.16 191.82 68.15 192.42 68.9 193.01 69.49 194.21 70.42 196.6 72.13 197.2 72.45 197.8 72.68 198.39 72.83 199.59 72.94 200.78 73.03 201.38 73.15 201.98 73.32 202.58 73.57 203.77 74.22 205.57 75.42 207.96 77.07 209.16 78.07 209.75 78.68 210.35 79.37 211.55 80.99 213.94 84.41 215.13 85.82 216.33 86.95 217.52 87.86 218.72 88.59 219.92 89.16 221.11 89.55 222.31 89.82 224.1 90.05 225.9 90.18 227.69 90.22 230.08 90.16 233.07 90.08 236.06 90.04 246.22 89.52 247.42 89.54 248.61 89.66 252.8 90.34 254.59 90.43 255.34 90.44" class="l"/><line x1="196.85" x2="196.85" y1="90.44" y2="13.09" class="m"/></g><line x1="143.91" x2="143.91" y1="90.44" y2="13.09" class="k"/><line x1="249.79" x2="249.79" y1="90.44" y2="13.09" class="k"/><line x1="143.91" x2="143.91" y1="90.44" y2="92.53" class="k"/><line x1="170.38" x2="170.38" y1="90.44" y2="92.53" class="k"/><line x1="196.85" x2="196.85" y1="90.44" y2="92.53" class="k"/><line x1="223.32" x2="223.32" y1="90.44" y2="92.53" class="k"/><line x1="249.79" x2="249.79" y1="90.44" y2="92.53" class="k"/><line x1="276.47" x2="276.47" y1="90.73" y2="92.82" class="k"/><line x1="382.6" x2="382.6" y1="90.73" y2="92.82" class="k"/><line x1="356.07" x2="356.07" y1="90.73" y2="92.82" class="k"/><line x1="329.53" x2="329.54" y1="90.73" y2="92.82" class="k"/><line x1="303" x2="303.01" y1="90.73" y2="92.82" class="k"/><line x1="249.79" x2="143.91" y1="90.44" y2="90.44" class="k"/><line x1="143.91" x2="249.79" y1="13.09" y2="13.09" class="k"/><line x1="82.26" x2="92.46" y1="121.54" y2="121.54" class="i"/><line x1="226.82" x2="237.02" y1="121.54" y2="121.54" class="h"/><path d="m100.91,119.31l-.36.28c-.43-.54-.99-.81-1.67-.81-.55,0-1.03.2-1.43.59-.4.39-.6.87-.6,1.43s.2,1.04.59,1.42.88.57,1.47.57c.66,0,1.21-.26,1.64-.77l.36.28c-.23.3-.52.53-.87.69s-.74.24-1.16.24c-.74,0-1.35-.23-1.82-.7s-.71-1.06-.71-1.77c0-.44.11-.85.33-1.23s.52-.67.91-.88.81-.32,1.25-.32.85.08,1.2.25.65.41.87.73Z"/><path d="m101.61,121.41c0-.51.17-.94.52-1.3s.77-.54,1.27-.54.92.18,1.27.54c.35.36.52.79.52,1.29s-.17.93-.52,1.29c-.34.36-.77.54-1.28.54s-.93-.18-1.28-.54c-.35-.36-.52-.79-.52-1.28h.02Zm3.15,0c0-.38-.13-.71-.4-.99-.27-.28-.58-.42-.95-.42s-.68.14-.95.42c-.26.28-.4.61-.4,1s.13.71.38.98c.26.27.57.4.95.4s.7-.14.96-.41.39-.6.39-.98h.02Z"/><path d="m108.99,123.12h-.45v-.62c-.36.47-.79.71-1.29.71-.26,0-.49-.07-.7-.21-.21-.14-.36-.33-.44-.55-.09-.23-.13-.56-.13-1v-1.77h.44v1.64c0,.4.02.68.06.82s.09.26.17.36c.08.1.17.18.29.23.12.05.26.08.43.08s.33-.04.49-.12.3-.2.41-.34c.11-.15.19-.3.23-.46s.06-.47.06-.94v-1.27h.45v3.45h-.02Z"/><path d="m109.81,119.66h.46v.5c.12-.2.24-.35.35-.45.12-.1.24-.14.38-.14s.28.04.43.12l-.23.38c-.07-.04-.13-.06-.2-.06-.13,0-.26.07-.38.21s-.21.32-.26.54c-.06.22-.08.62-.08,1.19v1.17h-.46v-3.45h-.01Z"/><path d="m113.65,120.04l-.29.29c-.24-.23-.47-.34-.7-.34-.15,0-.27.05-.37.14-.1.09-.15.21-.15.34s.05.25.16.35.29.21.55.35c.26.14.46.28.59.44s.21.35.21.58c0,.29-.1.54-.3.73-.2.2-.45.3-.74.3-.2,0-.38-.04-.56-.13s-.33-.21-.46-.36l.28-.31c.23.26.47.38.72.38.18,0,.33-.06.46-.18s.19-.25.19-.41-.06-.29-.17-.39-.29-.22-.55-.35c-.26-.13-.45-.27-.58-.43s-.19-.35-.19-.6.09-.45.27-.63.42-.26.71-.26.6.16.92.47v.02Z"/><path d="m117.34,122l.38.19c-.37.69-.92,1.04-1.65,1.04-.52,0-.95-.18-1.29-.54-.34-.36-.51-.79-.51-1.29s.17-.93.51-1.29c.34-.36.76-.54,1.26-.54s.92.17,1.26.5.52.79.53,1.37h-3.11c0,.42.14.75.39,1s.55.38.91.38c.58,0,1.02-.27,1.31-.83h0Zm0-.94c-.06-.33-.21-.59-.46-.77-.24-.19-.52-.28-.84-.28-.65,0-1.08.35-1.27,1.05h2.57Z"/><path d="m123.73,118.33v4.78h-.44v-.59c-.39.47-.85.71-1.36.71s-.94-.18-1.28-.54-.52-.79-.52-1.29.17-.93.53-1.29c.35-.36.77-.54,1.26-.54.56,0,1.02.24,1.37.72v-1.96h.44Zm-.41,3.08c0-.39-.13-.73-.39-1s-.58-.41-.98-.41-.72.14-.98.42-.39.61-.39.99.13.71.4.99.59.42.95.42.69-.13.96-.4c.28-.27.42-.6.42-1.01h0Z"/><path d="m124.53,118.7c0-.1.04-.19.11-.26s.16-.11.26-.11.19.04.26.11c.07.07.11.16.11.26s-.04.19-.11.26-.16.11-.26.11-.19-.04-.26-.11c-.07-.07-.11-.16-.11-.25h0Zm.14.96h.45v3.45h-.45v-3.45Z"/><path d="m125.87,119.66h.46v.5c.12-.2.24-.35.35-.45.12-.1.24-.14.38-.14s.28.04.43.12l-.23.38c-.07-.04-.13-.06-.2-.06-.13,0-.26.07-.38.21s-.21.32-.26.54c-.06.22-.08.62-.08,1.19v1.17h-.46v-3.45h-.01Z"/><path d="m130.81,122l.38.19c-.37.69-.92,1.04-1.65,1.04-.52,0-.95-.18-1.29-.54-.34-.36-.51-.79-.51-1.29s.17-.93.51-1.29c.34-.36.76-.54,1.26-.54s.92.17,1.26.5.52.79.53,1.37h-3.11c0,.42.14.75.39,1s.55.38.91.38c.58,0,1.02-.27,1.31-.83h0Zm0-.94c-.06-.33-.21-.59-.46-.77-.24-.19-.52-.28-.84-.28-.65,0-1.08.35-1.27,1.05h2.57Z"/><path d="m135.5,120.38l-.35.22c-.3-.4-.72-.6-1.25-.6-.42,0-.76.13-1.05.4-.28.27-.42.6-.42.99s.14.73.42,1.01.63.42,1.05.42c.51,0,.92-.2,1.25-.6l.35.23c-.17.25-.41.44-.7.58-.29.13-.61.2-.95.2-.53,0-.98-.18-1.33-.53-.36-.35-.54-.78-.54-1.29s.18-.94.54-1.3.83-.54,1.39-.54c.33,0,.64.07.93.21.28.14.5.34.65.59h.01Z"/><path d="m137.17,122.57c0,.12.02.19.05.21s.11.03.23.03h.27v.38c-.18.03-.33.05-.43.05-.19,0-.34-.05-.43-.14s-.14-.24-.14-.45v-2.6h-.61v-.38h.61v-1.33h.45v1.33h.7v.38h-.7v2.53h0Z"/><path d="m138.33,118.7c0-.1.04-.19.11-.26s.16-.11.26-.11.19.04.26.11c.07.07.11.16.11.26s-.04.19-.11.26-.16.11-.26.11-.19-.04-.26-.11c-.07-.07-.11-.16-.11-.25h0Zm.14.96h.45v3.45h-.45v-3.45Z"/><path d="m139.67,121.41c0-.51.17-.94.52-1.3s.77-.54,1.27-.54.92.18,1.27.54c.35.36.52.79.52,1.29s-.17.93-.52,1.29c-.34.36-.77.54-1.28.54s-.93-.18-1.28-.54c-.35-.36-.52-.79-.52-1.28h.02Zm3.15,0c0-.38-.13-.71-.4-.99-.27-.28-.58-.42-.95-.42s-.68.14-.95.42c-.26.28-.4.61-.4,1s.13.71.38.98c.26.27.57.4.95.4s.7-.14.96-.41c.26-.27.39-.6.39-.98h.02Z"/><path d="m144.09,119.66h.45v.62c.36-.47.79-.71,1.29-.71.26,0,.49.07.7.21s.35.32.44.55.13.56.13,1v1.77h-.44v-1.64c0-.4-.02-.68-.06-.82s-.09-.26-.17-.36-.17-.18-.29-.23c-.12-.05-.26-.08-.43-.08s-.33.04-.49.12-.3.2-.41.34c-.11.15-.19.3-.23.46s-.06.47-.06.94v1.27h-.45v-3.45h.02Z"/><path d="m150.68,118.05h.52c-.22.45-.39.96-.51,1.53s-.18,1.14-.18,1.72c0,1.13.18,2.13.53,2.98h-.49c-.34-.84-.51-1.82-.51-2.92,0-1.2.21-2.3.64-3.3h0Z"/><path d="m152.09,119.66h.44v.63c.35-.48.81-.72,1.37-.72.48,0,.9.18,1.25.54.35.36.53.79.53,1.29s-.17.93-.52,1.29-.76.54-1.25.54c-.53,0-.99-.24-1.38-.71v1.85h-.44v-4.71h0Zm3.15,1.74c0-.39-.13-.72-.4-.99-.27-.27-.59-.41-.98-.41s-.71.14-.97.41-.39.61-.39,1,.13.73.4,1c.27.27.59.41.96.41s.7-.14.97-.41c.27-.28.41-.61.41-1h0Z"/><path d="m156.45,118.33h.44v4.78h-.44v-4.78Z"/><path d="m160.78,123.12h-.45v-.62c-.36.47-.79.71-1.29.71-.26,0-.49-.07-.7-.21-.21-.14-.36-.33-.44-.55-.09-.23-.13-.56-.13-1v-1.77h.44v1.64c0,.4.02.68.06.82s.09.26.17.36c.08.1.17.18.29.23.12.05.26.08.43.08s.33-.04.49-.12.3-.2.41-.34c.11-.15.19-.3.23-.46s.06-.47.06-.94v-1.27h.45v3.45h-.02Z"/><path d="m161.77,119.66h.44v.6c.31-.46.7-.69,1.18-.69.26,0,.48.07.69.22.2.15.34.35.41.61.14-.27.33-.47.55-.62.22-.14.48-.21.76-.21s.55.11.78.33.35.66.35,1.32v1.88h-.46v-1.88c0-.32-.02-.55-.06-.7s-.12-.28-.25-.38-.3-.15-.52-.15-.42.07-.6.21c-.19.14-.31.33-.38.55s-.1.55-.1,1v1.35h-.44v-1.77c0-.37-.02-.63-.06-.79s-.12-.29-.26-.4c-.13-.11-.3-.16-.49-.16s-.38.06-.55.17-.31.27-.4.47-.15.54-.15,1.01v1.46h-.44v-3.45.02Z"/><path d="m170.77,122l.38.19c-.37.69-.92,1.04-1.65,1.04-.52,0-.95-.18-1.29-.54-.34-.36-.51-.79-.51-1.29s.17-.93.51-1.29c.34-.36.76-.54,1.26-.54s.92.17,1.26.5.52.79.53,1.37h-3.11c0,.42.14.75.39,1s.55.38.91.38c.58,0,1.02-.27,1.31-.83h0Zm0-.94c-.06-.33-.21-.59-.46-.77-.24-.19-.52-.28-.84-.28-.65,0-1.08.35-1.27,1.05h2.57Z"/><path d="m177.09,120.38l-.35.22c-.3-.4-.72-.6-1.25-.6-.42,0-.76.13-1.05.4-.28.27-.42.6-.42.99s.14.73.42,1.01.63.42,1.05.42c.51,0,.92-.2,1.25-.6l.35.23c-.17.25-.41.44-.7.58-.29.13-.61.2-.95.2-.53,0-.98-.18-1.33-.53-.36-.35-.54-.78-.54-1.29s.18-.94.54-1.3.83-.54,1.39-.54c.33,0,.64.07.93.21.28.14.5.34.65.59h.01Z"/><path d="m180.82,122l.38.19c-.37.69-.92,1.04-1.65,1.04-.52,0-.95-.18-1.29-.54-.34-.36-.51-.79-.51-1.29s.17-.93.51-1.29c.34-.36.76-.54,1.26-.54s.92.17,1.26.5.52.79.53,1.37h-3.11c0,.42.14.75.39,1s.55.38.91.38c.58,0,1.02-.27,1.31-.83h0Zm0-.94c-.06-.33-.21-.59-.46-.77-.24-.19-.52-.28-.84-.28-.65,0-1.08.35-1.27,1.05h2.57Z"/><path d="m182.14,119.66h.45v.62c.36-.47.79-.71,1.29-.71.26,0,.49.07.7.21s.35.32.44.55.13.56.13,1v1.77h-.44v-1.64c0-.4-.02-.68-.06-.82s-.09-.26-.17-.36-.17-.18-.29-.23c-.12-.05-.26-.08-.43-.08s-.33.04-.49.12-.3.2-.41.34c-.11.15-.19.3-.23.46s-.06.47-.06.94v1.27h-.45v-3.45h.02Z"/><path d="m186.95,122.57c0,.12.02.19.05.21s.11.03.23.03h.27v.38c-.18.03-.33.05-.43.05-.19,0-.34-.05-.43-.14s-.14-.24-.14-.45v-2.6h-.61v-.38h.61v-1.33h.45v1.33h.7v.38h-.7v2.53h0Z"/><path d="m188.14,119.66h.46v.5c.12-.2.24-.35.35-.45.12-.1.24-.14.38-.14s.28.04.43.12l-.23.38c-.07-.04-.13-.06-.2-.06-.13,0-.26.07-.38.21s-.21.32-.26.54c-.06.22-.08.62-.08,1.19v1.17h-.46v-3.45h-.01Z"/><path d="m193.08,122l.38.19c-.37.69-.92,1.04-1.65,1.04-.52,0-.95-.18-1.29-.54-.34-.36-.51-.79-.51-1.29s.17-.93.51-1.29c.34-.36.76-.54,1.26-.54s.92.17,1.26.5.52.79.53,1.37h-3.11c0,.42.14.75.39,1s.55.38.91.38c.58,0,1.02-.27,1.31-.83h0Zm0-.94c-.06-.33-.21-.59-.46-.77-.24-.19-.52-.28-.84-.28-.65,0-1.08.35-1.27,1.05h2.57Z"/><path d="m194.34,118.33h.44v4.78h-.44v-4.78Z"/><path d="m195.5,118.7c0-.1.04-.19.11-.26s.16-.11.26-.11.19.04.26.11c.07.07.11.16.11.26s-.04.19-.11.26-.16.11-.26.11-.19-.04-.26-.11c-.07-.07-.11-.16-.11-.25h0Zm.14.96h.45v3.45h-.45v-3.45Z"/><path d="m197,119.66h.45v.62c.36-.47.79-.71,1.29-.71.26,0,.49.07.7.21s.35.32.44.55.13.56.13,1v1.77h-.44v-1.64c0-.4-.02-.68-.06-.82s-.09-.26-.17-.36-.17-.18-.29-.23c-.12-.05-.26-.08-.43-.08s-.33.04-.49.12-.3.2-.41.34c-.11.15-.19.3-.23.46s-.06.47-.06.94v1.27h-.45v-3.45h.02Z"/><path d="m203.87,122l.38.19c-.37.69-.92,1.04-1.65,1.04-.52,0-.95-.18-1.29-.54-.34-.36-.51-.79-.51-1.29s.17-.93.51-1.29c.34-.36.76-.54,1.26-.54s.92.17,1.26.5.52.79.53,1.37h-3.11c0,.42.14.75.39,1s.55.38.91.38c.58,0,1.02-.27,1.31-.83h0Zm0-.94c-.06-.33-.21-.59-.46-.77-.24-.19-.52-.28-.84-.28-.65,0-1.08.35-1.27,1.05h2.57Z"/><path d="m205.54,118.05c.43,1,.64,2.1.64,3.3,0,1.11-.17,2.08-.51,2.92h-.49c.36-.86.53-1.85.53-2.98,0-.58-.06-1.15-.18-1.72s-.29-1.08-.51-1.53h.52,0Z"/><path d="m244.94,119.31l-.36.28c-.43-.54-.99-.81-1.67-.81-.55,0-1.03.2-1.43.59-.4.39-.6.87-.6,1.43s.2,1.04.59,1.42c.39.38.88.57,1.47.57.66,0,1.21-.26,1.64-.77l.36.28c-.23.3-.52.53-.87.69s-.74.24-1.16.24c-.74,0-1.35-.23-1.82-.7s-.71-1.06-.71-1.77c0-.44.11-.85.33-1.23s.52-.67.91-.88.81-.32,1.25-.32.85.08,1.2.25.65.41.87.73Z"/><path d="m245.64,121.41c0-.51.17-.94.52-1.3.35-.36.77-.54,1.27-.54s.92.18,1.27.54c.35.36.52.79.52,1.29s-.17.93-.52,1.29c-.34.36-.77.54-1.28.54s-.93-.18-1.28-.54c-.35-.36-.52-.79-.52-1.28h.02Zm3.15,0c0-.38-.13-.71-.4-.99s-.58-.42-.95-.42-.68.14-.95.42c-.26.28-.4.61-.4,1s.13.71.38.98c.26.27.57.4.95.4s.7-.14.96-.41c.26-.27.39-.6.39-.98h.02Z"/><path d="m253.02,123.12h-.45v-.62c-.36.47-.79.71-1.29.71-.26,0-.49-.07-.7-.21-.21-.14-.36-.33-.44-.55-.09-.23-.13-.56-.13-1v-1.77h.44v1.64c0,.4.02.68.06.82s.09.26.17.36c.08.1.17.18.29.23.12.05.26.08.43.08s.33-.04.49-.12.3-.2.41-.34c.11-.15.19-.3.23-.46s.06-.47.06-.94v-1.27h.45v3.45h-.02Z"/><path d="m253.84,119.66h.46v.5c.12-.2.24-.35.35-.45.12-.1.24-.14.38-.14s.28.04.43.12l-.23.38c-.07-.04-.13-.06-.2-.06-.13,0-.26.07-.38.21s-.21.32-.26.54c-.06.22-.08.62-.08,1.19v1.17h-.46v-3.45h0Z"/><path d="m257.67,120.04l-.29.29c-.24-.23-.47-.34-.7-.34-.15,0-.27.05-.37.14-.1.09-.15.21-.15.34s.05.25.16.35c.11.1.29.21.55.35.26.14.46.28.59.44s.21.35.21.58c0,.29-.1.54-.3.73-.2.2-.45.3-.74.3-.2,0-.38-.04-.56-.13s-.33-.21-.46-.36l.28-.31c.23.26.47.38.72.38.18,0,.33-.06.46-.18s.19-.25.19-.41-.06-.29-.17-.39c-.11-.1-.29-.22-.55-.35-.26-.13-.45-.27-.58-.43s-.19-.35-.19-.6.09-.45.27-.63.42-.26.71-.26.6.16.92.47v.02Z"/><path d="m261.37,122l.38.19c-.37.69-.92,1.04-1.65,1.04-.52,0-.95-.18-1.29-.54-.34-.36-.51-.79-.51-1.29s.17-.93.51-1.29c.34-.36.76-.54,1.26-.54s.92.17,1.26.5.52.79.53,1.37h-3.11c.01.42.14.75.39,1s.55.38.91.38c.58,0,1.02-.27,1.31-.83h0Zm0-.94c-.06-.33-.21-.59-.46-.77-.24-.19-.52-.28-.84-.28-.65,0-1.08.35-1.27,1.05h2.57,0Z"/><path d="m267.76,118.33v4.78h-.44v-.59c-.39.47-.85.71-1.36.71s-.94-.18-1.28-.54-.52-.79-.52-1.29.17-.93.53-1.29c.35-.36.77-.54,1.26-.54.56,0,1.02.24,1.37.72v-1.96h.44,0Zm-.41,3.08c0-.39-.13-.73-.39-1s-.58-.41-.98-.41-.72.14-.98.42-.39.61-.39.99.13.71.4.99.59.42.95.42.69-.13.96-.4c.28-.27.42-.6.42-1.01h.01Z"/><path d="m268.56,118.7c0-.1.04-.19.11-.26.07-.07.16-.11.26-.11s.19.04.26.11c.07.07.11.16.11.26s-.04.19-.11.26c-.07.07-.16.11-.26.11s-.19-.04-.26-.11c-.07-.07-.11-.16-.11-.25h0Zm.14.96h.45v3.45h-.45v-3.45Z"/><path d="m269.9,119.66h.46v.5c.12-.2.24-.35.35-.45.12-.1.24-.14.38-.14s.28.04.43.12l-.23.38c-.07-.04-.13-.06-.2-.06-.13,0-.26.07-.38.21s-.21.32-.26.54c-.06.22-.08.62-.08,1.19v1.17h-.46v-3.45h0Z"/><path d="m274.83,122l.38.19c-.37.69-.92,1.04-1.65,1.04-.52,0-.95-.18-1.29-.54-.34-.36-.51-.79-.51-1.29s.17-.93.51-1.29c.34-.36.76-.54,1.26-.54s.92.17,1.26.5.52.79.53,1.37h-3.11c.01.42.14.75.39,1s.55.38.91.38c.58,0,1.02-.27,1.31-.83h0Zm0-.94c-.06-.33-.21-.59-.46-.77-.24-.19-.52-.28-.84-.28-.65,0-1.08.35-1.27,1.05h2.57,0Z"/><path d="m279.53,120.38l-.35.22c-.3-.4-.72-.6-1.25-.6-.42,0-.76.13-1.05.4-.28.27-.42.6-.42.99s.14.73.42,1.01.63.42,1.05.42c.51,0,.92-.2,1.25-.6l.35.23c-.17.25-.41.44-.7.58-.29.13-.61.2-.95.2-.53,0-.98-.18-1.33-.53-.36-.35-.54-.78-.54-1.29s.18-.94.54-1.3c.36-.36.83-.54,1.39-.54.33,0,.64.07.93.21.28.14.5.34.65.59h.01Z"/><path d="m281.2,122.57c0,.12.02.19.05.21s.11.03.23.03h.27v.38c-.18.03-.33.05-.43.05-.19,0-.34-.05-.43-.14s-.14-.24-.14-.45v-2.6h-.61v-.38h.61v-1.33h.45v1.33h.7v.38h-.7v2.53h0Z"/><path d="m282.36,118.7c0-.1.04-.19.11-.26.07-.07.16-.11.26-.11s.19.04.26.11c.07.07.11.16.11.26s-.04.19-.11.26c-.07.07-.16.11-.26.11s-.19-.04-.26-.11c-.07-.07-.11-.16-.11-.25h0Zm.14.96h.45v3.45h-.45v-3.45Z"/><path d="m283.7,121.41c0-.51.17-.94.52-1.3.35-.36.77-.54,1.27-.54s.92.18,1.27.54c.35.36.52.79.52,1.29s-.17.93-.52,1.29c-.34.36-.77.54-1.28.54s-.93-.18-1.28-.54c-.35-.36-.52-.79-.52-1.28h.02Zm3.15,0c0-.38-.13-.71-.4-.99s-.58-.42-.95-.42-.68.14-.95.42c-.26.28-.4.61-.4,1s.13.71.38.98c.26.27.57.4.95.4s.7-.14.96-.41c.26-.27.39-.6.39-.98h.02Z"/><path d="m288.12,119.66h.45v.62c.36-.47.79-.71,1.29-.71.26,0,.49.07.7.21s.35.32.44.55.13.56.13,1v1.77h-.44v-1.64c0-.4-.02-.68-.06-.82s-.09-.26-.17-.36-.17-.18-.29-.23c-.12-.05-.26-.08-.43-.08s-.33.04-.49.12-.3.2-.41.34c-.11.15-.19.3-.23.46s-.06.47-.06.94v1.27h-.45v-3.45h.02Z"/><path d="m294.71,118.05h.52c-.22.45-.39.96-.51,1.53s-.18,1.14-.18,1.72c0,1.13.18,2.13.53,2.98h-.49c-.34-.84-.51-1.82-.51-2.92,0-1.2.21-2.3.64-3.3h0Z"/><path d="m295.64,119.66h.46l1.05,2.62,1.11-2.62h.08l1.1,2.62,1.07-2.62h.47l-1.5,3.57h-.08l-1.1-2.59-1.11,2.59h-.08l-1.48-3.57h.01Z"/><path d="m301.3,118.7c0-.1.04-.19.11-.26.07-.07.16-.11.26-.11s.19.04.26.11c.07.07.11.16.11.26s-.04.19-.11.26c-.07.07-.16.11-.26.11s-.19-.04-.26-.11c-.07-.07-.11-.16-.11-.25h0Zm.14.96h.45v3.45h-.45v-3.45Z"/><path d="m302.81,119.66h.45v.62c.36-.47.79-.71,1.29-.71.26,0,.49.07.7.21s.35.32.44.55.13.56.13,1v1.77h-.44v-1.64c0-.4-.02-.68-.06-.82s-.09-.26-.17-.36-.17-.18-.29-.23c-.12-.05-.26-.08-.43-.08s-.33.04-.49.12-.3.2-.41.34c-.11.15-.19.3-.23.46s-.06.47-.06.94v1.27h-.45v-3.45h.02Z"/><path d="m310.22,118.33v4.78h-.44v-.59c-.39.47-.85.71-1.36.71s-.94-.18-1.28-.54-.52-.79-.52-1.29.17-.93.53-1.29c.35-.36.77-.54,1.26-.54.56,0,1.02.24,1.37.72v-1.96h.44,0Zm-.41,3.08c0-.39-.13-.73-.39-1s-.58-.41-.98-.41-.72.14-.98.42-.39.61-.39.99.13.71.4.99.59.42.95.42.69-.13.96-.4c.28-.27.42-.6.42-1.01h.01Z"/><path d="m311.64,118.05c.43,1,.64,2.1.64,3.3,0,1.11-.17,2.08-.51,2.92h-.49c.36-.86.53-1.85.53-2.98,0-.58-.06-1.15-.18-1.72s-.29-1.08-.51-1.53h.52Z"/><path d="m7.16,62.57H2.49v-.97c0-.66.05-1.15.15-1.46s.25-.58.46-.8.47-.4.77-.52c.3-.12.66-.18,1.06-.18s.79.09,1.14.28.63.44.81.77c.18.32.27.79.27,1.39v1.49h.01Zm-.44-.45v-.54c0-.56-.03-.97-.08-1.22-.06-.25-.17-.48-.33-.67-.17-.19-.37-.34-.61-.44s-.51-.15-.82-.15-.59.06-.85.17c-.26.11-.47.28-.64.49s-.28.46-.34.75-.09.71-.09,1.27v.33h3.77-.01Z"/><path d="m6.04,54.9l.2-.38c.69.37,1.04.92,1.04,1.65,0,.52-.18.95-.54,1.29s-.79.51-1.29.51-.93-.17-1.29-.51-.54-.76-.54-1.26.17-.92.5-1.26.79-.52,1.37-.53v3.11c.42-.01.75-.14,1-.39s.38-.55.38-.91c0-.58-.27-1.02-.83-1.31h0Zm-.94,0c-.33.06-.59.21-.77.46-.19.24-.28.52-.28.84,0,.65.35,1.08,1.05,1.27v-2.57h0Z"/><path d="m3.71,53.59v-.45h.62c-.47-.36-.71-.79-.71-1.29,0-.26.07-.49.21-.7s.32-.35.55-.44.56-.13,1-.13h1.77v.44h-1.64c-.4,0-.68.02-.82.06s-.26.09-.36.17-.18.17-.23.29-.08.26-.08.43.04.33.12.49.2.3.34.41.3.19.46.23.47.06.94.06h1.27v.45h-3.45v-.02Z"/><path d="m4.09,47.88l.29.29c-.23.24-.34.47-.34.7,0,.15.05.27.14.37s.21.15.34.15.25-.05.35-.16c.1-.11.21-.29.35-.55s.28-.46.44-.59.35-.21.58-.21c.29,0,.54.1.74.3.2.2.3.45.3.74,0,.2-.04.38-.13.56-.09.18-.21.33-.36.46l-.31-.28c.26-.23.38-.47.38-.72,0-.18-.06-.33-.18-.46s-.25-.19-.41-.19-.29.06-.39.17c-.1.11-.22.29-.35.55-.13.26-.27.45-.43.58-.15.13-.35.19-.6.19s-.45-.09-.63-.27c-.17-.18-.26-.42-.26-.71s.16-.6.47-.92h.01Z"/><path d="m2.75,47.31c-.1,0-.19-.04-.26-.11-.07-.07-.11-.16-.11-.26s.04-.19.11-.26.16-.11.26-.11.19.04.26.11c.07.07.11.16.11.26s-.04.19-.11.26-.16.11-.25.11h-.01Zm.96-.14v-.45h3.45v.45h-3.45Z"/><path d="m6.61,44.96c.12,0,.19-.02.21-.05s.03-.11.03-.23v-.27h.38c.03.18.05.33.05.43,0,.19-.05.34-.14.43s-.24.14-.45.14h-2.6v.61h-.38v-.61h-1.33v-.45h1.33v-.7h.38v.7h2.53,0Z"/><path d="m3.71,43.97v-.47l2.66-1.19-2.66-1.15v-.47l4.71,2.06v.47l-1.52-.66-3.19,1.42h0Z"/><path d="m139.68,62.51h-4.67v-.97c0-.66.05-1.15.15-1.46s.25-.58.46-.8c.21-.23.47-.4.77-.52s.66-.18,1.06-.18.79.09,1.14.28.63.44.81.77c.18.32.27.79.27,1.39v1.49h0Zm-.44-.45v-.54c0-.56-.03-.97-.08-1.22-.06-.25-.17-.48-.33-.67-.17-.19-.37-.34-.61-.44s-.51-.15-.82-.15-.59.06-.85.17c-.26.11-.47.28-.64.49s-.28.46-.34.75-.09.71-.09,1.27v.33h3.77,0Z"/><path d="m138.56,54.84l.2-.38c.69.37,1.04.92,1.04,1.65,0,.52-.18.95-.54,1.29s-.79.51-1.29.51-.93-.17-1.29-.51-.54-.76-.54-1.26.17-.92.5-1.26.79-.52,1.37-.53v3.11c.42-.01.75-.14,1-.39s.38-.55.38-.91c0-.58-.28-1.02-.83-1.31h0Zm-.94,0c-.33.06-.59.21-.77.46-.19.24-.28.52-.28.84,0,.65.35,1.08,1.05,1.27v-2.57h0Z"/><path d="m136.23,53.53v-.45h.62c-.47-.36-.71-.79-.71-1.29,0-.26.07-.49.21-.7s.32-.35.55-.44.56-.13,1-.13h1.77v.44h-1.64c-.4,0-.68.02-.82.06-.14.04-.26.09-.36.17s-.18.17-.23.29-.08.26-.08.43.04.33.12.49.2.3.34.41c.15.11.3.19.46.23s.47.06.94.06h1.27v.45h-3.45v-.02Z"/><path d="m136.61,47.83l.29.29c-.23.24-.34.47-.34.7,0,.15.05.27.14.37s.21.15.35.15.25-.05.35-.16c.1-.11.21-.29.35-.55s.28-.46.44-.59.35-.21.58-.21c.29,0,.54.1.74.3.2.2.3.45.3.74,0,.2-.04.38-.13.56-.09.18-.21.33-.36.46l-.31-.28c.26-.23.38-.47.38-.72,0-.18-.06-.33-.18-.46s-.25-.19-.41-.19-.29.06-.39.17c-.1.11-.22.29-.35.55-.13.26-.27.45-.43.58-.15.13-.35.19-.6.19s-.45-.09-.63-.27-.26-.42-.26-.71.16-.6.47-.92h0Z"/><path d="m135.27,47.25c-.1,0-.19-.04-.26-.11-.07-.07-.11-.16-.11-.26s.04-.19.11-.26.16-.11.26-.11.19.04.26.11c.07.07.11.16.11.26s-.04.19-.11.26-.16.11-.25.11h0Zm.96-.14v-.45h3.45v.45h-3.45Z"/><path d="m139.14,44.9c.12,0,.19-.02.21-.05s.03-.11.03-.23v-.27h.38c.03.18.05.33.05.43,0,.19-.05.34-.14.43s-.24.14-.45.14h-2.6v.61h-.38v-.61h-1.33v-.45h1.33v-.7h.38v.7h2.53-.01Z"/><path d="m136.23,43.91v-.47l2.66-1.19-2.66-1.15v-.47l4.71,2.06v.47l-1.52-.66-3.19,1.42h0Z"/><path d="m272.44,62.68h-4.67v-.97c0-.66.05-1.15.15-1.46s.25-.58.46-.8.47-.4.77-.52.66-.18,1.06-.18.79.09,1.14.28.63.44.81.77c.18.32.27.79.27,1.39v1.49h.01Zm-.44-.45v-.54c0-.56-.03-.97-.08-1.22-.06-.25-.17-.48-.33-.67-.17-.19-.37-.34-.61-.44s-.51-.15-.82-.15-.59.06-.85.17c-.26.11-.47.28-.64.49s-.28.46-.34.75-.09.71-.09,1.27v.33h3.77-.01Z"/><path d="m271.32,55.01l.19-.38c.69.37,1.04.92,1.04,1.65,0,.52-.18.95-.54,1.29s-.79.51-1.29.51-.93-.17-1.29-.51c-.36-.34-.54-.76-.54-1.26s.17-.92.5-1.26.79-.52,1.37-.53v3.11c.42-.01.75-.14,1-.39s.38-.55.38-.91c0-.58-.28-1.02-.83-1.31h.01Zm-.94,0c-.33.06-.59.21-.77.46-.19.24-.28.52-.28.84,0,.65.35,1.08,1.05,1.27v-2.57h0Z"/><path d="m268.99,53.7v-.45h.62c-.47-.36-.71-.79-.71-1.29,0-.26.07-.49.21-.7s.33-.35.55-.44.56-.13,1-.13h1.77v.44h-1.64c-.4,0-.68.02-.82.06s-.26.09-.36.17-.18.17-.23.29-.08.26-.08.43.04.33.12.49.2.3.34.41c.15.11.3.19.46.23s.47.06.94.06h1.27v.45h-3.45v-.02Z"/><path d="m269.36,48l.29.29c-.23.24-.34.47-.34.7,0,.15.05.27.14.37.09.1.21.15.34.15s.25-.05.35-.16c.1-.11.21-.29.35-.55.14-.26.28-.46.44-.59s.35-.21.58-.21c.29,0,.54.1.73.3s.3.45.3.74c0,.2-.04.38-.13.56s-.21.33-.36.46l-.31-.28c.26-.23.38-.47.38-.72,0-.18-.06-.33-.18-.46s-.25-.19-.41-.19-.29.06-.39.17-.22.29-.35.55c-.13.26-.27.45-.43.58-.15.13-.35.19-.6.19s-.45-.09-.63-.27c-.17-.18-.26-.42-.26-.71s.16-.6.47-.92h.02Z"/><path d="m268.02,47.42c-.1,0-.19-.04-.26-.11-.07-.07-.11-.16-.11-.26s.04-.19.11-.26c.07-.07.16-.11.26-.11s.19.04.26.11.11.16.11.26-.04.19-.11.26c-.07.07-.16.11-.25.11h-.01Zm.96-.14v-.45h3.45v.45h-3.45Z"/><path d="m271.89,45.07c.12,0,.19-.02.21-.05s.03-.11.03-.23v-.27h.38c.03.18.04.33.04.43,0,.19-.05.34-.14.43-.1.09-.25.14-.45.14h-2.6v.61h-.38v-.61h-1.33v-.45h1.33v-.7h.38v.7h2.53Z"/><path d="m268.99,44.08v-.47l2.66-1.19-2.66-1.15v-.47l4.71,2.06v.47l-1.52-.66-3.19,1.42h0Z"/><path d="m10.92,99.38c-.43,0-.75-.18-.98-.53s-.34-.87-.34-1.55.12-1.2.34-1.55c.23-.35.55-.53.98-.53s.76.18,1,.54c.25.36.37.87.37,1.54s-.12,1.18-.37,1.54-.58.54-1,.54h0Zm.01-3.77c-.3,0-.54.15-.71.44-.17.29-.25.72-.25,1.27,0,1.14.32,1.71.96,1.71.31,0,.55-.15.73-.45s.26-.72.26-1.27-.09-.97-.27-1.26-.42-.44-.72-.44h0Z"/><path d="m35.52,97.48h-2.75v-.33h2.75v.33Z"/><path d="m36.52,99.38l-.32-.21,1.07-1.62c-.14.05-.28.07-.41.07-.32,0-.58-.11-.79-.34s-.32-.51-.32-.85.12-.62.36-.86c.24-.23.53-.35.88-.35s.63.12.86.35c.23.24.34.52.34.85,0,.18-.04.37-.11.55s-.19.39-.33.6l-1.2,1.79-.03.02Zm-.4-2.93c0,.23.08.43.24.59s.36.24.59.24.43-.08.59-.24.24-.36.24-.59-.08-.42-.24-.59-.36-.25-.59-.25-.43.08-.59.24-.24.36-.24.59h0Z"/><path d="m40.02,99.38c-.43,0-.75-.18-.98-.53s-.34-.87-.34-1.55.12-1.2.34-1.55c.23-.35.55-.53.98-.53s.76.18,1,.54c.25.36.37.87.37,1.54s-.12,1.18-.37,1.54-.58.54-1,.54h0Zm0-3.77c-.3,0-.54.15-.71.44s-.25.72-.25,1.27c0,1.14.32,1.71.96,1.71.31,0,.55-.15.73-.45s.26-.72.26-1.27-.09-.97-.27-1.26-.42-.44-.72-.44h0Z"/><path d="m61.81,97.21h-1.48v1.38h-.35v-1.38h-1.49v-.34h1.49v-1.29h.35v1.29h1.48v.34Zm0,2.25h-3.32v-.34h3.32v.34Z"/><path d="m63.13,95.33h.78v3.95h-.39v-3.56h-.62l.24-.38h0Z"/><path d="m67.27,97.11c.5.25.75.59.75,1.03,0,.35-.12.65-.37.88s-.57.35-.97.35-.72-.12-.97-.35c-.24-.23-.36-.52-.36-.85,0-.46.25-.82.76-1.07-.38-.21-.58-.49-.58-.85,0-.27.11-.51.34-.72.23-.21.5-.31.82-.31s.59.1.81.3.34.45.34.74c0,.35-.19.63-.57.84h0Zm.35,1.04c0-.22-.09-.42-.27-.59-.18-.17-.4-.25-.66-.25s-.48.09-.67.26c-.19.17-.28.38-.28.62s.09.43.26.59c.17.15.4.23.68.23s.51-.08.68-.25.26-.37.26-.6h0Zm-.18-1.9c0-.18-.07-.33-.21-.45s-.32-.19-.54-.19-.4.06-.55.19c-.14.13-.21.28-.21.46s.08.34.23.48c.16.14.33.21.53.21s.37-.07.52-.21c.15-.14.22-.3.22-.49h.01Z"/><path d="m69.66,99.38c-.43,0-.75-.18-.98-.53s-.34-.87-.34-1.55.12-1.2.34-1.55c.23-.35.55-.53.98-.53s.76.18,1,.54c.25.36.37.87.37,1.54s-.12,1.18-.37,1.54-.58.54-1,.54h0Zm.01-3.77c-.3,0-.54.15-.71.44s-.25.72-.25,1.27c0,1.14.32,1.71.96,1.71.31,0,.55-.15.73-.45s.26-.72.26-1.27-.09-.97-.27-1.26-.42-.44-.72-.44h0Z"/><path d="m87.18,97.12v-1.16h.36v1.16h1.18v.37h-1.18v1.17h-.36v-1.17h-1.18v-.37h1.18Z"/><path d="m90.09,99.38l-.32-.21,1.07-1.62c-.14.05-.28.07-.41.07-.32,0-.58-.11-.79-.34s-.32-.51-.32-.85.12-.62.36-.86c.24-.23.53-.35.88-.35s.63.12.86.35c.23.24.34.52.34.85,0,.18-.04.37-.11.55s-.19.39-.33.6l-1.2,1.79-.03.02Zm-.4-2.93c0,.23.08.43.24.59.16.16.36.24.59.24s.43-.08.59-.24.24-.36.24-.59-.08-.42-.24-.59-.36-.25-.59-.25-.43.08-.59.24-.24.36-.24.59h0Z"/><path d="m93.58,99.38c-.43,0-.75-.18-.98-.53s-.34-.87-.34-1.55.12-1.2.34-1.55c.23-.35.55-.53.98-.53s.76.18,1,.54c.25.36.37.87.37,1.54s-.12,1.18-.37,1.54-.58.54-1,.54h0Zm.01-3.77c-.3,0-.54.15-.71.44s-.25.72-.25,1.27c0,1.14.32,1.71.96,1.71.31,0,.55-.15.73-.45s.26-.72.26-1.27-.09-.97-.27-1.26-.42-.44-.72-.44h0Z"/><path d="m116.8,99.38c-.43,0-.75-.18-.98-.53s-.34-.87-.34-1.55.12-1.2.34-1.55c.23-.35.55-.53.98-.53s.76.18,1,.54c.25.36.37.87.37,1.54s-.12,1.18-.37,1.54-.58.54-1,.54h0Zm0-3.77c-.3,0-.54.15-.71.44-.17.29-.25.72-.25,1.27,0,1.14.32,1.71.96,1.71.31,0,.55-.15.73-.45s.26-.72.26-1.27-.09-.97-.27-1.26-.42-.44-.72-.44h0Z"/><path d="m39.44,106.2l-.36.28c-.43-.54-.99-.81-1.67-.81-.55,0-1.03.2-1.43.59-.4.39-.6.87-.6,1.43s.2,1.04.59,1.42.88.57,1.47.57c.66,0,1.21-.26,1.64-.77l.36.28c-.23.3-.52.53-.87.69s-.74.24-1.16.24c-.74,0-1.35-.23-1.82-.7s-.71-1.06-.71-1.77c0-.44.11-.85.33-1.23s.52-.67.91-.88.81-.32,1.25-.32.85.08,1.2.25.65.41.87.73Z"/><path d="m40.14,108.3c0-.51.17-.94.52-1.3.35-.36.77-.54,1.27-.54s.92.18,1.27.54c.35.36.52.79.52,1.29s-.17.93-.52,1.29c-.34.36-.77.54-1.28.54s-.93-.18-1.28-.54c-.35-.36-.52-.79-.52-1.28h.02Zm3.15,0c0-.38-.13-.71-.4-.99-.27-.28-.58-.42-.95-.42s-.68.14-.95.42c-.26.28-.4.61-.4,1s.13.71.38.98c.26.27.57.4.95.4s.7-.14.96-.41c.26-.27.39-.6.39-.98h.02Z"/><path d="m47.53,110h-.45v-.62c-.36.47-.79.71-1.29.71-.26,0-.49-.07-.7-.21-.21-.14-.36-.33-.44-.55-.09-.23-.13-.56-.13-1v-1.77h.44v1.64c0,.4.02.68.06.82s.09.26.17.36c.08.1.17.18.29.23.12.05.26.08.43.08s.33-.04.49-.12c.16-.08.3-.2.41-.34.11-.15.19-.3.23-.46s.06-.47.06-.94v-1.27h.45v3.45h-.02Z"/><path d="m48.35,106.55h.46v.5c.12-.2.24-.35.35-.45.12-.1.24-.14.38-.14s.28.04.43.12l-.23.38c-.07-.04-.13-.06-.2-.06-.13,0-.26.07-.38.21s-.21.32-.26.54c-.06.22-.08.62-.08,1.19v1.17h-.46v-3.45h0Z"/><path d="m52.18,106.93l-.29.29c-.24-.23-.47-.34-.7-.34-.15,0-.27.05-.37.14-.1.09-.15.21-.15.34s.05.25.16.35.29.21.55.35.46.28.59.44.21.35.21.58c0,.29-.1.54-.3.73-.2.2-.45.3-.74.3-.2,0-.38-.04-.56-.13s-.33-.21-.46-.36l.28-.31c.23.26.47.38.72.38.18,0,.33-.06.46-.18s.19-.25.19-.41-.06-.29-.17-.39-.29-.22-.55-.35-.45-.27-.58-.43-.19-.35-.19-.6.09-.45.27-.63.42-.26.71-.26.6.16.92.47v.02Z"/><path d="m55.87,108.89l.38.19c-.37.69-.92,1.04-1.65,1.04-.52,0-.95-.18-1.29-.54-.34-.36-.51-.79-.51-1.29s.17-.93.51-1.29c.34-.36.76-.54,1.26-.54s.92.17,1.26.5c.34.33.52.79.53,1.37h-3.11c.01.42.14.75.39,1s.55.38.91.38c.58,0,1.02-.27,1.31-.83h.01Zm0-.94c-.06-.33-.21-.59-.46-.77-.24-.19-.52-.28-.84-.28-.65,0-1.08.35-1.27,1.05,0,0,2.57,0,2.57,0Z"/><path d="m62.26,105.22v4.78h-.44v-.59c-.39.47-.85.71-1.36.71s-.94-.18-1.28-.54-.52-.79-.52-1.29.17-.93.53-1.29c.35-.36.77-.54,1.26-.54.56,0,1.02.24,1.37.72v-1.96h.44,0Zm-.41,3.08c0-.39-.13-.73-.39-1s-.58-.41-.98-.41-.72.14-.98.42-.39.61-.39.99.13.71.4.99.59.42.95.42.69-.13.96-.4c.28-.27.42-.6.42-1.01h.01Z"/><path d="m63.06,105.59c0-.1.04-.19.11-.26s.16-.11.26-.11.19.04.26.11c.07.07.11.16.11.26s-.04.19-.11.26-.16.11-.26.11-.19-.04-.26-.11c-.07-.07-.11-.16-.11-.25h0Zm.14.96h.45v3.45h-.45v-3.45Z"/><path d="m64.4,106.55h.46v.5c.12-.2.24-.35.35-.45.12-.1.24-.14.38-.14s.28.04.43.12l-.23.38c-.07-.04-.13-.06-.2-.06-.13,0-.26.07-.38.21s-.21.32-.26.54c-.06.22-.08.62-.08,1.19v1.17h-.46v-3.45h0Z"/><path d="m69.34,108.89l.38.19c-.37.69-.92,1.04-1.65,1.04-.52,0-.95-.18-1.29-.54-.34-.36-.51-.79-.51-1.29s.17-.93.51-1.29c.34-.36.76-.54,1.26-.54s.92.17,1.26.5c.34.33.52.79.53,1.37h-3.11c.01.42.14.75.39,1s.55.38.91.38c.58,0,1.02-.27,1.31-.83h.01Zm0-.94c-.06-.33-.21-.59-.46-.77-.24-.19-.52-.28-.84-.28-.65,0-1.08.35-1.27,1.05,0,0,2.57,0,2.57,0Z"/><path d="m74.03,107.27l-.35.22c-.3-.4-.72-.6-1.25-.6-.42,0-.76.13-1.05.4-.28.27-.42.6-.42.99s.14.73.42,1.01.63.42,1.05.42c.51,0,.92-.2,1.25-.6l.35.23c-.17.25-.41.44-.7.58-.29.13-.61.2-.95.2-.53,0-.98-.18-1.33-.53-.36-.35-.54-.78-.54-1.29s.18-.94.54-1.3.83-.54,1.39-.54c.33,0,.64.07.93.21.28.14.5.34.65.59h0Z"/><path d="m75.7,109.46c0,.12.02.19.05.21.03.02.11.03.23.03h.27v.38c-.18.03-.33.05-.43.05-.19,0-.34-.05-.43-.14s-.14-.24-.14-.45v-2.6h-.61v-.38h.61v-1.33h.45v1.33h.7v.38h-.7v2.53h0Z"/><path d="m76.86,105.59c0-.1.04-.19.11-.26s.16-.11.26-.11.19.04.26.11c.07.07.11.16.11.26s-.04.19-.11.26-.16.11-.26.11-.19-.04-.26-.11c-.07-.07-.11-.16-.11-.25h0Zm.14.96h.45v3.45h-.45v-3.45Z"/><path d="m78.21,108.3c0-.51.17-.94.52-1.3s.77-.54,1.27-.54.92.18,1.27.54c.35.36.52.79.52,1.29s-.17.93-.52,1.29c-.34.36-.77.54-1.28.54s-.93-.18-1.28-.54c-.35-.36-.52-.79-.52-1.28h.02Zm3.15,0c0-.38-.13-.71-.4-.99-.27-.28-.58-.42-.95-.42s-.68.14-.95.42c-.26.28-.4.61-.4,1s.13.71.38.98c.26.27.57.4.95.4s.7-.14.96-.41.39-.6.39-.98h.02Z"/><path d="m82.63,106.55h.45v.62c.36-.47.79-.71,1.29-.71.26,0,.49.07.7.21s.35.32.44.55.13.56.13,1v1.77h-.44v-1.64c0-.4-.02-.68-.06-.82s-.09-.26-.17-.36-.17-.18-.29-.23c-.12-.05-.26-.08-.43-.08s-.33.04-.49.12-.3.2-.41.34c-.11.15-.19.3-.23.46s-.06.47-.06.94v1.27h-.45v-3.45h.02Z"/><path d="m89.21,104.94h.52c-.22.45-.39.96-.51,1.53s-.18,1.14-.18,1.72c0,1.13.18,2.13.53,2.98h-.49c-.34-.84-.51-1.82-.51-2.92,0-1.2.21-2.3.64-3.3h0Z"/><path d="m91.77,105.18c.22,0,.4.08.56.23s.24.34.24.56-.08.4-.24.56c-.16.16-.35.23-.56.23s-.4-.08-.56-.23c-.16-.16-.23-.34-.23-.56s.08-.4.23-.56.34-.23.56-.23Zm0,1.29c.14,0,.26-.05.36-.15s.15-.22.15-.35-.05-.26-.15-.35c-.1-.1-.22-.15-.36-.15s-.26.05-.35.15c-.1.1-.15.22-.15.35s.05.26.15.35c.1.1.22.15.35.15Z"/><path d="m97.53,104.94c.43,1,.64,2.1.64,3.3,0,1.11-.17,2.08-.51,2.92h-.49c.36-.86.53-1.85.53-2.98,0-.58-.06-1.15-.18-1.72s-.29-1.08-.51-1.53h.52Z"/><path d="m27.83,5.57l-.36.28c-.43-.54-.99-.81-1.67-.81-.55,0-1.03.2-1.43.59-.4.39-.6.87-.6,1.43s.2,1.04.59,1.42.88.57,1.47.57c.66,0,1.21-.26,1.64-.77l.36.28c-.23.3-.52.53-.87.69s-.74.24-1.16.24c-.74,0-1.35-.23-1.82-.7s-.71-1.06-.71-1.77c0-.44.11-.85.33-1.23s.52-.67.91-.88.81-.32,1.25-.32.85.08,1.2.25.65.41.87.73Z"/><path d="m28.53,7.67c0-.51.17-.94.52-1.3.35-.36.77-.54,1.27-.54s.92.18,1.27.54c.35.36.52.79.52,1.29s-.17.93-.52,1.29c-.34.36-.77.54-1.28.54s-.93-.18-1.28-.54c-.35-.36-.52-.79-.52-1.28h.02Zm3.15,0c0-.38-.13-.71-.4-.99s-.58-.42-.95-.42-.68.14-.95.42c-.26.28-.4.61-.4,1s.13.71.38.98c.26.27.57.4.95.4s.7-.14.96-.41.39-.6.39-.98h.02Z"/><path d="m32.95,5.92h.45v.62c.36-.47.79-.71,1.29-.71.26,0,.49.07.7.21s.35.32.44.55.13.56.13,1v1.77h-.44v-1.64c0-.4-.02-.68-.06-.82s-.09-.26-.17-.36-.17-.18-.29-.23c-.12-.05-.26-.08-.43-.08s-.33.04-.49.12-.3.2-.41.34c-.11.15-.19.3-.23.46s-.06.47-.06.94v1.27h-.45v-3.45h.02Z"/><path d="m38.65,6.3l-.29.29c-.24-.23-.47-.34-.7-.34-.15,0-.27.05-.37.14-.1.09-.15.21-.15.34s.05.25.16.35.29.21.55.35.46.28.59.44.21.35.21.58c0,.29-.1.54-.3.73-.2.2-.45.3-.74.3-.2,0-.38-.04-.56-.13s-.33-.21-.46-.36l.28-.31c.23.26.47.38.72.38.18,0,.33-.06.46-.18.13-.12.19-.25.19-.41s-.06-.29-.17-.39c-.11-.1-.29-.22-.55-.35s-.45-.27-.58-.43-.19-.35-.19-.6.09-.45.27-.63.42-.26.71-.26.6.16.92.47v.02Z"/><path d="m40.28,8.83c0,.12.02.19.05.21s.11.03.23.03h.27v.38c-.18.03-.33.05-.43.05-.19,0-.34-.05-.43-.14s-.14-.24-.14-.45v-2.6h-.61v-.38h.61v-1.33h.45v1.33h.7v.38h-.7v2.53h0Z"/><path d="m45.11,5.92v3.45h-.44v-.59c-.39.47-.84.71-1.35.71s-.93-.18-1.28-.54-.52-.79-.52-1.29.18-.93.53-1.29c.35-.36.77-.54,1.26-.54.56,0,1.02.24,1.37.72v-.63h.44-.01Zm-.41,1.74c0-.39-.13-.73-.4-1-.26-.27-.59-.41-.97-.41s-.71.14-.97.42c-.26.28-.4.61-.4.99s.13.71.4.99.59.42.96.42.7-.13.97-.4.4-.61.4-1.01h.01Z"/><path d="m46.12,5.92h.45v.62c.36-.47.79-.71,1.29-.71.26,0,.49.07.7.21s.35.32.44.55.13.56.13,1v1.77h-.44v-1.64c0-.4-.02-.68-.06-.82s-.09-.26-.17-.36-.17-.18-.29-.23c-.12-.05-.26-.08-.43-.08s-.33.04-.49.12-.3.2-.41.34c-.11.15-.19.3-.23.46s-.06.47-.06.94v1.27h-.45v-3.45h.02Z"/><path d="m50.92,8.83c0,.12.02.19.05.21.03.02.11.03.23.03h.27v.38c-.18.03-.33.05-.43.05-.19,0-.34-.05-.43-.14s-.14-.24-.14-.45v-2.6h-.61v-.38h.61v-1.33h.45v1.33h.7v.38h-.7v2.53h0Z"/><path d="m54.9,4.31h.52c-.22.45-.39.96-.51,1.53s-.18,1.14-.18,1.72c0,1.13.18,2.13.53,2.98h-.49c-.34-.84-.51-1.82-.51-2.92,0-1.2.21-2.3.64-3.3h0Z"/><path d="m55.03,9.37v-4.67h.1l3.1,3.58v-3.58h.46v4.67h-.1l-3.08-3.53v3.53s-.48,0-.48,0Z"/><path d="m64.36,6.12v.44h-3.21v-.44h3.21Zm0,1.4v.44h-3.21v-.44h3.21Z"/><path d="m69.12,4.59h.09v3.25h.57v.45h-.57v1.09h-.46v-1.09h-2.24l2.61-3.7Zm-.37,3.25v-1.94l-1.38,1.94h1.38Z"/><path d="m70.83,8.51l.43.2-.64,1.2-.32-.14.53-1.27h0Z"/><path d="m74.2,4.59h.09v3.25h.57v.45h-.57v1.09h-.46v-1.09h-2.24l2.61-3.7Zm-.37,3.25v-1.94l-1.38,1.94h1.38Z"/><path d="m76.28,9.49l-.38-.25,1.26-1.91c-.17.06-.33.08-.49.08-.37,0-.69-.13-.94-.4s-.38-.6-.38-1,.14-.74.42-1.01c.28-.27.63-.41,1.04-.41s.75.14,1.01.42c.27.28.4.61.4,1,0,.22-.04.43-.13.65s-.22.46-.39.71l-1.42,2.11h0Zm-.47-3.46c0,.27.1.5.29.7.19.19.42.29.7.29s.5-.1.7-.29c.19-.19.29-.42.29-.69s-.09-.5-.29-.69c-.19-.19-.42-.29-.7-.29s-.5.1-.7.29c-.19.19-.29.42-.29.7v-.02Z"/><path d="m79.84,4.7h.92v4.67h-.46v-4.21h-.73l.28-.46h0Z"/><path d="m83.05,8.51l.43.2-.64,1.2-.32-.14.53-1.27h0Z"/><path d="m85.9,4.7h2.68v.46h-2.21v1.46h2.19v.46h-2.19v1.83h2.19v.46h-2.66v-4.67h0Z"/><path d="m94.25,6.12v.44h-3.21v-.44h3.21Zm0,1.4v.44h-3.21v-.44h3.21Z"/><path d="m97.09,5.78h-.47c.09-.39.25-.68.5-.89.25-.21.54-.31.9-.31s.66.12.92.35c.26.23.39.52.39.85,0,.4-.2.72-.6.96.27.11.48.28.63.5s.22.47.22.73c0,.41-.15.77-.45,1.06-.3.3-.68.45-1.14.45-.41,0-.74-.12-1.01-.35s-.44-.57-.53-1.02h.46c.08.31.21.54.38.69s.41.22.72.22.57-.1.79-.3c.21-.2.32-.45.32-.74s-.12-.53-.35-.71c-.23-.18-.57-.27-1.02-.28v-.43c.32,0,.58-.07.78-.22s.3-.33.3-.55-.08-.4-.24-.55c-.16-.15-.36-.22-.59-.22s-.42.06-.56.19c-.14.12-.26.31-.36.56h0Z"/><path d="m100.67,5.78h-.47c.09-.39.25-.68.5-.89.25-.21.54-.31.9-.31s.66.12.92.35c.26.23.39.52.39.85,0,.4-.2.72-.6.96.27.11.48.28.63.5s.22.47.22.73c0,.41-.15.77-.45,1.06-.3.3-.68.45-1.14.45-.41,0-.74-.12-1.01-.35s-.44-.57-.53-1.02h.46c.08.31.21.54.38.69s.41.22.72.22.57-.1.79-.3c.21-.2.32-.45.32-.74s-.12-.53-.35-.71c-.23-.18-.57-.27-1.02-.28v-.43c.32,0,.58-.07.78-.22s.3-.33.3-.55-.08-.4-.24-.55c-.16-.15-.36-.22-.59-.22s-.42.06-.56.19c-.14.12-.26.31-.36.56h0Z"/><path d="m104.32,4.31c.43,1,.64,2.1.64,3.3,0,1.11-.17,2.08-.51,2.92h-.49c.36-.86.53-1.85.53-2.98,0-.58-.06-1.15-.18-1.72s-.29-1.08-.51-1.53h.52Z"/><path d="m150.08,8.5l.4-.23c.28.51.6.77.97.77.24,0,.44-.08.61-.23.17-.15.25-.34.25-.57,0-.18-.07-.36-.21-.54-.14-.18-.38-.4-.71-.65s-.55-.44-.67-.56c-.11-.12-.2-.26-.25-.4-.05-.14-.08-.28-.08-.43,0-.3.11-.56.32-.77s.48-.31.81-.31c.26,0,.48.06.67.19s.38.32.55.57l-.38.29c-.12-.16-.25-.3-.38-.41-.13-.11-.29-.16-.48-.16s-.34.06-.46.17-.18.26-.18.43.05.32.16.45.35.33.72.61.65.53.82.77c.17.23.26.48.26.74,0,.34-.13.63-.39.88s-.57.37-.91.37c-.61,0-1.09-.33-1.43-.99h0Z"/><path d="m153.2,5.92h.46l1.05,2.62,1.11-2.62h.08l1.1,2.62,1.07-2.62h.47l-1.5,3.57h-.08l-1.1-2.59-1.11,2.59h-.08l-1.48-3.57h0Z"/><path d="m158.87,4.96c0-.1.04-.19.11-.26s.16-.11.26-.11.19.04.26.11c.07.07.11.16.11.26s-.04.19-.11.26-.16.11-.26.11-.19-.04-.26-.11c-.07-.07-.11-.16-.11-.25h0Zm.14.96h.45v3.45h-.45v-3.45Z"/><path d="m161.21,8.83c0,.12.02.19.05.21s.11.03.23.03h.27v.38c-.18.03-.33.05-.43.05-.19,0-.34-.05-.43-.14s-.14-.24-.14-.45v-2.6h-.61v-.38h.61v-1.33h.45v1.33h.7v.38h-.7v2.53h0Z"/><path d="m165.95,6.64l-.35.22c-.3-.4-.72-.6-1.25-.6-.42,0-.76.13-1.05.4-.28.27-.42.6-.42.99s.14.73.42,1.01.63.42,1.05.42c.51,0,.92-.2,1.25-.6l.35.23c-.17.25-.41.44-.7.58-.29.13-.61.2-.95.2-.53,0-.98-.18-1.33-.53-.36-.35-.54-.78-.54-1.29s.18-.94.54-1.3.83-.54,1.39-.54c.33,0,.64.07.93.21.28.14.5.34.65.59h.01Z"/><path d="m166.78,4.59h.45v1.95c.36-.47.79-.71,1.29-.71.26,0,.49.07.7.21s.35.32.44.55.13.56.13,1v1.77h-.45v-1.64c0-.35,0-.6-.03-.73s-.07-.26-.14-.38c-.07-.12-.17-.21-.3-.28-.12-.06-.27-.09-.45-.09s-.34.04-.5.12-.3.2-.41.34c-.11.15-.19.3-.23.46s-.06.47-.06.94v1.27h-.45v-4.78h0Z"/><path d="m170.46,7.36h1.74v.45h-1.74v-.45Z"/><path d="m172.74,7.67c0-.51.17-.94.52-1.3s.77-.54,1.27-.54.92.18,1.27.54c.35.36.52.79.52,1.29s-.17.93-.52,1.29c-.34.36-.77.54-1.28.54s-.93-.18-1.28-.54c-.35-.36-.52-.79-.52-1.28h.02Zm3.15,0c0-.38-.13-.71-.4-.99-.27-.28-.58-.42-.95-.42s-.68.14-.95.42c-.26.28-.4.61-.4,1s.13.71.38.98c.26.27.57.4.95.4s.7-.14.96-.41c.26-.27.39-.6.39-.98h.02Z"/><path d="m177.16,5.92h.45v.62c.36-.47.79-.71,1.29-.71.26,0,.49.07.7.21s.35.32.44.55.13.56.13,1v1.77h-.44v-1.64c0-.4-.02-.68-.06-.82s-.09-.26-.17-.36-.17-.18-.29-.23c-.12-.05-.26-.08-.43-.08s-.33.04-.49.12-.3.2-.41.34c-.11.15-.19.3-.23.46s-.06.47-.06.94v1.27h-.45v-3.45h.02Z"/><path d="m184.5,6.64l-.35.22c-.3-.4-.72-.6-1.25-.6-.42,0-.76.13-1.05.4-.28.27-.42.6-.42.99s.14.73.42,1.01.63.42,1.05.42c.51,0,.92-.2,1.25-.6l.35.23c-.17.25-.41.44-.7.58-.29.13-.61.2-.95.2-.53,0-.98-.18-1.33-.53-.36-.35-.54-.78-.54-1.29s.18-.94.54-1.3.83-.54,1.39-.54c.33,0,.64.07.93.21.28.14.5.34.65.59h.01Z"/><path d="m188.24,8.25l.38.19c-.37.69-.92,1.04-1.65,1.04-.52,0-.95-.18-1.29-.54-.34-.36-.51-.79-.51-1.29s.17-.93.51-1.29c.34-.36.76-.54,1.26-.54s.92.17,1.26.5.52.79.53,1.37h-3.11c0,.42.14.75.39,1s.55.38.91.38c.58,0,1.02-.27,1.31-.83h0Zm0-.94c-.06-.33-.21-.59-.46-.77-.24-.19-.52-.28-.84-.28-.65,0-1.08.35-1.27,1.05h2.57Z"/><path d="m192.18,4.31h.52c-.22.45-.39.96-.51,1.53s-.18,1.14-.18,1.72c0,1.13.18,2.13.53,2.98h-.49c-.34-.84-.51-1.82-.51-2.92,0-1.2.21-2.3.64-3.3h0Z"/><path d="m192.5,9.37v-4.67h.1l3.1,3.58v-3.58h.46v4.67h-.1l-3.08-3.53v3.53h-.48Z"/><path d="m201.83,6.12v.44h-3.21v-.44h3.21Zm0,1.4v.44h-3.21v-.44h3.21Z"/><path d="m206.2,4.59l.38.25-1.26,1.91c.18-.06.35-.09.51-.09.35,0,.65.14.91.41.26.28.39.61.39,1.01s-.14.73-.43,1c-.28.27-.63.41-1.03.41s-.74-.14-1.01-.42-.41-.62-.41-1.01c0-.19.04-.39.11-.59.07-.2.21-.46.42-.77l1.42-2.11h0Zm.47,3.46c0-.27-.1-.5-.29-.7-.19-.19-.42-.29-.7-.29s-.5.1-.7.29c-.19.19-.29.42-.29.7s.1.5.29.7c.19.19.42.29.69.29s.5-.1.69-.29.29-.42.29-.7h.02Z"/><path d="m208.2,8.51l.43.2-.64,1.2-.32-.14.53-1.27h0Z"/><path d="m211.58,4.59h.09v3.25h.57v.45h-.57v1.09h-.46v-1.09h-2.24l2.61-3.7h0Zm-.37,3.25v-1.94l-1.38,1.94h1.38Z"/><path d="m214.8,4.59l.38.25-1.26,1.91c.18-.06.35-.09.51-.09.35,0,.65.14.91.41.26.28.39.61.39,1.01s-.14.73-.43,1c-.28.27-.63.41-1.03.41s-.74-.14-1.01-.42-.41-.62-.41-1.01c0-.19.04-.39.11-.59.07-.2.21-.46.42-.77l1.42-2.11h0Zm.47,3.46c0-.27-.1-.5-.29-.7-.19-.19-.42-.29-.7-.29s-.5.1-.7.29c-.19.19-.29.42-.29.7s.1.5.29.7c.19.19.42.29.69.29s.5-.1.69-.29.29-.42.29-.7h.02Z"/><path d="m216.36,4.7h2.96l-2.5,4.78-.38-.19,2.16-4.15h-2.24v-.44Z"/><path d="m219.78,8.51l.43.2-.64,1.2-.32-.14.53-1.27h0Z"/><path d="m223.45,4.7h2.68v.46h-2.21v1.46h2.19v.46h-2.19v1.83h2.19v.46h-2.66v-4.67h0Z"/><path d="m231.79,6.12v.44h-3.21v-.44h3.21Zm0,1.4v.44h-3.21v-.44h3.21Z"/><path d="m236.17,4.59l.38.25-1.26,1.91c.18-.06.35-.09.51-.09.35,0,.65.14.91.41.26.28.39.61.39,1.01s-.14.73-.43,1c-.28.27-.63.41-1.03.41s-.74-.14-1.01-.42-.41-.62-.41-1.01c0-.19.04-.39.11-.59.07-.2.21-.46.42-.77l1.42-2.11h0Zm.47,3.46c0-.27-.1-.5-.29-.7-.19-.19-.42-.29-.7-.29s-.5.1-.7.29c-.19.19-.29.42-.29.7s.1.5.29.7c.19.19.42.29.69.29s.5-.1.69-.29.29-.42.29-.7h.02Z"/><path d="m239.13,9.49c-.5,0-.89-.21-1.16-.62s-.41-1.02-.41-1.83.14-1.42.41-1.83c.27-.41.66-.62,1.15-.62s.89.21,1.19.63c.29.42.44,1.03.44,1.82s-.15,1.39-.44,1.82-.69.63-1.18.63h0Zm.01-4.46c-.36,0-.64.17-.84.52s-.3.85-.3,1.5c0,1.34.38,2.02,1.14,2.02.37,0,.66-.18.86-.53.21-.35.31-.85.31-1.5s-.11-1.14-.32-1.49c-.21-.35-.5-.52-.85-.52Z"/><path d="m241.87,4.31c.43,1,.64,2.1.64,3.3,0,1.11-.17,2.08-.51,2.92h-.49c.36-.86.53-1.85.53-2.98,0-.58-.06-1.15-.18-1.72s-.29-1.08-.51-1.53h.52Z"/><path d="m282.67,8.5l.4-.23c.28.51.6.77.97.77.24,0,.44-.08.61-.23.17-.15.25-.34.25-.57,0-.18-.07-.36-.21-.54-.14-.18-.38-.4-.71-.65s-.55-.44-.67-.56c-.11-.12-.2-.26-.25-.4-.05-.14-.08-.28-.08-.43,0-.3.11-.56.32-.77.21-.21.48-.31.81-.31.26,0,.48.06.67.19s.38.32.55.57l-.38.29c-.12-.16-.25-.3-.38-.41-.13-.11-.29-.16-.48-.16s-.34.06-.46.17-.18.26-.18.43.05.32.16.45c.11.13.35.33.72.61s.65.53.82.77c.17.23.26.48.26.74,0,.34-.13.63-.39.88s-.57.37-.91.37c-.61,0-1.09-.33-1.43-.99h-.01Z"/><path d="m285.79,5.92h.46l1.05,2.62,1.11-2.62h.08l1.1,2.62,1.07-2.62h.47l-1.5,3.57h-.08l-1.1-2.59-1.11,2.59h-.08l-1.48-3.57h.01Z"/><path d="m291.45,4.96c0-.1.04-.19.11-.26.07-.07.16-.11.26-.11s.19.04.26.11c.07.07.11.16.11.26s-.04.19-.11.26c-.07.07-.16.11-.26.11s-.19-.04-.26-.11c-.07-.07-.11-.16-.11-.25h0Zm.14.96h.45v3.45h-.45v-3.45Z"/><path d="m293.8,8.83c0,.12.02.19.05.21s.11.03.23.03h.27v.38c-.18.03-.33.05-.43.05-.19,0-.34-.05-.43-.14s-.14-.24-.14-.45v-2.6h-.61v-.38h.61v-1.33h.45v1.33h.7v.38h-.7v2.53h0Z"/><path d="m298.54,6.64l-.35.22c-.3-.4-.72-.6-1.25-.6-.42,0-.76.13-1.05.4-.28.27-.42.6-.42.99s.14.73.42,1.01.63.42,1.05.42c.51,0,.92-.2,1.25-.6l.35.23c-.17.25-.41.44-.7.58-.29.13-.61.2-.95.2-.53,0-.98-.18-1.33-.53-.36-.35-.54-.78-.54-1.29s.18-.94.54-1.3c.36-.36.83-.54,1.39-.54.33,0,.64.07.93.21.28.14.5.34.65.59h.01Z"/><path d="m299.37,4.59h.45v1.95c.36-.47.79-.71,1.29-.71.26,0,.49.07.7.21s.35.32.44.55.13.56.13,1v1.77h-.45v-1.64c0-.35-.01-.6-.03-.73s-.07-.26-.14-.38-.17-.21-.3-.28c-.12-.06-.27-.09-.45-.09s-.34.04-.5.12-.3.2-.41.34c-.11.15-.19.3-.23.46s-.06.47-.06.94v1.27h-.45v-4.78h.01Z"/><path d="m303.05,7.36h1.74v.45h-1.74v-.45Z"/><path d="m305.49,5.92h.44v.6c.31-.46.7-.69,1.18-.69.26,0,.48.07.69.22.2.15.34.35.41.61.14-.27.33-.47.55-.62.22-.14.48-.21.76-.21s.55.11.78.33.35.66.35,1.32v1.88h-.46v-1.88c0-.32-.02-.55-.06-.7s-.12-.28-.25-.38-.3-.15-.52-.15-.42.07-.6.21c-.19.14-.31.33-.38.55s-.1.55-.1,1v1.35h-.44v-1.77c0-.37-.02-.63-.06-.79s-.12-.29-.26-.4c-.13-.11-.3-.16-.49-.16s-.38.06-.55.17-.31.27-.4.47-.15.54-.15,1.01v1.46h-.44v-3.45.02Z"/><path d="m315.03,5.92v3.45h-.44v-.59c-.39.47-.84.71-1.35.71s-.93-.18-1.28-.54-.52-.79-.52-1.29.18-.93.53-1.29c.35-.36.77-.54,1.26-.54.56,0,1.02.24,1.37.72v-.63h.44-.01Zm-.41,1.74c0-.39-.13-.73-.4-1-.26-.27-.59-.41-.97-.41s-.71.14-.97.42-.4.61-.4.99.13.71.4.99.59.42.96.42.7-.13.97-.4.4-.61.4-1.01h.01Z"/><path d="m316.03,5.92h.45v.62c.36-.47.79-.71,1.29-.71.26,0,.49.07.7.21s.35.32.44.55.13.56.13,1v1.77h-.44v-1.64c0-.4-.02-.68-.06-.82s-.09-.26-.17-.36-.17-.18-.29-.23c-.12-.05-.26-.08-.43-.08s-.33.04-.49.12-.3.2-.41.34c-.11.15-.19.3-.23.46s-.06.47-.06.94v1.27h-.45v-3.45h.02Z"/><path d="m319.53,5.92h.47l1.19,2.66,1.15-2.66h.47l-2.06,4.71h-.47l.66-1.52-1.42-3.19h.01Z"/><path d="m326,4.31h.52c-.22.45-.39.96-.51,1.53s-.18,1.14-.18,1.72c0,1.13.18,2.13.53,2.98h-.49c-.34-.84-.51-1.82-.51-2.92,0-1.2.21-2.3.64-3.3h0Z"/><path d="m326.53,9.37v-4.67h.1l3.1,3.58v-3.58h.46v4.67h-.1l-3.08-3.53v3.53h-.48Z"/><path d="m335.86,6.12v.44h-3.21v-.44h3.21Zm0,1.4v.44h-3.21v-.44h3.21Z"/><path d="m340.23,4.59l.38.25-1.26,1.91c.18-.06.35-.09.51-.09.35,0,.65.14.91.41.26.28.39.61.39,1.01s-.14.73-.43,1c-.28.27-.63.41-1.03.41s-.74-.14-1.01-.42-.41-.62-.41-1.01c0-.19.04-.39.11-.59.07-.2.21-.46.42-.77l1.42-2.11h0Zm.47,3.46c0-.27-.1-.5-.29-.7-.19-.19-.42-.29-.7-.29s-.5.1-.7.29c-.19.19-.29.42-.29.7s.1.5.29.7c.19.19.42.29.69.29s.5-.1.69-.29.29-.42.29-.7h.02Z"/><path d="m342.23,8.51l.43.2-.64,1.2-.32-.14.53-1.27h0Z"/><path d="m343.88,4.7h.92v4.67h-.46v-4.21h-.73l.28-.46h-.01Z"/><path d="m348.67,4.59l.38.25-1.26,1.91c.18-.06.35-.09.51-.09.35,0,.65.14.91.41.26.28.39.61.39,1.01s-.14.73-.43,1c-.28.27-.63.41-1.03.41s-.74-.14-1.01-.42-.41-.62-.41-1.01c0-.19.04-.39.11-.59.07-.2.21-.46.42-.77l1.42-2.11h0Zm.47,3.46c0-.27-.1-.5-.29-.7-.19-.19-.42-.29-.7-.29s-.5.1-.7.29c-.19.19-.29.42-.29.7s.1.5.29.7c.19.19.42.29.69.29s.5-.1.69-.29.29-.42.29-.7h.02Z"/><path d="m351.07,9.49l-.38-.25,1.26-1.91c-.17.06-.33.08-.49.08-.37,0-.69-.13-.94-.4s-.38-.6-.38-1,.14-.74.42-1.01c.28-.27.63-.41,1.04-.41s.75.14,1.01.42c.27.28.4.61.4,1,0,.22-.04.43-.13.65s-.22.46-.39.71l-1.42,2.11h0Zm-.47-3.46c0,.27.1.5.29.7.19.19.42.29.7.29s.5-.1.7-.29c.19-.19.29-.42.29-.69s-.09-.5-.29-.69c-.19-.19-.42-.29-.7-.29s-.5.1-.7.29c-.19.19-.29.42-.29.7v-.02Z"/><path d="m354,8.51l.43.2-.64,1.2-.32-.14.53-1.27h0Z"/><path d="m356.87,4.7h2.68v.46h-2.21v1.46h2.19v.46h-2.19v1.83h2.19v.46h-2.66v-4.67h0Z"/><path d="m365.22,6.12v.44h-3.21v-.44h3.21Zm0,1.4v.44h-3.21v-.44h3.21Z"/><path d="m370.41,4.7v.44h-1.66l-.23,1.27c.21-.06.4-.09.58-.09.41,0,.75.14,1.02.43.27.29.41.66.41,1.11s-.15.83-.45,1.15c-.3.31-.69.47-1.18.47-.37,0-.69-.11-.95-.33s-.42-.53-.47-.91h.47c.06.26.17.46.35.6s.38.21.62.21c.31,0,.57-.11.8-.34.22-.23.33-.52.33-.86,0-.31-.1-.57-.29-.77-.2-.2-.45-.3-.76-.3s-.66.08-1.04.25l.44-2.31h2.02v-.02Z"/><path d="m373.14,4.59l.38.25-1.26,1.91c.18-.06.35-.09.51-.09.35,0,.65.14.91.41.26.28.39.61.39,1.01s-.14.73-.43,1c-.28.27-.63.41-1.03.41s-.74-.14-1.01-.42-.41-.62-.41-1.01c0-.19.04-.39.11-.59.07-.2.21-.46.42-.77l1.42-2.11h0Zm.47,3.46c0-.27-.1-.5-.29-.7-.19-.19-.42-.29-.7-.29s-.5.1-.7.29c-.19.19-.29.42-.29.7s.1.5.29.7c.19.19.42.29.69.29s.5-.1.69-.29.29-.42.29-.7h.02Z"/><path d="m375.26,4.31c.43,1,.64,2.1.64,3.3,0,1.11-.17,2.08-.51,2.92h-.49c.36-.86.53-1.85.53-2.98,0-.58-.06-1.15-.18-1.72s-.29-1.08-.51-1.53h.52Z"/><path d="m143.54,99.38c-.43,0-.75-.18-.98-.53s-.34-.87-.34-1.55.12-1.2.34-1.55c.23-.35.55-.53.98-.53s.76.18,1,.54c.25.36.37.87.37,1.54s-.12,1.18-.37,1.54-.58.54-1,.54h0Zm0-3.77c-.3,0-.54.15-.71.44-.17.29-.25.72-.25,1.27,0,1.14.32,1.71.96,1.71.31,0,.55-.15.73-.45s.26-.72.26-1.27-.09-.97-.27-1.26-.42-.44-.72-.44h0Z"/><path d="m168.14,97.48h-2.75v-.33h2.75v.33Z"/><path d="m169.14,99.38l-.32-.21,1.07-1.62c-.14.05-.28.07-.41.07-.32,0-.58-.11-.79-.34-.21-.23-.32-.51-.32-.85s.12-.62.36-.86c.24-.23.53-.35.88-.35s.63.12.86.35c.23.24.34.52.34.85,0,.18-.04.37-.11.55s-.19.39-.33.6l-1.2,1.79-.03.02Zm-.4-2.93c0,.23.08.43.24.59s.36.24.59.24.43-.08.59-.24.24-.36.24-.59-.08-.42-.24-.59-.36-.25-.59-.25-.43.08-.59.24-.24.36-.24.59h0Z"/><path d="m172.63,99.38c-.43,0-.75-.18-.98-.53s-.34-.87-.34-1.55.12-1.2.34-1.55c.23-.35.55-.53.98-.53s.76.18,1,.54c.25.36.37.87.37,1.54s-.12,1.18-.37,1.54-.58.54-1,.54h0Zm0-3.77c-.3,0-.54.15-.71.44-.17.29-.25.72-.25,1.27,0,1.14.32,1.71.96,1.71.31,0,.55-.15.73-.45s.26-.72.26-1.27-.09-.97-.27-1.26-.42-.44-.72-.44h0Z"/><path d="m194.43,97.21h-1.48v1.38h-.35v-1.38h-1.49v-.34h1.49v-1.29h.35v1.29h1.48v.34Zm0,2.25h-3.32v-.34h3.32v.34Z"/><path d="m195.75,95.33h.78v3.95h-.39v-3.56h-.62l.24-.38h-.01Z"/><path d="m199.89,97.11c.5.25.75.59.75,1.03,0,.35-.12.65-.37.88s-.57.35-.97.35-.72-.12-.97-.35c-.24-.23-.36-.52-.36-.85,0-.46.25-.82.76-1.07-.38-.21-.58-.49-.58-.85,0-.27.11-.51.34-.72s.5-.31.82-.31.59.1.81.3.34.45.34.74c0,.35-.19.63-.57.84h0Zm.35,1.04c0-.22-.09-.42-.27-.59-.18-.17-.4-.25-.66-.25s-.48.09-.67.26-.28.38-.28.62.09.43.26.59c.17.15.4.23.68.23s.51-.08.68-.25.26-.37.26-.6h0Zm-.18-1.9c0-.18-.07-.33-.21-.45s-.32-.19-.54-.19-.4.06-.55.19c-.14.13-.21.28-.21.46s.08.34.23.48c.16.14.33.21.53.21s.37-.07.52-.21c.15-.14.22-.3.22-.49h.01Z"/><path d="m202.27,99.38c-.43,0-.75-.18-.98-.53s-.34-.87-.34-1.55.12-1.2.34-1.55c.23-.35.55-.53.98-.53s.76.18,1,.54c.25.36.37.87.37,1.54s-.12,1.18-.37,1.54-.58.54-1,.54h0Zm0-3.77c-.3,0-.54.15-.71.44-.17.29-.25.72-.25,1.27,0,1.14.32,1.71.96,1.71.31,0,.55-.15.73-.45s.26-.72.26-1.27-.09-.97-.27-1.26-.42-.44-.72-.44h0Z"/><path d="m219.8,97.12v-1.16h.36v1.16h1.18v.37h-1.18v1.17h-.36v-1.17h-1.18v-.37h1.18Z"/><path d="m222.71,99.38l-.32-.21,1.07-1.62c-.14.05-.28.07-.41.07-.32,0-.58-.11-.79-.34-.21-.23-.32-.51-.32-.85s.12-.62.36-.86c.24-.23.53-.35.88-.35s.63.12.86.35c.23.24.34.52.34.85,0,.18-.04.37-.11.55s-.19.39-.33.6l-1.2,1.79-.03.02Zm-.4-2.93c0,.23.08.43.24.59s.36.24.59.24.43-.08.59-.24.24-.36.24-.59-.08-.42-.24-.59-.36-.25-.59-.25-.43.08-.59.24-.24.36-.24.59h0Z"/><path d="m226.2,99.38c-.43,0-.75-.18-.98-.53s-.34-.87-.34-1.55.12-1.2.34-1.55c.23-.35.55-.53.98-.53s.76.18,1,.54c.25.36.37.87.37,1.54s-.12,1.18-.37,1.54-.58.54-1,.54h0Zm0-3.77c-.3,0-.54.15-.71.44-.17.29-.25.72-.25,1.27,0,1.14.32,1.71.96,1.71.31,0,.55-.15.73-.45s.26-.72.26-1.27-.09-.97-.27-1.26-.42-.44-.72-.44h0Z"/><path d="m249.42,99.38c-.43,0-.75-.18-.98-.53s-.34-.87-.34-1.55.12-1.2.34-1.55c.23-.35.55-.53.98-.53s.76.18,1,.54c.25.36.37.87.37,1.54s-.12,1.18-.37,1.54-.58.54-1,.54h0Zm.01-3.77c-.3,0-.54.15-.71.44-.17.29-.25.72-.25,1.27,0,1.14.32,1.71.96,1.71.31,0,.55-.15.73-.45s.26-.72.26-1.27-.09-.97-.27-1.26-.42-.44-.72-.44h0Z"/><path d="m172.06,106.2l-.36.28c-.43-.54-.99-.81-1.67-.81-.55,0-1.03.2-1.43.59-.4.39-.6.87-.6,1.43s.2,1.04.59,1.42.88.57,1.47.57c.66,0,1.21-.26,1.64-.77l.36.28c-.23.3-.52.53-.87.69s-.74.24-1.16.24c-.74,0-1.35-.23-1.82-.7s-.71-1.06-.71-1.77c0-.44.11-.85.33-1.23s.52-.67.91-.88.81-.32,1.25-.32.85.08,1.2.25.65.41.87.73h0Z"/><path d="m172.76,108.3c0-.51.17-.94.52-1.3s.77-.54,1.27-.54.92.18,1.27.54c.35.36.52.79.52,1.29s-.17.93-.52,1.29c-.34.36-.77.54-1.28.54s-.93-.18-1.28-.54c-.35-.36-.52-.79-.52-1.28h.02Zm3.15,0c0-.38-.13-.71-.4-.99-.27-.28-.58-.42-.95-.42s-.68.14-.95.42c-.26.28-.4.61-.4,1s.13.71.38.98c.26.27.57.4.95.4s.7-.14.96-.41c.26-.27.39-.6.39-.98h.02Z"/><path d="m180.14,110h-.45v-.62c-.36.47-.79.71-1.29.71-.26,0-.49-.07-.7-.21-.21-.14-.36-.33-.44-.55-.09-.23-.13-.56-.13-1v-1.77h.44v1.64c0,.4.02.68.06.82s.09.26.17.36c.08.1.17.18.29.23.12.05.26.08.43.08s.33-.04.49-.12.3-.2.41-.34c.11-.15.19-.3.23-.46s.06-.47.06-.94v-1.27h.45v3.45h-.02Z"/><path d="m180.96,106.55h.46v.5c.12-.2.24-.35.35-.45.12-.1.24-.14.38-.14s.28.04.43.12l-.23.38c-.07-.04-.13-.06-.2-.06-.13,0-.26.07-.38.21s-.21.32-.26.54c-.06.22-.08.62-.08,1.19v1.17h-.46v-3.45h-.01Z"/><path d="m184.79,106.93l-.29.29c-.24-.23-.47-.34-.7-.34-.15,0-.27.05-.37.14-.1.09-.15.21-.15.34s.05.25.16.35.29.21.55.35c.26.14.46.28.59.44s.21.35.21.58c0,.29-.1.54-.3.73-.2.2-.45.3-.74.3-.2,0-.38-.04-.56-.13s-.33-.21-.46-.36l.28-.31c.23.26.47.38.72.38.18,0,.33-.06.46-.18s.19-.25.19-.41-.06-.29-.17-.39-.29-.22-.55-.35c-.26-.13-.45-.27-.58-.43s-.19-.35-.19-.6.09-.45.27-.63.42-.26.71-.26.6.16.92.47v.02Z"/><path d="m188.49,108.89l.38.19c-.37.69-.92,1.04-1.65,1.04-.52,0-.95-.18-1.29-.54-.34-.36-.51-.79-.51-1.29s.17-.93.51-1.29c.34-.36.76-.54,1.26-.54s.92.17,1.26.5.52.79.53,1.37h-3.11c0,.42.14.75.39,1s.55.38.91.38c.58,0,1.02-.27,1.31-.83h0Zm0-.94c-.06-.33-.21-.59-.46-.77-.24-.19-.52-.28-.84-.28-.65,0-1.08.35-1.27,1.05h2.57Z"/><path d="m194.88,105.22v4.78h-.44v-.59c-.39.47-.85.71-1.36.71s-.94-.18-1.28-.54-.52-.79-.52-1.29.17-.93.53-1.29c.35-.36.77-.54,1.26-.54.56,0,1.02.24,1.37.72v-1.96h.44Zm-.41,3.08c0-.39-.13-.73-.39-1s-.58-.41-.98-.41-.72.14-.98.42-.39.61-.39.99.13.71.4.99.59.42.95.42.69-.13.96-.4c.28-.27.42-.6.42-1.01h0Z"/><path d="m195.68,105.59c0-.1.04-.19.11-.26s.16-.11.26-.11.19.04.26.11c.07.07.11.16.11.26s-.04.19-.11.26-.16.11-.26.11-.19-.04-.26-.11c-.07-.07-.11-.16-.11-.25h0Zm.14.96h.45v3.45h-.45v-3.45Z"/><path d="m197.02,106.55h.46v.5c.12-.2.24-.35.35-.45.12-.1.24-.14.38-.14s.28.04.43.12l-.23.38c-.07-.04-.13-.06-.2-.06-.13,0-.26.07-.38.21s-.21.32-.26.54c-.06.22-.08.62-.08,1.19v1.17h-.46v-3.45h-.01Z"/><path d="m201.96,108.89l.38.19c-.37.69-.92,1.04-1.65,1.04-.52,0-.95-.18-1.29-.54-.34-.36-.51-.79-.51-1.29s.17-.93.51-1.29c.34-.36.76-.54,1.26-.54s.92.17,1.26.5.52.79.53,1.37h-3.11c0,.42.14.75.39,1s.55.38.91.38c.58,0,1.02-.27,1.31-.83h0Zm0-.94c-.06-.33-.21-.59-.46-.77-.24-.19-.52-.28-.84-.28-.65,0-1.08.35-1.27,1.05h2.57Z"/><path d="m206.65,107.27l-.35.22c-.3-.4-.72-.6-1.25-.6-.42,0-.76.13-1.05.4-.28.27-.42.6-.42.99s.14.73.42,1.01.63.42,1.05.42c.51,0,.92-.2,1.25-.6l.35.23c-.17.25-.41.44-.7.58-.29.13-.61.2-.95.2-.53,0-.98-.18-1.33-.53-.36-.35-.54-.78-.54-1.29s.18-.94.54-1.3.83-.54,1.39-.54c.33,0,.64.07.93.21.28.14.5.34.65.59h.01Z"/><path d="m208.32,109.46c0,.12.02.19.05.21s.11.03.23.03h.27v.38c-.18.03-.33.05-.43.05-.19,0-.34-.05-.43-.14s-.14-.24-.14-.45v-2.6h-.61v-.38h.61v-1.33h.45v1.33h.7v.38h-.7v2.53h0Z"/><path d="m209.48,105.59c0-.1.04-.19.11-.26s.16-.11.26-.11.19.04.26.11c.07.07.11.16.11.26s-.04.19-.11.26-.16.11-.26.11-.19-.04-.26-.11c-.07-.07-.11-.16-.11-.25h0Zm.14.96h.45v3.45h-.45v-3.45Z"/><path d="m210.82,108.3c0-.51.17-.94.52-1.3s.77-.54,1.27-.54.92.18,1.27.54c.35.36.52.79.52,1.29s-.17.93-.52,1.29c-.34.36-.77.54-1.28.54s-.93-.18-1.28-.54c-.35-.36-.52-.79-.52-1.28h.02Zm3.15,0c0-.38-.13-.71-.4-.99-.27-.28-.58-.42-.95-.42s-.68.14-.95.42c-.26.28-.4.61-.4,1s.13.71.38.98c.26.27.57.4.95.4s.7-.14.96-.41c.26-.27.39-.6.39-.98h.02Z"/><path d="m215.24,106.55h.45v.62c.36-.47.79-.71,1.29-.71.26,0,.49.07.7.21s.35.32.44.55.13.56.13,1v1.77h-.44v-1.64c0-.4-.02-.68-.06-.82s-.09-.26-.17-.36-.17-.18-.29-.23c-.12-.05-.26-.08-.43-.08s-.33.04-.49.12-.3.2-.41.34c-.11.15-.19.3-.23.46s-.06.47-.06.94v1.27h-.45v-3.45h.02Z"/><path d="m221.83,104.94h.52c-.22.45-.39.96-.51,1.53s-.18,1.14-.18,1.72c0,1.13.18,2.13.53,2.98h-.49c-.34-.84-.51-1.82-.51-2.92,0-1.2.21-2.3.64-3.3h0Z"/><path d="m224.39,105.18c.22,0,.4.08.56.23s.24.34.24.56-.08.4-.24.56-.35.23-.56.23-.4-.08-.56-.23c-.16-.16-.23-.34-.23-.56s.08-.4.23-.56.34-.23.56-.23Zm0,1.29c.14,0,.26-.05.36-.15s.15-.22.15-.35-.05-.26-.15-.35c-.1-.1-.22-.15-.36-.15s-.26.05-.35.15c-.1.1-.15.22-.15.35s.05.26.15.35c.1.1.22.15.35.15Z"/><path d="m230.15,104.94c.43,1,.64,2.1.64,3.3,0,1.11-.17,2.08-.51,2.92h-.49c.36-.86.53-1.85.53-2.98,0-.58-.06-1.15-.18-1.72s-.29-1.08-.51-1.53h.52,0Z"/><path d="m276.02,99.38c-.43,0-.75-.18-.98-.53s-.34-.87-.34-1.55.12-1.2.34-1.55c.23-.35.55-.53.98-.53s.76.18,1,.54c.25.36.37.87.37,1.54s-.12,1.18-.37,1.54-.58.54-1,.54h0Zm.01-3.77c-.3,0-.54.15-.71.44-.17.29-.25.72-.25,1.27,0,1.14.32,1.71.96,1.71.31,0,.55-.15.73-.45s.26-.72.26-1.27-.09-.97-.27-1.26-.42-.44-.72-.44h0Z"/><path d="m300.61,97.48h-2.75v-.33h2.75v.33Z"/><path d="m301.62,99.38l-.32-.21,1.07-1.62c-.14.05-.28.07-.41.07-.32,0-.58-.11-.79-.34-.21-.23-.32-.51-.32-.85s.12-.62.36-.86c.24-.23.53-.35.88-.35s.63.12.86.35c.23.24.34.52.34.85,0,.18-.04.37-.11.55s-.19.39-.33.6l-1.2,1.79-.03.02Zm-.4-2.93c0,.23.08.43.24.59s.36.24.59.24.43-.08.59-.24.24-.36.24-.59-.08-.42-.24-.59-.36-.25-.59-.25-.43.08-.59.24-.24.36-.24.59h0Z"/><path d="m305.11,99.38c-.43,0-.75-.18-.98-.53s-.34-.87-.34-1.55.12-1.2.34-1.55c.23-.35.55-.53.98-.53s.76.18,1,.54c.25.36.37.87.37,1.54s-.12,1.18-.37,1.54-.58.54-1,.54h0Zm.01-3.77c-.3,0-.54.15-.71.44-.17.29-.25.72-.25,1.27,0,1.14.32,1.71.96,1.71.31,0,.55-.15.73-.45s.26-.72.26-1.27-.09-.97-.27-1.26-.42-.44-.72-.44h0Z"/><path d="m326.9,97.21h-1.48v1.38h-.35v-1.38h-1.49v-.34h1.49v-1.29h.35v1.29h1.48v.34Zm0,2.25h-3.32v-.34h3.32v.34Z"/><path d="m328.22,95.33h.78v3.95h-.39v-3.56h-.62l.24-.38h0Z"/><path d="m332.37,97.11c.5.25.75.59.75,1.03,0,.35-.12.65-.37.88s-.57.35-.97.35-.72-.12-.97-.35c-.24-.23-.36-.52-.36-.85,0-.46.25-.82.76-1.07-.38-.21-.58-.49-.58-.85,0-.27.11-.51.34-.72s.5-.31.82-.31.59.1.81.3.34.45.34.74c0,.35-.19.63-.57.84h0Zm.35,1.04c0-.22-.09-.42-.27-.59-.18-.17-.4-.25-.66-.25s-.48.09-.67.26-.28.38-.28.62.09.43.26.59c.17.15.4.23.68.23s.51-.08.68-.25.26-.37.26-.6h0Zm-.18-1.9c0-.18-.07-.33-.21-.45s-.32-.19-.54-.19-.4.06-.55.19c-.14.13-.21.28-.21.46s.08.34.23.48c.16.14.33.21.53.21s.37-.07.52-.21c.15-.14.22-.3.22-.49h0Z"/><path d="m334.75,99.38c-.43,0-.75-.18-.98-.53s-.34-.87-.34-1.55.12-1.2.34-1.55c.23-.35.55-.53.98-.53s.76.18,1,.54c.25.36.37.87.37,1.54s-.12,1.18-.37,1.54-.58.54-1,.54h0Zm.01-3.77c-.3,0-.54.15-.71.44-.17.29-.25.72-.25,1.27,0,1.14.32,1.71.96,1.71.31,0,.55-.15.73-.45s.26-.72.26-1.27-.09-.97-.27-1.26-.42-.44-.72-.44h0Z"/><path d="m352.28,97.12v-1.16h.36v1.16h1.18v.37h-1.18v1.17h-.36v-1.17h-1.18v-.37h1.18Z"/><path d="m355.18,99.38l-.32-.21,1.07-1.62c-.14.05-.28.07-.41.07-.32,0-.58-.11-.79-.34-.21-.23-.32-.51-.32-.85s.12-.62.36-.86c.24-.23.53-.35.88-.35s.63.12.86.35c.23.24.34.52.34.85,0,.18-.04.37-.11.55s-.19.39-.33.6l-1.2,1.79-.03.02Zm-.4-2.93c0,.23.08.43.24.59s.36.24.59.24.43-.08.59-.24.24-.36.24-.59-.08-.42-.24-.59-.36-.25-.59-.25-.43.08-.59.24-.24.36-.24.59h0Z"/><path d="m358.67,99.38c-.43,0-.75-.18-.98-.53s-.34-.87-.34-1.55.12-1.2.34-1.55c.23-.35.55-.53.98-.53s.76.18,1,.54c.25.36.37.87.37,1.54s-.12,1.18-.37,1.54-.58.54-1,.54h0Zm.01-3.77c-.3,0-.54.15-.71.44-.17.29-.25.72-.25,1.27,0,1.14.32,1.71.96,1.71.31,0,.55-.15.73-.45s.26-.72.26-1.27-.09-.97-.27-1.26-.42-.44-.72-.44h0Z"/><path d="m381.89,99.38c-.43,0-.75-.18-.98-.53s-.34-.87-.34-1.55.12-1.2.34-1.55c.23-.35.55-.53.98-.53s.76.18,1,.54c.25.36.37.87.37,1.54s-.12,1.18-.37,1.54-.58.54-1,.54h0Zm.01-3.77c-.3,0-.54.15-.71.44-.17.29-.25.72-.25,1.27,0,1.14.32,1.71.96,1.71.31,0,.55-.15.73-.45s.26-.72.26-1.27-.09-.97-.27-1.26-.42-.44-.72-.44h0Z"/><path d="m304.74,106.2l-.36.28c-.43-.54-.99-.81-1.67-.81-.55,0-1.03.2-1.43.59-.4.39-.6.87-.6,1.43s.2,1.04.59,1.42c.39.38.88.57,1.47.57.66,0,1.21-.26,1.64-.77l.36.28c-.23.3-.52.53-.87.69s-.74.24-1.16.24c-.74,0-1.35-.23-1.82-.7s-.71-1.06-.71-1.77c0-.44.11-.85.33-1.23s.52-.67.91-.88.81-.32,1.25-.32.85.08,1.2.25.65.41.87.73Z"/><path d="m305.44,108.3c0-.51.17-.94.52-1.3.35-.36.77-.54,1.27-.54s.92.18,1.27.54c.35.36.52.79.52,1.29s-.17.93-.52,1.29c-.34.36-.77.54-1.28.54s-.93-.18-1.28-.54c-.35-.36-.52-.79-.52-1.28h.02Zm3.15,0c0-.38-.13-.71-.4-.99s-.58-.42-.95-.42-.68.14-.95.42c-.26.28-.4.61-.4,1s.13.71.38.98c.26.27.57.4.95.4s.7-.14.96-.41c.26-.27.39-.6.39-.98h.02Z"/><path d="m312.83,110.01h-.45v-.62c-.36.47-.79.71-1.29.71-.26,0-.49-.07-.7-.21-.21-.14-.36-.33-.44-.55-.09-.23-.13-.56-.13-1v-1.77h.44v1.64c0,.4.02.68.06.82s.09.26.17.36c.08.1.17.18.29.23.12.05.26.08.43.08s.33-.04.49-.12.3-.2.41-.34c.11-.15.19-.3.23-.46s.06-.47.06-.94v-1.27h.45v3.45h-.02Z"/><path d="m313.65,106.55h.46v.5c.12-.2.24-.35.35-.45.12-.1.24-.14.38-.14s.28.04.43.12l-.23.38c-.07-.04-.13-.06-.2-.06-.13,0-.26.07-.38.21s-.21.32-.26.54c-.06.22-.08.62-.08,1.19v1.17h-.46v-3.45h0Z"/><path d="m317.48,106.93l-.29.29c-.24-.23-.47-.34-.7-.34-.15,0-.27.05-.37.14-.1.09-.15.21-.15.34s.05.25.16.35c.11.1.29.21.55.35.26.14.46.28.59.44s.21.35.21.58c0,.29-.1.54-.3.73-.2.2-.45.3-.74.3-.2,0-.38-.04-.56-.13s-.33-.21-.46-.36l.28-.31c.23.26.47.38.72.38.18,0,.33-.06.46-.18s.19-.25.19-.41-.06-.29-.17-.39c-.11-.1-.29-.22-.55-.35-.26-.13-.45-.27-.58-.43s-.19-.35-.19-.6.09-.45.27-.63.42-.26.71-.26.6.16.92.47v.02Z"/><path d="m321.17,108.89l.38.19c-.37.69-.92,1.04-1.65,1.04-.52,0-.95-.18-1.29-.54-.34-.36-.51-.79-.51-1.29s.17-.93.51-1.29c.34-.36.76-.54,1.26-.54s.92.17,1.26.5.52.79.53,1.37h-3.11c.01.42.14.75.39,1s.55.38.91.38c.58,0,1.02-.27,1.31-.83h0Zm0-.94c-.06-.33-.21-.59-.46-.77-.24-.19-.52-.28-.84-.28-.65,0-1.08.35-1.27,1.05h2.57,0Z"/><path d="m327.56,105.22v4.78h-.44v-.59c-.39.47-.85.71-1.36.71s-.94-.18-1.28-.54-.52-.79-.52-1.29.17-.93.53-1.29c.35-.36.77-.54,1.26-.54.56,0,1.02.24,1.37.72v-1.96h.44,0Zm-.41,3.08c0-.39-.13-.73-.39-1s-.58-.41-.98-.41-.72.14-.98.42-.39.61-.39.99.13.71.4.99.59.42.95.42.69-.13.96-.4c.28-.27.42-.6.42-1.01h.01Z"/><path d="m328.36,105.59c0-.1.04-.19.11-.26.07-.07.16-.11.26-.11s.19.04.26.11c.07.07.11.16.11.26s-.04.19-.11.26c-.07.07-.16.11-.26.11s-.19-.04-.26-.11c-.07-.07-.11-.16-.11-.25h0Zm.14.96h.45v3.45h-.45v-3.45Z"/><path d="m329.7,106.55h.46v.5c.12-.2.24-.35.35-.45.12-.1.24-.14.38-.14s.28.04.43.12l-.23.38c-.07-.04-.13-.06-.2-.06-.13,0-.26.07-.38.21s-.21.32-.26.54c-.06.22-.08.62-.08,1.19v1.17h-.46v-3.45h0Z"/><path d="m334.64,108.89l.38.19c-.37.69-.92,1.04-1.65,1.04-.52,0-.95-.18-1.29-.54-.34-.36-.51-.79-.51-1.29s.17-.93.51-1.29c.34-.36.76-.54,1.26-.54s.92.17,1.26.5.52.79.53,1.37h-3.11c.01.42.14.75.39,1s.55.38.91.38c.58,0,1.02-.27,1.31-.83h0Zm0-.94c-.06-.33-.21-.59-.46-.77-.24-.19-.52-.28-.84-.28-.65,0-1.08.35-1.27,1.05h2.57,0Z"/><path d="m339.33,107.27l-.35.22c-.3-.4-.72-.6-1.25-.6-.42,0-.76.13-1.05.4-.28.27-.42.6-.42.99s.14.73.42,1.01.63.42,1.05.42c.51,0,.92-.2,1.25-.6l.35.23c-.17.25-.41.44-.7.58-.29.13-.61.2-.95.2-.53,0-.98-.18-1.33-.53-.36-.35-.54-.78-.54-1.29s.18-.94.54-1.3c.36-.36.83-.54,1.39-.54.33,0,.64.07.93.21.28.14.5.34.65.59h.01Z"/><path d="m341,109.46c0,.12.02.19.05.21s.11.03.23.03h.27v.38c-.18.03-.33.05-.43.05-.19,0-.34-.05-.43-.14s-.14-.24-.14-.45v-2.6h-.61v-.38h.61v-1.33h.45v1.33h.7v.38h-.7v2.53h0Z"/><path d="m342.16,105.59c0-.1.04-.19.11-.26.07-.07.16-.11.26-.11s.19.04.26.11c.07.07.11.16.11.26s-.04.19-.11.26c-.07.07-.16.11-.26.11s-.19-.04-.26-.11c-.07-.07-.11-.16-.11-.25h0Zm.14.96h.45v3.45h-.45v-3.45Z"/><path d="m343.51,108.3c0-.51.17-.94.52-1.3.35-.36.77-.54,1.27-.54s.92.18,1.27.54c.35.36.52.79.52,1.29s-.17.93-.52,1.29c-.34.36-.77.54-1.28.54s-.93-.18-1.28-.54c-.35-.36-.52-.79-.52-1.28h.02Zm3.15,0c0-.38-.13-.71-.4-.99s-.58-.42-.95-.42-.68.14-.95.42c-.26.28-.4.61-.4,1s.13.71.38.98c.26.27.57.4.95.4s.7-.14.96-.41c.26-.27.39-.6.39-.98h.02Z"/><path d="m347.93,106.55h.45v.62c.36-.47.79-.71,1.29-.71.26,0,.49.07.7.21s.35.32.44.55.13.56.13,1v1.77h-.44v-1.64c0-.4-.02-.68-.06-.82s-.09-.26-.17-.36-.17-.18-.29-.23c-.12-.05-.26-.08-.43-.08s-.33.04-.49.12-.3.2-.41.34c-.11.15-.19.3-.23.46s-.06.47-.06.94v1.27h-.45v-3.45h.02Z"/><path d="m354.51,104.94h.52c-.22.45-.39.96-.51,1.53s-.18,1.14-.18,1.72c0,1.13.18,2.13.53,2.98h-.49c-.34-.84-.51-1.82-.51-2.92,0-1.2.21-2.3.64-3.3h0Z"/><path d="m357.07,105.18c.22,0,.4.08.56.23s.24.34.24.56-.08.4-.24.56-.35.23-.56.23-.4-.08-.56-.23c-.16-.16-.23-.34-.23-.56s.08-.4.23-.56.34-.23.56-.23Zm0,1.29c.14,0,.26-.05.36-.15.1-.1.15-.22.15-.35s-.05-.26-.15-.35c-.1-.1-.22-.15-.36-.15s-.26.05-.35.15c-.1.1-.15.22-.15.35s.05.26.15.35c.1.1.22.15.35.15Z"/><path d="m362.83,104.94c.43,1,.64,2.1.64,3.3,0,1.11-.17,2.08-.51,2.92h-.49c.36-.86.53-1.85.53-2.98,0-.58-.06-1.15-.18-1.72s-.29-1.08-.51-1.53h.52Z"/></g></svg>