<?xml version="1.0" encoding="UTF-8"?><svg id="b" xmlns="http://www.w3.org/2000/svg" xmlns:xlink="http://www.w3.org/1999/xlink" viewBox="0 0 149.7 105.03"><defs><style>.f,.g,.h,.i,.j,.k{fill:none;}.l{fill:#fff;}.g,.h{stroke:#000;stroke-width:.25px;}.h{stroke-linecap:square;}.m{opacity:.8;}.n{clip-path:url(#e);}.o{clip-path:url(#d);}.i{stroke-dasharray:0 0 0 0 0 0 3.04 1.31;}.i,.j,.k{stroke-linejoin:round;stroke-width:.82px;}.i,.k{stroke:gray;}.j{stroke:#4c72b0;stroke-linecap:round;}.k{stroke-dasharray:0 0 0 0 0 0 .82 1.36;}</style><clipPath id="d"><rect class="f" x="67.02" y="61.98" width="79.55" height="19.48"/></clipPath><clipPath id="e"><rect class="f" x="67.02" y="61.98" width="79.55" height="19.48"/></clipPath></defs><g id="c"><polyline class="j" points="47.55 75.15 54.49 54.66 61.43 40.41 68.37 29.87 75.31 25.76 82.25 22.98 89.19 21.72 96.13 20.71 103.07 19.75 110.01 19.05 116.95 18.58 123.9 18.18 130.83 17.86 137.78 17.6 144.72 17.37"/><line class="i" x1="42.69" y1="27.25" x2="149.57" y2="27.25"/><line class="k" x1="75.31" y1="84.47" x2="75.31" y2="10.09"/><line class="h" x1="42.69" y1="84.47" x2="42.69" y2="10.09"/><line class="h" x1="42.69" y1="84.47" x2="149.57" y2="84.47"/><line class="h" x1="42.69" y1="10.09" x2="149.57" y2="10.09"/><g class="m"><g class="o"><g class="n"><path class="l" d="m68.22,81.46h77.14c.8,0,1.2-.4,1.2-1.21v-17.07c0-.8-.4-1.2-1.2-1.2h-77.14c-.8,0-1.2.4-1.2,1.2v17.07c0,.8.4,1.21,1.2,1.21"/></g></g></g><line class="i" x1="69.43" y1="66.85" x2="81.47" y2="66.85"/><line class="k" x1="69.43" y1="75.69" x2="81.47" y2="75.69"/><path d="m4.52.12h.64v3.81c0,.68-.06,1.17-.18,1.49s-.29.58-.51.79c-.22.21-.49.37-.81.48s-.66.17-1.04.17c-1.29,0-2.14-.51-2.55-1.54h.69c.36.64.97.97,1.83.97.42,0,.78-.08,1.08-.24s.52-.37.65-.62.19-.64.19-1.18v-.21c-.25.32-.56.55-.9.71-.35.15-.71.23-1.1.23-.72,0-1.32-.25-1.79-.73-.48-.49-.72-1.07-.72-1.73S.25,1.24.76.74s1.12-.74,1.85-.74,1.36.33,1.9.99V.13h.01Zm.03,2.39c0-.54-.18-.99-.55-1.36s-.82-.55-1.36-.55c-.57,0-1.04.2-1.42.59s-.57.85-.57,1.35.18.94.55,1.3.83.53,1.4.53,1.04-.17,1.4-.52.54-.8.54-1.35h.01Z"/><path d="m31.1,13.6h.78v3.95h-.39v-3.56h-.62l.24-.38h0Z"/><path d="m33.52,17.29c0-.09.03-.17.1-.23s.14-.1.23-.1.17.03.23.1.1.14.1.24-.03.17-.1.24c-.06.06-.14.1-.23.1s-.17-.03-.23-.1c-.07-.07-.1-.15-.1-.24h0Z"/><path d="m35.78,17.64c-.42,0-.75-.17-.98-.52s-.34-.87-.34-1.55.11-1.2.34-1.55.55-.52.98-.52.76.18,1,.54.37.87.37,1.54-.12,1.18-.37,1.54-.58.54-1,.54v-.02Zm.01-3.77c-.3,0-.54.15-.71.44-.17.29-.25.72-.25,1.27,0,1.14.32,1.7.96,1.7.31,0,.55-.15.73-.45.17-.3.26-.72.26-1.27s-.09-.97-.27-1.26-.42-.44-.72-.44h0Z"/><path d="m85.71,68.51l-.38-.25,1.26-1.91c-.17.06-.33.08-.49.08-.37,0-.69-.13-.94-.4s-.38-.6-.38-1,.14-.74.42-1.01c.28-.27.63-.41,1.04-.41s.75.14,1.01.42c.27.28.4.61.4,1,0,.22-.04.43-.13.65s-.22.46-.39.71l-1.42,2.11h0Zm-.47-3.46c0,.27.09.5.29.7s.42.29.7.29.5-.1.7-.29c.19-.19.29-.42.29-.69s-.09-.5-.29-.69c-.19-.19-.42-.29-.7-.29s-.5.1-.7.29-.29.42-.29.69h0Z"/><path d="m89.84,68.51c-.5,0-.89-.21-1.16-.62s-.41-1.02-.41-1.83.13-1.42.41-1.83c.27-.41.65-.62,1.15-.62s.89.21,1.19.63c.29.42.44,1.03.44,1.82s-.15,1.39-.44,1.82c-.29.42-.69.63-1.18.63h0Zm.01-4.46c-.36,0-.64.17-.84.52-.2.35-.3.85-.3,1.5,0,1.34.38,2.01,1.14,2.01.37,0,.66-.18.86-.53.21-.35.31-.85.31-1.5s-.11-1.14-.32-1.49c-.21-.35-.5-.52-.85-.52h0Z"/><path d="m96.04,63.52l-3.4,5.2h-.42l3.1-4.74c-.25.06-.51.1-.77.12-.26.02-.45.02-.58.02h-.17c.13.18.2.37.2.57,0,.31-.11.58-.32.8-.21.22-.47.33-.78.33s-.57-.11-.78-.32c-.21-.21-.32-.47-.32-.78s.11-.57.33-.78.47-.32.76-.32c.12,0,.28.02.5.07s.48.07.8.07c.5,0,1-.08,1.48-.23h.37Zm-2.44,1.19c0-.19-.07-.36-.21-.49-.14-.13-.3-.2-.49-.2s-.36.07-.49.2c-.14.14-.2.3-.2.49s.07.35.2.49c.14.14.3.2.49.2s.36-.07.49-.2c.14-.13.21-.3.21-.49Zm.75,2.72c0-.3.11-.56.32-.77.21-.22.47-.32.77-.32s.56.11.77.32c.21.21.32.47.32.78s-.11.56-.32.78c-.21.21-.47.32-.77.32s-.56-.11-.77-.32c-.21-.21-.32-.47-.32-.78h0Zm1.79,0c0-.19-.07-.35-.2-.49-.14-.14-.3-.2-.49-.2s-.36.07-.49.2c-.13.14-.2.3-.2.49s.07.35.2.49c.13.14.3.2.49.2s.36-.07.49-.2c.14-.13.2-.3.2-.49Z"/><path d="m98.49,64.94h.47l1.15,2.62,1.15-2.62h.47l-1.58,3.57h-.08l-1.59-3.57h0Z"/><path d="m105.81,64.94v3.45h-.44v-.59c-.39.47-.84.71-1.35.71s-.93-.18-1.28-.54c-.35-.36-.52-.79-.52-1.29s.17-.93.53-1.29c.35-.36.77-.54,1.26-.54.56,0,1.02.24,1.37.72v-.63h.44-.01Zm-.41,1.74c0-.39-.13-.73-.4-1-.26-.27-.59-.41-.97-.41s-.71.14-.97.42-.4.61-.4.99.13.71.4.99.59.42.96.42.7-.13.96-.4.4-.61.4-1.01h.02Z"/><path d="m106.65,64.94h.45v.5c.12-.2.24-.35.35-.45.11-.1.24-.14.38-.14s.28.04.43.12l-.23.38c-.06-.04-.13-.06-.2-.06-.13,0-.26.07-.38.21-.12.14-.21.32-.26.54-.06.22-.08.62-.08,1.19v1.17h-.45v-3.45h0Z"/><path d="m108.48,68.08c0-.11.04-.2.12-.28s.17-.11.28-.11.2.04.27.11.11.17.11.28-.04.2-.11.28-.17.11-.27.11-.2-.04-.28-.12-.12-.17-.12-.28h0Z"/><path d="m114.71,67.27l.38.19c-.37.69-.92,1.04-1.65,1.04-.52,0-.95-.18-1.29-.54-.34-.36-.51-.79-.51-1.29s.17-.93.51-1.29c.34-.36.76-.54,1.26-.54s.92.17,1.26.5.52.79.53,1.36h-3.1c.01.42.14.75.39,1s.55.38.91.38c.58,0,1.02-.27,1.31-.82h0Zm0-.94c-.06-.33-.21-.59-.46-.77-.24-.19-.52-.28-.84-.28-.65,0-1.07.35-1.27,1.05h2.57,0Z"/><path d="m116.99,66.95l-1,1.44h-.53l1.26-1.82-1.14-1.63h.53l.87,1.25.86-1.25h.53l-1.13,1.62,1.28,1.83h-.54l-1.01-1.44h.02Z"/><path d="m119.06,64.94h.44v.63c.35-.48.81-.72,1.37-.72.48,0,.9.18,1.25.54.35.36.53.79.53,1.29s-.17.93-.52,1.29-.76.54-1.25.54c-.53,0-.99-.24-1.38-.71v1.85h-.44v-4.71h0Zm3.15,1.74c0-.39-.13-.72-.4-.99s-.59-.41-.98-.41-.71.14-.97.41-.39.6-.39,1,.13.73.4,1,.59.41.96.41.7-.14.97-.41.41-.61.41-1h0Z"/><path d="m123.42,63.61h.44v4.78h-.44v-4.78Z"/><path d="m128.22,64.94v3.45h-.44v-.59c-.39.47-.84.71-1.35.71s-.93-.18-1.28-.54c-.35-.36-.52-.79-.52-1.29s.17-.93.53-1.29c.35-.36.77-.54,1.26-.54.56,0,1.02.24,1.37.72v-.63h.44-.01Zm-.41,1.74c0-.39-.13-.73-.4-1-.26-.27-.59-.41-.97-.41s-.71.14-.97.42-.4.61-.4.99.13.71.4.99.59.42.96.42.7-.13.96-.4.4-.61.4-1.01h.02Z"/><path d="m129.01,63.98c0-.1.04-.19.11-.26.07-.07.16-.11.26-.11s.19.04.26.11c.07.07.11.16.11.26s-.04.19-.11.26c-.07.07-.16.11-.26.11s-.19-.04-.26-.11c-.07-.07-.11-.16-.11-.25h0Zm.14.96h.45v3.45h-.45v-3.45Z"/><path d="m130.52,64.94h.45v.62c.36-.47.79-.71,1.29-.71.26,0,.49.07.7.21.21.14.36.32.44.55.09.23.13.56.13,1v1.77h-.44v-1.64c0-.4-.02-.68-.05-.82-.04-.14-.09-.26-.17-.36s-.17-.18-.29-.23c-.12-.05-.26-.08-.43-.08s-.33.04-.49.12-.3.2-.41.34c-.11.15-.19.3-.23.46s-.06.47-.06.94v1.27h-.45v-3.45h.01Z"/><path d="m137.38,67.27l.38.19c-.37.69-.92,1.04-1.65,1.04-.52,0-.95-.18-1.29-.54-.34-.36-.51-.79-.51-1.29s.17-.93.51-1.29c.34-.36.76-.54,1.26-.54s.92.17,1.26.5.52.79.53,1.36h-3.1c.01.42.14.75.39,1s.55.38.91.38c.58,0,1.02-.27,1.31-.82h0Zm0-.94c-.06-.33-.21-.59-.46-.77-.24-.19-.52-.28-.84-.28-.65,0-1.07.35-1.27,1.05h2.57Z"/><path d="m142.14,63.61v4.78h-.44v-.59c-.39.47-.85.71-1.35.71s-.94-.18-1.28-.54c-.35-.36-.52-.79-.52-1.29s.17-.93.53-1.29.77-.54,1.26-.54c.56,0,1.02.24,1.37.72v-1.96h.44-.01Zm-.41,3.08c0-.39-.13-.73-.39-1s-.58-.41-.97-.41-.72.14-.98.42-.39.61-.39.99.13.71.4.99.59.42.95.42.69-.13.96-.4.42-.6.42-1.01h0Z"/><path d="m85.67,73.17h.92v4.66h-.46v-4.21h-.73l.28-.45h-.01Z"/><path d="m90.29,74.76l-.29.29c-.24-.23-.47-.34-.7-.34-.15,0-.27.05-.37.14s-.15.21-.15.34.05.25.16.35c.11.1.29.21.55.35.26.14.46.28.59.44.14.16.2.35.2.58,0,.29-.1.53-.3.73s-.45.3-.74.3c-.19,0-.38-.04-.56-.13s-.33-.21-.46-.36l.28-.31c.23.26.47.38.72.38.18,0,.33-.06.46-.18.12-.12.19-.25.19-.41s-.06-.29-.17-.39c-.11-.1-.29-.22-.55-.35s-.45-.27-.58-.43-.19-.35-.19-.6.09-.45.27-.63c.18-.17.42-.26.71-.26s.6.16.92.47v.02Z"/><path d="m91.91,77.29c0,.12.01.19.04.21s.11.03.23.03h.27v.38c-.18.03-.32.05-.43.05-.19,0-.34-.05-.43-.14s-.14-.24-.14-.45v-2.6h-.61v-.38h.61v-1.33h.45v1.33h.7v.38h-.7v2.53h0Z"/><path d="m94.97,73.17h.93c.55,0,.91.02,1.08.06s.32.12.46.23c.14.11.25.24.33.41.08.16.12.34.12.54,0,.32-.09.58-.26.79s-.39.33-.65.39c-.26.05-.66.08-1.21.08h-.33v2.17h-.47v-4.66h0Zm.47.45v1.59h.79c.47,0,.79-.07.94-.23.16-.16.23-.35.23-.57,0-.52-.38-.79-1.14-.79h-.82Z"/><path d="m103.16,74.03l-.36.28c-.43-.54-.99-.81-1.67-.81-.55,0-1.03.19-1.43.58s-.6.87-.6,1.43.2,1.04.59,1.42c.39.38.88.57,1.47.57.66,0,1.21-.26,1.64-.77l.36.28c-.23.3-.52.53-.87.69s-.74.24-1.16.24c-.74,0-1.35-.23-1.82-.7s-.71-1.06-.71-1.77c0-.44.11-.85.33-1.22s.52-.67.91-.88.8-.32,1.25-.32.85.08,1.2.25c.36.17.65.41.87.73Z"/><path d="m110.56,75.69l-4.32,1.27v-.38l3.58-1.04-3.58-1.31v-.4l4.32,1.6v.26Zm0,.85l-4.32,1.29v-.37l4.32-1.29v.37Z"/><path d="m114.52,77.95l-.38-.25,1.26-1.91c-.17.06-.33.08-.49.08-.37,0-.69-.13-.94-.4s-.38-.6-.38-1,.14-.74.42-1.01c.28-.27.63-.41,1.04-.41s.75.14,1.01.42c.27.28.4.61.4,1,0,.22-.04.43-.13.65s-.22.46-.39.71l-1.42,2.11h0Zm-.47-3.46c0,.27.09.5.29.7s.42.29.7.29.5-.1.7-.29c.19-.19.29-.42.29-.69s-.09-.5-.29-.69c-.19-.19-.42-.29-.7-.29s-.5.1-.7.29-.29.42-.29.69h0Z"/><path d="m118.65,77.95c-.5,0-.89-.21-1.16-.62s-.41-1.02-.41-1.83.13-1.42.41-1.83c.27-.41.65-.62,1.15-.62s.89.21,1.19.63c.29.42.44,1.03.44,1.82s-.15,1.39-.44,1.82c-.29.42-.69.63-1.18.63h0Zm.01-4.46c-.36,0-.64.17-.84.52-.2.35-.3.85-.3,1.5,0,1.34.38,2.01,1.14,2.01.37,0,.66-.18.86-.53.21-.35.31-.85.31-1.5s-.11-1.14-.32-1.49c-.21-.35-.5-.52-.85-.52h0Z"/><path d="m124.85,72.96l-3.4,5.2h-.42l3.1-4.74c-.25.06-.51.1-.77.12-.26.02-.45.02-.58.02h-.17c.13.18.2.37.2.57,0,.31-.11.58-.32.8-.21.22-.47.33-.78.33s-.57-.11-.78-.32c-.21-.21-.32-.47-.32-.78s.11-.57.33-.78.47-.32.76-.32c.12,0,.28.02.5.07s.48.07.8.07c.5,0,1-.08,1.48-.23h.37Zm-2.44,1.19c0-.19-.07-.36-.21-.49-.14-.13-.3-.2-.49-.2s-.36.07-.49.2c-.14.14-.2.3-.2.49s.07.35.2.49c.14.14.3.2.49.2s.36-.07.49-.2c.14-.13.21-.3.21-.49Zm.75,2.72c0-.3.11-.56.32-.77.21-.22.47-.32.77-.32s.56.11.77.32c.21.21.32.47.32.78s-.11.56-.32.78c-.21.21-.47.32-.77.32s-.56-.11-.77-.32c-.21-.21-.32-.47-.32-.78h0Zm1.79,0c0-.19-.07-.35-.2-.49-.14-.14-.3-.2-.49-.2s-.36.07-.49.2c-.13.14-.2.3-.2.49s.07.35.2.49c.13.14.3.2.49.2s.36-.07.49-.2c.14-.13.2-.3.2-.49Z"/><path d="m127.3,74.38h.47l1.15,2.62,1.15-2.62h.47l-1.58,3.57h-.08l-1.59-3.57h0Z"/><path d="m130.87,77.53c0-.11.04-.2.12-.28s.17-.11.28-.11.2.04.27.11.11.17.11.28-.04.2-.11.28-.17.11-.27.11-.2-.04-.28-.12-.12-.17-.12-.28h0Z"/><path d="m135.32,76.72l.38.19c-.37.69-.92,1.04-1.65,1.04-.52,0-.95-.18-1.29-.54-.34-.36-.51-.79-.51-1.29s.17-.93.51-1.29c.34-.36.76-.54,1.26-.54s.92.17,1.26.5.52.79.53,1.36h-3.1c.01.42.14.75.39,1,.25.25.55.38.91.38.58,0,1.02-.27,1.31-.82h0Zm0-.94c-.06-.33-.21-.59-.46-.77-.24-.19-.52-.28-.84-.28-.65,0-1.07.35-1.27,1.05h2.57Z"/><path d="m136.7,77.53c0-.11.04-.2.12-.28s.17-.11.28-.11.2.04.27.11.11.17.11.28-.04.2-.11.28-.17.11-.27.11-.2-.04-.28-.12-.12-.17-.12-.28h0Z"/><path d="m30.47,40.44c-.42,0-.75-.17-.98-.52-.23-.35-.34-.87-.34-1.55s.11-1.2.34-1.55c.23-.35.55-.52.98-.52s.76.18,1,.54.37.87.37,1.54-.12,1.18-.37,1.54c-.25.36-.58.54-1,.54v-.02Zm.01-3.77c-.3,0-.54.15-.71.44-.17.29-.25.72-.25,1.27,0,1.14.32,1.7.96,1.7.31,0,.55-.15.73-.45.17-.3.26-.72.26-1.27s-.09-.97-.27-1.26-.42-.44-.72-.44h0Z"/><path d="m32.25,40.08c0-.09.03-.17.1-.23s.14-.1.23-.1.17.03.23.1.1.14.1.24-.03.17-.1.24c-.06.06-.14.1-.23.1s-.17-.03-.23-.1c-.07-.07-.1-.15-.1-.24h0Z"/><path d="m35.24,38.18c.5.25.75.59.75,1.03,0,.35-.12.65-.37.88s-.57.35-.97.35-.72-.12-.96-.35-.36-.52-.36-.85c0-.46.25-.82.76-1.07-.38-.21-.58-.49-.58-.85,0-.27.11-.51.34-.72s.5-.31.82-.31.59.1.81.3c.22.2.33.45.33.74,0,.35-.19.63-.57.84h0Zm.35,1.04c0-.22-.09-.42-.27-.59-.18-.17-.4-.25-.66-.25s-.48.09-.67.26-.28.38-.28.62.09.43.26.59.4.23.68.23.51-.08.68-.25.26-.37.26-.6h0Zm-.18-1.9c0-.18-.07-.33-.21-.45-.14-.13-.32-.19-.54-.19s-.4.06-.55.19-.21.28-.21.46.08.34.23.48c.16.14.33.21.53.21s.37-.07.52-.21.22-.3.22-.49h0Z"/><path d="m30.54,63.24c-.42,0-.75-.17-.98-.52-.23-.35-.34-.87-.34-1.55s.11-1.2.34-1.55c.23-.35.55-.52.98-.52s.76.18,1,.54.37.87.37,1.54-.12,1.18-.37,1.54c-.25.36-.58.54-1,.54v-.02Zm.01-3.77c-.3,0-.54.15-.71.44-.17.29-.25.72-.25,1.27,0,1.14.32,1.7.96,1.7.31,0,.55-.15.73-.45.17-.3.26-.72.26-1.27s-.09-.97-.27-1.26-.42-.44-.72-.44h0Z"/><path d="m32.32,62.88c0-.09.03-.17.1-.23s.14-.1.23-.1.17.03.23.1.1.14.1.24-.03.17-.1.24c-.06.06-.14.1-.23.1s-.17-.03-.23-.1c-.07-.07-.1-.15-.1-.24h0Z"/><path d="m35.08,59.1l.32.21-1.07,1.62c.15-.05.29-.08.43-.08.29,0,.55.12.77.35s.33.52.33.85-.12.62-.36.85-.53.35-.87.35-.63-.12-.86-.35c-.23-.23-.34-.52-.34-.86,0-.16.03-.33.09-.5s.18-.39.36-.65l1.2-1.79h0Zm.4,2.93c0-.23-.08-.43-.24-.59s-.36-.24-.59-.24-.43.08-.59.24-.24.36-.24.59.08.43.25.59c.16.16.36.24.58.24s.42-.08.58-.24.25-.36.25-.59Z"/><path d="m30.5,86.29c-.42,0-.75-.17-.98-.52-.23-.35-.34-.87-.34-1.55s.11-1.2.34-1.55c.23-.35.55-.52.98-.52s.76.18,1,.54.37.87.37,1.54-.12,1.18-.37,1.54c-.25.36-.58.54-1,.54v-.02Zm.01-3.77c-.3,0-.54.15-.71.44-.17.29-.25.72-.25,1.27,0,1.14.32,1.7.96,1.7.31,0,.55-.15.73-.45.17-.3.26-.72.26-1.27s-.09-.97-.27-1.26-.42-.44-.72-.44h0Z"/><path d="m32.27,85.93c0-.09.03-.17.1-.23s.14-.1.23-.1.17.03.23.1.1.14.1.24-.03.17-.1.24c-.06.06-.14.1-.23.1s-.17-.03-.23-.1c-.07-.07-.1-.15-.1-.24h0Z"/><path d="m35.42,82.15h.08v2.75h.48v.38h-.48v.92h-.39v-.92h-1.89l2.2-3.13h0Zm-.31,2.75v-1.64l-1.17,1.64h1.17Z"/><path d="m47.23,88.42h.78v3.95h-.39v-3.56h-.62l.24-.38h0Z"/><path d="m60.33,89.33h-.4c.07-.33.21-.58.42-.75.21-.17.46-.26.76-.26s.56.1.78.3c.22.2.33.44.33.72,0,.34-.17.61-.51.81.23.1.41.24.54.43s.19.4.19.62c0,.35-.13.65-.38.9s-.58.38-.96.38c-.34,0-.63-.1-.85-.29-.22-.2-.37-.48-.45-.86h.38c.07.26.18.45.32.58s.35.19.61.19.49-.08.67-.25c.18-.17.27-.38.27-.63s-.1-.45-.3-.6c-.2-.15-.49-.23-.86-.24v-.36c.27,0,.49-.06.66-.19.17-.12.26-.28.26-.46s-.07-.34-.21-.46c-.14-.12-.3-.18-.5-.18s-.35.05-.47.16-.22.26-.3.48v-.04Z"/><path d="m76.3,88.42v.37h-1.41l-.2,1.08c.18-.05.34-.08.49-.08.34,0,.63.12.86.37.23.24.35.56.35.94s-.12.7-.38.97-.58.4-1,.4c-.31,0-.58-.09-.8-.28s-.35-.45-.4-.77h.4c.05.22.15.39.3.51s.32.18.52.18c.26,0,.48-.1.67-.29s.28-.44.28-.73c0-.26-.08-.48-.25-.65s-.38-.26-.65-.26-.56.07-.88.21l.37-1.96h1.73Z"/><path d="m88.11,88.42h2.5l-2.11,4.05-.32-.16,1.82-3.51h-1.89v-.37h0Z"/><path d="m102.46,92.46l-.32-.21,1.07-1.62c-.14.05-.28.07-.41.07-.31,0-.58-.11-.79-.34-.21-.23-.32-.51-.32-.85s.12-.62.36-.85.53-.35.88-.35.63.12.86.35c.23.24.34.52.34.85,0,.18-.04.37-.11.55s-.19.39-.33.6l-1.2,1.79h-.03Zm-.4-2.93c0,.23.08.43.24.59s.36.24.59.24.43-.08.59-.24.24-.36.24-.59-.08-.42-.24-.59c-.16-.16-.36-.24-.59-.24s-.43.08-.59.24-.24.36-.24.59Z"/><path d="m115.88,88.42h.78v3.95h-.39v-3.56h-.62l.24-.38h0Z"/><path d="m118.92,88.42h.78v3.95h-.39v-3.56h-.62l.24-.38h0Z"/><path d="m129.26,88.42h.78v3.95h-.39v-3.56h-.62l.24-.38h0Z"/><path d="m132.01,89.33h-.4c.07-.33.21-.58.42-.75.21-.17.46-.26.76-.26s.56.1.78.3c.22.2.33.44.33.72,0,.34-.17.61-.51.81.23.1.41.24.54.43s.19.4.19.62c0,.35-.13.65-.38.9s-.58.38-.96.38c-.34,0-.63-.1-.85-.29-.22-.2-.37-.48-.45-.86h.38c.07.26.18.45.32.58s.35.19.61.19.49-.08.67-.25.27-.38.27-.63-.1-.45-.3-.6-.49-.23-.86-.24v-.36c.27,0,.49-.06.66-.19.17-.12.26-.28.26-.46s-.07-.34-.21-.46-.3-.18-.5-.18-.35.05-.47.16-.22.26-.3.48v-.04Z"/><path d="m143.25,88.42h.78v3.95h-.39v-3.56h-.62l.24-.38h-.01Z"/><path d="m147.99,88.42v.37h-1.41l-.2,1.08c.18-.05.34-.08.49-.08.34,0,.63.12.86.37.23.24.35.56.35.94s-.12.7-.38.97-.58.4-1,.4c-.31,0-.58-.09-.8-.28s-.35-.45-.4-.77h.4c.05.22.15.39.3.51.15.12.32.18.52.18.26,0,.48-.1.67-.29s.28-.44.28-.73c0-.26-.08-.48-.25-.65s-.38-.26-.65-.26-.56.07-.88.21l.37-1.96h1.73Z"/><path d="m55.71,99.1h.93c.55,0,.91.02,1.08.06s.32.12.46.23c.14.11.25.24.33.41.08.16.12.34.12.54,0,.32-.09.58-.26.79s-.39.33-.65.39c-.26.05-.66.08-1.21.08h-.33v2.17h-.47v-4.66h0Zm.47.45v1.59h.79c.47,0,.79-.07.94-.23.16-.16.23-.35.23-.57,0-.52-.38-.79-1.14-.79h-.82Z"/><path d="m59.32,100.32h.45v.5c.12-.2.24-.35.35-.45.11-.1.24-.14.38-.14s.28.04.43.12l-.23.38c-.06-.04-.13-.06-.2-.06-.13,0-.26.07-.38.21-.12.14-.21.32-.26.54-.06.22-.08.62-.08,1.19v1.17h-.45v-3.45h0Z"/><path d="m61.24,99.36c0-.1.04-.19.11-.26.07-.07.16-.11.26-.11s.19.04.26.11c.07.07.11.16.11.26s-.04.19-.11.26c-.07.07-.16.11-.26.11s-.19-.04-.26-.11c-.07-.07-.11-.16-.11-.25h0Zm.14.96h.45v3.45h-.45v-3.45Z"/><path d="m62.74,100.32h.45v.62c.36-.47.79-.71,1.29-.71.26,0,.49.07.7.21.21.14.36.32.44.55.09.23.13.56.13,1v1.77h-.44v-1.64c0-.4-.02-.68-.05-.82-.04-.14-.09-.26-.17-.36s-.17-.18-.29-.23c-.12-.05-.26-.08-.43-.08s-.33.04-.49.12-.3.2-.41.34c-.11.15-.19.3-.23.46s-.06.47-.06.94v1.27h-.45v-3.45h0Z"/><path d="m70.08,101.03l-.35.22c-.3-.4-.72-.6-1.25-.6-.42,0-.76.13-1.05.4-.28.27-.42.6-.42.99s.14.73.42,1.01.63.42,1.05.42c.51,0,.92-.2,1.25-.6l.35.23c-.17.25-.41.44-.7.58-.29.13-.61.2-.95.2-.53,0-.98-.18-1.33-.53-.36-.35-.54-.78-.54-1.29s.18-.94.54-1.3c.36-.36.83-.54,1.39-.54.33,0,.64.07.93.21.28.14.5.34.65.59h.01Z"/><path d="m70.7,99.36c0-.1.04-.19.11-.26.07-.07.16-.11.26-.11s.19.04.26.11c.07.07.11.16.11.26s-.04.19-.11.26c-.07.07-.16.11-.26.11s-.19-.04-.26-.11c-.07-.07-.11-.16-.11-.25h0Zm.14.96h.45v3.45h-.45v-3.45Z"/><path d="m72.21,100.32h.44v.63c.35-.48.81-.72,1.37-.72.48,0,.9.18,1.25.54.35.36.53.79.53,1.29s-.17.93-.52,1.29-.76.54-1.25.54c-.53,0-.99-.24-1.38-.71v1.85h-.44v-4.71h0Zm3.15,1.74c0-.39-.13-.72-.4-.99s-.59-.41-.98-.41-.71.14-.97.41-.39.6-.39,1,.13.73.4,1,.59.41.96.41.7-.14.97-.41.41-.61.41-1h0Z"/><path d="m80.07,100.32v3.45h-.44v-.59c-.39.47-.84.71-1.35.71s-.93-.18-1.28-.54c-.35-.36-.52-.79-.52-1.29s.17-.93.53-1.29c.35-.36.77-.54,1.26-.54.56,0,1.02.24,1.37.72v-.63h.44-.01Zm-.41,1.74c0-.39-.13-.73-.4-1-.26-.27-.59-.41-.97-.41s-.71.14-.97.42-.4.61-.4.99.13.71.4.99.59.42.96.42.7-.13.96-.4.4-.61.4-1.01h.02Z"/><path d="m81.01,98.99h.44v4.78h-.44v-4.78Z"/><path d="m87.37,101.03l-.35.22c-.3-.4-.72-.6-1.25-.6-.42,0-.76.13-1.05.4-.28.27-.42.6-.42.99s.14.73.42,1.01.63.42,1.05.42c.51,0,.92-.2,1.25-.6l.35.23c-.17.25-.41.44-.7.58-.29.13-.61.2-.95.2-.53,0-.98-.18-1.33-.53-.36-.35-.54-.78-.54-1.29s.18-.94.54-1.3c.36-.36.83-.54,1.39-.54.33,0,.64.07.93.21.28.14.5.34.65.59h.01Z"/><path d="m88.03,102.06c0-.51.17-.94.52-1.3.35-.36.77-.54,1.27-.54s.92.18,1.27.54c.35.36.52.79.52,1.29s-.17.93-.52,1.29c-.34.36-.77.54-1.28.54s-.93-.18-1.28-.54c-.35-.36-.52-.79-.52-1.28h.02Zm3.14,0c0-.38-.13-.71-.4-.99s-.58-.42-.95-.42-.68.14-.94.42-.4.61-.4,1,.13.71.38.98c.26.27.57.4.95.4s.7-.14.96-.41.39-.6.39-.98h0Z"/><path d="m92.45,100.32h.44v.6c.31-.46.7-.69,1.18-.69.26,0,.48.07.69.22s.34.35.41.61c.14-.27.32-.47.55-.62.22-.14.47-.21.76-.21s.55.11.78.33.35.66.35,1.32v1.88h-.46v-1.88c0-.32-.02-.55-.06-.7s-.12-.28-.25-.38-.3-.15-.52-.15-.42.07-.6.21c-.19.14-.31.33-.38.55s-.1.55-.1,1v1.35h-.44v-1.77c0-.37-.02-.63-.06-.79s-.12-.29-.26-.4c-.13-.11-.3-.16-.49-.16s-.38.06-.55.17-.31.27-.4.47c-.1.2-.15.54-.15,1.01v1.46h-.44v-3.45.02Z"/><path d="m98.55,100.32h.44v.63c.35-.48.81-.72,1.37-.72.48,0,.9.18,1.25.54.35.36.53.79.53,1.29s-.17.93-.52,1.29-.76.54-1.25.54c-.53,0-.99-.24-1.38-.71v1.85h-.44v-4.71h0Zm3.15,1.74c0-.39-.13-.72-.4-.99s-.59-.41-.98-.41-.71.14-.97.41-.39.6-.39,1,.13.73.4,1,.59.41.96.41.7-.14.97-.41.41-.61.41-1h0Z"/><path d="m102.81,102.06c0-.51.17-.94.52-1.3.35-.36.77-.54,1.27-.54s.92.18,1.27.54c.35.36.52.79.52,1.29s-.17.93-.52,1.29c-.34.36-.77.54-1.28.54s-.93-.18-1.28-.54c-.35-.36-.52-.79-.52-1.28h.02Zm3.14,0c0-.38-.13-.71-.4-.99s-.58-.42-.95-.42-.68.14-.94.42-.4.61-.4,1,.13.71.38.98c.26.27.57.4.95.4s.7-.14.96-.41.39-.6.39-.98h0Z"/><path d="m107.23,100.32h.45v.62c.36-.47.79-.71,1.29-.71.26,0,.49.07.7.21.21.14.36.32.44.55.09.23.13.56.13,1v1.77h-.44v-1.64c0-.4-.02-.68-.05-.82-.04-.14-.09-.26-.17-.36s-.17-.18-.29-.23c-.12-.05-.26-.08-.43-.08s-.33.04-.49.12-.3.2-.41.34c-.11.15-.19.3-.23.46s-.06.47-.06.94v1.27h-.45v-3.45h0Z"/><path d="m114.1,102.65l.38.19c-.37.69-.92,1.04-1.65,1.04-.52,0-.95-.18-1.29-.54-.34-.36-.51-.79-.51-1.29s.17-.93.51-1.29c.34-.36.76-.54,1.26-.54s.92.17,1.26.5.52.79.53,1.36h-3.1c.01.42.14.75.39,1s.55.38.91.38c.58,0,1.02-.27,1.31-.82h0Zm0-.94c-.06-.33-.21-.59-.46-.77-.24-.19-.52-.28-.84-.28-.65,0-1.07.35-1.27,1.05h2.57,0Z"/><path d="m115.41,100.32h.45v.62c.36-.47.79-.71,1.29-.71.26,0,.49.07.7.21.21.14.36.32.44.55.09.23.13.56.13,1v1.77h-.44v-1.64c0-.4-.02-.68-.05-.82-.04-.14-.09-.26-.17-.36s-.17-.18-.29-.23c-.12-.05-.26-.08-.43-.08s-.33.04-.49.12-.3.2-.41.34c-.11.15-.19.3-.23.46s-.06.47-.06.94v1.27h-.45v-3.45h0Z"/><path d="m120.21,103.22c0,.12.01.19.04.21s.11.03.23.03h.27v.38c-.18.03-.32.05-.43.05-.19,0-.34-.05-.43-.14s-.14-.24-.14-.45v-2.6h-.61v-.38h.61v-1.33h.45v1.33h.7v.38h-.7v2.53h0Z"/><path d="m122.99,99.36c0-.1.04-.19.11-.26.07-.07.16-.11.26-.11s.19.04.26.11c.07.07.11.16.11.26s-.04.19-.11.26c-.07.07-.16.11-.26.11s-.19-.04-.26-.11c-.07-.07-.11-.16-.11-.25h0Zm.14.96h.45v3.45h-.45v-3.45Z"/><path d="m124.5,100.32h.45v.62c.36-.47.79-.71,1.29-.71.26,0,.49.07.7.21.21.14.36.32.44.55.09.23.13.56.13,1v1.77h-.44v-1.64c0-.4-.02-.68-.05-.82-.04-.14-.09-.26-.17-.36s-.17-.18-.29-.23c-.12-.05-.26-.08-.43-.08s-.33.04-.49.12-.3.2-.41.34c-.11.15-.19.3-.23.46s-.06.47-.06.94v1.27h-.45v-3.45h0Z"/><path d="m131.91,98.99v4.78h-.44v-.59c-.39.47-.85.71-1.35.71s-.94-.18-1.28-.54c-.35-.36-.52-.79-.52-1.29s.17-.93.53-1.29.77-.54,1.26-.54c.56,0,1.02.24,1.37.72v-1.96h.44-.01Zm-.41,3.08c0-.39-.13-.73-.39-1s-.58-.41-.97-.41-.72.14-.98.42-.39.61-.39.99.13.71.4.99.59.42.95.42.69-.13.96-.4.42-.6.42-1.01h0Z"/><path d="m135.82,102.65l.38.19c-.37.69-.92,1.04-1.65,1.04-.52,0-.95-.18-1.29-.54-.34-.36-.51-.79-.51-1.29s.17-.93.51-1.29c.34-.36.76-.54,1.26-.54s.92.17,1.26.5.52.79.53,1.36h-3.1c.01.42.14.75.39,1s.55.38.91.38c.58,0,1.02-.27,1.31-.82h0Zm0-.94c-.06-.33-.21-.59-.46-.77-.24-.19-.52-.28-.84-.28-.65,0-1.07.35-1.27,1.05h2.57Z"/><path d="m138.1,102.32l-1,1.44h-.53l1.26-1.82-1.14-1.63h.53l.87,1.25.86-1.25h.53l-1.13,1.62,1.28,1.83h-.54l-1.01-1.44h.02Z"/><path d="m18.61,83.3v-.51l3.72-1.55-3.72-1.57v-.51l4.78,2.03v.1l-4.78,2h0Z"/><path d="m19.83,75.25h3.45v.43h-.59c.47.39.71.84.71,1.35s-.18.93-.54,1.28c-.36.35-.79.52-1.29.52s-.93-.17-1.29-.53c-.36-.35-.54-.77-.54-1.26,0-.56.24-1.02.72-1.37h-.63v-.43h0Zm1.74.41c-.39,0-.73.13-1,.4-.27.26-.41.59-.41.97s.14.71.42.97.61.4.99.4.71-.13.99-.4.42-.59.42-.96-.13-.7-.4-.96c-.27-.27-.61-.4-1.01-.4v-.02Z"/><path d="m19.83,74.42v-.45h.5c-.2-.12-.35-.24-.45-.35-.09-.11-.14-.24-.14-.38s.04-.28.12-.43l.38.23c-.04.06-.06.13-.06.2,0,.13.07.26.21.38s.32.21.54.26c.22.06.62.08,1.19.08h1.17v.45h-3.46Z"/><path d="m22.97,72.58c-.11,0-.2-.04-.28-.12s-.11-.17-.11-.28.04-.2.11-.27.17-.11.28-.11.2.04.28.11.11.17.11.27-.04.2-.12.28-.17.12-.28.12h.01Z"/><path d="m22.16,66.35l.2-.38c.69.37,1.04.92,1.04,1.65,0,.52-.18.95-.54,1.29s-.79.51-1.29.51-.93-.17-1.29-.51-.54-.76-.54-1.26.17-.92.5-1.26.79-.52,1.36-.53v3.1c.42-.01.75-.14,1-.39s.38-.55.38-.91c0-.58-.28-1.02-.83-1.31h.01Zm-.94,0c-.33.06-.59.21-.77.46-.19.24-.28.52-.28.84,0,.65.35,1.07,1.05,1.27v-2.57h0Z"/><path d="m21.84,64.06l1.44,1v.53l-1.82-1.26-1.63,1.14v-.53l1.25-.87-1.25-.86v-.53l1.62,1.13,1.83-1.28v.54l-1.44,1.01v-.02Z"/><path d="m19.83,62v-.44h.63c-.48-.35-.72-.81-.72-1.37,0-.49.18-.9.54-1.25s.79-.53,1.29-.53.93.17,1.29.52c.36.35.54.76.54,1.25,0,.53-.24.99-.71,1.38h1.85v.44h-4.71Zm1.74-3.15c-.39,0-.72.13-.99.4-.28.27-.41.59-.41.98s.14.71.41.97.61.39,1,.39.73-.13,1-.4.41-.59.41-.96-.14-.7-.41-.97-.61-.41-1-.41h-.01Z"/><path d="m18.5,57.64v-.44h4.78v.44h-4.78Z"/><path d="m19.83,52.84h3.45v.43h-.59c.47.39.71.84.71,1.35s-.18.93-.54,1.28c-.36.35-.79.52-1.29.52s-.93-.17-1.29-.53c-.36-.35-.54-.77-.54-1.26,0-.56.24-1.02.72-1.37h-.63v-.43h0Zm1.74.41c-.39,0-.73.13-1,.4-.27.26-.41.59-.41.97s.14.71.42.97.61.4.99.4.71-.13.99-.4.42-.59.42-.96-.13-.7-.4-.96c-.27-.27-.61-.4-1.01-.4v-.02Z"/><path d="m18.87,52.04c-.1,0-.19-.04-.26-.11-.07-.07-.11-.16-.11-.26s.04-.19.11-.26c.07-.07.16-.11.26-.11s.19.04.26.11c.07.07.11.16.11.26s-.04.19-.11.26c-.07.07-.16.11-.25.11h-.01Zm.96-.14v-.45h3.45v.45h-3.45Z"/><path d="m19.83,50.54v-.45h.62c-.47-.35-.71-.79-.71-1.29,0-.26.07-.49.21-.7.14-.21.33-.35.55-.44.23-.09.56-.13,1-.13h1.77v.44h-1.64c-.4,0-.67.02-.82.06-.14.04-.26.09-.36.17-.1.08-.18.17-.23.29s-.08.26-.08.43.04.33.12.49.2.3.34.41.3.19.46.23.47.06.94.06h1.27v.45h-3.45v-.02Z"/><path d="m22.16,43.67l.2-.38c.69.37,1.04.92,1.04,1.65,0,.52-.18.95-.54,1.29s-.79.51-1.29.51-.93-.17-1.29-.51-.54-.76-.54-1.26.17-.92.5-1.26.79-.52,1.36-.53v3.1c.42-.01.75-.14,1-.39s.38-.55.38-.91c0-.58-.28-1.02-.83-1.31h.01Zm-.94,0c-.33.06-.59.21-.77.46-.19.24-.28.52-.28.84,0,.65.35,1.07,1.05,1.27v-2.57h0Z"/><path d="m18.5,38.91h4.78v.44h-.59c.47.39.71.85.71,1.35s-.18.94-.54,1.28c-.36.35-.79.52-1.29.52s-.93-.17-1.29-.53c-.36-.35-.54-.77-.54-1.26,0-.56.24-1.02.72-1.37h-1.96v-.44h0Zm3.08.41c-.39,0-.73.13-1,.39s-.41.58-.41.97.14.72.42.98.61.39.99.39.71-.13.99-.4.42-.59.42-.95-.13-.69-.4-.96-.6-.42-1.01-.42h0Z"/><path d="m18.22,35.29v-.52c.45.22.96.39,1.53.51s1.14.18,1.71.18c1.13,0,2.12-.18,2.98-.53v.49c-.84.34-1.81.51-2.92.51-1.2,0-2.3-.21-3.3-.64Z"/><path d="m18.59,32.46h.44c-.07.17-.11.32-.11.45s.04.22.13.26c.08.04.22.06.41.06h.38v-.72h.38v.72h3.07v.45h-3.07v.45h-.38v-.45h-.45c-.3,0-.53-.06-.67-.17s-.21-.29-.21-.53c0-.14.03-.31.09-.52h-.01Z"/><path d="m19.83,32.01v-.45h.5c-.2-.12-.35-.24-.45-.35-.09-.11-.14-.24-.14-.38s.04-.28.12-.43l.38.23c-.04.06-.06.13-.06.2,0,.13.07.26.21.38s.32.21.54.26c.22.06.62.08,1.19.08h1.17v.45h-3.46Z"/><path d="m19.83,26.48h3.45v.43h-.59c.47.39.71.84.71,1.35s-.18.93-.54,1.28c-.36.35-.79.52-1.29.52s-.93-.17-1.29-.53c-.36-.35-.54-.77-.54-1.26,0-.56.24-1.02.72-1.37h-.63v-.43h0Zm1.74.41c-.39,0-.73.13-1,.4-.27.26-.41.59-.41.97s.14.71.42.97.61.4.99.4.71-.13.99-.4.42-.59.42-.96-.13-.7-.4-.96c-.27-.27-.61-.4-1.01-.4v-.02Z"/><path d="m20.54,22.11l.22.35c-.4.3-.6.72-.6,1.25,0,.42.13.76.4,1.04s.6.42.99.42.73-.14,1.01-.42.42-.63.42-1.05c0-.51-.2-.92-.6-1.25l.23-.35c.25.17.44.41.58.7.13.29.2.61.2.95,0,.53-.18.98-.53,1.33s-.78.54-1.29.54-.94-.18-1.3-.54-.54-.83-.54-1.39c0-.33.07-.64.21-.93.14-.28.34-.5.59-.65h.01Z"/><path d="m22.73,20.44c.12,0,.19,0,.21-.04s.03-.11.03-.23v-.27h.38c.03.18.05.32.05.43,0,.19-.05.34-.14.43-.1.09-.25.14-.45.14h-2.6v.61h-.38v-.61h-1.33v-.45h1.33v-.7h.38v.7h2.53,0Z"/><path d="m18.87,19.28c-.1,0-.19-.04-.26-.11s-.11-.16-.11-.26.04-.19.11-.26c.07-.07.16-.11.26-.11s.19.04.26.11.11.16.11.26-.04.19-.11.26c-.07.07-.16.11-.25.11h-.01Zm.96-.14v-.45h3.45v.45h-3.45Z"/><path d="m21.58,17.94c-.51,0-.94-.17-1.3-.52s-.54-.77-.54-1.27.18-.92.54-1.27.79-.52,1.29-.52.93.17,1.29.52c.36.34.54.77.54,1.28s-.18.93-.54,1.28c-.36.35-.79.52-1.28.52v-.02Zm0-3.14c-.38,0-.71.13-.99.4-.28.27-.42.58-.42.95s.14.68.42.94c.28.26.61.4,1,.4s.71-.13.98-.38c.27-.26.4-.57.4-.95s-.14-.7-.41-.96c-.27-.26-.6-.39-.98-.39h0Z"/><path d="m19.83,13.52v-.45h.62c-.47-.35-.71-.79-.71-1.29,0-.26.07-.49.21-.7.14-.21.33-.35.55-.44.23-.09.56-.13,1-.13h1.77v.44h-1.64c-.4,0-.67.02-.82.06-.14.04-.26.09-.36.17-.1.08-.18.17-.23.29s-.08.26-.08.43.04.33.12.49.2.3.34.41.3.19.46.23.47.06.94.06h1.27v.45h-3.45v-.02Z"/><path d="m18.22,9.14c1-.43,2.1-.64,3.3-.64,1.11,0,2.08.17,2.92.51v.49c-.86-.35-1.85-.53-2.98-.53-.58,0-1.15.06-1.71.18s-1.08.29-1.53.51v-.52h0Z"/><line class="g" x1="42.69" y1="16.2" x2="40.7" y2="16.2"/><line class="g" x1="42.69" y1="38.96" x2="40.7" y2="38.96"/><line class="g" x1="42.69" y1="61.71" x2="40.7" y2="61.71"/><line class="g" x1="42.69" y1="84.47" x2="40.7" y2="84.47"/><line class="g" x1="47.55" y1="84.47" x2="47.55" y2="86.4"/><line class="g" x1="61.38" y1="84.47" x2="61.38" y2="86.4"/><line class="g" x1="75.22" y1="84.47" x2="75.22" y2="86.4"/><line class="g" x1="89.05" y1="84.47" x2="89.05" y2="86.4"/><line class="g" x1="102.89" y1="84.47" x2="102.89" y2="86.4"/><line class="g" x1="116.72" y1="84.47" x2="116.72" y2="86.4"/><line class="g" x1="130.55" y1="84.47" x2="130.55" y2="86.4"/><line class="g" x1="144.39" y1="84.47" x2="144.39" y2="86.4"/></g></svg>