<?xml version="1.0" encoding="UTF-8"?><svg id="b" xmlns="http://www.w3.org/2000/svg" viewBox="0 0 148.67 99.68"><defs><style>.d,.e{stroke-linecap:round;}.d,.e,.f{stroke-linejoin:round;stroke-width:.54px;}.d,.e,.f,.g,.h{fill:none;}.d,.f,.g,.h{stroke:#000;}.e{stroke:#dd8452;}.i{fill:#fff;}.g,.h{stroke-width:.25px;}.h{stroke-linecap:square;}</style></defs><g id="c"><rect class="i" x="42.56" y="5.44" width="105.99" height="73.75"/><rect class="d" x="47.56" y="71.29" width=".31" height="5.27"/><line class="d" x1="47.56" y1="73.93" x2="47.37" y2="73.93"/><line class="d" x1="47.87" y1="73.93" x2="48.14" y2="73.93"/><line class="d" x1="47.37" y1="75.24" x2="47.37" y2="72.61"/><line class="d" x1="48.14" y1="75.24" x2="48.14" y2="72.61"/><rect class="d" x="73.98" y="60.76" width=".39" height="5.27"/><line class="d" x1="73.98" y1="63.39" x2="73.4" y2="63.39"/><line class="d" x1="74.37" y1="63.39" x2="74.87" y2="63.39"/><line class="d" x1="73.4" y1="64.71" x2="73.4" y2="62.07"/><line class="d" x1="74.87" y1="64.71" x2="74.87" y2="62.07"/><rect class="d" x="91.71" y="50.22" width=".5" height="5.27"/><line class="d" x1="91.71" y1="52.85" x2="91.02" y2="52.85"/><line class="d" x1="92.22" y1="52.85" x2="92.88" y2="52.85"/><line class="d" x1="91.02" y1="54.17" x2="91.02" y2="51.54"/><line class="d" x1="92.88" y1="54.17" x2="92.88" y2="51.54"/><path class="f" d="m93.01,54.48c.43,0,.84-.17,1.15-.47.3-.31.48-.72.48-1.15s-.17-.84-.48-1.15c-.3-.31-.72-.48-1.15-.48s-.85.17-1.15.48c-.31.3-.48.72-.48,1.15s.17.85.48,1.15c.3.3.72.47,1.15.47Z"/><rect class="d" x="102.62" y="39.68" width=".76" height="5.27"/><line class="d" x1="102.62" y1="42.32" x2="102.04" y2="42.32"/><line class="d" x1="103.38" y1="42.32" x2="104.11" y2="42.32"/><line class="d" x1="102.04" y1="43.63" x2="102.04" y2="41"/><line class="d" x1="104.11" y1="43.63" x2="104.11" y2="41"/><rect class="d" x="105.72" y="29.15" width=".53" height="5.27"/><line class="d" x1="105.72" y1="31.78" x2="105.15" y2="31.78"/><line class="d" x1="106.25" y1="31.78" x2="106.82" y2="31.78"/><line class="d" x1="105.15" y1="33.1" x2="105.15" y2="30.46"/><line class="d" x1="106.82" y1="33.1" x2="106.82" y2="30.46"/><path class="f" d="m107.1,33.41c.43,0,.85-.17,1.15-.48.3-.3.48-.72.48-1.15s-.17-.85-.48-1.15c-.3-.31-.72-.48-1.15-.48s-.85.17-1.15.48c-.3.3-.48.72-.48,1.15s.17.85.48,1.15c.3.31.72.48,1.15.48Z"/><path class="f" d="m107.2,33.41c.43,0,.85-.17,1.15-.48.3-.3.48-.72.48-1.15s-.17-.85-.48-1.15c-.31-.31-.72-.48-1.15-.48s-.84.17-1.15.48c-.3.3-.47.72-.47,1.15s.17.85.47,1.15.72.48,1.15.48Z"/><rect class="d" x="132.12" y="18.61" width=".59" height="5.27"/><line class="d" x1="132.12" y1="21.24" x2="131.72" y2="21.24"/><line class="d" x1="132.71" y1="21.24" x2="133.59" y2="21.24"/><line class="d" x1="131.72" y1="22.56" x2="131.72" y2="19.93"/><line class="d" x1="133.59" y1="22.56" x2="133.59" y2="19.93"/><path class="f" d="m133.74,22.88c.43,0,.84-.17,1.15-.48.31-.3.48-.72.48-1.15s-.17-.84-.48-1.15c-.3-.3-.72-.48-1.15-.48s-.85.17-1.15.48c-.3.3-.48.72-.48,1.15s.17.85.48,1.15c.31.3.72.48,1.15.48h0Z"/><rect class="d" x="142.2" y="8.08" width=".5" height="5.27"/><line class="d" x1="142.2" y1="10.71" x2="141.89" y2="10.71"/><line class="d" x1="142.7" y1="10.71" x2="143.19" y2="10.71"/><line class="d" x1="141.89" y1="12.02" x2="141.89" y2="9.39"/><line class="d" x1="143.19" y1="12.02" x2="143.19" y2="9.39"/><path class="f" d="m141.13,12.34c.43,0,.85-.17,1.15-.48.3-.3.48-.72.48-1.15s-.17-.85-.48-1.15c-.3-.3-.72-.48-1.15-.48s-.85.17-1.15.48c-.3.31-.48.72-.48,1.15s.17.84.48,1.15c.31.31.72.48,1.15.48Z"/><path class="f" d="m143.6,12.34c.43,0,.85-.17,1.15-.48.3-.3.48-.72.48-1.15s-.17-.85-.48-1.15c-.3-.3-.72-.48-1.15-.48s-.85.17-1.15.48c-.3.31-.48.72-.48,1.15s.17.84.48,1.15c.3.31.72.48,1.15.48Z"/><path class="f" d="m143.73,12.34c.43,0,.85-.17,1.15-.48.31-.3.48-.72.48-1.15s-.17-.85-.48-1.15c-.3-.3-.72-.48-1.15-.48s-.85.17-1.15.48c-.31.31-.48.72-.48,1.15s.17.84.48,1.15c.31.31.72.48,1.15.48Z"/><line class="e" x1="47.67" y1="76.56" x2="47.67" y2="71.29"/><line class="e" x1="74.21" y1="66.02" x2="74.21" y2="60.76"/><line class="e" x1="92.02" y1="55.49" x2="92.02" y2="50.22"/><line class="e" x1="102.9" y1="44.95" x2="102.9" y2="39.68"/><line class="e" x1="105.87" y1="34.42" x2="105.87" y2="29.15"/><line class="e" x1="132.5" y1="23.88" x2="132.5" y2="18.61"/><line class="e" x1="142.43" y1="13.34" x2="142.43" y2="8.08"/><line class="h" x1="42.56" y1="79.2" x2="42.56" y2="5.44"/><line class="h" x1="148.54" y1="79.2" x2="148.54" y2="5.44"/><line class="h" x1="42.56" y1="79.2" x2="148.54" y2="79.2"/><line class="h" x1="42.56" y1="5.44" x2="148.54" y2="5.44"/><path d="m59.61,12.4v-4.66h.1l3.1,3.57v-3.57h.46v4.66h-.1l-3.08-3.53v3.53h-.48Z"/><path d="m68.94,9.16v.44h-3.21v-.44h3.21Zm0,1.4v.44h-3.21v-.44h3.21Z"/><path d="m71.79,8.82h-.47c.09-.39.25-.68.5-.89s.54-.31.9-.31.66.12.92.35c.26.23.39.52.39.85,0,.4-.2.72-.6.96.27.11.48.28.63.5s.22.47.22.73c0,.41-.15.77-.45,1.06-.3.3-.68.44-1.14.44-.41,0-.74-.12-1.01-.35-.26-.23-.44-.57-.53-1.02h.45c.08.31.21.54.38.69s.41.22.72.22.57-.1.79-.3.32-.45.32-.74-.12-.53-.35-.71-.57-.27-1.02-.28v-.43c.32,0,.58-.07.78-.22s.3-.33.3-.55-.08-.4-.24-.55-.36-.22-.59-.22-.42.06-.56.19c-.14.12-.26.31-.36.56l.02.02Z"/><path d="m76.3,12.52c-.5,0-.89-.21-1.16-.62-.27-.41-.41-1.02-.41-1.83s.13-1.42.41-1.83c.27-.41.65-.62,1.15-.62s.89.21,1.19.63c.29.42.44,1.03.44,1.82s-.15,1.39-.44,1.82c-.29.42-.69.63-1.18.63h0Zm.01-4.46c-.36,0-.64.17-.84.52-.2.35-.3.85-.3,1.5,0,1.34.38,2.01,1.14,2.01.37,0,.66-.18.86-.53.21-.35.31-.85.31-1.5s-.11-1.14-.32-1.49c-.21-.35-.5-.52-.85-.52h0Z"/><path d="m49.88,16.75h.44v.63c.35-.48.81-.72,1.37-.72.49,0,.9.18,1.25.54s.53.79.53,1.29-.17.93-.52,1.29c-.35.36-.76.54-1.25.54-.53,0-.99-.24-1.38-.71v1.85h-.44v-4.71h0Zm3.15,1.74c0-.39-.13-.72-.4-.99s-.59-.41-.98-.41-.71.14-.97.41-.39.6-.39,1,.13.73.4,1,.59.41.96.41.7-.14.97-.41.41-.61.41-1h0Z"/><path d="m57.21,19.08l.38.19c-.37.69-.92,1.04-1.65,1.04-.52,0-.95-.18-1.29-.54s-.51-.79-.51-1.29.17-.93.51-1.29.76-.54,1.26-.54.92.17,1.26.5.52.79.53,1.36h-3.1c.01.42.14.75.39,1s.55.38.91.38c.58,0,1.02-.27,1.31-.82h0Zm0-.94c-.06-.33-.21-.59-.46-.77-.24-.19-.52-.28-.84-.28-.65,0-1.07.35-1.27,1.05h2.57,0Z"/><path d="m58.36,16.75h.45v.5c.12-.2.24-.35.35-.45.11-.1.24-.14.38-.14s.28.04.43.12l-.23.38c-.06-.04-.13-.06-.2-.06-.13,0-.26.07-.38.21s-.21.32-.26.54c-.06.22-.08.62-.08,1.19v1.17h-.45v-3.45h0Z"/><path d="m60.48,16.75h.44v.6c.31-.46.7-.69,1.18-.69.26,0,.48.07.69.22s.34.35.41.61c.14-.27.33-.47.55-.62.22-.14.47-.21.76-.21s.55.11.78.33.35.66.35,1.32v1.88h-.46v-1.88c0-.32-.02-.55-.06-.7s-.12-.28-.25-.38-.3-.15-.52-.15-.41.07-.6.21-.31.33-.38.55-.1.55-.1,1v1.35h-.44v-1.77c0-.37-.02-.63-.06-.79s-.13-.29-.26-.4-.3-.16-.49-.16-.38.06-.55.17-.31.27-.4.47c-.1.2-.15.54-.15,1.01v1.46h-.44v-3.45.02Z"/><path d="m69.54,20.2h-.45v-.62c-.36.47-.79.71-1.29.71-.26,0-.49-.07-.7-.21s-.36-.33-.44-.55c-.09-.23-.13-.56-.13-1v-1.77h.44v1.64c0,.4.02.68.05.82.04.14.09.26.17.36s.17.18.29.23.26.08.43.08.33-.04.49-.12.3-.2.41-.34c.11-.15.19-.3.23-.45s.06-.47.06-.94v-1.27h.45v3.45-.02Z"/><path d="m71.36,19.65c0,.12.01.19.04.21s.11.03.23.03h.27v.38c-.18.03-.32.05-.43.05-.19,0-.34-.05-.43-.14s-.14-.24-.14-.45v-2.6h-.61v-.38h.61v-1.33h.45v1.33h.7v.38h-.7v2.53h0Z"/><path d="m76.16,16.75v3.45h-.43v-.59c-.39.47-.84.71-1.35.71s-.93-.18-1.28-.54-.52-.79-.52-1.29.17-.93.53-1.29c.35-.36.77-.54,1.26-.54.56,0,1.02.24,1.37.72v-.63h.43-.01Zm-.41,1.74c0-.39-.13-.73-.4-1-.26-.27-.59-.41-.97-.41s-.71.14-.97.42-.4.61-.4.99.13.71.4.99.59.42.96.42.7-.13.96-.4.4-.61.4-1.01h.02Z"/><path d="m78,19.65c0,.12.01.19.04.21s.11.03.23.03h.27v.38c-.18.03-.32.05-.43.05-.19,0-.34-.05-.43-.14s-.14-.24-.14-.45v-2.6h-.61v-.38h.61v-1.33h.45v1.33h.7v.38h-.7v2.53h0Z"/><path d="m79.16,15.79c0-.1.04-.19.11-.26.07-.07.16-.11.26-.11s.19.04.26.11.11.16.11.26-.04.19-.11.26c-.07.07-.16.11-.26.11s-.19-.04-.26-.11-.11-.16-.11-.25h0Zm.14.96h.45v3.45h-.45v-3.45Z"/><path d="m80.5,18.5c0-.51.17-.94.52-1.3.35-.36.77-.54,1.27-.54s.92.18,1.27.54c.35.36.52.79.52,1.29s-.17.93-.52,1.29c-.34.36-.77.54-1.28.54s-.93-.18-1.28-.54-.52-.79-.52-1.28h.02Zm3.14,0c0-.38-.13-.71-.4-.99s-.58-.42-.95-.42-.68.14-.94.42-.4.61-.4,1,.13.71.38.98c.26.27.57.4.95.4s.7-.14.96-.41c.26-.27.39-.6.39-.98h0Z"/><path d="m84.92,16.75h.45v.62c.35-.47.79-.71,1.29-.71.26,0,.49.07.7.21.21.14.35.32.44.55s.13.56.13,1v1.77h-.44v-1.64c0-.4-.02-.68-.06-.82-.04-.14-.09-.26-.17-.36-.08-.1-.17-.18-.29-.23s-.26-.08-.43-.08-.33.04-.49.12-.3.2-.41.34c-.11.15-.19.3-.23.46s-.06.47-.06.94v1.27h-.45v-3.45h.02Z"/><path d="m90.62,17.13l-.29.29c-.24-.23-.47-.34-.7-.34-.15,0-.27.05-.37.14s-.15.21-.15.34.05.25.16.35c.11.1.29.21.55.35.26.14.46.28.59.44.14.16.2.35.2.58,0,.29-.1.53-.3.73s-.45.3-.74.3c-.19,0-.38-.04-.56-.13-.18-.09-.33-.21-.46-.36l.28-.31c.23.26.47.38.72.38.18,0,.33-.06.46-.18s.19-.25.19-.41-.06-.29-.17-.39c-.11-.1-.29-.22-.55-.35s-.45-.27-.58-.43-.19-.35-.19-.6.09-.45.27-.63c.18-.17.42-.26.71-.26s.6.16.92.47v.02Z"/><path d="m2.99.14v.62c-.24-.11-.46-.16-.65-.16s-.31.06-.37.18-.08.32-.08.59v.54h1.03v.54h-1.03v4.4h-.64V2.45h-.64v-.54h.64v-.64c0-.43.08-.75.24-.96s.41-.31.75-.31c.2,0,.45.04.74.13h.01Z"/><path d="m30.77,8.15h.41l.8,2.94,1.13-2.94h.08l1.12,2.94.82-2.94h.4l-1.13,4.05h-.08l-1.17-3.08-1.19,3.08h-.07l-1.12-4.05h0Z"/><path d="m35.6,11.32h.33l.69,1.12.7-1.12h.33l-.86,1.39.91,1.48h-.34l-.75-1.2-.75,1.2h-.34l.92-1.48-.85-1.39h0Z"/><path d="m30.78,39.17h.41l.8,2.94,1.13-2.94h.08l1.12,2.94.82-2.94h.4l-1.13,4.05h-.08l-1.17-3.08-1.19,3.08h-.07l-1.12-4.05h0Z"/><path d="m35.53,42.34h.33l.73,1.18.72-1.18h.33l-.91,1.5v1.37h-.28v-1.37l-.93-1.5h.01Z"/><path d="m25.99,49.28c.57,0,1.02.19,1.35.56.33.37.49.83.49,1.39s-.16,1.02-.48,1.4c-.32.38-.77.57-1.36.57s-1.02-.19-1.35-.56c-.33-.37-.49-.84-.49-1.4s.16-1.03.49-1.4.78-.56,1.35-.56h0Zm0,3.61c.44,0,.79-.15,1.06-.46.27-.31.4-.7.4-1.2s-.13-.89-.4-1.2-.62-.46-1.06-.46-.79.15-1.06.46-.4.7-.4,1.2.13.89.4,1.2.62.46,1.06.46Zm-.98-1.84h2.01v.31h-2.01v-.31Z"/><path d="m27.66,52.34h.29v1.2h1.46v-1.2h.29v2.87h-.29v-1.39h-1.46v1.39h-.29v-2.87Z"/><path d="m30.4,52.34h1.65v.28h-1.36v.9h1.35v.28h-1.35v1.13h1.35v.28h-1.63v-2.87h-.01Z"/><path d="m33.72,52.23l1.34,2.99h-.31l-.45-.98h-1.24l-.45.98h-.32l1.36-2.99h.07Zm-.04.64l-.49,1.08h.98l-.49-1.08h0Z"/><path d="m35.5,55.21v-2.87h.6c.41,0,.71.03.9.09s.35.15.49.28.25.29.32.47c.07.19.11.4.11.65s-.06.48-.17.7c-.12.22-.27.39-.47.5s-.48.17-.86.17h-.92,0Zm.28-.27h.33c.35,0,.6-.02.75-.05.16-.03.29-.1.41-.21s.21-.23.27-.37c.06-.15.09-.31.09-.5s-.04-.36-.11-.52c-.07-.16-.17-.29-.3-.4-.13-.1-.28-.17-.46-.21-.18-.04-.44-.05-.78-.05h-.2v2.32h0Z"/><path d="m28.31,18.27v-.38h2.17v.38h-.88v3.56h-.4v-3.56h-.89Z"/><path d="m31.57,20.98h.27v2.94h-.27v-2.94Z"/><path d="m34.53,21.8v2.12h-.27v-.36c-.24.29-.52.44-.83.44s-.58-.11-.79-.33c-.21-.22-.32-.49-.32-.8s.11-.57.32-.79c.22-.22.47-.33.78-.33.35,0,.63.15.84.44v-.39h.27Zm-.25,1.07c0-.24-.08-.45-.24-.61-.16-.17-.36-.25-.6-.25s-.44.09-.6.26-.24.38-.24.61.08.44.25.61.36.26.59.26.43-.08.59-.25c.17-.17.25-.37.25-.62h0Z"/><path d="m36.21,22.03l-.18.18c-.15-.14-.29-.21-.43-.21-.09,0-.17.03-.23.09s-.09.13-.09.21.03.16.1.22.18.13.34.22c.16.08.28.17.37.27s.13.22.13.36c0,.18-.06.33-.19.45s-.28.18-.46.18c-.12,0-.24-.03-.35-.08-.11-.05-.2-.13-.28-.22l.17-.19c.14.16.29.24.44.24.11,0,.2-.04.28-.11s.12-.16.12-.25-.03-.18-.1-.24c-.07-.06-.18-.13-.34-.21s-.28-.17-.36-.26-.12-.22-.12-.37.05-.28.17-.39c.11-.11.26-.16.44-.16s.37.1.57.29v-.02Z"/><path d="m37.21,23.59c0,.07,0,.11.03.13s.07.02.14.02h.16v.23c-.11.02-.2.03-.26.03-.12,0-.21-.03-.26-.09-.06-.06-.08-.15-.08-.28v-1.6h-.38v-.23h.38v-.82h.28v.82h.43v.23h-.43v1.56h-.01Z"/><path d="m9.64,30.52c0-.38.09-.73.28-1.06.18-.32.43-.58.75-.76s.67-.27,1.04-.27.73.09,1.05.27c.32.18.58.43.76.75.19.32.28.67.28,1.04s-.09.72-.28,1.04c-.18.32-.43.57-.76.76-.32.18-.67.27-1.04.27s-.72-.09-1.05-.27-.58-.43-.76-.75c-.18-.32-.28-.66-.28-1.03h.01Zm3.75-.02c0-.47-.16-.87-.49-1.2s-.72-.49-1.18-.49-.87.16-1.18.49c-.32.33-.48.73-.48,1.2s.16.87.49,1.2.72.49,1.18.49.85-.16,1.18-.48c.33-.32.49-.72.49-1.21h0Z"/><path d="m17.44,28.43v4.05h-.37v-.5c-.33.4-.72.6-1.15.6s-.79-.15-1.08-.46c-.29-.3-.44-.67-.44-1.09s.15-.79.45-1.09.65-.45,1.07-.45c.48,0,.86.2,1.16.61v-1.66h.37-.01Zm-.35,2.6c0-.33-.11-.62-.33-.85-.22-.23-.49-.35-.82-.35s-.61.12-.83.35-.33.51-.33.84.11.6.34.84c.23.24.5.36.8.36s.58-.11.82-.34c.23-.23.35-.51.35-.85h0Z"/><path d="m18.16,31.04c0-.43.15-.79.44-1.1s.65-.46,1.08-.46.78.15,1.08.46.44.67.44,1.09-.15.79-.44,1.09-.65.45-1.08.45-.79-.15-1.08-.45c-.29-.3-.44-.66-.44-1.09h0Zm2.66,0c0-.32-.11-.6-.34-.84s-.49-.35-.8-.35-.58.12-.8.35-.33.52-.33.84.11.6.32.83c.22.23.48.34.81.34s.59-.11.81-.34.33-.51.33-.83h0Z"/><path d="m24.4,32.48h-.38v-.52c-.3.4-.67.6-1.09.6-.22,0-.42-.06-.59-.18-.18-.12-.3-.27-.37-.47-.07-.19-.11-.48-.11-.85v-1.5h.37v1.39c0,.34.02.57.05.69s.08.22.14.31c.06.08.15.15.24.19s.22.07.36.07.28-.03.42-.1c.13-.07.25-.17.35-.29s.16-.25.19-.38.05-.4.05-.8v-1.07h.38v2.92h-.01Z"/><path d="m25.09,29.56h.38v.42c.1-.17.2-.3.3-.38s.21-.12.32-.12.24.03.36.1l-.2.32s-.11-.05-.17-.05c-.11,0-.22.06-.32.18s-.17.27-.22.45c-.05.19-.07.52-.07,1.01v.99h-.38v-2.92h0Z"/><path d="m26.24,31.7h1.65v.28h-1.36v.9h1.35v.28h-1.35v1.13h1.35v.28h-1.63v-2.87h-.01Z"/><path d="m28.22,31.7h.3l.58,2.14.82-2.14h.06l.82,2.14.6-2.14h.29l-.82,2.94h-.06l-.85-2.24-.87,2.24h-.05l-.81-2.94h-.01Z"/><path d="m32.09,34.57l.41-2.87h.04l1.17,2.35,1.16-2.35h.04l.41,2.87h-.28l-.28-2.05-1.01,2.05h-.07l-1.03-2.07-.28,2.07h-.28Z"/><path d="m37.07,31.58l1.34,2.99h-.31l-.45-.98h-1.24l-.45.98h-.32l1.36-2.99h.07Zm-.04.64l-.49,1.08h.98l-.49-1.08h0Z"/><path d="m13.66,62.03c0-.38.09-.73.28-1.06.18-.32.43-.58.75-.76s.67-.27,1.04-.27.73.09,1.05.27c.32.18.58.43.76.75.19.32.28.67.28,1.04s-.09.72-.28,1.04c-.18.32-.43.57-.76.76-.32.18-.67.27-1.04.27s-.72-.09-1.05-.27-.58-.43-.76-.75c-.18-.32-.28-.66-.28-1.03h.01Zm3.75-.02c0-.47-.16-.87-.49-1.2s-.72-.49-1.18-.49-.87.16-1.18.49c-.32.33-.48.73-.48,1.2s.16.87.49,1.2.72.49,1.18.49.85-.16,1.18-.48c.33-.32.49-.72.49-1.21h0Z"/><path d="m21.46,59.94v4.05h-.37v-.5c-.33.4-.72.6-1.15.6s-.79-.15-1.08-.46c-.29-.3-.44-.67-.44-1.09s.15-.79.45-1.09.65-.45,1.07-.45c.48,0,.86.2,1.16.61v-1.66h.37-.01Zm-.35,2.6c0-.33-.11-.62-.33-.85-.22-.23-.49-.35-.82-.35s-.61.12-.83.35-.33.51-.33.84.11.6.34.84c.23.24.5.36.8.36s.58-.11.82-.34c.23-.23.35-.51.35-.85h0Z"/><path d="m22.17,62.54c0-.43.15-.79.44-1.1s.65-.46,1.08-.46.78.15,1.08.46.44.67.44,1.09-.15.79-.44,1.09-.65.45-1.08.45-.79-.15-1.08-.45c-.29-.3-.44-.66-.44-1.09h0Zm2.66,0c0-.32-.11-.6-.34-.84s-.49-.35-.8-.35-.58.12-.8.35-.33.52-.33.84.11.6.32.83c.22.23.48.34.81.34s.59-.11.81-.34.33-.51.33-.83h0Z"/><path d="m28.41,63.98h-.38v-.52c-.3.4-.67.6-1.09.6-.22,0-.42-.06-.59-.18-.18-.12-.3-.27-.37-.47-.07-.19-.11-.48-.11-.85v-1.5h.37v1.39c0,.34.02.57.05.69s.08.22.14.31c.06.08.15.15.24.19s.22.07.36.07.28-.03.42-.1c.13-.07.25-.17.35-.29s.16-.25.19-.38.05-.4.05-.8v-1.07h.38v2.92h-.01Z"/><path d="m29.11,61.07h.38v.42c.1-.17.2-.3.3-.38s.21-.12.32-.12.24.03.36.1l-.2.32s-.11-.05-.17-.05c-.11,0-.22.06-.32.18s-.17.27-.22.45c-.05.19-.07.52-.07,1.01v.99h-.38v-2.92h0Z"/><path d="m30.25,63.2h1.65v.28h-1.36v.9h1.35v.28h-1.35v1.13h1.35v.28h-1.63v-2.87h-.01Z"/><path d="m32.4,66.07v-2.87h.06l1.91,2.2v-2.2h.28v2.87h-.06l-1.89-2.17v2.17h-.3Z"/><path d="m38.02,63.73l-.22.17c-.27-.33-.61-.5-1.03-.5-.34,0-.63.12-.88.36s-.37.53-.37.88.12.64.36.87.54.35.91.35c.4,0,.74-.16,1.01-.47l.22.17c-.14.19-.32.33-.54.43-.22.1-.45.15-.72.15-.46,0-.83-.14-1.12-.43s-.44-.65-.44-1.09c0-.27.07-.52.2-.75s.32-.41.56-.54c.24-.13.5-.2.77-.2s.52.05.74.16c.22.1.4.25.54.45h.01Z"/><path d="m10.65,73.19c0-.38.09-.73.28-1.06.18-.32.43-.58.75-.76s.67-.27,1.04-.27.73.09,1.05.27c.32.18.58.43.76.75.19.32.28.67.28,1.04s-.09.72-.28,1.04c-.18.32-.43.57-.76.76-.32.18-.67.27-1.04.27s-.72-.09-1.05-.27-.58-.43-.76-.75c-.18-.32-.28-.66-.28-1.03h.01Zm3.75-.02c0-.47-.16-.87-.49-1.2s-.72-.49-1.18-.49-.87.16-1.18.49c-.32.33-.48.73-.48,1.2s.16.87.49,1.2.72.49,1.18.49.85-.16,1.18-.48c.33-.32.49-.72.49-1.21h0Z"/><path d="m18.45,71.1v4.05h-.37v-.5c-.33.4-.72.6-1.15.6s-.79-.15-1.08-.46c-.29-.3-.44-.67-.44-1.09s.15-.79.45-1.09.65-.45,1.07-.45c.48,0,.86.2,1.16.61v-1.66h.37-.01Zm-.35,2.6c0-.33-.11-.62-.33-.85-.22-.23-.49-.35-.82-.35s-.61.12-.83.35-.33.51-.33.84.11.6.34.84c.23.24.5.36.8.36s.58-.11.82-.34c.23-.23.35-.51.35-.85h0Z"/><path d="m19.16,73.7c0-.43.15-.79.44-1.1s.65-.46,1.08-.46.78.15,1.08.46.44.67.44,1.09-.15.79-.44,1.09-.65.45-1.08.45-.79-.15-1.08-.45c-.29-.3-.44-.66-.44-1.09h0Zm2.66,0c0-.32-.11-.6-.34-.84s-.49-.35-.8-.35-.58.12-.8.35-.33.52-.33.84.11.6.32.83c.22.23.48.34.81.34s.59-.11.81-.34.33-.51.33-.83h0Z"/><path d="m25.4,75.14h-.38v-.52c-.3.4-.67.6-1.09.6-.22,0-.42-.06-.59-.18-.18-.12-.3-.27-.37-.47-.07-.19-.11-.48-.11-.85v-1.5h.37v1.39c0,.34.02.57.05.69s.08.22.14.31c.06.08.15.15.24.19s.22.07.36.07.28-.03.42-.1c.13-.07.25-.17.35-.29s.16-.25.19-.38.05-.4.05-.8v-1.07h.38v2.92h-.01Z"/><path d="m26.1,72.22h.38v.42c.1-.17.2-.3.3-.38s.21-.12.32-.12.24.03.36.1l-.2.32s-.11-.05-.17-.05c-.11,0-.22.06-.32.18s-.17.27-.22.45c-.05.19-.07.52-.07,1.01v.99h-.38v-2.92h0Z"/><path d="m27.07,76.44v-.03c0-.63.44-1.07,1.03-1.07s1.03.44,1.03,1.06v.03c0,.63-.44,1.07-1.03,1.07s-1.02-.45-1.02-1.06h-.01Zm1.71,0v-.03c0-.48-.27-.8-.68-.8s-.68.31-.68.79v.03c0,.48.26.79.68.79s.68-.32.68-.79h0Zm.86-1.06h.33v.33c.1-.2.33-.37.67-.37.43,0,.74.24.74.84v1.28h-.33v-1.31c0-.37-.16-.53-.49-.53-.31,0-.58.2-.58.57v1.27h-.33v-2.09h-.01Zm3.24-1.01h.3l-1.16,3.69h-.3l1.16-3.69Zm.32,2.07v-.03c0-.63.44-1.07,1.03-1.07s1.03.44,1.03,1.06v.03c0,.63-.44,1.07-1.03,1.07s-1.02-.45-1.02-1.06h-.01Zm1.71,0v-.03c0-.48-.27-.8-.68-.8s-.68.31-.68.79v.03c0,.48.26.79.68.79s.68-.32.68-.79h0Zm.93-.78h-.3v-.28h.3v-.31c0-.42.21-.67.62-.67.11,0,.16,0,.25.04v.28c-.06-.02-.14-.04-.24-.04-.22,0-.3.15-.3.36v.35h.82v-.34c0-.42.21-.67.62-.67.11,0,.16,0,.25.04v.28c-.06-.02-.14-.04-.24-.04-.22,0-.3.15-.3.36v.38h.51v.28h-.51v1.81h-.33v-1.81h-.82v1.81h-.33v-1.83Z"/><path d="m55.19,87.27c-.42,0-.75-.17-.98-.52s-.34-.87-.34-1.55.11-1.2.34-1.55.55-.52.98-.52.76.18,1,.54.37.87.37,1.54-.12,1.18-.37,1.54-.58.54-1,.54v-.02Zm.01-3.77c-.3,0-.54.15-.71.44-.17.29-.25.72-.25,1.27,0,1.14.32,1.7.96,1.7.31,0,.55-.15.73-.45.17-.3.26-.72.26-1.27s-.09-.97-.27-1.26-.42-.44-.72-.44h0Z"/><path d="m56.97,86.91c0-.09.03-.17.1-.23s.14-.1.23-.1.17.03.23.1.1.14.1.24-.03.17-.1.24c-.06.06-.14.1-.23.1s-.17-.03-.23-.1c-.07-.07-.1-.15-.1-.24h0Z"/><path d="m58.65,83.23h.78v3.95h-.39v-3.56h-.62l.24-.38h0Z"/><path d="m87.97,87.27c-.42,0-.75-.17-.98-.52s-.34-.87-.34-1.55.11-1.2.34-1.55.55-.52.98-.52.76.18,1,.54.37.87.37,1.54-.12,1.18-.37,1.54-.58.54-1,.54v-.02Zm.01-3.77c-.3,0-.54.15-.71.44-.17.29-.25.72-.25,1.27,0,1.14.32,1.7.96,1.7.31,0,.55-.15.73-.45.17-.3.26-.72.26-1.27s-.09-.97-.27-1.26-.42-.44-.72-.44h0Z"/><path d="m89.74,86.91c0-.09.03-.17.1-.23s.14-.1.23-.1.17.03.23.1.1.14.1.24-.03.17-.1.24c-.06.06-.14.1-.23.1s-.17-.03-.23-.1c-.07-.07-.1-.15-.1-.24h0Z"/><path d="m91.4,84.46h-.38c.02-.4.15-.73.4-.97s.55-.37.9-.37.65.11.88.34.35.51.35.84c0,.25-.07.47-.2.68-.13.21-.33.46-.59.74l-.98,1.06h1.82v.38h-2.68l1.51-1.63c.26-.29.45-.51.57-.68.11-.17.17-.35.17-.57s-.08-.4-.25-.56-.37-.24-.62-.24-.45.08-.62.25c-.16.17-.26.4-.28.71v.02Z"/><path d="m122.06,87.27c-.42,0-.75-.17-.98-.52s-.34-.87-.34-1.55.11-1.2.34-1.55.55-.52.98-.52.76.18,1,.54.37.87.37,1.54-.12,1.18-.37,1.54-.58.54-1,.54v-.02Zm.01-3.77c-.3,0-.54.15-.71.44-.17.29-.25.72-.25,1.27,0,1.14.32,1.7.96,1.7.31,0,.55-.15.73-.45.17-.3.26-.72.26-1.27s-.09-.97-.27-1.26-.42-.44-.72-.44h0Z"/><path d="m123.83,86.91c0-.09.03-.17.1-.23s.14-.1.23-.1.17.03.23.1.1.14.1.24-.03.17-.1.24c-.06.06-.14.1-.23.1s-.17-.03-.23-.1c-.07-.07-.1-.15-.1-.24h0Z"/><path d="m125.44,84.14h-.4c.07-.33.21-.58.42-.75.21-.17.46-.26.76-.26s.56.1.78.3.33.44.33.72c0,.34-.17.61-.51.81.23.1.41.24.54.43.13.19.19.4.19.62,0,.35-.13.65-.38.9s-.58.38-.96.38c-.34,0-.63-.1-.85-.29-.22-.2-.37-.48-.45-.86h.38c.07.26.18.45.32.58s.35.19.61.19.49-.08.67-.25c.18-.17.27-.38.27-.63s-.1-.45-.3-.6c-.2-.15-.49-.23-.86-.24v-.36c.27,0,.49-.06.66-.19.17-.12.26-.28.26-.46s-.07-.34-.21-.46c-.14-.12-.3-.18-.5-.18s-.35.05-.47.16-.22.26-.3.48v-.04Z"/><path d="m59.08,93.75h.93c.55,0,.91.02,1.08.06s.32.12.46.23c.14.11.25.24.33.41.08.16.12.34.12.54,0,.32-.09.58-.26.79s-.39.33-.65.39c-.26.05-.66.08-1.21.08h-.33v2.17h-.47v-4.66h0Zm.47.45v1.59h.79c.47,0,.79-.07.94-.23.16-.16.23-.35.23-.57,0-.52-.38-.79-1.14-.79h-.82Z"/><path d="m65.67,97.3l.38.19c-.37.69-.92,1.04-1.65,1.04-.52,0-.95-.18-1.29-.54s-.51-.79-.51-1.29.17-.93.51-1.29.76-.54,1.26-.54.92.17,1.26.5.52.79.53,1.36h-3.1c.01.42.14.75.39,1s.55.38.91.38c.58,0,1.02-.27,1.31-.82h0Zm0-.94c-.06-.33-.21-.59-.46-.77-.24-.19-.52-.28-.84-.28-.65,0-1.07.35-1.27,1.05h2.57,0Z"/><path d="m66.82,94.97h.45v.5c.12-.2.24-.35.35-.45.11-.1.24-.14.38-.14s.28.04.43.12l-.23.38c-.06-.04-.13-.06-.2-.06-.13,0-.26.07-.38.21s-.21.32-.26.54c-.06.22-.08.62-.08,1.19v1.17h-.45v-3.45h0Z"/><path d="m68.94,94.97h.44v.6c.31-.46.7-.69,1.18-.69.26,0,.48.07.69.22s.34.35.41.61c.14-.27.32-.47.55-.62.22-.14.47-.21.76-.21s.55.11.78.33.35.66.35,1.32v1.88h-.46v-1.88c0-.32-.02-.55-.06-.7s-.12-.28-.25-.38-.3-.15-.52-.15-.42.07-.6.21c-.19.14-.31.33-.38.55s-.1.55-.1,1v1.35h-.44v-1.77c0-.37-.02-.63-.06-.79-.04-.16-.12-.29-.26-.4-.13-.11-.3-.16-.49-.16s-.38.06-.55.17-.31.27-.4.47c-.1.2-.15.54-.15,1.01v1.46h-.44v-3.45.02Z"/><path d="m78,98.42h-.45v-.62c-.36.47-.79.71-1.29.71-.26,0-.49-.07-.7-.21-.21-.14-.36-.33-.44-.55-.09-.23-.13-.56-.13-1v-1.77h.44v1.64c0,.4.02.68.05.82.04.14.09.26.17.36s.17.18.29.23.26.08.43.08.33-.04.49-.12.3-.2.41-.34c.11-.15.19-.3.23-.45s.06-.47.06-.94v-1.27h.45v3.45-.02Z"/><path d="m79.82,97.87c0,.12.01.19.04.21s.11.03.23.03h.27v.38c-.18.03-.32.05-.43.05-.19,0-.34-.05-.43-.14s-.14-.24-.14-.45v-2.6h-.61v-.38h.61v-1.33h.45v1.33h.7v.38h-.7v2.53h0Z"/><path d="m84.65,94.97v3.45h-.44v-.59c-.39.47-.84.71-1.35.71s-.93-.18-1.28-.54-.52-.79-.52-1.29.17-.93.53-1.29c.35-.36.77-.54,1.26-.54.56,0,1.02.24,1.37.72v-.63h.44-.01Zm-.41,1.74c0-.39-.13-.73-.4-1-.26-.27-.59-.41-.97-.41s-.71.14-.97.42-.4.61-.4.99.13.71.4.99.59.42.96.42.7-.13.96-.4.4-.61.4-1.01h.02Z"/><path d="m86.49,97.87c0,.12.01.19.04.21s.11.03.23.03h.27v.38c-.18.03-.32.05-.43.05-.19,0-.34-.05-.43-.14s-.14-.24-.14-.45v-2.6h-.61v-.38h.61v-1.33h.45v1.33h.7v.38h-.7v2.53h0Z"/><path d="m87.64,94.01c0-.1.04-.19.11-.26.07-.07.16-.11.26-.11s.19.04.26.11.11.16.11.26-.04.19-.11.26c-.07.07-.16.11-.26.11s-.19-.04-.26-.11-.11-.16-.11-.25h0Zm.14.96h.45v3.45h-.45v-3.45Z"/><path d="m88.99,96.71c0-.51.17-.94.52-1.3.35-.36.77-.54,1.27-.54s.92.18,1.27.54c.35.36.52.79.52,1.29s-.17.93-.52,1.29c-.34.36-.77.54-1.28.54s-.93-.18-1.28-.54-.52-.79-.52-1.28h.02Zm3.14,0c0-.38-.13-.71-.4-.99s-.58-.42-.95-.42-.68.14-.94.42-.4.61-.4,1,.13.71.38.98c.26.27.57.4.95.4s.7-.14.96-.41.39-.6.39-.98h0Z"/><path d="m93.41,94.97h.45v.62c.36-.47.79-.71,1.29-.71.26,0,.49.07.7.21.21.14.36.32.44.55.09.23.13.56.13,1v1.77h-.44v-1.64c0-.4-.02-.68-.05-.82-.04-.14-.09-.26-.17-.36s-.17-.18-.29-.23-.26-.08-.43-.08-.33.04-.49.12-.3.2-.41.34c-.11.15-.19.3-.23.46s-.06.47-.06.94v1.27h-.45v-3.45h0Z"/><path d="m98.78,94.01c0-.1.04-.19.11-.26.07-.07.16-.11.26-.11s.19.04.26.11.11.16.11.26-.04.19-.11.26c-.07.07-.16.11-.26.11s-.19-.04-.26-.11-.11-.16-.11-.25h0Zm.14.96h.45v3.45h-.45v-3.45Z"/><path d="m100.29,94.97h.44v.6c.31-.46.7-.69,1.18-.69.26,0,.48.07.69.22s.34.35.41.61c.14-.27.32-.47.55-.62.22-.14.47-.21.76-.21s.55.11.78.33.35.66.35,1.32v1.88h-.46v-1.88c0-.32-.02-.55-.06-.7s-.12-.28-.25-.38-.3-.15-.52-.15-.42.07-.6.21c-.19.14-.31.33-.38.55s-.1.55-.1,1v1.35h-.44v-1.77c0-.37-.02-.63-.06-.79-.04-.16-.12-.29-.26-.4-.13-.11-.3-.16-.49-.16s-.38.06-.55.17-.31.27-.4.47c-.1.2-.15.54-.15,1.01v1.46h-.44v-3.45.02Z"/><path d="m106.39,94.97h.44v.63c.35-.48.81-.72,1.37-.72.48,0,.9.18,1.25.54s.53.79.53,1.29-.17.93-.52,1.29-.76.54-1.25.54c-.53,0-.99-.24-1.38-.71v1.85h-.44v-4.71h0Zm3.15,1.74c0-.39-.13-.72-.4-.99s-.59-.41-.98-.41-.71.14-.97.41-.39.6-.39,1,.13.73.4,1,.59.41.96.41.7-.14.97-.41.41-.61.41-1h0Z"/><path d="m110.65,96.71c0-.51.17-.94.52-1.3.35-.36.77-.54,1.27-.54s.92.18,1.27.54c.35.36.52.79.52,1.29s-.17.93-.52,1.29c-.34.36-.77.54-1.28.54s-.93-.18-1.28-.54-.52-.79-.52-1.28h.02Zm3.14,0c0-.38-.13-.71-.4-.99s-.58-.42-.95-.42-.68.14-.94.42-.4.61-.4,1,.13.71.38.98c.26.27.57.4.95.4s.7-.14.96-.41.39-.6.39-.98h0Z"/><path d="m114.9,94.97h.45v.5c.12-.2.24-.35.35-.45.11-.1.24-.14.38-.14s.28.04.43.12l-.23.38c-.06-.04-.13-.06-.2-.06-.13,0-.26.07-.38.21s-.21.32-.26.54c-.06.22-.08.62-.08,1.19v1.17h-.45v-3.45h0Z"/><path d="m117.89,97.87c0,.12.01.19.04.21s.11.03.23.03h.27v.38c-.18.03-.32.05-.43.05-.19,0-.34-.05-.43-.14s-.14-.24-.14-.45v-2.6h-.61v-.38h.61v-1.33h.45v1.33h.7v.38h-.7v2.53h0Z"/><path d="m122.72,94.97v3.45h-.44v-.59c-.39.47-.84.71-1.35.71s-.93-.18-1.28-.54-.52-.79-.52-1.29.17-.93.53-1.29c.35-.36.77-.54,1.26-.54.56,0,1.02.24,1.37.72v-.63h.44-.01Zm-.41,1.74c0-.39-.13-.73-.4-1-.26-.27-.59-.41-.97-.41s-.71.14-.97.42-.4.61-.4.99.13.71.4.99.59.42.96.42.7-.13.96-.4.4-.61.4-1.01h.02Z"/><path d="m123.73,94.97h.45v.62c.36-.47.79-.71,1.29-.71.26,0,.49.07.7.21.21.14.36.32.44.55.09.23.13.56.13,1v1.77h-.44v-1.64c0-.4-.02-.68-.05-.82-.04-.14-.09-.26-.17-.36s-.17-.18-.29-.23-.26-.08-.43-.08-.33.04-.49.12-.3.2-.41.34c-.11.15-.19.3-.23.46s-.06.47-.06.94v1.27h-.45v-3.45h0Z"/><path d="m131.06,95.68l-.35.22c-.3-.4-.72-.6-1.25-.6-.42,0-.76.13-1.05.4-.28.27-.42.6-.42.99s.14.73.42,1.01.63.42,1.05.42c.51,0,.92-.2,1.25-.6l.35.23c-.17.25-.41.44-.7.58-.29.13-.61.2-.95.2-.53,0-.98-.18-1.33-.53-.36-.35-.54-.78-.54-1.29s.18-.94.54-1.3c.36-.36.83-.54,1.39-.54.33,0,.64.07.93.21.28.14.5.34.65.59h.01Z"/><path d="m134.79,97.3l.38.19c-.37.69-.92,1.04-1.65,1.04-.52,0-.95-.18-1.29-.54s-.51-.79-.51-1.29.17-.93.51-1.29.76-.54,1.26-.54.92.17,1.26.5.52.79.53,1.36h-3.1c.01.42.14.75.39,1s.55.38.91.38c.58,0,1.02-.27,1.31-.82h0Zm0-.94c-.06-.33-.21-.59-.46-.77-.24-.19-.52-.28-.84-.28-.65,0-1.07.35-1.27,1.05h2.57Z"/><path d="m.12,53.15v-2.34h.46v1.87h1.46v-1.87h.46v1.87h2.29v.47H.12h0Z"/><path d="m3.67,47.35l.19-.38c.69.37,1.04.92,1.04,1.65,0,.52-.18.95-.54,1.29s-.79.51-1.29.51-.93-.17-1.29-.51c-.36-.34-.54-.76-.54-1.26s.17-.92.5-1.26.79-.52,1.37-.53v3.11c.42,0,.75-.14,1-.39s.38-.55.38-.91c0-.58-.28-1.02-.83-1.31h.01Zm-.94,0c-.33.06-.59.21-.77.46-.19.24-.28.52-.28.84,0,.65.35,1.08,1.05,1.27v-2.57Z"/><path d="m1.33,42.57h3.45v.44h-.59c.47.39.71.84.71,1.35s-.18.94-.54,1.28c-.36.35-.79.52-1.29.52s-.93-.18-1.29-.53c-.36-.35-.54-.77-.54-1.26,0-.56.24-1.02.72-1.37h-.63v-.44h0Zm1.74.41c-.39,0-.73.13-1,.4-.27.26-.41.59-.41.97s.14.71.42.97.61.4.99.4.71-.13.99-.4c.28-.27.42-.59.42-.97s-.13-.7-.4-.96-.61-.4-1.01-.4h0Z"/><path d="m4.24,40.73c.12,0,.19,0,.21-.04s.03-.11.03-.23v-.27h.38c.03.18.04.33.04.43,0,.19-.05.34-.14.43-.1.09-.25.14-.45.14H1.71v.61h-.38v-.61H0v-.45h1.33v-.7h.38v.7h2.53Z"/><path d="m4.78,36.4v.45h-.62c.47.36.71.79.71,1.29,0,.26-.07.49-.21.7-.14.21-.33.36-.55.44-.23.09-.56.13-1,.13h-1.77v-.44h1.64c.4,0,.68-.02.82-.06s.26-.09.36-.17c.1-.08.18-.17.23-.29.05-.12.08-.26.08-.43s-.04-.33-.12-.49-.2-.3-.34-.41-.3-.19-.46-.23-.47-.06-.94-.06h-1.27v-.45h3.45v.02Z"/><path d="m1.33,35.58v-.46h.5c-.2-.12-.35-.24-.45-.35-.09-.11-.14-.24-.14-.38s.04-.28.12-.43l.38.23c-.04.07-.06.13-.06.2,0,.13.07.26.21.38s.32.21.54.26c.22.06.62.08,1.19.08h1.17v.46H1.33Z"/><path d="m3.67,30.64l.19-.38c.69.37,1.04.92,1.04,1.65,0,.52-.18.95-.54,1.29s-.79.51-1.29.51-.93-.17-1.29-.51c-.36-.34-.54-.76-.54-1.26s.17-.92.5-1.26.79-.52,1.37-.53v3.11c.42,0,.75-.14,1-.39s.38-.55.38-.91c0-.58-.28-1.02-.83-1.31h.01Zm-.94,0c-.33.06-.59.21-.77.46-.19.24-.28.52-.28.84,0,.65.35,1.08,1.05,1.27v-2.57Z"/><line class="g" x1="42.56" y1="10.71" x2="40.24" y2="10.71"/><line class="g" x1="42.56" y1="21.31" x2="40.24" y2="21.31"/><line class="g" x1="42.56" y1="31.91" x2="40.24" y2="31.91"/><line class="g" x1="42.56" y1="42.51" x2="40.24" y2="42.51"/><line class="g" x1="42.56" y1="53.11" x2="40.24" y2="53.11"/><line class="g" x1="42.56" y1="63.71" x2="40.24" y2="63.71"/><line class="g" x1="42.56" y1="74.31" x2="40.24" y2="74.31"/><line class="g" x1="57.12" y1="79.2" x2="57.12" y2="81.32"/><line class="g" x1="90.5" y1="79.2" x2="90.5" y2="81.32"/><line class="g" x1="124.65" y1="79.2" x2="124.65" y2="81.32"/></g></svg>