<svg xmlns="http://www.w3.org/2000/svg" xmlns:xlink="http://www.w3.org/1999/xlink" id="b" viewBox="0 0 362.69 127.84"><defs><style>.v,.w{fill:none}.x{fill:#fff}.w{stroke:#4c72b0;stroke-linecap:round;stroke-linejoin:round;stroke-width:.93px}.y{clip-path:url(#q)}.z{clip-path:url(#n)}.aa{clip-path:url(#k)}.ab{clip-path:url(#l)}.ac{clip-path:url(#p)}.ad{clip-path:url(#r)}.ae{clip-path:url(#o)}.af{clip-path:url(#i)}.ag{clip-path:url(#h)}.ah{clip-path:url(#m)}.ai{clip-path:url(#j)}.aj{clip-path:url(#g)}.ak{clip-path:url(#e)}.al{clip-path:url(#s)}.am{clip-path:url(#u)}.an{clip-path:url(#t)}.ao{clip-path:url(#f)}.ap{clip-path:url(#d)}</style><clipPath id="d"><rect width="43.08" height="28" x="50.34" y="2.22" class="v"/></clipPath><clipPath id="e"><rect width="43.08" height="28" x="104.19" y="2.22" class="v"/></clipPath><clipPath id="f"><rect width="43.08" height="28" x="158.04" y="2.22" class="v"/></clipPath><clipPath id="g"><rect width="43.09" height="28" x="211.9" y="2.22" class="v"/></clipPath><clipPath id="h"><rect width="43.08" height="28" x="265.75" y="2.22" class="v"/></clipPath><clipPath id="i"><rect width="43.08" height="28" x="319.61" y="2.22" class="v"/></clipPath><clipPath id="j"><rect width="43.08" height="28" x="50.34" y="33.02" class="v"/></clipPath><clipPath id="k"><rect width="43.08" height="28" x="104.19" y="33.02" class="v"/></clipPath><clipPath id="l"><rect width="43.08" height="28" x="158.04" y="33.02" class="v"/></clipPath><clipPath id="m"><rect width="43.09" height="28" x="211.9" y="33.02" class="v"/></clipPath><clipPath id="n"><rect width="43.08" height="28" x="265.75" y="33.02" class="v"/></clipPath><clipPath id="o"><rect width="43.08" height="28" x="319.61" y="33.02" class="v"/></clipPath><clipPath id="p"><rect width="43.08" height="28" x="50.34" y="63.82" class="v"/></clipPath><clipPath id="q"><rect width="43.08" height="28" x="104.19" y="63.82" class="v"/></clipPath><clipPath id="r"><rect width="43.08" height="28" x="158.04" y="63.82" class="v"/></clipPath><clipPath id="s"><rect width="43.09" height="28" x="211.9" y="63.82" class="v"/></clipPath><clipPath id="t"><rect width="43.08" height="28" x="265.75" y="63.82" class="v"/></clipPath><clipPath id="u"><rect width="43.08" height="28" x="319.61" y="63.82" class="v"/></clipPath></defs><g id="c"><rect width="43.08" height="28" x="50.34" y="2.22" class="x"/><g class="ap"><polyline points="52.3 30.22 53.87 30.16 56.23 29.97 58.4 29.84 59.58 29.67 60.17 29.46 60.96 29.03 61.74 28.43 62.53 27.62 63.71 26.29 64.3 25.89 65.09 25.45 65.48 25.03 65.88 24.4 66.47 23.03 67.26 20.72 68.04 18.04 68.44 16.28 69.03 12.87 69.81 8.13 70.41 5.56 70.8 4.4 71.19 3.7 71.39 3.55 71.59 3.57 71.78 3.75 71.98 4.1 72.37 5.25 72.76 6.94 73.36 10.23 74.93 19.87 75.52 22.49 76.11 24.59 76.7 26.16 77.1 26.82 77.49 27.2 77.88 27.4 78.47 27.48 79.06 27.51 79.46 27.67 79.85 28.03 81.03 29.48 81.43 29.73 82.02 29.88 83.2 29.92 88.71 30.01 91.46 30.22" class="w"/></g><rect width="43.08" height="28" x="104.19" y="2.22" class="x"/><g class="ak"><polyline points="106.15 30.09 106.54 29.81 106.74 29.53 106.94 29.11 107.14 28.49 107.53 26.42 107.92 22.97 108.51 15.37 109.1 7.47 109.5 4.22 109.69 3.55 109.89 3.57 110.09 4.21 110.48 6.96 111.86 19.12 112.25 21.24 112.64 22.75 113.04 23.83 113.63 24.99 114.22 25.86 115.01 26.76 115.79 27.42 116.58 27.85 117.56 28.21 118.75 28.5 119.93 28.63 121.31 28.63 122.49 28.68 126.03 29.13 130.55 29.89 133.51 30.01 137.84 30.08 142.56 30.11 144.73 30.22 145.32 30.22" class="w"/></g><rect width="43.08" height="28" x="158.04" y="2.22" class="x"/><g class="ao"><polyline points="160 30.2 160.79 30.11 161.38 29.9 161.78 29.64 162.17 29.25 162.56 28.69 163.15 27.55 164.53 24.6 164.92 24.09 165.32 23.81 165.71 23.74 166.1 23.83 167.09 24.15 167.48 24.14 167.88 24 168.27 23.72 168.86 23.09 169.85 21.72 171.42 19.27 172.4 17.47 173.39 15.35 176.14 9.11 177.32 6.96 178.5 5.08 179.09 4.33 179.69 3.81 180.08 3.61 180.47 3.55 180.87 3.62 181.46 3.91 182.24 4.5 184.21 6.21 184.8 6.88 185.39 7.75 185.98 8.88 188.15 13.44 188.74 14.21 189.53 14.97 191.69 16.75 192.09 16.88 192.48 16.89 193.46 16.76 193.66 16.82 193.86 16.97 194.25 17.55 194.64 18.57 195.04 20 196.02 24.48 196.61 26.87 197 28.07 197.4 28.93 197.79 29.5 198.19 29.85 198.58 30.04 199.17 30.17" class="w"/></g><rect width="43.09" height="28" x="211.9" y="2.22" class="x"/><g class="aj"><polyline points="213.86 30.15 214.45 30.03 214.84 29.86 215.24 29.58 215.63 29.11 216.02 28.4 216.42 27.35 216.81 25.91 217.2 24.03 217.79 20.4 218.78 13.03 219.57 7.63 219.96 5.64 220.35 4.31 220.55 3.89 220.75 3.65 220.94 3.55 221.14 3.61 221.34 3.79 221.73 4.45 222.32 5.89 223.11 7.84 223.5 8.58 223.9 9.1 224.29 9.38 224.68 9.41 225.08 9.24 225.47 8.9 226.06 8.18 227.24 6.64 227.63 6.3 228.03 6.12 228.42 6.11 228.81 6.29 229.21 6.63 229.8 7.41 230.59 8.79 233.74 14.76 234.52 15.86 235.11 16.47 235.71 16.91 236.3 17.19 237.08 17.41 239.25 17.81 239.84 17.8 240.43 17.64 241.02 17.32 241.8 16.65 242.79 15.62 243.58 14.64 244.17 13.71 244.76 12.54 245.94 9.96 246.33 9.43 246.53 9.32 246.73 9.32 246.92 9.45 247.12 9.74 247.51 10.75 247.91 12.35 248.5 15.6 249.88 23.92 250.47 26.52 250.86 27.77 251.25 28.67 251.65 29.29 252.04 29.69 252.43 29.93 253.02 30.11" class="w"/></g><rect width="43.08" height="28" x="265.75" y="2.22" class="x"/><g class="ag"><polyline points="267.71 30.22 269.48 30.15 270.47 30.15 272.63 30.19 279.91 30.21 302.94 30.11 303.14 30.03 303.33 29.83 303.53 29.37 303.73 28.41 303.93 26.62 304.12 23.64 304.52 14.15 304.91 4.99 305.11 3.55 305.31 5.06 305.7 14.34 306.09 23.88 306.29 26.85 306.48 28.62 306.68 29.54 306.88 29.97" class="w"/></g><rect width="43.08" height="28" x="319.61" y="2.22" class="x"/><g class="af"><polyline points="321.56 30.21 322.16 30.15 322.55 30.01 322.94 29.63 323.14 29.3 323.53 28.18 323.93 26.24 324.32 23.36 324.91 17.59 325.7 9.53 326.09 6.48 326.48 4.48 326.68 3.9 326.88 3.6 327.08 3.55 327.27 3.76 327.47 4.19 327.86 5.64 328.26 7.72 330.22 19.61 330.82 22.05 331.4 23.94 332 25.39 332.59 26.5 333.18 27.35 333.77 28 334.36 28.47 334.95 28.77 335.74 28.98 338.29 29.38 339.47 29.36 341.05 29.34 343.02 29.48 346.56 29.71 347.94 29.74 351.88 29.79 358.96 30.2 360.73 30.22" class="w"/></g><rect width="43.08" height="28" x="50.34" y="33.02" class="x"/><g class="ai"><polyline points="52.3 61.01 53.48 60.93 54.07 60.77 54.66 60.47 55.25 59.93 55.84 59.13 56.63 57.71 57.81 55.51 58.6 54.39 59.38 53.55 60.37 52.7 61.15 52.2 61.74 51.98 62.34 51.93 63.91 51.97 64.3 51.79 64.7 51.43 65.09 50.86 65.48 50.04 66.07 48.35 66.66 46.18 68.63 38.45 69.03 37.49 69.42 36.91 69.62 36.77 69.81 36.74 70.01 36.81 70.41 37.22 70.8 37.93 71.59 39.81 72.18 41.13 72.57 41.77 72.96 42.13 73.16 42.18 73.36 42.15 73.55 42.03 73.95 41.53 74.34 40.71 74.93 38.97 76.11 35.23 76.51 34.52 76.7 34.36 76.9 34.35 77.1 34.5 77.29 34.81 77.69 35.89 78.08 37.51 78.87 41.73 79.85 46.95 80.44 49.31 81.03 50.99 81.62 52.13 82.21 52.88 82.8 53.4 83.59 53.87 84.97 54.57 85.56 55.08 86.15 55.82 86.94 57.16 88.12 59.25 88.71 60.02 89.3 60.52 89.89 60.8 90.68 60.96 91.46 61.01" class="w"/></g><rect width="43.08" height="28" x="104.19" y="33.02" class="x"/><g class="aa"><polyline points="106.15 60.93 106.74 60.78 107.14 60.59 107.53 60.26 107.92 59.76 108.32 59.01 108.71 57.95 109.1 56.51 109.69 53.59 110.28 49.83 112.06 37.81 112.45 36.09 112.84 34.96 113.04 34.62 113.24 34.42 113.43 34.35 113.63 34.41 114.02 34.81 114.42 35.49 116.58 39.85 119.53 44.63 121.9 49.19 122.49 49.98 123.08 50.52 123.67 50.84 125.63 51.58 126.23 52.07 127.21 53.15 128.2 54.19 128.78 54.65 129.38 54.97 130.16 55.21 131.15 55.34 132.72 55.4 134.1 55.31 134.89 55.15 135.67 54.82 136.46 54.32 137.64 53.52 138.04 53.39 138.43 53.4 138.82 53.57 139.22 53.92 139.61 54.45 140.2 55.51 141.97 59.03 142.56 59.83 143.15 60.38 143.74 60.7 144.33 60.88 145.32 60.99" class="w"/></g><rect width="43.08" height="28" x="158.04" y="33.02" class="x"/><g class="ab"><polyline points="160 60.94 160.79 60.75 161.38 60.43 161.78 60.05 162.17 59.48 162.56 58.67 162.96 57.57 163.35 56.12 163.94 53.28 164.53 49.69 166.3 38.09 166.7 36.31 167.09 35.08 167.48 34.44 167.68 34.35 167.88 34.4 168.07 34.59 168.47 35.31 168.86 36.41 169.45 38.52 171.02 44.43 171.62 46.16 172.21 47.55 172.8 48.63 173.39 49.47 173.98 50.1 174.57 50.55 175.16 50.84 175.75 50.93 176.34 50.84 176.93 50.56 177.52 50.11 178.5 49.13 179.69 48 180.47 47.45 181.46 47 182.84 46.38 183.82 45.76 185.79 44.41 186.38 44.18 186.97 44.09 187.56 44.14 188.34 44.35 189.53 44.84 190.31 45.32 190.9 45.88 191.49 46.74 192.09 47.96 192.68 49.55 193.66 52.76 194.84 56.58 195.43 58.08 196.02 59.22 196.61 60 197.2 60.48 197.79 60.76 198.58 60.93 199.17 60.98" class="w"/></g><rect width="43.09" height="28" x="211.9" y="33.02" class="x"/><g class="ah"><polyline points="213.86 60.89 214.45 60.68 214.84 60.4 215.24 59.95 215.63 59.25 216.02 58.22 216.42 56.79 216.81 54.88 217.4 51.17 218.39 43.49 218.97 39.11 219.37 36.8 219.76 35.21 219.96 34.72 220.16 34.43 220.35 34.35 220.55 34.47 220.75 34.76 221.14 35.8 221.73 38.12 222.91 43.12 223.5 44.97 223.9 45.85 224.29 46.47 224.68 46.86 225.08 47.05 225.47 47.09 226.06 47 226.85 46.84 227.44 46.87 228.03 47.1 228.62 47.51 230 48.58 230.59 48.87 231.18 49.02 231.96 49.03 232.95 48.87 236.1 48.26 236.69 48.28 237.28 48.46 237.67 48.71 238.26 49.28 239.05 50.34 240.23 52.04 240.82 52.69 241.41 53.12 242 53.35 242.59 53.43 244.36 53.54 244.96 53.8 245.55 54.28 246.14 54.97 246.92 56.16 248.7 58.97 249.28 59.68 249.88 60.2 250.47 60.56 251.06 60.79 251.84 60.93 253.02 61" class="w"/></g><rect width="43.08" height="28" x="265.75" y="33.02" class="x"/><g class="z"><polyline points="267.71 61.01 269.09 60.95 270.07 60.76 271.65 60.35 272.24 60.35 273.03 60.48 274.6 60.8 275.78 60.87 279.52 60.93 281.88 60.91 284.64 60.91 288.18 60.89 294.87 60.72 296.05 60.56 297.63 60.21 298.41 59.94 299.01 59.59 299.4 59.17 299.79 58.44 300.19 57.2 300.58 55.18 300.97 52.17 301.56 45.9 302.35 37.14 302.74 34.71 302.94 34.35 303.14 34.63 303.33 35.52 303.73 38.9 305.31 56.38 305.7 58.57 306.09 59.86 306.48 60.52 306.88 60.82" class="w"/></g><rect width="43.08" height="28" x="319.61" y="33.02" class="x"/><g class="ae"><polyline points="321.56 61 322.35 60.89 322.75 60.7 323.14 60.31 323.53 59.56 323.93 58.34 324.32 56.53 324.91 52.87 325.9 46.49 326.29 44.78 326.68 43.74 327.08 43.24 327.47 43.04 328.45 42.69 330.22 41.73 330.82 41.22 331.4 40.51 333.97 36.97 335.15 35.08 335.54 34.66 335.93 34.42 336.32 34.35 336.72 34.44 337.31 34.73 338.1 35.26 338.49 35.64 338.89 36.19 339.28 36.97 339.87 38.59 340.66 41.35 342.62 49.07 343.61 52.74 344.39 55.18 344.99 56.64 345.58 57.79 346.17 58.69 346.76 59.37 347.54 60.03 348.33 60.47 349.12 60.72 350.1 60.86 351.48 60.9 356.01 60.83 360.73 61.02" class="w"/></g><rect width="43.08" height="28" x="50.34" y="63.82" class="x"/><g class="ac"><polyline points="52.3 91.79 53.08 91.67 53.48 91.5 53.87 91.2 54.27 90.7 54.66 89.92 55.05 88.8 55.45 87.33 56.04 84.54 57.42 77.54 58 75.39 58.4 74.36 58.79 73.62 59.38 72.87 61.35 70.9 62.14 69.75 63.71 67.29 64.11 66.88 64.5 66.63 64.89 66.55 65.29 66.65 65.68 66.9 66.27 67.48 67.84 69.24 68.44 69.66 68.83 69.82 69.42 69.86 70.01 69.74 71.39 69.33 71.98 69.29 72.96 69.42 73.95 69.52 74.54 69.47 75.13 69.29 75.72 68.93 76.11 68.54 76.7 67.68 78.08 65.35 78.28 65.2 78.47 65.15 78.67 65.21 78.87 65.38 79.26 66.05 79.65 67.06 81.03 71 81.43 71.73 81.82 72.24 82.21 72.57 82.8 72.85 84.38 73.41 84.77 73.75 85.17 74.29 85.56 75.11 85.95 76.28 86.54 78.67 87.33 82.7 88.12 86.65 88.71 88.92 89.1 90 89.5 90.75 89.89 91.23 90.28 91.52 90.87 91.72 91.46 91.79" class="w"/></g><rect width="43.08" height="28" x="104.19" y="63.82" class="x"/><g class="y"><polyline points="109.69 91.8 110.33 91.71 110.81 91.48 111.13 91.17 111.45 90.66 111.77 89.91 112.25 88.39 113.05 85.62 113.37 84.89 113.69 84.52 113.85 84.48 114.01 84.52 114.33 84.81 114.81 85.55 115.61 86.78 116.25 87.48 116.89 87.97 117.69 88.38 118.49 88.64 119.29 88.74 121.69 88.79 122.97 88.96 123.77 88.94 124.41 88.8 125.05 88.5 125.69 88.01 126.81 86.89 127.29 86.25 127.61 85.57 127.93 84.47 128.25 82.72 128.57 80.15 129.05 74.88 129.69 67.59 130.01 65.51 130.17 65.15 130.33 65.3 130.49 65.97 130.81 68.68 131.29 74.95 131.93 83.41 132.41 87.72 132.73 89.5 133.05 90.59 133.37 91.2 133.69 91.52 134.17 91.72 134.81 91.79 136.73 91.79 139.61 91.79 141.53 91.82" class="w"/></g><rect width="43.08" height="28" x="158.04" y="63.82" class="x"/><g class="ad"><polyline points="160 91.8 160.79 91.7 161.19 91.56 161.58 91.32 161.97 90.93 162.76 89.87 163.35 89.2 163.74 89.02 164.14 89.1 164.53 89.4 165.71 90.51 166.3 90.8 166.89 90.89 167.48 90.78 167.88 90.59 168.47 90.11 169.06 89.39 169.85 88.13 170.83 86.58 171.22 86.18 171.62 85.97 172.01 85.96 172.4 86.1 173.19 86.61 173.98 87.1 174.57 87.33 174.96 87.38 175.36 87.33 175.75 87.16 176.14 86.82 176.54 86.22 176.93 85.2 177.32 83.53 177.72 80.98 178.11 77.47 179.09 67.49 179.29 66.18 179.49 65.38 179.69 65.15 179.88 65.52 180.08 66.45 180.47 69.67 181.65 81.49 182.05 83.93 182.44 85.48 182.84 86.4 183.23 86.95 183.62 87.29 184.21 87.61 184.8 87.79 185.39 87.85 185.98 87.78 186.77 87.54 187.76 87.05 188.74 86.4 189.53 85.73 190.31 85.04 190.71 84.87 190.9 84.88 191.1 84.95 191.49 85.32 191.89 85.97 192.68 87.71 193.26 88.95 193.86 89.85 194.45 90.45 195.23 90.95 196.22 91.42 197 91.66 197.99 91.79 199.17 91.82" class="w"/></g><rect width="43.09" height="28" x="211.9" y="63.82" class="x"/><g class="al"><polyline points="213.86 91.65 214.05 91.49 214.25 91.2 214.45 90.71 214.65 89.93 214.84 88.76 215.24 84.93 215.63 79.13 216.22 69.59 216.61 65.77 216.81 65.15 217.01 65.37 217.2 66.29 217.6 69.5 218.97 82.6 219.57 86.54 219.96 88.3 220.35 89.46 220.75 90.18 221.14 90.64 221.73 91.04 222.32 91.27 223.11 91.42 225.67 91.55 231.77 91.61 233.15 91.5 234.13 91.3 235.9 90.84 236.49 90.9 238.66 91.44 239.64 91.44 241.02 91.41 242 91.58 242.99 91.71 244.56 91.72 246.92 91.78 251.25 91.81 253.02 91.82" class="w"/></g><rect width="43.08" height="28" x="265.75" y="63.82" class="x"/><g class="an"><polyline points="267.71 91.64 268.3 91.37 268.69 91.03 269.09 90.49 269.48 89.68 269.88 88.52 270.27 86.93 270.66 84.88 271.26 80.95 273.03 67.74 273.42 66.03 273.61 65.5 273.81 65.21 274.01 65.15 274.21 65.33 274.4 65.72 274.8 67.1 275.19 69.09 277.36 81.37 277.95 83.4 278.53 84.82 279.13 85.79 279.72 86.47 280.31 86.95 281.1 87.39 281.88 87.68 282.87 87.86 284.05 87.91 290.34 87.77 291.33 87.62 292.12 87.36 292.9 86.96 293.69 86.38 294.48 85.6 295.07 84.83 295.66 83.84 296.25 82.5 296.84 80.72 297.43 78.45 298.41 73.82 299.2 70.33 299.6 69.1 299.99 68.44 300.19 68.36 300.38 68.46 300.58 68.74 300.97 69.87 301.37 71.65 301.96 75.22 303.33 84.27 303.93 87.17 304.32 88.62 304.71 89.71 305.11 90.48 305.5 91.01 305.89 91.34 306.48 91.62 306.88 91.71" class="w"/></g><rect width="43.08" height="28" x="319.61" y="63.82" class="x"/><g class="am"><polyline points="321.56 91.81 322.55 91.7 322.94 91.56 323.34 91.29 323.73 90.81 324.12 90.03 324.52 88.87 324.91 87.3 325.5 84.24 326.88 76.4 327.47 73.94 327.86 72.76 328.26 71.91 328.65 71.37 329.04 71.12 329.44 71.14 329.83 71.4 330.22 71.87 330.82 72.84 332.19 75.17 332.78 75.84 333.18 76.1 333.57 76.2 333.97 76.13 334.36 75.91 334.95 75.37 335.93 74.19 338.1 71.56 340.85 68.46 341.84 67.66 342.43 67.31 343.02 67.1 344.39 66.72 344.99 66.36 346.36 65.41 346.96 65.22 347.54 65.15 348.33 65.21 348.92 65.37 349.31 65.59 349.71 65.95 350.1 66.52 350.5 67.35 350.89 68.46 351.48 70.67 352.27 74.39 354.63 86.33 355.22 88.44 355.81 89.94 356.21 90.62 356.6 91.08 356.99 91.39 357.58 91.64 358.37 91.77 359.95 91.81 360.73 91.82" class="w"/></g><path d="m5.02,1.14l-.5.32c-.43-.58-1.03-.86-1.79-.86-.6,0-1.09.19-1.5.57-.4.38-.6.85-.6,1.42s.2,1.05.6,1.45c.4.4.9.6,1.51.6.72,0,1.32-.29,1.79-.86l.5.33c-.25.36-.58.64-1,.83s-.87.29-1.35.29c-.76,0-1.4-.25-1.91-.75s-.77-1.12-.77-1.84S.26,1.29.78.78c.52-.52,1.18-.78,2-.78.48,0,.92.1,1.33.31s.72.49.93.85l-.02-.02Z"/><path d="m29.58,5.49v-.46h2.56v.46h-1.04v4.21h-.47v-4.21h-1.05Z"/><path d="m32.32,6.25h.46v.5c.12-.2.24-.35.35-.45.12-.1.24-.14.38-.14s.28.04.43.12l-.23.38c-.07-.04-.13-.06-.2-.06-.13,0-.26.07-.38.21s-.21.32-.26.54c-.06.22-.08.62-.08,1.19v1.17h-.46v-3.45h0Z"/><path d="m37.86,6.25v3.45h-.44v-.59c-.39.47-.84.71-1.35.71s-.93-.18-1.28-.54-.52-.79-.52-1.29.18-.93.53-1.29.77-.54,1.26-.54c.56,0,1.02.24,1.37.72v-.63h.44,0Zm-.41,1.74c0-.39-.13-.73-.4-1-.26-.27-.59-.41-.97-.41s-.71.14-.97.42c-.26.28-.4.61-.4.99s.13.71.4.99.59.42.96.42.7-.13.97-.4.4-.61.4-1.01h.01Z"/><path d="m42.23,6.97l-.35.22c-.3-.4-.72-.6-1.25-.6-.42,0-.76.13-1.05.4-.28.27-.42.6-.42.99s.14.73.42,1.01.63.42,1.05.42c.51,0,.92-.2,1.25-.6l.35.23c-.17.25-.41.44-.7.58-.29.13-.61.2-.95.2-.53,0-.98-.18-1.33-.53-.36-.35-.54-.78-.54-1.29s.18-.94.54-1.3.83-.54,1.39-.54c.33,0,.64.07.93.21.28.14.5.34.65.59h.01Z"/><path d="m43,4.92h.45v2.72l1.59-1.39h.66l-1.9,1.64,2.01,1.81h-.63l-1.73-1.55v1.55h-.45v-4.78Z"/><path d="m23.98,17.21v-4.67h.1l3.1,3.58v-3.58h.46v4.67h-.1l-3.08-3.53v3.53h-.48Z"/><path d="m33.32,13.96v.44h-3.21v-.44h3.21Zm0,1.4v.44h-3.21v-.44h3.21Z"/><path d="m38.08,12.42h.09v3.25h.57v.45h-.57v1.09h-.46v-1.09h-2.24l2.61-3.7Zm-.37,3.25v-1.94l-1.38,1.94h1.38Z"/><path d="m39.79,16.35l.43.2-.64,1.2-.32-.14.53-1.27h0Z"/><path d="m43.75,12.54v.44h-1.66l-.23,1.27c.21-.06.4-.09.58-.09.41,0,.75.14,1.02.43s.41.66.41,1.11-.15.83-.45,1.15c-.3.31-.69.47-1.18.47-.37,0-.69-.11-.95-.33-.26-.22-.42-.53-.47-.91h.47c.06.26.17.46.35.6s.38.21.62.21c.31,0,.57-.11.8-.34.22-.23.33-.52.33-.86,0-.31-.1-.57-.29-.77-.2-.2-.45-.3-.76-.3s-.66.08-1.04.25l.44-2.31h2.02v-.02Z"/><path d="m47.29,12.54v.44h-1.66l-.23,1.27c.21-.06.4-.09.58-.09.41,0,.75.14,1.02.43s.41.66.41,1.11-.15.83-.45,1.15c-.3.31-.69.47-1.18.47-.37,0-.69-.11-.95-.33-.26-.22-.42-.53-.47-.91h.47c.06.26.17.46.35.6s.38.21.62.21c.31,0,.57-.11.8-.34.22-.23.33-.52.33-.86,0-.31-.1-.57-.29-.77-.2-.2-.45-.3-.76-.3s-.66.08-1.04.25l.44-2.31h2.02v-.02Z"/><path d="m50.02,12.42l.38.25-1.26,1.91c.18-.06.35-.09.51-.09.35,0,.65.14.91.41.26.28.39.61.39,1.01s-.14.73-.43,1c-.28.27-.63.41-1.03.41s-.74-.14-1.01-.42-.41-.62-.41-1.01c0-.19.04-.39.11-.59s.21-.46.42-.77l1.42-2.11h0Zm.47,3.46c0-.27-.1-.5-.29-.7-.19-.19-.42-.29-.7-.29s-.5.1-.7.29c-.19.19-.29.42-.29.7s.1.5.29.7c.19.19.42.29.69.29s.5-.1.69-.29c.19-.19.29-.42.29-.7h.02Z"/><path d="m29.11,20.04h2.68v.46h-2.21v1.46h2.19v.46h-2.19v1.83h2.19v.46h-2.66v-4.67h0Z"/><path d="m37.45,21.46v.44h-3.21v-.44h3.21Zm0,1.4v.44h-3.21v-.44h3.21Z"/><path d="m41.83,19.92l.38.25-1.26,1.91c.18-.06.35-.09.51-.09.35,0,.65.14.91.41.26.28.39.61.39,1.01s-.14.73-.43,1c-.28.27-.63.41-1.03.41s-.74-.14-1.01-.42-.41-.62-.41-1.01c0-.19.04-.39.11-.59s.21-.46.42-.77l1.42-2.11h0Zm.47,3.46c0-.27-.1-.5-.29-.7-.19-.19-.42-.29-.7-.29s-.5.1-.7.29c-.19.19-.29.42-.29.7s.1.5.29.7c.19.19.42.29.69.29s.5-.1.69-.29c.19-.19.29-.42.29-.7h.02Z"/><path d="m45.34,19.92l.38.25-1.26,1.91c.18-.06.35-.09.51-.09.35,0,.65.14.91.41.26.28.39.61.39,1.01s-.14.73-.43,1c-.28.27-.63.41-1.03.41s-.74-.14-1.01-.42-.41-.62-.41-1.01c0-.19.04-.39.11-.59s.21-.46.42-.77l1.42-2.11h0Zm.47,3.46c0-.27-.1-.5-.29-.7-.19-.19-.42-.29-.7-.29s-.5.1-.7.29c-.19.19-.29.42-.29.7s.1.5.29.7c.19.19.42.29.69.29s.5-.1.69-.29c.19-.19.29-.42.29-.7h.02Z"/><path d="m25.9,36.71h.93c.52,0,.88.02,1.07.07s.35.12.49.22c.14.1.24.24.32.4.08.16.12.35.12.55,0,.4-.14.71-.42.94s-.68.33-1.2.32l1.68,2.17h-.58l-1.68-2.17h-.27v2.17h-.47v-4.67h.01Zm.47.46v1.59h.81c.4,0,.69-.06.88-.19s.28-.33.28-.61-.09-.48-.28-.6c-.19-.13-.47-.19-.86-.19h-.83Z"/><path d="m32.56,40.25l.38.19c-.37.69-.92,1.04-1.65,1.04-.52,0-.95-.18-1.29-.54s-.51-.79-.51-1.29.17-.93.51-1.29.76-.54,1.26-.54.92.17,1.26.5.52.79.53,1.37h-3.11c0,.42.14.75.39,1s.55.38.91.38c.58,0,1.02-.27,1.31-.83h.01Zm0-.94c-.06-.33-.21-.59-.46-.77-.24-.19-.52-.28-.84-.28-.65,0-1.08.35-1.27,1.05h2.57Z"/><path d="m37.25,38.64l-.35.22c-.3-.4-.72-.6-1.25-.6-.42,0-.76.13-1.05.4-.28.27-.42.6-.42.99s.14.73.42,1.01.63.42,1.05.42c.51,0,.92-.2,1.25-.6l.35.23c-.17.25-.41.44-.7.58-.29.13-.61.2-.95.2-.53,0-.98-.18-1.33-.53-.36-.35-.54-.78-.54-1.29s.18-.94.54-1.3.83-.54,1.39-.54c.33,0,.64.07.93.21.28.14.5.34.65.59h.01Z"/><path d="m37.92,39.67c0-.51.17-.94.52-1.3.35-.36.77-.54,1.27-.54s.92.18,1.27.54c.35.36.52.79.52,1.29s-.17.93-.52,1.29c-.34.36-.77.54-1.28.54s-.93-.18-1.28-.54-.52-.79-.52-1.28h.02Zm3.15,0c0-.38-.13-.71-.4-.99s-.58-.42-.95-.42-.68.14-.95.42c-.26.28-.4.61-.4,1s.13.71.38.98c.26.27.57.4.95.4s.7-.14.96-.41.39-.6.39-.98h.02Z"/><path d="m41.92,37.92h.47l1.15,2.63,1.15-2.63h.47l-1.58,3.57h-.08l-1.59-3.57h0Z"/><path d="m48.66,40.25l.38.19c-.37.69-.92,1.04-1.65,1.04-.52,0-.95-.18-1.29-.54-.34-.36-.51-.79-.51-1.29s.17-.93.51-1.29c.34-.36.76-.54,1.26-.54s.92.17,1.26.5c.34.33.52.79.53,1.37h-3.11c.01.42.14.75.39,1s.55.38.91.38c.58,0,1.02-.27,1.31-.83h.01Zm0-.94c-.06-.33-.21-.59-.46-.77-.24-.19-.52-.28-.84-.28-.65,0-1.08.35-1.27,1.05,0,0,2.57,0,2.57,0Z"/><path d="m49.81,37.92h.46v.5c.12-.2.24-.35.35-.45.12-.1.24-.14.38-.14s.28.04.43.12l-.23.38c-.07-.04-.13-.06-.2-.06-.13,0-.26.07-.38.21s-.21.32-.26.54c-.06.22-.08.62-.08,1.19v1.17h-.46v-3.45h0Z"/><path d="m24.89,48.87v-4.67h.1l3.1,3.58v-3.58h.46v4.67h-.1l-3.08-3.53v3.53s-.48,0-.48,0Z"/><path d="m34.23,45.62v.44h-3.21v-.44h3.21Zm0,1.4v.44h-3.21v-.44h3.21Z"/><path d="m36.97,45.67h-.45c.02-.48.18-.86.47-1.15s.65-.43,1.07-.43.76.14,1.04.41c.27.27.41.6.41.99,0,.29-.08.56-.23.81-.15.25-.39.54-.7.88l-1.16,1.25h2.16v.45h-3.17l1.78-1.92c.31-.34.54-.6.67-.8.13-.2.2-.42.2-.67s-.1-.47-.3-.66-.44-.29-.73-.29-.54.1-.73.3-.3.48-.33.84h0Z"/><path d="m40.7,48.02l.43.2-.64,1.2-.32-.14.53-1.27h0Z"/><path d="m42.31,45.67h-.45c.02-.48.18-.86.47-1.15s.65-.43,1.07-.43.76.14,1.04.41c.27.27.41.6.41.99,0,.29-.08.56-.23.81s-.39.54-.7.88l-1.16,1.25h2.16v.45h-3.17l1.78-1.92c.31-.34.54-.6.67-.8s.2-.42.2-.67-.1-.47-.3-.66c-.2-.19-.44-.29-.73-.29s-.54.1-.73.3-.3.48-.33.84h0Z"/><path d="m48.36,44.21v.44h-1.66l-.23,1.27c.21-.06.4-.09.58-.09.41,0,.75.14,1.02.43s.41.66.41,1.11-.15.83-.45,1.15c-.3.31-.69.47-1.18.47-.37,0-.69-.11-.95-.33-.26-.22-.42-.53-.47-.91h.47c.06.26.17.46.35.6s.38.21.62.21c.31,0,.57-.11.8-.34.22-.23.33-.52.33-.86,0-.31-.1-.57-.29-.77-.2-.2-.45-.3-.76-.3s-.66.08-1.04.25l.44-2.31h2.02v-.02Z"/><path d="m49.96,44.21h.92v4.67h-.46v-4.21h-.73l.28-.46h0Z"/><path d="m29.11,51.71h2.68v.46h-2.21v1.46h2.19v.46h-2.19v1.83h2.19v.46h-2.66v-4.67h0Z"/><path d="m37.45,53.12v.44h-3.21v-.44h3.21Zm0,1.4v.44h-3.21v-.44h3.21Z"/><path d="m41.83,51.59l.38.25-1.26,1.91c.18-.06.35-.09.51-.09.35,0,.65.14.91.41.26.28.39.61.39,1.01s-.14.73-.43,1c-.28.27-.63.41-1.03.41s-.74-.14-1.01-.42-.41-.62-.41-1.01c0-.19.04-.39.11-.59s.21-.46.42-.77l1.42-2.11h0Zm.47,3.46c0-.27-.1-.5-.29-.7-.19-.19-.42-.29-.7-.29s-.5.1-.7.29c-.19.19-.29.42-.29.7s.1.5.29.7c.19.19.42.29.69.29s.5-.1.69-.29c.19-.19.29-.42.29-.7h.02Z"/><path d="m45.34,51.59l.38.25-1.26,1.91c.18-.06.35-.09.51-.09.35,0,.65.14.91.41.26.28.39.61.39,1.01s-.14.73-.43,1c-.28.27-.63.41-1.03.41s-.74-.14-1.01-.42-.41-.62-.41-1.01c0-.19.04-.39.11-.59s.21-.46.42-.77l1.42-2.11h0Zm.47,3.46c0-.27-.1-.5-.29-.7-.19-.19-.42-.29-.7-.29s-.5.1-.7.29c-.19.19-.29.42-.29.7s.1.5.29.7c.19.19.42.29.69.29s.5-.1.69-.29c.19-.19.29-.42.29-.7h.02Z"/><path d="m31.84,67.51h.47v4.22h1.79v.45h-2.27v-4.67h0Z"/><path d="m34.55,70.47c0-.51.17-.94.52-1.3.35-.36.77-.54,1.27-.54s.92.18,1.27.54c.35.36.52.79.52,1.29s-.17.93-.52,1.29c-.34.36-.77.54-1.28.54s-.93-.18-1.28-.54-.52-.79-.52-1.28h.02Zm3.15,0c0-.38-.13-.71-.4-.99s-.58-.42-.95-.42-.68.14-.95.42c-.26.28-.4.61-.4,1s.13.71.38.98c.26.27.57.4.95.4s.7-.14.96-.41.39-.6.39-.98h.02Z"/><path d="m40.71,69.1l-.29.29c-.24-.23-.47-.34-.7-.34-.15,0-.27.05-.37.14s-.15.21-.15.34.05.25.16.35.29.21.55.35.46.28.59.44.21.35.21.58c0,.29-.1.54-.3.73-.2.2-.45.3-.74.3-.2,0-.38-.04-.56-.13-.18-.09-.33-.21-.46-.36l.28-.31c.23.26.47.38.72.38.18,0,.33-.06.46-.18.13-.12.19-.25.19-.41s-.06-.29-.17-.39c-.11-.1-.29-.22-.55-.35s-.45-.27-.58-.43-.19-.35-.19-.6.09-.45.27-.63.42-.26.71-.26.6.16.92.47v.02Z"/><path d="m42.33,71.63c0,.12.02.19.05.21s.11.03.23.03h.27v.38c-.18.03-.33.05-.43.05-.19,0-.34-.05-.43-.14s-.14-.24-.14-.45v-2.6h-.61v-.38h.61v-1.33h.45v1.33h.7v.38h-.7v2.53h0Z"/><path d="m24.07,79.67v-4.67h.1l3.1,3.58v-3.58h.46v4.67h-.1l-3.08-3.53v3.53s-.48,0-.48,0Z"/><path d="m33.4,76.42v.44h-3.21v-.44h3.21Zm0,1.4v.44h-3.21v-.44h3.21Z"/><path d="m37.88,77.11c.59.29.88.7.88,1.22,0,.42-.15.76-.44,1.04-.29.28-.68.42-1.15.42s-.86-.14-1.14-.42c-.29-.28-.43-.61-.43-1,0-.55.3-.97.9-1.26-.45-.24-.68-.58-.68-1.01,0-.32.13-.6.4-.85s.59-.37.96-.37.7.12.96.36.4.53.4.87c0,.42-.22.75-.67.99h0Zm.42,1.23c0-.26-.11-.5-.32-.7s-.47-.3-.78-.3-.57.1-.79.31-.33.45-.33.73.1.51.3.69c.2.18.47.27.8.27s.6-.1.81-.29c.21-.2.31-.43.31-.72h0Zm-.21-2.24c0-.21-.08-.39-.24-.54s-.38-.22-.64-.22-.48.07-.65.22c-.17.15-.25.33-.25.54s.09.4.28.57c.18.17.39.25.63.25s.44-.08.61-.25c.17-.16.26-.36.26-.58h0Z"/><path d="m39.76,78.82l.43.2-.64,1.2-.32-.14.53-1.27h0Z"/><path d="m41.69,79.79l-.38-.25,1.26-1.91c-.17.06-.33.08-.49.08-.37,0-.69-.13-.94-.4-.25-.27-.38-.6-.38-1s.14-.74.42-1.01c.28-.27.63-.41,1.04-.41s.75.14,1.01.42c.27.28.4.61.4,1,0,.22-.04.43-.13.65s-.22.46-.39.71l-1.42,2.11h0Zm-.47-3.46c0,.27.1.5.29.7.19.19.42.29.7.29s.5-.1.7-.29c.19-.19.29-.42.29-.69s-.09-.5-.29-.69c-.19-.19-.42-.29-.7-.29s-.5.1-.7.29c-.19.19-.29.42-.29.7v-.02Z"/><path d="m45.81,79.79c-.5,0-.89-.21-1.16-.62-.27-.41-.41-1.02-.41-1.83s.14-1.42.41-1.83c.27-.41.66-.62,1.15-.62s.89.21,1.19.63c.29.42.44,1.03.44,1.82s-.15,1.39-.44,1.82-.69.63-1.18.63h0Zm.01-4.46c-.36,0-.64.17-.84.52s-.3.85-.3,1.5c0,1.34.38,2.02,1.14,2.02.37,0,.66-.18.86-.53.21-.35.31-.85.31-1.5s-.11-1.14-.32-1.49-.5-.52-.85-.52Z"/><path d="m47.86,75.01h2.96l-2.5,4.78-.38-.19,2.16-4.15h-2.24s0-.44,0-.44Z"/><path d="m29.1,82.51h2.68v.46h-2.21v1.46h2.19v.46h-2.19v1.83h2.19v.46h-2.66v-4.67h0Z"/><path d="m37.45,83.93v.44h-3.21v-.44h3.21Zm0,1.4v.44h-3.21v-.44h3.21Z"/><path d="m41.82,82.39l.38.25-1.26,1.91c.18-.06.35-.09.51-.09.35,0,.65.14.91.41.26.28.39.61.39,1.01s-.14.73-.43,1c-.28.27-.63.41-1.03.41s-.74-.14-1.01-.42-.41-.62-.41-1.01c0-.19.04-.39.11-.59s.21-.46.42-.77l1.42-2.11h0Zm.47,3.46c0-.27-.1-.5-.29-.7-.19-.19-.42-.29-.7-.29s-.5.1-.7.29c-.19.19-.29.42-.29.7s.1.5.29.7c.19.19.42.29.69.29s.5-.1.69-.29c.19-.19.29-.42.29-.7h.02Z"/><path d="m45.34,82.39l.38.25-1.26,1.91c.18-.06.35-.09.51-.09.35,0,.65.14.91.41.26.28.39.61.39,1.01s-.14.73-.43,1c-.28.27-.63.41-1.03.41s-.74-.14-1.01-.42-.41-.62-.41-1.01c0-.19.04-.39.11-.59s.21-.46.42-.77l1.42-2.11h0Zm.47,3.46c0-.27-.1-.5-.29-.7-.19-.19-.42-.29-.7-.29s-.5.1-.7.29c-.19.19-.29.42-.29.7s.1.5.29.7c.19.19.42.29.69.29s.5-.1.69-.29c.19-.19.29-.42.29-.7h.02Z"/><path d="m65,114.5h.47v1.96h2.37v-1.96h.47v4.67h-.47v-2.26h-2.37v2.26h-.47v-4.67Z"/><path d="m72.28,118.05l.38.19c-.37.69-.92,1.04-1.65,1.04-.52,0-.95-.18-1.29-.54-.34-.36-.51-.79-.51-1.29s.17-.93.51-1.29c.34-.36.76-.54,1.26-.54s.92.17,1.26.5c.34.33.52.79.53,1.37h-3.11c.01.42.14.75.39,1s.55.38.91.38c.58,0,1.02-.27,1.31-.83h.01Zm0-.94c-.06-.33-.21-.59-.46-.77-.24-.19-.52-.28-.84-.28-.65,0-1.08.35-1.27,1.05,0,0,2.57,0,2.57,0Z"/><path d="m77.06,115.72v3.45h-.44v-.59c-.39.47-.84.71-1.35.71s-.93-.18-1.28-.54-.52-.79-.52-1.29.18-.93.53-1.29.77-.54,1.26-.54c.56,0,1.02.24,1.37.72v-.63h.44-.01Zm-.41,1.74c0-.39-.13-.73-.4-1-.26-.27-.59-.41-.97-.41s-.71.14-.97.42-.4.61-.4.99.13.71.4.99c.27.28.59.42.96.42s.7-.13.97-.4.4-.61.4-1.01h.01Z"/><path d="m81.51,114.39v4.78h-.44v-.59c-.39.47-.85.71-1.36.71s-.94-.18-1.28-.54-.52-.79-.52-1.29.17-.93.53-1.29c.35-.36.77-.54,1.26-.54.56,0,1.02.24,1.37.72v-1.96h.44,0Zm-.41,3.08c0-.39-.13-.73-.39-1s-.58-.41-.98-.41-.72.14-.98.42-.39.61-.39.99.13.71.4.99.59.42.95.42.69-.13.96-.4c.28-.27.42-.6.42-1.01h.01Z"/><path d="m58.44,121.89v4.78h-.44v-.59c-.39.47-.85.71-1.36.71s-.94-.18-1.28-.54-.52-.79-.52-1.29.17-.93.53-1.29c.35-.36.77-.54,1.26-.54.56,0,1.02.24,1.37.72v-1.96h.44,0Zm-.41,3.08c0-.39-.13-.73-.39-1s-.58-.41-.98-.41-.72.14-.98.42-.39.61-.39.99.13.71.4.99.59.42.95.42.69-.13.96-.4c.28-.27.42-.6.42-1.01h.01Z"/><path d="m59.24,122.26c0-.1.04-.19.11-.26.07-.07.16-.11.26-.11s.19.04.26.11.11.16.11.26-.04.19-.11.26c-.07.07-.16.11-.26.11s-.19-.04-.26-.11-.11-.16-.11-.25h0Zm.14.96h.45v3.45h-.45v-3.45Z"/><path d="m60.58,123.22h.46v.5c.12-.2.24-.35.35-.45.12-.1.24-.14.38-.14s.28.04.43.12l-.23.38c-.07-.04-.13-.06-.2-.06-.13,0-.26.07-.38.21s-.21.32-.26.54c-.06.22-.08.62-.08,1.19v1.17h-.46v-3.45h0Z"/><path d="m65.52,125.55l.38.19c-.37.69-.92,1.04-1.65,1.04-.52,0-.95-.18-1.29-.54-.34-.36-.51-.79-.51-1.29s.17-.93.51-1.29c.34-.36.76-.54,1.26-.54s.92.17,1.26.5c.34.33.52.79.53,1.37h-3.11c.01.42.14.75.39,1s.55.38.91.38c.58,0,1.02-.27,1.31-.83h.01Zm0-.94c-.06-.33-.21-.59-.46-.77-.24-.19-.52-.28-.84-.28-.65,0-1.08.35-1.27,1.05,0,0,2.57,0,2.57,0Z"/><path d="m70.21,123.93l-.35.22c-.3-.4-.72-.6-1.25-.6-.42,0-.76.13-1.05.4-.28.27-.42.6-.42.99s.14.73.42,1.01.63.42,1.05.42c.51,0,.92-.2,1.25-.6l.35.23c-.17.25-.41.44-.7.58-.29.13-.61.2-.95.2-.53,0-.98-.18-1.33-.53-.36-.35-.54-.78-.54-1.29s.18-.94.54-1.3.83-.54,1.39-.54c.33,0,.64.07.93.21.28.14.5.34.65.59h0Z"/><path d="m71.88,126.12c0,.12.02.19.05.21.03.02.11.03.23.03h.27v.38c-.18.03-.33.05-.43.05-.19,0-.34-.05-.43-.14s-.14-.24-.14-.45v-2.6h-.61v-.38h.61v-1.33h.45v1.33h.7v.38h-.7v2.53h0Z"/><path d="m73.04,122.26c0-.1.04-.19.11-.26.07-.07.16-.11.26-.11s.19.04.26.11.11.16.11.26-.04.19-.11.26c-.07.07-.16.11-.26.11s-.19-.04-.26-.11-.11-.16-.11-.25h0Zm.14.96h.45v3.45h-.45v-3.45Z"/><path d="m74.38,124.97c0-.51.17-.94.52-1.3s.77-.54,1.27-.54.92.18,1.27.54.52.79.52,1.29-.17.93-.52,1.29c-.34.36-.77.54-1.28.54s-.93-.18-1.28-.54-.52-.79-.52-1.28h.02Zm3.15,0c0-.38-.13-.71-.4-.99-.27-.28-.58-.42-.95-.42s-.68.14-.95.42c-.26.28-.4.61-.4,1s.13.71.38.98c.26.27.57.4.95.4s.7-.14.96-.41.39-.6.39-.98h.02Z"/><path d="m78.8,123.22h.45v.62c.36-.47.79-.71,1.29-.71.26,0,.49.07.7.21s.35.32.44.55.13.56.13,1v1.77h-.44v-1.64c0-.4-.02-.68-.06-.82s-.09-.26-.17-.36-.17-.18-.29-.23-.26-.08-.43-.08-.33.04-.49.12-.3.2-.41.34c-.11.15-.19.3-.23.46s-.06.47-.06.94v1.27h-.45v-3.45h.02Z"/><path d="m85.39,121.61h.52c-.22.45-.39.96-.51,1.53-.12.57-.18,1.14-.18,1.72,0,1.13.18,2.13.53,2.98h-.49c-.34-.84-.51-1.82-.51-2.92,0-1.2.21-2.3.64-3.3h0Z"/><path d="m87.95,121.85c.22,0,.4.08.56.23s.24.34.24.56-.08.4-.24.56c-.16.16-.35.23-.56.23s-.4-.08-.56-.23c-.16-.16-.23-.34-.23-.56s.08-.4.23-.56.34-.23.56-.23Zm0,1.29c.14,0,.26-.05.36-.15.1-.1.15-.22.15-.35s-.05-.26-.15-.35c-.1-.1-.22-.15-.36-.15s-.26.05-.35.15c-.1.1-.15.22-.15.35s.05.26.15.35c.1.1.22.15.35.15Z"/><path d="m93.71,121.61c.43,1,.64,2.1.64,3.3,0,1.11-.17,2.08-.51,2.92h-.49c.36-.86.53-1.85.53-2.98,0-.58-.06-1.15-.18-1.72s-.29-1.08-.51-1.53h.52Z"/><path d="m226.3,108.78v-.46h2.56v.46h-1.04v4.21h-.47v-4.21h-1.05Z"/><path d="m232.01,112.99h-.45v-.62c-.36.47-.79.71-1.29.71-.26,0-.49-.07-.7-.21-.21-.14-.36-.33-.44-.55-.09-.23-.13-.56-.13-1v-1.77h.44v1.64c0,.4.02.68.06.82.04.14.09.26.17.36s.17.18.29.23.26.08.43.08.33-.04.49-.12.3-.2.41-.34c.11-.15.19-.3.23-.46s.06-.47.06-.94v-1.27h.45v3.45h-.02Z"/><path d="m232.83,109.54h.46v.5c.12-.2.24-.35.35-.45.12-.1.24-.14.38-.14s.28.04.43.12l-.23.38c-.07-.04-.13-.06-.2-.06-.13,0-.26.07-.38.21s-.21.32-.26.54c-.06.22-.08.62-.08,1.19v1.17h-.46v-3.45h-.01Z"/><path d="m234.95,109.54h.45v.62c.36-.47.79-.71,1.29-.71.26,0,.49.07.7.21s.35.32.44.55.13.56.13,1v1.77h-.44v-1.64c0-.4-.02-.68-.06-.82s-.09-.26-.17-.36-.17-.18-.29-.23-.26-.08-.43-.08-.33.04-.49.12-.3.2-.41.34c-.11.15-.19.3-.23.46s-.06.47-.06.94v1.27h-.45v-3.45h.02Z"/><path d="m219,117.04v3.45h-.44v-.59c-.39.47-.84.71-1.35.71s-.93-.18-1.28-.54-.52-.79-.52-1.29.18-.93.53-1.29.77-.54,1.26-.54c.56,0,1.02.24,1.37.72v-.63h.44,0Zm-.41,1.74c0-.39-.13-.73-.4-1-.26-.27-.59-.41-.97-.41s-.71.14-.97.42-.4.61-.4.99.13.71.4.99c.27.28.59.42.96.42s.7-.13.97-.4.4-.61.4-1.01h0Z"/><path d="m223.37,117.75l-.35.22c-.3-.4-.72-.6-1.25-.6-.42,0-.76.13-1.05.4-.28.27-.42.6-.42.99s.14.73.42,1.01.63.42,1.05.42c.51,0,.92-.2,1.25-.6l.35.23c-.17.25-.41.44-.7.58-.29.13-.61.2-.95.2-.53,0-.98-.18-1.33-.53-.36-.35-.54-.78-.54-1.29s.18-.94.54-1.3.83-.54,1.39-.54c.33,0,.64.07.93.21.28.14.5.34.65.59h.01Z"/><path d="m225.04,119.94c0,.12.02.19.05.21s.11.03.23.03h.27v.38c-.18.03-.33.05-.43.05-.19,0-.34-.05-.43-.14s-.14-.24-.14-.45v-2.6h-.61v-.38h.61v-1.33h.45v1.33h.7v.38h-.7v2.53h0Z"/><path d="m226.2,116.07c0-.1.04-.19.11-.26.07-.07.16-.11.26-.11s.19.04.26.11c.07.07.11.16.11.26s-.04.19-.11.26c-.07.07-.16.11-.26.11s-.19-.04-.26-.11c-.07-.07-.11-.16-.11-.25h0Zm.14.96h.45v3.45h-.45v-3.45Z"/><path d="m227.54,118.79c0-.51.17-.94.52-1.3s.77-.54,1.27-.54.92.18,1.27.54.52.79.52,1.29-.17.93-.52,1.29c-.34.36-.77.54-1.28.54s-.93-.18-1.28-.54-.52-.79-.52-1.28h.02Zm3.15,0c0-.38-.13-.71-.4-.99-.27-.28-.58-.42-.95-.42s-.68.14-.95.42c-.26.28-.4.61-.4,1s.13.71.38.98c.26.27.57.4.95.4s.7-.14.96-.41c.26-.27.39-.6.39-.98h.02Z"/><path d="m231.96,117.04h.45v.62c.36-.47.79-.71,1.29-.71.26,0,.49.07.7.21s.35.32.44.55.13.56.13,1v1.77h-.44v-1.64c0-.4-.02-.68-.06-.82s-.09-.26-.17-.36-.17-.18-.29-.23-.26-.08-.43-.08-.33.04-.49.12-.3.2-.41.34c-.11.15-.19.3-.23.46s-.06.47-.06.94v1.27h-.45v-3.45h.02Z"/><path d="m238.55,115.42h.52c-.22.45-.39.96-.51,1.53-.12.57-.18,1.14-.18,1.72,0,1.13.18,2.13.53,2.98h-.49c-.34-.84-.51-1.82-.51-2.92,0-1.2.21-2.3.64-3.3h0Z"/><path d="m240.05,115.82h.93c.52,0,.88.02,1.07.07s.35.12.49.22c.14.1.24.24.32.4.08.16.12.35.12.55,0,.4-.14.71-.42.94s-.68.33-1.2.32l1.68,2.17h-.58l-1.68-2.17h-.27v2.17h-.47v-4.67h.01Zm.47.46v1.59h.81c.4,0,.69-.06.88-.19s.28-.33.28-.61-.09-.48-.28-.6c-.19-.13-.47-.19-.86-.19h-.83Z"/><path d="m246.46,118.36h-3.25v-.39h3.25v.39Z"/><path d="m247.03,115.82h.47v4.22h1.79v.45h-2.27v-4.67h0Z"/><path d="m250.38,115.42c.43,1,.64,2.1.64,3.3,0,1.11-.17,2.08-.51,2.92h-.49c.36-.86.53-1.85.53-2.98,0-.58-.06-1.15-.18-1.72s-.29-1.08-.51-1.53h.52Z"/><path d="m279.25,112.99l.66-4.67h.07l1.9,3.83,1.88-3.83h.07l.67,4.67h-.46l-.46-3.34-1.65,3.34h-.12l-1.67-3.37-.46,3.37h-.45.02Z"/><path d="m285.2,111.28c0-.51.17-.94.52-1.3.35-.36.77-.54,1.27-.54s.92.18,1.27.54c.35.36.52.79.52,1.29s-.17.93-.52,1.29c-.34.36-.77.54-1.28.54s-.93-.18-1.28-.54-.52-.79-.52-1.28h.02Zm3.15,0c0-.38-.13-.71-.4-.99s-.58-.42-.95-.42-.68.14-.95.42c-.26.28-.4.61-.4,1s.13.71.38.98c.26.27.57.4.95.4s.7-.14.96-.41c.26-.27.39-.6.39-.98h.02Z"/><path d="m289.2,109.54h.47l1.15,2.63,1.15-2.63h.47l-1.58,3.57h-.08l-1.59-3.57h0Z"/><path d="m295.94,111.87l.38.19c-.37.69-.92,1.04-1.65,1.04-.52,0-.95-.18-1.29-.54s-.51-.79-.51-1.29.17-.93.51-1.29.76-.54,1.26-.54.92.17,1.26.5.52.79.53,1.37h-3.11c.01.42.14.75.39,1s.55.38.91.38c.58,0,1.02-.27,1.31-.83h0Zm0-.94c-.06-.33-.21-.59-.46-.77-.24-.19-.52-.28-.84-.28-.65,0-1.08.35-1.27,1.05h2.57,0Z"/><path d="m273.45,117.04v3.45h-.44v-.59c-.39.47-.84.71-1.35.71s-.93-.18-1.28-.54-.52-.79-.52-1.29.18-.93.53-1.29.77-.54,1.26-.54c.56,0,1.02.24,1.37.72v-.63h.44-.01Zm-.41,1.74c0-.39-.13-.73-.4-1-.26-.27-.59-.41-.97-.41s-.71.14-.97.42-.4.61-.4.99.13.71.4.99.59.42.96.42.7-.13.97-.4.4-.61.4-1.01h.01Z"/><path d="m277.83,117.75l-.35.22c-.3-.4-.72-.6-1.25-.6-.42,0-.76.13-1.05.4-.28.27-.42.6-.42.99s.14.73.42,1.01.63.42,1.05.42c.51,0,.92-.2,1.25-.6l.35.23c-.17.25-.41.44-.7.58-.29.13-.61.2-.95.2-.53,0-.98-.18-1.33-.53-.36-.35-.54-.78-.54-1.29s.18-.94.54-1.3c.36-.36.83-.54,1.39-.54.33,0,.64.07.93.21.28.14.5.34.65.59h.01Z"/><path d="m279.5,119.94c0,.12.02.19.05.21s.11.03.23.03h.27v.38c-.18.03-.33.05-.43.05-.19,0-.34-.05-.43-.14s-.14-.24-.14-.45v-2.6h-.61v-.38h.61v-1.33h.45v1.33h.7v.38h-.7v2.53h0Z"/><path d="m280.65,116.07c0-.1.04-.19.11-.26.07-.07.16-.11.26-.11s.19.04.26.11.11.16.11.26-.04.19-.11.26c-.07.07-.16.11-.26.11s-.19-.04-.26-.11-.11-.16-.11-.25h0Zm.14.96h.45v3.45h-.45v-3.45Z"/><path d="m282,118.79c0-.51.17-.94.52-1.3.35-.36.77-.54,1.27-.54s.92.18,1.27.54c.35.36.52.79.52,1.29s-.17.93-.52,1.29c-.34.36-.77.54-1.28.54s-.93-.18-1.28-.54-.52-.79-.52-1.28h.02Zm3.15,0c0-.38-.13-.71-.4-.99s-.58-.42-.95-.42-.68.14-.95.42c-.26.28-.4.61-.4,1s.13.71.38.98c.26.27.57.4.95.4s.7-.14.96-.41c.26-.27.39-.6.39-.98h.02Z"/><path d="m286.42,117.04h.45v.62c.36-.47.79-.71,1.29-.71.26,0,.49.07.7.21s.35.32.44.55.13.56.13,1v1.77h-.44v-1.64c0-.4-.02-.68-.06-.82s-.09-.26-.17-.36-.17-.18-.29-.23-.26-.08-.43-.08-.33.04-.49.12-.3.2-.41.34c-.11.15-.19.3-.23.46s-.06.47-.06.94v1.27h-.45v-3.45h.02Z"/><path d="m293,115.42h.52c-.22.45-.39.96-.51,1.53-.12.57-.18,1.14-.18,1.72,0,1.13.18,2.13.53,2.98h-.49c-.34-.84-.51-1.82-.51-2.92,0-1.2.21-2.3.64-3.3h0Z"/><path d="m295.69,120.61c-.5,0-.89-.21-1.16-.62-.27-.41-.41-1.02-.41-1.83s.14-1.42.41-1.83.66-.62,1.15-.62.89.21,1.19.63c.29.42.44,1.03.44,1.82s-.15,1.39-.44,1.82-.69.63-1.18.63h0Zm.01-4.46c-.36,0-.64.17-.84.52s-.3.85-.3,1.5c0,1.34.38,2.02,1.14,2.02.37,0,.66-.18.86-.53.21-.35.31-.85.31-1.5s-.11-1.14-.32-1.49c-.21-.35-.5-.52-.85-.52Z"/><path d="m300.76,118.36h-3.25v-.39h3.25v.39Z"/><path d="m301.84,115.82h.92v4.67h-.46v-4.21h-.73l.28-.46h-.01Z"/><path d="m305.15,115.42c.43,1,.64,2.1.64,3.3,0,1.11-.17,2.08-.51,2.92h-.49c.36-.86.53-1.85.53-2.98,0-.58-.06-1.15-.18-1.72s-.29-1.08-.51-1.53h.52Z"/><path d="m333.58,112.12l.4-.23c.28.51.6.77.97.77.24,0,.44-.08.61-.23.17-.15.25-.34.25-.57,0-.18-.07-.36-.21-.54-.14-.18-.38-.4-.71-.65s-.55-.44-.67-.56c-.11-.12-.2-.26-.25-.4s-.08-.28-.08-.43c0-.3.11-.56.32-.77.21-.21.48-.31.81-.31.26,0,.48.06.67.19s.38.32.55.57l-.38.29c-.12-.16-.25-.3-.38-.41s-.29-.16-.48-.16-.34.06-.46.17-.18.26-.18.43.05.32.16.45c.11.13.35.33.72.61s.65.53.82.77c.17.23.26.48.26.74,0,.34-.13.63-.39.88s-.57.37-.91.37c-.61,0-1.09-.33-1.43-.99h-.01Z"/><path d="m338.06,112.44c0,.12.02.19.05.21s.11.03.23.03h.27v.38c-.18.03-.33.05-.43.05-.19,0-.34-.05-.43-.14s-.14-.24-.14-.45v-2.6h-.61v-.38h.61v-1.33h.45v1.33h.7v.38h-.7v2.53h0Z"/><path d="m339.26,109.54h.46v.5c.12-.2.24-.35.35-.45.12-.1.24-.14.38-.14s.28.04.43.12l-.23.38c-.07-.04-.13-.06-.2-.06-.13,0-.26.07-.38.21s-.21.32-.26.54c-.06.22-.08.62-.08,1.19v1.17h-.46v-3.45h0Z"/><path d="m344.8,109.54v3.45h-.44v-.59c-.39.47-.84.71-1.35.71s-.93-.18-1.28-.54-.52-.79-.52-1.29.18-.93.53-1.29.77-.54,1.26-.54c.56,0,1.02.24,1.37.72v-.63h.44-.01Zm-.41,1.74c0-.39-.13-.73-.4-1-.26-.27-.59-.41-.97-.41s-.71.14-.97.42-.4.61-.4.99.13.71.4.99.59.42.96.42.7-.13.97-.4.4-.61.4-1.01h.01Z"/><path d="m345.33,109.54h.47l1.19,2.66,1.15-2.66h.47l-2.06,4.71h-.47l.66-1.52-1.42-3.19h.01Z"/><path d="m326.35,115.7v4.78h-.44v-.59c-.39.47-.85.71-1.36.71s-.94-.18-1.28-.54-.52-.79-.52-1.29.17-.93.53-1.29c.35-.36.77-.54,1.26-.54.56,0,1.02.24,1.37.72v-1.96h.44,0Zm-.41,3.08c0-.39-.13-.73-.39-1s-.58-.41-.98-.41-.72.14-.98.42-.39.61-.39.99.13.71.4.99.59.42.95.42.69-.13.96-.4c.28-.27.42-.6.42-1.01h.01Z"/><path d="m327.15,116.07c0-.1.04-.19.11-.26.07-.07.16-.11.26-.11s.19.04.26.11.11.16.11.26-.04.19-.11.26c-.07.07-.16.11-.26.11s-.19-.04-.26-.11-.11-.16-.11-.25h0Zm.14.96h.45v3.45h-.45v-3.45Z"/><path d="m330.39,117.41l-.29.29c-.24-.23-.47-.34-.7-.34-.15,0-.27.05-.37.14s-.15.21-.15.34.05.25.16.35c.11.1.29.21.55.35.26.14.46.28.59.44s.21.35.21.58c0,.29-.1.54-.3.73-.2.2-.45.3-.74.3-.2,0-.38-.04-.56-.13-.18-.09-.33-.21-.46-.36l.28-.31c.23.26.47.38.72.38.18,0,.33-.06.46-.18s.19-.25.19-.41-.06-.29-.17-.39c-.11-.1-.29-.22-.55-.35-.26-.13-.45-.27-.58-.43s-.19-.35-.19-.6.09-.45.27-.63.42-.26.71-.26.6.16.92.47v.02Z"/><path d="m332.02,119.94c0,.12.02.19.05.21s.11.03.23.03h.27v.38c-.18.03-.33.05-.43.05-.19,0-.34-.05-.43-.14s-.14-.24-.14-.45v-2.6h-.61v-.38h.61v-1.33h.45v1.33h.7v.38h-.7v2.53h0Z"/><path d="m336.85,117.04v3.45h-.44v-.59c-.39.47-.84.71-1.35.71s-.93-.18-1.28-.54-.52-.79-.52-1.29.18-.93.53-1.29.77-.54,1.26-.54c.56,0,1.02.24,1.37.72v-.63h.44-.01Zm-.41,1.74c0-.39-.13-.73-.4-1-.26-.27-.59-.41-.97-.41s-.71.14-.97.42-.4.61-.4.99.13.71.4.99.59.42.96.42.7-.13.97-.4.4-.61.4-1.01h.01Z"/><path d="m337.85,117.04h.45v.62c.36-.47.79-.71,1.29-.71.26,0,.49.07.7.21s.35.32.44.55.13.56.13,1v1.77h-.44v-1.64c0-.4-.02-.68-.06-.82s-.09-.26-.17-.36-.17-.18-.29-.23-.26-.08-.43-.08-.33.04-.49.12-.3.2-.41.34c-.11.15-.19.3-.23.46s-.06.47-.06.94v1.27h-.45v-3.45h.02Z"/><path d="m345.19,117.75l-.35.22c-.3-.4-.72-.6-1.25-.6-.42,0-.76.13-1.05.4-.28.27-.42.6-.42.99s.14.73.42,1.01.63.42,1.05.42c.51,0,.92-.2,1.25-.6l.35.23c-.17.25-.41.44-.7.58-.29.13-.61.2-.95.2-.53,0-.98-.18-1.33-.53-.36-.35-.54-.78-.54-1.29s.18-.94.54-1.3c.36-.36.83-.54,1.39-.54.33,0,.64.07.93.21.28.14.5.34.65.59h.01Z"/><path d="m348.92,119.37l.38.19c-.37.69-.92,1.04-1.65,1.04-.52,0-.95-.18-1.29-.54s-.51-.79-.51-1.29.17-.93.51-1.29.76-.54,1.26-.54.92.17,1.26.5.52.79.53,1.37h-3.11c.01.42.14.75.39,1s.55.38.91.38c.58,0,1.02-.27,1.31-.83h0Zm0-.94c-.06-.33-.21-.59-.46-.77-.24-.19-.52-.28-.84-.28-.65,0-1.08.35-1.27,1.05h2.57,0Z"/><path d="m352.86,115.42h.52c-.22.45-.39.96-.51,1.53-.12.57-.18,1.14-.18,1.72,0,1.13.18,2.13.53,2.98h-.49c-.34-.84-.51-1.82-.51-2.92,0-1.2.21-2.3.64-3.3h0Z"/><path d="m354.27,117.04h.44v.6c.31-.46.7-.69,1.18-.69.26,0,.48.07.69.22.2.15.34.35.41.61.14-.27.33-.47.55-.62.22-.14.48-.21.76-.21s.55.11.78.33.35.66.35,1.32v1.88h-.46v-1.88c0-.32-.02-.55-.06-.7s-.12-.28-.25-.38-.3-.15-.52-.15-.42.07-.6.21c-.19.14-.31.33-.38.55s-.1.55-.1,1v1.35h-.44v-1.77c0-.37-.02-.63-.06-.79s-.12-.29-.26-.4c-.13-.11-.3-.16-.49-.16s-.38.06-.55.17-.31.27-.4.47-.15.54-.15,1.01v1.46h-.44v-3.45.02Z"/><path d="m360.78,115.42c.43,1,.64,2.1.64,3.3,0,1.11-.17,2.08-.51,2.92h-.49c.36-.86.53-1.85.53-2.98,0-.58-.06-1.15-.18-1.72s-.29-1.08-.51-1.53h.52Z"/><path d="m120.5,112.99h-4.5l2.2-4.67h.12l2.18,4.67h0Zm-.72-.46l-1.51-3.22-1.53,3.22h3.04Z"/><path d="m121.83,111.54l-1,1.44h-.53l1.26-1.82-1.14-1.63h.53l.87,1.25.86-1.25h.53l-1.13,1.62,1.28,1.83h-.54l-1.01-1.44h.02Z"/><path d="m126.59,107.92h.52c-.22.45-.39.96-.51,1.53-.12.57-.18,1.14-.18,1.72,0,1.13.18,2.13.53,2.98h-.49c-.34-.84-.51-1.82-.51-2.92,0-1.2.21-2.3.64-3.3h0Z"/><path d="m128,109.54h.44v.6c.31-.46.7-.69,1.18-.69.26,0,.48.07.69.22.2.15.34.35.41.61.14-.27.33-.47.55-.62.22-.14.48-.21.76-.21s.55.11.78.33.35.66.35,1.32v1.88h-.46v-1.88c0-.32-.02-.55-.06-.7s-.12-.28-.25-.38-.3-.15-.52-.15-.42.07-.6.21c-.19.14-.31.33-.38.55s-.1.55-.1,1v1.35h-.44v-1.77c0-.37-.02-.63-.06-.79s-.12-.29-.26-.4c-.13-.11-.3-.16-.49-.16s-.38.06-.55.17-.31.27-.4.47-.15.54-.15,1.01v1.46h-.44v-3.45.02Z"/><path d="m134.51,107.92c.43,1,.64,2.1.64,3.3,0,1.11-.17,2.08-.51,2.92h-.49c.36-.86.53-1.85.53-2.98,0-.58-.06-1.15-.18-1.72s-.29-1.08-.51-1.53h.52,0Z"/><path d="m173.15,112.99h-4.5l2.2-4.67h.12l2.18,4.67h0Zm-.72-.46l-1.51-3.22-1.53,3.22h3.04Z"/><path d="m173.05,109.54h.47l1.19,2.66,1.15-2.66h.47l-2.06,4.71h-.47l.66-1.52-1.42-3.19h0Z"/><path d="m179.33,107.92h.52c-.22.45-.39.96-.51,1.53-.12.57-.18,1.14-.18,1.72,0,1.13.18,2.13.53,2.98h-.49c-.34-.84-.51-1.82-.51-2.92,0-1.2.21-2.3.64-3.3h0Z"/><path d="m180.73,109.54h.44v.6c.31-.46.7-.69,1.18-.69.26,0,.48.07.69.22.2.15.34.35.41.61.14-.27.33-.47.55-.62.22-.14.48-.21.76-.21s.55.11.78.33.35.66.35,1.32v1.88h-.46v-1.88c0-.32-.02-.55-.06-.7s-.12-.28-.25-.38-.3-.15-.52-.15-.42.07-.6.21c-.19.14-.31.33-.38.55s-.1.55-.1,1v1.35h-.44v-1.77c0-.37-.02-.63-.06-.79s-.12-.29-.26-.4c-.13-.11-.3-.16-.49-.16s-.38.06-.55.17-.31.27-.4.47-.15.54-.15,1.01v1.46h-.44v-3.45.02Z"/><path d="m187.24,107.92c.43,1,.64,2.1.64,3.3,0,1.11-.17,2.08-.51,2.92h-.49c.36-.86.53-1.85.53-2.98,0-.58-.06-1.15-.18-1.72s-.29-1.08-.51-1.53h.52,0Z"/><path d="m57.28,99.61c0,.43-.18.75-.53.98s-.87.34-1.55.34-1.2-.12-1.55-.34c-.35-.23-.53-.55-.53-.98s.18-.76.54-1c.36-.25.87-.37,1.54-.37s1.18.12,1.54.37.54.58.54,1Zm-3.77,0c0,.3.15.54.44.71.29.17.72.25,1.27.25,1.14,0,1.71-.32,1.71-.96,0-.31-.15-.55-.45-.73s-.72-.26-1.27-.26-.96.09-1.26.27-.44.42-.44.72h0Z"/><path d="m88.68,99.61c0,.43-.17.75-.53.98-.35.23-.87.34-1.55.34s-1.2-.12-1.55-.34c-.35-.23-.53-.55-.53-.98s.18-.76.54-1c.36-.25.87-.37,1.54-.37s1.18.12,1.54.37.54.58.54,1Zm-3.77,0c0,.3.15.54.44.71.29.17.72.25,1.27.25,1.14,0,1.71-.32,1.71-.96,0-.31-.15-.55-.45-.73s-.72-.26-1.27-.26-.97.09-1.26.27-.44.42-.44.72h0Z"/><path d="m63.44,104.61v2.75h-.33v-2.75h.33Z"/><path d="m65.35,103.6l-.21.32-1.62-1.07c.05.14.07.28.07.41,0,.32-.11.58-.34.79-.23.21-.51.32-.85.32s-.62-.12-.86-.36c-.23-.24-.35-.53-.35-.88s.12-.63.35-.86c.24-.23.52-.34.85-.34.18,0,.37.04.55.11.18.08.38.19.6.33l1.79,1.2.02.03Zm-2.93.4c.23,0,.43-.08.59-.24s.24-.36.24-.59-.08-.43-.25-.59c-.16-.16-.36-.24-.59-.24s-.42.08-.58.24-.25.36-.25.59.08.43.24.59.36.24.59.24h.01Z"/><path d="m65.35,100.11c0,.43-.17.75-.53.98-.35.23-.87.34-1.55.34s-1.2-.12-1.55-.34c-.35-.23-.53-.55-.53-.98s.18-.76.54-1c.36-.25.87-.37,1.54-.37s1.18.12,1.54.37.54.58.54,1Zm-3.77,0c0,.3.15.54.44.71.29.17.72.25,1.27.25,1.14,0,1.71-.32,1.71-.96,0-.31-.15-.55-.45-.73s-.72-.26-1.27-.26-.97.09-1.26.27c-.29.18-.44.42-.44.72h0Z"/><path d="m70.83,105.83v1.48h1.38v.35h-1.38v1.49h-.34v-1.49h-1.29v-.35h1.29v-1.48h.34Zm2.25,0v3.32h-.34v-3.32h.34Z"/><path d="m68.95,104.51v-.78h3.95v.39h-3.56v.62l-.38-.24h-.01Z"/><path d="m70.74,100.37c.25-.5.59-.75,1.03-.75.35,0,.65.12.88.37.24.25.35.57.35.97s-.12.72-.35.97c-.23.24-.52.36-.85.36-.46,0-.82-.25-1.07-.76-.21.38-.49.58-.85.58-.27,0-.51-.11-.72-.34s-.31-.5-.31-.82.1-.59.3-.81c.2-.22.45-.34.74-.34.35,0,.63.19.84.57h.01Zm-.86-.17c-.18,0-.33.07-.45.21-.13.14-.19.32-.19.54s.06.4.19.55c.13.14.28.21.46.21s.34-.08.48-.23c.14-.16.21-.33.21-.53s-.07-.37-.21-.52-.3-.22-.49-.22h0Zm1.9-.18c-.22,0-.42.09-.59.27s-.25.4-.25.66.09.48.26.67c.17.19.38.28.62.28s.43-.09.59-.26c.15-.17.23-.4.23-.68s-.08-.51-.25-.68-.37-.26-.6-.26h-.01Z"/><path d="m73,97.99c0,.43-.18.75-.53.98s-.87.34-1.55.34-1.2-.12-1.55-.34c-.35-.23-.53-.55-.53-.98s.18-.76.54-1c.36-.25.87-.37,1.54-.37s1.18.12,1.54.37.54.58.54,1Zm-3.77,0c0,.3.15.54.44.71.29.17.72.25,1.27.25,1.14,0,1.71-.32,1.71-.96,0-.31-.15-.55-.45-.73s-.72-.26-1.27-.26-.97.09-1.26.27c-.29.18-.44.42-.44.72h0Z"/><path d="m78.36,105.89h-1.16v-.36h1.16v-1.18h.37v1.18h1.17v.36h-1.17v1.18h-.37v-1.18Z"/><path d="m80.62,102.99l-.21.32-1.62-1.07c.05.14.07.28.07.41,0,.32-.11.58-.34.79-.23.21-.51.32-.85.32s-.62-.12-.86-.36c-.23-.24-.35-.53-.35-.88s.12-.63.35-.86c.24-.23.52-.34.85-.34.18,0,.37.04.55.11s.39.19.6.33l1.79,1.2.02.03Zm-2.93.4c.23,0,.43-.08.59-.24.16-.16.24-.36.24-.59s-.08-.43-.24-.59-.36-.24-.59-.24-.42.08-.59.24c-.16.16-.24.36-.24.59s.08.43.24.59c.16.16.36.24.59.24Z"/><path d="m80.62,99.49c0,.43-.18.75-.53.98s-.87.34-1.55.34-1.2-.12-1.55-.34c-.35-.23-.53-.55-.53-.98s.18-.76.54-1c.36-.25.87-.37,1.54-.37s1.18.12,1.54.37.54.58.54,1Zm-3.77,0c0,.3.15.54.44.71.29.17.72.25,1.27.25,1.14,0,1.71-.32,1.71-.96,0-.31-.15-.55-.45-.73s-.72-.26-1.27-.26-.96.09-1.26.27-.44.42-.44.72h0Z"/><path d="m102.98,99.95h-2.75v-.33h2.75v.33Z"/><path d="m104.48,101.85c-.43,0-.75-.18-.98-.53s-.34-.87-.34-1.55.12-1.2.34-1.55c.23-.35.55-.53.98-.53s.76.18,1,.54c.25.36.37.87.37,1.54s-.12,1.18-.37,1.54-.58.54-1,.54h0Zm.01-3.77c-.3,0-.54.15-.71.44-.17.29-.25.72-.25,1.27,0,1.14.32,1.71.96,1.71.31,0,.55-.15.73-.45s.26-.72.26-1.27-.09-.97-.27-1.26-.42-.44-.72-.44h0Z"/><path d="m106.25,101.49c0-.09.03-.17.1-.23s.14-.1.23-.1.17.03.23.1c.06.06.1.14.1.24s-.03.17-.1.24c-.06.06-.14.1-.23.1s-.17-.03-.23-.1c-.07-.07-.1-.14-.1-.24h0Z"/><path d="m107.94,97.8h.78v3.95h-.39v-3.56h-.62l.24-.38h-.01Z"/><path d="m125.37,101.85c-.43,0-.75-.18-.98-.53s-.34-.87-.34-1.55.12-1.2.34-1.55c.23-.35.55-.53.98-.53s.76.18,1,.54c.25.36.37.87.37,1.54s-.12,1.18-.37,1.54-.58.54-1,.54h0Zm0-3.77c-.3,0-.54.15-.71.44-.17.29-.25.72-.25,1.27,0,1.14.32,1.71.96,1.71.31,0,.55-.15.73-.45s.26-.72.26-1.27-.09-.97-.27-1.26-.42-.44-.72-.44h0Z"/><path d="m144.91,101.85c-.43,0-.75-.18-.98-.53s-.34-.87-.34-1.55.12-1.2.34-1.55c.23-.35.55-.53.98-.53s.76.18,1,.54c.25.36.37.87.37,1.54s-.12,1.18-.37,1.54-.58.54-1,.54h0Zm0-3.77c-.3,0-.54.15-.71.44-.17.29-.25.72-.25,1.27,0,1.14.32,1.71.96,1.71.31,0,.55-.15.73-.45s.26-.72.26-1.27-.09-.97-.27-1.26-.42-.44-.72-.44h0Z"/><path d="m146.68,101.49c0-.09.03-.17.1-.23s.14-.1.23-.1.17.03.23.1c.06.06.1.14.1.24s-.03.17-.1.24c-.06.06-.14.1-.23.1s-.17-.03-.23-.1c-.07-.07-.1-.14-.1-.24h0Z"/><path d="m148.36,97.8h.78v3.95h-.39v-3.56h-.62l.24-.38h-.01Z"/><path d="m158.03,99.95h-2.75v-.33h2.75v.33Z"/><path d="m159.53,101.85c-.43,0-.75-.18-.98-.53s-.34-.87-.34-1.55.12-1.2.34-1.55c.23-.35.55-.53.98-.53s.76.18,1,.54c.25.36.37.87.37,1.54s-.12,1.18-.37,1.54-.58.54-1,.54h0Zm0-3.77c-.3,0-.54.15-.71.44-.17.29-.25.72-.25,1.27,0,1.14.32,1.71.96,1.71.31,0,.55-.15.73-.45s.26-.72.26-1.27-.09-.97-.27-1.26-.42-.44-.72-.44h0Z"/><path d="m161.3,101.49c0-.09.03-.17.1-.23s.14-.1.23-.1.17.03.23.1c.06.06.1.14.1.24s-.03.17-.1.24c-.06.06-.14.1-.23.1s-.17-.03-.23-.1c-.07-.07-.1-.14-.1-.24h0Z"/><path d="m162.99,97.8h.78v3.95h-.39v-3.56h-.62l.24-.38h-.01Z"/><path d="m179.94,101.85c-.43,0-.75-.18-.98-.53s-.34-.87-.34-1.55.12-1.2.34-1.55c.23-.35.55-.53.98-.53s.76.18,1,.54c.25.36.37.87.37,1.54s-.12,1.18-.37,1.54-.58.54-1,.54h0Zm0-3.77c-.3,0-.54.15-.71.44-.17.29-.25.72-.25,1.27,0,1.14.32,1.71.96,1.71.31,0,.55-.15.73-.45s.26-.72.26-1.27-.09-.97-.27-1.26-.42-.44-.72-.44h0Z"/><path d="m198.14,101.85c-.43,0-.75-.18-.98-.53s-.34-.87-.34-1.55.12-1.2.34-1.55c.23-.35.55-.53.98-.53s.76.18,1,.54c.25.36.37.87.37,1.54s-.12,1.18-.37,1.54-.58.54-1,.54h0Zm0-3.77c-.3,0-.54.15-.71.44-.17.29-.25.72-.25,1.27,0,1.14.32,1.71.96,1.71.31,0,.55-.15.73-.45s.26-.72.26-1.27-.09-.97-.27-1.26-.42-.44-.72-.44h0Z"/><path d="m199.91,101.49c0-.09.03-.17.1-.23s.14-.1.23-.1.17.03.23.1c.06.06.1.14.1.24s-.03.17-.1.24c-.06.06-.14.1-.23.1s-.17-.03-.23-.1c-.07-.07-.1-.14-.1-.24h0Z"/><path d="m201.59,97.8h.78v3.95h-.39v-3.56h-.62l.24-.38h-.01Z"/><path d="m215.18,97.8h.79c.44,0,.74.02.9.06.16.04.3.1.42.19s.21.2.27.34c.07.14.1.29.1.46,0,.34-.12.6-.36.79-.24.19-.58.28-1.01.27l1.42,1.84h-.49l-1.42-1.84h-.23v1.84h-.4v-3.95h0Zm.4.38v1.34h.68c.34,0,.59-.05.75-.16s.24-.28.24-.51-.08-.4-.24-.51-.4-.16-.73-.16h-.7Z"/><path d="m252.08,97.8h.4v3.57h1.52v.38h-1.92v-3.95h0Z"/><path d="m272.93,101.85c-.43,0-.75-.18-.98-.53s-.34-.87-.34-1.55.12-1.2.34-1.55c.23-.35.55-.53.98-.53s.76.18,1,.54c.25.36.37.87.37,1.54s-.12,1.18-.37,1.54-.58.54-1,.54h0Zm.01-3.77c-.3,0-.54.15-.71.44-.17.29-.25.72-.25,1.27,0,1.14.32,1.71.96,1.71.31,0,.55-.15.73-.45s.26-.72.26-1.27-.09-.97-.27-1.26-.42-.44-.72-.44h0Z"/><path d="m300.94,97.8h.78v3.95h-.39v-3.56h-.62l.24-.38h0Z"/><path d="m325.02,101.85c-.43,0-.75-.18-.98-.53s-.34-.87-.34-1.55.12-1.2.34-1.55c.23-.35.55-.53.98-.53s.76.18,1,.54c.25.36.37.87.37,1.54s-.12,1.18-.37,1.54-.58.54-1,.54h0Zm.01-3.77c-.3,0-.54.15-.71.44-.17.29-.25.72-.25,1.27,0,1.14.32,1.71.96,1.71.31,0,.55-.15.73-.45s.26-.72.26-1.27-.09-.97-.27-1.26-.42-.44-.72-.44h0Z"/><path d="m339.8,97.8h.78v3.95h-.39v-3.56h-.62l.24-.38h0Z"/><path d="m353.52,99.04h-.38c.02-.4.15-.73.4-.97s.55-.37.9-.37.65.11.88.34.35.51.35.84c0,.25-.07.47-.2.68s-.33.46-.59.74l-.98,1.06h1.83v.38h-2.68l1.51-1.63c.26-.29.45-.51.57-.68.11-.17.17-.35.17-.57s-.08-.4-.25-.56-.37-.24-.62-.24-.45.08-.62.25c-.16.17-.26.4-.28.71v.02Z"/></g></svg>