<svg xmlns="http://www.w3.org/2000/svg" xmlns:xlink="http://www.w3.org/1999/xlink" id="b" x="0" y="0" version="1.1" viewBox="0 0 143.2 132.1" style="enable-background:new 0 0 143.2 132.1" xml:space="preserve"><style type="text/css">.st0{fill:#fff}.st1{fill:none;stroke:#000;stroke-width:.25;stroke-linejoin:round}.st5{opacity:.2}.st7{fill:#4169e1}.st10,.st11{stroke:#4169e1}.st10{fill:none;stroke-width:.84;stroke-linejoin:round}.st11{stroke-linecap:round}.st11,.st12,.st14{fill:none;stroke-width:1.26;stroke-linejoin:round}.st12{stroke:#ff8c00;stroke-linecap:round}.st14{stroke:gray;stroke-dasharray:0,0,0,0,0,0}.st15{fill:none;stroke:#000;stroke-width:.25;stroke-linecap:square}</style><rect width="111.7" height="88.8" x="31.6" y="25.3" class="st0"/><line x1="31.6" x2="29" y1="76" y2="76" class="st1"/><line x1="31.6" x2="29" y1="55" y2="55" class="st1"/><line x1="31.6" x2="29" y1="44.1" y2="44.1" class="st1"/><line x1="31.6" x2="29" y1="32.2" y2="32.2" class="st1"/><line x1="34.7" x2="34.7" y1="114.1" y2="116.6" class="st1"/><line x1="65.6" x2="65.6" y1="114.1" y2="116.6" class="st1"/><line x1="96.6" x2="96.6" y1="114.1" y2="116.6" class="st1"/><line x1="127.6" x2="127.6" y1="114.1" y2="116.6" class="st1"/><g><defs><rect id="SVGID_1_" width="111.7" height="88.8" x="31.6" y="25.3"/></defs><clipPath id="SVGID_00000083091328041320117800000002709561445455729847_"><use xlink:href="#SVGID_1_" style="overflow:visible"/></clipPath><g style="clip-path:url(#SVGID_00000083091328041320117800000002709561445455729847_)"><g><defs><rect id="SVGID_00000010285812074382131590000014249507913243670667_" width="567.8" height="734.6" x="-292.3" y="-6.1"/></defs><clipPath id="SVGID_00000039843892218275966170000010906322268168013482_"><use xlink:href="#SVGID_00000010285812074382131590000014249507913243670667_" style="overflow:visible"/></clipPath><g style="clip-path:url(#SVGID_00000039843892218275966170000010906322268168013482_)"><g><defs><rect id="SVGID_00000018219603109779070510000017399135791169430426_" width="567.8" height="734.6" x="-292.3" y="-6.1"/></defs><clipPath id="SVGID_00000075148179278566495150000000150411488365162125_"><use xlink:href="#SVGID_00000018219603109779070510000017399135791169430426_" style="overflow:visible"/></clipPath><g style="clip-path:url(#SVGID_00000075148179278566495150000000150411488365162125_)"><g class="st5"><g><defs><rect id="SVGID_00000141440379443522730800000003160889457663828147_" width="97.7" height="51.6" x="34.7" y="58.4"/></defs><clipPath id="SVGID_00000098932822932362137560000013118997512949885092_"><use xlink:href="#SVGID_00000141440379443522730800000003160889457663828147_" style="overflow:visible"/></clipPath><g style="clip-path:url(#SVGID_00000098932822932362137560000013118997512949885092_)"><polygon points="34.7 58.4 34.7 62.8 36.2 76.8 37.8 80.8 39.3 82.1 40.9 83.5 42.4 84.5 44 85.6 45.5 86.3 47.1 86.9 48.6 87.3 50.2 87.7 51.7 88.1 53.3 88.7 54.8 89.2 56.4 89.6 57.9 90.1 59.5 90.4 61 90.9 62.6 91.3 64.1 91.8 65.7 92.1 67.2 92.5 68.8 92.7 70.3 93.1 71.9 93.5 73.4 93.9 75 94.1 76.5 94.3 78.1 94.5 79.6 94.8 81.2 95.2 82.7 95.4 84.3 95.8 85.8 96 87.4 96.3 88.9 96.6 90.5 96.9 92 97.3 93.6 97.8 95.1 98 96.7 98.5 98.2 98.9 99.8 99.2 101.4 99.4 102.9 99.6 104.5 99.8 106 100.2 107.6 100.3 109.1 100.6 110.7 100.8 112.2 101.4 113.8 101.8 115.3 102.3 116.9 102.5 118.4 103 120 103.3 121.5 103.8 123.1 104.3 124.6 104.8 126.2 105.9 127.7 106.7 129.3 106.9 130.8 108.4 132.4 110 132.4 109.9 130.8 108.3 129.3 106.8 127.7 106.6 126.2 105.7 124.6 104.7 123.1 104.1 121.5 103.7 120 103.1 118.4 102.8 116.9 102.3 115.3 102.1 113.8 101.7 112.2 101.2 110.7 100.7 109.1 100.5 107.6 100.2 106 100 104.5 99.6 102.9 99.4 101.4 99.2 99.8 99 98.2 98.8 96.7 98.3 95.1 97.9 93.6 97.6 92 97.2 90.5 96.8 88.9 96.4 87.4 96.2 85.8 95.8 84.3 95.6 82.7 95.3 81.2 95 79.6 94.6 78.1 94.4 76.5 94.1 75 93.9 73.4 93.7 71.9 93.3 70.3 92.9 68.8 92.5 67.2 92.3 65.7 91.9 64.1 91.6 62.6 91.1 61 90.7 59.5 90.2 57.9 89.9 56.4 89.4 54.8 89 53.3 88.4 51.7 87.8 50.2 87.4 48.6 87 47.1 86.6 45.5 86 44 85.3 42.4 84 40.9 83 39.3 81.2 37.8 80 36.2 73.2" class="st7"/></g></g></g><g class="st5"><g><defs><rect id="SVGID_00000112633978866400149110000002988604783851984059_" width="98.6" height="52.4" x="34.2" y="58"/></defs><clipPath id="SVGID_00000163072890877582573610000005128977991565118883_"><use xlink:href="#SVGID_00000112633978866400149110000002988604783851984059_" style="overflow:visible"/></clipPath><g style="clip-path:url(#SVGID_00000163072890877582573610000005128977991565118883_)"><g><defs><rect id="SVGID_00000121254417877891141840000009882940119472201897_" width="98.6" height="52.4" x="34.2" y="58"/></defs><clipPath id="SVGID_00000163754206310497052130000011091424934339258779_"><use xlink:href="#SVGID_00000121254417877891141840000009882940119472201897_" style="overflow:visible"/></clipPath><g style="clip-path:url(#SVGID_00000163754206310497052130000011091424934339258779_)"><polygon points="34.7 58.4 34.7 62.8 36.2 76.8 37.8 80.8 39.3 82.1 40.9 83.5 42.4 84.5 44 85.6 45.5 86.3 47.1 86.9 48.6 87.3 50.2 87.7 51.7 88.1 53.3 88.7 54.8 89.2 56.4 89.6 57.9 90.1 59.5 90.4 61 90.9 62.6 91.3 64.1 91.8 65.7 92.1 67.2 92.5 68.8 92.7 70.3 93.1 71.9 93.5 73.4 93.9 75 94.1 76.5 94.3 78.1 94.5 79.6 94.8 81.2 95.2 82.7 95.4 84.3 95.7 85.8 96 87.4 96.3 88.9 96.6 90.5 96.9 92 97.3 93.6 97.8 95.1 98 96.7 98.5 98.2 98.9 99.8 99.2 101.4 99.4 102.9 99.6 104.5 99.8 106 100.2 107.6 100.3 109.1 100.6 110.7 100.8 112.2 101.4 113.8 101.8 115.3 102.3 116.9 102.5 118.4 103 120 103.3 121.5 103.8 123.1 104.3 124.6 104.8 126.2 105.9 127.7 106.7 129.3 106.9 130.8 108.4 132.4 110 132.4 109.9 130.8 108.3 129.3 106.8 127.7 106.6 126.2 105.7 124.6 104.7 123.1 104.1 121.5 103.7 120 103.1 118.4 102.8 116.9 102.3 115.3 102.1 113.8 101.7 112.2 101.2 110.7 100.7 109.1 100.5 107.6 100.2 106 100 104.5 99.6 102.9 99.4 101.4 99.2 99.8 99 98.2 98.8 96.7 98.3 95.1 97.9 93.6 97.6 92 97.2 90.5 96.8 88.9 96.4 87.4 96.2 85.8 95.8 84.3 95.6 82.7 95.3 81.2 95 79.6 94.6 78.1 94.4 76.5 94.1 75 93.9 73.4 93.7 71.9 93.3 70.3 92.9 68.8 92.5 67.2 92.3 65.7 91.9 64.1 91.6 62.6 91.1 61 90.7 59.5 90.2 57.9 89.9 56.4 89.4 54.8 89 53.3 88.4 51.7 87.8 50.2 87.4 48.6 87 47.1 86.6 45.5 86 44 85.3 42.4 84 40.9 83 39.3 81.2 37.8 80 36.2 73.2" class="st10"/></g></g></g></g></g></g></g></g></g></g></g><polyline points="34.7 60.7 36.2 75.2 37.8 80.4 39.3 81.7 40.9 83.2 42.4 84.2 44 85.5 45.5 86.1 47.1 86.7 48.6 87.1 50.2 87.5 51.7 87.9 53.3 88.6 54.8 89.1 56.4 89.5 57.9 90 59.5 90.3 61 90.8 62.6 91.2 64.1 91.7 65.7 92 67.2 92.4 68.8 92.6 70.3 93 71.9 93.4 73.4 93.8 75 94 76.5 94.2 78.1 94.4 79.6 94.7 81.2 95.1 82.7 95.3 84.3 95.7 85.8 95.9 87.4 96.2 88.9 96.5 90.5 96.9 92 97.3 93.6 97.7 95.1 98 96.7 98.4 98.2 98.8 99.8 99.1 101.4 99.3 102.9 99.5 104.5 99.7 106 100.1 107.6 100.3 109.1 100.5 110.7 100.7 112.2 101.3 113.8 101.8 115.3 102.2 116.9 102.4 118.4 102.9 120 103.2 121.5 103.7 123.1 104.2 124.6 104.7 126.2 105.8 127.7 106.7 129.3 106.8 130.8 108.3 132.4 109.9" class="st11"/><polyline points="34.7 28.2 36.2 28.2 37.8 56.1 39.3 69.9 40.9 69.9 42.4 73.2 44 73.2 45.5 76.3 47.1 76.3 48.6 76.5 50.2 76.5 51.7 77.1 53.3 77.1 54.8 79.4 56.4 79.4 57.9 80.3 59.5 81.3 61 81.3 62.6 82.7 64.1 82.7 65.7 83.2 67.2 83.2 68.8 85.7 70.3 86.9 71.9 86.9 73.4 88.8 75 88.8 76.5 91.5 78.1 91.5 79.6 92.4 81.2 92.4 82.7 92.8 84.3 92.8 85.8 93.3 87.4 93.3 88.9 94.3 90.5 94.3 92 94.8 93.6 94.8 95.1 96 98.2 96 99.8 96.6 104.5 96.6 106 98 107.6 98 109.1 98.8 112.2 98.8 113.8 99.7 118.4 99.7 120 100.6 124.6 100.6 126.2 104.2 127.7 104.2 129.3 109.7 132.4 109.7" class="st12"/><g><defs><rect id="SVGID_00000042012048942549991910000014175361857523325872_" width="111.7" height="88.8" x="31.6" y="25.3"/></defs><clipPath id="SVGID_00000087414425332295472650000015932514338263416507_"><use xlink:href="#SVGID_00000042012048942549991910000014175361857523325872_" style="overflow:visible"/></clipPath><g style="clip-path:url(#SVGID_00000087414425332295472650000015932514338263416507_)"><line x1="31.6" x2="143.2" y1="76" y2="76" class="st14"/><line x1="31.6" x2="143.2" y1="44.1" y2="44.1" class="st14"/></g></g><line x1="31.6" x2="31.6" y1="114.1" y2="25.3" class="st15"/><line x1="143.2" x2="143.2" y1="114.1" y2="25.3" class="st15"/><line x1="31.6" x2="143.2" y1="114.1" y2="114.1" class="st15"/><line x1="31.6" x2="143.2" y1="25.3" y2="25.3" class="st15"/><line x1="65.4" x2="83.8" y1="30.1" y2="30.1" class="st11"/><line x1="65.4" x2="83.8" y1="39.1" y2="39.1" class="st12"/><path d="M12.6,29.8h0.8v4H13v-3.6h-0.6L12.6,29.8L12.6,29.8L12.6,29.8z"/><path d="M15.4,33.1l0.4,0.2l-0.5,1l-0.3-0.1L15.4,33.1z"/><path d="M17.3,33.9c-0.4,0-0.8-0.2-1-0.5S16,32.5,16,31.8s0.1-1.2,0.3-1.5c0.2-0.3,0.5-0.5,1-0.5s0.8,0.2,1,0.5	c0.2,0.4,0.4,0.9,0.4,1.5s-0.1,1.2-0.4,1.5S17.7,33.9,17.3,33.9z M17.3,30.1c-0.3,0-0.5,0.2-0.7,0.4c-0.2,0.3-0.2,0.7-0.2,1.3	c0,1.1,0.3,1.7,1,1.7c0.3,0,0.5-0.2,0.7-0.5s0.3-0.7,0.3-1.3s-0.1-1-0.3-1.3S17.6,30.1,17.3,30.1L17.3,30.1L17.3,30.1z"/><path d="M20.4,33.9c-0.4,0-0.8-0.2-1-0.5S19,32.5,19,31.8s0.1-1.2,0.3-1.5c0.2-0.3,0.5-0.5,1-0.5s0.8,0.2,1,0.5	c0.2,0.4,0.4,0.9,0.4,1.5s-0.1,1.2-0.4,1.5S20.8,33.9,20.4,33.9z M20.4,30.1c-0.3,0-0.5,0.2-0.7,0.4c-0.2,0.3-0.2,0.7-0.2,1.3	c0,1.1,0.3,1.7,1,1.7c0.3,0,0.5-0.2,0.7-0.5s0.3-0.7,0.3-1.3s-0.1-1-0.3-1.3S20.7,30.1,20.4,30.1L20.4,30.1L20.4,30.1z"/><path d="M23.4,33.9c-0.4,0-0.8-0.2-1-0.5s-0.3-0.9-0.3-1.5s0.1-1.2,0.3-1.5c0.2-0.3,0.5-0.5,1-0.5s0.8,0.2,1,0.5	c0.2,0.4,0.4,0.9,0.4,1.5s-0.1,1.2-0.4,1.5S23.8,33.9,23.4,33.9z M23.4,30.1c-0.3,0-0.5,0.2-0.7,0.4c-0.2,0.3-0.2,0.7-0.2,1.3	c0,1.1,0.3,1.7,1,1.7c0.3,0,0.5-0.2,0.7-0.5s0.3-0.7,0.3-1.3s-0.1-1-0.3-1.3S23.7,30.1,23.4,30.1L23.4,30.1L23.4,30.1z"/><path d="M16.1,42.7h-0.4c0.1-0.3,0.2-0.6,0.4-0.8s0.5-0.3,0.8-0.3s0.6,0.1,0.8,0.3s0.3,0.4,0.3,0.7c0,0.3-0.2,0.6-0.5,0.8	c0.2,0.1,0.4,0.2,0.5,0.4s0.2,0.4,0.2,0.6c0,0.3-0.1,0.7-0.4,0.9s-0.6,0.4-1,0.4c-0.3,0-0.6-0.1-0.9-0.3c-0.2-0.2-0.4-0.5-0.5-0.9	H16c0.1,0.3,0.2,0.5,0.3,0.6s0.4,0.2,0.6,0.2s0.5-0.1,0.7-0.2c0.2-0.2,0.3-0.4,0.3-0.6s-0.1-0.5-0.3-0.6c-0.2-0.2-0.5-0.2-0.9-0.2	v-0.4c0.3,0,0.5-0.1,0.7-0.2c0.2-0.1,0.2-0.3,0.2-0.5s-0.1-0.3-0.2-0.5c-0.1-0.1-0.3-0.2-0.5-0.2s-0.4,0-0.5,0.2	S16.2,42.5,16.1,42.7L16.1,42.7L16.1,42.7z"/><path d="M20,45.8c-0.4,0-0.8-0.2-1-0.5s-0.3-0.9-0.3-1.5s0.1-1.2,0.3-1.5c0.2-0.3,0.5-0.5,1-0.5s0.8,0.2,1,0.5	c0.2,0.4,0.4,0.9,0.4,1.5s-0.1,1.2-0.4,1.5S20.4,45.8,20,45.8z M20,42c-0.3,0-0.5,0.2-0.7,0.4c-0.2,0.3-0.2,0.7-0.2,1.3	c0,1.1,0.3,1.7,1,1.7c0.3,0,0.5-0.2,0.7-0.5s0.3-0.7,0.3-1.3s-0.1-1-0.3-1.3S20.3,42,20,42L20,42L20,42z"/><path d="M23,45.8c-0.4,0-0.8-0.2-1-0.5s-0.3-0.9-0.3-1.5s0.1-1.2,0.3-1.5c0.2-0.3,0.5-0.5,1-0.5s0.8,0.2,1,0.5	c0.2,0.4,0.4,0.9,0.4,1.5s-0.1,1.2-0.4,1.5S23.4,45.8,23,45.8z M23,42c-0.3,0-0.5,0.2-0.7,0.4c-0.2,0.3-0.2,0.7-0.2,1.3	c0,1.1,0.3,1.7,1,1.7c0.3,0,0.5-0.2,0.7-0.5s0.3-0.7,0.3-1.3s-0.1-1-0.3-1.3S23.3,42,23,42L23,42L23,42z"/><path d="M17.6,52.6h0.8v4h-0.4V53h-0.6L17.6,52.6L17.6,52.6L17.6,52.6z"/><path d="M21.1,56.7c-0.4,0-0.8-0.2-1-0.5s-0.3-0.9-0.3-1.5s0.1-1.2,0.3-1.5c0.2-0.3,0.5-0.5,1-0.5s0.8,0.2,1,0.5	c0.2,0.4,0.4,0.9,0.4,1.5s-0.1,1.2-0.4,1.5S21.5,56.7,21.1,56.7z M21.1,52.9c-0.3,0-0.5,0.2-0.7,0.4c-0.2,0.3-0.2,0.7-0.2,1.3	c0,1.1,0.3,1.7,1,1.7c0.3,0,0.5-0.2,0.7-0.5s0.3-0.7,0.3-1.3s-0.1-1-0.3-1.3S21.4,52.9,21.1,52.9L21.1,52.9L21.1,52.9z"/><path d="M24.1,56.7c-0.4,0-0.8-0.2-1-0.5s-0.3-0.9-0.3-1.5s0.1-1.2,0.3-1.5c0.2-0.3,0.5-0.5,1-0.5s0.8,0.2,1,0.5	c0.2,0.4,0.4,0.9,0.4,1.5s-0.1,1.2-0.4,1.5S24.6,56.7,24.1,56.7z M24.1,52.9c-0.3,0-0.5,0.2-0.7,0.4c-0.2,0.3-0.2,0.7-0.2,1.3	c0,1.1,0.3,1.7,1,1.7c0.3,0,0.5-0.2,0.7-0.5s0.3-0.7,0.3-1.3s-0.1-1-0.3-1.3S24.4,52.9,24.1,52.9L24.1,52.9L24.1,52.9z"/><path d="M22,73.5h0.8v3.9h-0.4v-3.6h-0.6L22,73.5L22,73.5L22,73.5z"/><path d="M24.7,74.8h-0.4c0-0.4,0.1-0.7,0.4-1s0.5-0.4,0.9-0.4s0.6,0.1,0.9,0.3c0.2,0.2,0.4,0.5,0.4,0.8c0,0.2-0.1,0.5-0.2,0.7	S26.3,75.7,26,76l-1,1.1h1.8v0.4h-2.7l1.5-1.6c0.3-0.3,0.5-0.5,0.6-0.7c0.1-0.2,0.2-0.3,0.2-0.6s-0.1-0.4-0.2-0.6	c-0.2-0.2-0.4-0.2-0.6-0.2S25.1,73.9,25,74C24.8,74.2,24.7,74.4,24.7,74.8L24.7,74.8L24.7,74.8z"/><path d="M0.6,85.2H0.1v-2.6h0.5v1h4.2v0.5H0.6C0.6,84.1,0.6,85.2,0.6,85.2z"/><path d="M0.4,82.3c-0.1,0-0.2,0-0.3-0.1S0,82,0,81.9s0-0.2,0.1-0.3c0.1-0.1,0.2-0.1,0.3-0.1s0.2,0,0.3,0.1s0.1,0.2,0.1,0.3	s0,0.2-0.1,0.3C0.6,82.3,0.5,82.3,0.4,82.3L0.4,82.3z M1.3,82.2v-0.4h3.5v0.4H1.3z"/><path d="M1.3,80.8v-0.4h0.6c-0.5-0.3-0.7-0.7-0.7-1.2c0-0.3,0.1-0.5,0.2-0.7c0.1-0.2,0.4-0.3,0.6-0.4c-0.3-0.1-0.5-0.3-0.6-0.6	c-0.1-0.2-0.2-0.5-0.2-0.8s0.1-0.6,0.3-0.8c0.2-0.2,0.7-0.3,1.3-0.3h1.9v0.5H2.9c-0.3,0-0.5,0-0.7,0.1s-0.3,0.1-0.4,0.2	s-0.1,0.3-0.1,0.5s0.1,0.4,0.2,0.6c0.1,0.2,0.3,0.3,0.5,0.4S3,78,3.4,78h1.4v0.4H3c-0.4,0-0.6,0-0.8,0.1s-0.3,0.1-0.4,0.3	c-0.1,0.1-0.2,0.3-0.2,0.5s0.1,0.4,0.2,0.6s0.3,0.3,0.5,0.4s0.5,0.2,1,0.2h1.5v0.4L1.3,80.8L1.3,80.8L1.3,80.8z"/><path d="M3.7,71.8l0.2-0.4c0.7,0.4,1,0.9,1,1.7c0,0.5-0.2,0.9-0.5,1.3c-0.4,0.3-0.8,0.5-1.3,0.5s-0.9-0.2-1.3-0.5s-0.5-0.8-0.5-1.3	s0.2-0.9,0.5-1.3c0.3-0.3,0.8-0.5,1.4-0.5v3.1c0.4,0,0.8-0.1,1-0.4s0.4-0.6,0.4-0.9C4.5,72.5,4.2,72.1,3.7,71.8L3.7,71.8L3.7,71.8z M2.7,71.8C2.4,71.8,2.1,72,2,72.2c-0.2,0.2-0.3,0.5-0.3,0.8c0,0.7,0.4,1.1,1,1.3C2.7,74.4,2.7,71.8,2.7,71.8z"/><path d="M1.7,68.7L2,69c-0.2,0.2-0.3,0.5-0.3,0.7c0,0.2,0,0.3,0.1,0.4c0.1,0.1,0.2,0.2,0.3,0.2s0.2-0.1,0.4-0.2s0.2-0.3,0.4-0.6	s0.3-0.5,0.4-0.6s0.4-0.2,0.6-0.2c0.3,0,0.5,0.1,0.7,0.3s0.3,0.4,0.3,0.7c0,0.2,0,0.4-0.1,0.6s-0.2,0.3-0.4,0.5l-0.3-0.3	c0.3-0.2,0.4-0.5,0.4-0.7c0-0.2-0.1-0.3-0.2-0.5S4,69.1,3.9,69.1s-0.3,0.1-0.4,0.2s-0.2,0.3-0.4,0.6s-0.3,0.4-0.4,0.6	s-0.4,0.2-0.6,0.2s-0.5-0.1-0.6-0.3c-0.2-0.2-0.3-0.4-0.3-0.7S1.4,69,1.7,68.7C1.7,68.7,1.7,68.7,1.7,68.7z"/><path d="M4.2,67.1c0.1,0,0.2,0,0.2-0.1c0,0,0-0.1,0-0.2v-0.3h0.4c0,0.2,0,0.3,0,0.4c0,0.2,0,0.3-0.1,0.4s-0.2,0.1-0.5,0.1H1.7v0.6	H1.3v-0.6H0v-0.4h1.3v-0.7h0.4v0.7H4.2L4.2,67.1z"/><path d="M3.7,62.8l0.2-0.4c0.7,0.4,1,0.9,1,1.6c0,0.5-0.2,0.9-0.5,1.3c-0.4,0.3-0.8,0.5-1.3,0.5s-0.9-0.2-1.3-0.5s-0.5-0.8-0.5-1.3	c0-0.5,0.2-0.9,0.5-1.3c0.3-0.3,0.8-0.5,1.4-0.5v3.1c0.4,0,0.8-0.1,1-0.4s0.4-0.6,0.4-0.9C4.5,63.5,4.2,63.1,3.7,62.8L3.7,62.8	L3.7,62.8z M2.7,62.8C2.4,62.9,2.1,63,2,63.3c-0.2,0.2-0.3,0.5-0.3,0.8c0,0.7,0.4,1.1,1,1.3C2.7,65.4,2.7,62.8,2.7,62.8z"/><path d="M1.3,61.5V61H2c-0.5-0.3-0.7-0.8-0.7-1.4c0-0.5,0.2-0.9,0.5-1.2c0.4-0.3,0.8-0.5,1.3-0.5s0.9,0.2,1.3,0.5s0.5,0.8,0.5,1.2	c0,0.5-0.2,1-0.7,1.4H6v0.4L1.3,61.5L1.3,61.5z M3.1,58.3c-0.4,0-0.7,0.1-1,0.4c-0.3,0.3-0.4,0.6-0.4,1s0.1,0.7,0.4,1s0.6,0.4,1,0.4	s0.7-0.1,1-0.4c0.3-0.3,0.4-0.6,0.4-1s-0.1-0.7-0.4-1C3.8,58.5,3.5,58.3,3.1,58.3L3.1,58.3z"/><path d="M1.7,55.3L2,55.6c-0.2,0.2-0.3,0.5-0.3,0.7c0,0.2,0,0.3,0.1,0.4c0.1,0.1,0.2,0.2,0.3,0.2s0.2,0,0.4-0.2s0.2-0.3,0.4-0.5	s0.3-0.5,0.4-0.6s0.4-0.2,0.6-0.2c0.3,0,0.5,0.1,0.7,0.3s0.3,0.5,0.3,0.7c0,0.2,0,0.4-0.1,0.6s-0.2,0.3-0.4,0.5l-0.3-0.3	c0.3-0.2,0.4-0.5,0.4-0.7c0-0.2-0.1-0.3-0.2-0.5S4,55.7,3.9,55.7s-0.3,0.1-0.4,0.2s-0.2,0.3-0.4,0.5S2.9,56.9,2.7,57	s-0.4,0.2-0.6,0.2S1.7,57.1,1.5,57c-0.2-0.2-0.3-0.4-0.3-0.7S1.4,55.7,1.7,55.3C1.7,55.3,1.7,55.3,1.7,55.3z"/><path d="M88.2,36.4h0.9c0.5,0,0.9,0.1,1.1,0.3s0.4,0.5,0.4,0.8c0,0.2,0,0.4-0.1,0.6c-0.1,0.2-0.2,0.3-0.5,0.4	c0.3,0.1,0.6,0.3,0.7,0.5s0.2,0.5,0.2,0.7c0,0.4-0.1,0.7-0.4,1S89.9,41,89.4,41h-1.3L88.2,36.4L88.2,36.4z M88.6,36.8v1.5h0.3	c0.4,0,0.7-0.1,0.9-0.2c0.2-0.1,0.3-0.3,0.3-0.6c0-0.5-0.3-0.7-0.9-0.7L88.6,36.8L88.6,36.8L88.6,36.8z M88.6,38.8v1.8h0.6	c0.3,0,0.6,0,0.7-0.1s0.3-0.2,0.4-0.3c0.1-0.1,0.1-0.3,0.1-0.4s0-0.3-0.1-0.4c-0.1-0.1-0.1-0.2-0.2-0.3s-0.2-0.2-0.4-0.2	c-0.1,0-0.4-0.1-0.9-0.1H88.6L88.6,38.8z"/><path d="M94.7,39.9l0.4,0.2c-0.4,0.7-0.9,1-1.6,1c-0.5,0-1-0.2-1.3-0.5s-0.5-0.8-0.5-1.3s0.2-0.9,0.5-1.3s0.8-0.5,1.3-0.5	s0.9,0.2,1.3,0.5s0.5,0.8,0.5,1.4h-3.1c0,0.4,0.1,0.8,0.4,1s0.5,0.4,0.9,0.4C94,40.7,94.4,40.4,94.7,39.9L94.7,39.9L94.7,39.9z M94.7,39c-0.1-0.3-0.2-0.6-0.5-0.8c-0.2-0.2-0.5-0.3-0.8-0.3c-0.6,0-1.1,0.3-1.3,1H94.7L94.7,39L94.7,39z"/><path d="M97.4,36.3v0.4c-0.2-0.1-0.3-0.1-0.5-0.1s-0.2,0-0.3,0.1s-0.1,0.2-0.1,0.4v0.4h0.7V38h-0.7V41h-0.5V38h-0.5v-0.4h0.5v-0.5	c0-0.3,0.1-0.5,0.2-0.7c0.1-0.1,0.3-0.2,0.5-0.2C97.1,36.2,97.2,36.3,97.4,36.3L97.4,36.3L97.4,36.3z"/><path d="M97.7,39.3c0-0.5,0.2-0.9,0.5-1.3c0.4-0.4,0.8-0.5,1.3-0.5s0.9,0.2,1.3,0.5c0.4,0.4,0.5,0.8,0.5,1.3s-0.2,0.9-0.5,1.3	c-0.3,0.4-0.8,0.5-1.3,0.5s-0.9-0.2-1.3-0.5S97.7,39.8,97.7,39.3L97.7,39.3L97.7,39.3z M100.9,39.3c0-0.4-0.1-0.7-0.4-1	c-0.3-0.3-0.6-0.4-1-0.4s-0.7,0.1-1,0.4c-0.3,0.3-0.4,0.6-0.4,1s0.1,0.7,0.4,1c0.3,0.3,0.6,0.4,1,0.4s0.7-0.1,1-0.4	C100.7,40,100.9,39.7,100.9,39.3L100.9,39.3z"/><path d="M102,37.6h0.5v0.5c0.1-0.2,0.2-0.3,0.4-0.5c0.1-0.1,0.2-0.1,0.4-0.1s0.3,0,0.4,0.1l-0.2,0.4c-0.1,0-0.1-0.1-0.2-0.1	c-0.1,0-0.3,0.1-0.4,0.2s-0.2,0.3-0.3,0.5c-0.1,0.2-0.1,0.6-0.1,1.2V41H102L102,37.6L102,37.6L102,37.6z"/><path d="M106.9,39.9l0.4,0.2c-0.4,0.7-0.9,1-1.6,1c-0.5,0-1-0.2-1.3-0.5s-0.5-0.8-0.5-1.3s0.2-0.9,0.5-1.3s0.8-0.5,1.3-0.5	s0.9,0.2,1.3,0.5s0.5,0.8,0.5,1.4h-3.1c0,0.4,0.1,0.8,0.4,1s0.5,0.4,0.9,0.4C106.2,40.7,106.6,40.4,106.9,39.9L106.9,39.9	L106.9,39.9z M106.9,39c-0.1-0.3-0.2-0.6-0.5-0.8c-0.2-0.2-0.5-0.3-0.8-0.3c-0.6,0-1.1,0.3-1.3,1H106.9L106.9,39L106.9,39z"/><path d="M110.7,40.5c0,0.1,0,0.2,0,0.2s0.1,0,0.2,0h0.3v0.4c-0.2,0-0.3,0-0.4,0c-0.2,0-0.3,0-0.4-0.1s-0.1-0.2-0.1-0.5V38h-0.6v-0.4	h0.6v-1.3h0.5v1.3h0.7V38h-0.7V40.5L110.7,40.5L110.7,40.5z"/><path d="M111.9,37.6h0.5v0.5c0.1-0.2,0.2-0.3,0.4-0.5c0.1-0.1,0.2-0.1,0.4-0.1s0.3,0,0.4,0.1l-0.2,0.4c-0.1,0-0.1-0.1-0.2-0.1	c-0.1,0-0.3,0.1-0.4,0.2s-0.2,0.3-0.3,0.5c-0.1,0.2-0.1,0.6-0.1,1.2V41h-0.5L111.9,37.6L111.9,37.6L111.9,37.6z"/><path d="M117.4,37.6V41H117v-0.6c-0.4,0.5-0.8,0.7-1.4,0.7s-0.9-0.2-1.3-0.5s-0.5-0.8-0.5-1.3s0.2-0.9,0.5-1.3s0.8-0.5,1.3-0.5	c0.6,0,1,0.2,1.4,0.7v-0.6L117.4,37.6C117.5,37.6,117.4,37.6,117.4,37.6z M117,39.3c0-0.4-0.1-0.7-0.4-1c-0.3-0.3-0.6-0.4-1-0.4	s-0.7,0.1-1,0.4s-0.4,0.6-0.4,1s0.1,0.7,0.4,1c0.3,0.3,0.6,0.4,1,0.4s0.7-0.1,1-0.4S117,39.7,117,39.3L117,39.3z"/><path d="M118.2,36.6c0-0.1,0-0.2,0.1-0.3c0.1-0.1,0.2-0.1,0.3-0.1s0.2,0,0.3,0.1s0.1,0.2,0.1,0.3s0,0.2-0.1,0.3	c-0.1,0.1-0.2,0.1-0.3,0.1s-0.2,0-0.3-0.1S118.2,36.7,118.2,36.6L118.2,36.6L118.2,36.6z M118.4,37.6h0.5V41h-0.5V37.6z"/><path d="M119.7,37.6h0.5v0.6c0.4-0.5,0.8-0.7,1.3-0.7c0.3,0,0.5,0.1,0.7,0.2s0.4,0.3,0.4,0.5s0.1,0.6,0.1,1V41h-0.4v-1.6	c0-0.4,0-0.7-0.1-0.8s-0.1-0.3-0.2-0.4s-0.2-0.2-0.3-0.2s-0.3-0.1-0.4-0.1s-0.3,0-0.5,0.1s-0.3,0.2-0.4,0.3	c-0.1,0.2-0.2,0.3-0.2,0.5s-0.1,0.5-0.1,0.9V41h-0.5L119.7,37.6L119.7,37.6L119.7,37.6z"/><path d="M123.5,36.6c0-0.1,0-0.2,0.1-0.3c0.1-0.1,0.2-0.1,0.3-0.1s0.2,0,0.3,0.1s0.1,0.2,0.1,0.3s0,0.2-0.1,0.3	c-0.1,0.1-0.2,0.1-0.3,0.1s-0.2,0-0.3-0.1S123.5,36.7,123.5,36.6L123.5,36.6L123.5,36.6z M123.6,37.6h0.5V41h-0.5V37.6z"/><path d="M125,37.6h0.5v0.6c0.4-0.5,0.8-0.7,1.3-0.7c0.3,0,0.5,0.1,0.7,0.2s0.4,0.3,0.4,0.5s0.1,0.6,0.1,1V41h-0.4v-1.6	c0-0.4,0-0.7-0.1-0.8s-0.1-0.3-0.2-0.4s-0.2-0.2-0.3-0.2s-0.3-0.1-0.4-0.1s-0.3,0-0.5,0.1s-0.3,0.2-0.4,0.3	c-0.1,0.2-0.2,0.3-0.2,0.5s-0.1,0.5-0.1,0.9V41H125L125,37.6L125,37.6L125,37.6z"/><path d="M132,37.6h0.5v2.7c0,0.5,0,0.8-0.1,1s-0.2,0.4-0.4,0.5c-0.2,0.2-0.3,0.3-0.6,0.3c-0.2,0.1-0.5,0.1-0.7,0.1	c-0.9,0-1.5-0.4-1.8-1.1h0.5c0.2,0.5,0.7,0.7,1.3,0.7c0.3,0,0.5-0.1,0.8-0.2c0.2-0.1,0.4-0.3,0.5-0.4c0.1-0.2,0.1-0.5,0.1-0.8v-0.2	c-0.2,0.2-0.4,0.4-0.6,0.5c-0.2,0.1-0.5,0.2-0.8,0.2c-0.5,0-0.9-0.2-1.2-0.5s-0.5-0.8-0.5-1.2s0.2-0.9,0.5-1.2	c0.4-0.3,0.8-0.5,1.3-0.5s1,0.2,1.3,0.7L132,37.6L132,37.6L132,37.6z M132,39.2c0-0.4-0.1-0.7-0.4-1c-0.3-0.3-0.6-0.4-1-0.4	c-0.4,0-0.7,0.1-1,0.4c-0.3,0.3-0.4,0.6-0.4,1s0.1,0.7,0.4,0.9s0.6,0.4,1,0.4s0.7-0.1,1-0.4C131.9,39.9,132,39.6,132,39.2L132,39.2	L132,39.2z"/><path d="M90,26.8l2.2,4.9h-0.5L91,30.1h-2l-0.7,1.6h-0.5l2.2-4.9H90L90,26.8L90,26.8z M90,27.9l-0.8,1.8h1.6L90,27.9z"/><path d="M94.3,27v0.4c-0.2-0.1-0.3-0.1-0.5-0.1s-0.2,0-0.3,0.1s-0.1,0.2-0.1,0.4v0.4h0.7v0.4h-0.7v3.1h-0.5v-3.1h-0.5v-0.4h0.5v-0.5	c0-0.3,0.1-0.5,0.2-0.7c0.1-0.1,0.3-0.2,0.5-0.2C93.9,26.9,94.1,26.9,94.3,27L94.3,27L94.3,27z"/><path d="M95.8,31.1c0,0.1,0,0.2,0,0.2s0.1,0,0.2,0h0.3v0.4c-0.2,0-0.3,0-0.4,0c-0.2,0-0.3,0-0.4-0.1s-0.1-0.2-0.1-0.5v-2.6h-0.6	v-0.4h0.6v-1.3h0.5v1.3h0.7v0.4h-0.7V31.1L95.8,31.1L95.8,31.1z"/><path d="M100.1,30.6l0.4,0.2c-0.4,0.7-0.9,1-1.6,1c-0.5,0-1-0.2-1.3-0.5S97,30.5,97,30s0.2-0.9,0.5-1.3s0.8-0.5,1.3-0.5	s0.9,0.2,1.3,0.5s0.5,0.8,0.5,1.4h-3.1c0,0.4,0.1,0.8,0.4,1s0.5,0.4,0.9,0.4C99.3,31.4,99.8,31.1,100.1,30.6L100.1,30.6L100.1,30.6z M100.1,29.6c-0.1-0.3-0.2-0.6-0.5-0.8c-0.2-0.2-0.5-0.3-0.8-0.3c-0.6,0-1.1,0.3-1.3,1H100.1L100.1,29.6L100.1,29.6z"/><path d="M101.2,28.2h0.5v0.5c0.1-0.2,0.2-0.3,0.4-0.5c0.1-0.1,0.2-0.1,0.4-0.1s0.3,0,0.4,0.1l-0.2,0.4c-0.1,0-0.1-0.1-0.2-0.1	c-0.1,0-0.3,0.1-0.4,0.2s-0.2,0.3-0.3,0.5c-0.1,0.2-0.1,0.6-0.1,1.2v1.2h-0.5L101.2,28.2L101.2,28.2L101.2,28.2z"/><path d="M105.8,31.1c0,0.1,0,0.2,0,0.2s0.1,0,0.2,0h0.3v0.4c-0.2,0-0.3,0-0.4,0c-0.2,0-0.3,0-0.4-0.1s-0.1-0.2-0.1-0.5v-2.6h-0.6	v-0.4h0.6v-1.3h0.5v1.3h0.7v0.4h-0.7V31.1L105.8,31.1L105.8,31.1z"/><path d="M107,28.2h0.5v0.5c0.1-0.2,0.2-0.3,0.4-0.5c0.1-0.1,0.2-0.1,0.4-0.1s0.3,0,0.4,0.1l-0.2,0.4c-0.1,0-0.1-0.1-0.2-0.1	c-0.1,0-0.3,0.1-0.4,0.2s-0.2,0.3-0.3,0.5c-0.1,0.2-0.1,0.6-0.1,1.2v1.2H107L107,28.2L107,28.2L107,28.2z"/><path d="M112.5,28.2v3.5h-0.4v-0.6c-0.4,0.5-0.8,0.7-1.4,0.7s-0.9-0.2-1.3-0.5s-0.5-0.8-0.5-1.3s0.2-0.9,0.5-1.3s0.8-0.5,1.3-0.5	c0.6,0,1,0.2,1.4,0.7v-0.6L112.5,28.2C112.5,28.2,112.5,28.2,112.5,28.2z M112.1,30c0-0.4-0.1-0.7-0.4-1c-0.3-0.3-0.6-0.4-1-0.4	s-0.7,0.1-1,0.4s-0.4,0.6-0.4,1s0.1,0.7,0.4,1c0.3,0.3,0.6,0.4,1,0.4s0.7-0.1,1-0.4S112.1,30.4,112.1,30L112.1,30z"/><path d="M113.3,27.3c0-0.1,0-0.2,0.1-0.3c0.1-0.1,0.2-0.1,0.3-0.1s0.2,0,0.3,0.1s0.1,0.2,0.1,0.3s0,0.2-0.1,0.3	c-0.1,0.1-0.2,0.1-0.3,0.1s-0.2,0-0.3-0.1S113.3,27.4,113.3,27.3L113.3,27.3L113.3,27.3z M113.5,28.2h0.5v3.5h-0.5V28.2z"/><path d="M114.8,28.2h0.5v0.6c0.4-0.5,0.8-0.7,1.3-0.7c0.3,0,0.5,0.1,0.7,0.2s0.4,0.3,0.4,0.5s0.1,0.6,0.1,1v1.8h-0.4V30	c0-0.4,0-0.7-0.1-0.8s-0.1-0.3-0.2-0.4s-0.2-0.2-0.3-0.2s-0.3-0.1-0.4-0.1s-0.3,0-0.5,0.1s-0.3,0.2-0.4,0.3	c-0.1,0.2-0.2,0.3-0.2,0.5s-0.1,0.5-0.1,0.9v1.3h-0.5L114.8,28.2L114.8,28.2L114.8,28.2z"/><path d="M118.6,27.3c0-0.1,0-0.2,0.1-0.3c0.1-0.1,0.2-0.1,0.3-0.1s0.2,0,0.3,0.1s0.1,0.2,0.1,0.3s0,0.2-0.1,0.3	c-0.1,0.1-0.2,0.1-0.3,0.1s-0.2,0-0.3-0.1S118.6,27.4,118.6,27.3L118.6,27.3L118.6,27.3z M118.7,28.2h0.5v3.5h-0.5V28.2z"/><path d="M120.1,28.2h0.5v0.6c0.4-0.5,0.8-0.7,1.3-0.7c0.3,0,0.5,0.1,0.7,0.2s0.4,0.3,0.4,0.5s0.1,0.6,0.1,1v1.8h-0.4V30	c0-0.4,0-0.7-0.1-0.8s-0.1-0.3-0.2-0.4s-0.2-0.2-0.3-0.2s-0.3-0.1-0.4-0.1s-0.3,0-0.5,0.1s-0.3,0.2-0.4,0.3	c-0.1,0.2-0.2,0.3-0.2,0.5s-0.1,0.5-0.1,0.9v1.3h-0.5L120.1,28.2L120.1,28.2L120.1,28.2z"/><path d="M127.1,28.2h0.5v2.7c0,0.5,0,0.8-0.1,1s-0.2,0.4-0.4,0.5c-0.2,0.2-0.3,0.3-0.6,0.3c-0.2,0.1-0.5,0.1-0.7,0.1	c-0.9,0-1.5-0.4-1.8-1.1h0.5c0.2,0.5,0.7,0.7,1.3,0.7c0.3,0,0.5-0.1,0.8-0.2c0.2-0.1,0.4-0.3,0.5-0.4c0.1-0.2,0.1-0.5,0.1-0.8V31	c-0.2,0.2-0.4,0.4-0.6,0.5c-0.2,0.1-0.5,0.2-0.8,0.2c-0.5,0-0.9-0.2-1.2-0.5s-0.5-0.8-0.5-1.2s0.2-0.9,0.5-1.2	c0.4-0.3,0.8-0.5,1.3-0.5s1,0.2,1.3,0.7L127.1,28.2L127.1,28.2L127.1,28.2z M127.1,29.9c0-0.4-0.1-0.7-0.4-1c-0.3-0.3-0.6-0.4-1-0.4	c-0.4,0-0.7,0.1-1,0.4c-0.3,0.3-0.4,0.6-0.4,1s0.1,0.7,0.4,0.9s0.6,0.4,1,0.4s0.7-0.1,1-0.4C127,30.6,127.1,30.3,127.1,29.9	L127.1,29.9L127.1,29.9z"/><path d="M39.4,19.8l0.4-0.2c0.3,0.5,0.6,0.8,1,0.8c0.2,0,0.4-0.1,0.6-0.2c0.2-0.2,0.2-0.3,0.2-0.6c0-0.2-0.1-0.4-0.2-0.5	c-0.1-0.2-0.4-0.4-0.7-0.7s-0.5-0.4-0.7-0.6c-0.1-0.1-0.2-0.3-0.2-0.4s-0.1-0.3-0.1-0.4c0-0.3,0.1-0.6,0.3-0.8	c0.2-0.2,0.5-0.3,0.8-0.3c0.3,0,0.5,0.1,0.7,0.2c0.2,0.1,0.4,0.3,0.5,0.6l-0.4,0.3c-0.1-0.2-0.2-0.3-0.4-0.4s-0.3-0.2-0.5-0.2	s-0.3,0.1-0.5,0.2s-0.2,0.3-0.2,0.4c0,0.2,0,0.3,0.2,0.5c0.1,0.1,0.4,0.3,0.7,0.6c0.4,0.3,0.6,0.5,0.8,0.8c0.2,0.2,0.3,0.5,0.3,0.7	c0,0.3-0.1,0.6-0.4,0.9s-0.6,0.4-0.9,0.4C40.2,20.8,39.8,20.4,39.4,19.8L39.4,19.8L39.4,19.8z"/><path d="M43.9,20.1c0,0.1,0,0.2,0,0.2c0,0,0.1,0,0.2,0h0.3v0.4c-0.2,0-0.3,0-0.4,0c-0.2,0-0.3,0-0.4-0.1s-0.1-0.2-0.1-0.5v-2.6h-0.6	v-0.4h0.6v-1.3h0.5v1.3h0.7v0.4h-0.7V20.1L43.9,20.1L43.9,20.1z"/><path d="M45,16.2c0-0.1,0-0.2,0.1-0.3c0.1-0.1,0.2-0.1,0.3-0.1s0.2,0,0.3,0.1c0.1,0.1,0.1,0.2,0.1,0.3c0,0.1,0,0.2-0.1,0.3	c-0.1,0.1-0.2,0.1-0.3,0.1s-0.2,0-0.3-0.1S45,16.3,45,16.2L45,16.2L45,16.2z M45.2,17.2h0.5v3.5h-0.5V17.2z"/><path d="M46.6,17.2H47v0.6c0.3-0.5,0.7-0.7,1.2-0.7c0.3,0,0.5,0.1,0.7,0.2c0.2,0.1,0.3,0.3,0.4,0.6c0.1-0.3,0.3-0.5,0.5-0.6	c0.2-0.1,0.5-0.2,0.8-0.2s0.5,0.1,0.8,0.3c0.2,0.2,0.4,0.7,0.4,1.3v1.9h-0.5v-1.9c0-0.3,0-0.5-0.1-0.7s-0.1-0.3-0.2-0.4	s-0.3-0.1-0.5-0.1s-0.4,0.1-0.6,0.2c-0.2,0.1-0.3,0.3-0.4,0.5c-0.1,0.2-0.1,0.5-0.1,1v1.3h-0.4v-1.8c0-0.4,0-0.6-0.1-0.8	c0-0.2-0.1-0.3-0.3-0.4c-0.1-0.1-0.3-0.2-0.5-0.2s-0.4,0.1-0.5,0.2s-0.3,0.3-0.4,0.5c-0.1,0.2-0.1,0.5-0.1,1v1.5h-0.4L46.6,17.2	L46.6,17.2L46.6,17.2z"/><path d="M55.6,20.6h-0.5V20c-0.4,0.5-0.8,0.7-1.3,0.7c-0.3,0-0.5-0.1-0.7-0.2c-0.2-0.1-0.4-0.3-0.4-0.5c-0.1-0.2-0.1-0.6-0.1-1v-1.8	H53v1.6c0,0.4,0,0.7,0.1,0.8s0.1,0.3,0.2,0.4c0.1,0.1,0.2,0.2,0.3,0.2s0.3,0.1,0.4,0.1s0.3,0,0.5-0.1c0.2-0.1,0.3-0.2,0.4-0.3	c0.1-0.2,0.2-0.3,0.2-0.5s0.1-0.5,0.1-0.9v-1.3h0.5L55.6,20.6L55.6,20.6L55.6,20.6z"/><path d="M56.5,15.9H57v4.8h-0.4V15.9z"/><path d="M60.9,20.6h-0.5V20c-0.4,0.5-0.8,0.7-1.3,0.7c-0.3,0-0.5-0.1-0.7-0.2c-0.2-0.1-0.4-0.3-0.4-0.5c-0.1-0.2-0.1-0.6-0.1-1v-1.8	h0.4v1.6c0,0.4,0,0.7,0.1,0.8s0.1,0.3,0.2,0.4c0.1,0.1,0.2,0.2,0.3,0.2s0.3,0.1,0.4,0.1s0.3,0,0.5-0.1c0.2-0.1,0.3-0.2,0.4-0.3	c0.1-0.2,0.2-0.3,0.2-0.5s0.1-0.5,0.1-0.9v-1.3h0.5L60.9,20.6L60.9,20.6L60.9,20.6z"/><path d="M63.6,17.6l-0.3,0.3c-0.2-0.2-0.5-0.3-0.7-0.3c-0.1,0-0.3,0-0.4,0.1s-0.1,0.2-0.1,0.3s0,0.2,0.2,0.4	c0.1,0.1,0.3,0.2,0.5,0.3c0.3,0.1,0.5,0.3,0.6,0.4s0.2,0.3,0.2,0.6c0,0.3-0.1,0.5-0.3,0.7c-0.2,0.2-0.5,0.3-0.7,0.3	c-0.2,0-0.4,0-0.6-0.1c-0.2-0.1-0.3-0.2-0.5-0.4l0.3-0.3c0.2,0.3,0.5,0.4,0.7,0.4c0.2,0,0.3-0.1,0.5-0.2c0.1-0.1,0.2-0.2,0.2-0.4	s-0.1-0.3-0.2-0.4c-0.1-0.1-0.3-0.2-0.5-0.4c-0.3-0.1-0.5-0.3-0.6-0.4s-0.2-0.3-0.2-0.6s0.1-0.5,0.3-0.6c0.2-0.2,0.4-0.3,0.7-0.3	S63.3,17.2,63.6,17.6L63.6,17.6z"/><path d="M65.8,16.2c0-0.1,0-0.2,0.1-0.3c0.1-0.1,0.2-0.1,0.3-0.1s0.2,0,0.3,0.1c0.1,0.1,0.1,0.2,0.1,0.3c0,0.1,0,0.2-0.1,0.3	c-0.1,0.1-0.2,0.1-0.3,0.1s-0.2,0-0.3-0.1S65.8,16.3,65.8,16.2L65.8,16.2L65.8,16.2z M65.9,17.2h0.5v3.5h-0.5V17.2z"/><path d="M67.3,17.2h0.5v0.6c0.4-0.5,0.8-0.7,1.3-0.7c0.3,0,0.5,0.1,0.7,0.2s0.4,0.3,0.4,0.5s0.1,0.6,0.1,1v1.8h-0.4V19	c0-0.4,0-0.7-0.1-0.8s-0.1-0.3-0.2-0.4c-0.1-0.1-0.2-0.2-0.3-0.2s-0.3-0.1-0.4-0.1s-0.3,0-0.5,0.1c-0.2,0.1-0.3,0.2-0.4,0.3	c-0.1,0.1-0.2,0.3-0.2,0.5s-0.1,0.5-0.1,0.9v1.3h-0.5L67.3,17.2L67.3,17.2L67.3,17.2z"/><path d="M72.1,20.1c0,0.1,0,0.2,0,0.2c0,0,0.1,0,0.2,0h0.3v0.4c-0.2,0-0.3,0-0.4,0c-0.2,0-0.3,0-0.4-0.1s-0.1-0.2-0.1-0.5v-2.6H71	v-0.4h0.6v-1.3h0.5v1.3h0.7v0.4h-0.7V20.1L72.1,20.1L72.1,20.1z"/><path d="M76.4,19.5l0.4,0.2c-0.4,0.7-0.9,1-1.6,1c-0.5,0-1-0.2-1.3-0.5s-0.5-0.8-0.5-1.3s0.2-0.9,0.5-1.3s0.8-0.5,1.3-0.5	s0.9,0.2,1.3,0.5c0.3,0.3,0.5,0.8,0.5,1.4h-3.1c0,0.4,0.1,0.8,0.4,1s0.5,0.4,0.9,0.4C75.6,20.3,76.1,20.1,76.4,19.5L76.4,19.5	L76.4,19.5z M76.4,18.6c-0.1-0.3-0.2-0.6-0.5-0.8c-0.2-0.2-0.5-0.3-0.8-0.3c-0.6,0-1.1,0.3-1.3,1H76.4L76.4,18.6L76.4,18.6z"/><path d="M80.7,17.2h0.5v2.7c0,0.5,0,0.8-0.1,1s-0.2,0.4-0.4,0.5c-0.2,0.1-0.3,0.3-0.6,0.3c-0.2,0.1-0.5,0.1-0.7,0.1	c-0.9,0-1.5-0.4-1.8-1.1h0.5c0.2,0.5,0.7,0.7,1.3,0.7c0.3,0,0.5-0.1,0.8-0.2c0.2-0.1,0.4-0.3,0.5-0.4c0.1-0.2,0.1-0.5,0.1-0.8v-0.1	c-0.2,0.2-0.4,0.4-0.6,0.5c-0.2,0.1-0.5,0.2-0.8,0.2c-0.5,0-0.9-0.2-1.2-0.5s-0.5-0.8-0.5-1.2s0.2-0.9,0.5-1.2	c0.4-0.3,0.8-0.5,1.3-0.5s1,0.2,1.3,0.7L80.7,17.2L80.7,17.2L80.7,17.2z M80.7,18.9c0-0.4-0.1-0.7-0.4-1c-0.3-0.3-0.6-0.4-1-0.4	c-0.4,0-0.7,0.1-1,0.4c-0.3,0.3-0.4,0.6-0.4,1s0.1,0.7,0.4,0.9s0.6,0.4,1,0.4s0.7-0.1,1-0.4C80.6,19.6,80.7,19.2,80.7,18.9	L80.7,18.9L80.7,18.9z"/><path d="M81.9,17.2h0.5v0.5c0.1-0.2,0.2-0.3,0.4-0.5c0.1-0.1,0.2-0.1,0.4-0.1s0.3,0,0.4,0.1l-0.2,0.4c-0.1,0-0.1-0.1-0.2-0.1	c-0.1,0-0.3,0.1-0.4,0.2s-0.2,0.3-0.3,0.5c-0.1,0.2-0.1,0.6-0.1,1.2v1.2h-0.5L81.9,17.2L81.9,17.2L81.9,17.2z"/><path d="M87.4,17.2v3.5H87V20c-0.4,0.5-0.8,0.7-1.4,0.7s-0.9-0.2-1.3-0.5s-0.5-0.8-0.5-1.3c0-0.5,0.2-0.9,0.5-1.3s0.8-0.5,1.3-0.5	c0.6,0,1,0.2,1.4,0.7v-0.6H87.4C87.4,17.2,87.4,17.2,87.4,17.2z M87,18.9c0-0.4-0.1-0.7-0.4-1c-0.3-0.3-0.6-0.4-1-0.4	s-0.7,0.1-1,0.4c-0.3,0.3-0.4,0.6-0.4,1c0,0.4,0.1,0.7,0.4,1c0.3,0.3,0.6,0.4,1,0.4s0.7-0.1,1-0.4S87,19.3,87,18.9L87,18.9z"/><path d="M89.3,20.1c0,0.1,0,0.2,0,0.2c0,0,0.1,0,0.2,0h0.3v0.4c-0.2,0-0.3,0-0.4,0c-0.2,0-0.3,0-0.4-0.1s-0.1-0.2-0.1-0.5v-2.6h-0.6	v-0.4h0.6v-1.3h0.5v1.3H90v0.4h-0.7V20.1L89.3,20.1L89.3,20.1z"/><path d="M90.4,16.2c0-0.1,0-0.2,0.1-0.3c0.1-0.1,0.2-0.1,0.3-0.1s0.2,0,0.3,0.1c0.1,0.1,0.1,0.2,0.1,0.3c0,0.1,0,0.2-0.1,0.3	c-0.1,0.1-0.2,0.1-0.3,0.1s-0.2,0-0.3-0.1S90.4,16.3,90.4,16.2L90.4,16.2L90.4,16.2z M90.6,17.2H91v3.5h-0.5V17.2z"/><path d="M91.8,18.9c0-0.5,0.2-0.9,0.5-1.3c0.4-0.4,0.8-0.5,1.3-0.5s0.9,0.2,1.3,0.5c0.4,0.4,0.5,0.8,0.5,1.3c0,0.5-0.2,0.9-0.5,1.3	c-0.3,0.4-0.8,0.5-1.3,0.5s-0.9-0.2-1.3-0.5S91.8,19.4,91.8,18.9L91.8,18.9L91.8,18.9z M94.9,18.9c0-0.4-0.1-0.7-0.4-1	c-0.3-0.3-0.6-0.4-1-0.4s-0.7,0.1-1,0.4c-0.3,0.3-0.4,0.6-0.4,1s0.1,0.7,0.4,1c0.3,0.3,0.6,0.4,1,0.4s0.7-0.1,1-0.4	C94.8,19.6,94.9,19.3,94.9,18.9L94.9,18.9z"/><path d="M96.2,17.2h0.5v0.6c0.4-0.5,0.8-0.7,1.3-0.7c0.3,0,0.5,0.1,0.7,0.2s0.4,0.3,0.4,0.5s0.1,0.6,0.1,1v1.8h-0.4V19	c0-0.4,0-0.7-0.1-0.8s-0.1-0.3-0.2-0.4c-0.1-0.1-0.2-0.2-0.3-0.2s-0.3-0.1-0.4-0.1s-0.3,0-0.5,0.1c-0.2,0.1-0.3,0.2-0.4,0.3	c-0.1,0.1-0.2,0.3-0.2,0.5s-0.1,0.5-0.1,0.9v1.3h-0.5L96.2,17.2L96.2,17.2L96.2,17.2z"/><path d="M102.6,20.1c0,0.1,0,0.2,0,0.2c0,0,0.1,0,0.2,0h0.3v0.4c-0.2,0-0.3,0-0.4,0c-0.2,0-0.3,0-0.4-0.1s-0.1-0.2-0.1-0.5v-2.6	h-0.6v-0.4h0.6v-1.3h0.5v1.3h0.7v0.4h-0.7V20.1L102.6,20.1L102.6,20.1z"/><path d="M103.8,16.2c0-0.1,0-0.2,0.1-0.3c0.1-0.1,0.2-0.1,0.3-0.1s0.2,0,0.3,0.1c0.1,0.1,0.1,0.2,0.1,0.3c0,0.1,0,0.2-0.1,0.3	c-0.1,0.1-0.2,0.1-0.3,0.1s-0.2,0-0.3-0.1S103.8,16.3,103.8,16.2L103.8,16.2L103.8,16.2z M103.9,17.2h0.5v3.5h-0.5V17.2z"/><path d="M105.3,17.2h0.4v0.6c0.3-0.5,0.7-0.7,1.2-0.7c0.3,0,0.5,0.1,0.7,0.2c0.2,0.1,0.3,0.3,0.4,0.6c0.1-0.3,0.3-0.5,0.5-0.6	c0.2-0.1,0.5-0.2,0.8-0.2s0.5,0.1,0.8,0.3c0.2,0.2,0.4,0.7,0.4,1.3v1.9H110v-1.9c0-0.3,0-0.5-0.1-0.7s-0.1-0.3-0.2-0.4	s-0.3-0.1-0.5-0.1s-0.4,0.1-0.6,0.2c-0.2,0.1-0.3,0.3-0.4,0.5c-0.1,0.2-0.1,0.5-0.1,1v1.3h-0.4v-1.8c0-0.4,0-0.6-0.1-0.8	c0-0.2-0.1-0.3-0.3-0.4c-0.1-0.1-0.3-0.2-0.5-0.2s-0.4,0.1-0.5,0.2s-0.3,0.3-0.4,0.5c-0.1,0.2-0.1,0.5-0.1,1v1.5h-0.4L105.3,17.2	L105.3,17.2L105.3,17.2z"/><path d="M114.3,19.5l0.4,0.2c-0.4,0.7-0.9,1-1.6,1c-0.5,0-1-0.2-1.3-0.5s-0.5-0.8-0.5-1.3s0.2-0.9,0.5-1.3s0.8-0.5,1.3-0.5	s0.9,0.2,1.3,0.5c0.3,0.3,0.5,0.8,0.5,1.4h-3.1c0,0.4,0.1,0.8,0.4,1s0.5,0.4,0.9,0.4C113.6,20.3,114,20.1,114.3,19.5L114.3,19.5	L114.3,19.5z M114.3,18.6c-0.1-0.3-0.2-0.6-0.5-0.8c-0.2-0.2-0.5-0.3-0.8-0.3c-0.6,0-1.1,0.3-1.3,1H114.3L114.3,18.6L114.3,18.6z"/><path d="M117.4,17.6l-0.3,0.3c-0.2-0.2-0.5-0.3-0.7-0.3c-0.1,0-0.3,0-0.4,0.1s-0.1,0.2-0.1,0.3s0,0.2,0.2,0.4	c0.1,0.1,0.3,0.2,0.5,0.3c0.3,0.1,0.5,0.3,0.6,0.4s0.2,0.3,0.2,0.6c0,0.3-0.1,0.5-0.3,0.7c-0.2,0.2-0.5,0.3-0.7,0.3	c-0.2,0-0.4,0-0.6-0.1c-0.2-0.1-0.3-0.2-0.5-0.4l0.3-0.3c0.2,0.3,0.5,0.4,0.7,0.4c0.2,0,0.3-0.1,0.5-0.2c0.1-0.1,0.2-0.2,0.2-0.4	s-0.1-0.3-0.2-0.4c-0.1-0.1-0.3-0.2-0.5-0.4c-0.3-0.1-0.5-0.3-0.6-0.4s-0.2-0.3-0.2-0.6s0.1-0.5,0.3-0.6c0.2-0.2,0.4-0.3,0.7-0.3	S117.1,17.2,117.4,17.6L117.4,17.6z"/><path d="M121.5,17.9l-0.4,0.2c-0.3-0.4-0.7-0.6-1.2-0.6c-0.4,0-0.8,0.1-1,0.4c-0.3,0.3-0.4,0.6-0.4,1s0.1,0.7,0.4,1	c0.3,0.3,0.6,0.4,1,0.4c0.5,0,0.9-0.2,1.2-0.6l0.4,0.2c-0.2,0.2-0.4,0.4-0.7,0.6c-0.3,0.1-0.6,0.2-1,0.2c-0.5,0-1-0.2-1.3-0.5	c-0.4-0.3-0.5-0.8-0.5-1.3s0.2-0.9,0.5-1.3c0.4-0.4,0.8-0.5,1.4-0.5c0.3,0,0.6,0.1,0.9,0.2C121.1,17.4,121.4,17.6,121.5,17.9	L121.5,17.9L121.5,17.9z"/><path d="M125.8,17.2v3.5h-0.4V20c-0.4,0.5-0.8,0.7-1.4,0.7s-0.9-0.2-1.3-0.5s-0.5-0.8-0.5-1.3c0-0.5,0.2-0.9,0.5-1.3	s0.8-0.5,1.3-0.5c0.6,0,1,0.2,1.4,0.7v-0.6H125.8C125.8,17.2,125.8,17.2,125.8,17.2z M125.4,18.9c0-0.4-0.1-0.7-0.4-1	c-0.3-0.3-0.6-0.4-1-0.4s-0.7,0.1-1,0.4c-0.3,0.3-0.4,0.6-0.4,1c0,0.4,0.1,0.7,0.4,1c0.3,0.3,0.6,0.4,1,0.4s0.7-0.1,1-0.4	S125.4,19.3,125.4,18.9L125.4,18.9z"/><path d="M126.7,15.9h0.4v4.8h-0.4V15.9z"/><path d="M131,19.5l0.4,0.2c-0.4,0.7-0.9,1-1.6,1c-0.5,0-1-0.2-1.3-0.5s-0.5-0.8-0.5-1.3s0.2-0.9,0.5-1.3s0.8-0.5,1.3-0.5	s0.9,0.2,1.3,0.5c0.3,0.3,0.5,0.8,0.5,1.4h-3.1c0,0.4,0.1,0.8,0.4,1s0.5,0.4,0.9,0.4C130.3,20.3,130.7,20.1,131,19.5L131,19.5	L131,19.5z M131,18.6c-0.1-0.3-0.2-0.6-0.5-0.8c-0.2-0.2-0.5-0.3-0.8-0.3c-0.6,0-1.1,0.3-1.3,1H131L131,18.6L131,18.6z"/><path d="M134.1,17.6l-0.3,0.3c-0.2-0.2-0.5-0.3-0.7-0.3c-0.1,0-0.3,0-0.4,0.1s-0.1,0.2-0.1,0.3s0,0.2,0.2,0.4	c0.1,0.1,0.3,0.2,0.5,0.3c0.3,0.1,0.5,0.3,0.6,0.4s0.2,0.3,0.2,0.6c0,0.3-0.1,0.5-0.3,0.7c-0.2,0.2-0.5,0.3-0.7,0.3	c-0.2,0-0.4,0-0.6-0.1c-0.2-0.1-0.3-0.2-0.5-0.4l0.3-0.3c0.2,0.3,0.5,0.4,0.7,0.4c0.2,0,0.3-0.1,0.5-0.2c0.1-0.1,0.2-0.2,0.2-0.4	s-0.1-0.3-0.2-0.4c-0.1-0.1-0.3-0.2-0.5-0.4c-0.3-0.1-0.5-0.3-0.6-0.4s-0.2-0.3-0.2-0.6s0.1-0.5,0.3-0.6c0.2-0.2,0.4-0.3,0.7-0.3	S133.8,17.2,134.1,17.6L134.1,17.6z"/><path d="M34.3,122.7c-0.4,0-0.8-0.2-1-0.5c-0.2-0.3-0.3-0.9-0.3-1.6s0.1-1.2,0.3-1.6c0.2-0.3,0.5-0.5,1-0.5s0.8,0.2,1,0.5	c0.2,0.4,0.4,0.9,0.4,1.5s-0.1,1.2-0.4,1.5C35.1,122.5,34.8,122.7,34.3,122.7L34.3,122.7L34.3,122.7z M34.4,118.9	c-0.3,0-0.5,0.2-0.7,0.4c-0.2,0.3-0.2,0.7-0.2,1.3c0,1.1,0.3,1.7,1,1.7c0.3,0,0.5-0.1,0.7-0.4s0.3-0.7,0.3-1.3s-0.1-1-0.3-1.3	S34.7,118.9,34.4,118.9L34.4,118.9L34.4,118.9z"/><path d="M62.9,119.9h-0.4c0-0.4,0.1-0.7,0.4-1s0.5-0.4,0.9-0.4s0.6,0.1,0.9,0.3c0.2,0.2,0.4,0.5,0.4,0.8c0,0.2-0.1,0.5-0.2,0.7	s-0.3,0.5-0.6,0.7l-1,1.1h1.8v0.4h-2.7l1.5-1.6c0.3-0.3,0.5-0.5,0.6-0.7c0.1-0.2,0.2-0.3,0.2-0.6s-0.1-0.4-0.2-0.6	c-0.2-0.2-0.4-0.2-0.6-0.2s-0.5,0.1-0.6,0.2C63.1,119.3,63,119.5,62.9,119.9L62.9,119.9L62.9,119.9z"/><path d="M66.8,122.7c-0.4,0-0.8-0.2-1-0.5c-0.2-0.3-0.3-0.9-0.3-1.6s0.1-1.2,0.3-1.6c0.2-0.3,0.5-0.5,1-0.5s0.8,0.2,1,0.5	c0.2,0.4,0.4,0.9,0.4,1.5s-0.1,1.2-0.4,1.5C67.6,122.5,67.2,122.7,66.8,122.7L66.8,122.7L66.8,122.7z M66.8,118.9	c-0.3,0-0.5,0.2-0.7,0.4c-0.2,0.3-0.2,0.7-0.2,1.3c0,1.1,0.3,1.7,1,1.7c0.3,0,0.5-0.1,0.7-0.4s0.3-0.7,0.3-1.3s-0.1-1-0.3-1.3	S67.1,118.9,66.8,118.9L66.8,118.9L66.8,118.9z"/><path d="M95.4,118.5L95.4,118.5l0.1,2.8H96v0.4h-0.5v0.9h-0.4v-0.9h-1.9L95.4,118.5L95.4,118.5L95.4,118.5z M95.1,121.3v-1.6	l-1.2,1.6H95.1z"/><path d="M97.6,122.7c-0.4,0-0.8-0.2-1-0.5c-0.2-0.3-0.3-0.9-0.3-1.6s0.1-1.2,0.3-1.6c0.2-0.3,0.5-0.5,1-0.5s0.8,0.2,1,0.5	c0.2,0.4,0.4,0.9,0.4,1.5s-0.1,1.2-0.4,1.5C98.4,122.5,98,122.7,97.6,122.7L97.6,122.7L97.6,122.7z M97.6,118.9	c-0.3,0-0.5,0.2-0.7,0.4c-0.2,0.3-0.2,0.7-0.2,1.3c0,1.1,0.3,1.7,1,1.7c0.3,0,0.5-0.1,0.7-0.4s0.3-0.7,0.3-1.3s-0.1-1-0.3-1.3	S97.9,118.9,97.6,118.9L97.6,118.9L97.6,118.9z"/><path d="M69.9,132.1l0.7-4.7h0.1l1.9,3.8l1.9-3.8h0.1l0.7,4.7h-0.5l-0.5-3.3l-1.6,3.3h-0.1l-1.7-3.4l-0.5,3.4H69.9L69.9,132.1	L69.9,132.1z"/><path d="M75.9,130.4c0-0.5,0.2-0.9,0.5-1.3c0.4-0.4,0.8-0.5,1.3-0.5s0.9,0.2,1.3,0.5c0.4,0.4,0.5,0.8,0.5,1.3s-0.2,0.9-0.5,1.3	c-0.3,0.4-0.8,0.5-1.3,0.5s-0.9-0.2-1.3-0.5S75.9,130.9,75.9,130.4L75.9,130.4L75.9,130.4z M79,130.4c0-0.4-0.1-0.7-0.4-1	s-0.6-0.4-1-0.4s-0.7,0.1-1,0.4c-0.3,0.3-0.4,0.6-0.4,1s0.1,0.7,0.4,1c0.3,0.3,0.6,0.4,1,0.4s0.7-0.1,1-0.4	C78.9,131.1,79,130.8,79,130.4L79,130.4L79,130.4z"/><path d="M83.7,127.3v4.8h-0.4v-0.6c-0.4,0.5-0.9,0.7-1.4,0.7s-0.9-0.2-1.3-0.5s-0.5-0.8-0.5-1.3s0.2-0.9,0.5-1.3	c0.4-0.4,0.8-0.5,1.3-0.5c0.6,0,1,0.2,1.4,0.7v-2L83.7,127.3L83.7,127.3L83.7,127.3z M83.3,130.4c0-0.4-0.1-0.7-0.4-1	s-0.6-0.4-1-0.4s-0.7,0.1-1,0.4s-0.4,0.6-0.4,1s0.1,0.7,0.4,1s0.6,0.4,1,0.4s0.7-0.1,1-0.4C83.2,131.1,83.3,130.8,83.3,130.4	L83.3,130.4L83.3,130.4z"/><path d="M87.7,131l0.4,0.2c-0.4,0.7-0.9,1-1.6,1c-0.5,0-1-0.2-1.3-0.5s-0.5-0.8-0.5-1.3s0.2-0.9,0.5-1.3s0.8-0.5,1.3-0.5	s0.9,0.2,1.3,0.5s0.5,0.8,0.5,1.4H85c0,0.4,0.1,0.8,0.4,1s0.5,0.4,0.9,0.4C86.9,131.8,87.4,131.5,87.7,131L87.7,131L87.7,131z M87.7,130c-0.1-0.3-0.2-0.6-0.5-0.8c-0.2-0.2-0.5-0.3-0.8-0.3c-0.6,0-1.1,0.4-1.3,1.1H87.7L87.7,130L87.7,130z"/><path d="M90.4,127.7c0-0.1,0-0.2,0.1-0.3c0.1-0.1,0.2-0.1,0.3-0.1s0.2,0,0.3,0.1s0.1,0.2,0.1,0.3s0,0.2-0.1,0.3	c-0.1,0.1-0.2,0.1-0.3,0.1s-0.2,0-0.3-0.1S90.4,127.8,90.4,127.7L90.4,127.7L90.4,127.7z M90.5,128.6H91v3.4h-0.5V128.6z"/><path d="M91.9,128.6h0.5v0.6c0.4-0.5,0.8-0.7,1.3-0.7c0.3,0,0.5,0.1,0.7,0.2s0.4,0.3,0.4,0.6s0.1,0.6,0.1,1v1.8h-0.4v-1.6	c0-0.4,0-0.7-0.1-0.8s-0.1-0.3-0.2-0.4s-0.2-0.2-0.3-0.2s-0.3-0.1-0.4-0.1s-0.3,0-0.5,0.1s-0.3,0.2-0.4,0.3	c-0.1,0.1-0.2,0.3-0.2,0.5s-0.1,0.5-0.1,0.9v1.3h-0.5L91.9,128.6L91.9,128.6L91.9,128.6z"/><path d="M99.3,127.3v4.8h-0.4v-0.6c-0.4,0.5-0.9,0.7-1.4,0.7s-0.9-0.2-1.3-0.5s-0.5-0.8-0.5-1.3s0.2-0.9,0.5-1.3	c0.4-0.4,0.8-0.5,1.3-0.5c0.6,0,1,0.2,1.4,0.7v-2L99.3,127.3L99.3,127.3L99.3,127.3z M98.9,130.4c0-0.4-0.1-0.7-0.4-1	s-0.6-0.4-1-0.4s-0.7,0.1-1,0.4s-0.4,0.6-0.4,1s0.1,0.7,0.4,1s0.6,0.4,1,0.4s0.7-0.1,1-0.4C98.7,131.1,98.9,130.8,98.9,130.4	L98.9,130.4L98.9,130.4z"/><path d="M103.2,131l0.4,0.2c-0.4,0.7-0.9,1-1.6,1c-0.5,0-1-0.2-1.3-0.5s-0.5-0.8-0.5-1.3s0.2-0.9,0.5-1.3s0.8-0.5,1.3-0.5	s0.9,0.2,1.3,0.5s0.5,0.8,0.5,1.4h-3.1c0,0.4,0.1,0.8,0.4,1s0.5,0.4,0.9,0.4C102.5,131.8,102.9,131.5,103.2,131L103.2,131L103.2,131	z M103.2,130c-0.1-0.3-0.2-0.6-0.5-0.8c-0.2-0.2-0.5-0.3-0.8-0.3c-0.6,0-1.1,0.4-1.3,1.1H103.2L103.2,130L103.2,130z"/><path d="M105.5,130.6l-1,1.4H104l1.3-1.8l-1.1-1.6h0.5l0.9,1.2l0.9-1.2h0.5l-1.1,1.6l1.3,1.8h-0.5L105.5,130.6L105.5,130.6	L105.5,130.6z"/><path d="M126.1,118.5l0.3,0.2l-1.1,1.6c0.1-0.1,0.3-0.1,0.4-0.1c0.3,0,0.5,0.1,0.8,0.3c0.2,0.2,0.3,0.5,0.3,0.8s-0.1,0.6-0.4,0.9	s-0.5,0.4-0.9,0.4s-0.6-0.1-0.9-0.4c-0.2-0.2-0.3-0.5-0.3-0.9c0-0.2,0-0.3,0.1-0.5s0.2-0.4,0.4-0.7L126.1,118.5z M126.5,121.5	c0-0.2-0.1-0.4-0.2-0.6c-0.2-0.2-0.4-0.2-0.6-0.2s-0.4,0.1-0.6,0.2c-0.2,0.2-0.2,0.4-0.2,0.6s0.1,0.4,0.2,0.6s0.4,0.2,0.6,0.2	s0.4-0.1,0.6-0.2C126.4,121.9,126.5,121.7,126.5,121.5z"/><path d="M128.6,122.7c-0.4,0-0.8-0.2-1-0.5c-0.2-0.3-0.3-0.9-0.3-1.6s0.1-1.2,0.3-1.6c0.2-0.3,0.5-0.5,1-0.5s0.8,0.2,1,0.5	c0.2,0.4,0.4,0.9,0.4,1.5s-0.1,1.2-0.4,1.5C129.3,122.5,129,122.7,128.6,122.7L128.6,122.7L128.6,122.7z M128.6,118.9	c-0.3,0-0.5,0.2-0.7,0.4c-0.2,0.3-0.2,0.7-0.2,1.3c0,1.1,0.3,1.7,1,1.7c0.3,0,0.5-0.1,0.7-0.4s0.3-0.7,0.3-1.3s-0.1-1-0.3-1.3	S128.9,118.9,128.6,118.9L128.6,118.9L128.6,118.9z"/><path d="M0.3,6.8V0H1v2.8c0.5-0.6,1.2-1,2-1c0.7,0,1.3,0.3,1.8,0.8s0.7,1.1,0.7,1.9S5.2,5.7,4.7,6.2S3.6,7,2.9,7	C2.1,7,1.5,6.7,1,5.9v0.9C1,6.8,0.3,6.8,0.3,6.8z M0.9,4.3c0,0.6,0.2,1.1,0.6,1.5s0.8,0.6,1.4,0.6s1-0.2,1.4-0.6	c0.4-0.4,0.6-0.9,0.6-1.4S4.7,3.4,4.3,3S3.4,2.4,2.9,2.4s-1,0.2-1.4,0.6S0.9,3.8,0.9,4.3L0.9,4.3L0.9,4.3z"/></svg>