<?xml version="1.0" encoding="UTF-8"?><svg id="b" xmlns="http://www.w3.org/2000/svg" xmlns:xlink="http://www.w3.org/1999/xlink" viewBox="0 0 435.8 117.92"><defs><style>.h,.i,.j,.k,.l{fill:none;}.m{fill:#fff;}.n{fill:#c44e52;}.o{fill:#dd8452;}.p{fill:#55a868;}.q{fill:#4c72b0;}.i,.j{stroke-width:.25px;}.i,.j,.k,.l{stroke:#000;}.j{stroke-linecap:square;}.k{stroke-dasharray:0 0 0 0 0 0 .87 1.43;}.k,.l{stroke-linejoin:round;stroke-width:.87px;}.r{clip-path:url(#g);}.s{clip-path:url(#e);}.t{clip-path:url(#f);}.u{clip-path:url(#d);}.l{stroke-linecap:round;}</style><clipPath id="d"><rect class="h" x="27.5" y="11.57" width="95.32" height="72.11"/></clipPath><clipPath id="e"><rect class="h" x="131.78" y="11.57" width="95.32" height="72.11"/></clipPath><clipPath id="f"><rect class="h" x="235.5" y="11.57" width="95.32" height="72.11"/></clipPath><clipPath id="g"><rect class="h" x="340.35" y="11.57" width="95.32" height="72.11"/></clipPath></defs><g id="c"><rect class="m" x="27.5" y="11.57" width="95.32" height="72.11"/><polyline class="l" points="34.31 74.32 61.54 72.49 75.16 71.57 88.77 70.66 102.39 69.74"/><polyline class="k" points="34.31 74.32 61.54 72.49 75.16 71.57 88.77 70.66 102.39 69.74 116.01 68.82"/><line class="j" x1="27.5" y1="83.68" x2="27.5" y2="11.57"/><line class="j" x1="27.5" y1="83.68" x2="122.81" y2="83.68"/><g class="u"><path class="q" d="m34.31,84.76c.38,0,.75-.15,1.02-.42s.42-.64.42-1.02-.15-.75-.42-1.02c-.27-.27-.64-.42-1.02-.42s-.75.15-1.02.42-.42.64-.42,1.02.15.75.42,1.02c.27.27.64.42,1.02.42"/><path class="q" d="m31.16,84.4c.38,0,.75-.15,1.02-.42s.42-.64.42-1.02-.15-.75-.42-1.02c-.27-.27-.64-.42-1.02-.42s-.75.15-1.02.42-.42.64-.42,1.02.15.75.42,1.02c.27.27.64.42,1.02.42"/><path class="q" d="m34.31,81.88c.38,0,.75-.15,1.02-.42s.42-.64.42-1.02-.15-.75-.42-1.02c-.27-.27-.64-.42-1.02-.42s-.75.15-1.02.42-.42.64-.42,1.02.15.75.42,1.02c.27.27.64.42,1.02.42"/><path class="q" d="m34.31,65.29c.38,0,.75-.15,1.02-.43.27-.27.42-.64.42-1.02s-.15-.75-.42-1.02c-.27-.27-.64-.42-1.02-.42s-.75.16-1.02.42c-.27.27-.42.64-.42,1.02s.15.75.42,1.02c.27.27.64.43,1.02.43"/><path class="q" d="m34.31,60.97c.38,0,.75-.15,1.02-.42s.42-.64.42-1.03-.15-.75-.42-1.02c-.27-.27-.64-.42-1.02-.42s-.75.15-1.02.42-.42.64-.42,1.02.15.75.42,1.03c.27.27.64.42,1.02.42"/><path class="q" d="m47.92,84.76c.38,0,.75-.15,1.02-.42s.42-.64.42-1.02-.15-.75-.42-1.02-.64-.42-1.02-.42-.75.15-1.02.42-.42.64-.42,1.02.15.75.42,1.02.64.42,1.02.42"/><path class="q" d="m44.94,84.04c.38,0,.75-.15,1.02-.42s.42-.64.42-1.02-.15-.75-.42-1.02c-.27-.27-.64-.42-1.02-.42s-.75.15-1.02.42-.42.64-.42,1.02.15.75.42,1.02.64.42,1.02.42"/><path class="q" d="m47.92,77.19c.38,0,.75-.15,1.02-.42s.42-.64.42-1.02-.15-.75-.42-1.02-.64-.42-1.02-.42-.75.15-1.02.42-.42.64-.42,1.02.15.75.42,1.02c.27.27.64.42,1.02.42"/><path class="q" d="m44.72,77.19c.38,0,.75-.15,1.02-.42s.42-.64.42-1.02-.15-.75-.42-1.02c-.27-.27-.64-.42-1.02-.42s-.75.15-1.02.42-.42.64-.42,1.02.15.75.42,1.02c.27.27.64.42,1.02.42"/><path class="q" d="m47.92,67.82c.38,0,.75-.15,1.02-.42s.42-.64.42-1.02-.15-.75-.42-1.02-.64-.42-1.02-.42-.75.15-1.02.42-.42.64-.42,1.02.15.75.42,1.02c.27.27.64.42,1.02.42"/><path class="q" d="m61.54,84.76c.38,0,.75-.15,1.02-.42s.42-.64.42-1.02-.15-.75-.42-1.02-.64-.42-1.02-.42-.75.15-1.02.42-.43.64-.43,1.02.16.75.43,1.02.64.42,1.02.42"/><path class="q" d="m60.24,82.96c.38,0,.75-.15,1.02-.42s.43-.64.43-1.02-.16-.75-.43-1.02-.64-.42-1.02-.42-.75.15-1.02.42-.42.64-.42,1.02.15.75.42,1.02.64.42,1.02.42"/><path class="q" d="m61.54,75.39c.38,0,.75-.15,1.02-.43.27-.27.42-.64.42-1.02s-.15-.75-.42-1.03c-.27-.27-.64-.42-1.02-.42s-.75.16-1.02.42c-.27.27-.43.64-.43,1.03s.16.75.43,1.02.64.43,1.02.43"/><path class="q" d="m61.54,69.26c.38,0,.75-.16,1.02-.42.27-.27.42-.64.42-1.02s-.15-.75-.42-1.02-.64-.42-1.02-.42-.75.15-1.02.42-.43.64-.43,1.02.16.75.43,1.02.64.42,1.02.42"/><path class="q" d="m61.54,63.49c.38,0,.75-.15,1.02-.42s.42-.64.42-1.02-.15-.75-.42-1.03c-.27-.27-.64-.42-1.02-.42s-.75.15-1.02.42-.43.64-.43,1.03.16.75.43,1.02.64.42,1.02.42"/><path class="q" d="m75.16,75.03c.38,0,.75-.15,1.02-.42s.42-.64.42-1.02-.15-.75-.42-1.02-.64-.43-1.02-.43-.75.15-1.02.43c-.27.27-.42.64-.42,1.02s.15.75.42,1.02.64.42,1.02.42"/><path class="q" d="m75.16,70.34c.38,0,.75-.16,1.02-.43.27-.27.42-.64.42-1.02s-.15-.75-.42-1.02-.64-.42-1.02-.42-.75.16-1.02.42c-.27.27-.42.64-.42,1.02s.15.75.42,1.02.64.43,1.02.43"/><path class="q" d="m75.16,67.45c.38,0,.75-.15,1.02-.42s.42-.64.42-1.02-.15-.75-.42-1.02-.64-.42-1.02-.42-.75.15-1.02.42-.42.64-.42,1.02.15.75.42,1.02.64.42,1.02.42"/><path class="q" d="m75.16,60.6c.38,0,.75-.15,1.02-.42s.42-.64.42-1.02-.15-.75-.42-1.02-.64-.42-1.02-.42-.75.15-1.02.42-.42.64-.42,1.02.15.75.42,1.02.64.42,1.02.42"/><path class="q" d="m75.16,47.99c.38,0,.75-.15,1.02-.42s.42-.64.42-1.02-.15-.75-.42-1.02-.64-.42-1.02-.42-.75.15-1.02.42-.42.64-.42,1.02.15.75.42,1.02.64.42,1.02.42"/><path class="q" d="m88.77,84.04c.38,0,.75-.15,1.02-.42s.42-.64.42-1.02-.15-.75-.42-1.02-.64-.42-1.02-.42-.75.15-1.02.42-.42.64-.42,1.02.15.75.42,1.02.64.42,1.02.42"/><path class="q" d="m87.47,82.24c.38,0,.75-.15,1.02-.42s.42-.64.42-1.02-.15-.75-.42-1.02-.64-.42-1.02-.42-.75.15-1.02.42-.42.64-.42,1.02.15.75.42,1.02.64.42,1.02.42"/><path class="q" d="m88.77,76.47c.38,0,.75-.15,1.02-.42s.42-.64.42-1.02-.15-.75-.42-1.03c-.27-.27-.64-.42-1.02-.42s-.75.15-1.02.42-.42.64-.42,1.03.15.75.42,1.02.64.42,1.02.42"/><path class="q" d="m88.77,69.26c.38,0,.75-.16,1.02-.42.27-.27.42-.64.42-1.02s-.15-.75-.42-1.02-.64-.42-1.02-.42-.75.15-1.02.42-.42.64-.42,1.02.15.75.42,1.02.64.42,1.02.42"/><path class="q" d="m88.77,58.08c.38,0,.75-.15,1.02-.42s.42-.64.42-1.02-.15-.75-.42-1.02-.64-.42-1.02-.42-.75.15-1.02.42-.42.64-.42,1.02.15.75.42,1.02.64.42,1.02.42"/><path class="q" d="m102.39,84.4c.38,0,.75-.15,1.02-.42s.42-.64.42-1.02-.15-.75-.42-1.02-.64-.42-1.02-.42-.75.15-1.02.42-.42.64-.42,1.02.15.75.42,1.02.64.42,1.02.42"/><path class="q" d="m102.39,76.11c.38,0,.75-.15,1.02-.42s.42-.64.42-1.02-.15-.75-.42-1.02-.64-.42-1.02-.42-.75.15-1.02.42-.42.64-.42,1.02.15.75.42,1.02.64.42,1.02.42"/><path class="q" d="m100.21,74.67c.38,0,.75-.15,1.02-.42s.43-.64.43-1.02-.16-.75-.43-1.02-.64-.42-1.02-.42-.75.15-1.02.42-.42.64-.42,1.02.16.75.42,1.02c.27.27.64.42,1.02.42"/><path class="q" d="m102.39,67.82c.38,0,.75-.15,1.02-.42s.42-.64.42-1.02-.15-.75-.42-1.02-.64-.42-1.02-.42-.75.15-1.02.42-.42.64-.42,1.02.15.75.42,1.02.64.42,1.02.42"/><path class="q" d="m102.39,65.65c.38,0,.75-.15,1.02-.42s.42-.64.42-1.02-.15-.75-.42-1.03c-.27-.27-.64-.42-1.02-.42s-.75.15-1.02.42-.42.64-.42,1.03.15.75.42,1.02.64.42,1.02.42"/><path class="q" d="m116.01,45.1c.38,0,.75-.15,1.02-.42s.42-.64.42-1.02-.15-.75-.42-1.02-.64-.42-1.02-.42-.75.16-1.02.42c-.27.27-.42.64-.42,1.02s.15.75.42,1.02.64.42,1.02.42"/><path class="q" d="m116.01,39.69c.38,0,.75-.15,1.02-.42s.42-.64.42-1.02-.15-.75-.42-1.02-.64-.42-1.02-.42-.75.15-1.02.42-.42.64-.42,1.02.15.75.42,1.02.64.42,1.02.42"/><path class="q" d="m116.01,33.56c.38,0,.75-.15,1.02-.42s.42-.64.42-1.02-.15-.75-.42-1.02-.64-.42-1.02-.42-.75.15-1.02.42-.42.64-.42,1.02.15.75.42,1.02.64.42,1.02.42"/><path class="q" d="m112.81,33.56c.38,0,.75-.15,1.02-.42s.42-.64.42-1.02-.16-.75-.42-1.02c-.27-.27-.64-.42-1.02-.42s-.75.15-1.02.42c-.27.27-.42.64-.42,1.02s.15.75.42,1.02c.27.27.64.42,1.02.42"/><path class="q" d="m116.01,30.32c.38,0,.75-.15,1.02-.42s.42-.64.42-1.02-.15-.75-.42-1.02-.64-.42-1.02-.42-.75.15-1.02.42-.42.64-.42,1.02.15.75.42,1.02.64.42,1.02.42"/></g><rect class="m" x="131.78" y="11.57" width="95.32" height="72.11"/><polyline class="l" points="138.59 77.18 165.82 74.77 179.44 73.57 193.06 72.36 206.68 71.16"/><polyline class="k" points="138.59 77.18 165.82 74.77 179.44 73.57 193.06 72.36 220.29 69.95"/><line class="j" x1="131.78" y1="83.68" x2="131.78" y2="11.57"/><line class="j" x1="131.78" y1="83.68" x2="227.1" y2="83.68"/><g class="s"><path class="o" d="m138.59,85.12c.38,0,.75-.15,1.02-.42s.42-.64.42-1.02-.15-.75-.42-1.02-.64-.42-1.02-.42-.75.15-1.02.42-.42.64-.42,1.02.15.75.42,1.02.64.42,1.02.42"/><path class="o" d="m135.59,84.4c.38,0,.75-.15,1.02-.42s.42-.64.42-1.02-.15-.75-.42-1.02-.64-.42-1.02-.42-.75.15-1.02.42-.42.64-.42,1.02.15.75.42,1.02.64.42,1.02.42"/><path class="o" d="m141.32,84.04c.38,0,.75-.15,1.02-.42s.42-.64.42-1.02-.15-.75-.42-1.02-.64-.42-1.02-.42-.75.15-1.02.42-.42.64-.42,1.02.15.75.42,1.02.64.42,1.02.42"/><path class="o" d="m138.59,72.14c.38,0,.75-.15,1.02-.42s.42-.64.42-1.02-.15-.75-.42-1.02-.64-.42-1.02-.42-.75.15-1.02.42-.42.64-.42,1.02.15.75.42,1.02.64.42,1.02.42"/><path class="o" d="m138.59,62.05c.38,0,.75-.15,1.02-.42s.42-.64.42-1.03-.15-.75-.42-1.02-.64-.42-1.02-.42-.75.15-1.02.42-.42.64-.42,1.02.15.75.42,1.03c.27.27.64.42,1.02.42"/><path class="o" d="m152.21,85.12c.38,0,.75-.15,1.02-.42s.42-.64.42-1.02-.15-.75-.42-1.02-.64-.42-1.02-.42-.75.15-1.02.42-.42.64-.42,1.02.15.75.42,1.02.64.42,1.02.42"/><path class="o" d="m152.21,82.24c.38,0,.75-.15,1.02-.42s.42-.64.42-1.02-.15-.75-.42-1.02-.64-.42-1.02-.42-.75.15-1.02.42-.42.64-.42,1.02.15.75.42,1.02.64.42,1.02.42"/><path class="o" d="m149.48,81.16c.38,0,.75-.15,1.02-.42s.42-.64.42-1.02-.15-.75-.42-1.02-.64-.42-1.02-.42-.75.15-1.02.42-.42.64-.42,1.02.15.75.42,1.02.64.42,1.02.42"/><path class="o" d="m152.21,79.71c.38,0,.75-.15,1.02-.42s.42-.64.42-1.02-.15-.75-.42-1.02-.64-.42-1.02-.42-.75.15-1.02.42-.42.64-.42,1.02.15.75.42,1.02.64.42,1.02.42"/><path class="o" d="m149.48,78.63c.38,0,.75-.15,1.02-.42s.42-.64.42-1.02-.15-.75-.42-1.02-.64-.42-1.02-.42-.75.15-1.02.42-.42.64-.42,1.02.15.75.42,1.02.64.42,1.02.42"/><path class="o" d="m165.82,85.12c.38,0,.75-.15,1.02-.42s.43-.64.43-1.02-.15-.75-.43-1.02c-.27-.27-.64-.42-1.02-.42s-.75.15-1.02.42-.42.64-.42,1.02.15.75.42,1.02.64.42,1.02.42"/><path class="o" d="m162.62,85.12c.38,0,.75-.15,1.02-.42s.42-.64.42-1.02-.15-.75-.42-1.02-.64-.42-1.02-.42-.75.15-1.02.42-.42.64-.42,1.02.15.75.42,1.02.64.42,1.02.42"/><path class="o" d="m165.82,81.88c.38,0,.75-.15,1.02-.42s.43-.64.43-1.02-.15-.75-.43-1.02c-.27-.27-.64-.42-1.02-.42s-.75.15-1.02.42-.42.64-.42,1.02.15.75.42,1.02.64.42,1.02.42"/><path class="o" d="m165.82,77.55c.38,0,.75-.15,1.02-.42s.43-.64.43-1.02-.15-.75-.43-1.02c-.27-.27-.64-.42-1.02-.42s-.75.15-1.02.42-.42.64-.42,1.02.15.75.42,1.02.64.42,1.02.42"/><path class="o" d="m165.82,61.69c.38,0,.75-.15,1.02-.42s.43-.64.43-1.02-.15-.75-.43-1.02c-.27-.27-.64-.42-1.02-.42s-.75.15-1.02.42-.42.64-.42,1.02.15.75.42,1.02.64.42,1.02.42"/><path class="o" d="m179.44,78.99c.38,0,.75-.15,1.02-.42s.42-.64.42-1.02-.15-.75-.42-1.02-.64-.42-1.02-.42-.75.15-1.02.42-.42.64-.42,1.02.15.75.42,1.02.64.42,1.02.42"/><path class="o" d="m179.44,76.83c.38,0,.75-.15,1.02-.42s.42-.64.42-1.02-.15-.75-.42-1.03c-.27-.27-.64-.42-1.02-.42s-.75.15-1.02.42-.42.64-.42,1.03.15.75.42,1.02.64.42,1.02.42"/><path class="o" d="m179.44,67.82c.38,0,.75-.15,1.02-.42s.42-.64.42-1.02-.15-.75-.42-1.02-.64-.42-1.02-.42-.75.15-1.02.42-.42.64-.42,1.02.15.75.42,1.02.64.42,1.02.42"/><path class="o" d="m179.44,55.19c.38,0,.75-.15,1.02-.42s.42-.64.42-1.02-.15-.75-.42-1.02-.64-.42-1.02-.42-.75.16-1.02.42c-.27.27-.42.64-.42,1.02s.15.75.42,1.02.64.42,1.02.42"/><path class="o" d="m179.44,45.1c.38,0,.75-.15,1.02-.42s.42-.64.42-1.02-.15-.75-.42-1.02-.64-.42-1.02-.42-.75.16-1.02.42c-.27.27-.42.64-.42,1.02s.15.75.42,1.02.64.42,1.02.42"/><path class="o" d="m193.06,85.12c.38,0,.75-.15,1.02-.42s.42-.64.42-1.02-.15-.75-.42-1.02-.64-.42-1.02-.42-.75.15-1.02.42-.42.64-.42,1.02.15.75.42,1.02.64.42,1.02.42"/><path class="o" d="m189.91,84.76c.38,0,.75-.15,1.02-.42s.42-.64.42-1.02-.15-.75-.42-1.02-.64-.42-1.02-.42-.75.15-1.02.42-.42.64-.42,1.02.15.75.42,1.02.64.42,1.02.42"/><path class="o" d="m193.06,79.36c.38,0,.75-.16,1.02-.42.27-.27.42-.64.42-1.02s-.15-.75-.42-1.02-.64-.42-1.02-.42-.75.15-1.02.42-.42.64-.42,1.02.15.75.42,1.02.64.42,1.02.42"/><path class="o" d="m193.06,77.19c.38,0,.75-.15,1.02-.42s.42-.64.42-1.02-.15-.75-.42-1.02-.64-.42-1.02-.42-.75.15-1.02.42-.42.64-.42,1.02.15.75.42,1.02.64.42,1.02.42"/><path class="o" d="m193.06,62.05c.38,0,.75-.15,1.02-.42s.42-.64.42-1.03-.15-.75-.42-1.02-.64-.42-1.02-.42-.75.15-1.02.42-.42.64-.42,1.02.15.75.42,1.03c.27.27.64.42,1.02.42"/><path class="o" d="m206.68,84.4c.38,0,.75-.15,1.02-.42s.42-.64.42-1.02-.15-.75-.42-1.02-.64-.42-1.02-.42-.75.15-1.02.42-.42.64-.42,1.02.15.75.42,1.02.64.42,1.02.42"/><path class="o" d="m206.68,77.19c.38,0,.75-.15,1.02-.42s.42-.64.42-1.02-.15-.75-.42-1.02-.64-.42-1.02-.42-.75.15-1.02.42-.42.64-.42,1.02.15.75.42,1.02.64.42,1.02.42"/><path class="o" d="m206.68,75.03c.38,0,.75-.15,1.02-.42s.42-.64.42-1.02-.15-.75-.42-1.02-.64-.43-1.02-.43-.75.15-1.02.43c-.27.27-.42.64-.42,1.02s.15.75.42,1.02.64.42,1.02.42"/><path class="o" d="m203.95,73.95c.38,0,.75-.15,1.02-.42s.42-.64.42-1.02-.15-.75-.42-1.02-.64-.43-1.02-.43-.75.15-1.02.43c-.27.27-.42.64-.42,1.02s.15.75.42,1.02.64.42,1.02.42"/><path class="o" d="m206.68,59.52c.38,0,.75-.15,1.02-.42s.42-.64.42-1.02-.15-.75-.42-1.02-.64-.42-1.02-.42-.75.15-1.02.42-.42.64-.42,1.02.15.75.42,1.02.64.42,1.02.42"/><path class="o" d="m220.29,56.28c.38,0,.75-.15,1.02-.42s.42-.64.42-1.02-.16-.75-.42-1.02c-.27-.27-.64-.42-1.02-.42s-.75.15-1.02.42-.42.64-.42,1.02.15.75.42,1.02.64.42,1.02.42"/><path class="o" d="m220.29,53.75c.38,0,.75-.15,1.02-.42s.42-.64.42-1.03-.16-.75-.42-1.02c-.27-.27-.64-.42-1.02-.42s-.75.15-1.02.42-.42.64-.42,1.02.15.75.42,1.03c.27.27.64.42,1.02.42"/><path class="o" d="m220.29,48.35c.38,0,.75-.15,1.02-.42s.42-.64.42-1.02-.16-.75-.42-1.02c-.27-.27-.64-.42-1.02-.42s-.75.15-1.02.42-.42.64-.42,1.02.15.75.42,1.02.64.42,1.02.42"/><path class="o" d="m220.29,43.66c.38,0,.75-.15,1.02-.42s.42-.64.42-1.02-.16-.75-.42-1.02c-.27-.27-.64-.42-1.02-.42s-.75.15-1.02.42-.42.64-.42,1.02.15.75.42,1.02.64.42,1.02.42"/><path class="o" d="m220.29,28.15c.38,0,.75-.15,1.02-.42s.42-.64.42-1.02-.16-.75-.42-1.02c-.27-.27-.64-.42-1.02-.42s-.75.15-1.02.42-.42.64-.42,1.02.15.75.42,1.02.64.42,1.02.42"/></g><rect class="m" x="235.5" y="11.57" width="95.32" height="72.11"/><polyline class="l" points="242.31 81.21 255.92 78.86 269.54 76.52 283.16 74.18 296.77 71.83 310.39 69.49"/><polyline class="k" points="242.31 81.21 255.92 78.86 269.54 76.52 283.16 74.18 296.77 71.83 324.01 67.15"/><line class="j" x1="235.5" y1="83.68" x2="235.5" y2="11.57"/><line class="j" x1="235.5" y1="83.68" x2="330.82" y2="83.68"/><g class="t"><path class="p" d="m242.31,85.12c.38,0,.75-.15,1.02-.42s.42-.64.42-1.02-.15-.75-.42-1.02c-.27-.27-.64-.42-1.02-.42s-.75.15-1.02.42-.42.64-.42,1.02.15.75.42,1.02c.27.27.64.42,1.02.42"/><path class="p" d="m239.58,84.04c.38,0,.75-.15,1.02-.42s.42-.64.42-1.02-.15-.75-.42-1.02c-.27-.27-.64-.42-1.02-.42s-.75.15-1.02.42-.42.64-.42,1.02.15.75.42,1.02.64.42,1.02.42"/><path class="p" d="m244.6,83.68c.38,0,.75-.15,1.02-.42s.42-.64.42-1.02-.15-.75-.42-1.02c-.27-.27-.64-.42-1.02-.42s-.75.15-1.02.42-.42.64-.42,1.02.15.75.42,1.02.64.42,1.02.42"/><path class="p" d="m242.31,81.88c.38,0,.75-.15,1.02-.42s.42-.64.42-1.02-.15-.75-.42-1.02c-.27-.27-.64-.42-1.02-.42s-.75.15-1.02.42-.42.64-.42,1.02.15.75.42,1.02c.27.27.64.42,1.02.42"/><path class="p" d="m239.31,81.16c.39,0,.75-.15,1.02-.42s.42-.64.42-1.02-.15-.75-.42-1.02c-.27-.27-.64-.42-1.02-.42s-.75.15-1.02.42-.42.64-.42,1.02.15.75.42,1.02.64.42,1.02.42"/><path class="p" d="m255.93,85.12c.38,0,.75-.15,1.02-.42s.42-.64.42-1.02-.15-.75-.42-1.02c-.27-.27-.64-.42-1.02-.42s-.75.15-1.02.42-.42.64-.42,1.02.15.75.42,1.02c.27.27.64.42,1.02.42"/><path class="p" d="m252.72,85.12c.38,0,.75-.15,1.02-.42s.42-.64.42-1.02-.15-.75-.42-1.02c-.27-.27-.64-.42-1.02-.42s-.75.15-1.02.42-.42.64-.42,1.02.15.75.42,1.02c.27.27.64.42,1.02.42"/><path class="p" d="m259.12,85.12c.38,0,.75-.15,1.02-.42s.42-.64.42-1.02-.15-.75-.42-1.02c-.27-.27-.64-.42-1.02-.42s-.75.15-1.02.42-.42.64-.42,1.02.15.75.42,1.02.64.42,1.02.42"/><path class="p" d="m255.93,82.24c.38,0,.75-.15,1.02-.42s.42-.64.42-1.02-.15-.75-.42-1.02c-.27-.27-.64-.42-1.02-.42s-.75.15-1.02.42-.42.64-.42,1.02.15.75.42,1.02c.27.27.64.42,1.02.42"/><path class="p" d="m254.37,80.44c.39,0,.75-.15,1.02-.43.27-.27.42-.64.42-1.02s-.15-.75-.42-1.03c-.27-.27-.64-.42-1.02-.42s-.75.16-1.02.42c-.27.27-.42.64-.42,1.03s.15.75.42,1.02c.27.27.64.43,1.02.43"/><path class="p" d="m269.54,83.32c.38,0,.75-.15,1.02-.42s.42-.64.42-1.02-.15-.75-.42-1.02c-.27-.27-.64-.42-1.02-.42s-.75.15-1.02.42-.42.64-.42,1.02.15.75.42,1.02c.27.27.64.42,1.02.42"/><path class="p" d="m269.54,77.91c.38,0,.75-.15,1.02-.42s.42-.64.42-1.02-.15-.75-.42-1.02c-.27-.27-.64-.42-1.02-.42s-.75.15-1.02.42-.42.64-.42,1.02.15.75.42,1.02c.27.27.64.42,1.02.42"/><path class="p" d="m266.39,77.55c.38,0,.75-.15,1.02-.42s.42-.64.42-1.02-.15-.75-.42-1.02c-.27-.27-.64-.42-1.02-.42s-.75.15-1.02.42-.42.64-.42,1.02.15.75.42,1.02c.27.27.64.42,1.02.42"/><path class="p" d="m271.83,76.47c.38,0,.75-.15,1.02-.42s.42-.64.42-1.02-.15-.75-.42-1.03c-.27-.27-.64-.42-1.02-.42s-.75.15-1.02.42-.42.64-.42,1.03.15.75.42,1.02c.27.27.64.42,1.02.42"/><path class="p" d="m268.83,75.75c.38,0,.75-.15,1.02-.42s.42-.64.42-1.02-.15-.75-.42-1.02c-.27-.27-.64-.42-1.02-.42s-.75.15-1.02.42-.42.64-.42,1.02.15.75.42,1.02c.27.27.64.42,1.02.42"/><path class="p" d="m283.16,84.76c.38,0,.75-.15,1.02-.42s.42-.64.42-1.02-.15-.75-.42-1.02c-.27-.27-.64-.42-1.02-.42s-.75.15-1.02.42-.42.64-.42,1.02.15.75.42,1.02c.27.27.64.42,1.02.42"/><path class="p" d="m280.43,83.68c.38,0,.75-.15,1.02-.42s.42-.64.42-1.02-.15-.75-.42-1.02c-.27-.27-.64-.42-1.02-.42s-.75.15-1.02.42-.42.64-.42,1.02.15.75.42,1.02c.27.27.64.42,1.02.42"/><path class="p" d="m283.16,80.8c.38,0,.75-.15,1.02-.42s.42-.64.42-1.02-.15-.75-.42-1.02c-.27-.27-.64-.42-1.02-.42s-.75.15-1.02.42-.42.64-.42,1.02.15.75.42,1.02c.27.27.64.42,1.02.42"/><path class="p" d="m283.16,77.91c.38,0,.75-.15,1.02-.42s.42-.64.42-1.02-.15-.75-.42-1.02c-.27-.27-.64-.42-1.02-.42s-.75.15-1.02.42-.42.64-.42,1.02.15.75.42,1.02c.27.27.64.42,1.02.42"/><path class="p" d="m283.16,75.39c.38,0,.75-.15,1.02-.43.27-.27.42-.64.42-1.02s-.15-.75-.42-1.03c-.27-.27-.64-.42-1.02-.42s-.75.16-1.02.42c-.27.27-.42.64-.42,1.03s.15.75.42,1.02c.27.27.64.43,1.02.43"/><path class="p" d="m296.77,80.8c.39,0,.75-.15,1.02-.42s.42-.64.42-1.02-.15-.75-.42-1.02c-.27-.27-.64-.42-1.02-.42s-.75.15-1.02.42-.42.64-.42,1.02.16.75.42,1.02c.27.27.64.42,1.02.42"/><path class="p" d="m293.57,80.8c.38,0,.75-.15,1.02-.42s.42-.64.42-1.02-.15-.75-.42-1.02-.64-.42-1.02-.42-.75.15-1.02.42-.42.64-.42,1.02.15.75.42,1.02c.27.27.64.42,1.02.42"/><path class="p" d="m296.77,77.19c.39,0,.75-.15,1.02-.42s.42-.64.42-1.02-.15-.75-.42-1.02c-.27-.27-.64-.42-1.02-.42s-.75.15-1.02.42-.42.64-.42,1.02.16.75.42,1.02c.27.27.64.42,1.02.42"/><path class="p" d="m293.62,76.83c.38,0,.75-.15,1.02-.42s.42-.64.42-1.02-.15-.75-.42-1.03c-.27-.27-.64-.42-1.02-.42s-.75.15-1.02.42-.42.64-.42,1.03.15.75.42,1.02c.27.27.64.42,1.02.42"/><path class="p" d="m299.06,75.75c.38,0,.75-.15,1.02-.42s.42-.64.42-1.02-.15-.75-.42-1.02c-.27-.27-.64-.42-1.02-.42s-.75.15-1.02.42-.42.64-.42,1.02.15.75.42,1.02c.27.27.64.42,1.02.42"/><path class="p" d="m310.39,83.68c.38,0,.75-.15,1.02-.42s.42-.64.42-1.02-.15-.75-.42-1.02c-.27-.27-.64-.42-1.02-.42s-.75.15-1.02.42-.42.64-.42,1.02.15.75.42,1.02c.27.27.64.42,1.02.42"/><path class="p" d="m310.39,81.52c.38,0,.75-.15,1.02-.42s.42-.64.42-1.02-.15-.75-.42-1.03-.64-.42-1.02-.42-.75.15-1.02.42-.42.64-.42,1.03.15.75.42,1.02c.27.27.64.42,1.02.42"/><path class="p" d="m307.39,80.8c.38,0,.75-.15,1.02-.42s.42-.64.42-1.02-.15-.75-.42-1.02-.64-.42-1.02-.42-.75.15-1.02.42-.42.64-.42,1.02.15.75.42,1.02.64.42,1.02.42"/><path class="p" d="m310.39,77.19c.38,0,.75-.15,1.02-.42s.42-.64.42-1.02-.15-.75-.42-1.02c-.27-.27-.64-.42-1.02-.42s-.75.15-1.02.42-.42.64-.42,1.02.15.75.42,1.02c.27.27.64.42,1.02.42"/><path class="p" d="m310.39,68.54c.38,0,.75-.15,1.02-.42s.42-.64.42-1.02-.15-.75-.42-1.02c-.27-.27-.64-.42-1.02-.42s-.75.15-1.02.42-.42.64-.42,1.02.15.75.42,1.02c.27.27.64.42,1.02.42"/><path class="p" d="m324.01,77.19c.38,0,.75-.15,1.02-.42s.42-.64.42-1.02-.15-.75-.42-1.02c-.27-.27-.64-.42-1.02-.42s-.75.15-1.02.42-.42.64-.42,1.02.15.75.42,1.02c.27.27.64.42,1.02.42"/><path class="p" d="m324.01,64.93c.38,0,.75-.15,1.02-.42s.42-.64.42-1.02-.15-.75-.42-1.02c-.27-.27-.64-.42-1.02-.42s-.75.15-1.02.42-.42.64-.42,1.02.15.75.42,1.02c.27.27.64.42,1.02.42"/><path class="p" d="m324.01,60.97c.38,0,.75-.15,1.02-.42s.42-.64.42-1.03-.15-.75-.42-1.02c-.27-.27-.64-.42-1.02-.42s-.75.15-1.02.42-.42.64-.42,1.02.15.75.42,1.03c.27.27.64.42,1.02.42"/><path class="p" d="m321.01,60.25c.38,0,.75-.16,1.02-.43.27-.27.42-.64.42-1.02s-.15-.75-.42-1.02c-.27-.27-.64-.42-1.02-.42s-.75.16-1.02.42c-.27.27-.42.64-.42,1.02s.15.75.42,1.02c.27.27.64.43,1.02.43"/><path class="p" d="m324.01,47.99c.38,0,.75-.15,1.02-.42s.42-.64.42-1.02-.15-.75-.42-1.02c-.27-.27-.64-.42-1.02-.42s-.75.15-1.02.42-.42.64-.42,1.02.15.75.42,1.02c.27.27.64.42,1.02.42"/></g><rect class="m" x="340.35" y="11.57" width="95.32" height="72.11"/><line class="l" x1="347.16" y1="81.61" x2="415.24" y2="76.2"/><polyline class="k" points="347.16 81.61 415.24 76.2 428.86 75.12"/><line class="j" x1="340.35" y1="83.68" x2="340.35" y2="11.57"/><line class="j" x1="340.35" y1="83.68" x2="435.67" y2="83.68"/><g class="r"><path class="n" d="m347.16,84.76c.38,0,.75-.15,1.02-.42s.42-.64.42-1.02-.15-.75-.42-1.02c-.27-.27-.64-.42-1.02-.42s-.75.15-1.02.42-.42.64-.42,1.02.15.75.42,1.02c.27.27.64.42,1.02.42"/><path class="n" d="m343.96,84.76c.39,0,.75-.15,1.02-.42s.42-.64.42-1.02-.15-.75-.42-1.02c-.27-.27-.64-.42-1.02-.42s-.75.15-1.02.42-.43.64-.43,1.02.16.75.43,1.02.64.42,1.02.42"/><path class="n" d="m350.31,84.4c.38,0,.75-.15,1.02-.42s.42-.64.42-1.02-.15-.75-.42-1.02c-.27-.27-.64-.42-1.02-.42s-.75.15-1.02.42-.42.64-.42,1.02.15.75.42,1.02c.27.27.64.42,1.02.42"/><path class="n" d="m347.16,72.86c.38,0,.75-.15,1.02-.42s.42-.64.42-1.03-.15-.75-.42-1.02c-.27-.27-.64-.42-1.02-.42s-.75.15-1.02.42-.42.64-.42,1.02.15.75.42,1.03c.27.27.64.42,1.02.42"/><path class="n" d="m347.16,62.05c.38,0,.75-.15,1.02-.42s.42-.64.42-1.03-.15-.75-.42-1.02c-.27-.27-.64-.42-1.02-.42s-.75.15-1.02.42-.42.64-.42,1.02.15.75.42,1.03c.27.27.64.42,1.02.42"/><path class="n" d="m360.78,84.76c.38,0,.75-.15,1.02-.42s.42-.64.42-1.02-.15-.75-.42-1.02-.64-.42-1.02-.42-.75.15-1.02.42-.42.64-.42,1.02.15.75.42,1.02c.27.27.64.42,1.02.42"/><path class="n" d="m357.57,84.76c.38,0,.75-.15,1.02-.42s.42-.64.42-1.02-.15-.75-.42-1.02c-.27-.27-.64-.42-1.02-.42s-.75.15-1.02.42-.42.64-.42,1.02.15.75.42,1.02c.27.27.64.42,1.02.42"/><path class="n" d="m363.93,84.4c.39,0,.75-.15,1.02-.42s.42-.64.42-1.02-.15-.75-.42-1.02c-.27-.27-.64-.42-1.02-.42s-.75.15-1.02.42-.42.64-.42,1.02.15.75.42,1.02c.27.27.64.42,1.02.42"/><path class="n" d="m360.78,81.88c.38,0,.75-.15,1.02-.42s.42-.64.42-1.02-.15-.75-.42-1.02c-.27-.27-.64-.42-1.02-.42s-.75.15-1.02.42-.42.64-.42,1.02.15.75.42,1.02c.27.27.64.42,1.02.42"/><path class="n" d="m360.78,78.99c.38,0,.75-.15,1.02-.42s.42-.64.42-1.02-.15-.75-.42-1.02c-.27-.27-.64-.42-1.02-.42s-.75.15-1.02.42-.42.64-.42,1.02.15.75.42,1.02c.27.27.64.42,1.02.42"/><path class="n" d="m374.39,84.76c.38,0,.75-.15,1.02-.42s.42-.64.42-1.02-.15-.75-.42-1.02c-.27-.27-.64-.42-1.02-.42s-.75.15-1.02.42-.42.64-.42,1.02.16.75.42,1.02c.27.27.64.42,1.02.42"/><path class="n" d="m371.19,84.76c.39,0,.75-.15,1.02-.42s.42-.64.42-1.02-.15-.75-.42-1.02c-.27-.27-.64-.42-1.02-.42s-.75.15-1.02.42-.42.64-.42,1.02.15.75.42,1.02.64.42,1.02.42"/><path class="n" d="m377.39,84.04c.38,0,.75-.15,1.02-.42s.42-.64.42-1.02-.15-.75-.42-1.02c-.27-.27-.64-.42-1.02-.42s-.75.15-1.02.42-.42.64-.42,1.02.15.75.42,1.02c.27.27.64.42,1.02.42"/><path class="n" d="m372.83,82.96c.38,0,.75-.15,1.02-.42s.42-.64.42-1.02-.15-.75-.42-1.02c-.27-.27-.64-.42-1.02-.42s-.75.15-1.02.42-.42.64-.42,1.02.15.75.42,1.02c.27.27.64.42,1.02.42"/><path class="n" d="m374.39,76.11c.38,0,.75-.15,1.02-.42s.42-.64.42-1.02-.15-.75-.42-1.02c-.27-.27-.64-.42-1.02-.42s-.75.15-1.02.42-.42.64-.42,1.02.16.75.42,1.02c.27.27.64.42,1.02.42"/><path class="n" d="m388.01,84.76c.38,0,.75-.15,1.02-.42s.42-.64.42-1.02-.15-.75-.42-1.02c-.27-.27-.64-.42-1.02-.42s-.75.15-1.02.42-.42.64-.42,1.02.15.75.42,1.02c.27.27.64.42,1.02.42"/><path class="n" d="m385.01,84.04c.38,0,.75-.15,1.02-.42s.42-.64.42-1.02-.15-.75-.42-1.02c-.27-.27-.64-.42-1.02-.42s-.75.15-1.02.42-.42.64-.42,1.02.15.75.42,1.02c.27.27.64.42,1.02.42"/><path class="n" d="m388.01,81.88c.38,0,.75-.15,1.02-.42s.42-.64.42-1.02-.15-.75-.42-1.02c-.27-.27-.64-.42-1.02-.42s-.75.15-1.02.42-.42.64-.42,1.02.15.75.42,1.02c.27.27.64.42,1.02.42"/><path class="n" d="m388.01,71.06c.38,0,.75-.15,1.02-.42s.42-.64.42-1.02-.15-.75-.42-1.02c-.27-.27-.64-.42-1.02-.42s-.75.15-1.02.42-.42.64-.42,1.02.15.75.42,1.02c.27.27.64.42,1.02.42"/><path class="n" d="m388.01,43.66c.38,0,.75-.15,1.02-.42s.42-.64.42-1.02-.15-.75-.42-1.02c-.27-.27-.64-.42-1.02-.42s-.75.15-1.02.42-.42.64-.42,1.02.15.75.42,1.02c.27.27.64.42,1.02.42"/><path class="n" d="m401.62,84.76c.39,0,.75-.15,1.02-.42s.42-.64.42-1.02-.15-.75-.42-1.02c-.27-.27-.64-.42-1.02-.42s-.75.15-1.02.42-.42.64-.42,1.02.15.75.42,1.02.64.42,1.02.42"/><path class="n" d="m401.62,79.71c.39,0,.75-.15,1.02-.42s.42-.64.42-1.02-.15-.75-.42-1.02c-.27-.27-.64-.42-1.02-.42s-.75.15-1.02.42-.42.64-.42,1.02.15.75.42,1.02.64.42,1.02.42"/><path class="n" d="m398.43,79.71c.38,0,.75-.15,1.02-.42s.42-.64.42-1.02-.15-.75-.42-1.02c-.27-.27-.64-.42-1.02-.42s-.75.15-1.02.42-.42.64-.42,1.02.15.75.42,1.02c.27.27.64.42,1.02.42"/><path class="n" d="m404.62,78.99c.39,0,.75-.15,1.02-.42s.42-.64.42-1.02-.15-.75-.42-1.02c-.27-.27-.64-.42-1.02-.42s-.75.15-1.02.42-.42.64-.42,1.02.15.75.42,1.02.64.42,1.02.42"/><path class="n" d="m401.62,69.26c.39,0,.75-.16,1.02-.42.27-.27.42-.64.42-1.02s-.15-.75-.42-1.02c-.27-.27-.64-.42-1.02-.42s-.75.15-1.02.42-.42.64-.42,1.02.15.75.42,1.02c.27.27.64.42,1.02.42"/><path class="n" d="m415.24,74.31c.38,0,.75-.15,1.02-.42s.42-.64.42-1.03-.15-.75-.42-1.02c-.27-.27-.64-.42-1.02-.42s-.75.15-1.02.42-.42.64-.42,1.02.15.75.42,1.03c.27.27.64.42,1.02.42"/><path class="n" d="m412.04,74.31c.38,0,.75-.15,1.02-.42s.42-.64.42-1.03-.15-.75-.42-1.02c-.27-.27-.64-.42-1.02-.42s-.75.15-1.02.42-.42.64-.42,1.02.15.75.42,1.03c.27.27.64.42,1.02.42"/><path class="n" d="m415.24,71.42c.38,0,.75-.15,1.02-.42s.42-.64.42-1.02-.15-.75-.42-1.02c-.27-.27-.64-.42-1.02-.42s-.75.15-1.02.42-.42.64-.42,1.02.15.75.42,1.02c.27.27.64.42,1.02.42"/><path class="n" d="m415.24,65.29c.38,0,.75-.15,1.02-.43.27-.27.42-.64.42-1.02s-.15-.75-.42-1.02c-.27-.27-.64-.42-1.02-.42s-.75.16-1.02.42c-.27.27-.42.64-.42,1.02s.15.75.42,1.02c.27.27.64.43,1.02.43"/><path class="n" d="m415.24,44.38c.38,0,.75-.15,1.02-.42s.42-.64.42-1.02-.15-.75-.42-1.02c-.27-.27-.64-.42-1.02-.42s-.75.15-1.02.42-.42.64-.42,1.02.15.75.42,1.02c.27.27.64.42,1.02.42"/><path class="n" d="m428.86,66.01c.39,0,.75-.15,1.02-.42s.42-.64.42-1.02-.15-.75-.42-1.02-.64-.42-1.02-.42-.75.15-1.02.42-.42.64-.42,1.02.15.75.42,1.02c.27.27.64.42,1.02.42"/><path class="n" d="m428.86,41.86c.39,0,.75-.15,1.02-.42s.42-.64.42-1.02-.15-.75-.42-1.02c-.27-.27-.64-.42-1.02-.42s-.75.15-1.02.42-.42.64-.42,1.02.15.75.42,1.02c.27.27.64.42,1.02.42"/><path class="n" d="m425.71,41.49c.38,0,.75-.15,1.02-.42s.42-.64.42-1.02-.15-.75-.42-1.02c-.27-.27-.64-.42-1.02-.42s-.75.15-1.02.42-.42.64-.42,1.02.15.75.42,1.02c.27.27.64.42,1.02.42"/><path class="n" d="m428.86,37.89c.39,0,.75-.15,1.02-.42s.42-.64.42-1.02-.15-.75-.42-1.02c-.27-.27-.64-.42-1.02-.42s-.75.15-1.02.42-.42.64-.42,1.02.15.75.42,1.02c.27.27.64.42,1.02.42"/><path class="n" d="m425.86,37.17c.39,0,.75-.15,1.02-.42s.42-.64.42-1.02-.15-.75-.42-1.02c-.27-.27-.64-.42-1.02-.42s-.75.15-1.02.42-.42.64-.42,1.02.15.75.42,1.02c.27.27.64.42,1.02.42"/></g><path d="m3.92,78.74l-.23-.4c.51-.28.77-.6.77-.97,0-.24-.08-.44-.23-.61s-.34-.25-.57-.25c-.18,0-.36.07-.54.21s-.4.38-.65.71-.44.55-.56.67c-.12.11-.26.2-.4.25s-.28.08-.43.08c-.3,0-.56-.11-.77-.32C.1,77.9,0,77.63,0,77.3c0-.26.06-.48.19-.67.13-.19.32-.38.57-.55l.29.38c-.16.12-.3.25-.41.38s-.16.29-.16.48.06.34.17.46c.11.12.26.18.43.18s.32-.05.45-.16c.13-.11.33-.35.61-.72s.53-.65.77-.82c.23-.17.48-.26.74-.26.34,0,.63.13.88.39s.37.57.37.91c0,.61-.33,1.09-.99,1.43h0Z"/><path d="m4.79,72.15v.45h-.62c.47.36.71.79.71,1.29,0,.26-.07.49-.21.7s-.33.36-.55.44c-.23.09-.56.13-1,.13h-1.78v-.44h1.64c.4,0,.68-.02.82-.06s.26-.09.36-.17.18-.17.23-.29.08-.26.08-.43-.04-.33-.12-.49-.2-.3-.34-.41c-.15-.11-.3-.19-.46-.23s-.47-.06-.94-.06h-1.27v-.45h3.45v.02Z"/><path d="m2.05,67.79l.22.35c-.4.3-.6.72-.6,1.25,0,.42.13.76.4,1.05.27.28.6.42.99.42s.73-.14,1.01-.42.42-.63.42-1.05c0-.51-.2-.92-.6-1.25l.23-.35c.25.17.44.41.58.7.13.29.2.61.2.95,0,.53-.18.98-.53,1.33-.35.36-.78.54-1.29.54s-.94-.18-1.3-.54c-.36-.36-.54-.83-.54-1.39,0-.33.07-.64.21-.93.14-.28.34-.5.59-.65h.01Z"/><path d="m2.05,63.59l.22.35c-.4.3-.6.72-.6,1.25,0,.42.13.76.4,1.05.27.28.6.42.99.42s.73-.14,1.01-.42.42-.63.42-1.05c0-.51-.2-.92-.6-1.25l.23-.35c.25.17.44.41.58.7.13.29.2.61.2.95,0,.53-.18.98-.53,1.33-.35.36-.78.54-1.29.54s-.94-.18-1.3-.54c-.36-.36-.54-.83-.54-1.39,0-.33.07-.64.21-.93.14-.28.34-.5.59-.65h.01Z"/><path d="m3.67,59.85l.2-.38c.69.37,1.04.92,1.04,1.65,0,.52-.18.95-.54,1.29s-.79.51-1.29.51-.93-.17-1.29-.51-.54-.76-.54-1.26.17-.92.5-1.26.79-.52,1.37-.53v3.11c.42,0,.75-.14,1-.39s.38-.55.38-.91c0-.58-.27-1.02-.83-1.31h0Zm-.94,0c-.33.06-.59.21-.77.46-.19.24-.28.52-.28.84,0,.65.35,1.08,1.05,1.27,0,0,0-2.57,0-2.57Z"/><path d="m1.71,56.77l.29.29c-.23.24-.34.47-.34.7,0,.15.05.27.14.37.09.1.21.15.34.15s.25-.05.35-.16.21-.29.35-.55.28-.46.44-.59.35-.21.58-.21c.29,0,.54.1.73.3s.3.45.3.74c0,.2-.04.38-.13.56-.09.18-.21.33-.37.46l-.31-.28c.26-.23.38-.47.38-.72,0-.18-.06-.33-.18-.46s-.25-.19-.41-.19-.29.06-.39.17-.22.29-.35.55c-.13.26-.27.45-.43.58s-.35.19-.6.19-.45-.09-.63-.27c-.17-.18-.26-.42-.26-.71s.16-.6.47-.92h.03Z"/><path d="m1.71,54.25l.29.29c-.23.24-.34.47-.34.7,0,.15.05.27.14.37.09.1.21.15.34.15s.25-.05.35-.16.21-.29.35-.55.28-.46.44-.59.35-.21.58-.21c.29,0,.54.1.73.3s.3.45.3.74c0,.2-.04.38-.13.56-.09.18-.21.33-.37.46l-.31-.28c.26-.23.38-.47.38-.72,0-.18-.06-.33-.18-.46s-.25-.19-.41-.19-.29.06-.39.17-.22.29-.35.55c-.13.26-.27.45-.43.58s-.35.19-.6.19-.45-.09-.63-.27c-.17-.18-.26-.42-.26-.71s.16-.6.47-.92h.03Z"/><path d="m.1,52.04h.44c-.07.17-.11.32-.11.45s.04.22.13.26c.08.04.22.06.41.06h.38v-.72h.38v.72h3.07v.45H1.73v.45h-.38v-.45h-.45c-.3,0-.53-.06-.67-.17s-.21-.29-.21-.53c0-.14.03-.31.09-.52h0Z"/><path d="m4.79,48.46v.45h-.62c.47.36.71.79.71,1.29,0,.26-.07.49-.21.7s-.33.36-.55.44c-.23.09-.56.13-1,.13h-1.78v-.44h1.64c.4,0,.68-.02.82-.06s.26-.09.36-.17.18-.17.23-.29.08-.26.08-.43-.04-.33-.12-.49-.2-.3-.34-.41c-.15-.11-.3-.19-.46-.23s-.47-.06-.94-.06h-1.27v-.45h3.45v.02Z"/><path d="m0,47.53v-.44h4.78v.44H0Z"/><path d="m3.67,41.64l.2-.38c.69.37,1.04.92,1.04,1.65,0,.52-.18.95-.54,1.29s-.79.51-1.29.51-.93-.17-1.29-.51-.54-.76-.54-1.26.17-.92.5-1.26.79-.52,1.37-.53v3.11c.42,0,.75-.14,1-.39s.38-.55.38-.91c0-.58-.27-1.02-.83-1.31h0Zm-.94,0c-.33.06-.59.21-.77.46-.19.24-.28.52-.28.84,0,.65.35,1.08,1.05,1.27,0,0,0-2.57,0-2.57Z"/><path d="m1.34,40.31v-.44h.63c-.48-.35-.72-.81-.72-1.37,0-.48.18-.9.54-1.25s.79-.53,1.29-.53.93.17,1.29.52.54.76.54,1.25c0,.53-.24.99-.71,1.38h1.85v.44H1.34Zm1.74-3.15c-.39,0-.72.13-.99.4-.27.27-.41.59-.41.98s.14.71.41.97.61.39,1,.39.73-.13,1-.4c.27-.27.41-.59.41-.96s-.14-.7-.41-.97c-.28-.27-.61-.41-1-.41h-.01Z"/><path d="m.37,36.09c-.1,0-.19-.04-.26-.11S0,35.82,0,35.72s.04-.19.11-.26c.07-.07.16-.11.26-.11s.19.04.26.11.11.16.11.26-.04.19-.11.26c-.07.07-.16.11-.25.11h-.01Zm.96-.14v-.45h3.45v.45H1.33Z"/><path d="m1.71,32.85l.29.29c-.23.24-.34.47-.34.7,0,.15.05.27.14.37.09.1.21.15.34.15s.25-.05.35-.16.21-.29.35-.55.28-.46.44-.59.35-.21.58-.21c.29,0,.54.1.73.3s.3.45.3.74c0,.2-.04.38-.13.56-.09.18-.21.33-.37.46l-.31-.28c.26-.23.38-.47.38-.72,0-.18-.06-.33-.18-.46s-.25-.19-.41-.19-.29.06-.39.17-.22.29-.35.55c-.13.26-.27.45-.43.58s-.35.19-.6.19-.45-.09-.63-.27c-.17-.18-.26-.42-.26-.71s.16-.6.47-.92h.03Z"/><path d="m3.09,32.23c-.51,0-.94-.17-1.3-.52s-.54-.77-.54-1.27.18-.92.54-1.27.79-.52,1.29-.52.93.17,1.29.52c.36.34.54.77.54,1.28s-.18.93-.54,1.28-.79.52-1.28.52v-.02Zm0-3.15c-.38,0-.71.13-.99.4s-.42.58-.42.95.14.68.42.95c.28.26.61.4,1,.4s.71-.13.98-.38.4-.57.4-.95-.14-.7-.41-.96c-.27-.26-.6-.39-.98-.39v-.02Z"/><path d="m0,24.36h4.78v.44h-.59c.47.39.71.85.71,1.36s-.18.94-.54,1.28-.79.52-1.29.52-.93-.17-1.29-.53c-.36-.35-.54-.77-.54-1.26,0-.56.24-1.02.72-1.37H0v-.44h0Zm3.08.41c-.39,0-.73.13-1,.39s-.41.58-.41.98.14.72.42.98.61.39.99.39.71-.13.99-.4c.28-.27.42-.59.42-.95s-.13-.69-.4-.96c-.27-.28-.6-.42-1.01-.42h0Z"/><path d="m3.67,20.45l.2-.38c.69.37,1.04.92,1.04,1.65,0,.52-.18.95-.54,1.29s-.79.51-1.29.51-.93-.17-1.29-.51-.54-.76-.54-1.26.17-.92.5-1.26.79-.52,1.37-.53v3.11c.42,0,.75-.14,1-.39s.38-.55.38-.91c0-.58-.27-1.02-.83-1.31h0Zm-.94,0c-.33.06-.59.21-.77.46-.19.24-.28.52-.28.84,0,.65.35,1.08,1.05,1.27,0,0,0-2.57,0-2.57Z"/><path d="m1.71,17.37l.29.29c-.23.24-.34.47-.34.7,0,.15.05.27.14.37.09.1.21.15.34.15s.25-.05.35-.16.21-.29.35-.55.28-.46.44-.59.35-.21.58-.21c.29,0,.54.1.73.3s.3.45.3.74c0,.2-.04.38-.13.56-.09.18-.21.33-.37.46l-.31-.28c.26-.23.38-.47.38-.72,0-.18-.06-.33-.18-.46s-.25-.19-.41-.19-.29.06-.39.17-.22.29-.35.55c-.13.26-.27.45-.43.58s-.35.19-.6.19-.45-.09-.63-.27c-.17-.18-.26-.42-.26-.71s.16-.6.47-.92h.03Z"/><path d="m12.51,10.66h-.38c.02-.4.15-.73.4-.97s.55-.37.9-.37.65.11.88.34.35.51.35.84c0,.25-.07.47-.2.68s-.33.46-.59.74l-.98,1.06h1.83v.38h-2.68l1.51-1.63c.26-.29.45-.51.57-.68.11-.17.17-.35.17-.57s-.08-.4-.25-.56-.37-.24-.62-.24-.45.08-.62.25c-.16.17-.26.4-.28.71v.02Z"/><path d="m16.4,13.47c-.43,0-.75-.18-.98-.53s-.34-.87-.34-1.55.12-1.2.34-1.55c.23-.35.55-.53.98-.53s.76.18,1,.54c.25.36.37.87.37,1.54s-.12,1.18-.37,1.54-.58.54-1,.54h0Zm0-3.77c-.3,0-.54.15-.71.44-.17.29-.25.72-.25,1.27,0,1.14.32,1.71.96,1.71.31,0,.55-.15.73-.45s.26-.72.26-1.27-.09-.97-.27-1.26-.42-.44-.72-.44h0Z"/><path d="m19.44,13.47c-.43,0-.75-.18-.98-.53s-.34-.87-.34-1.55.12-1.2.34-1.55c.23-.35.55-.53.98-.53s.76.18,1,.54c.25.36.37.87.37,1.54s-.12,1.18-.37,1.54-.58.54-1,.54h0Zm0-3.77c-.3,0-.54.15-.71.44-.17.29-.25.72-.25,1.27,0,1.14.32,1.71.96,1.71.31,0,.55-.15.73-.45s.26-.72.26-1.27-.09-.97-.27-1.26-.42-.44-.72-.44h0Z"/><path d="m14.26,27.41h.78v3.95h-.39v-3.56h-.62l.24-.38h-.01Z"/><path d="m18.99,27.41v.37h-1.41l-.2,1.08c.18-.05.34-.08.5-.08.34,0,.63.12.86.37.23.24.35.56.35.94s-.12.71-.38.97c-.25.27-.58.4-1,.4-.32,0-.58-.09-.81-.28s-.35-.45-.4-.77h.4c.05.22.15.39.3.51.15.12.32.18.52.18.26,0,.49-.1.67-.29s.28-.44.28-.73c0-.26-.08-.48-.25-.65s-.38-.26-.65-.26-.56.07-.88.21l.37-1.96h1.73Z"/><path d="m20.81,31.45c-.43,0-.75-.18-.98-.53s-.34-.87-.34-1.55.12-1.2.34-1.55c.23-.35.55-.53.98-.53s.76.18,1,.54c.25.36.37.87.37,1.54s-.12,1.18-.37,1.54-.58.54-1,.54h0Zm0-3.77c-.3,0-.54.15-.71.44-.17.29-.25.72-.25,1.27,0,1.14.32,1.71.96,1.71.31,0,.55-.15.73-.45s.26-.72.26-1.27-.09-.97-.27-1.26-.42-.44-.72-.44h0Z"/><path d="m13.71,45.38h.78v3.95h-.39v-3.56h-.62l.24-.38h-.01Z"/><path d="m17.24,49.43c-.43,0-.75-.18-.98-.53s-.34-.87-.34-1.55.12-1.2.34-1.55c.23-.35.55-.53.98-.53s.76.18,1,.54c.25.36.37.87.37,1.54s-.12,1.18-.37,1.54-.58.54-1,.54h0Zm0-3.77c-.3,0-.54.15-.71.44-.17.29-.25.72-.25,1.27,0,1.14.32,1.71.96,1.71.31,0,.55-.15.73-.45s.26-.72.26-1.27-.09-.97-.27-1.26-.42-.44-.72-.44h0Z"/><path d="m20.29,49.43c-.43,0-.75-.18-.98-.53s-.34-.87-.34-1.55.12-1.2.34-1.55c.23-.35.55-.53.98-.53s.76.18,1,.54c.25.36.37.87.37,1.54s-.12,1.18-.37,1.54-.58.54-1,.54h0Zm0-3.77c-.3,0-.54.15-.71.44-.17.29-.25.72-.25,1.27,0,1.14.32,1.71.96,1.71.31,0,.55-.15.73-.45s.26-.72.26-1.27-.09-.97-.27-1.26-.42-.44-.72-.44h0Z"/><path d="m18.14,63.36v.37h-1.41l-.2,1.08c.18-.05.34-.08.5-.08.34,0,.63.12.86.37.23.24.35.56.35.94s-.12.71-.38.97c-.25.27-.58.4-1,.4-.32,0-.58-.09-.81-.28s-.35-.45-.4-.77h.4c.05.22.15.39.3.51.15.12.32.18.52.18.26,0,.49-.1.67-.29s.28-.44.28-.73c0-.26-.08-.48-.25-.65s-.38-.26-.65-.26-.56.07-.88.21l.37-1.96h1.73Z"/><path d="m19.96,67.41c-.43,0-.75-.18-.98-.53s-.34-.87-.34-1.55.12-1.2.34-1.55c.23-.35.55-.53.98-.53s.76.18,1,.54c.25.36.37.87.37,1.54s-.12,1.18-.37,1.54-.58.54-1,.54h0Zm0-3.77c-.3,0-.54.15-.71.44-.17.29-.25.72-.25,1.27,0,1.14.32,1.71.96,1.71.31,0,.55-.15.73-.45s.26-.72.26-1.27-.09-.97-.27-1.26-.42-.44-.72-.44h0Z"/><path d="m20.14,85.39c-.43,0-.75-.18-.98-.53s-.34-.87-.34-1.55.12-1.2.34-1.55c.23-.35.55-.53.98-.53s.76.18,1,.54c.25.36.37.87.37,1.54s-.12,1.18-.37,1.54-.58.54-1,.54h0Zm0-3.77c-.3,0-.54.15-.71.44-.17.29-.25.72-.25,1.27,0,1.14.32,1.71.96,1.71.31,0,.55-.15.73-.45s.26-.72.26-1.27-.09-.97-.27-1.26-.42-.44-.72-.44h0Z"/><path d="m35.59,104.54l-3.95-.56v-.06l3.24-1.61-3.24-1.59v-.06l3.95-.57v.39l-2.83.38,2.83,1.4v.1l-2.85,1.41,2.85.39v.38h0Z"/><path d="m31.64,99.31v-.4h3.57v-1.52h.38v1.92h-3.95Z"/><path d="m31.64,96.77v-.79c0-.47.02-.77.05-.91.04-.14.1-.27.19-.39s.21-.21.34-.28c.14-.07.29-.1.46-.1.27,0,.49.07.67.22.17.15.28.33.33.55.05.22.07.56.07,1.02v.28h1.84v.4s-3.95,0-3.95,0Zm.38-.4h1.35v-.67c0-.4-.06-.67-.2-.8s-.3-.2-.49-.2c-.44,0-.67.32-.67.96v.7h.01Z"/><path d="m36,93.99v-2.75h.28v2.75h-.28Z"/><path d="m32.88,90.6v.38c-.4-.02-.73-.15-.97-.4s-.37-.55-.37-.9.11-.65.34-.88c.23-.23.51-.35.84-.35.25,0,.47.07.68.2s.46.33.74.59l1.06.98v-1.83h.38v2.68l-1.63-1.51c-.29-.26-.51-.45-.68-.57-.16-.11-.35-.17-.57-.17s-.4.08-.56.25-.24.37-.24.62.08.45.25.62c.17.16.4.26.71.28h.02Z"/><path d="m49.2,104.89l-3.95-.56v-.06l3.24-1.61-3.24-1.59v-.06l3.95-.57v.39l-2.83.38,2.83,1.4v.1l-2.85,1.41,2.85.39v.38h0Z"/><path d="m45.26,99.66v-.4h3.57v-1.52h.38v1.92h-3.95Z"/><path d="m45.26,97.12v-.79c0-.47.02-.77.05-.91.04-.14.1-.27.19-.39s.21-.21.34-.28c.14-.07.29-.1.46-.1.27,0,.49.07.67.22.17.15.28.33.33.55.04.22.07.56.07,1.02v.28h1.84v.4s-3.95,0-3.95,0Zm.38-.4h1.35v-.67c0-.4-.06-.67-.2-.8s-.3-.2-.49-.2c-.44,0-.67.32-.67.96v.7h.01Z"/><path d="m49.62,94.34v-2.75h.27v2.75h-.27Z"/><path d="m45.16,89.24v-.08h2.75v-.48h.38v.48h.92v.39h-.92v1.89l-3.13-2.21h0Zm2.75.31h-1.64l1.64,1.17v-1.17Z"/><path d="m62.82,104.9l-3.95-.56v-.06l3.24-1.61-3.24-1.59v-.06l3.95-.57v.39l-2.83.38,2.83,1.4v.1l-2.85,1.41,2.85.39v.38h0Z"/><path d="m58.87,99.67v-.4h3.57v-1.52h.38v1.92h-3.95Z"/><path d="m58.87,97.13v-.79c0-.47.02-.77.05-.91.04-.14.1-.27.19-.39.09-.12.21-.21.34-.28.14-.07.29-.1.46-.1.27,0,.49.07.67.22.17.15.28.33.33.55s.07.56.07,1.02v.28h1.84v.4h-3.95Zm.38-.4h1.35v-.67c0-.4-.06-.67-.2-.8s-.3-.2-.49-.2c-.44,0-.67.32-.67.96v.7h0Z"/><path d="m63.23,94.35v-2.75h.28v2.75h-.28Z"/><path d="m58.77,89.58l.21-.32,1.62,1.07c-.05-.15-.08-.29-.08-.43,0-.29.12-.55.35-.77.23-.22.52-.33.85-.33s.62.12.85.36.35.53.35.87-.12.63-.35.86c-.23.23-.52.34-.86.34-.16,0-.33-.03-.5-.09s-.39-.18-.65-.36c0,0-1.79-1.2-1.79-1.2Zm2.93-.4c-.23,0-.43.08-.59.24s-.24.36-.24.59.08.43.24.59.36.24.59.24.43-.08.59-.24.24-.36.24-.59-.08-.42-.24-.59-.36-.24-.59-.24Z"/><path d="m76.44,104.83l-3.95-.56v-.06l3.24-1.61-3.24-1.59v-.06l3.95-.57v.39l-2.83.38,2.83,1.4v.1l-2.85,1.41,2.85.39v.38h0Z"/><path d="m72.49,99.6v-.4h3.57v-1.52h.38v1.92h-3.95Z"/><path d="m72.49,97.06v-.79c0-.47.02-.77.05-.91.04-.14.1-.27.19-.39s.21-.21.34-.28c.14-.07.29-.1.46-.1.27,0,.49.07.67.22.17.15.28.33.33.55s.07.56.07,1.02v.28h1.84v.4h-3.95Zm.38-.4h1.35v-.67c0-.4-.06-.67-.2-.8s-.3-.2-.49-.2c-.44,0-.67.32-.67.96v.7h0Z"/><path d="m76.85,94.28v-2.75h.27v2.75h-.27Z"/><path d="m74.27,89.42c.25-.5.59-.75,1.03-.75.35,0,.65.12.88.37.23.25.35.57.35.97s-.12.72-.35.97-.52.36-.85.36c-.46,0-.82-.25-1.07-.76-.21.38-.49.58-.85.58-.27,0-.51-.11-.72-.34s-.31-.5-.31-.82.1-.59.3-.81.45-.34.74-.34c.35,0,.63.19.84.57h.01Zm-.86-.17c-.18,0-.33.07-.45.21-.13.14-.19.32-.19.54s.06.4.19.55c.13.14.28.21.46.21s.34-.08.48-.23c.14-.16.21-.33.21-.53s-.07-.37-.21-.52c-.14-.15-.3-.22-.49-.22h0Zm1.9-.18c-.22,0-.42.09-.59.27-.17.18-.25.4-.25.66s.09.48.26.67c.17.19.38.28.62.28s.43-.09.59-.26c.15-.17.23-.4.23-.68s-.08-.51-.25-.68c-.17-.18-.37-.26-.61-.26h0Z"/><path d="m90.06,107.43l-3.95-.56v-.06l3.24-1.61-3.24-1.59v-.06l3.95-.57v.39l-2.83.38,2.83,1.4v.1l-2.85,1.41,2.85.39v.38h0Z"/><path d="m86.11,102.2v-.4h3.57v-1.52h.38v1.92h-3.95Z"/><path d="m86.11,99.66v-.79c0-.47.02-.77.05-.91.04-.14.1-.27.19-.39.09-.12.21-.21.34-.28.14-.07.29-.1.46-.1.27,0,.49.07.67.22.17.15.28.33.33.55s.07.56.07,1.02v.28h1.84v.4h-3.95Zm.38-.4h1.35v-.67c0-.4-.06-.67-.2-.8s-.3-.2-.49-.2c-.44,0-.67.32-.67.96v.7h0Z"/><path d="m90.47,96.88v-2.75h.28v2.75h-.28Z"/><path d="m86.11,93.12v-.78h3.95v.39h-3.56v.62l-.38-.24h-.01Z"/><path d="m90.16,89.59c0,.43-.17.75-.53.98-.35.23-.87.34-1.55.34s-1.2-.12-1.55-.34c-.35-.23-.53-.55-.53-.98s.18-.76.54-1c.36-.25.87-.37,1.54-.37s1.18.12,1.54.37.54.58.54,1Zm-3.77,0c0,.3.15.54.44.71.29.17.72.25,1.27.25,1.14,0,1.71-.32,1.71-.96,0-.31-.15-.55-.45-.73s-.72-.26-1.27-.26-.97.09-1.26.27-.44.42-.44.72h0Z"/><path d="m103.68,106.74l-3.95-.56v-.06l3.24-1.61-3.24-1.59v-.06l3.95-.57v.39l-2.83.38,2.83,1.4v.1l-2.85,1.41,2.85.39v.38h0Z"/><path d="m99.73,101.5v-.4h3.57v-1.52h.38v1.92h-3.95Z"/><path d="m99.73,98.96v-.79c0-.47.02-.77.05-.91.04-.14.1-.27.19-.39s.21-.21.34-.28c.14-.07.29-.1.46-.1.27,0,.49.07.67.22.17.15.28.33.33.55s.07.56.07,1.02v.28h1.84v.4h-3.95Zm.38-.4h1.35v-.67c0-.4-.06-.67-.2-.8s-.3-.2-.49-.2c-.44,0-.67.32-.67.96v.7h0Z"/><path d="m104.09,96.19v-2.75h.27v2.75h-.27Z"/><path d="m99.73,92.42v-.78h3.95v.39h-3.56v.62l-.38-.24h-.01Z"/><path d="m100.97,89.75v.38c-.4-.02-.73-.15-.97-.4s-.37-.55-.37-.9.11-.65.34-.88c.23-.23.51-.35.84-.35.25,0,.47.07.68.2s.46.33.74.59l1.06.98v-1.83h.38v2.68l-1.63-1.51c-.29-.26-.51-.45-.68-.57-.17-.11-.35-.17-.57-.17s-.4.08-.56.25c-.16.17-.24.37-.24.62s.08.45.25.62c.17.16.4.26.71.28h.02Z"/><path d="m113.35,99.7v-.79c0-.44.02-.74.06-.9.04-.16.1-.3.19-.42s.2-.21.34-.27c.14-.07.29-.1.46-.1.34,0,.6.12.79.36s.28.58.27,1.01l1.84-1.42v.49l-1.84,1.42v.23h1.84v.4h-3.95Zm.38-.4h1.34v-.68c0-.34-.05-.59-.16-.75s-.28-.24-.51-.24-.4.08-.51.24-.16.4-.16.73v.7Z"/><path d="m117.29,96.38h-3.95v-.09l3.02-2.62h-3.02v-.39h3.95v.09l-2.99,2.61h2.99v.41h0Z"/><path d="m117.29,92.31h-3.95v-.09l3.02-2.62h-3.02v-.39h3.95v.09l-2.99,2.61h2.99v.41h0Z"/><path d="m139.87,104.54l-3.95-.56v-.06l3.24-1.61-3.24-1.59v-.06l3.95-.57v.39l-2.83.38,2.83,1.4v.1l-2.85,1.41,2.85.39v.38h0Z"/><path d="m135.92,99.31v-.4h3.57v-1.52h.38v1.92h-3.95Z"/><path d="m135.92,96.77v-.79c0-.47.02-.77.05-.91.04-.14.1-.27.19-.39s.21-.21.34-.28c.14-.07.29-.1.46-.1.27,0,.49.07.67.22.17.15.28.33.33.55s.07.56.07,1.02v.28h1.84v.4h-3.95Zm.38-.4h1.35v-.67c0-.4-.06-.67-.2-.8s-.3-.2-.49-.2c-.44,0-.67.32-.67.96v.7h0Z"/><path d="m140.28,93.99v-2.75h.27v2.75h-.27Z"/><path d="m137.15,90.6v.38c-.4-.02-.73-.15-.97-.4s-.37-.55-.37-.9.11-.65.34-.88c.23-.23.51-.35.84-.35.25,0,.47.07.68.2s.46.33.74.59l1.06.98v-1.83h.38v2.68l-1.63-1.51c-.29-.26-.51-.45-.68-.57-.17-.11-.35-.17-.57-.17s-.4.08-.56.25-.24.37-.24.62.08.45.25.62c.17.16.4.26.71.28h.02Z"/><path d="m153.48,104.89l-3.95-.56v-.06l3.24-1.61-3.24-1.59v-.06l3.95-.57v.39l-2.83.38,2.83,1.4v.1l-2.85,1.41,2.85.39v.38h0Z"/><path d="m149.53,99.66v-.4h3.57v-1.52h.38v1.92h-3.95Z"/><path d="m149.53,97.11v-.79c0-.47.02-.77.05-.91.04-.14.1-.27.19-.39s.21-.21.34-.28c.14-.07.29-.1.46-.1.27,0,.49.07.67.22.17.15.28.33.33.55s.07.56.07,1.02v.28h1.84v.4h-3.95Zm.38-.4h1.35v-.67c0-.4-.06-.67-.2-.8s-.3-.2-.49-.2c-.44,0-.67.32-.67.96v.7h0Z"/><path d="m153.89,94.34v-2.75h.28v2.75h-.28Z"/><path d="m149.43,89.24v-.08h2.75v-.48h.38v.48h.92v.39h-.92v1.89l-3.13-2.21h0Zm2.75.31h-1.64l1.64,1.17v-1.17Z"/><path d="m167.09,104.9l-3.95-.56v-.06l3.24-1.61-3.24-1.59v-.06l3.95-.57v.39l-2.83.38,2.83,1.4v.1l-2.85,1.41,2.85.39v.38h0Z"/><path d="m163.14,99.67v-.4h3.57v-1.52h.38v1.92h-3.95Z"/><path d="m163.14,97.12v-.79c0-.47.02-.77.05-.91.04-.14.1-.27.19-.39s.21-.21.34-.28c.14-.07.29-.1.46-.1.27,0,.49.07.67.22.17.15.28.33.33.55.04.22.07.56.07,1.02v.28h1.84v.4h-3.95Zm.38-.4h1.35v-.67c0-.4-.06-.67-.2-.8s-.3-.2-.49-.2c-.44,0-.67.32-.67.96v.7h0Z"/><path d="m167.5,94.35v-2.75h.27v2.75h-.27Z"/><path d="m163.04,89.58l.21-.32,1.62,1.07c-.05-.15-.08-.29-.08-.43,0-.29.12-.55.35-.77.23-.22.52-.33.85-.33s.62.12.85.36c.23.24.35.53.35.87s-.12.63-.35.86c-.23.23-.52.34-.86.34-.16,0-.33-.03-.5-.09s-.39-.18-.65-.36l-1.79-1.2h0Zm2.93-.4c-.23,0-.43.08-.59.24s-.24.36-.24.59.08.43.24.59.36.24.59.24.43-.08.59-.24.24-.36.24-.59-.08-.42-.24-.59c-.16-.16-.36-.24-.59-.24Z"/><path d="m180.7,104.83l-3.95-.56v-.06l3.24-1.61-3.24-1.59v-.06l3.95-.57v.39l-2.83.38,2.83,1.4v.1l-2.85,1.41,2.85.39v.38h0Z"/><path d="m176.76,99.6v-.4h3.57v-1.52h.38v1.92h-3.95Z"/><path d="m176.76,97.06v-.79c0-.47.02-.77.05-.91.04-.14.1-.27.19-.39s.21-.21.34-.28c.14-.07.29-.1.46-.1.27,0,.49.07.67.22.17.15.28.33.33.55s.07.56.07,1.02v.28h1.84v.4h-3.95Zm.38-.4h1.35v-.67c0-.4-.06-.67-.2-.8s-.3-.2-.49-.2c-.44,0-.67.32-.67.96v.7h0Z"/><path d="m181.12,94.28v-2.75h.27v2.75h-.27Z"/><path d="m178.54,89.42c.25-.5.59-.75,1.03-.75.35,0,.65.12.88.37.23.25.35.57.35.97s-.12.72-.35.97-.52.36-.85.36c-.46,0-.82-.25-1.07-.76-.21.38-.49.58-.85.58-.27,0-.51-.11-.72-.34s-.31-.5-.31-.82.1-.59.3-.81.45-.34.74-.34c.35,0,.63.19.84.57h.01Zm-.86-.17c-.18,0-.33.07-.45.21-.13.14-.19.32-.19.54s.06.4.19.55c.13.14.28.21.46.21s.34-.08.48-.23c.14-.16.21-.33.21-.53s-.07-.37-.21-.52c-.14-.15-.3-.22-.49-.22h0Zm1.9-.18c-.22,0-.42.09-.59.27-.17.18-.25.4-.25.66s.09.48.26.67.38.28.62.28.43-.09.59-.26c.15-.17.23-.4.23-.68s-.08-.51-.25-.68c-.17-.18-.37-.26-.61-.26h0Z"/><path d="m194.32,107.43l-3.95-.56v-.06l3.24-1.61-3.24-1.59v-.06l3.95-.57v.39l-2.83.38,2.83,1.4v.1l-2.85,1.41,2.85.39v.38h0Z"/><path d="m190.37,102.2v-.4h3.57v-1.52h.38v1.92h-3.95Z"/><path d="m190.37,99.66v-.79c0-.47.02-.77.05-.91.04-.14.1-.27.19-.39s.21-.21.34-.28c.14-.07.29-.1.46-.1.27,0,.49.07.67.22.17.15.28.33.33.55s.07.56.07,1.02v.28h1.84v.4h-3.95Zm.38-.4h1.35v-.67c0-.4-.06-.67-.2-.8s-.3-.2-.49-.2c-.44,0-.67.32-.67.96v.7h0Z"/><path d="m194.73,96.88v-2.75h.28v2.75h-.28Z"/><path d="m190.37,93.12v-.78h3.95v.39h-3.56v.62l-.38-.24h0Z"/><path d="m194.42,89.58c0,.43-.17.75-.53.98-.35.23-.87.34-1.55.34s-1.2-.12-1.55-.34c-.35-.23-.53-.55-.53-.98s.18-.76.54-1c.36-.25.87-.37,1.54-.37s1.18.12,1.54.37.54.58.54,1h0Zm-3.77,0c0,.3.15.54.44.71.29.17.72.25,1.27.25,1.14,0,1.71-.32,1.71-.96,0-.31-.15-.55-.45-.73s-.72-.26-1.27-.26-.97.09-1.26.27-.44.42-.44.72h0Z"/><path d="m207.93,106.73l-3.95-.56v-.06l3.24-1.61-3.24-1.59v-.06l3.95-.57v.39l-2.83.38,2.83,1.4v.1l-2.85,1.41,2.85.39v.38h0Z"/><path d="m203.98,101.5v-.4h3.57v-1.52h.38v1.92h-3.95Z"/><path d="m203.98,98.96v-.79c0-.47.02-.77.05-.91.04-.14.1-.27.19-.39s.21-.21.34-.28c.14-.07.29-.1.46-.1.27,0,.49.07.67.22.17.15.28.33.33.55.04.22.07.56.07,1.02v.28h1.84v.4h-3.95Zm.38-.4h1.35v-.67c0-.4-.06-.67-.2-.8s-.3-.2-.49-.2c-.44,0-.67.32-.67.96v.7h0Z"/><path d="m208.34,96.19v-2.75h.27v2.75h-.27Z"/><path d="m203.98,92.42v-.78h3.95v.39h-3.56v.62l-.38-.24h0Z"/><path d="m205.22,89.75v.38c-.4-.02-.73-.15-.97-.4s-.37-.55-.37-.9.12-.65.34-.88c.23-.23.51-.35.84-.35.25,0,.47.07.68.2s.46.33.74.59l1.06.98v-1.83h.38v2.68l-1.63-1.51c-.29-.26-.51-.45-.68-.57-.17-.11-.35-.17-.57-.17s-.4.08-.56.25-.24.37-.24.62.08.45.25.62.4.26.71.28h.02Z"/><path d="m217.59,99.7v-.79c0-.44.02-.74.06-.9.04-.16.1-.3.19-.42s.2-.21.34-.27c.14-.07.29-.1.46-.1.34,0,.6.12.79.36.19.24.28.58.27,1.01l1.84-1.42v.49l-1.84,1.42v.23h1.84v.4h-3.95Zm.38-.4h1.34v-.68c0-.34-.05-.59-.16-.75s-.28-.24-.51-.24-.41.08-.51.24c-.11.16-.16.4-.16.73v.7Z"/><path d="m221.54,96.38h-3.95v-.09l3.03-2.62h-3.03v-.39h3.95v.09l-2.99,2.61h2.99v.41h0Z"/><path d="m221.54,92.31h-3.95v-.09l3.03-2.62h-3.03v-.39h3.95v.09l-2.99,2.61h2.99v.41h0Z"/><path d="m243.03,104.54l-3.95-.56v-.06l3.24-1.61-3.24-1.59v-.06l3.95-.57v.39l-2.83.38,2.83,1.4v.1l-2.85,1.41,2.85.39v.38h0Z"/><path d="m239.08,99.31v-.4h3.57v-1.52h.38v1.92h-3.95Z"/><path d="m239.08,96.77v-.79c0-.47.02-.77.05-.91.04-.14.1-.27.19-.39s.21-.21.34-.28c.14-.07.29-.1.46-.1.27,0,.49.07.67.22.17.15.28.33.33.55s.07.56.07,1.02v.28h1.84v.4h-3.95Zm.38-.4h1.35v-.67c0-.4-.06-.67-.2-.8s-.3-.2-.49-.2c-.44,0-.67.32-.67.96v.7h.01Z"/><path d="m243.44,93.99v-2.75h.28v2.75h-.28Z"/><path d="m240.32,90.6v.38c-.4-.02-.73-.15-.97-.4s-.37-.55-.37-.9.11-.65.34-.88c.23-.23.51-.35.84-.35.25,0,.47.07.68.2s.46.33.74.59l1.06.98v-1.83h.38v2.68l-1.63-1.51c-.29-.26-.51-.45-.68-.57-.16-.11-.35-.17-.57-.17s-.4.08-.56.25-.24.37-.24.62.08.45.25.62c.17.16.4.26.71.28h.02Z"/><path d="m256.73,104.89l-3.95-.56v-.06l3.24-1.61-3.24-1.59v-.06l3.95-.57v.39l-2.83.38,2.83,1.4v.1l-2.85,1.41,2.85.39v.38h0Z"/><path d="m252.78,99.66v-.4h3.57v-1.52h.38v1.92h-3.95Z"/><path d="m252.78,97.11v-.79c0-.47.02-.77.05-.91.04-.14.1-.27.19-.39s.21-.21.34-.28c.14-.07.29-.1.46-.1.27,0,.49.07.67.22.17.15.28.33.33.55s.07.56.07,1.02v.28h1.84v.4h-3.95,0Zm.38-.4h1.35v-.67c0-.4-.06-.67-.2-.8s-.3-.2-.49-.2c-.44,0-.67.32-.67.96v.7h.01Z"/><path d="m257.14,94.34v-2.75h.28v2.75h-.28Z"/><path d="m252.68,89.24v-.08h2.75v-.48h.38v.48h.92v.39h-.92v1.89l-3.13-2.21h0Zm2.75.31h-1.64l1.64,1.17v-1.17Z"/><path d="m270.43,104.9l-3.95-.56v-.06l3.24-1.61-3.24-1.59v-.06l3.95-.57v.39l-2.83.38,2.83,1.4v.1l-2.85,1.41,2.85.39v.38h0Z"/><path d="m266.48,99.67v-.4h3.57v-1.52h.38v1.92h-3.95Z"/><path d="m266.48,97.12v-.79c0-.47.02-.77.05-.91.04-.14.1-.27.19-.39s.21-.21.34-.28c.14-.07.29-.1.46-.1.27,0,.49.07.67.22.17.15.28.33.33.55s.07.56.07,1.02v.28h1.84v.4h-3.95,0Zm.38-.4h1.35v-.67c0-.4-.06-.67-.2-.8s-.3-.2-.49-.2c-.44,0-.67.32-.67.96v.7h.01Z"/><path d="m270.84,94.35v-2.75h.27v2.75h-.27Z"/><path d="m266.38,89.58l.21-.32,1.62,1.07c-.05-.15-.08-.29-.08-.43,0-.29.12-.55.35-.77s.52-.33.85-.33.62.12.85.36.35.53.35.87-.12.63-.35.86-.52.34-.86.34c-.16,0-.33-.03-.5-.09s-.39-.18-.65-.36l-1.79-1.2h0Zm2.93-.4c-.23,0-.43.08-.59.24s-.24.36-.24.59.08.43.24.59.36.24.59.24.43-.08.59-.24.24-.36.24-.59-.08-.42-.24-.59c-.16-.16-.36-.24-.59-.24Z"/><path d="m284.13,104.83l-3.95-.56v-.06l3.24-1.61-3.24-1.59v-.06l3.95-.57v.39l-2.83.38,2.83,1.4v.1l-2.85,1.41,2.85.39v.38h0Z"/><path d="m280.18,99.6v-.4h3.57v-1.52h.38v1.92h-3.95Z"/><path d="m280.18,97.06v-.79c0-.47.02-.77.05-.91.04-.14.1-.27.19-.39s.21-.21.34-.28c.14-.07.29-.1.46-.1.27,0,.49.07.67.22.17.15.28.33.33.55s.07.56.07,1.02v.28h1.84v.4h-3.95,0Zm.38-.4h1.35v-.67c0-.4-.06-.67-.2-.8s-.3-.2-.49-.2c-.44,0-.67.32-.67.96v.7h.01Z"/><path d="m284.54,94.28v-2.75h.28v2.75h-.28Z"/><path d="m281.96,89.42c.25-.5.59-.75,1.03-.75.35,0,.65.12.88.37.24.25.35.57.35.97s-.12.72-.35.97c-.23.24-.52.36-.85.36-.46,0-.82-.25-1.07-.76-.21.38-.49.58-.85.58-.27,0-.51-.11-.72-.34s-.31-.5-.31-.82.1-.59.3-.81c.2-.22.45-.34.74-.34.35,0,.63.19.84.57h.01Zm-.86-.17c-.18,0-.33.07-.45.21s-.19.32-.19.54.06.4.19.55c.13.14.28.21.46.21s.34-.08.48-.23c.14-.16.21-.33.21-.53s-.07-.37-.21-.52c-.14-.15-.3-.22-.49-.22h0Zm1.9-.18c-.22,0-.42.09-.59.27s-.25.4-.25.66.09.48.26.67.38.28.62.28.43-.09.59-.26c.15-.17.23-.4.23-.68s-.08-.51-.25-.68-.37-.26-.6-.26h-.01Z"/><path d="m297.83,107.43l-3.95-.56v-.06l3.24-1.61-3.24-1.59v-.06l3.95-.57v.39l-2.83.38,2.83,1.4v.1l-2.85,1.41,2.85.39v.38h0Z"/><path d="m293.88,102.2v-.4h3.57v-1.52h.38v1.92h-3.95Z"/><path d="m293.88,99.66v-.79c0-.47.02-.77.05-.91.04-.14.1-.27.19-.39s.21-.21.34-.28c.14-.07.29-.1.46-.1.27,0,.49.07.67.22.17.15.28.33.33.55s.07.56.07,1.02v.28h1.84v.4h-3.95,0Zm.38-.4h1.35v-.67c0-.4-.06-.67-.2-.8s-.3-.2-.49-.2c-.44,0-.67.32-.67.96v.7h.01Z"/><path d="m298.24,96.88v-2.75h.28v2.75h-.28Z"/><path d="m293.88,93.12v-.78h3.95v.39h-3.56v.62l-.38-.24h-.01Z"/><path d="m297.93,89.58c0,.43-.17.75-.53.98-.35.23-.87.34-1.55.34s-1.2-.12-1.55-.34c-.35-.23-.53-.55-.53-.98s.18-.76.54-1c.36-.25.87-.37,1.54-.37s1.18.12,1.54.37.54.58.54,1h0Zm-3.77,0c0,.3.15.54.44.71.29.17.72.25,1.27.25,1.14,0,1.71-.32,1.71-.96,0-.31-.15-.55-.45-.73s-.72-.26-1.27-.26-.97.09-1.26.27-.44.42-.44.72h0Z"/><path d="m311.53,106.73l-3.95-.56v-.06l3.24-1.61-3.24-1.59v-.06l3.95-.57v.39l-2.83.38,2.83,1.4v.1l-2.85,1.41,2.85.39v.38h0Z"/><path d="m307.58,101.5v-.4h3.57v-1.52h.38v1.92h-3.95Z"/><path d="m307.58,98.96v-.79c0-.47.02-.77.05-.91.04-.14.1-.27.19-.39s.21-.21.34-.28c.14-.07.29-.1.46-.1.27,0,.49.07.67.22.17.15.28.33.33.55.04.22.07.56.07,1.02v.28h1.84v.4h-3.95,0Zm.38-.4h1.35v-.67c0-.4-.06-.67-.2-.8s-.3-.2-.49-.2c-.44,0-.67.32-.67.96v.7h.01Z"/><path d="m311.95,96.19v-2.75h.27v2.75h-.27Z"/><path d="m307.58,92.42v-.78h3.95v.39h-3.56v.62l-.38-.24h-.01Z"/><path d="m308.82,89.75v.38c-.4-.02-.73-.15-.97-.4s-.37-.55-.37-.9.12-.65.34-.88c.23-.23.51-.35.84-.35.25,0,.47.07.68.2s.46.33.74.59l1.06.98v-1.83h.38v2.68l-1.63-1.51c-.29-.26-.51-.45-.68-.57-.17-.11-.35-.17-.57-.17s-.4.08-.56.25-.24.37-.24.62.08.45.25.62.4.26.71.28h.02Z"/><path d="m321.28,99.7v-.79c0-.44.02-.74.06-.9.04-.16.1-.3.19-.42s.2-.21.34-.27c.14-.07.29-.1.46-.1.34,0,.6.12.79.36s.28.58.27,1.01l1.84-1.42v.49l-1.84,1.42v.23h1.84v.4h-3.95,0Zm.38-.4h1.34v-.68c0-.34-.05-.59-.16-.75-.11-.16-.28-.24-.51-.24s-.41.08-.51.24c-.11.16-.16.4-.16.73v.7h0Z"/><path d="m325.23,96.38h-3.95v-.09l3.03-2.62h-3.03v-.39h3.95v.09l-2.99,2.61h2.99v.41h0Z"/><path d="m325.23,92.31h-3.95v-.09l3.03-2.62h-3.03v-.39h3.95v.09l-2.99,2.61h2.99v.41h0Z"/><path d="m348.45,104.54l-3.95-.56v-.06l3.24-1.61-3.24-1.59v-.06l3.95-.57v.39l-2.83.38,2.83,1.4v.1l-2.85,1.41,2.85.39v.38h0Z"/><path d="m344.5,99.31v-.4h3.57v-1.52h.38v1.92h-3.95Z"/><path d="m344.5,96.77v-.79c0-.47.02-.77.05-.91.04-.14.1-.27.19-.39s.21-.21.34-.28c.14-.07.29-.1.46-.1.27,0,.49.07.67.22.17.15.28.33.33.55s.07.56.07,1.02v.28h1.84v.4h-3.95,0Zm.38-.4h1.35v-.67c0-.4-.06-.67-.2-.8s-.3-.2-.49-.2c-.44,0-.67.32-.67.96v.7h.01Z"/><path d="m348.86,93.99v-2.75h.27v2.75h-.27Z"/><path d="m345.74,90.6v.38c-.4-.02-.73-.15-.97-.4s-.37-.55-.37-.9.11-.65.34-.88c.23-.23.51-.35.84-.35.25,0,.47.07.68.2s.46.33.74.59l1.06.98v-1.83h.38v2.68l-1.63-1.51c-.29-.26-.51-.45-.68-.57-.17-.11-.35-.17-.57-.17s-.4.08-.56.25-.24.37-.24.62.08.45.25.62c.17.16.4.26.71.28h.02Z"/><path d="m362.03,104.89l-3.95-.56v-.06l3.24-1.61-3.24-1.59v-.06l3.95-.57v.39l-2.83.38,2.83,1.4v.1l-2.85,1.41,2.85.39v.38h0Z"/><path d="m358.08,99.66v-.4h3.57v-1.52h.38v1.92h-3.95Z"/><path d="m358.08,97.11v-.79c0-.47.02-.77.05-.91.04-.14.1-.27.19-.39s.21-.21.34-.28c.14-.07.29-.1.46-.1.27,0,.49.07.67.22.17.15.28.33.33.55s.07.56.07,1.02v.28h1.84v.4h-3.95,0Zm.38-.4h1.35v-.67c0-.4-.06-.67-.2-.8s-.3-.2-.49-.2c-.44,0-.67.32-.67.96v.7h.01Z"/><path d="m362.44,94.34v-2.75h.27v2.75h-.27Z"/><path d="m357.98,89.24v-.08h2.75v-.48h.38v.48h.92v.39h-.92v1.89l-3.13-2.21h0Zm2.75.31h-1.64l1.64,1.17v-1.17Z"/><path d="m375.61,104.9l-3.95-.56v-.06l3.24-1.61-3.24-1.59v-.06l3.95-.57v.39l-2.83.38,2.83,1.4v.1l-2.85,1.41,2.85.39v.38h0Z"/><path d="m371.66,99.67v-.4h3.57v-1.52h.38v1.92h-3.95Z"/><path d="m371.66,97.13v-.79c0-.47.02-.77.05-.91.04-.14.1-.27.19-.39s.21-.21.34-.28c.14-.07.29-.1.46-.1.27,0,.49.07.67.22.17.15.28.33.33.55s.07.56.07,1.02v.28h1.84v.4h-3.95,0Zm.38-.4h1.35v-.67c0-.4-.06-.67-.2-.8s-.3-.2-.49-.2c-.44,0-.67.32-.67.96v.7h.01Z"/><path d="m376.02,94.35v-2.75h.28v2.75h-.28Z"/><path d="m371.56,89.58l.21-.32,1.62,1.07c-.05-.15-.08-.29-.08-.43,0-.29.12-.55.35-.77s.52-.33.85-.33.62.12.85.36.35.53.35.87-.12.63-.35.86-.52.34-.86.34c-.16,0-.33-.03-.5-.09s-.39-.18-.65-.36l-1.79-1.2h0Zm2.93-.4c-.23,0-.43.08-.59.24s-.24.36-.24.59.08.43.24.59.36.24.59.24.43-.08.59-.24.24-.36.24-.59-.08-.42-.24-.59-.36-.24-.59-.24Z"/><path d="m389.19,104.83l-3.95-.56v-.06l3.24-1.61-3.24-1.59v-.06l3.95-.57v.39l-2.83.38,2.83,1.4v.1l-2.85,1.41,2.85.39v.38h0Z"/><path d="m385.24,99.6v-.4h3.57v-1.52h.38v1.92h-3.95Z"/><path d="m385.24,97.06v-.79c0-.47.02-.77.05-.91.04-.14.1-.27.19-.39s.21-.21.34-.28c.14-.07.29-.1.46-.1.27,0,.49.07.67.22.17.15.28.33.33.55.04.22.07.56.07,1.02v.28h1.84v.4h-3.95,0Zm.38-.4h1.35v-.67c0-.4-.06-.67-.2-.8s-.3-.2-.49-.2c-.44,0-.67.32-.67.96v.7h.01Z"/><path d="m389.6,94.28v-2.75h.27v2.75h-.27Z"/><path d="m387.02,89.42c.25-.5.59-.75,1.03-.75.35,0,.65.12.88.37s.35.57.35.97-.12.72-.35.97-.52.36-.85.36c-.46,0-.82-.25-1.07-.76-.21.38-.49.58-.85.58-.27,0-.51-.11-.72-.34s-.31-.5-.31-.82.1-.59.3-.81c.2-.22.45-.34.74-.34.35,0,.63.19.84.57h.01Zm-.86-.17c-.18,0-.33.07-.45.21s-.19.32-.19.54.06.4.19.55c.13.14.28.21.46.21s.34-.08.48-.23c.14-.16.21-.33.21-.53s-.07-.37-.21-.52c-.14-.15-.3-.22-.49-.22h0Zm1.9-.18c-.22,0-.42.09-.59.27-.17.18-.25.4-.25.66s.09.48.26.67.38.28.62.28.43-.09.59-.26c.15-.17.23-.4.23-.68s-.08-.51-.25-.68-.37-.26-.61-.26h0Z"/><path d="m402.77,107.43l-3.95-.56v-.06l3.24-1.61-3.24-1.59v-.06l3.95-.57v.39l-2.83.38,2.83,1.4v.1l-2.85,1.41,2.85.39v.38h0Z"/><path d="m398.82,102.2v-.4h3.57v-1.52h.38v1.92h-3.95Z"/><path d="m398.82,99.66v-.79c0-.47.02-.77.05-.91.04-.14.1-.27.19-.39s.21-.21.34-.28c.14-.07.29-.1.46-.1.27,0,.49.07.67.22.17.15.28.33.33.55s.07.56.07,1.02v.28h1.84v.4h-3.95,0Zm.38-.4h1.35v-.67c0-.4-.06-.67-.2-.8s-.3-.2-.49-.2c-.44,0-.67.32-.67.96v.7h.01Z"/><path d="m403.18,96.88v-2.75h.27v2.75h-.27Z"/><path d="m398.82,93.12v-.78h3.95v.39h-3.56v.62l-.38-.24h-.01Z"/><path d="m402.87,89.58c0,.43-.18.75-.53.98s-.87.34-1.55.34-1.2-.12-1.55-.34c-.35-.23-.53-.55-.53-.98s.18-.76.54-1c.36-.25.87-.37,1.54-.37s1.18.12,1.54.37.54.58.54,1h0Zm-3.77,0c0,.3.15.54.44.71.29.17.72.25,1.27.25,1.14,0,1.71-.32,1.71-.96,0-.31-.15-.55-.45-.73s-.72-.26-1.27-.26-.96.09-1.26.27-.44.42-.44.72h0Z"/><path d="m416.35,106.73l-3.95-.56v-.06l3.24-1.61-3.24-1.59v-.06l3.95-.57v.39l-2.83.38,2.83,1.4v.1l-2.85,1.41,2.85.39v.38h0Z"/><path d="m412.4,101.5v-.4h3.57v-1.52h.38v1.92h-3.95Z"/><path d="m412.4,98.96v-.79c0-.47.02-.77.05-.91.04-.14.1-.27.19-.39s.21-.21.34-.28c.14-.07.29-.1.46-.1.27,0,.49.07.67.22.17.15.28.33.33.55s.07.56.07,1.02v.28h1.84v.4h-3.95,0Zm.38-.4h1.35v-.67c0-.4-.06-.67-.2-.8s-.3-.2-.49-.2c-.44,0-.67.32-.67.96v.7h.01Z"/><path d="m416.76,96.18v-2.75h.28v2.75h-.28Z"/><path d="m412.4,92.42v-.78h3.95v.39h-3.56v.62l-.38-.24h-.01Z"/><path d="m413.64,89.75v.38c-.4-.02-.73-.15-.97-.4s-.37-.55-.37-.9.11-.65.34-.88c.23-.23.51-.35.84-.35.25,0,.47.07.68.2s.46.33.74.59l1.06.98v-1.83h.38v2.68l-1.63-1.51c-.29-.26-.51-.45-.68-.57-.16-.11-.35-.17-.57-.17s-.4.08-.56.25-.24.37-.24.62.08.45.25.62c.17.16.4.26.71.28h.02Z"/><path d="m425.98,99.7v-.79c0-.44.02-.74.06-.9.04-.16.1-.3.19-.42s.2-.21.34-.27c.14-.07.29-.1.46-.1.34,0,.6.12.79.36s.28.58.27,1.01l1.84-1.42v.49l-1.84,1.42v.23h1.84v.4h-3.95,0Zm.38-.4h1.34v-.68c0-.34-.05-.59-.16-.75-.11-.16-.28-.24-.51-.24s-.4.08-.51.24c-.11.16-.16.4-.16.73v.7h0Z"/><path d="m429.93,96.38h-3.95v-.09l3.02-2.62h-3.02v-.39h3.95v.09l-2.99,2.61h2.99v.41h0Z"/><path d="m429.93,92.31h-3.95v-.09l3.02-2.62h-3.02v-.39h3.95v.09l-2.99,2.61h2.99v.41h0Z"/><path d="m62.97,117.79v-4.67h.1l3.1,3.58v-3.58h.46v4.67h-.1l-3.08-3.53v3.53s-.48,0-.48,0Z"/><path d="m70.61,116.67l.38.19c-.37.69-.92,1.04-1.65,1.04-.52,0-.95-.18-1.29-.54-.34-.36-.51-.79-.51-1.29s.17-.93.51-1.29c.34-.36.76-.54,1.26-.54s.92.17,1.26.5c.34.33.52.79.53,1.37h-3.11c.01.42.14.75.39,1s.55.38.91.38c.58,0,1.02-.27,1.31-.83h.01Zm0-.94c-.06-.33-.21-.59-.46-.77-.24-.19-.52-.28-.84-.28-.65,0-1.08.35-1.27,1.05,0,0,2.57,0,2.57,0Z"/><path d="m72.76,117.25c0,.12.02.19.05.21.03.02.11.03.23.03h.27v.38c-.18.03-.33.05-.43.05-.19,0-.34-.05-.43-.14s-.14-.24-.14-.45v-2.6h-.61v-.38h.61v-1.33h.45v1.33h.7v.38h-.7v2.53h0Z"/><path d="m73.66,114.34h.46l1.05,2.62,1.11-2.62h.08l1.1,2.62,1.07-2.62h.47l-1.5,3.57h-.08l-1.1-2.59-1.11,2.59h-.08l-1.48-3.57h.01Z"/><path d="m79.31,116.09c0-.51.17-.94.52-1.3s.77-.54,1.27-.54.92.18,1.27.54c.35.36.52.79.52,1.29s-.17.93-.52,1.29c-.34.36-.77.54-1.28.54s-.93-.18-1.28-.54c-.35-.36-.52-.79-.52-1.28h.02Zm3.15,0c0-.38-.13-.71-.4-.99-.27-.28-.58-.42-.95-.42s-.68.14-.95.42c-.26.28-.4.61-.4,1s.13.71.38.98c.26.27.57.4.95.4s.7-.14.96-.41.39-.6.39-.98h.02Z"/><path d="m83.56,114.34h.46v.5c.12-.2.24-.35.35-.45.12-.1.24-.14.38-.14s.28.04.43.12l-.23.38c-.07-.04-.13-.06-.2-.06-.13,0-.26.07-.38.21s-.21.32-.26.54c-.06.22-.08.62-.08,1.19v1.17h-.46v-3.45h0Z"/><path d="m85.62,113.01h.45v2.72l1.59-1.39h.66l-1.9,1.64,2.01,1.81h-.63l-1.73-1.55v1.55h-.45v-4.78Z"/><path d="m66.21,3.85l-.36.28c-.43-.54-.99-.81-1.67-.81-.55,0-1.03.2-1.43.59s-.6.87-.6,1.43.2,1.04.59,1.42.88.57,1.47.57c.66,0,1.21-.26,1.64-.77l.36.28c-.23.3-.52.53-.87.69s-.74.24-1.16.24c-.74,0-1.35-.23-1.82-.7s-.71-1.06-.71-1.77c0-.44.11-.85.33-1.23.22-.38.52-.67.91-.88s.81-.32,1.25-.32.85.08,1.2.25.65.41.87.73h0Z"/><path d="m66.91,5.95c0-.51.17-.94.52-1.3s.77-.54,1.27-.54.92.18,1.27.54.52.79.52,1.29-.17.93-.52,1.29c-.34.36-.77.54-1.28.54s-.93-.18-1.28-.54-.52-.79-.52-1.28h.02Zm3.15,0c0-.38-.13-.71-.4-.99-.27-.28-.58-.42-.95-.42s-.68.14-.95.42c-.26.28-.4.61-.4,1s.13.71.38.98c.26.27.57.4.95.4s.7-.14.96-.41.39-.6.39-.98h.02Z"/><path d="m71.33,4.2h.45v.62c.36-.47.79-.71,1.29-.71.26,0,.49.07.7.21s.35.32.44.55.13.56.13,1v1.77h-.44v-1.64c0-.4-.02-.68-.06-.82s-.09-.26-.17-.36-.17-.18-.29-.23-.26-.08-.43-.08-.33.04-.49.12-.3.2-.41.34c-.11.15-.19.3-.23.46s-.06.47-.06.94v1.27h-.45v-3.45h.02Z"/><path d="m77.03,4.57l-.29.29c-.24-.23-.47-.34-.7-.34-.15,0-.27.05-.37.14-.1.09-.15.21-.15.34s.05.25.16.35.29.21.55.35.46.28.59.44.21.35.21.58c0,.29-.1.54-.3.73-.2.2-.45.3-.74.3-.2,0-.38-.04-.56-.13-.18-.09-.33-.21-.46-.36l.28-.31c.23.26.47.38.72.38.18,0,.33-.06.46-.18s.19-.25.19-.41-.06-.29-.17-.39-.29-.22-.55-.35-.45-.27-.58-.43-.19-.35-.19-.6.09-.45.27-.63.42-.26.71-.26.6.16.92.47v.02Z"/><path d="m78.66,7.1c0,.12.02.19.05.21.03.02.11.03.23.03h.27v.38c-.18.03-.33.05-.43.05-.19,0-.34-.05-.43-.14s-.14-.24-.14-.45v-2.6h-.61v-.38h.61v-1.33h.45v1.33h.7v.38h-.7v2.53h0Z"/><path d="m83.49,4.2v3.45h-.44v-.59c-.39.47-.84.71-1.35.71s-.93-.18-1.28-.54-.52-.79-.52-1.29.18-.93.53-1.29.77-.54,1.26-.54c.56,0,1.02.24,1.37.72v-.63h.44-.01Zm-.41,1.74c0-.39-.13-.73-.4-1-.26-.27-.59-.41-.97-.41s-.71.14-.97.42-.4.61-.4.99.13.71.4.99c.27.28.59.42.96.42s.7-.13.97-.4.4-.61.4-1.01h.01Z"/><path d="m84.49,4.2h.45v.62c.36-.47.79-.71,1.29-.71.26,0,.49.07.7.21s.35.32.44.55.13.56.13,1v1.77h-.44v-1.64c0-.4-.02-.68-.06-.82s-.09-.26-.17-.36-.17-.18-.29-.23-.26-.08-.43-.08-.33.04-.49.12-.3.2-.41.34c-.11.15-.19.3-.23.46s-.06.47-.06.94v1.27h-.45v-3.45h.02Z"/><path d="m89.29,7.1c0,.12.02.19.05.21.03.02.11.03.23.03h.27v.38c-.18.03-.33.05-.43.05-.19,0-.34-.05-.43-.14s-.14-.24-.14-.45v-2.6h-.61v-.38h.61v-1.33h.45v1.33h.7v.38h-.7v2.53h0Z"/><path d="m32.78,17.11h.47l1.19,2.66,1.15-2.66h.47l-2.06,4.71h-.47l.66-1.52-1.42-3.19h0Z"/><path d="m41.14,17.31v.44h-3.21v-.44h3.21Zm0,1.4v.44h-3.21v-.44h3.21Z"/><path d="m43.88,17.35h-.45c.02-.48.18-.86.47-1.15s.65-.43,1.07-.43.76.14,1.04.41c.27.27.41.6.41.99,0,.29-.08.56-.23.81-.15.25-.39.54-.7.88l-1.16,1.25h2.16v.45h-3.17l1.78-1.92c.31-.34.54-.6.67-.8.13-.2.2-.42.2-.67s-.1-.47-.3-.66-.44-.29-.73-.29-.54.1-.73.3-.3.48-.33.84h0Z"/><path d="m47.26,20.25c0-.11.04-.2.12-.28.08-.08.17-.11.28-.11s.2.04.27.11.11.17.11.28-.04.2-.11.28-.17.11-.27.11-.2-.04-.28-.12c-.08-.08-.12-.17-.12-.28h0Z"/><path d="m51.57,15.89v.44h-1.66l-.23,1.27c.21-.06.4-.09.58-.09.41,0,.75.14,1.02.43s.41.66.41,1.11-.15.83-.45,1.15c-.3.31-.69.47-1.18.47-.37,0-.69-.11-.95-.33-.26-.22-.42-.53-.47-.91h.47c.06.26.17.46.35.6s.38.21.62.21c.31,0,.57-.11.8-.34.22-.23.33-.52.33-.86,0-.31-.1-.57-.29-.77-.2-.2-.45-.3-.76-.3s-.66.08-1.04.25l.44-2.31h2.02v-.02Z"/><path d="m53.17,19.12l-1,1.44h-.53l1.26-1.82-1.14-1.63h.53l.87,1.25.86-1.25h.53l-1.13,1.62,1.28,1.83h-.54l-1.01-1.44h.02Z"/><path d="m58.2,18v-1.37h.43v1.37h1.39v.44h-1.39v1.38h-.43v-1.38h-1.39v-.44h1.39Z"/><path d="m62.76,17.35h-.45c.02-.48.18-.86.47-1.15s.65-.43,1.07-.43.76.14,1.04.41c.27.27.41.6.41.99,0,.29-.08.56-.23.81s-.39.54-.7.88l-1.16,1.25h2.16v.45h-3.17l1.78-1.92c.31-.34.54-.6.67-.8s.2-.42.2-.67-.1-.47-.3-.66c-.2-.19-.44-.29-.73-.29s-.54.1-.73.3-.3.48-.33.84h0Z"/><path d="m66.47,16.97h-.47c.09-.39.25-.68.5-.89s.54-.31.9-.31.66.12.92.35c.26.23.39.52.39.85,0,.4-.2.72-.6.96.27.11.48.28.63.5s.22.47.22.73c0,.41-.15.77-.45,1.06-.3.3-.68.45-1.14.45-.41,0-.74-.12-1.01-.35s-.44-.57-.53-1.02h.46c.08.31.21.54.38.69s.41.22.72.22.57-.1.79-.3c.21-.2.32-.45.32-.74s-.12-.53-.35-.71c-.23-.18-.57-.27-1.02-.28v-.43c.32,0,.58-.07.78-.22s.3-.33.3-.55-.08-.4-.24-.55c-.16-.15-.36-.22-.59-.22s-.42.06-.56.19c-.14.12-.26.31-.36.56h0Z"/><path d="m69.68,20.25c0-.11.04-.2.12-.28s.17-.11.28-.11.2.04.27.11.11.17.11.28-.04.2-.11.28-.17.11-.27.11-.2-.04-.28-.12-.12-.17-.12-.28h0Z"/><path d="m73.4,15.77h.09v3.25h.57v.45h-.57v1.09h-.46v-1.09h-2.24l2.61-3.7Zm-.37,3.25v-1.94l-1.38,1.94h1.38Z"/><path d="m33.25,23.94h.93c.52,0,.88.02,1.07.07s.35.12.49.22c.14.1.24.24.32.4.08.16.12.35.12.55,0,.4-.14.71-.42.94s-.68.33-1.2.32l1.68,2.17h-.58l-1.68-2.17h-.27v2.17h-.47v-4.67h.01Zm.47.46v1.59h.81c.4,0,.69-.06.88-.19s.28-.33.28-.61-.09-.48-.28-.6c-.19-.13-.47-.19-.86-.19h-.83Z"/><path d="m37.26,23.52h-.31c0-.33.12-.59.33-.79s.45-.3.74-.3.53.09.72.28.29.42.29.69c0,.2-.05.39-.16.56s-.27.37-.48.61l-.81.87h1.49v.31h-2.2l1.23-1.33c.22-.23.37-.42.46-.55.09-.14.14-.29.14-.46s-.07-.33-.2-.46c-.14-.13-.31-.2-.51-.2s-.37.07-.5.2c-.13.14-.21.33-.23.58h0Z"/><path d="m44.43,25.36v.44h-3.21v-.44h3.21Zm0,1.4v.44h-3.21v-.44h3.21Z"/><path d="m48.19,28.73c-.5,0-.89-.21-1.16-.62-.27-.41-.41-1.02-.41-1.83s.14-1.42.41-1.83.66-.62,1.15-.62.89.21,1.19.63c.29.42.44,1.03.44,1.82s-.15,1.39-.44,1.82-.69.63-1.18.63h0Zm.01-4.46c-.36,0-.64.17-.84.52s-.3.85-.3,1.5c0,1.34.38,2.02,1.14,2.02.37,0,.66-.18.86-.53.21-.35.31-.85.31-1.5s-.11-1.14-.32-1.49-.5-.52-.85-.52Z"/><path d="m50.29,28.31c0-.11.04-.2.12-.28s.17-.11.28-.11.2.04.27.11.11.17.11.28-.04.2-.11.28-.17.11-.27.11-.2-.04-.28-.12-.12-.17-.12-.28h0Z"/><path d="m52.28,23.95h.92v4.67h-.46v-4.21h-.73l.28-.46h0Z"/><path d="m57.07,23.83l.38.25-1.26,1.91c.18-.06.35-.09.51-.09.35,0,.65.14.91.41.26.28.39.61.39,1.01s-.14.73-.43,1c-.28.27-.63.41-1.03.41s-.74-.14-1.01-.42-.41-.62-.41-1.01c0-.19.04-.39.11-.59s.21-.46.42-.77l1.42-2.11h0Zm.47,3.46c0-.27-.1-.5-.29-.7-.19-.19-.42-.29-.7-.29s-.5.1-.7.29c-.19.19-.29.42-.29.7s.1.5.29.7c.19.19.42.29.69.29s.5-.1.69-.29c.19-.19.29-.42.29-.7h.02Z"/><path d="m33.22,33.18h.93c.55,0,.91.02,1.08.06.17.04.32.12.46.23s.25.24.33.41c.08.16.12.34.12.54,0,.32-.09.58-.26.79-.17.2-.39.33-.65.39-.26.05-.66.08-1.21.08h-.33v2.17h-.47v-4.67h0Zm.47.46v1.59h.79c.47,0,.79-.07.94-.23s.23-.35.23-.58c0-.52-.38-.79-1.14-.79h-.83.01Z"/><path d="m41.64,34.59v.44h-3.21v-.44h3.21Zm0,1.4v.44h-3.21v-.44h3.21Z"/><path d="m45.4,37.96c-.5,0-.89-.21-1.16-.62-.27-.41-.41-1.02-.41-1.83s.14-1.42.41-1.83.66-.62,1.15-.62.89.21,1.19.63c.29.42.44,1.03.44,1.82s-.15,1.39-.44,1.82-.69.63-1.18.63h0Zm0-4.46c-.36,0-.64.17-.84.52s-.3.85-.3,1.5c0,1.34.38,2.02,1.14,2.02.37,0,.66-.18.86-.53.21-.35.31-.85.31-1.5s-.11-1.14-.32-1.49-.5-.52-.85-.52Z"/><path d="m47.5,37.54c0-.11.04-.2.12-.28.08-.08.17-.11.28-.11s.2.04.27.11.11.17.11.28-.04.2-.11.28-.17.11-.27.11-.2-.04-.28-.12-.12-.17-.12-.28h0Z"/><path d="m49.41,34.26h-.47c.09-.39.25-.68.5-.89s.54-.31.9-.31.66.12.92.35c.26.23.39.52.39.85,0,.4-.2.72-.6.96.27.11.48.28.63.5s.22.47.22.73c0,.41-.15.77-.45,1.06-.3.3-.68.45-1.14.45-.41,0-.74-.12-1.01-.35s-.44-.57-.53-1.02h.46c.08.31.21.54.38.69s.41.22.72.22.57-.1.79-.3c.21-.2.32-.45.32-.74s-.12-.53-.35-.71c-.23-.18-.57-.27-1.02-.28v-.43c.32,0,.58-.07.78-.22s.3-.33.3-.55-.08-.4-.24-.55c-.16-.15-.36-.22-.59-.22s-.42.06-.56.19c-.14.12-.26.31-.36.56h0Z"/><path d="m54.65,35.28c.59.29.88.7.88,1.22,0,.42-.15.76-.44,1.04s-.68.42-1.15.42-.86-.14-1.14-.42c-.29-.28-.43-.61-.43-1,0-.55.3-.97.9-1.26-.45-.24-.68-.58-.68-1.01,0-.32.13-.6.4-.85.27-.25.59-.37.96-.37s.7.12.96.36.4.53.4.87c0,.42-.22.75-.67.99h.01Zm.42,1.23c0-.26-.11-.5-.32-.7s-.47-.3-.78-.3-.57.1-.79.31-.33.45-.33.73.1.51.3.69c.2.18.47.27.8.27s.6-.1.81-.29c.21-.2.31-.43.31-.72h0Zm-.21-2.24c0-.21-.08-.39-.24-.54-.16-.15-.38-.22-.64-.22s-.48.07-.65.22-.25.33-.25.54.09.4.28.57c.18.17.39.25.63.25s.44-.08.61-.25c.17-.16.26-.36.26-.58h0Z"/><path d="m58.95,33.18v.44h-1.66l-.23,1.27c.21-.06.4-.09.58-.09.41,0,.75.14,1.02.43s.41.66.41,1.11-.15.83-.45,1.15c-.3.31-.69.47-1.18.47-.37,0-.69-.11-.95-.33-.26-.22-.42-.53-.47-.91h.47c.06.26.17.46.35.6s.38.21.62.21c.31,0,.57-.11.8-.34.22-.23.33-.52.33-.86,0-.31-.1-.57-.29-.77-.2-.2-.45-.3-.76-.3s-.66.08-1.04.25l.44-2.31h2.02v-.02Z"/><path d="m137.35,17.25h.47l1.19,2.66,1.15-2.66h.47l-2.06,4.71h-.47l.66-1.52-1.42-3.19h0Z"/><path d="m145.71,17.45v.44h-3.21v-.44h3.21Zm0,1.4v.44h-3.21v-.44h3.21Z"/><path d="m148.55,17.12h-.47c.09-.39.25-.68.5-.89s.54-.31.9-.31.66.12.92.35c.26.23.39.52.39.85,0,.4-.2.72-.6.96.27.11.48.28.63.5s.22.47.22.73c0,.41-.15.77-.45,1.06-.3.3-.68.45-1.14.45-.41,0-.74-.12-1.01-.35s-.44-.57-.53-1.02h.46c.08.31.21.54.38.69s.41.22.72.22.57-.1.79-.3c.21-.2.32-.45.32-.74s-.12-.53-.35-.71c-.23-.18-.57-.27-1.02-.28v-.43c.32,0,.58-.07.78-.22s.3-.33.3-.55-.08-.4-.24-.55c-.16-.15-.36-.22-.59-.22s-.42.06-.56.19c-.14.12-.26.31-.36.56h0Z"/><path d="m151.76,20.4c0-.11.04-.2.12-.28s.17-.11.28-.11.2.04.27.11.11.17.11.28-.04.2-.11.28-.17.11-.27.11-.2-.04-.28-.12-.12-.17-.12-.28h0Z"/><path d="m153.68,17.12h-.47c.09-.39.25-.68.5-.89s.54-.31.9-.31.66.12.92.35c.26.23.39.52.39.85,0,.4-.2.72-.6.96.27.11.48.28.63.5s.22.47.22.73c0,.41-.15.77-.45,1.06-.3.3-.68.45-1.14.45-.41,0-.74-.12-1.01-.35s-.44-.57-.53-1.02h.46c.08.31.21.54.38.69s.41.22.72.22.57-.1.79-.3c.21-.2.32-.45.32-.74s-.12-.53-.35-.71c-.23-.18-.57-.27-1.02-.28v-.43c.32,0,.58-.07.78-.22s.3-.33.3-.55-.08-.4-.24-.55c-.16-.15-.36-.22-.59-.22s-.42.06-.56.19c-.14.12-.26.31-.36.56h0Z"/><path d="m158.04,19.26l-1,1.44h-.53l1.26-1.82-1.14-1.63h.53l.87,1.25.86-1.25h.53l-1.13,1.62,1.28,1.83h-.54l-1.01-1.44h.02Z"/><path d="m163.07,18.15v-1.37h.43v1.37h1.39v.44h-1.39v1.38h-.43v-1.38h-1.39v-.44h1.39Z"/><path d="m168.08,16.04h.92v4.67h-.46v-4.21h-.73l.28-.46h0Z"/><path d="m173.12,15.92h.09v3.25h.57v.45h-.57v1.09h-.46v-1.09h-2.24l2.61-3.7h0Zm-.37,3.25v-1.94l-1.38,1.94h1.38Z"/><path d="m174.49,20.4c0-.11.04-.2.12-.28s.17-.11.28-.11.2.04.27.11.11.17.11.28-.04.2-.11.28-.17.11-.27.11-.2-.04-.28-.12-.12-.17-.12-.28h0Z"/><path d="m175.72,16.04h2.96l-2.5,4.78-.38-.19,2.16-4.15h-2.24v-.44Z"/><path d="m137.82,24.09h.93c.52,0,.88.02,1.07.07s.35.12.49.22.24.24.32.4c.08.16.12.35.12.55,0,.4-.14.71-.42.94s-.68.33-1.2.32l1.68,2.17h-.58l-1.68-2.17h-.27v2.17h-.47v-4.67h0Zm.47.46v1.59h.81c.4,0,.69-.06.88-.19s.28-.33.28-.61-.09-.48-.28-.6c-.19-.13-.47-.19-.86-.19h-.83Z"/><path d="m141.83,23.66h-.31c0-.33.12-.59.33-.79s.45-.3.74-.3.53.09.72.28.29.42.29.69c0,.2-.05.39-.16.56s-.27.37-.48.61l-.81.87h1.49v.31h-2.2l1.23-1.33c.22-.23.37-.42.46-.55.09-.14.14-.29.14-.46s-.07-.33-.2-.46c-.14-.13-.31-.2-.51-.2s-.37.07-.5.2c-.13.14-.21.33-.23.58h0Z"/><path d="m149,25.51v.44h-3.21v-.44h3.21Zm0,1.4v.44h-3.21v-.44h3.21Z"/><path d="m152.76,28.87c-.5,0-.89-.21-1.16-.62-.27-.41-.41-1.02-.41-1.83s.14-1.42.41-1.83.66-.62,1.15-.62.89.21,1.19.63c.29.42.44,1.03.44,1.82s-.15,1.39-.44,1.82-.69.63-1.18.63h0Zm0-4.46c-.36,0-.64.17-.84.52s-.3.85-.3,1.5c0,1.34.38,2.02,1.14,2.02.37,0,.66-.18.86-.53.21-.35.31-.85.31-1.5s-.11-1.14-.32-1.49-.5-.52-.85-.52h0Z"/><path d="m154.86,28.45c0-.11.04-.2.12-.28s.17-.11.28-.11.2.04.27.11.11.17.11.28-.04.2-.11.28-.17.11-.27.11-.2-.04-.28-.12-.12-.17-.12-.28h0Z"/><path d="m156.82,25.55h-.45c.02-.48.18-.86.47-1.15.29-.29.65-.43,1.07-.43s.76.14,1.04.41c.27.27.41.6.41.99,0,.29-.08.56-.23.81s-.39.54-.7.88l-1.16,1.25h2.16v.45h-3.17l1.78-1.92c.31-.34.54-.6.67-.8s.2-.42.2-.67-.1-.47-.3-.66-.44-.29-.73-.29-.54.1-.73.3-.3.48-.33.84h0Z"/><path d="m161.41,28.87c-.5,0-.89-.21-1.16-.62-.27-.41-.41-1.02-.41-1.83s.14-1.42.41-1.83.66-.62,1.15-.62.89.21,1.19.63c.29.42.44,1.03.44,1.82s-.15,1.39-.44,1.82-.69.63-1.18.63h0Zm0-4.46c-.36,0-.64.17-.84.52s-.3.85-.3,1.5c0,1.34.38,2.02,1.14,2.02.37,0,.66-.18.86-.53.21-.35.31-.85.31-1.5s-.11-1.14-.32-1.49-.5-.52-.85-.52h0Z"/><path d="m137.79,33.32h.93c.55,0,.91.02,1.08.06s.32.12.46.23.25.24.33.41c.08.16.12.34.12.54,0,.32-.09.58-.26.79-.17.2-.39.33-.65.39-.26.05-.66.08-1.21.08h-.33v2.17h-.47v-4.67h0Zm.47.46v1.59h.79c.47,0,.79-.07.94-.23s.23-.35.23-.58c0-.52-.38-.79-1.14-.79h-.83.01Z"/><path d="m146.2,34.74v.44h-3.21v-.44h3.21Zm0,1.4v.44h-3.21v-.44h3.21Z"/><path d="m149.96,38.1c-.5,0-.89-.21-1.16-.62-.27-.41-.41-1.02-.41-1.83s.14-1.42.41-1.83.66-.62,1.15-.62.89.21,1.19.63c.29.42.44,1.03.44,1.82s-.15,1.39-.44,1.82-.69.63-1.18.63h0Zm0-4.46c-.36,0-.64.17-.84.52s-.3.85-.3,1.5c0,1.34.38,2.02,1.14,2.02.37,0,.66-.18.86-.53.21-.35.31-.85.31-1.5s-.11-1.14-.32-1.49-.5-.52-.85-.52h0Z"/><path d="m152.06,37.68c0-.11.04-.2.12-.28s.17-.11.28-.11.2.04.27.11.11.17.11.28-.04.2-.11.28-.17.11-.27.11-.2-.04-.28-.12-.12-.17-.12-.28h0Z"/><path d="m154.03,34.78h-.45c.02-.48.18-.86.47-1.15.29-.29.65-.43,1.07-.43s.76.14,1.04.41c.27.27.41.6.41.99,0,.29-.08.56-.23.81s-.39.54-.7.88l-1.16,1.25h2.16v.45h-3.17l1.78-1.92c.31-.34.54-.6.67-.8s.2-.42.2-.67-.1-.47-.3-.66-.44-.29-.73-.29-.54.1-.73.3-.3.48-.33.84h0Z"/><path d="m158.12,38.1l-.38-.25,1.26-1.91c-.17.06-.33.08-.49.08-.37,0-.69-.13-.94-.4-.25-.27-.38-.6-.38-1s.14-.74.42-1.01c.28-.27.63-.41,1.04-.41s.75.14,1.01.42c.27.28.4.61.4,1,0,.22-.04.43-.13.65s-.22.46-.39.71l-1.42,2.11h0Zm-.47-3.46c0,.27.1.5.29.7.19.19.42.29.7.29s.5-.1.7-.29c.19-.19.29-.42.29-.69s-.09-.5-.29-.69c-.19-.19-.42-.29-.7-.29s-.5.1-.7.29c-.19.19-.29.42-.29.7v-.02Z"/><path d="m162.25,38.1c-.5,0-.89-.21-1.16-.62-.27-.41-.41-1.02-.41-1.83s.14-1.42.41-1.83.66-.62,1.15-.62.89.21,1.19.63c.29.42.44,1.03.44,1.82s-.15,1.39-.44,1.82-.69.63-1.18.63h0Zm0-4.46c-.36,0-.64.17-.84.52s-.3.85-.3,1.5c0,1.34.38,2.02,1.14,2.02.37,0,.66-.18.86-.53.21-.35.31-.85.31-1.5s-.11-1.14-.32-1.49-.5-.52-.85-.52h0Z"/><path d="m241.05,17.06h.47l1.19,2.66,1.15-2.66h.47l-2.06,4.71h-.47l.66-1.52-1.42-3.19h.01Z"/><path d="m249.41,17.27v.44h-3.21v-.44h3.21Zm0,1.4v.44h-3.21v-.44h3.21Z"/><path d="m253.78,15.73l.38.25-1.26,1.91c.18-.06.35-.09.51-.09.35,0,.65.14.91.41.26.28.39.61.39,1.01s-.14.73-.43,1c-.28.27-.63.41-1.03.41s-.74-.14-1.01-.42-.41-.62-.41-1.01c0-.19.04-.39.11-.59.07-.2.21-.46.42-.77l1.42-2.11h0Zm.47,3.46c0-.27-.1-.5-.29-.7-.19-.19-.42-.29-.7-.29s-.5.1-.7.29c-.19.19-.29.42-.29.7s.1.5.29.7c.19.19.42.29.69.29s.5-.1.69-.29c.19-.19.29-.42.29-.7h.02Z"/><path d="m255.43,20.21c0-.11.04-.2.12-.28s.17-.11.28-.11.2.04.27.11.11.17.11.28-.04.2-.11.28-.17.11-.27.11-.2-.04-.28-.12-.12-.17-.12-.28h0Z"/><path d="m259.75,15.85v.44h-1.66l-.23,1.27c.21-.06.4-.09.58-.09.41,0,.75.14,1.02.43s.41.66.41,1.11-.15.83-.45,1.15c-.3.31-.69.47-1.18.47-.37,0-.69-.11-.95-.33s-.42-.53-.47-.91h.47c.06.26.17.46.35.6s.38.21.62.21c.31,0,.57-.11.8-.34.22-.23.33-.52.33-.86,0-.31-.1-.57-.29-.77-.2-.2-.45-.3-.76-.3s-.66.08-1.04.25l.44-2.31h2.02v-.02Z"/><path d="m261.76,19.07l-1,1.44h-.53l1.26-1.82-1.14-1.63h.53l.87,1.25.86-1.25h.53l-1.13,1.62,1.28,1.83h-.54l-1.01-1.44h.02Z"/><path d="m266.79,17.96v-1.37h.43v1.37h1.39v.44h-1.39v1.38h-.43v-1.38h-1.39v-.44h1.39Z"/><path d="m272.37,20.63c-.5,0-.89-.21-1.16-.62-.27-.41-.41-1.02-.41-1.83s.14-1.42.41-1.83.66-.62,1.15-.62.89.21,1.19.63c.29.42.44,1.03.44,1.82s-.15,1.39-.44,1.82-.69.63-1.18.63h0Zm.01-4.46c-.36,0-.64.17-.84.52s-.3.85-.3,1.5c0,1.34.38,2.02,1.14,2.02.37,0,.66-.18.86-.53.21-.35.31-.85.31-1.5s-.11-1.14-.32-1.49c-.21-.35-.5-.52-.85-.52Z"/><path d="m274.47,20.21c0-.11.04-.2.12-.28s.17-.11.28-.11.2.04.27.11.11.17.11.28-.04.2-.11.28-.17.11-.27.11-.2-.04-.28-.12-.12-.17-.12-.28h0Z"/><path d="m278.19,15.73h.09v3.25h.57v.45h-.57v1.09h-.46v-1.09h-2.24l2.61-3.7Zm-.37,3.25v-1.94l-1.38,1.94h1.38Z"/><path d="m241.52,23.9h.93c.52,0,.88.02,1.07.07s.35.12.49.22c.14.1.24.24.32.4.08.16.12.35.12.55,0,.4-.14.71-.42.94s-.68.33-1.2.32l1.68,2.17h-.58l-1.68-2.17h-.27v2.17h-.47v-4.67h.01Zm.47.46v1.59h.81c.4,0,.69-.06.88-.19s.28-.33.28-.61-.09-.48-.28-.6c-.19-.13-.47-.19-.86-.19h-.83Z"/><path d="m245.53,23.47h-.31c.01-.33.12-.59.33-.79s.45-.3.74-.3.53.09.72.28.29.42.29.69c0,.2-.05.39-.16.56s-.27.37-.48.61l-.81.87h1.49v.31h-2.2l1.23-1.33c.22-.23.37-.42.46-.55.09-.14.14-.29.14-.46s-.07-.33-.2-.46c-.14-.13-.31-.2-.51-.2s-.37.07-.5.2c-.13.14-.21.33-.23.58h0Z"/><path d="m252.7,25.32v.44h-3.21v-.44h3.21Zm0,1.4v.44h-3.21v-.44h3.21Z"/><path d="m256.46,28.69c-.5,0-.89-.21-1.16-.62-.27-.41-.41-1.02-.41-1.83s.14-1.42.41-1.83.66-.62,1.15-.62.89.21,1.19.63c.29.42.44,1.03.44,1.82s-.15,1.39-.44,1.82-.69.63-1.18.63h0Zm.01-4.46c-.36,0-.64.17-.84.52s-.3.85-.3,1.5c0,1.34.38,2.02,1.14,2.02.37,0,.66-.18.86-.53.21-.35.31-.85.31-1.5s-.11-1.14-.32-1.49c-.21-.35-.5-.52-.85-.52Z"/><path d="m258.56,28.27c0-.11.04-.2.12-.28s.17-.11.28-.11.2.04.27.11.11.17.11.28-.04.2-.11.28-.17.11-.27.11-.2-.04-.28-.12-.12-.17-.12-.28h0Z"/><path d="m260.47,24.98h-.47c.09-.39.25-.68.5-.89s.54-.31.9-.31.66.12.92.35c.26.23.39.52.39.85,0,.4-.2.72-.6.96.27.11.48.28.63.5s.22.47.22.73c0,.41-.15.77-.45,1.06-.3.3-.68.45-1.14.45-.41,0-.74-.12-1.01-.35s-.44-.57-.53-1.02h.46c.08.31.21.54.38.69s.41.22.72.22.57-.1.79-.3c.21-.2.32-.45.32-.74s-.12-.53-.35-.71c-.23-.18-.57-.27-1.02-.28v-.43c.32,0,.58-.07.78-.22s.3-.33.3-.55-.08-.4-.24-.55c-.16-.15-.36-.22-.59-.22s-.42.06-.56.19c-.14.12-.26.31-.36.56h0Z"/><path d="m263.53,23.9h2.96l-2.5,4.78-.38-.19,2.16-4.15h-2.24v-.44Z"/><path d="m241.49,33.13h.93c.55,0,.91.02,1.08.06.17.04.32.12.46.23.14.11.25.24.33.41.08.16.12.34.12.54,0,.32-.09.58-.26.79-.17.2-.39.33-.65.39-.26.05-.66.08-1.21.08h-.33v2.17h-.47v-4.67h0Zm.47.46v1.59h.79c.47,0,.79-.07.94-.23s.23-.35.23-.58c0-.52-.38-.79-1.14-.79h-.83,0Z"/><path d="m249.9,34.55v.44h-3.21v-.44h3.21Zm0,1.4v.44h-3.21v-.44h3.21Z"/><path d="m253.67,37.92c-.5,0-.89-.21-1.16-.62-.27-.41-.41-1.02-.41-1.83s.14-1.42.41-1.83.66-.62,1.15-.62.89.21,1.19.63c.29.42.44,1.03.44,1.82s-.15,1.39-.44,1.82-.69.63-1.18.63h0Zm.01-4.46c-.36,0-.64.17-.84.52s-.3.85-.3,1.5c0,1.34.38,2.02,1.14,2.02.37,0,.66-.18.86-.53.21-.35.31-.85.31-1.5s-.11-1.14-.32-1.49c-.21-.35-.5-.52-.85-.52Z"/><path d="m255.77,37.5c0-.11.04-.2.12-.28s.17-.11.28-.11.2.04.27.11.11.17.11.28-.04.2-.11.28-.17.11-.27.11-.2-.04-.28-.12-.12-.17-.12-.28h0Z"/><path d="m258.43,37.92c-.5,0-.89-.21-1.16-.62-.27-.41-.41-1.02-.41-1.83s.14-1.42.41-1.83.66-.62,1.15-.62.89.21,1.19.63c.29.42.44,1.03.44,1.82s-.15,1.39-.44,1.82-.69.63-1.18.63h0Zm.01-4.46c-.36,0-.64.17-.84.52s-.3.85-.3,1.5c0,1.34.38,2.02,1.14,2.02.37,0,.66-.18.86-.53.21-.35.31-.85.31-1.5s-.11-1.14-.32-1.49c-.21-.35-.5-.52-.85-.52Z"/><path d="m262.87,33.02h.09v3.25h.57v.45h-.57v1.09h-.46v-1.09h-2.24l2.61-3.7Zm-.37,3.25v-1.94l-1.38,1.94h1.38Z"/><path d="m266.47,33.02h.09v3.25h.57v.45h-.57v1.09h-.46v-1.09h-2.24l2.61-3.7Zm-.37,3.25v-1.94l-1.38,1.94h1.38Z"/><path d="m345.25,16.87h.47l1.19,2.66,1.15-2.66h.47l-2.06,4.71h-.47l.66-1.52-1.42-3.19h.01Z"/><path d="m353.61,17.07v.44h-3.21v-.44h3.21Zm0,1.4v.44h-3.21v-.44h3.21Z"/><path d="m356.45,16.73h-.47c.09-.39.25-.68.5-.89s.54-.31.9-.31.66.12.92.35c.26.23.39.52.39.85,0,.4-.2.72-.6.96.27.11.48.28.63.5s.22.47.22.73c0,.41-.15.77-.45,1.06-.3.3-.68.45-1.14.45-.41,0-.74-.12-1.01-.35s-.44-.57-.53-1.02h.46c.08.31.21.54.38.69s.41.22.72.22.57-.1.79-.3c.21-.2.32-.45.32-.74s-.12-.53-.35-.71c-.23-.18-.57-.27-1.02-.28v-.43c.32,0,.58-.07.78-.22s.3-.33.3-.55-.08-.4-.24-.55c-.16-.15-.36-.22-.59-.22s-.42.06-.56.19c-.14.12-.26.31-.36.56h0Z"/><path d="m359.66,20.02c0-.11.04-.2.12-.28s.17-.11.28-.11.2.04.27.11.11.17.11.28-.04.2-.11.28-.17.11-.27.11-.2-.04-.28-.12-.12-.17-.12-.28h0Z"/><path d="m362.33,20.44c-.5,0-.89-.21-1.16-.62-.27-.41-.41-1.02-.41-1.83s.14-1.42.41-1.83.66-.62,1.15-.62.89.21,1.19.63c.29.42.44,1.03.44,1.82s-.15,1.39-.44,1.82-.69.63-1.18.63h0Zm.01-4.46c-.36,0-.64.17-.84.52s-.3.85-.3,1.5c0,1.34.38,2.02,1.14,2.02.37,0,.66-.18.86-.53.21-.35.31-.85.31-1.5s-.11-1.14-.32-1.49c-.21-.35-.5-.52-.85-.52Z"/><path d="m366.28,18.88l-1,1.44h-.53l1.26-1.82-1.14-1.63h.53l.87,1.25.86-1.25h.53l-1.13,1.62,1.28,1.83h-.54l-1.01-1.44h.02Z"/><path d="m371.3,17.77v-1.37h.43v1.37h1.39v.44h-1.39v1.38h-.43v-1.38h-1.39v-.44h1.39Z"/><path d="m375.87,17.12h-.45c.02-.48.18-.86.47-1.15s.65-.43,1.07-.43.76.14,1.04.41c.27.27.41.6.41.99,0,.29-.08.56-.23.81-.15.25-.39.54-.7.88l-1.16,1.25h2.16v.45h-3.17l1.78-1.92c.31-.34.54-.6.67-.8s.2-.42.2-.67-.1-.47-.3-.66c-.2-.19-.44-.29-.73-.29s-.54.1-.73.3-.3.48-.33.84h0Z"/><path d="m379.25,20.02c0-.11.04-.2.12-.28s.17-.11.28-.11.2.04.27.11.11.17.11.28-.04.2-.11.28-.17.11-.27.11-.2-.04-.28-.12-.12-.17-.12-.28h0Z"/><path d="m380.47,15.66h2.96l-2.5,4.78-.38-.19,2.16-4.15h-2.24v-.44Z"/><path d="m345.71,23.71h.93c.52,0,.88.02,1.07.07s.35.12.49.22c.14.1.24.24.32.4.08.16.12.35.12.55,0,.4-.14.71-.42.94s-.68.33-1.2.32l1.68,2.17h-.58l-1.68-2.17h-.27v2.17h-.47v-4.67h.01Zm.47.46v1.59h.81c.4,0,.69-.06.88-.19s.28-.33.28-.61-.09-.48-.28-.6c-.19-.13-.47-.19-.86-.19h-.83Z"/><path d="m349.73,23.28h-.31c.01-.33.12-.59.33-.79s.45-.3.74-.3.53.09.72.28.29.42.29.69c0,.2-.05.39-.16.56s-.27.37-.48.61l-.81.87h1.49v.31h-2.2l1.23-1.33c.22-.23.37-.42.46-.55.09-.14.14-.29.14-.46s-.07-.33-.2-.46c-.14-.13-.31-.2-.51-.2s-.37.07-.5.2c-.13.14-.21.33-.23.58h0Z"/><path d="m356.9,25.13v.44h-3.21v-.44h3.21Zm0,1.4v.44h-3.21v-.44h3.21Z"/><path d="m360.66,28.5c-.5,0-.89-.21-1.16-.62-.27-.41-.41-1.02-.41-1.83s.14-1.42.41-1.83.66-.62,1.15-.62.89.21,1.19.63c.29.42.44,1.03.44,1.82s-.15,1.39-.44,1.82-.69.63-1.18.63h0Zm.01-4.46c-.36,0-.64.17-.84.52s-.3.85-.3,1.5c0,1.34.38,2.02,1.14,2.02.37,0,.66-.18.86-.53.21-.35.31-.85.31-1.5s-.11-1.14-.32-1.49c-.21-.35-.5-.52-.85-.52Z"/><path d="m362.76,28.07c0-.11.04-.2.12-.28s.17-.11.28-.11.2.04.27.11.11.17.11.28-.04.2-.11.28-.17.11-.27.11-.2-.04-.28-.12-.12-.17-.12-.28h0Z"/><path d="m366.48,23.6h.09v3.25h.57v.45h-.57v1.09h-.46v-1.09h-2.24l2.61-3.7Zm-.37,3.25v-1.94l-1.38,1.94h1.38Z"/><path d="m369.81,25.82c.59.29.88.7.88,1.22,0,.42-.15.76-.44,1.04s-.68.42-1.15.42-.86-.14-1.14-.42c-.29-.28-.43-.61-.43-1,0-.55.3-.97.9-1.26-.45-.24-.68-.58-.68-1.01,0-.32.13-.6.4-.85s.59-.37.96-.37.7.12.96.36c.26.24.4.53.4.87,0,.42-.22.75-.67.99h.01Zm.42,1.23c0-.26-.11-.5-.32-.7-.21-.2-.47-.3-.78-.3s-.57.1-.79.31-.33.45-.33.73.1.51.3.69c.2.18.47.27.8.27s.6-.1.81-.29c.21-.2.31-.43.31-.72h0Zm-.21-2.24c0-.21-.08-.39-.24-.54s-.38-.22-.64-.22-.48.07-.65.22c-.17.15-.25.33-.25.54s.09.4.28.57c.18.17.39.25.63.25s.44-.08.61-.25c.17-.16.26-.36.26-.58h0Z"/><path d="m345.69,32.94h.93c.55,0,.91.02,1.08.06.17.04.32.12.46.23.14.11.25.24.33.41.08.16.12.34.12.54,0,.32-.09.58-.26.79-.17.2-.39.33-.65.39-.26.05-.66.08-1.21.08h-.33v2.17h-.47v-4.67h0Zm.47.46v1.59h.79c.47,0,.79-.07.94-.23s.23-.35.23-.58c0-.52-.38-.79-1.14-.79h-.83,0Z"/><path d="m354.1,34.36v.44h-3.21v-.44h3.21Zm0,1.4v.44h-3.21v-.44h3.21Z"/><path d="m357.86,37.73c-.5,0-.89-.21-1.16-.62-.27-.41-.41-1.02-.41-1.83s.14-1.42.41-1.83.66-.62,1.15-.62.89.21,1.19.63c.29.42.44,1.03.44,1.82s-.15,1.39-.44,1.82-.69.63-1.18.63h0Zm.01-4.46c-.36,0-.64.17-.84.52s-.3.85-.3,1.5c0,1.34.38,2.02,1.14,2.02.37,0,.66-.18.86-.53.21-.35.31-.85.31-1.5s-.11-1.14-.32-1.49c-.21-.35-.5-.52-.85-.52Z"/><path d="m359.97,37.3c0-.11.04-.2.12-.28s.17-.11.28-.11.2.04.27.11.11.17.11.28-.04.2-.11.28-.17.11-.27.11-.2-.04-.28-.12-.12-.17-.12-.28h0Z"/><path d="m362.63,37.73c-.5,0-.89-.21-1.16-.62-.27-.41-.41-1.02-.41-1.83s.14-1.42.41-1.83.66-.62,1.15-.62.89.21,1.19.63c.29.42.44,1.03.44,1.82s-.15,1.39-.44,1.82-.69.63-1.18.63h0Zm.01-4.46c-.36,0-.64.17-.84.52s-.3.85-.3,1.5c0,1.34.38,2.02,1.14,2.02.37,0,.66-.18.86-.53.21-.35.31-.85.31-1.5s-.11-1.14-.32-1.49c-.21-.35-.5-.52-.85-.52Z"/><path d="m366.23,37.73c-.5,0-.89-.21-1.16-.62-.27-.41-.41-1.02-.41-1.83s.14-1.42.41-1.83.66-.62,1.15-.62.89.21,1.19.63c.29.42.44,1.03.44,1.82s-.15,1.39-.44,1.82-.69.63-1.18.63h0Zm.01-4.46c-.36,0-.64.17-.84.52s-.3.85-.3,1.5c0,1.34.38,2.02,1.14,2.02.37,0,.66-.18.86-.53.21-.35.31-.85.31-1.5s-.11-1.14-.32-1.49c-.21-.35-.5-.52-.85-.52Z"/><path d="m370.49,35.05c.59.29.88.7.88,1.22,0,.42-.15.76-.44,1.04s-.68.42-1.15.42-.86-.14-1.14-.42c-.29-.28-.43-.61-.43-1,0-.55.3-.97.9-1.26-.45-.24-.68-.58-.68-1.01,0-.32.13-.6.4-.85s.59-.37.96-.37.7.12.96.36c.26.24.4.53.4.87,0,.42-.22.75-.67.99h.01Zm.42,1.23c0-.26-.11-.5-.32-.7-.21-.2-.47-.3-.78-.3s-.57.1-.79.31-.33.45-.33.73.1.51.3.69c.2.18.47.27.8.27s.6-.1.81-.29c.21-.2.31-.43.31-.72h0Zm-.21-2.24c0-.21-.08-.39-.24-.54s-.38-.22-.64-.22-.48.07-.65.22c-.17.15-.25.33-.25.54s.09.4.28.57c.18.17.39.25.63.25s.44-.08.61-.25c.17-.16.26-.36.26-.58h0Z"/><path d="m169.09,6.78l.4-.23c.28.51.6.77.97.77.24,0,.44-.08.61-.23s.25-.34.25-.57c0-.18-.07-.36-.21-.54s-.38-.4-.71-.65-.55-.44-.67-.56c-.11-.12-.2-.26-.25-.4s-.08-.28-.08-.43c0-.3.11-.56.32-.77s.48-.31.81-.31c.26,0,.48.06.67.19s.38.32.55.57l-.38.29c-.12-.16-.25-.3-.38-.41s-.29-.16-.48-.16-.34.06-.46.17-.18.26-.18.43.05.32.16.45c.11.13.35.33.72.61s.65.53.82.77c.17.23.26.48.26.74,0,.34-.13.63-.39.88s-.57.37-.91.37c-.61,0-1.09-.33-1.43-.99h0Z"/><path d="m172.74,4.2h.44v.63c.35-.48.81-.72,1.37-.72.48,0,.9.18,1.25.54s.53.79.53,1.29-.17.93-.52,1.29-.76.54-1.25.54c-.53,0-.99-.24-1.38-.71v1.85h-.44v-4.71h0Zm3.15,1.74c0-.39-.13-.72-.4-.99-.27-.27-.59-.41-.98-.41s-.71.14-.97.41-.39.61-.39,1,.13.73.4,1c.27.27.59.41.96.41s.7-.14.97-.41c.27-.28.41-.61.41-1h0Z"/><path d="m180.6,4.2v3.45h-.44v-.59c-.39.47-.84.71-1.35.71s-.93-.18-1.28-.54-.52-.79-.52-1.29.18-.93.53-1.29.77-.54,1.26-.54c.56,0,1.02.24,1.37.72v-.63h.44,0Zm-.41,1.74c0-.39-.13-.73-.4-1-.26-.27-.59-.41-.97-.41s-.71.14-.97.42-.4.61-.4.99.13.71.4.99c.27.28.59.42.96.42s.7-.13.97-.4.4-.61.4-1.01h0Z"/><path d="m181.44,4.2h.46v.5c.12-.2.24-.35.35-.45.12-.1.24-.14.38-.14s.28.04.43.12l-.23.38c-.07-.04-.13-.06-.2-.06-.13,0-.26.07-.38.21s-.21.32-.26.54c-.06.22-.08.62-.08,1.19v1.17h-.46v-3.45h-.01Z"/><path d="m185.27,4.58l-.29.29c-.24-.23-.47-.34-.7-.34-.15,0-.27.05-.37.14-.1.09-.15.21-.15.34s.05.25.16.35.29.21.55.35c.26.14.46.28.59.44s.21.35.21.58c0,.29-.1.54-.3.73-.2.2-.45.3-.74.3-.2,0-.38-.04-.56-.13-.18-.09-.33-.21-.46-.36l.28-.31c.23.26.47.38.72.38.18,0,.33-.06.46-.18s.19-.25.19-.41-.06-.29-.17-.39-.29-.22-.55-.35c-.26-.13-.45-.27-.58-.43s-.19-.35-.19-.6.09-.45.27-.63.42-.26.71-.26.6.16.92.47v.02Z"/><path d="m188.96,6.53l.38.19c-.37.69-.92,1.04-1.65,1.04-.52,0-.95-.18-1.29-.54s-.51-.79-.51-1.29.17-.93.51-1.29.76-.54,1.26-.54.92.17,1.26.5.52.79.53,1.37h-3.11c0,.42.14.75.39,1s.55.38.91.38c.58,0,1.02-.27,1.31-.83h0Zm0-.94c-.06-.33-.21-.59-.46-.77-.24-.19-.52-.28-.84-.28-.65,0-1.08.35-1.27,1.05h2.57Z"/><path d="m264.19,6.78l.4-.23c.28.51.6.77.97.77.24,0,.44-.08.61-.23.17-.15.25-.34.25-.57,0-.18-.07-.36-.21-.54-.14-.18-.38-.4-.71-.65s-.55-.44-.67-.56c-.11-.12-.2-.26-.25-.4s-.08-.28-.08-.43c0-.3.11-.56.32-.77.21-.21.48-.31.81-.31.26,0,.48.06.67.19s.38.32.55.57l-.38.29c-.12-.16-.25-.3-.38-.41s-.29-.16-.48-.16-.34.06-.46.17-.18.26-.18.43.05.32.16.45c.11.13.35.33.72.61s.65.53.82.77c.17.23.26.48.26.74,0,.34-.13.63-.39.88s-.57.37-.91.37c-.61,0-1.09-.33-1.43-.99h-.01Z"/><path d="m267.31,4.2h.46l1.05,2.62,1.11-2.62h.08l1.1,2.62,1.07-2.62h.47l-1.5,3.57h-.08l-1.1-2.59-1.11,2.59h-.08l-1.48-3.57h.01Z"/><path d="m272.97,3.24c0-.1.04-.19.11-.26.07-.07.16-.11.26-.11s.19.04.26.11.11.16.11.26-.04.19-.11.26c-.07.07-.16.11-.26.11s-.19-.04-.26-.11-.11-.16-.11-.25h0Zm.14.96h.45v3.45h-.45v-3.45Z"/><path d="m275.32,7.1c0,.12.02.19.05.21s.11.03.23.03h.27v.38c-.18.03-.33.05-.43.05-.19,0-.34-.05-.43-.14s-.14-.24-.14-.45v-2.6h-.61v-.38h.61v-1.33h.45v1.33h.7v.38h-.7v2.53h0Z"/><path d="m280.05,4.91l-.35.22c-.3-.4-.72-.6-1.25-.6-.42,0-.76.13-1.05.4-.28.27-.42.6-.42.99s.14.73.42,1.01.63.42,1.05.42c.51,0,.92-.2,1.25-.6l.35.23c-.17.25-.41.44-.7.58-.29.13-.61.2-.95.2-.53,0-.98-.18-1.33-.53-.36-.35-.54-.78-.54-1.29s.18-.94.54-1.3c.36-.36.83-.54,1.39-.54.33,0,.64.07.93.21.28.14.5.34.65.59h.01Z"/><path d="m280.89,2.87h.45v1.95c.36-.47.79-.71,1.29-.71.26,0,.49.07.7.21s.35.32.44.55.13.56.13,1v1.77h-.45v-1.64c0-.35-.01-.6-.03-.73-.02-.13-.07-.26-.14-.38-.07-.12-.17-.21-.3-.28-.12-.06-.27-.09-.45-.09s-.34.04-.5.12-.3.2-.41.34c-.11.15-.19.3-.23.46s-.06.47-.06.94v1.27h-.45V2.87h.01Z"/><path d="m284.57,5.64h1.74v.45h-1.74v-.45Z"/><path d="m286.85,5.95c0-.51.17-.94.52-1.3.35-.36.77-.54,1.27-.54s.92.18,1.27.54c.35.36.52.79.52,1.29s-.17.93-.52,1.29c-.34.36-.77.54-1.28.54s-.93-.18-1.28-.54-.52-.79-.52-1.28h.02Zm3.15,0c0-.38-.13-.71-.4-.99s-.58-.42-.95-.42-.68.14-.95.42c-.26.28-.4.61-.4,1s.13.71.38.98c.26.27.57.4.95.4s.7-.14.96-.41c.26-.27.39-.6.39-.98h.02Z"/><path d="m291.27,4.2h.45v.62c.36-.47.79-.71,1.29-.71.26,0,.49.07.7.21s.35.32.44.55.13.56.13,1v1.77h-.44v-1.64c0-.4-.02-.68-.06-.82s-.09-.26-.17-.36-.17-.18-.29-.23-.26-.08-.43-.08-.33.04-.49.12-.3.2-.41.34c-.11.15-.19.3-.23.46s-.06.47-.06.94v1.27h-.45v-3.45h.02Z"/><path d="m298.6,4.91l-.35.22c-.3-.4-.72-.6-1.25-.6-.42,0-.76.13-1.05.4-.28.27-.42.6-.42.99s.14.73.42,1.01.63.42,1.05.42c.51,0,.92-.2,1.25-.6l.35.23c-.17.25-.41.44-.7.58-.29.13-.61.2-.95.2-.53,0-.98-.18-1.33-.53-.36-.35-.54-.78-.54-1.29s.18-.94.54-1.3c.36-.36.83-.54,1.39-.54.33,0,.64.07.93.21.28.14.5.34.65.59h.01Z"/><path d="m302.34,6.53l.38.19c-.37.69-.92,1.04-1.65,1.04-.52,0-.95-.18-1.29-.54s-.51-.79-.51-1.29.17-.93.51-1.29.76-.54,1.26-.54.92.17,1.26.5.52.79.53,1.37h-3.11c.01.42.14.75.39,1s.55.38.91.38c.58,0,1.02-.27,1.31-.83h0Zm0-.94c-.06-.33-.21-.59-.46-.77-.24-.19-.52-.28-.84-.28-.65,0-1.08.35-1.27,1.05h2.57,0Z"/><path d="m368.32,6.78l.4-.23c.28.51.6.77.97.77.24,0,.44-.08.61-.23.17-.15.25-.34.25-.57,0-.18-.07-.36-.21-.54-.14-.18-.38-.4-.71-.65s-.55-.44-.67-.56c-.11-.12-.2-.26-.25-.4s-.08-.28-.08-.43c0-.3.11-.56.32-.77.21-.21.48-.31.81-.31.26,0,.48.06.67.19s.38.32.55.57l-.38.29c-.12-.16-.25-.3-.38-.41s-.29-.16-.48-.16-.34.06-.46.17-.18.26-.18.43.05.32.16.45c.11.13.35.33.72.61s.65.53.82.77c.17.23.26.48.26.74,0,.34-.13.63-.39.88s-.57.37-.91.37c-.61,0-1.09-.33-1.43-.99h-.01Z"/><path d="m371.44,4.2h.46l1.05,2.62,1.11-2.62h.08l1.1,2.62,1.07-2.62h.47l-1.5,3.57h-.08l-1.1-2.59-1.11,2.59h-.08l-1.48-3.57h.01Z"/><path d="m377.1,3.24c0-.1.04-.19.11-.26.07-.07.16-.11.26-.11s.19.04.26.11.11.16.11.26-.04.19-.11.26c-.07.07-.16.11-.26.11s-.19-.04-.26-.11-.11-.16-.11-.25h0Zm.14.96h.45v3.45h-.45v-3.45Z"/><path d="m379.44,7.1c0,.12.02.19.05.21s.11.03.23.03h.27v.38c-.18.03-.33.05-.43.05-.19,0-.34-.05-.43-.14s-.14-.24-.14-.45v-2.6h-.61v-.38h.61v-1.33h.45v1.33h.7v.38h-.7v2.53h0Z"/><path d="m384.18,4.91l-.35.22c-.3-.4-.72-.6-1.25-.6-.42,0-.76.13-1.05.4-.28.27-.42.6-.42.99s.14.73.42,1.01.63.42,1.05.42c.51,0,.92-.2,1.25-.6l.35.23c-.17.25-.41.44-.7.58-.29.13-.61.2-.95.2-.53,0-.98-.18-1.33-.53-.36-.35-.54-.78-.54-1.29s.18-.94.54-1.3c.36-.36.83-.54,1.39-.54.33,0,.64.07.93.21.28.14.5.34.65.59h.01Z"/><path d="m385.02,2.87h.45v1.95c.36-.47.79-.71,1.29-.71.26,0,.49.07.7.21s.35.32.44.55.13.56.13,1v1.77h-.45v-1.64c0-.35-.01-.6-.03-.73-.02-.13-.07-.26-.14-.38-.07-.12-.17-.21-.3-.28-.12-.06-.27-.09-.45-.09s-.34.04-.5.12-.3.2-.41.34c-.11.15-.19.3-.23.46s-.06.47-.06.94v1.27h-.45V2.87h.01Z"/><path d="m388.69,5.64h1.74v.45h-1.74v-.45Z"/><path d="m391.14,4.2h.44v.6c.31-.46.7-.69,1.18-.69.26,0,.48.07.69.22.2.15.34.35.41.61.14-.27.33-.47.55-.62.22-.14.48-.21.76-.21s.55.11.78.33.35.66.35,1.32v1.88h-.46v-1.88c0-.32-.02-.55-.06-.7s-.12-.28-.25-.38-.3-.15-.52-.15-.42.07-.6.21c-.19.14-.31.33-.38.55s-.1.55-.1,1v1.35h-.44v-1.77c0-.37-.02-.63-.06-.79s-.12-.29-.26-.4c-.13-.11-.3-.16-.49-.16s-.38.06-.55.17-.31.27-.4.47-.15.54-.15,1.01v1.46h-.44v-3.45.02Z"/><path d="m400.67,4.2v3.45h-.44v-.59c-.39.47-.84.71-1.35.71s-.93-.18-1.28-.54-.52-.79-.52-1.29.18-.93.53-1.29.77-.54,1.26-.54c.56,0,1.02.24,1.37.72v-.63h.44-.01Zm-.41,1.74c0-.39-.13-.73-.4-1-.26-.27-.59-.41-.97-.41s-.71.14-.97.42-.4.61-.4.99.13.71.4.99.59.42.96.42.7-.13.97-.4.4-.61.4-1.01h.01Z"/><path d="m401.68,4.2h.45v.62c.36-.47.79-.71,1.29-.71.26,0,.49.07.7.21s.35.32.44.55.13.56.13,1v1.77h-.44v-1.64c0-.4-.02-.68-.06-.82s-.09-.26-.17-.36-.17-.18-.29-.23-.26-.08-.43-.08-.33.04-.49.12-.3.2-.41.34c-.11.15-.19.3-.23.46s-.06.47-.06.94v1.27h-.45v-3.45h.02Z"/><path d="m405.17,4.2h.47l1.19,2.66,1.15-2.66h.47l-2.06,4.71h-.47l.66-1.52-1.42-3.19h.01Z"/><path d="m167.25,117.79v-4.67h.1l3.1,3.58v-3.58h.46v4.67h-.1l-3.08-3.53v3.53h-.48Z"/><path d="m174.89,116.68l.38.19c-.37.69-.92,1.04-1.65,1.04-.52,0-.95-.18-1.29-.54-.34-.36-.51-.79-.51-1.29s.17-.93.51-1.29c.34-.36.76-.54,1.26-.54s.92.17,1.26.5.52.79.53,1.37h-3.11c0,.42.14.75.39,1s.55.38.91.38c.58,0,1.02-.27,1.31-.83h0Zm0-.94c-.06-.33-.21-.59-.46-.77-.24-.19-.52-.28-.84-.28-.65,0-1.08.35-1.27,1.05h2.57Z"/><path d="m177.05,117.25c0,.12.02.19.05.21s.11.03.23.03h.27v.38c-.18.03-.33.05-.43.05-.19,0-.34-.05-.43-.14s-.14-.24-.14-.45v-2.6h-.61v-.38h.61v-1.33h.45v1.33h.7v.38h-.7v2.53h0Z"/><path d="m177.95,114.34h.46l1.05,2.62,1.11-2.62h.08l1.1,2.62,1.07-2.62h.47l-1.5,3.57h-.08l-1.1-2.59-1.11,2.59h-.08l-1.48-3.57h0Z"/><path d="m183.59,116.09c0-.51.17-.94.52-1.3s.77-.54,1.27-.54.92.18,1.27.54c.35.36.52.79.52,1.29s-.17.93-.52,1.29c-.34.36-.77.54-1.28.54s-.93-.18-1.28-.54c-.35-.36-.52-.79-.52-1.28h.02Zm3.15,0c0-.38-.13-.71-.4-.99-.27-.28-.58-.42-.95-.42s-.68.14-.95.42c-.26.28-.4.61-.4,1s.13.71.38.98c.26.27.57.4.95.4s.7-.14.96-.41c.26-.27.39-.6.39-.98h.02Z"/><path d="m187.85,114.34h.46v.5c.12-.2.24-.35.35-.45.12-.1.24-.14.38-.14s.28.04.43.12l-.23.38c-.07-.04-.13-.06-.2-.06-.13,0-.26.07-.38.21s-.21.32-.26.54c-.06.22-.08.62-.08,1.19v1.17h-.46v-3.45h-.01Z"/><path d="m189.9,113.01h.45v2.72l1.59-1.39h.66l-1.9,1.64,2.01,1.81h-.63l-1.73-1.55v1.55h-.45v-4.78Z"/><path d="m270.97,117.79v-4.67h.1l3.1,3.58v-3.58h.46v4.67h-.1l-3.08-3.53v3.53h-.48Z"/><path d="m278.6,116.68l.38.19c-.37.69-.92,1.04-1.65,1.04-.52,0-.95-.18-1.29-.54-.34-.36-.51-.79-.51-1.29s.17-.93.51-1.29c.34-.36.76-.54,1.26-.54s.92.17,1.26.5.52.79.53,1.37h-3.11c.01.42.14.75.39,1s.55.38.91.38c.58,0,1.02-.27,1.31-.83h0Zm0-.94c-.06-.33-.21-.59-.46-.77-.24-.19-.52-.28-.84-.28-.65,0-1.08.35-1.27,1.05h2.57,0Z"/><path d="m280.76,117.25c0,.12.02.19.05.21s.11.03.23.03h.27v.38c-.18.03-.33.05-.43.05-.19,0-.34-.05-.43-.14s-.14-.24-.14-.45v-2.6h-.61v-.38h.61v-1.33h.45v1.33h.7v.38h-.7v2.53h0Z"/><path d="m281.66,114.34h.46l1.05,2.62,1.11-2.62h.08l1.1,2.62,1.07-2.62h.47l-1.5,3.57h-.08l-1.1-2.59-1.11,2.59h-.08l-1.48-3.57h.01Z"/><path d="m287.31,116.09c0-.51.17-.94.52-1.3.35-.36.77-.54,1.27-.54s.92.18,1.27.54c.35.36.52.79.52,1.29s-.17.93-.52,1.29c-.34.36-.77.54-1.28.54s-.93-.18-1.28-.54c-.35-.36-.52-.79-.52-1.28h.02Zm3.15,0c0-.38-.13-.71-.4-.99s-.58-.42-.95-.42-.68.14-.95.42c-.26.28-.4.61-.4,1s.13.71.38.98c.26.27.57.4.95.4s.7-.14.96-.41c.26-.27.39-.6.39-.98h.02Z"/><path d="m291.56,114.34h.46v.5c.12-.2.24-.35.35-.45.12-.1.24-.14.38-.14s.28.04.43.12l-.23.38c-.07-.04-.13-.06-.2-.06-.13,0-.26.07-.38.21s-.21.32-.26.54c-.06.22-.08.62-.08,1.19v1.17h-.46v-3.45h0Z"/><path d="m293.62,113.01h.45v2.72l1.59-1.39h.66l-1.9,1.64,2.01,1.81h-.63l-1.73-1.55v1.55h-.45v-4.78Z"/><path d="m375.82,117.79v-4.67h.1l3.1,3.58v-3.58h.46v4.67h-.1l-3.08-3.53v3.53h-.48Z"/><path d="m383.46,116.68l.38.19c-.37.69-.92,1.04-1.65,1.04-.52,0-.95-.18-1.29-.54-.34-.36-.51-.79-.51-1.29s.17-.93.51-1.29c.34-.36.76-.54,1.26-.54s.92.17,1.26.5.52.79.53,1.37h-3.11c.01.42.14.75.39,1s.55.38.91.38c.58,0,1.02-.27,1.31-.83h0Zm0-.94c-.06-.33-.21-.59-.46-.77-.24-.19-.52-.28-.84-.28-.65,0-1.08.35-1.27,1.05h2.57,0Z"/><path d="m385.61,117.25c0,.12.02.19.05.21s.11.03.23.03h.27v.38c-.18.03-.33.05-.43.05-.19,0-.34-.05-.43-.14s-.14-.24-.14-.45v-2.6h-.61v-.38h.61v-1.33h.45v1.33h.7v.38h-.7v2.53h0Z"/><path d="m386.51,114.34h.46l1.05,2.62,1.11-2.62h.08l1.1,2.62,1.07-2.62h.47l-1.5,3.57h-.08l-1.1-2.59-1.11,2.59h-.08l-1.48-3.57h.01Z"/><path d="m392.16,116.09c0-.51.17-.94.52-1.3.35-.36.77-.54,1.27-.54s.92.18,1.27.54c.35.36.52.79.52,1.29s-.17.93-.52,1.29c-.34.36-.77.54-1.28.54s-.93-.18-1.28-.54c-.35-.36-.52-.79-.52-1.28h.02Zm3.15,0c0-.38-.13-.71-.4-.99s-.58-.42-.95-.42-.68.14-.95.42c-.26.28-.4.61-.4,1s.13.71.38.98c.26.27.57.4.95.4s.7-.14.96-.41c.26-.27.39-.6.39-.98h.02Z"/><path d="m396.41,114.34h.46v.5c.12-.2.24-.35.35-.45.12-.1.24-.14.38-.14s.28.04.43.12l-.23.38c-.07-.04-.13-.06-.2-.06-.13,0-.26.07-.38.21s-.21.32-.26.54c-.06.22-.08.62-.08,1.19v1.17h-.46v-3.45h0Z"/><path d="m398.47,113.01h.45v2.72l1.59-1.39h.66l-1.9,1.64,2.01,1.81h-.63l-1.73-1.55v1.55h-.45v-4.78Z"/><path d="m30.43,1.14l-.5.32c-.43-.58-1.03-.86-1.79-.86-.6,0-1.09.19-1.5.57-.4.38-.6.85-.6,1.42s.2,1.05.6,1.45c.4.4.9.6,1.51.6.72,0,1.32-.29,1.79-.86l.5.33c-.25.36-.58.64-1,.83s-.87.29-1.35.29c-.76,0-1.4-.25-1.91-.75s-.77-1.12-.77-1.84.26-1.35.78-1.86c.52-.52,1.18-.78,2-.78.48,0,.92.1,1.33.31s.72.49.93.85l-.02-.02Z"/><line class="i" x1="27.5" y1="11.57" x2="24.9" y2="11.57"/><line class="i" x1="27.5" y1="30.02" x2="24.9" y2="30.02"/><line class="i" x1="27.5" y1="48" x2="24.9" y2="48"/><line class="i" x1="27.5" y1="65.98" x2="24.9" y2="65.98"/><line class="i" x1="27.5" y1="83.68" x2="24.9" y2="83.68"/><line class="i" x1="131.8" y1="11.57" x2="129.2" y2="11.57"/><line class="i" x1="131.8" y1="30.02" x2="129.2" y2="30.02"/><line class="i" x1="131.8" y1="48" x2="129.2" y2="48"/><line class="i" x1="131.8" y1="65.98" x2="129.2" y2="65.98"/><line class="i" x1="131.8" y1="83.68" x2="129.2" y2="83.68"/><line class="i" x1="235.36" y1="11.57" x2="232.76" y2="11.57"/><line class="i" x1="235.36" y1="30.02" x2="232.76" y2="30.02"/><line class="i" x1="235.36" y1="48" x2="232.76" y2="48"/><line class="i" x1="235.36" y1="65.98" x2="232.76" y2="65.98"/><line class="i" x1="235.36" y1="83.68" x2="232.76" y2="83.68"/><line class="i" x1="340.2" y1="11.57" x2="337.6" y2="11.57"/><line class="i" x1="340.2" y1="30.02" x2="337.6" y2="30.02"/><line class="i" x1="340.2" y1="48" x2="337.6" y2="48"/><line class="i" x1="340.2" y1="65.98" x2="337.6" y2="65.98"/><line class="i" x1="340.2" y1="83.68" x2="337.6" y2="83.68"/><line class="i" x1="34.25" y1="83.68" x2="34.25" y2="86.24"/><line class="i" x1="47.87" y1="83.68" x2="47.87" y2="86.24"/><line class="i" x1="61.49" y1="83.68" x2="61.49" y2="86.24"/><line class="i" x1="75.11" y1="83.68" x2="75.11" y2="86.24"/><line class="i" x1="88.72" y1="83.68" x2="88.72" y2="86.24"/><line class="i" x1="102.34" y1="83.68" x2="102.34" y2="86.24"/><line class="i" x1="115.96" y1="83.68" x2="115.96" y2="86.24"/><line class="i" x1="138.53" y1="83.68" x2="138.53" y2="86.24"/><line class="i" x1="152.07" y1="83.68" x2="152.07" y2="86.24"/><line class="i" x1="165.69" y1="83.68" x2="165.69" y2="86.24"/><line class="i" x1="179.31" y1="83.68" x2="179.31" y2="86.24"/><line class="i" x1="192.92" y1="83.68" x2="192.92" y2="86.24"/><line class="i" x1="206.54" y1="83.68" x2="206.54" y2="86.24"/><line class="i" x1="220.16" y1="83.68" x2="220.16" y2="86.24"/><line class="i" x1="241.36" y1="83.68" x2="241.36" y2="86.24"/><line class="i" x1="254.9" y1="83.68" x2="254.9" y2="86.24"/><line class="i" x1="268.52" y1="83.68" x2="268.52" y2="86.24"/><line class="i" x1="282.13" y1="83.68" x2="282.13" y2="86.24"/><line class="i" x1="295.75" y1="83.68" x2="295.75" y2="86.24"/><line class="i" x1="309.37" y1="83.68" x2="309.37" y2="86.24"/><line class="i" x1="322.99" y1="83.68" x2="322.99" y2="86.24"/><line class="i" x1="346.74" y1="83.68" x2="346.74" y2="86.24"/><line class="i" x1="360.28" y1="83.68" x2="360.28" y2="86.24"/><line class="i" x1="373.9" y1="83.68" x2="373.9" y2="86.24"/><line class="i" x1="387.51" y1="83.68" x2="387.51" y2="86.24"/><line class="i" x1="401.13" y1="83.68" x2="401.13" y2="86.24"/><line class="i" x1="414.75" y1="83.68" x2="414.75" y2="86.24"/><line class="i" x1="428.37" y1="83.68" x2="428.37" y2="86.24"/></g></svg>