<svg xmlns="http://www.w3.org/2000/svg" id="b" viewBox="0 0 244.11 104.54"><defs><style>.d,.e,.f,.g,.h{fill:none}.e,.f,.g,.h{stroke-linejoin:round}.e,.f,.h{stroke:#000}.f{stroke-dasharray:0 0 0 0 0 0 .81 2.43}.f,.g,.h{stroke-width:.81px}.i{fill:#d9ead3}.i,.j,.k,.l{fill-rule:evenodd}.j{fill:#eee}.k{fill:#fff}.g{stroke:#595959}.m{opacity:0}</style></defs><g id="c"><path d="m45.12,27.77h0c0-8.43,6.84-15.27,15.27-15.27h135.3c4.05,0,7.94,1.61,10.8,4.47s4.47,6.75,4.47,10.8v61.09c0,8.43-6.84,15.27-15.27,15.27H60.39c-8.43,0-15.27-6.84-15.27-15.27V27.77h0Z" class="i"/><path d="m45.12,27.77h0c0-8.43,6.84-15.27,15.27-15.27h135.3c4.05,0,7.94,1.61,10.8,4.47s4.47,6.75,4.47,10.8v61.09c0,8.43-6.84,15.27-15.27,15.27H60.39c-8.43,0-15.27-6.84-15.27-15.27V27.77h0Z" class="g"/><polygon points="201.47 35.1 213.7 35.1 213.7 32.43 219.05 37.78 213.7 43.13 213.7 40.45 201.47 40.45 201.47 35.1" class="j"/><polygon points="201.47 35.1 213.7 35.1 213.7 32.43 219.05 37.78 213.7 43.13 213.7 40.45 201.47 40.45 201.47 35.1" class="g"/><polygon points="200.95 67.27 213.18 67.27 213.18 64.59 218.53 69.95 213.18 75.29 213.18 72.62 200.95 72.62 200.95 67.27" class="j"/><polygon points="200.95 67.27 213.18 67.27 213.18 64.59 218.53 69.95 213.18 75.29 213.18 72.62 200.95 72.62 200.95 67.27" class="g"/><polygon points="118.1 66.94 126.74 66.94 126.74 64.26 132.09 69.61 126.74 74.96 126.74 72.29 118.1 72.29 118.1 66.94" class="j"/><polygon points="118.1 66.94 126.74 66.94 126.74 64.26 132.09 69.61 126.74 74.96 126.74 72.29 118.1 72.29 118.1 66.94" class="g"/><polygon points="118.1 34.92 126.74 34.92 126.74 32.24 132.09 37.59 126.74 42.94 126.74 40.27 118.1 40.27 118.1 34.92" class="j"/><polygon points="118.1 34.92 126.74 34.92 126.74 32.24 132.09 37.59 126.74 42.94 126.74 40.27 118.1 40.27 118.1 34.92" class="g"/><path d="m6.29,59.13l.4-.23c.28.51.6.77.97.77.24,0,.44-.08.61-.23.17-.15.25-.34.25-.57,0-.18-.07-.36-.21-.54-.14-.18-.38-.4-.71-.65s-.55-.44-.67-.56c-.11-.12-.2-.26-.25-.4s-.08-.28-.08-.43c0-.3.11-.56.32-.77.21-.21.48-.32.81-.32.25,0,.48.06.67.19s.38.32.55.57l-.38.29c-.12-.16-.25-.3-.38-.41s-.29-.16-.48-.16-.34.06-.46.17-.18.26-.18.43.05.32.16.45c.11.13.35.33.72.61s.65.53.82.77c.17.23.26.48.26.74,0,.34-.13.63-.39.88s-.57.37-.91.37c-.61,0-1.09-.33-1.43-.99v.02Z"/><path d="m12.84,58.88l.38.19c-.37.69-.92,1.04-1.65,1.04-.52,0-.95-.18-1.29-.54s-.51-.79-.51-1.29.17-.93.51-1.29.76-.54,1.26-.54.92.17,1.26.5.52.79.53,1.36h-3.11c.01.42.14.75.39,1s.55.38.91.38c.58,0,1.02-.27,1.31-.83v.02Zm0-.94c-.06-.33-.21-.59-.46-.77-.24-.19-.52-.28-.84-.28-.65,0-1.07.35-1.27,1.05h2.57,0Z"/><path d="m14.16,56.55h.45v.62c.36-.47.79-.71,1.29-.71.26,0,.49.07.7.21.21.14.36.33.44.55.09.23.13.56.13,1v1.77h-.44v-1.64c0-.4-.02-.68-.05-.82-.04-.14-.09-.26-.17-.36-.08-.1-.17-.18-.29-.23s-.26-.08-.42-.08-.33.04-.49.12-.3.2-.41.34c-.11.15-.19.3-.23.46s-.06.47-.06.94v1.27h-.45v-3.45h0Z"/><path d="m19.86,56.92l-.29.29c-.24-.23-.47-.34-.7-.34-.15,0-.27.05-.37.14s-.15.21-.15.34.05.25.16.35c.11.1.29.21.55.35s.46.28.59.44.2.35.2.58c0,.29-.1.54-.3.73s-.45.3-.74.3c-.2,0-.38-.04-.56-.13-.18-.09-.33-.21-.46-.36l.28-.31c.23.26.47.38.72.38.18,0,.33-.06.46-.18.12-.12.19-.25.19-.41s-.06-.29-.17-.39c-.11-.1-.29-.22-.55-.35-.26-.13-.45-.27-.58-.43-.13-.15-.19-.35-.19-.6s.09-.45.27-.63.42-.26.71-.26.6.16.92.47v.02Z"/><path d="m20.49,58.29c0-.51.17-.94.52-1.3.35-.36.77-.54,1.27-.54s.92.18,1.27.54c.35.36.52.79.52,1.29s-.17.93-.52,1.29c-.34.36-.77.54-1.28.54s-.93-.18-1.28-.54-.52-.79-.52-1.28h.02Zm3.15,0c0-.38-.13-.71-.4-.99s-.58-.42-.95-.42-.68.14-.95.42c-.26.28-.4.61-.4,1s.13.71.38.98c.26.27.57.4.95.4s.7-.14.96-.41c.26-.27.39-.6.39-.98h.02Z"/><path d="m24.74,56.55h.46v.5c.12-.2.24-.35.35-.45.12-.1.24-.14.38-.14s.28.04.43.12l-.23.38c-.06-.04-.13-.06-.2-.06-.13,0-.26.07-.38.21s-.21.32-.26.54-.08.62-.08,1.19v1.17h-.46v-3.45h0Z"/><path d="m26.49,56.55h.47l1.19,2.66,1.15-2.66h.47l-2.06,4.71h-.47l.66-1.52-1.42-3.19h.01Z"/><path d="m.12,65.8c0-.51.17-.94.52-1.3.35-.36.77-.54,1.27-.54s.92.18,1.27.54c.35.36.52.79.52,1.29s-.17.93-.52,1.29c-.34.36-.77.54-1.28.54s-.93-.18-1.28-.54-.52-.79-.52-1.28h.02Zm3.15,0c0-.38-.13-.71-.4-.99s-.58-.42-.95-.42-.68.14-.95.42c-.26.28-.4.61-.4,1s.13.71.38.98c.26.27.57.4.95.4s.7-.14.96-.41c.26-.27.39-.6.39-.98h.02Z"/><path d="m4.58,67.5v-4.78h.44v1.92c.38-.46.84-.68,1.38-.68.49,0,.91.18,1.26.54.34.36.52.79.52,1.29s-.17.93-.53,1.29c-.35.36-.77.54-1.26.54-.55,0-1-.25-1.37-.75v.64h-.44Zm.41-1.75c0,.4.13.74.4,1.02.26.28.59.42.97.42s.71-.14.97-.42.4-.61.4-.99-.13-.71-.39-.99-.58-.42-.97-.42-.72.13-.98.4c-.26.26-.39.6-.39.99h0Z"/><path d="m10.71,64.42l-.29.29c-.24-.23-.47-.34-.7-.34-.15,0-.27.05-.37.14s-.15.21-.15.34.05.25.16.35c.11.1.29.21.55.35s.46.28.59.44.2.35.2.58c0,.29-.1.54-.3.73s-.45.3-.74.3c-.2,0-.38-.04-.56-.13-.18-.09-.33-.21-.46-.36l.28-.31c.23.26.47.38.72.38.18,0,.33-.06.46-.18.12-.12.19-.25.19-.41s-.06-.29-.17-.39c-.11-.1-.29-.22-.55-.35-.26-.13-.45-.27-.58-.43-.13-.15-.19-.35-.19-.6s.09-.45.27-.63.42-.26.71-.26.6.16.92.47v.02Z"/><path d="m14.4,66.38l.38.19c-.37.69-.92,1.04-1.65,1.04-.52,0-.95-.18-1.29-.54s-.51-.79-.51-1.29.17-.93.51-1.29.76-.54,1.26-.54.92.17,1.26.5.52.79.53,1.36h-3.11c.01.42.14.75.39,1s.55.38.91.38c.58,0,1.02-.27,1.31-.83v.02Zm0-.94c-.06-.33-.21-.59-.46-.77-.24-.19-.52-.28-.84-.28-.65,0-1.07.35-1.27,1.05h2.57,0Z"/><path d="m15.55,64.05h.46v.5c.12-.2.24-.35.35-.45.12-.1.24-.14.38-.14s.28.04.43.12l-.23.38c-.06-.04-.13-.06-.2-.06-.13,0-.26.07-.38.21s-.21.32-.26.54-.08.62-.08,1.19v1.17h-.46v-3.45h0Z"/><path d="m17.35,64.05h.47l1.15,2.63,1.15-2.63h.47l-1.58,3.57h-.08l-1.59-3.57h0Z"/><path d="m24.72,64.05v3.45h-.44v-.59c-.39.47-.84.71-1.35.71s-.93-.18-1.28-.54-.52-.79-.52-1.29.18-.93.53-1.29.77-.54,1.26-.54c.56,0,1.02.24,1.37.72v-.63h.44-.01Zm-.41,1.74c0-.39-.13-.73-.4-1-.26-.27-.59-.41-.97-.41s-.71.14-.97.42-.4.61-.4.99.13.71.4.99.59.42.96.42.7-.13.96-.4c.27-.27.4-.61.4-1.01h.02Z"/><path d="m26.55,66.95c0,.12.02.19.05.21s.11.03.23.03h.27v.38c-.18.03-.32.05-.43.05-.2,0-.34-.05-.43-.14s-.14-.24-.14-.45v-2.6h-.61v-.38h.61v-1.33h.45v1.33h.7v.38h-.7v2.53h0Z"/><path d="m27.71,63.08c0-.1.04-.19.11-.26.07-.07.16-.11.26-.11s.19.04.26.11.11.16.11.26-.04.19-.11.26-.16.11-.26.11-.19-.04-.26-.11-.11-.16-.11-.25h0Zm.14.96h.45v3.45h-.45v-3.45Z"/><path d="m29.06,65.8c0-.51.17-.94.52-1.3.35-.36.77-.54,1.27-.54s.92.18,1.27.54c.35.36.52.79.52,1.29s-.17.93-.52,1.29c-.34.36-.77.54-1.28.54s-.93-.18-1.28-.54-.52-.79-.52-1.28h.02Zm3.15,0c0-.38-.13-.71-.4-.99s-.58-.42-.95-.42-.68.14-.95.42c-.26.28-.4.61-.4,1s.13.71.38.98c.26.27.57.4.95.4s.7-.14.96-.41c.26-.27.39-.6.39-.98h.02Z"/><path d="m33.48,64.05h.45v.62c.36-.47.79-.71,1.29-.71.26,0,.49.07.7.21.21.14.36.33.44.55.09.23.13.56.13,1v1.77h-.44v-1.64c0-.4-.02-.68-.05-.82-.04-.14-.09-.26-.17-.36-.08-.1-.17-.18-.29-.23s-.26-.08-.42-.08-.33.04-.49.12-.3.2-.41.34c-.11.15-.19.3-.23.46s-.06.47-.06.94v1.27h-.45v-3.45h0Z"/><path d="m39.18,64.42l-.29.29c-.24-.23-.47-.34-.7-.34-.15,0-.27.05-.37.14s-.15.21-.15.34.05.25.16.35c.11.1.29.21.55.35s.46.28.59.44.2.35.2.58c0,.29-.1.54-.3.73s-.45.3-.74.3c-.2,0-.38-.04-.56-.13-.18-.09-.33-.21-.46-.36l.28-.31c.23.26.47.38.72.38.18,0,.33-.06.46-.18.12-.12.19-.25.19-.41s-.06-.29-.17-.39c-.11-.1-.29-.22-.55-.35-.26-.13-.45-.27-.58-.43-.13-.15-.19-.35-.19-.6s.09-.45.27-.63.42-.26.71-.26.6.16.92.47v.02Z"/><path d="m4.38,3.47l.54.28c-.53.99-1.32,1.49-2.36,1.49-.74,0-1.36-.26-1.84-.77-.48-.51-.72-1.13-.72-1.85S.24,1.28.73.77s1.09-.77,1.8-.77,1.32.24,1.8.72c.49.48.74,1.13.76,1.95H.64c.02.6.21,1.07.56,1.44s.79.54,1.3.54c.84,0,1.46-.39,1.88-1.18h0Zm0-1.35c-.09-.47-.3-.84-.65-1.11s-.75-.4-1.2-.4c-.93,0-1.54.5-1.82,1.51h3.67Z"/><path d="m54.68,34.07h0c0-5.56,4.51-10.07,10.07-10.07h43.52c2.67,0,5.23,1.06,7.12,2.95,1.89,1.89,2.95,4.45,2.95,7.12v40.28c0,5.56-4.51,10.07-10.07,10.07h-43.52c-5.56,0-10.07-4.51-10.07-10.07v-40.28h0Z" class="k"/><path d="m54.68,34.07h0c0-5.56,4.51-10.07,10.07-10.07h43.52c2.67,0,5.23,1.06,7.12,2.95,1.89,1.89,2.95,4.45,2.95,7.12v40.28c0,5.56-4.51,10.07-10.07,10.07h-43.52c-5.56,0-10.07-4.51-10.07-10.07v-40.28h0Z" class="h"/><path d="m132.86,28.53h0c0-2.5,2.03-4.53,4.53-4.53h58.98c1.2,0,2.35.48,3.2,1.33s1.33,2,1.33,3.2v18.12c0,2.5-2.03,4.53-4.53,4.53h-58.98c-2.5,0-4.53-2.03-4.53-4.53v-18.12Z" class="k"/><path d="m132.86,28.53h0c0-2.5,2.03-4.53,4.53-4.53h58.98c1.2,0,2.35.48,3.2,1.33s1.33,2,1.33,3.2v18.12c0,2.5-2.03,4.53-4.53,4.53h-58.98c-2.5,0-4.53-2.03-4.53-4.53v-18.12Z" class="h"/><path d="m160.98,31.11l2.18,4.85h-.5l-.73-1.59h-2.01l-.73,1.59h-.52l2.2-4.85h.12,0Zm-.06,1.03l-.8,1.75h1.59l-.79-1.75Z"/><path d="m167.18,33.23l-.35.22c-.3-.4-.72-.6-1.25-.6-.42,0-.76.13-1.05.4-.28.27-.42.6-.42.99s.14.73.42,1.01.63.42,1.05.42c.51,0,.92-.2,1.25-.6l.35.23c-.17.25-.41.44-.7.58-.29.13-.61.2-.95.2-.53,0-.98-.18-1.34-.53s-.54-.78-.54-1.29.18-.94.54-1.3.83-.54,1.39-.54c.33,0,.64.07.93.21s.5.34.65.59h.02Z"/><path d="m168.85,35.42c0,.12.02.19.05.21s.11.03.23.03h.27v.38c-.18.03-.32.05-.43.05-.2,0-.34-.05-.43-.14s-.14-.24-.14-.45v-2.6h-.61v-.38h.61v-1.33h.45v1.33h.7v.38h-.7v2.53h0Z"/><path d="m170.05,34.26c0-.51.17-.94.52-1.3.35-.36.77-.54,1.27-.54s.92.18,1.27.54c.35.36.52.79.52,1.29s-.17.93-.52,1.29c-.34.36-.77.54-1.28.54s-.93-.18-1.28-.54-.52-.79-.52-1.28h.02Zm3.15,0c0-.38-.13-.71-.4-.99s-.58-.42-.95-.42-.68.14-.95.42c-.26.28-.4.61-.4,1s.13.71.38.98c.26.27.57.4.95.4s.7-.14.96-.41c.26-.27.39-.6.39-.98h.02Z"/><path d="m174.3,32.52h.46v.5c.12-.2.24-.35.35-.45.12-.1.24-.14.38-.14s.28.04.43.12l-.23.38c-.06-.04-.13-.06-.2-.06-.13,0-.26.07-.38.21s-.21.32-.26.54-.08.62-.08,1.19v1.17h-.46v-3.45h0Z"/><path d="m146.67,42.92c0,.12.02.19.05.21s.11.03.23.03h.27v.38c-.18.03-.32.05-.43.05-.2,0-.34-.05-.43-.14s-.14-.24-.14-.45v-2.6h-.61v-.38h.61v-1.33h.45v1.33h.7v.38h-.7v2.53h0Z"/><path d="m147.57,40.02h.46l1.05,2.62,1.11-2.62h.08l1.11,2.62,1.07-2.62h.47l-1.5,3.57h-.08l-1.1-2.59-1.1,2.59h-.08l-1.47-3.57h-.02Z"/><path d="m153.27,41.76c0-.51.17-.94.52-1.3.35-.36.77-.54,1.27-.54s.92.18,1.27.54c.35.36.52.79.52,1.29s-.17.93-.52,1.29c-.34.36-.77.54-1.28.54s-.93-.18-1.28-.54-.52-.79-.52-1.28h.02Zm3.15,0c0-.38-.13-.71-.4-.99s-.58-.42-.95-.42-.68.14-.95.42c-.26.28-.4.61-.4,1s.13.71.38.98c.26.27.57.4.95.4s.7-.14.96-.41c.26-.27.39-.6.39-.98h.02Z"/><path d="m157.41,41.45h1.74v.46h-1.74v-.46Z"/><path d="m159.79,38.68h.44v4.78h-.44v-4.78Z"/><path d="m164.59,40.02v3.45h-.44v-.59c-.39.47-.84.71-1.35.71s-.93-.18-1.28-.54-.52-.79-.52-1.29.18-.93.53-1.29.77-.54,1.26-.54c.56,0,1.02.24,1.37.72v-.63h.44-.01Zm-.41,1.74c0-.39-.13-.73-.4-1-.26-.27-.59-.41-.97-.41s-.71.14-.97.42-.4.61-.4.99.13.71.4.99.59.42.96.42.7-.13.96-.4c.27-.27.4-.61.4-1.01h.02Z"/><path d="m165.22,40.02h.47l1.19,2.66,1.15-2.66h.47l-2.06,4.71h-.47l.66-1.52-1.42-3.19h.01Z"/><path d="m171.98,42.35l.38.19c-.37.69-.92,1.04-1.65,1.04-.52,0-.95-.18-1.29-.54s-.51-.79-.51-1.29.17-.93.51-1.29.76-.54,1.26-.54.92.17,1.26.5.52.79.53,1.36h-3.11c.01.42.14.75.39,1s.55.38.91.38c.58,0,1.02-.27,1.31-.83v.02Zm0-.94c-.06-.33-.21-.59-.46-.77-.24-.19-.52-.28-.84-.28-.65,0-1.07.35-1.27,1.05h2.57,0Z"/><path d="m173.13,40.02h.46v.5c.12-.2.24-.35.35-.45.12-.1.24-.14.38-.14s.28.04.43.12l-.23.38c-.06-.04-.13-.06-.2-.06-.13,0-.26.07-.38.21s-.21.32-.26.54-.08.62-.08,1.19v1.17h-.46v-3.45h0Z"/><path d="m176.74,43.47l.66-4.67h.07l1.9,3.83,1.88-3.83h.07l.67,4.67h-.46l-.46-3.34-1.65,3.34h-.12l-1.67-3.37-.46,3.37h-.45.02Z"/><path d="m182.92,38.8h.47v4.22h1.79v.45h-2.27v-4.67h0Z"/><path d="m185.93,38.8h.93c.55,0,.91.02,1.08.06.17.04.32.12.46.23s.25.24.33.41c.08.16.12.34.12.54,0,.32-.09.58-.26.79-.17.2-.39.33-.65.39-.26.05-.66.08-1.21.08h-.33v2.17h-.47v-4.67h0Zm.47.46v1.59h.79c.47,0,.79-.07.94-.23.16-.16.23-.35.23-.58,0-.52-.38-.79-1.14-.79h-.83,0Z"/><path d="m132.86,60.89h0c0-2.5,2.03-4.53,4.53-4.53h58.98c1.2,0,2.35.48,3.2,1.33s1.33,2,1.33,3.2v18.12c0,2.5-2.03,4.53-4.53,4.53h-58.98c-2.5,0-4.53-2.03-4.53-4.53v-18.12Z" class="k"/><path d="m132.86,60.89h0c0-2.5,2.03-4.53,4.53-4.53h58.98c1.2,0,2.35.48,3.2,1.33s1.33,2,1.33,3.2v18.12c0,2.5-2.03,4.53-4.53,4.53h-58.98c-2.5,0-4.53-2.03-4.53-4.53v-18.12Z" class="h"/><path d="m163.54,64.52l-.36.28c-.43-.54-.99-.81-1.67-.81-.55,0-1.03.2-1.43.58-.4.39-.6.87-.6,1.43s.2,1.04.59,1.42c.39.38.88.57,1.47.57.66,0,1.21-.26,1.64-.77l.36.28c-.23.3-.52.53-.87.69s-.74.24-1.16.24c-.74,0-1.35-.23-1.82-.7s-.71-1.06-.71-1.77c0-.44.11-.85.33-1.23.22-.37.52-.67.91-.88s.8-.32,1.25-.32.85.08,1.2.25.65.41.87.73h0Z"/><path d="m164.23,64.87h.46v.5c.12-.2.24-.35.35-.45.12-.1.24-.14.38-.14s.28.04.43.12l-.23.38c-.06-.04-.13-.06-.2-.06-.13,0-.26.07-.38.21s-.21.32-.26.54-.08.62-.08,1.19v1.17h-.46v-3.45h0Z"/><path d="m166.15,63.91c0-.1.04-.19.11-.26.07-.07.16-.11.26-.11s.19.04.26.11.11.16.11.26-.04.19-.11.26-.16.11-.26.11-.19-.04-.26-.11-.11-.16-.11-.25h0Zm.14.96h.45v3.45h-.45v-3.45Z"/><path d="m168.5,67.77c0,.12.02.19.05.21s.11.03.23.03h.27v.38c-.18.03-.32.05-.43.05-.2,0-.34-.05-.43-.14s-.14-.24-.14-.45v-2.6h-.61v-.38h.61v-1.33h.45v1.33h.7v.38h-.7v2.53h0Z"/><path d="m169.65,63.91c0-.1.04-.19.11-.26.07-.07.16-.11.26-.11s.19.04.26.11.11.16.11.26-.04.19-.11.26-.16.11-.26.11-.19-.04-.26-.11-.11-.16-.11-.25h0Zm.14.96h.45v3.45h-.45v-3.45Z"/><path d="m174.54,65.58l-.35.22c-.3-.4-.72-.6-1.25-.6-.42,0-.76.13-1.05.4-.28.27-.42.6-.42.99s.14.73.42,1.01.63.42,1.05.42c.51,0,.92-.2,1.25-.6l.35.23c-.17.25-.41.44-.7.58-.29.13-.61.2-.95.2-.53,0-.98-.18-1.34-.53s-.54-.78-.54-1.29.18-.94.54-1.3.83-.54,1.39-.54c.33,0,.64.07.93.21s.5.34.65.59h.02Z"/><path d="m146.67,75.27c0,.12.02.19.05.21s.11.03.23.03h.27v.38c-.18.03-.32.05-.43.05-.2,0-.34-.05-.43-.14s-.14-.24-.14-.45v-2.6h-.61v-.38h.61v-1.33h.45v1.33h.7v.38h-.7v2.53h0Z"/><path d="m147.56,72.37h.46l1.05,2.62,1.11-2.62h.08l1.11,2.62,1.07-2.62h.47l-1.5,3.57h-.08l-1.1-2.59-1.1,2.59h-.08l-1.47-3.57h-.02Z"/><path d="m153.27,74.12c0-.51.17-.94.52-1.3.35-.36.77-.54,1.27-.54s.92.18,1.27.54c.35.36.52.79.52,1.29s-.17.93-.52,1.29c-.34.36-.77.54-1.28.54s-.93-.18-1.28-.54-.52-.79-.52-1.28h.02Zm3.15,0c0-.38-.13-.71-.4-.99s-.58-.42-.95-.42-.68.14-.95.42c-.26.28-.4.61-.4,1s.13.71.38.98c.26.27.57.4.95.4s.7-.14.96-.41c.26-.27.39-.6.39-.98h.02Z"/><path d="m157.4,73.81h1.74v.46h-1.74v-.46Z"/><path d="m159.78,71.04h.44v4.78h-.44v-4.78Z"/><path d="m164.58,72.37v3.45h-.44v-.59c-.39.47-.84.71-1.35.71s-.93-.18-1.28-.54-.52-.79-.52-1.29.18-.93.53-1.29.77-.54,1.26-.54c.56,0,1.02.24,1.37.72v-.63h.44-.01Zm-.41,1.74c0-.39-.13-.73-.4-1-.26-.27-.59-.41-.97-.41s-.71.14-.97.42-.4.61-.4.99.13.71.4.99.59.42.96.42.7-.13.96-.4c.27-.27.4-.61.4-1.01h.02Z"/><path d="m165.21,72.37h.47l1.19,2.66,1.15-2.66h.47l-2.06,4.71h-.47l.66-1.52-1.42-3.19h.01Z"/><path d="m171.97,74.7l.38.19c-.37.69-.92,1.04-1.65,1.04-.52,0-.95-.18-1.29-.54s-.51-.79-.51-1.29.17-.93.51-1.29.76-.54,1.26-.54.92.17,1.26.5.52.79.53,1.36h-3.11c.01.42.14.75.39,1s.55.38.91.38c.58,0,1.02-.27,1.31-.83v.02Zm0-.94c-.06-.33-.21-.59-.46-.77-.24-.19-.52-.28-.84-.28-.65,0-1.07.35-1.27,1.05h2.57,0Z"/><path d="m173.12,72.37h.46v.5c.12-.2.24-.35.35-.45.12-.1.24-.14.38-.14s.28.04.43.12l-.23.38c-.06-.04-.13-.06-.2-.06-.13,0-.26.07-.38.21s-.21.32-.26.54-.08.62-.08,1.19v1.17h-.46v-3.45h0Z"/><path d="m176.74,75.82l.66-4.67h.07l1.9,3.83,1.88-3.83h.07l.67,4.67h-.46l-.46-3.34-1.65,3.34h-.12l-1.67-3.37-.46,3.37h-.45.02Z"/><path d="m182.92,71.15h.47v4.22h1.79v.45h-2.27v-4.67h0Z"/><path d="m185.92,71.15h.93c.55,0,.91.02,1.08.06.17.04.32.12.46.23s.25.24.33.41c.08.16.12.34.12.54,0,.32-.09.58-.26.79-.17.2-.39.33-.65.39-.26.05-.66.08-1.21.08h-.33v2.17h-.47v-4.67h0Zm.47.46v1.59h.79c.47,0,.79-.07.94-.23.16-.16.23-.35.23-.58,0-.52-.38-.79-1.14-.79h-.83,0Z"/><path d="m235.04,43.58v3.45h-.44v-.59c-.39.47-.84.71-1.35.71s-.93-.18-1.28-.54-.52-.79-.52-1.29.18-.93.53-1.29.77-.54,1.26-.54c.56,0,1.02.24,1.37.72v-.63h.44-.01Zm-.41,1.74c0-.39-.13-.73-.4-1-.26-.27-.59-.41-.97-.41s-.71.14-.97.42-.4.61-.4.99.13.71.4.99.59.42.96.42.7-.13.96-.4c.27-.27.4-.61.4-1.01h.02Z"/><path d="m235.79,48.77c0,.08,0,.13.03.14.02.02.08.02.16.02h.18v.26c-.13.02-.23.03-.3.03-.13,0-.23-.03-.3-.1-.06-.07-.09-.17-.09-.31v-1.8h-.42v-.26h.42v-.92h.31v.92h.49v.26h-.49v1.75h0Z"/><path d="m226.31,34.92l2.18,4.85h-.5l-.73-1.59h-2.01l-.73,1.59h-.52l2.2-4.85h.12,0Zm-.06,1.03l-.8,1.75h1.59l-.79-1.75Z"/><path d="m232.51,37.04l-.35.22c-.3-.4-.72-.6-1.25-.6-.42,0-.76.13-1.05.4-.28.27-.42.6-.42.99s.14.73.42,1.01.63.42,1.05.42c.51,0,.92-.2,1.25-.6l.35.23c-.17.25-.41.44-.7.58-.29.13-.61.2-.95.2-.53,0-.98-.18-1.34-.53s-.54-.78-.54-1.29.18-.94.54-1.3.83-.54,1.39-.54c.33,0,.64.07.93.21s.5.34.65.59h.02Z"/><path d="m234.18,39.23c0,.12.02.19.05.21s.11.03.23.03h.27v.38c-.18.03-.32.05-.43.05-.2,0-.34-.05-.43-.14s-.14-.24-.14-.45v-2.6h-.61v-.38h.61v-1.33h.45v1.33h.7v.38h-.7v2.53h0Z"/><path d="m235.33,35.36c0-.1.04-.19.11-.26.07-.07.16-.11.26-.11s.19.04.26.11.11.16.11.26-.04.19-.11.26-.16.11-.26.11-.19-.04-.26-.11-.11-.16-.11-.25h0Zm.14.96h.45v3.45h-.45v-3.45Z"/><path d="m236.68,38.07c0-.51.17-.94.52-1.3.35-.36.77-.54,1.27-.54s.92.18,1.27.54c.35.36.52.79.52,1.29s-.17.93-.52,1.29c-.34.36-.77.54-1.28.54s-.93-.18-1.28-.54-.52-.79-.52-1.28h.02Zm3.15,0c0-.38-.13-.71-.4-.99s-.58-.42-.95-.42-.68.14-.95.42c-.26.28-.4.61-.4,1s.13.71.38.98c.26.27.57.4.95.4s.7-.14.96-.41c.26-.27.39-.6.39-.98h.02Z"/><path d="m241.1,36.32h.45v.62c.36-.47.79-.71,1.29-.71.26,0,.49.07.7.21s.36.33.44.55c.09.23.13.56.13,1v1.77h-.44v-1.64c0-.4-.02-.68-.05-.82-.04-.14-.09-.26-.17-.36-.08-.1-.17-.18-.29-.23s-.26-.08-.42-.08-.33.04-.49.12-.3.2-.41.34c-.11.15-.19.3-.23.46s-.06.47-.06.94v1.27h-.45v-3.45h0Z"/><path d="m225.36,67.72h.51l1.55,3.72,1.57-3.72h.51l-2.03,4.78h-.1l-2-4.78h-.01Z"/><path d="m233.64,68.94v3.45h-.44v-.59c-.39.47-.84.71-1.35.71s-.93-.18-1.28-.54-.52-.79-.52-1.29.18-.93.53-1.29.77-.54,1.26-.54c.56,0,1.02.24,1.37.72v-.63h.44-.01Zm-.41,1.74c0-.39-.13-.73-.4-1-.26-.27-.59-.41-.97-.41s-.71.14-.97.42-.4.61-.4.99.13.71.4.99.59.42.96.42.7-.13.96-.4c.27-.27.4-.61.4-1.01h.02Z"/><path d="m234.58,67.61h.44v4.78h-.44v-4.78Z"/><path d="m238.91,72.39h-.45v-.62c-.36.47-.79.71-1.29.71-.26,0-.49-.07-.7-.21-.21-.14-.36-.32-.44-.55-.09-.23-.13-.56-.13-1v-1.77h.44v1.64c0,.4.02.68.06.82.04.14.09.26.17.36.08.1.17.18.29.23s.26.08.43.08.33-.04.49-.12.3-.2.41-.34c.11-.15.19-.3.23-.46s.06-.47.06-.94v-1.27h.45v3.45h-.02Z"/><path d="m242.8,71.27l.38.19c-.37.69-.92,1.04-1.65,1.04-.52,0-.95-.18-1.29-.54s-.51-.79-.51-1.29.17-.93.51-1.29.76-.54,1.26-.54.92.17,1.26.5.52.79.53,1.36h-3.11c.01.42.14.75.39,1s.55.38.91.38c.58,0,1.02-.27,1.31-.83v.02Zm0-.94c-.06-.33-.21-.59-.46-.77-.24-.19-.52-.28-.84-.28-.65,0-1.07.35-1.27,1.05h2.57Z"/><path d="m231.23,76.19h.47l1.15,2.63,1.15-2.63h.47l-1.58,3.57h-.08l-1.59-3.57h0Z"/><path d="m235.84,81.38c0,.08,0,.13.03.14.02.02.08.02.16.02h.18v.26c-.13.02-.23.03-.3.03-.13,0-.23-.03-.3-.1-.06-.07-.09-.17-.09-.31v-1.8h-.42v-.26h.42v-.92h.31v.92h.49v.26h-.49v1.75h0Z"/><g class="m"><rect width="56.68" height="25.88" x="58.21" y="42.7" class="d"/><rect width="56.68" height="25.88" x="58.21" y="42.7" class="d"/><path d="m58.21,47.01h0c0-2.38,1.93-4.31,4.31-4.31h48.05c1.15,0,2.24.45,3.05,1.26s1.26,1.9,1.26,3.05v17.26c0,2.38-1.93,4.32-4.31,4.32h-48.05c-2.38,0-4.31-1.93-4.31-4.32v-17.26Z" class="l"/></g><path d="m58.21,47.01h0c0-2.38,1.93-4.31,4.31-4.31h48.05c1.15,0,2.24.45,3.05,1.26s1.26,1.9,1.26,3.05v17.26c0,2.38-1.93,4.31-4.31,4.31h-48.05c-2.38,0-4.31-1.93-4.31-4.31v-17.26Z" class="f"/><path d="m68.37,53.37h.93c.52,0,.88.02,1.07.07s.35.12.49.22.24.24.32.4c.08.17.12.35.12.55,0,.4-.14.71-.42.94s-.68.33-1.2.31l1.68,2.17h-.58l-1.68-2.17h-.27v2.17h-.47v-4.67h.01Zm.47.46v1.59h.81c.4,0,.69-.06.88-.19s.28-.33.28-.61-.09-.48-.28-.6-.47-.19-.86-.19h-.83Z"/><path d="m72.3,58.04v-4.67h.1l3.1,3.57v-3.57h.46v4.67h-.1l-3.08-3.53v3.53h-.48Z"/><path d="m77.11,58.04v-4.67h.1l3.1,3.57v-3.57h.46v4.67h-.1l-3.08-3.53v3.53h-.48Z"/><path d="m85.2,54.97l-.29.29c-.24-.23-.47-.34-.7-.34-.15,0-.27.05-.37.14s-.15.21-.15.34.05.25.16.35c.11.1.29.21.55.35s.46.28.59.44.2.35.2.58c0,.29-.1.54-.3.73s-.45.3-.74.3c-.2,0-.38-.04-.56-.13-.18-.09-.33-.21-.46-.36l.28-.31c.23.26.47.38.72.38.18,0,.33-.06.46-.18.12-.12.19-.25.19-.41s-.06-.29-.17-.39c-.11-.1-.29-.22-.55-.35-.26-.13-.45-.27-.58-.43-.13-.15-.19-.35-.19-.6s.09-.45.27-.63.42-.26.71-.26.6.16.92.47v.02Z"/><path d="m86.82,57.49c0,.12.02.19.05.21s.11.03.23.03h.27v.38c-.18.03-.32.05-.43.05-.2,0-.34-.05-.43-.14s-.14-.24-.14-.45v-2.6h-.61v-.38h.61v-1.33h.45v1.33h.7v.38h-.7v2.53h0Z"/><path d="m91.62,54.59v3.45h-.44v-.59c-.39.47-.84.71-1.35.71s-.93-.18-1.28-.54-.52-.79-.52-1.29.18-.93.53-1.29.77-.54,1.26-.54c.56,0,1.02.24,1.37.72v-.63h.44-.01Zm-.41,1.74c0-.39-.13-.73-.4-1-.26-.27-.59-.41-.97-.41s-.71.14-.97.42-.4.61-.4.99.13.71.4.99.59.42.96.42.7-.13.96-.4c.27-.27.4-.61.4-1.01h.02Z"/><path d="m93.46,57.49c0,.12.02.19.05.21s.11.03.23.03h.27v.38c-.18.03-.32.05-.43.05-.2,0-.34-.05-.43-.14s-.14-.24-.14-.45v-2.6h-.61v-.38h.61v-1.33h.45v1.33h.7v.38h-.7v2.53h0Z"/><path d="m97.73,56.92l.38.19c-.37.69-.92,1.04-1.65,1.04-.52,0-.95-.18-1.29-.54s-.51-.79-.51-1.29.17-.93.51-1.29.76-.54,1.26-.54.92.17,1.26.5.52.79.53,1.36h-3.11c.01.42.14.75.39,1s.55.38.91.38c.58,0,1.02-.27,1.31-.83v.02Zm0-.94c-.06-.33-.21-.59-.46-.77-.24-.19-.52-.28-.84-.28-.65,0-1.07.35-1.27,1.05h2.57,0Z"/><path d="m100.15,53.26h.45v1.95c.36-.47.79-.71,1.29-.71.26,0,.49.07.7.21.21.14.36.33.44.55.09.23.13.56.13,1v1.77h-.45v-1.64c0-.36-.01-.6-.03-.73s-.07-.26-.14-.38c-.07-.12-.17-.21-.3-.28-.12-.06-.27-.09-.45-.09s-.34.04-.5.12-.3.2-.41.34c-.11.15-.19.3-.23.46s-.06.47-.06.94v1.27h-.45v-4.78h.01Z"/><path d="m104.63,59.78c0,.08,0,.13.03.14.02.02.08.02.16.02h.18v.26c-.13.02-.23.03-.3.03-.13,0-.23-.03-.3-.1-.06-.07-.09-.17-.09-.31v-1.8h-.42v-.26h.42v-.92h.31v.92h.49v.26h-.49v1.75h0Z"/><polyline points="107.44 42.88 107.24 28.43 64.57 28.43 64.57 40.11" class="e"/><polygon points="64.57 42.93 62.94 38.95 64.57 39.89 66.19 38.95 64.57 42.93"/><g class="m"><rect width="16.69" height="10.44" x="78.21" y="27.83" class="d"/><rect width="16.69" height="10.44" x="78.21" y="27.83"/></g><path d="m82.13,31.36h.45v1.95c.36-.47.79-.71,1.29-.71.26,0,.49.07.7.21.21.14.36.33.44.55.09.23.13.56.13,1v1.77h-.45v-1.64c0-.36-.01-.6-.03-.73s-.07-.26-.14-.38c-.07-.12-.17-.21-.3-.28-.12-.06-.27-.09-.45-.09s-.34.04-.5.12-.3.2-.41.34c-.11.15-.19.3-.23.46s-.06.47-.06.94v1.27h-.45v-4.78h.01Z"/><path d="m86.61,37.89c0,.08,0,.13.03.14.02.02.08.02.16.02h.18v.26c-.13.02-.23.03-.3.03-.13,0-.23-.03-.3-.1-.06-.07-.09-.17-.09-.31v-1.8h-.42v-.26h.42v-.92h.31v.92h.49v.26h-.49v1.75h0Z"/><path d="m89.48,36.79h-2.25v-.27h2.25v.27Z"/><path d="m90.32,35.04h.63v3.23h-.32v-2.92h-.51l.19-.32h.01Z"/><g class="m"><rect width="16.68" height="10.44" x="31.81" y="36.89" class="d"/><rect width="16.68" height="10.44" x="31.81" y="36.89"/></g><path d="m38.25,43.76l-1,1.44h-.53l1.26-1.82-1.14-1.63h.53l.87,1.25.86-1.25h.53l-1.13,1.62,1.28,1.83h-.54l-1.01-1.44h.02Z"/><path d="m41.52,46.95c0,.08,0,.13.03.14.02.02.08.02.16.02h.18v.26c-.13.02-.23.03-.3.03-.13,0-.23-.03-.3-.1-.06-.07-.09-.17-.09-.31v-1.8h-.42v-.26h.42v-.92h.31v.92h.49v.26h-.49v1.75h0Z"/><polygon points="36.58 51.98 48.8 51.98 48.8 49.31 54.15 54.66 48.8 60.01 48.8 57.33 36.58 57.33 36.58 51.98" class="j"/><polygon points="36.58 51.98 48.8 51.98 48.8 49.31 54.15 54.66 48.8 60.01 48.8 57.33 36.58 57.33 36.58 51.98" class="g"/><g class="m"><rect width="163.98" height="10.73" x="46.67" y="86.58" class="d"/><rect width="163.98" height="10.72" x="46.67" y="86.58"/></g><path d="m86.62,89.21v-.46h2.56v.46h-1.04v4.21h-.47v-4.21h-1.05Z"/><path d="m89.39,89.97h.46v.5c.12-.2.24-.35.35-.45.12-.1.24-.14.38-.14s.28.04.43.12l-.23.38c-.06-.04-.13-.06-.2-.06-.13,0-.26.07-.38.21s-.21.32-.26.54-.08.62-.08,1.19v1.17h-.46v-3.45h0Z"/><path d="m94.74,89.97v3.45h-.44v-.59c-.39.47-.84.71-1.35.71s-.93-.18-1.28-.54-.52-.79-.52-1.29.18-.93.53-1.29.77-.54,1.26-.54c.56,0,1.02.24,1.37.72v-.63h.44-.01Zm-.41,1.74c0-.39-.13-.73-.4-1-.26-.27-.59-.41-.97-.41s-.71.14-.97.42-.4.61-.4.99.13.71.4.99.59.42.96.42.7-.13.96-.4c.27-.27.4-.61.4-1.01h.02Z"/><path d="m95.3,89.01c0-.1.04-.19.11-.26.07-.07.16-.11.26-.11s.19.04.26.11.11.16.11.26-.04.19-.11.26-.16.11-.26.11-.19-.04-.26-.11-.11-.16-.11-.25h0Zm.14.96h.45v3.45h-.45v-3.45Z"/><path d="m96.59,89.97h.45v.62c.36-.47.79-.71,1.29-.71.26,0,.49.07.7.21.21.14.36.33.44.55.09.23.13.56.13,1v1.77h-.44v-1.64c0-.4-.02-.68-.05-.82-.04-.14-.09-.26-.17-.36-.08-.1-.17-.18-.29-.23s-.26-.08-.42-.08-.33.04-.49.12-.3.2-.41.34c-.11.15-.19.3-.23.46s-.06.47-.06.94v1.27h-.45v-3.45h0Z"/><path d="m103.24,92.31l.38.19c-.37.69-.92,1.04-1.65,1.04-.52,0-.95-.18-1.29-.54s-.51-.79-.51-1.29.17-.93.51-1.29.76-.54,1.26-.54.92.17,1.26.5.52.79.53,1.36h-3.11c.01.42.14.75.39,1s.55.38.91.38c.58,0,1.02-.27,1.31-.83v.02Zm0-.94c-.06-.33-.21-.59-.46-.77-.24-.19-.52-.28-.84-.28-.65,0-1.07.35-1.27,1.05h2.57,0Z"/><path d="m107.77,88.64v4.78h-.44v-.59c-.39.47-.85.71-1.35.71s-.94-.18-1.28-.54c-.35-.36-.52-.79-.52-1.29s.17-.93.53-1.29c.35-.36.77-.54,1.26-.54.56,0,1.02.24,1.37.72v-1.96h.44-.01Zm-.41,3.08c0-.39-.13-.73-.39-1s-.58-.41-.97-.41-.72.14-.98.42-.39.61-.39.99.13.71.4.99.59.42.95.42.69-.13.96-.4c.28-.27.42-.6.42-1.01h0Z"/><path d="m110,93.43v-4.78h.44v1.92c.38-.46.84-.68,1.38-.68.49,0,.91.18,1.26.54.34.36.52.79.52,1.29s-.17.93-.53,1.29c-.35.36-.77.54-1.26.54-.55,0-1-.25-1.37-.75v.64h-.44Zm.41-1.75c0,.4.13.74.4,1.02.26.28.59.42.97.42s.71-.14.97-.42.4-.61.4-.99-.13-.71-.39-.99-.58-.42-.97-.42-.72.13-.98.4c-.26.26-.39.6-.39.99h0Z"/><path d="m113.8,89.97h.47l1.19,2.66,1.15-2.66h.47l-2.06,4.71h-.47l.66-1.52-1.42-3.19h.01Z"/><path d="m118.91,93.43v-4.67h.97c.66,0,1.15.05,1.46.15.31.1.58.25.8.46s.4.47.52.77.18.66.18,1.06-.09.79-.28,1.14-.44.63-.77.81c-.32.18-.79.27-1.39.27h-1.49,0Zm.45-.44h.54c.56,0,.97-.03,1.22-.08.25-.06.48-.17.67-.33.19-.17.34-.37.44-.61s.15-.51.15-.82-.06-.59-.17-.85c-.12-.26-.28-.47-.49-.64s-.46-.28-.75-.34-.71-.09-1.27-.09h-.33v3.77h-.01Z"/><path d="m123.54,88.76h.93c.52,0,.88.02,1.07.07s.35.12.49.22.24.24.32.4c.08.17.12.35.12.55,0,.4-.14.71-.42.94s-.68.33-1.2.31l1.68,2.17h-.58l-1.68-2.17h-.27v2.17h-.47v-4.67h.01Zm.47.46v1.59h.81c.4,0,.69-.06.88-.19s.28-.33.28-.61-.09-.48-.28-.6-.47-.19-.86-.19h-.83Z"/><path d="m127.24,88.76h.47v4.22h1.79v.45h-2.27v-4.67h0Z"/><path d="m134.32,93.43h-.45v-.62c-.36.47-.79.71-1.29.71-.26,0-.49-.07-.7-.21-.21-.14-.36-.32-.44-.55-.09-.23-.13-.56-.13-1v-1.77h.44v1.64c0,.4.02.68.06.82.04.14.09.26.17.36.08.1.17.18.29.23s.26.08.43.08.33-.04.49-.12.3-.2.41-.34c.11-.15.19-.3.23-.46s.06-.47.06-.94v-1.27h.45v3.45h-.02Z"/><path d="m136.82,90.35l-.29.29c-.24-.23-.47-.34-.7-.34-.15,0-.27.05-.37.14s-.15.21-.15.34.05.25.16.35c.11.1.29.21.55.35s.46.28.59.44.2.35.2.58c0,.29-.1.54-.3.73s-.45.3-.74.3c-.2,0-.38-.04-.56-.13-.18-.09-.33-.21-.46-.36l.28-.31c.23.26.47.38.72.38.18,0,.33-.06.46-.18.12-.12.19-.25.19-.41s-.06-.29-.17-.39c-.11-.1-.29-.22-.55-.35-.26-.13-.45-.27-.58-.43-.13-.15-.19-.35-.19-.6s.09-.45.27-.63.42-.26.71-.26.6.16.92.47v.02Z"/><path d="m137.17,89.01c0-.1.04-.19.11-.26.07-.07.16-.11.26-.11s.19.04.26.11.11.16.11.26-.04.19-.11.26-.16.11-.26.11-.19-.04-.26-.11-.11-.16-.11-.25h0Zm.14.96h.45v3.45h-.45v-3.45Z"/><path d="m138.46,89.97h.45v.62c.36-.47.79-.71,1.29-.71.26,0,.49.07.7.21.21.14.36.33.44.55.09.23.13.56.13,1v1.77h-.44v-1.64c0-.4-.02-.68-.05-.82-.04-.14-.09-.26-.17-.36-.08-.1-.17-.18-.29-.23s-.26-.08-.42-.08-.33.04-.49.12-.3.2-.41.34c-.11.15-.19.3-.23.46s-.06.47-.06.94v1.27h-.45v-3.45h0Z"/><path d="m145.22,89.97h.45v2.67c0,.47-.04.82-.12,1.04-.08.22-.2.41-.36.55-.16.15-.34.26-.57.34s-.46.12-.73.12c-.9,0-1.5-.36-1.78-1.08h.48c.25.45.68.68,1.28.68.29,0,.54-.06.76-.17.21-.11.37-.26.46-.43.09-.18.13-.45.13-.82v-.15c-.18.22-.39.39-.63.49-.24.11-.5.16-.77.16-.5,0-.92-.17-1.25-.51s-.5-.75-.5-1.21.18-.89.53-1.24c.36-.35.79-.52,1.29-.52s.95.23,1.33.69v-.6h0Zm.02,1.67c0-.38-.13-.69-.38-.95-.26-.26-.57-.38-.95-.38-.4,0-.73.14-.99.41-.26.27-.4.59-.4.95s.13.66.38.91.58.37.98.37.73-.12.98-.36.38-.56.38-.94h0Z"/><path d="m147.59,89.97h.46v.5c.12-.2.24-.35.35-.45.12-.1.24-.14.38-.14s.28.04.43.12l-.23.38c-.06-.04-.13-.06-.2-.06-.13,0-.26.07-.38.21s-.21.32-.26.54-.08.62-.08,1.19v1.17h-.46v-3.45h0Z"/><path d="m152.4,92.31l.38.19c-.37.69-.92,1.04-1.65,1.04-.52,0-.95-.18-1.29-.54s-.51-.79-.51-1.29.17-.93.51-1.29.76-.54,1.26-.54.92.17,1.26.5.52.79.53,1.36h-3.11c.01.42.14.75.39,1s.55.38.91.38c.58,0,1.02-.27,1.31-.83v.02Zm0-.94c-.06-.33-.21-.59-.46-.77-.24-.19-.52-.28-.84-.28-.65,0-1.07.35-1.27,1.05h2.57,0Z"/><path d="m153.02,89.97h.46l1.05,2.62,1.11-2.62h.08l1.11,2.62,1.07-2.62h.47l-1.5,3.57h-.08l-1.1-2.59-1.1,2.59h-.08l-1.47-3.57h-.02Z"/><path d="m162.1,89.97v3.45h-.44v-.59c-.39.47-.84.71-1.35.71s-.93-.18-1.28-.54-.52-.79-.52-1.29.18-.93.53-1.29.77-.54,1.26-.54c.56,0,1.02.24,1.37.72v-.63h.44-.01Zm-.41,1.74c0-.39-.13-.73-.4-1-.26-.27-.59-.41-.97-.41s-.71.14-.97.42-.4.61-.4.99.13.71.4.99.59.42.96.42.7-.13.96-.4c.27-.27.4-.61.4-1.01h.02Z"/><path d="m162.72,89.97h.46v.5c.12-.2.24-.35.35-.45.12-.1.24-.14.38-.14s.28.04.43.12l-.23.38c-.06-.04-.13-.06-.2-.06-.13,0-.26.07-.38.21s-.21.32-.26.54-.08.62-.08,1.19v1.17h-.46v-3.45h0Z"/><path d="m168.06,88.64v4.78h-.44v-.59c-.39.47-.85.71-1.35.71s-.94-.18-1.28-.54c-.35-.36-.52-.79-.52-1.29s.17-.93.53-1.29c.35-.36.77-.54,1.26-.54.56,0,1.02.24,1.37.72v-1.96h.44-.01Zm-.41,3.08c0-.39-.13-.73-.39-1s-.58-.41-.97-.41-.72.14-.98.42-.39.61-.39.99.13.71.4.99.59.42.95.42.69-.13.96-.4c.28-.27.42-.6.42-1.01h0Z"/><path d="m169.74,89.97h.46v.5c.12-.2.24-.35.35-.45.12-.1.24-.14.38-.14s.28.04.43.12l-.23.38c-.06-.04-.13-.06-.2-.06-.13,0-.26.07-.38.21s-.21.32-.26.54-.08.62-.08,1.19v1.17h-.46v-3.45h0Z"/></g></svg>