<svg xmlns="http://www.w3.org/2000/svg" id="b" viewBox="0 0 244 208.45"><defs><style>.d,.e,.f,.g,.h,.i,.j{fill:none}.e,.f,.g,.h{stroke-width:1.05px}.e,.f,.g,.h,.i,.j{stroke-miterlimit:10}.e,.i{stroke:#000}.f{stroke:#d06524}.g{stroke:#d0653e}.h{stroke:#5d97c9}.k{fill:#fff}.l{fill:#8a8a8a}.m{fill:#d0653e}.n{fill:#4781a3}.o{fill:#575656}.p{fill:#5d97c9}.q{fill:#4d4d4d}.i,.j{stroke-width:.53px}.j{stroke:#333;stroke-dasharray:0 0 3.16 2.11}</style></defs><g id="c"><line x1="178.79" x2="220.77" y1="169.22" y2="169.22" class="i"/><path d="m220.72,170.31c.6,0,1.09-.49,1.09-1.09s-.49-1.09-1.09-1.09-1.09.49-1.09,1.09.49,1.09,1.09,1.09"/><line x1="178.79" x2="219.93" y1="155.74" y2="155.74" class="i"/><path d="m219.83,157.72c1.09,0,1.98-.89,1.98-1.98s-.89-1.98-1.98-1.98-1.98.89-1.98,1.98.89,1.98,1.98,1.98"/><line x1="180.04" x2="220.77" y1="142.26" y2="142.26" class="i"/><path d="m220.72,143.34c.6,0,1.09-.49,1.09-1.09s-.49-1.09-1.09-1.09-1.09.49-1.09,1.09.49,1.09,1.09,1.09"/><line x1="178.79" x2="219.93" y1="128.78" y2="128.78" class="i"/><path d="m219.83,130.76c1.09,0,1.98-.89,1.98-1.98s-.89-1.98-1.98-1.98-1.98.89-1.98,1.98.89,1.98,1.98,1.98"/><line x1="178.79" x2="220.21" y1="115.3" y2="115.3" class="i"/><path d="m220.13,116.98c.93,0,1.68-.75,1.68-1.68s-.75-1.68-1.68-1.68-1.68.75-1.68,1.68.76,1.68,1.68,1.68"/><line x1="180.04" x2="219.93" y1="101.81" y2="101.81" class="i"/><path d="m219.83,103.79c1.09,0,1.98-.89,1.98-1.98s-.89-1.98-1.98-1.98-1.98.89-1.98,1.98.89,1.98,1.98,1.98"/><line x1="178.79" x2="219.93" y1="88.33" y2="88.33" class="i"/><path d="m219.83,90.31c1.09,0,1.98-.89,1.98-1.98s-.89-1.98-1.98-1.98-1.98.89-1.98,1.98.89,1.98,1.98,1.98"/><line x1="178.79" x2="219.93" y1="74.85" y2="74.85" class="i"/><path d="m219.83,76.83c1.09,0,1.98-.89,1.98-1.98s-.89-1.98-1.98-1.98-1.98.89-1.98,1.98.89,1.98,1.98,1.98"/><line x1="180.04" x2="220.77" y1="61.37" y2="61.37" class="i"/><path d="m220.72,62.46c.6,0,1.09-.49,1.09-1.09s-.49-1.09-1.09-1.09-1.09.49-1.09,1.09.49,1.09,1.09,1.09"/><line x1="178.79" x2="219.93" y1="47.89" y2="47.89" class="i"/><path d="m219.83,49.87c1.09,0,1.98-.89,1.98-1.98s-.89-1.98-1.98-1.98-1.98.89-1.98,1.98.89,1.98,1.98,1.98"/><line x1="178.79" x2="219.93" y1="34.41" y2="34.41" class="i"/><path d="m219.83,36.39c1.09,0,1.98-.89,1.98-1.98s-.89-1.98-1.98-1.98-1.98.89-1.98,1.98.89,1.98,1.98,1.98"/><line x1="180.04" x2="219.93" y1="20.93" y2="20.93" class="i"/><path d="m219.83,22.91c1.09,0,1.98-.89,1.98-1.98s-.89-1.98-1.98-1.98-1.98.89-1.98,1.98.89,1.98,1.98,1.98"/><line x1="195.95" x2="220.32" y1="27.67" y2="27.67" class="i"/><path d="m220.24,29.24c.86,0,1.56-.7,1.56-1.56s-.7-1.56-1.56-1.56-1.56.7-1.56,1.56.7,1.56,1.56,1.56"/><line x1="195.95" x2="220.21" y1="41.15" y2="41.15" class="i"/><path d="m220.13,42.83c.93,0,1.68-.75,1.68-1.68s-.75-1.68-1.68-1.68-1.68.75-1.68,1.68.76,1.68,1.68,1.68"/><line x1="195.95" x2="220.68" y1="54.63" y2="54.63" class="i"/><path d="m220.62,55.82c.66,0,1.19-.53,1.19-1.19s-.53-1.19-1.19-1.19-1.19.53-1.19,1.19.53,1.19,1.19,1.19"/><line x1="195.95" x2="219.93" y1="68.11" y2="68.11" class="i"/><path d="m219.83,70.09c1.09,0,1.98-.89,1.98-1.98s-.89-1.98-1.98-1.98-1.98.89-1.98,1.98.89,1.98,1.98,1.98"/><line x1="195.95" x2="220.3" y1="81.59" y2="81.59" class="i"/><path d="m220.22,83.18c.87,0,1.58-.71,1.58-1.58s-.71-1.58-1.58-1.58-1.58.71-1.58,1.58.71,1.58,1.58,1.58"/><line x1="195.95" x2="220.68" y1="95.07" y2="95.07" class="i"/><path d="m220.62,96.26c.66,0,1.19-.53,1.19-1.19s-.53-1.19-1.19-1.19-1.19.53-1.19,1.19.53,1.19,1.19,1.19"/><line x1="195.95" x2="219.93" y1="108.56" y2="108.56" class="i"/><path d="m219.83,110.53c1.09,0,1.98-.89,1.98-1.98s-.89-1.98-1.98-1.98-1.98.89-1.98,1.98.89,1.98,1.98,1.98"/><line x1="195.95" x2="219.93" y1="122.03" y2="122.03" class="i"/><path d="m219.83,124.02c1.09,0,1.98-.89,1.98-1.98s-.89-1.98-1.98-1.98-1.98.89-1.98,1.98.89,1.98,1.98,1.98"/><line x1="195.95" x2="220.21" y1="135.52" y2="135.52" class="i"/><path d="m220.13,137.2c.93,0,1.68-.75,1.68-1.68s-.75-1.68-1.68-1.68-1.68.75-1.68,1.68.76,1.68,1.68,1.68"/><line x1="195.95" x2="220.68" y1="149" y2="149" class="i"/><path d="m220.62,150.18c.66,0,1.19-.53,1.19-1.19s-.53-1.19-1.19-1.19-1.19.53-1.19,1.19.53,1.19,1.19,1.19"/><line x1="195.95" x2="219.93" y1="162.48" y2="162.48" class="i"/><path d="m219.83,164.46c1.09,0,1.98-.89,1.98-1.98s-.89-1.98-1.98-1.98-1.98.89-1.98,1.98.89,1.98,1.98,1.98"/><line x1="195.95" x2="220.68" y1="175.96" y2="175.96" class="i"/><path d="m220.62,177.15c.66,0,1.19-.53,1.19-1.19s-.53-1.19-1.19-1.19-1.19.53-1.19,1.19.53,1.19,1.19,1.19"/><polyline points="52.97 123.29 43.9 123.29 45.77 120.18 43.66 120.18 43.66 118.31 49.29 118.31 49.38 116.7 43.91 116.7 43.91 113.97 53.48 113.97 52.97 123.29" class="p"/><line x1="52.98" x2="64.92" y1="118.2" y2="118.2" class="h"/><polyline points="52.48 137.96 43.41 137.96 45.27 134.85 43.16 134.85 43.16 132.98 48.79 132.98 48.88 131.37 43.41 131.37 43.41 128.64 52.98 128.64 52.48 137.96" class="p"/><line x1="52.49" x2="64.42" y1="132.86" y2="132.86" class="h"/><polyline points="52.57 151.26 43.5 151.26 45.37 148.16 43.25 148.16 43.25 146.29 48.89 146.29 48.97 144.68 43.5 144.68 43.5 141.95 53.08 141.95 52.57 151.26" class="p"/><line x1="52.58" x2="64.51" y1="146.17" y2="146.17" class="h"/><polyline points="52.23 165.1 43.16 165.1 45.02 162 42.91 162 42.91 160.13 48.55 160.13 48.63 158.52 43.16 158.52 43.16 155.79 52.73 155.79 52.23 165.1" class="p"/><line x1="52.24" x2="64.17" y1="160.01" y2="160.01" class="h"/><polyline points="53.22 42.93 44.15 42.93 46.02 39.83 43.91 39.83 43.91 37.96 49.54 37.96 49.62 36.35 44.16 36.35 44.16 33.61 53.73 33.61 53.22 42.93" class="m"/><line x1="53.23" x2="65.17" y1="37.84" y2="37.84" class="g"/><polyline points="52.73 57.6 43.65 57.6 45.52 54.5 43.41 54.5 43.41 52.63 49.04 52.63 49.13 51.02 43.66 51.02 43.66 48.28 53.23 48.28 52.73 57.6" class="m"/><line x1="52.73" x2="64.67" y1="52.51" y2="52.51" class="g"/><polyline points="52.82 70.91 43.75 70.91 45.61 67.81 43.5 67.81 43.5 65.94 49.14 65.94 49.22 64.32 43.75 64.32 43.75 61.59 53.32 61.59 52.82 70.91" class="m"/><line x1="52.83" x2="64.76" y1="65.82" y2="65.82" class="g"/><polyline points="52.48 84.75 43.41 84.75 45.27 81.65 43.16 81.65 43.16 79.78 48.79 79.78 48.88 78.17 43.41 78.17 43.41 75.43 52.98 75.43 52.48 84.75" class="m"/><line x1="52.49" x2="64.42" y1="79.66" y2="79.66" class="g"/><path d="m144.26,57.34c0-15.73-12.75-28.48-28.48-28.48s-28.48,12.75-28.48,28.48,12.75,28.48,28.48,28.48,28.48-12.75,28.48-28.48Z" class="f"/><path d="m144.26,137.9c0-15.73-12.75-28.48-28.48-28.48s-28.48,12.75-28.48,28.48,12.75,28.48,28.48,28.48,28.48-12.75,28.48-28.48Z" class="h"/><path d="m72.38,38.83c0-3.71-3.01-6.71-6.71-6.71s-6.71,3.01-6.71,6.71,3.01,6.71,6.71,6.71,6.71-3.01,6.71-6.71" class="l"/><circle cx="65.66" cy="38.83" r="6.71" class="f"/><path d="m72.38,52.26c0-3.71-3.01-6.71-6.71-6.71s-6.71,3.01-6.71,6.71,3.01,6.71,6.71,6.71,6.71-3.01,6.71-6.71" class="l"/><circle cx="65.66" cy="52.26" r="6.71" class="f" transform="translate(-17.67 42.33) rotate(-31.72)"/><path d="m72.38,65.49c0-3.71-3.01-6.71-6.71-6.71s-6.71,3.01-6.71,6.71,3.01,6.71,6.71,6.71,6.71-3.01,6.71-6.71" class="l"/><circle cx="65.66" cy="65.49" r="6.71" class="f"/><path d="m72.38,79.11c0-3.71-3.01-6.71-6.71-6.71s-6.71,3.01-6.71,6.71,3.01,6.71,6.71,6.71,6.71-3.01,6.71-6.71" class="l"/><circle cx="65.66" cy="79.11" r="6.71" class="f"/><path d="m72.38,119.39c0-3.71-3.01-6.71-6.71-6.71s-6.71,3.01-6.71,6.71,3.01,6.71,6.71,6.71,6.71-3.01,6.71-6.71" class="l"/><path d="m72.38,119.39c0-3.71-3.01-6.71-6.71-6.71s-6.71,3.01-6.71,6.71,3.01,6.71,6.71,6.71,6.71-3.01,6.71-6.71Z" class="h"/><path d="m72.38,132.82c0-3.71-3.01-6.71-6.71-6.71s-6.71,3.01-6.71,6.71,3.01,6.71,6.71,6.71,6.71-3.01,6.71-6.71" class="l"/><circle cx="65.66" cy="132.82" r="6.71" class="h"/><path d="m72.38,146.24c0-3.71-3.01-6.71-6.71-6.71s-6.71,3.01-6.71,6.71,3.01,6.71,6.71,6.71,6.71-3.01,6.71-6.71" class="l"/><path d="m72.38,146.24c0-3.71-3.01-6.71-6.71-6.71s-6.71,3.01-6.71,6.71,3.01,6.71,6.71,6.71,6.71-3.01,6.71-6.71Z" class="h"/><path d="m72.38,159.67c0-3.71-3.01-6.71-6.71-6.71s-6.71,3.01-6.71,6.71,3.01,6.71,6.71,6.71,6.71-3.01,6.71-6.71" class="l"/><circle cx="65.66" cy="159.67" r="6.71" class="h"/><path d="m114.09,45.55h.78v-4.88l3.06,4.88h.92v-6.04h-.78v4.88l-3.01-4.88h-.97v6.04m-4.68,0h3.85v-.72h-3.03v-5.32h-.82v6.04Z"/><path d="m114.56,72.4h.78v-4.88l3.06,4.88h.92v-6.04h-.78v4.88l-3.01-4.88h-.96v6.04m-1.88-4.31c0,.39-.11.67-.34.83-.23.16-.52.23-.89.23h-1.62v-2.09h1.62c.31,0,.56.04.74.13.33.16.49.46.49.9m-3.67,4.31h.82v-2.55h1.89c.6,0,1.05-.17,1.35-.53.29-.35.44-.76.44-1.23,0-.55-.16-.97-.49-1.28-.33-.3-.76-.45-1.29-.45h-2.7v6.04Z"/><path d="m114.09,126.1h.78v-4.88l3.06,4.88h.92v-6.04h-.78v4.88l-3.01-4.88h-.97v6.04m-4.68,0h3.85v-.72h-3.03v-5.32h-.82v6.04Z"/><path d="m114.56,152.96h.78v-4.88l3.06,4.88h.92v-6.04h-.78v4.88l-3.01-4.88h-.96v6.04m-1.88-4.31c0,.39-.11.67-.34.83-.23.16-.52.23-.89.23h-1.62v-2.1h1.62c.31,0,.56.04.74.13.33.16.49.46.49.91m-3.67,4.31h.82v-2.56h1.89c.6,0,1.05-.17,1.35-.52.29-.35.44-.76.44-1.23,0-.55-.16-.98-.49-1.28-.33-.3-.76-.45-1.29-.45h-2.7v6.04Z"/><path d="m38.59,69.06l-.18-.51-5.25,4.65.51.23v-4.65l-.28.28m0-.55c-.18,0-.32.09-.32.27v4.65l.18.23.32-.05,5.2-4.6.09-.32c-.05-.14-.14-.18-.28-.18h-5.2Z" class="m"/><path d="m31.96,58.38l.18.37,1.98-5.75-.37.18,2.21.74-.19-.37-1.2,3.59c-.05.14,0,.28.18.32l2.21.78-.18-.37-.78,2.26.37-.18m-.18.55c.18.05.32-.05.37-.19l.78-2.25c.04-.14-.05-.32-.18-.37l-2.21-.74.18.37,1.2-3.54c.04-.18,0-.32-.18-.37l-2.21-.78c-.14-.05-.32,0-.37.18l-1.98,5.75c-.05.14,0,.32.18.37l4.42,1.56Z" class="m"/><path d="m33.02,123.57l-.27.28h6.54l-.28-.28v2.21l.28-.32h-4.33c-.14,0-.28.14-.28.32v2.21l.28-.32h-2.21l.27.32m-.55,0c0,.14.14.28.28.28h2.21c.18,0,.28-.14.28-.28v-2.21l-.28.28h4.33c.19,0,.28-.14.28-.28v-2.21c0-.18-.09-.32-.28-.32h-6.54c-.14,0-.28.14-.28.32v4.42Z" class="m"/><path d="m29.24,105.84l.09-.41-5.48,3.59.42.09-1.24-1.84-.05.41,3.59-2.39c.14-.09.18-.28.09-.41l-1.2-1.84-.09.41,1.84-1.2-.42-.09m.51-.32c-.09-.14-.28-.19-.41-.09l-1.84,1.24c-.14.09-.18.23-.09.37l1.24,1.84.04-.41-3.59,2.44c-.14.05-.18.23-.09.37l1.2,1.84c.09.14.28.19.41.1l5.43-3.64c.14-.05.18-.23.09-.37l-2.39-3.68Z" class="m"/><path d="m23.35,28.54v.55c.06,2.66.15,5.35.14,8.01v.51l-.32-.28,1.38-.18-.18.05,3.18-2.76.18.51-3.18-.14-.18-.09-.09-.23.09-2.35c.05-.18.14-.28.32-.28h6.86l-.32.32v-1.33l.28.32-7.04-.09c-.18,0-.28-.14-.28-.32v-2.58l.23.28-1.38-.14.32-.28m-.55,0l.09-.23.23-.09,1.38.18c.14,0,.23.14.23.28v2.58l-.28-.28,7.09.09c.14,0,.28.14.28.28v1.33l-.09.18-.18.09-6.86-.05.27-.28-.09,2.39-.28-.32,3.18.14.28.18c0,.14,0,.23-.09.32l-3.18,2.81-.18.05-1.34.19-.23-.05-.09-.23v-.51c-.05-2.66-.13-5.35-.14-8.01v-1.06Z" class="m"/><path d="m11.61,62.38l.37.41c1.73,2.02,3.58,3.95,5.3,5.99l.37.37h-.46l.92-1.01-.05.14.55-4.19.46.28-2.49,1.98-.18.05-.23-.09-1.48-1.89.05-.37,5.2-4.47v.41l-.87-1.01.41.05-5.43,4.56c-.09.09-.28.09-.37-.05l-1.7-1.93.37.04-1.15.74.05-.41m-.42.37l-.09-.23.14-.18,1.15-.78c.14-.05.27-.05.37.05l1.7,1.98-.42-.05,5.43-4.56c.14-.09.32-.05.41.05l.83,1.01.09.18-.09.18-5.25,4.47.05-.41,1.47,1.89-.42-.05,2.53-1.98c.09-.09.18-.09.32-.04.09.09.14.18.14.32l-.6,4.19-.09.14-.88,1.01-.23.14-.23-.14-.32-.37c-1.74-2.04-3.58-3.97-5.34-5.98l-.37-.42-.32-.41Z" class="m"/><path d="m19.34,139.96l-.51-.27c-2.33-1.25-4.74-2.39-7.09-3.64l-.46-.27.37-.14-.46,1.29v-.18l.97,4.14-.5-.09,1.61-2.72.18-.14h.18l2.07,1.24c.14.04.19.23.09.37l-3.22,6.03-.14-.41,1.15.64-.42.09,3.45-6.17c.05-.14.23-.23.37-.14l2.3,1.2-.41.09.83-1.11.09.41m.28-.5l.14.18-.04.23-.78,1.15-.37.09-2.3-1.24.41-.09-3.45,6.17c-.05.14-.23.18-.37.14l-1.15-.65-.14-.14.05-.23,3.22-6.03.14.37-2.07-1.2.42-.09-1.61,2.76c-.09.09-.18.14-.32.14l-.23-.23-.97-4.14v-.14l.51-1.29.14-.18h.23l.46.28c2.39,1.17,4.77,2.42,7.14,3.64l.51.27.46.23Z" class="m"/><path d="m25.42,79.83l.37-.41-6.58-2.35.05.55,4.51-2.12-.41-.14m.55-.23c-.09-.14-.28-.23-.41-.14l-4.51,2.07-.14.28c0,.14.09.23.19.28l6.58,2.35.28-.09.09-.28-2.07-4.47Z" class="n"/><path d="m21.37,51.38l-.19.51-5.25-4.88.51-.18v4.88l-.28-.32m0,.6c-.18,0-.32-.14-.32-.28v-4.88c0-.14.09-.23.18-.27l.32.05,5.2,4.88c.09.09.14.19.09.32-.05.09-.14.18-.27.18h-5.2Z" class="n"/><path d="m29.11,136.09h-.42l4.28,4.33v-.41l-1.66,1.66h.41l-2.67-2.67c-.09-.14-.28-.14-.41,0l-1.66,1.61h.41l-1.66-1.66v.42m-.41-.42c-.09.14-.09.32,0,.42l1.66,1.65c.09.14.28.14.41,0l1.66-1.61h-.41l2.67,2.67h.37l1.7-1.66c.09-.09.09-.28,0-.41l-4.28-4.33c-.14-.14-.32-.14-.42,0l-3.36,3.27Z" class="n"/><path d="m25.51,113.39h-.55l2.26,6.59.42-.32-4.47-2.26.14.41m-.51-.27c-.09.14-.04.32.14.37l4.42,2.26.32-.05.09-.32-2.26-6.58c-.05-.14-.14-.18-.27-.23l-.28.18-2.17,4.38Z" class="n"/><path d="m28.51,158.65l-.32-.28h8.38l-.28.28v-1.8l.28.28h-6.54c-.14,0-.28-.14-.28-.28v-1.84l.28.28h-1.84l.32-.28m-.6,0c0-.18.14-.32.28-.32h1.84c.18,0,.28.14.28.32v1.84l-.28-.32h6.54c.18,0,.28.14.28.32v1.8c0,.18-.09.32-.28.32h-8.38c-.14,0-.28-.14-.28-.32v-3.64Z" class="n"/><path d="m26.94,90.6l-.23-.32-1.06,6.03.32-.23-2.3-.41.23.32.64-3.73c.05-.14-.09-.32-.23-.32l-2.3-.41.23.32.42-2.3-.37.23m.14-.55c-.19-.05-.32.05-.37.23l-.41,2.3c0,.14.09.32.23.32l2.35.41-.23-.32-.69,3.73c0,.14.09.28.23.32l2.35.41c.14.05.28-.09.32-.23l1.06-6.03c.04-.18-.05-.32-.23-.37l-4.6-.78Z" class="n"/><path d="m20.31,101.15l-.55-.05c-2.65-.29-5.31-.47-7.96-.78l-.55-.04.32-.28.05,1.34-.05-.14,2.39,3.45-.51.14.51-3.13.09-.18.23-.05,2.35.37c.14,0,.28.14.23.28l-.78,6.81-.28-.32,1.29.18-.32.23.92-7.04c0-.14.14-.23.32-.23l2.53.28-.28.23.32-1.33.23.37m.05-.6l.23.14.05.23-.32,1.34c-.05.14-.18.23-.32.23l-2.58-.32.32-.23-.87,7c-.05.18-.18.27-.32.27l-1.29-.14-.18-.14-.09-.18.83-6.81.23.32-2.35-.37.32-.23-.46,3.13c-.05.14-.14.23-.23.23-.14.04-.23,0-.32-.09l-2.39-3.5-.09-.14v-1.38l.09-.23.23-.09.51.09c2.64.27,5.33.46,7.96.78l.56.04.51.05Z" class="n"/><path d="m17.4,157.27l-.46.32c-2.25,1.45-4.41,3.01-6.67,4.46l-.41.28.05-.42.92,1.06-.14-.09,4.05,1.11-.32.46-1.61-2.76-.05-.18.14-.18,2.03-1.24c.14-.05.32-.05.41.09l3.68,5.76-.37-.05,1.06-.73-.05.41-3.82-5.98c-.05-.14-.05-.32.09-.41l2.16-1.38-.09.37-.6-1.24.42.09m-.32-.46l.23-.05.18.14.6,1.24c.09.14.05.28-.09.37l-2.17,1.43.09-.41,3.78,5.99c.09.14.04.32-.09.41l-1.06.69-.23.05-.18-.14-3.73-5.75.42.09-2.07,1.2.14-.37,1.61,2.72-.05.32-.28.09-4.1-1.1-.14-.09-.87-1.06-.09-.23.14-.18.42-.28c2.25-1.47,4.44-3.02,6.68-4.51l.46-.28.41-.28Z" class="n"/><line x1="65.66" x2="105.2" y1="38.83" y2="38.83" class="i"/><line x1="65.66" x2="105.45" y1="38.83" y2="65.28" class="i"/><line x1="65.66" x2="105.45" y1="52.26" y2="40.92" class="i"/><line x1="65.17" x2="105.45" y1="51.81" y2="67.02" class="i"/><line x1="65.66" x2="105.45" y1="65.49" y2="42.91" class="i"/><line x1="64.76" x2="105.45" y1="65.82" y2="68.51" class="i"/><line x1="65.66" x2="105.45" y1="79.11" y2="44.4" class="i"/><line x1="65.17" x2="105.45" y1="78.91" y2="69.76" class="i"/><line x1="65.66" x2="105.2" y1="119.39" y2="119.39" class="i"/><line x1="65.66" x2="105.45" y1="119.39" y2="145.84" class="i"/><line x1="65.66" x2="105.45" y1="132.82" y2="121.48" class="i"/><line x1="65.17" x2="105.45" y1="132.37" y2="147.58" class="i"/><line x1="65.66" x2="105.45" y1="146.05" y2="123.46" class="i"/><line x1="64.76" x2="105.45" y1="146.38" y2="149.07" class="i"/><line x1="65.66" x2="105.45" y1="159.67" y2="124.96" class="i"/><line x1="65.17" x2="105.45" y1="159.47" y2="150.32" class="i"/><path d="m123.47,39.37c13.78,4.03,14.23,19.28,0,25.03" class="j"/><polyline points="123.06 40.14 123.31 40.22 123.88 38.61 123.63 38.52 123.06 40.14" class="o"/><polyline points="122.98 63.67 123.22 63.56 123.95 65.11 123.71 65.22 122.98 63.67" class="o"/><path d="m123.22,127.63c13.78,4.03,14.23,19.28,0,25.03" class="j"/><polyline points="122.81 128.4 123.06 128.49 123.63 126.88 123.39 126.79 122.81 128.4" class="o"/><polyline points="122.74 151.94 122.97 151.82 123.7 153.37 123.46 153.48 122.74 151.94" class="o"/><path d="m123.46,70.97c13.8,8.21,14.25,39.36,0,51.07" class="j"/><polyline points="122.88 71.62 123.1 71.77 124.04 70.33 123.82 70.19 122.88 71.62" class="o"/><polyline points="122.78 121.48 122.98 121.31 124.11 122.6 123.91 122.77 122.78 121.48" class="o"/><path d="m181.28,25.41c0-3.71-3.01-6.71-6.71-6.71s-6.71,3.01-6.71,6.71,3,6.71,6.71,6.71,6.71-3.01,6.71-6.71" class="l"/><circle cx="174.57" cy="25.41" r="6.71" class="e"/><path d="m181.28,38.83c0-3.71-3.01-6.71-6.71-6.71s-6.71,3.01-6.71,6.71,3,6.71,6.71,6.71,6.71-3.01,6.71-6.71" class="l"/><circle cx="174.57" cy="38.83" r="6.71" class="e"/><path d="m181.28,52.07c0-3.71-3.01-6.71-6.71-6.71s-6.71,3.01-6.71,6.71,3,6.71,6.71,6.71,6.71-3.01,6.71-6.71" class="l"/><circle cx="174.57" cy="52.07" r="6.71" class="e"/><path d="m181.28,65.69c0-3.71-3.01-6.71-6.71-6.71s-6.71,3.01-6.71,6.71,3,6.71,6.71,6.71,6.71-3.01,6.71-6.71" class="l"/><circle cx="174.57" cy="65.69" r="6.71" class="e" transform="translate(-8.46 101.59) rotate(-31.72)"/><path d="m196.2,25.41c0-3.71-3.01-6.71-6.71-6.71s-6.71,3.01-6.71,6.71,3.01,6.71,6.71,6.71,6.71-3.01,6.71-6.71" class="l"/><path d="m196.2,25.41c0-3.71-3.01-6.71-6.71-6.71s-6.71,3.01-6.71,6.71,3.01,6.71,6.71,6.71,6.71-3.01,6.71-6.71Z" class="e"/><path d="m196.2,38.83c0-3.71-3.01-6.71-6.71-6.71s-6.71,3.01-6.71,6.71,3.01,6.71,6.71,6.71,6.71-3.01,6.71-6.71" class="l"/><path d="m196.2,38.83c0-3.71-3.01-6.71-6.71-6.71s-6.71,3.01-6.71,6.71,3.01,6.71,6.71,6.71,6.71-3.01,6.71-6.71Z" class="e"/><path d="m196.2,52.07c0-3.71-3.01-6.71-6.71-6.71s-6.71,3.01-6.71,6.71,3.01,6.71,6.71,6.71,6.71-3.01,6.71-6.71" class="l"/><path d="m196.2,52.07c0-3.71-3.01-6.71-6.71-6.71s-6.71,3.01-6.71,6.71,3.01,6.71,6.71,6.71,6.71-3.01,6.71-6.71Z" class="e"/><path d="m196.2,65.69c0-3.71-3.01-6.71-6.71-6.71s-6.71,3.01-6.71,6.71,3.01,6.71,6.71,6.71,6.71-3.01,6.71-6.71" class="l"/><path d="m196.2,65.69c0-3.71-3.01-6.71-6.71-6.71s-6.71,3.01-6.71,6.71,3.01,6.71,6.71,6.71,6.71-3.01,6.71-6.71Z" class="e"/><path d="m181.53,79.86c0-3.71-3.01-6.71-6.71-6.71s-6.71,3.01-6.71,6.71,3.01,6.71,6.71,6.71,6.71-3.01,6.71-6.71" class="l"/><circle cx="174.82" cy="79.86" r="6.71" class="e" transform="translate(-17.25 72.98) rotate(-22.5)"/><path d="m181.53,93.29c0-3.71-3.01-6.71-6.71-6.71s-6.71,3.01-6.71,6.71,3.01,6.71,6.71,6.71,6.71-3.01,6.71-6.71" class="l"/><circle cx="174.82" cy="93.29" r="6.71" class="e" transform="translate(-22.39 74) rotate(-22.5)"/><path d="m181.53,106.52c0-3.71-3.01-6.71-6.71-6.71s-6.71,3.01-6.71,6.71,3.01,6.71,6.71,6.71,6.71-3.01,6.71-6.71" class="l"/><circle cx="174.82" cy="106.52" r="6.71" class="e" transform="translate(-27.46 75.01) rotate(-22.5)"/><path d="m181.53,120.14c0-3.71-3.01-6.71-6.71-6.71s-6.71,3.01-6.71,6.71,3.01,6.71,6.71,6.71,6.71-3.01,6.71-6.71" class="l"/><circle cx="174.82" cy="120.14" r="6.71" class="e"/><path d="m196.45,79.86c0-3.71-3.01-6.71-6.71-6.71s-6.71,3.01-6.71,6.71,3.01,6.71,6.71,6.71,6.71-3.01,6.71-6.71" class="l"/><path d="m196.45,79.86c0-3.71-3.01-6.71-6.71-6.71s-6.71,3.01-6.71,6.71,3.01,6.71,6.71,6.71,6.71-3.01,6.71-6.71Z" class="e"/><path d="m196.45,93.29c0-3.71-3.01-6.71-6.71-6.71s-6.71,3.01-6.71,6.71,3.01,6.71,6.71,6.71,6.71-3.01,6.71-6.71" class="l"/><path d="m196.45,93.29c0-3.71-3.01-6.71-6.71-6.71s-6.71,3.01-6.71,6.71,3.01,6.71,6.71,6.71,6.71-3.01,6.71-6.71Z" class="e"/><path d="m196.45,106.52c0-3.71-3.01-6.71-6.71-6.71s-6.71,3.01-6.71,6.71,3.01,6.71,6.71,6.71,6.71-3.01,6.71-6.71" class="l"/><path d="m196.45,106.52c0-3.71-3.01-6.71-6.71-6.71s-6.71,3.01-6.71,6.71,3.01,6.71,6.71,6.71,6.71-3.01,6.71-6.71Z" class="e"/><path d="m196.45,120.14c0-3.71-3.01-6.71-6.71-6.71s-6.71,3.01-6.71,6.71,3.01,6.71,6.71,6.71,6.71-3.01,6.71-6.71" class="l"/><path d="m196.45,120.14c0-3.71-3.01-6.71-6.71-6.71s-6.71,3.01-6.71,6.71,3.01,6.71,6.71,6.71,6.71-3.01,6.71-6.71Z" class="e"/><path d="m181.4,133.69c0-3.71-3.01-6.71-6.71-6.71s-6.71,3-6.71,6.71,3.01,6.71,6.71,6.71,6.71-3.01,6.71-6.71" class="l"/><path d="m181.4,133.69c0-3.71-3.01-6.71-6.71-6.71s-6.71,3-6.71,6.71,3.01,6.71,6.71,6.71,6.71-3.01,6.71-6.71Z" class="e"/><path d="m181.4,147.11c0-3.71-3.01-6.71-6.71-6.71s-6.71,3.01-6.71,6.71,3.01,6.71,6.71,6.71,6.71-3.01,6.71-6.71" class="l"/><path d="m181.4,147.11c0-3.71-3.01-6.71-6.71-6.71s-6.71,3.01-6.71,6.71,3.01,6.71,6.71,6.71,6.71-3.01,6.71-6.71Z" class="e"/><path d="m181.4,160.35c0-3.71-3.01-6.71-6.71-6.71s-6.71,3.01-6.71,6.71,3.01,6.71,6.71,6.71,6.71-3.01,6.71-6.71" class="l"/><path d="m181.4,160.35c0-3.71-3.01-6.71-6.71-6.71s-6.71,3.01-6.71,6.71,3.01,6.71,6.71,6.71,6.71-3.01,6.71-6.71Z" class="e"/><path d="m181.4,173.97c0-3.71-3.01-6.71-6.71-6.71s-6.71,3.01-6.71,6.71,3.01,6.71,6.71,6.71,6.71-3.01,6.71-6.71" class="l"/><path d="m181.4,173.97c0-3.71-3.01-6.71-6.71-6.71s-6.71,3.01-6.71,6.71,3.01,6.71,6.71,6.71,6.71-3.01,6.71-6.71Z" class="e"/><path d="m196.32,133.69c0-3.71-3.01-6.71-6.71-6.71s-6.71,3-6.71,6.71,3.01,6.71,6.71,6.71,6.71-3.01,6.71-6.71" class="l"/><path d="m196.32,133.69c0-3.71-3.01-6.71-6.71-6.71s-6.71,3-6.71,6.71,3.01,6.71,6.71,6.71,6.71-3.01,6.71-6.71Z" class="e"/><path d="m196.32,147.11c0-3.71-3.01-6.71-6.71-6.71s-6.71,3.01-6.71,6.71,3.01,6.71,6.71,6.71,6.71-3.01,6.71-6.71" class="l"/><path d="m196.32,147.11c0-3.71-3.01-6.71-6.71-6.71s-6.71,3.01-6.71,6.71,3.01,6.71,6.71,6.71,6.71-3.01,6.71-6.71Z" class="e"/><path d="m196.32,160.35c0-3.71-3.01-6.71-6.71-6.71s-6.71,3.01-6.71,6.71,3.01,6.71,6.71,6.71,6.71-3.01,6.71-6.71" class="l"/><circle cx="189.61" cy="160.35" r="6.71" class="e"/><path d="m196.32,173.97c0-3.71-3.01-6.71-6.71-6.71s-6.71,3.01-6.71,6.71,3.01,6.71,6.71,6.71,6.71-3.01,6.71-6.71" class="l"/><path d="m196.32,173.97c0-3.71-3.01-6.71-6.71-6.71s-6.71,3.01-6.71,6.71,3.01,6.71,6.71,6.71,6.71-3.01,6.71-6.71Z" class="e"/><line x1="122.35" x2="189.49" y1="67.72" y2="25.41" class="i"/><line x1="122.35" x2="174.57" y1="67.72" y2="52.07" class="i"/><line x1="122.35" x2="189.86" y1="67.72" y2="148.11" class="i"/><line x1="122.35" x2="189.73" y1="67.72" y2="106.52" class="i"/><line x1="122.35" x2="189.49" y1="67.72" y2="65.69" class="i"/><line x1="122.35" x2="189.49" y1="147.54" y2="38.83" class="i"/><line x1="121.85" x2="189.49" y1="147.49" y2="174.59" class="i"/><line x1="121.85" x2="174.82" y1="147.49" y2="120.14" class="i"/><line x1="121.11" x2="189.73" y1="148.23" y2="79.86" class="i"/><path d="m159.59,171.61c-.89,0-1.58.31-2.09.93-.46.57-.7,1.3-.7,2.19,0,1.18.31,2.04.93,2.61.47.42,1.06.64,1.75.64.8,0,1.44-.26,1.92-.78.4-.43.63-.96.7-1.6h-.8c-.08.4-.2.72-.37.96-.31.46-.76.7-1.35.7-.64,0-1.13-.22-1.45-.66-.33-.44-.49-1.02-.49-1.72,0-.87.18-1.51.54-1.93.36-.42.83-.63,1.42-.63.48,0,.85.11,1.12.34.26.23.44.54.53.93h.8c-.04-.51-.28-.97-.69-1.37-.42-.4-1.01-.6-1.76-.6m-8.13,6.21h.8v-2.11l.99-.93,2.17,3.04h1.07l-2.64-3.6,2.58-2.44h-1.14l-3.02,2.96v-2.96h-.8v6.04Z" class="o"/><rect width="13.8" height="173.05" x="219.79" y="17.95" class="q"/><polyline points="226.69 178.47 235.34 193.46 244 208.45 209.38 208.45 226.69 178.47" class="q"/><path d="m65.41,105.37c.13-.12.2-.27.2-.47s-.07-.35-.2-.46c-.13-.12-.28-.18-.45-.18s-.32.06-.45.18c-.13.12-.2.27-.2.46s.07.35.2.47c.13.12.28.18.45.18s.32-.06.45-.18m0-3.32c.13-.12.2-.28.2-.47s-.07-.35-.2-.47c-.13-.12-.28-.18-.45-.18s-.32.06-.45.18c-.13.12-.2.27-.2.47s.07.35.2.47c.13.12.28.18.45.18s.32-.06.45-.18m0-3.32c.13-.12.2-.27.2-.47s-.07-.35-.2-.46c-.13-.12-.28-.18-.45-.18s-.32.06-.45.18c-.13.12-.2.27-.2.46s.07.35.2.47c.13.12.28.18.45.18s.32-.06.45-.18m0-3.32c.13-.12.2-.27.2-.47s-.07-.35-.2-.46c-.13-.12-.28-.18-.45-.18s-.32.06-.45.18c-.13.12-.2.27-.2.46s.07.35.2.47c.13.12.28.18.45.18s.32-.06.45-.18m0-3.32c.13-.12.2-.27.2-.46s-.07-.35-.2-.47c-.13-.12-.28-.18-.45-.18s-.32.06-.45.18c-.13.12-.2.27-.2.47s.07.35.2.46c.13.12.28.18.45.18s.32-.06.45-.18" class="o"/><path d="m82.58,90.32c0,.48-.28.82-.83,1.01-.36.13-.85.19-1.45.19-.8,0-1.4-.1-1.81-.3-.41-.2-.61-.52-.61-.96,0-.47.22-.8.65-.96.43-.16.98-.25,1.65-.25.93,0,1.56.11,1.9.34.34.23.51.54.51.92m-5.38,0c0,.85.45,1.43,1.34,1.76.48.17,1.05.26,1.72.26.86,0,1.55-.14,2.06-.43.62-.35.92-.87.92-1.58,0-.78-.38-1.35-1.13-1.69-.52-.24-1.19-.36-1.99-.36-.85,0-1.51.13-1.99.39-.63.34-.94.89-.94,1.65m5.38,4.69c0,.48-.28.82-.83,1.01-.36.13-.85.19-1.45.19-.8,0-1.4-.1-1.81-.3-.41-.2-.61-.52-.61-.96,0-.48.22-.8.65-.96.43-.16.98-.25,1.65-.25.93,0,1.56.11,1.9.34.34.23.51.54.51.92m-5.38,0c0,.85.45,1.43,1.34,1.76.48.17,1.05.26,1.72.26.86,0,1.55-.14,2.06-.43.62-.34.92-.87.92-1.58,0-.78-.38-1.35-1.13-1.7-.52-.24-1.19-.36-1.99-.36-.85,0-1.51.13-1.99.39-.63.34-.94.89-.94,1.66m5.38,4.69c0,.48-.28.82-.83,1.01-.36.13-.85.19-1.45.19-.8,0-1.4-.1-1.81-.3-.41-.2-.61-.52-.61-.96,0-.48.22-.8.65-.96.43-.16.98-.25,1.65-.25.93,0,1.56.11,1.9.34.34.23.51.54.51.92m-5.38-.01c0,.85.45,1.43,1.34,1.76.48.17,1.05.26,1.72.26.86,0,1.55-.14,2.06-.43.62-.35.92-.87.92-1.58,0-.79-.38-1.35-1.13-1.7-.52-.24-1.19-.36-1.99-.36-.85,0-1.51.13-1.99.4-.63.34-.94.89-.94,1.65m5.89,6.7v-4.04h-.7v3.22c-.29-.07-.55-.24-.79-.52-.13-.15-.28-.37-.42-.64l-.31-.56c-.28-.5-.51-.84-.71-1.03-.34-.33-.74-.5-1.21-.5s-.85.16-1.22.47c-.36.31-.55.8-.55,1.48,0,.81.29,1.38.86,1.7.33.18.74.28,1.26.28v-.75c-.37-.01-.65-.07-.86-.17-.39-.19-.58-.55-.58-1.05,0-.34.1-.62.3-.82.2-.21.47-.31.82-.31.29,0,.55.11.78.34.15.14.32.39.53.74l.46.79c.31.53.65.88,1.02,1.07.38.18.82.29,1.32.31m-2.85,3.83c0,.18.03.34.1.47.07.13.17.26.3.37.2.14.39.23.54.29.16.05.36.1.58.15v-.48c-.25-.08-.43-.16-.53-.24-.18-.13-.27-.31-.27-.54,0-.07.01-.16.03-.27.02-.11.05-.22.09-.33l.32-.84c.07-.19.13-.34.16-.44.05-.17.07-.32.07-.44,0-.41-.16-.71-.48-.92-.32-.2-.68-.34-1.07-.4v.48c.23.05.42.14.58.28.16.14.24.31.24.51,0,.11-.02.24-.06.38-.03.09-.07.21-.12.35l-.36.92c-.06.15-.1.3-.12.45l-.02.25Z" class="o"/><path d="m4.68,66.51c.44-.02.81-.17,1.11-.44.3-.28.45-.75.45-1.41,0-.62-.14-1.07-.43-1.38-.29-.3-.62-.45-1.02-.45s-.7.14-.89.43c-.12.18-.25.55-.37,1.09l-.12.5c-.05.22-.11.38-.18.49-.11.19-.27.29-.46.29-.17,0-.32-.07-.42-.22-.11-.15-.16-.36-.16-.65,0-.43.1-.73.29-.9.14-.11.29-.17.45-.18v-.7c-.29,0-.55.09-.8.27-.39.3-.58.78-.58,1.46,0,.51.13.92.39,1.23.26.3.59.46,1.01.46.35,0,.63-.16.83-.49.11-.18.22-.46.31-.84l.15-.6c.08-.32.15-.53.21-.64.1-.17.24-.26.43-.26.25,0,.43.11.55.32.12.21.18.46.18.74,0,.47-.12.8-.36.99-.13.1-.32.17-.57.19v.71m-3.1,2.84c0,.61.24,1.07.71,1.4.47.33,1.03.49,1.67.49.69,0,1.23-.18,1.65-.54.41-.36.62-.78.62-1.27,0-.3-.06-.57-.18-.81-.12-.24-.32-.44-.59-.61h.61v-.67H0v.71h2.23c-.21.17-.35.32-.43.45-.14.23-.21.51-.21.84m2.33,1.11c-.55,0-.97-.11-1.26-.35-.29-.23-.43-.53-.43-.9,0-.33.13-.61.4-.84.27-.23.68-.34,1.24-.34s.97.11,1.27.33c.29.22.44.5.44.84,0,.44-.16.76-.48.96-.32.2-.71.3-1.18.3m2.15,5.15v-.74h-2.31c-.29,0-.51-.02-.66-.06-.15-.04-.3-.12-.45-.24-.18-.15-.3-.33-.36-.54-.04-.11-.05-.26-.05-.43,0-.34.14-.58.41-.72.16-.08.38-.12.65-.12h2.78v-.75h-2.83c-.44,0-.79.06-1.02.18-.44.22-.65.64-.65,1.27,0,.29.06.54.17.78.11.23.3.46.56.66h-.63v.7h4.41Zm-4.41,4.7h3c.38,0,.68-.06.9-.18.42-.23.63-.64.63-1.26,0-.4-.11-.73-.35-1.01-.12-.14-.26-.26-.42-.35h.65s0-.69,0-.69H1.66v.74h2.16c.43,0,.77.05,1.02.15.46.18.69.52.69,1.03,0,.35-.13.59-.39.72-.14.07-.33.1-.55.1H1.66v.76Zm-.13,2.91c0,.63.22,1.13.66,1.5.44.37,1.03.56,1.77.56.69,0,1.24-.18,1.65-.53.41-.35.61-.83.61-1.43,0-.72-.23-1.26-.69-1.6-.46-.34-1.05-.52-1.76-.52s-1.29.2-1.67.59c-.38.39-.57.87-.57,1.43m4.05.03c0,.44-.16.76-.47.97-.31.2-.7.31-1.17.31s-.9-.1-1.25-.31c-.35-.2-.52-.53-.52-.98,0-.5.2-.86.61-1.06.26-.13.59-.2,1-.2.45,0,.87.09,1.24.27.37.18.56.51.56,1m2.24,6.48v-.74h-2.25c.2-.16.34-.31.42-.44.15-.22.22-.51.22-.84,0-.42-.13-.79-.39-1.11-.41-.5-1.1-.76-2.06-.76-.71,0-1.26.17-1.64.52-.38.35-.57.77-.57,1.27,0,.34.08.63.25.88.11.18.26.34.46.49h-.58v.72h6.14Zm-2.25-1.92c0,.51-.23.86-.68,1.06-.24.1-.53.15-.87.15-.42,0-.77-.05-1.04-.15-.51-.19-.77-.54-.77-1.06s.24-.86.73-1.06c.25-.1.55-.15.91-.15.58,0,1.01.11,1.3.35.29.23.43.52.43.86m.5,8.88v-.74h-2.34c-.57,0-.96-.11-1.18-.34-.22-.23-.33-.48-.33-.76,0-.31.1-.52.31-.63.14-.07.36-.11.65-.11h2.88v-.75h-2.56c-.45,0-.78-.1-.98-.31-.19-.21-.29-.46-.29-.75,0-.21.05-.39.16-.54.11-.15.31-.22.61-.22h3.06v-.77h-2.93c-.39,0-.7.06-.93.17-.43.22-.64.62-.64,1.21,0,.28.06.53.17.75.11.22.29.41.52.58-.19.1-.34.21-.44.33-.17.21-.26.5-.26.85,0,.31.08.59.25.83.1.14.26.3.47.48h-.63v.73h4.41Zm-4.53,2.92c0,.63.22,1.13.66,1.5.44.37,1.03.56,1.77.56.69,0,1.24-.18,1.65-.53.41-.35.61-.83.61-1.43,0-.72-.23-1.25-.69-1.6-.46-.34-1.05-.52-1.76-.52s-1.29.19-1.67.58c-.38.39-.57.87-.57,1.43m4.05.03c0,.44-.16.77-.47.97-.31.2-.7.31-1.17.31s-.9-.1-1.25-.31c-.35-.2-.52-.53-.52-.98,0-.5.2-.86.61-1.07.26-.13.59-.19,1-.19.45,0,.87.09,1.24.27.37.18.56.51.56,1m-4.05,4.25c0,.58.21,1.06.65,1.44.43.38,1.03.56,1.81.56.63,0,1.16-.17,1.58-.51.42-.34.63-.8.63-1.38,0-.51-.14-.93-.41-1.26-.27-.33-.7-.53-1.28-.62v.72c.33.07.58.19.77.37.19.18.28.42.28.73,0,.4-.15.69-.45.88-.3.19-.67.28-1.11.28s-.81-.06-1.11-.2c-.46-.2-.69-.54-.69-1.01,0-.35.09-.6.27-.75.18-.16.4-.26.68-.3v-.72c-.59.06-1,.25-1.25.56-.24.31-.36.71-.36,1.21m1.98,8.17c-.38-.02-.69-.14-.94-.36-.25-.23-.37-.51-.37-.85,0-.47.18-.81.53-1.01.19-.11.45-.18.77-.21v2.43Zm-1.95-1.26c0,.62.22,1.11.66,1.5.44.38,1.02.57,1.72.57s1.28-.19,1.68-.57c.4-.38.6-.84.6-1.39,0-.22-.02-.42-.06-.6-.08-.33-.23-.61-.44-.83-.13-.13-.29-.25-.49-.36-.2-.11-.38-.17-.54-.19v.73c.2.05.37.14.52.27.26.23.38.53.38.92,0,.41-.14.71-.41.91-.27.2-.63.3-1.08.32v-3.2c-.44,0-.77.02-.97.06-.3.05-.56.15-.78.29-.23.15-.42.38-.57.67-.15.29-.22.59-.22.9m4.51,2.93H.02v.74h6.04v-.74Zm-5.2,1.88H.02v.75h.84v-.75Zm5.2,0H1.68v.75h4.39v-.75Zm-4.41,2.95v.6h.61v-.6h2.92c.28,0,.51-.06.69-.18.18-.12.27-.36.27-.71,0-.11,0-.21-.02-.3l-.05-.27h-.59v.14s.02.11.02.11c0,.13-.02.23-.04.29-.05.1-.15.16-.31.16h-2.88v-.7h-.61v.7H.43v.75h1.23Zm1.89,3.65c.05.41.19.75.41,1,.23.26.54.38.95.38.37,0,.68-.13.93-.39.25-.26.37-.59.37-1,0-.34-.07-.65-.22-.93-.15-.28-.32-.5-.51-.65.18-.02.31-.07.41-.13.18-.12.27-.3.27-.55,0-.1,0-.19-.01-.25,0-.06-.03-.15-.06-.26h-.55l.02.13v.11c0,.1-.02.17-.06.2l-.19.05h-2.54c-.42,0-.72.16-.92.48-.2.32-.3.74-.3,1.26,0,.45.11.84.32,1.18.21.34.59.51,1.14.53v-.69c-.23-.03-.4-.09-.52-.18-.21-.16-.32-.43-.32-.82,0-.34.06-.59.17-.77.11-.18.3-.27.55-.27.12,0,.22.02.29.05.12.06.19.17.21.34l.15,1.18Zm1.35.61c-.28,0-.49-.11-.62-.34-.08-.14-.13-.34-.17-.61l-.06-.45c-.02-.14-.04-.28-.08-.42-.04-.14-.09-.26-.15-.35h.6c.46,0,.78.2.98.62.12.24.18.5.18.76,0,.21-.06.4-.19.55-.12.16-.29.24-.5.24m1.17,1.68H.02v.74h6.04v-.74Zm-4.53,3.68c0,.63.22,1.13.66,1.5.44.37,1.03.56,1.77.56.69,0,1.24-.18,1.65-.53.41-.35.61-.83.61-1.43,0-.72-.23-1.25-.69-1.6-.46-.34-1.05-.52-1.76-.52s-1.29.2-1.67.58c-.38.39-.57.87-.57,1.43m4.05.03c0,.44-.16.76-.47.97-.31.2-.7.3-1.17.3s-.9-.1-1.25-.3c-.35-.2-.52-.53-.52-.98,0-.5.2-.86.61-1.07.26-.13.59-.19,1-.19.45,0,.87.09,1.24.27.37.18.56.51.56,1m-3.93,6.44l4.41-1.62v-.79l-4.41-1.66v.81l3.59,1.23-3.59,1.18v.86Z" class="o"/><rect width="243.94" height="208.44" x=".06" y=".01" class="d"/><path d="m114.64,105.42c.13-.12.2-.27.2-.47s-.07-.35-.2-.47c-.13-.12-.28-.18-.45-.18s-.32.06-.45.18c-.13.12-.2.28-.2.47s.07.35.2.47c.13.12.28.18.45.18s.32-.06.45-.18m0-3.32c.13-.12.2-.27.2-.47s-.07-.35-.2-.46c-.13-.12-.28-.18-.45-.18s-.32.06-.45.18c-.13.12-.2.27-.2.46s.07.35.2.47c.13.12.28.18.45.18s.32-.06.45-.18m0-3.32c.13-.12.2-.27.2-.47s-.07-.35-.2-.46c-.13-.12-.28-.18-.45-.18s-.32.06-.45.18c-.13.12-.2.27-.2.46s.07.35.2.47c.13.12.28.18.45.18s.32-.06.45-.18m0-3.32c.13-.12.2-.27.2-.47s-.07-.35-.2-.47c-.13-.12-.28-.18-.45-.18s-.32.06-.45.18c-.13.12-.2.28-.2.47s.07.35.2.47c.13.12.28.18.45.18s.32-.06.45-.18m0-3.32c.13-.12.2-.28.2-.47s-.07-.35-.2-.47c-.13-.12-.28-.18-.45-.18s-.32.06-.45.18c-.13.12-.2.28-.2.47s.07.35.2.47c.13.12.28.18.45.18s.32-.06.45-.18" class="o"/><path d="m127.35,96.73v-4.04h-.7v3.22c-.29-.07-.56-.24-.79-.52-.14-.15-.28-.36-.43-.63l-.31-.56c-.28-.5-.51-.84-.71-1.03-.34-.33-.74-.5-1.21-.5s-.85.16-1.22.47c-.36.31-.55.8-.55,1.48,0,.81.29,1.38.86,1.7.32.18.74.28,1.26.28v-.75c-.37-.01-.65-.07-.86-.17-.39-.2-.58-.55-.58-1.05,0-.34.1-.62.3-.82.2-.21.47-.31.82-.31.29,0,.55.11.78.34.15.14.32.39.53.74l.46.79c.31.53.65.89,1.02,1.07.38.18.82.29,1.32.31m-1.5,4.68c.56-.04.97-.25,1.24-.62s.41-.79.41-1.27c0-.75-.21-1.3-.64-1.65-.43-.35-.92-.52-1.47-.52s-.98.19-1.32.57c-.35.38-.52.83-.52,1.37,0,.29.04.54.13.76.05.12.13.25.24.39l-1.64-.25v-2.51h-.71v3.06l3.17.45.04-.64c-.18-.13-.31-.28-.41-.47-.1-.18-.15-.4-.15-.66,0-.35.11-.65.34-.9.22-.25.54-.38.96-.38.34,0,.65.11.93.32.28.21.42.54.42.98,0,.23-.04.43-.12.61-.16.34-.45.54-.88.59v.77Z" class="o"/><path d="m131.95,172.37h.75v-.84h-.75v.84Zm0,5.2h.75v-4.39h-.75v4.39Zm-1.85,0h.74v-6.04h-.74v6.04Zm-4.72-4.41v3c0,.38.06.68.18.9.22.42.64.63,1.26.63.4,0,.73-.11,1.01-.34.14-.12.26-.26.35-.42v.65s.69,0,.69,0v-4.41h-.74v2.17c0,.43-.05.77-.15,1.02-.18.46-.52.69-1.03.69-.35,0-.59-.13-.72-.39-.07-.14-.1-.33-.1-.55v-2.92h-.76Zm-2.77,4.41h.74v-2.53c0-.31.1-.59.3-.83.2-.24.49-.36.86-.36h.12s.12.02.12.02v-.78l-.17-.02h-.07c-.29,0-.55.1-.78.32-.23.21-.37.39-.42.54v-.76h-.7v4.41Zm-4.15-2.55c.01-.38.14-.69.36-.94.23-.24.51-.37.85-.37.47,0,.81.18,1.01.53.11.19.18.45.21.77h-2.43Zm1.26-1.95c-.62,0-1.12.22-1.5.66-.38.44-.57,1.02-.57,1.72s.19,1.28.57,1.68c.38.4.84.6,1.39.6.22,0,.42-.02.6-.06.33-.08.61-.23.83-.44.13-.13.25-.29.36-.49.11-.2.17-.38.19-.54h-.73c-.05.2-.14.37-.27.52-.23.26-.54.39-.92.39-.41,0-.71-.14-.91-.41-.2-.27-.3-.63-.31-1.08h3.2c0-.44-.02-.77-.07-.97-.05-.3-.15-.56-.3-.78-.15-.23-.37-.42-.67-.57-.29-.15-.59-.22-.9-.22m-8.84,4.51h.74v-2.34c0-.57.12-.96.34-1.18.23-.22.48-.33.76-.33.31,0,.52.1.63.31.07.14.11.36.11.65v2.88h.75v-2.56c0-.45.1-.78.32-.98.21-.19.46-.29.75-.29.21,0,.39.06.54.16.15.11.22.31.22.61v3.06h.77v-2.93c0-.39-.06-.7-.17-.93-.21-.43-.62-.64-1.21-.64-.28,0-.53.06-.75.17-.22.11-.42.29-.58.53-.1-.19-.21-.34-.33-.44-.21-.17-.5-.26-.85-.26-.31,0-.59.08-.83.25-.14.1-.3.26-.48.47v-.63h-.73v4.41Zm-2.92-4.53c-.63,0-1.13.22-1.5.66-.37.44-.56,1.03-.56,1.77,0,.69.18,1.24.53,1.65.35.41.83.61,1.43.61.72,0,1.26-.23,1.6-.69.34-.46.52-1.05.52-1.76s-.2-1.29-.58-1.67c-.39-.38-.87-.57-1.43-.57m-.03,4.05c-.44,0-.77-.16-.97-.47-.2-.31-.3-.7-.3-1.17s.1-.9.3-1.25c.2-.35.53-.52.98-.52.5,0,.86.2,1.07.61.13.26.2.59.2,1,0,.45-.09.87-.27,1.24-.18.37-.51.56-1,.56m-3.59.48h.74v-6.04h-.74v6.04Zm-3.9-6.2c-.82,0-1.48.29-2,.86-.54.6-.81,1.4-.81,2.41s.28,1.81.83,2.4c.51.46,1.11.69,1.82.69.54,0,.99-.1,1.35-.3.21-.12.45-.33.72-.63l.2.78h.53v-3.23h-2.65v.68h1.89c0,.71-.19,1.22-.54,1.54-.35.32-.8.47-1.33.47-.7,0-1.2-.23-1.51-.68s-.46-1.04-.46-1.75c0-.83.19-1.46.56-1.88.38-.42.84-.63,1.38-.63.46,0,.85.1,1.15.3.3.2.51.52.6.97h.81c-.13-.79-.5-1.34-1.09-1.66-.41-.22-.89-.33-1.45-.33" class="o"/><path d="m231.21,55.35c-.79-.51-1.4-.85-1.81-1.01-.64-.26-1.36-.39-2.17-.39-.31,0-.63.03-.97.08-.33.06-.67.15-1.01.28-.28.1-.5.2-.65.29-.16.09-.57.34-1.25.77v.5c.76-.4,1.35-.67,1.75-.81.66-.22,1.38-.33,2.18-.33s1.48.1,2.07.29c.39.13,1.01.41,1.86.84v-.51m-1.72,6.25v-.78h-4.88l4.88-3.06v-.92h-6.04v.78h4.88l-4.88,3.01v.97h6.04Zm-.55,3.86c0,.76-.23,1.31-.69,1.65-.46.34-1.02.51-1.7.51-.84,0-1.47-.2-1.9-.59-.43-.39-.64-.91-.64-1.53s.22-1.15.65-1.52c.43-.37,1.01-.56,1.72-.56.67,0,1.27.16,1.79.48.52.32.78.84.78,1.56m-5.66.08c0,1.02.37,1.79,1.12,2.31.58.41,1.28.61,2.1.61.91,0,1.65-.24,2.25-.71.61-.53.92-1.26.92-2.19,0-.99-.35-1.76-1.05-2.3-.6-.46-1.35-.69-2.25-.69-.83,0-1.52.2-2.05.6-.68.51-1.03,1.3-1.03,2.37m6.21,8.25v-2.57c0-.8-.24-1.38-.71-1.75-.32-.25-.67-.37-1.06-.37-.46,0-.83.14-1.09.41-.15.15-.28.39-.4.7-.11-.21-.23-.37-.35-.48-.24-.22-.55-.33-.94-.33-.33,0-.61.09-.86.26-.42.3-.63.81-.63,1.52v2.61h6.04Zm-.7-.8h-2.13v-1.64c0-.35.04-.62.13-.83.16-.4.46-.59.9-.59.26,0,.48.07.67.2.29.22.44.58.44,1.08v1.78Zm-2.79,0h-1.87v-1.48c0-.36.04-.63.12-.81.14-.32.4-.49.8-.49s.66.15.81.46c.1.2.14.47.14.82v1.51Zm3.49,7.82v-.78h-3.57c-.14,0-.36,0-.67.01-.3,0-.53.01-.68.01h-.19l5.1-1.74v-.81l-5.1-1.73c.33,0,.63,0,.92,0,.29,0,.49,0,.61,0h3.57v-.78h-6.04v1.16l5.11,1.72-5.11,1.74v1.17h6.04Zm-6.14,1.45c.8.51,1.41.85,1.81,1.01.63.26,1.35.38,2.17.38.22,0,.44-.02.68-.04.46-.06.9-.17,1.3-.32.3-.11.53-.22.7-.31.17-.1.57-.34,1.2-.74v-.5c-.76.4-1.35.68-1.75.81-.66.22-1.39.33-2.18.33s-1.48-.1-2.08-.29c-.4-.13-1.01-.41-1.85-.84v.51Zm6.14,8.46v-.74h-2.31c-.29,0-.51-.02-.66-.05-.16-.04-.31-.12-.45-.24-.18-.15-.3-.33-.36-.53-.04-.11-.05-.26-.05-.43,0-.35.14-.58.41-.72.16-.08.38-.12.65-.12h2.78v-.75h-2.83c-.44,0-.79.06-1.02.18-.44.22-.65.64-.65,1.27,0,.28.06.54.17.78.11.23.3.45.55.66h-.62v.7h4.41Zm-4.53,2.92c0,.63.22,1.13.66,1.5.44.37,1.03.56,1.77.56.69,0,1.24-.18,1.65-.53.41-.35.61-.83.61-1.43,0-.72-.23-1.26-.69-1.6-.46-.34-1.05-.51-1.76-.51s-1.29.19-1.67.58c-.38.39-.57.87-.57,1.43m4.05.03c0,.44-.16.76-.47.97-.31.2-.7.3-1.17.3s-.9-.1-1.25-.3c-.35-.2-.52-.53-.52-.98,0-.5.2-.86.61-1.06.26-.13.59-.2,1-.2.46,0,.87.09,1.24.27.37.18.56.51.56,1m.48,4.52v-.74h-2.53c-.31,0-.59-.1-.83-.3-.24-.2-.36-.49-.36-.86v-.12s.02-.12.02-.12h-.78l-.02.17v.07c0,.29.1.55.31.78.21.22.39.37.54.42h-.76v.7h4.41Zm-4.41,4.72h3c.38,0,.68-.06.9-.18.42-.22.63-.64.63-1.26,0-.4-.11-.73-.35-1.01-.11-.14-.26-.26-.42-.35h.65s0-.69,0-.69h-4.41v.74h2.16c.43,0,.77.05,1.02.15.46.18.69.52.69,1.03,0,.35-.13.59-.4.72-.14.07-.33.1-.55.1h-2.92v.76Zm1.85,4.11c-.38-.01-.69-.13-.93-.36-.25-.23-.37-.51-.37-.85,0-.47.18-.81.54-1.01.19-.11.45-.18.77-.21v2.43Zm-1.95-1.26c0,.62.22,1.12.66,1.5.44.38,1.02.57,1.72.57s1.28-.19,1.68-.57c.4-.38.6-.84.6-1.39,0-.22-.02-.42-.06-.6-.08-.33-.23-.61-.45-.83-.13-.13-.29-.25-.49-.36-.2-.11-.38-.17-.54-.19v.73c.2.05.37.14.52.27.26.23.38.54.38.92,0,.41-.14.72-.41.91-.27.2-.63.3-1.08.31v-3.2c-.44,0-.77.02-.97.07-.3.05-.56.15-.78.29-.23.15-.42.38-.57.67-.15.29-.22.59-.22.9m4.5,6.5v-.74h-2.31c-.29,0-.51-.02-.66-.05-.16-.04-.31-.12-.45-.24-.18-.15-.3-.33-.36-.53-.04-.11-.05-.26-.05-.43,0-.34.14-.58.41-.71.16-.08.38-.12.65-.12h2.78v-.75h-2.83c-.44,0-.79.06-1.02.18-.44.22-.65.64-.65,1.27,0,.29.06.54.17.78.11.23.3.46.55.66h-.62v.7h4.41Zm-4.41,4.54v.59h.61v-.59h2.92c.28,0,.51-.06.69-.19.18-.12.27-.36.27-.7,0-.11,0-.21-.02-.3l-.05-.27h-.59v.14s.02.12.02.12c0,.13-.01.23-.05.29-.05.1-.15.16-.31.16h-2.88v-.7h-.61v.7h-1.23v.75h1.23Zm0,4.85h3c.38,0,.68-.06.9-.18.42-.22.63-.64.63-1.26,0-.4-.11-.73-.35-1.01-.11-.14-.26-.26-.42-.35h.65s0-.69,0-.69h-4.41v.74h2.16c.43,0,.77.05,1.02.15.46.18.69.52.69,1.03,0,.35-.13.59-.4.72-.14.07-.33.1-.55.1h-2.92v.76Zm-.13,2.91c0,.63.22,1.13.66,1.5.44.37,1.03.56,1.77.56.69,0,1.24-.18,1.65-.53.41-.36.61-.83.61-1.43,0-.72-.23-1.26-.69-1.6-.46-.34-1.05-.51-1.76-.51s-1.29.19-1.67.58c-.38.39-.57.87-.57,1.43m4.05.03c0,.44-.16.77-.47.97-.31.21-.7.3-1.17.3s-.9-.1-1.25-.3c-.35-.2-.52-.53-.52-.98,0-.5.2-.86.61-1.07.26-.13.59-.2,1-.2.46,0,.87.09,1.24.27.37.18.56.51.56,1m-4,4.84c0,.61.24,1.07.71,1.4.47.33,1.03.49,1.67.49.69,0,1.24-.18,1.65-.54.41-.36.62-.78.62-1.27,0-.3-.06-.57-.18-.81-.12-.23-.32-.44-.59-.61h.61v-.67h-6.07v.71h2.23c-.21.17-.35.32-.43.45-.14.23-.21.51-.21.85m2.33,1.11c-.55,0-.97-.11-1.26-.35-.29-.23-.43-.53-.43-.9,0-.33.13-.61.4-.84.27-.23.68-.34,1.24-.34s.97.11,1.27.33c.3.22.44.5.44.84,0,.44-.16.76-.48.96-.32.2-.71.3-1.18.3m-.37,3.97c.05.41.19.75.42,1,.22.26.54.38.95.38.37,0,.68-.13.93-.39.25-.26.37-.59.37-1,0-.34-.07-.65-.22-.93-.14-.28-.32-.5-.51-.65.18-.03.31-.07.41-.13.18-.11.27-.3.27-.56,0-.1,0-.19-.01-.25,0-.06-.03-.15-.06-.26h-.55l.02.13v.11c0,.1-.02.17-.06.2l-.19.05h-2.54c-.42,0-.72.16-.92.48-.2.32-.29.74-.29,1.26,0,.45.11.84.32,1.18.21.34.59.51,1.14.53v-.69c-.23-.03-.4-.09-.52-.18-.21-.16-.31-.43-.31-.82,0-.33.06-.59.17-.77.11-.18.3-.27.55-.27.12,0,.22.02.28.05.12.06.19.17.21.34l.15,1.18Zm1.35.61c-.28,0-.49-.11-.61-.34-.08-.14-.13-.34-.17-.6l-.06-.45c-.02-.14-.04-.28-.08-.42s-.09-.26-.14-.35h.59c.45,0,.78.21.98.62.12.24.18.5.18.76,0,.21-.06.4-.18.56-.12.16-.29.23-.51.23m-1.38,4.69c-.38-.01-.69-.13-.93-.36-.25-.23-.37-.51-.37-.85,0-.47.18-.81.54-1.01.19-.11.45-.18.77-.21v2.43Zm-1.95-1.26c0,.62.22,1.11.66,1.5.44.38,1.02.57,1.72.57s1.28-.19,1.68-.57c.4-.38.6-.84.6-1.39,0-.22-.02-.42-.06-.6-.08-.33-.23-.61-.45-.83-.13-.13-.29-.25-.49-.36-.2-.11-.38-.17-.54-.19v.73c.2.05.37.14.52.27.26.23.38.54.38.92,0,.41-.14.71-.41.91-.27.2-.63.3-1.08.31v-3.21c-.44,0-.77.02-.97.06-.3.05-.56.15-.78.3-.23.15-.42.37-.57.67-.15.29-.22.59-.22.9m4.5,4.6v-.74h-2.53c-.31,0-.59-.1-.83-.3s-.36-.49-.36-.86v-.12s.02-.12.02-.12h-.78l-.02.17v.07c0,.29.1.55.31.78.21.22.39.36.54.42h-.76v.7h4.41Z" class="k"/><path d="m69.48,6.03c.02.55.21,1.01.55,1.38.35.37.93.56,1.76.56.77,0,1.34-.18,1.72-.53.38-.36.57-.78.57-1.27s-.18-.88-.54-1.11c-.23-.15-.68-.31-1.36-.47l-.62-.15c-.27-.07-.48-.14-.62-.22-.24-.15-.36-.34-.36-.57,0-.22.09-.39.27-.53.18-.13.46-.2.81-.2.54,0,.91.12,1.13.36.13.17.21.36.23.57h.87c0-.36-.11-.69-.34-1-.37-.49-.98-.73-1.82-.73-.64,0-1.15.16-1.53.48-.38.32-.57.74-.57,1.27,0,.44.2.79.61,1.04.23.14.58.27,1.05.39l.75.18c.4.1.67.19.8.26.21.12.32.3.32.54,0,.31-.13.54-.4.69-.27.15-.57.22-.92.22-.59,0-1-.15-1.24-.45-.13-.16-.21-.4-.24-.71h-.89m-7.14,1.73h.98V1.66l3.82,6.1h1.15V.2h-.98v6.1L63.54.2h-1.21v7.56Zm-7.48,0h1.02v-3.24h2.26c.41,0,.7.05.89.14.33.17.51.5.53.99l.06,1.26c.01.29.03.49.05.6.02.1.05.19.08.25h1.25v-.17c-.16-.07-.27-.22-.33-.46-.04-.14-.06-.36-.07-.64l-.04-1.01c-.02-.44-.1-.75-.25-.95-.15-.2-.37-.35-.67-.47.34-.18.6-.41.78-.69.19-.29.28-.66.28-1.11,0-.87-.35-1.46-1.04-1.78-.37-.17-.83-.25-1.4-.25h-3.43v7.56Zm1.02-4.09V1.08h2.43c.34,0,.61.05.82.16.38.19.57.56.57,1.1,0,.5-.14.85-.41,1.04-.27.19-.64.29-1.11.29h-2.3Zm-5.98,3.4c-.95,0-1.64-.29-2.06-.86-.42-.57-.63-1.28-.63-2.12,0-1.04.25-1.84.74-2.38.49-.54,1.13-.8,1.91-.8s1.44.27,1.9.81c.46.54.7,1.26.7,2.15,0,.84-.2,1.58-.6,2.23-.4.65-1.06.97-1.96.97m-.1-7.07c-1.27,0-2.24.47-2.89,1.4-.51.73-.76,1.6-.76,2.62,0,1.13.3,2.07.89,2.81.66.77,1.58,1.15,2.74,1.15,1.24,0,2.2-.44,2.88-1.32.57-.75.86-1.69.86-2.81,0-1.04-.25-1.9-.75-2.56-.64-.86-1.63-1.29-2.96-1.29"/><rect width="243.94" height="208.44" x=".06" y=".01" class="d"/><path d="m119.46,7.76h4.81v-.9h-3.79V.21h-1.02v7.55m-7.67,0h1.05l.82-2.26h2.96l.79,2.26h1.12l-2.74-7.55h-1.16l-2.85,7.55Zm2.17-3.09l1.21-3.34,1.16,3.34h-2.37Z"/><path d="m205.31,7.76h3.21c1,0,1.73-.3,2.19-.88.31-.39.46-.83.46-1.32,0-.58-.17-1.03-.51-1.36-.19-.18-.48-.35-.87-.5.26-.13.47-.28.61-.44.27-.31.41-.7.41-1.17,0-.41-.11-.77-.33-1.08-.38-.53-1.01-.79-1.9-.79h-3.27v7.55m1-.87v-2.66h2.05c.43,0,.78.05,1.04.16.5.2.74.57.74,1.12,0,.33-.09.6-.26.83-.27.36-.72.55-1.35.55h-2.23Zm0-3.49V1.06h1.85c.45,0,.79.05,1.02.14.41.17.61.5.61,1s-.19.83-.57,1.02c-.24.12-.58.18-1.02.18h-1.88Zm-9.77,4.36h.98V3.3c0-.18,0-.46-.02-.84,0-.38-.02-.66-.02-.85v-.23l2.18,6.37h1.01l2.16-6.37c0,.41,0,.79,0,1.15,0,.36-.01.61-.01.77v4.46h.98V.21h-1.46l-2.16,6.39-2.17-6.39h-1.46v7.55Z"/><polyline points="174.32 15.4 174.32 11.73 228.52 11.73" class="i"/><line x1="228.4" x2="228.4" y1="15.4" y2="11.73" class="i"/><rect width="11.31" height="67.13" x="200.18" y="65.13" class="k"/><path d="m206.91,67.93h3.04v-1.02h-3.04l-4.51-2.86v1.2l3.63,2.17-3.63,2.17v1.19l4.51-2.86m-4.51,9.34h.9v-2.55h6.65v-1.03h-6.65v-2.55h-.9v6.12Zm7.55,1.03h-7.55v1.03h7.55v-1.03Zm-7.76,5.73c0,1.11.39,1.98,1.16,2.61.71.58,1.63.87,2.74.87,1.47,0,2.55-.39,3.26-1.16.53-.59.8-1.32.8-2.19,0-1.01-.32-1.81-.97-2.4-.54-.49-1.21-.79-2-.87v1c.5.1.9.26,1.2.46.58.39.87.95.87,1.69,0,.8-.27,1.41-.83,1.82-.55.41-1.27.61-2.15.61-1.08,0-1.88-.23-2.4-.67-.52-.45-.79-1.04-.79-1.77,0-.6.14-1.07.43-1.4.29-.33.67-.55,1.16-.66v-1c-.64.06-1.21.35-1.72.87-.5.52-.76,1.26-.76,2.2m7.76,4.8h-7.55v1.03h7.55v-1.03Zm-7.55,8.33h.9v-2.55h6.65v-1.03h-6.65v-2.55h-.9v6.12Zm5.12,6.69c.82.01,1.46-.24,1.94-.76.48-.52.72-1.24.72-2.15,0-.78-.18-1.47-.54-2.07-.36-.59-.96-.89-1.79-.89-.67,0-1.18.23-1.54.7-.2.27-.36.65-.48,1.15l-.24,1.03c-.16.69-.3,1.13-.41,1.33-.17.3-.44.45-.81.45-.33,0-.63-.13-.89-.38-.25-.25-.38-.67-.38-1.25,0-.72.2-1.22.59-1.52.22-.16.53-.27.93-.32v-.96c-.84,0-1.45.27-1.83.81-.38.54-.57,1.19-.57,1.96,0,.84.22,1.48.65,1.94.43.46.99.69,1.67.69.63,0,1.1-.23,1.41-.7.18-.27.35-.73.5-1.37l.23-.99c.13-.54.28-.93.45-1.18.17-.25.47-.38.88-.38.55,0,.93.29,1.14.88.11.3.16.64.16,1.01,0,.83-.25,1.4-.75,1.73-.27.17-.62.27-1.04.29v.96Zm2.44,7.37v-1.05l-2.26-.82v-2.96l2.26-.79v-1.12l-7.55,2.74v1.16l7.55,2.84Zm-3.1-2.17l-3.34-1.21,3.34-1.16v2.37Zm3.1,7.39v-4.81h-.9v3.79h-6.65v1.02h7.55Zm-5.38,2.35c.49,0,.84.14,1.03.43.19.28.29.66.29,1.11v2.02h-2.62v-2.02c0-.39.05-.7.16-.92.2-.41.58-.61,1.13-.61m5.38,4.58v-1.02h-3.19v-2.36c0-.76-.22-1.32-.66-1.68-.44-.37-.95-.55-1.54-.55-.69,0-1.22.21-1.6.61-.38.41-.57.95-.57,1.62v3.38h7.55Z" class="q"/><rect width="244" height="208.45" class="d"/></g></svg>