<?xml version="1.0" encoding="utf-8" standalone="no"?>
<!DOCTYPE svg PUBLIC "-//W3C//DTD SVG 1.1//EN"
  "http://www.w3.org/Graphics/SVG/1.1/DTD/svg11.dtd">
<svg xmlns:xlink="http://www.w3.org/1999/xlink" width="460.8pt" height="345.6pt" viewBox="0 0 460.8 345.6" xmlns="http://www.w3.org/2000/svg" version="1.1">
 <metadata>
  <rdf:RDF xmlns:dc="http://purl.org/dc/elements/1.1/" xmlns:cc="http://creativecommons.org/ns#" xmlns:rdf="http://www.w3.org/1999/02/22-rdf-syntax-ns#">
   <cc:Work>
    <dc:type rdf:resource="http://purl.org/dc/dcmitype/StillImage"/>
    <dc:date>2023-03-18T00:13:48.437621</dc:date>
    <dc:format>image/svg+xml</dc:format>
    <dc:creator>
     <cc:Agent>
      <dc:title>Matplotlib v3.7.1, https://matplotlib.org/</dc:title>
     </cc:Agent>
    </dc:creator>
   </cc:Work>
  </rdf:RDF>
 </metadata>
 <defs>
  <style type="text/css">*{stroke-linejoin: round; stroke-linecap: butt}</style>
 </defs>
 <g id="figure_1">
  <g id="patch_1">
   <path d="M 0 345.6 
L 460.8 345.6 
L 460.8 0 
L 0 0 
L 0 345.6 
z
" style="fill: none"/>
  </g>
  <g id="axes_1">
   <g id="LineCollection_1">
    <path d="M 353.094529 150.413956 
L 390.609031 121.824151 
" clip-path="url(#p2a9500efb5)" style="fill: none; stroke: #ffffff"/>
    <path d="M 353.094529 150.413956 
L 176.508157 166.048396 
" clip-path="url(#p2a9500efb5)" style="fill: none; stroke: #ffffff"/>
    <path d="M 353.094529 150.413956 
L 411.887603 177.34072 
" clip-path="url(#p2a9500efb5)" style="fill: none; stroke: #ffffff"/>
    <path d="M 390.609031 121.824151 
L 411.887603 177.34072 
" clip-path="url(#p2a9500efb5)" style="fill: none; stroke: #ffffff"/>
    <path d="M 390.609031 121.824151 
L 201.799065 92.683022 
" clip-path="url(#p2a9500efb5)" style="fill: none; stroke: #ffffff"/>
    <path d="M 48.912397 51.573047 
L 201.799065 92.683022 
" clip-path="url(#p2a9500efb5)" style="fill: none; stroke: #ffffff"/>
    <path d="M 176.508157 166.048396 
L 238.635752 220.833549 
" clip-path="url(#p2a9500efb5)" style="fill: none; stroke: #ffffff"/>
    <path d="M 176.508157 166.048396 
L 81.245635 224.180477 
" clip-path="url(#p2a9500efb5)" style="fill: none; stroke: #ffffff"/>
    <path d="M 176.508157 166.048396 
L 201.799065 92.683022 
" clip-path="url(#p2a9500efb5)" style="fill: none; stroke: #ffffff"/>
    <path d="M 258.73693 38.915702 
L 201.799065 92.683022 
" clip-path="url(#p2a9500efb5)" style="fill: none; stroke: #ffffff"/>
    <path d="M 238.635752 220.833549 
L 67.340756 262.464283 
" clip-path="url(#p2a9500efb5)" style="fill: none; stroke: #ffffff"/>
    <path d="M 238.635752 220.833549 
L 182.313976 267.799461 
" clip-path="url(#p2a9500efb5)" style="fill: none; stroke: #ffffff"/>
    <path d="M 238.635752 220.833549 
L 411.887603 177.34072 
" clip-path="url(#p2a9500efb5)" style="fill: none; stroke: #ffffff"/>
    <path d="M 81.245635 224.180477 
L 67.340756 262.464283 
" clip-path="url(#p2a9500efb5)" style="fill: none; stroke: #ffffff"/>
    <path d="M 81.245635 224.180477 
L 182.313976 267.799461 
" clip-path="url(#p2a9500efb5)" style="fill: none; stroke: #ffffff"/>
    <path d="M 67.340756 262.464283 
L 83.073649 306.684298 
" clip-path="url(#p2a9500efb5)" style="fill: none; stroke: #ffffff"/>
    <path d="M 83.073649 306.684298 
L 182.313976 267.799461 
" clip-path="url(#p2a9500efb5)" style="fill: none; stroke: #ffffff"/>
   </g>
   <g id="PathCollection_1">
    <defs>
     <path id="m0387d85ce7" d="M 0 10.606602 
C 2.812904 10.606602 5.510977 9.489023 7.5 7.5 
C 9.489023 5.510977 10.606602 2.812904 10.606602 0 
C 10.606602 -2.812904 9.489023 -5.510977 7.5 -7.5 
C 5.510977 -9.489023 2.812904 -10.606602 0 -10.606602 
C -2.812904 -10.606602 -5.510977 -9.489023 -7.5 -7.5 
C -9.489023 -5.510977 -10.606602 -2.812904 -10.606602 0 
C -10.606602 2.812904 -9.489023 5.510977 -7.5 7.5 
C -5.510977 9.489023 -2.812904 10.606602 0 10.606602 
z
" style="stroke: #1f77b4"/>
    </defs>
    <g clip-path="url(#p2a9500efb5)">
     <use xlink:href="#m0387d85ce7" x="353.094529" y="150.413956" style="fill: #1f77b4; stroke: #1f77b4"/>
     <use xlink:href="#m0387d85ce7" x="390.609031" y="121.824151" style="fill: #1f77b4; stroke: #1f77b4"/>
     <use xlink:href="#m0387d85ce7" x="48.912397" y="51.573047" style="fill: #1f77b4; stroke: #1f77b4"/>
     <use xlink:href="#m0387d85ce7" x="176.508157" y="166.048396" style="fill: #1f77b4; stroke: #1f77b4"/>
     <use xlink:href="#m0387d85ce7" x="258.73693" y="38.915702" style="fill: #1f77b4; stroke: #1f77b4"/>
     <use xlink:href="#m0387d85ce7" x="238.635752" y="220.833549" style="fill: #1f77b4; stroke: #1f77b4"/>
     <use xlink:href="#m0387d85ce7" x="81.245635" y="224.180477" style="fill: #1f77b4; stroke: #1f77b4"/>
     <use xlink:href="#m0387d85ce7" x="67.340756" y="262.464283" style="fill: #1f77b4; stroke: #1f77b4"/>
     <use xlink:href="#m0387d85ce7" x="83.073649" y="306.684298" style="fill: #1f77b4; stroke: #1f77b4"/>
     <use xlink:href="#m0387d85ce7" x="182.313976" y="267.799461" style="fill: #1f77b4; stroke: #1f77b4"/>
    </g>
   </g>
   <g id="PathCollection_2">
    <defs>
     <path id="me23009aef2" d="M -12.247204 12.247204 
L 12.247694 12.247204 
L 12.247694 -12.247694 
L -12.247204 -12.247694 
z
" style="stroke: #ff7f0e"/>
    </defs>
    <g clip-path="url(#p2a9500efb5)">
     <use xlink:href="#me23009aef2" x="411.887603" y="177.34072" style="fill: #ff7f0e; stroke: #ff7f0e"/>
     <use xlink:href="#me23009aef2" x="201.799065" y="92.683022" style="fill: #ff7f0e; stroke: #ff7f0e"/>
    </g>
   </g>
   <g id="text_1">
    <g clip-path="url(#p2a9500efb5)">
     <!-- 0 -->
     <g transform="translate(349.277029 153.725206) scale(0.12 -0.12)">
      <defs>
       <path id="DejaVuSans-30" d="M 2034 4250 
Q 1547 4250 1301 3770 
Q 1056 3291 1056 2328 
Q 1056 1369 1301 889 
Q 1547 409 2034 409 
Q 2525 409 2770 889 
Q 3016 1369 3016 2328 
Q 3016 3291 2770 3770 
Q 2525 4250 2034 4250 
z
M 2034 4750 
Q 2819 4750 3233 4129 
Q 3647 3509 3647 2328 
Q 3647 1150 3233 529 
Q 2819 -91 2034 -91 
Q 1250 -91 836 529 
Q 422 1150 422 2328 
Q 422 3509 836 4129 
Q 1250 4750 2034 4750 
z
" transform="scale(0.015625)"/>
      </defs>
      <use xlink:href="#DejaVuSans-30"/>
     </g>
    </g>
   </g>
   <g id="text_2">
    <g clip-path="url(#p2a9500efb5)">
     <!-- 1 -->
     <g transform="translate(386.791531 125.135401) scale(0.12 -0.12)">
      <defs>
       <path id="DejaVuSans-31" d="M 794 531 
L 1825 531 
L 1825 4091 
L 703 3866 
L 703 4441 
L 1819 4666 
L 2450 4666 
L 2450 531 
L 3481 531 
L 3481 0 
L 794 0 
L 794 531 
z
" transform="scale(0.015625)"/>
      </defs>
      <use xlink:href="#DejaVuSans-31"/>
     </g>
    </g>
   </g>
   <g id="text_3">
    <g clip-path="url(#p2a9500efb5)">
     <!-- 2 -->
     <g transform="translate(45.094897 54.884297) scale(0.12 -0.12)">
      <defs>
       <path id="DejaVuSans-32" d="M 1228 531 
L 3431 531 
L 3431 0 
L 469 0 
L 469 531 
Q 828 903 1448 1529 
Q 2069 2156 2228 2338 
Q 2531 2678 2651 2914 
Q 2772 3150 2772 3378 
Q 2772 3750 2511 3984 
Q 2250 4219 1831 4219 
Q 1534 4219 1204 4116 
Q 875 4013 500 3803 
L 500 4441 
Q 881 4594 1212 4672 
Q 1544 4750 1819 4750 
Q 2544 4750 2975 4387 
Q 3406 4025 3406 3419 
Q 3406 3131 3298 2873 
Q 3191 2616 2906 2266 
Q 2828 2175 2409 1742 
Q 1991 1309 1228 531 
z
" transform="scale(0.015625)"/>
      </defs>
      <use xlink:href="#DejaVuSans-32"/>
     </g>
    </g>
   </g>
   <g id="text_4">
    <g clip-path="url(#p2a9500efb5)">
     <!-- 3 -->
     <g transform="translate(172.690657 169.359646) scale(0.12 -0.12)">
      <defs>
       <path id="DejaVuSans-33" d="M 2597 2516 
Q 3050 2419 3304 2112 
Q 3559 1806 3559 1356 
Q 3559 666 3084 287 
Q 2609 -91 1734 -91 
Q 1441 -91 1130 -33 
Q 819 25 488 141 
L 488 750 
Q 750 597 1062 519 
Q 1375 441 1716 441 
Q 2309 441 2620 675 
Q 2931 909 2931 1356 
Q 2931 1769 2642 2001 
Q 2353 2234 1838 2234 
L 1294 2234 
L 1294 2753 
L 1863 2753 
Q 2328 2753 2575 2939 
Q 2822 3125 2822 3475 
Q 2822 3834 2567 4026 
Q 2313 4219 1838 4219 
Q 1578 4219 1281 4162 
Q 984 4106 628 3988 
L 628 4550 
Q 988 4650 1302 4700 
Q 1616 4750 1894 4750 
Q 2613 4750 3031 4423 
Q 3450 4097 3450 3541 
Q 3450 3153 3228 2886 
Q 3006 2619 2597 2516 
z
" transform="scale(0.015625)"/>
      </defs>
      <use xlink:href="#DejaVuSans-33"/>
     </g>
    </g>
   </g>
   <g id="text_5">
    <g clip-path="url(#p2a9500efb5)">
     <!-- 4 -->
     <g transform="translate(254.91943 42.226952) scale(0.12 -0.12)">
      <defs>
       <path id="DejaVuSans-34" d="M 2419 4116 
L 825 1625 
L 2419 1625 
L 2419 4116 
z
M 2253 4666 
L 3047 4666 
L 3047 1625 
L 3713 1625 
L 3713 1100 
L 3047 1100 
L 3047 0 
L 2419 0 
L 2419 1100 
L 313 1100 
L 313 1709 
L 2253 4666 
z
" transform="scale(0.015625)"/>
      </defs>
      <use xlink:href="#DejaVuSans-34"/>
     </g>
    </g>
   </g>
   <g id="text_6">
    <g clip-path="url(#p2a9500efb5)">
     <!-- 5 -->
     <g transform="translate(234.818252 224.144799) scale(0.12 -0.12)">
      <defs>
       <path id="DejaVuSans-35" d="M 691 4666 
L 3169 4666 
L 3169 4134 
L 1269 4134 
L 1269 2991 
Q 1406 3038 1543 3061 
Q 1681 3084 1819 3084 
Q 2600 3084 3056 2656 
Q 3513 2228 3513 1497 
Q 3513 744 3044 326 
Q 2575 -91 1722 -91 
Q 1428 -91 1123 -41 
Q 819 9 494 109 
L 494 744 
Q 775 591 1075 516 
Q 1375 441 1709 441 
Q 2250 441 2565 725 
Q 2881 1009 2881 1497 
Q 2881 1984 2565 2268 
Q 2250 2553 1709 2553 
Q 1456 2553 1204 2497 
Q 953 2441 691 2322 
L 691 4666 
z
" transform="scale(0.015625)"/>
      </defs>
      <use xlink:href="#DejaVuSans-35"/>
     </g>
    </g>
   </g>
   <g id="text_7">
    <g clip-path="url(#p2a9500efb5)">
     <!-- 6 -->
     <g transform="translate(77.428135 227.491727) scale(0.12 -0.12)">
      <defs>
       <path id="DejaVuSans-36" d="M 2113 2584 
Q 1688 2584 1439 2293 
Q 1191 2003 1191 1497 
Q 1191 994 1439 701 
Q 1688 409 2113 409 
Q 2538 409 2786 701 
Q 3034 994 3034 1497 
Q 3034 2003 2786 2293 
Q 2538 2584 2113 2584 
z
M 3366 4563 
L 3366 3988 
Q 3128 4100 2886 4159 
Q 2644 4219 2406 4219 
Q 1781 4219 1451 3797 
Q 1122 3375 1075 2522 
Q 1259 2794 1537 2939 
Q 1816 3084 2150 3084 
Q 2853 3084 3261 2657 
Q 3669 2231 3669 1497 
Q 3669 778 3244 343 
Q 2819 -91 2113 -91 
Q 1303 -91 875 529 
Q 447 1150 447 2328 
Q 447 3434 972 4092 
Q 1497 4750 2381 4750 
Q 2619 4750 2861 4703 
Q 3103 4656 3366 4563 
z
" transform="scale(0.015625)"/>
      </defs>
      <use xlink:href="#DejaVuSans-36"/>
     </g>
    </g>
   </g>
   <g id="text_8">
    <g clip-path="url(#p2a9500efb5)">
     <!-- 7 -->
     <g transform="translate(63.523256 265.775533) scale(0.12 -0.12)">
      <defs>
       <path id="DejaVuSans-37" d="M 525 4666 
L 3525 4666 
L 3525 4397 
L 1831 0 
L 1172 0 
L 2766 4134 
L 525 4134 
L 525 4666 
z
" transform="scale(0.015625)"/>
      </defs>
      <use xlink:href="#DejaVuSans-37"/>
     </g>
    </g>
   </g>
   <g id="text_9">
    <g clip-path="url(#p2a9500efb5)">
     <!-- 8 -->
     <g transform="translate(79.256149 309.995548) scale(0.12 -0.12)">
      <defs>
       <path id="DejaVuSans-38" d="M 2034 2216 
Q 1584 2216 1326 1975 
Q 1069 1734 1069 1313 
Q 1069 891 1326 650 
Q 1584 409 2034 409 
Q 2484 409 2743 651 
Q 3003 894 3003 1313 
Q 3003 1734 2745 1975 
Q 2488 2216 2034 2216 
z
M 1403 2484 
Q 997 2584 770 2862 
Q 544 3141 544 3541 
Q 544 4100 942 4425 
Q 1341 4750 2034 4750 
Q 2731 4750 3128 4425 
Q 3525 4100 3525 3541 
Q 3525 3141 3298 2862 
Q 3072 2584 2669 2484 
Q 3125 2378 3379 2068 
Q 3634 1759 3634 1313 
Q 3634 634 3220 271 
Q 2806 -91 2034 -91 
Q 1263 -91 848 271 
Q 434 634 434 1313 
Q 434 1759 690 2068 
Q 947 2378 1403 2484 
z
M 1172 3481 
Q 1172 3119 1398 2916 
Q 1625 2713 2034 2713 
Q 2441 2713 2670 2916 
Q 2900 3119 2900 3481 
Q 2900 3844 2670 4047 
Q 2441 4250 2034 4250 
Q 1625 4250 1398 4047 
Q 1172 3844 1172 3481 
z
" transform="scale(0.015625)"/>
      </defs>
      <use xlink:href="#DejaVuSans-38"/>
     </g>
    </g>
   </g>
   <g id="text_10">
    <g clip-path="url(#p2a9500efb5)">
     <!-- 9 -->
     <g transform="translate(178.496476 271.110711) scale(0.12 -0.12)">
      <defs>
       <path id="DejaVuSans-39" d="M 703 97 
L 703 672 
Q 941 559 1184 500 
Q 1428 441 1663 441 
Q 2288 441 2617 861 
Q 2947 1281 2994 2138 
Q 2813 1869 2534 1725 
Q 2256 1581 1919 1581 
Q 1219 1581 811 2004 
Q 403 2428 403 3163 
Q 403 3881 828 4315 
Q 1253 4750 1959 4750 
Q 2769 4750 3195 4129 
Q 3622 3509 3622 2328 
Q 3622 1225 3098 567 
Q 2575 -91 1691 -91 
Q 1453 -91 1209 -44 
Q 966 3 703 97 
z
M 1959 2075 
Q 2384 2075 2632 2365 
Q 2881 2656 2881 3163 
Q 2881 3666 2632 3958 
Q 2384 4250 1959 4250 
Q 1534 4250 1286 3958 
Q 1038 3666 1038 3163 
Q 1038 2656 1286 2365 
Q 1534 2075 1959 2075 
z
" transform="scale(0.015625)"/>
      </defs>
      <use xlink:href="#DejaVuSans-39"/>
     </g>
    </g>
   </g>
   <g id="text_11">
    <g clip-path="url(#p2a9500efb5)">
     <!-- C 1 -->
     <g transform="translate(401.973541 180.65197) scale(0.12 -0.12)">
      <defs>
       <path id="DejaVuSans-43" d="M 4122 4306 
L 4122 3641 
Q 3803 3938 3442 4084 
Q 3081 4231 2675 4231 
Q 1875 4231 1450 3742 
Q 1025 3253 1025 2328 
Q 1025 1406 1450 917 
Q 1875 428 2675 428 
Q 3081 428 3442 575 
Q 3803 722 4122 1019 
L 4122 359 
Q 3791 134 3420 21 
Q 3050 -91 2638 -91 
Q 1578 -91 968 557 
Q 359 1206 359 2328 
Q 359 3453 968 4101 
Q 1578 4750 2638 4750 
Q 3056 4750 3426 4639 
Q 3797 4528 4122 4306 
z
" transform="scale(0.015625)"/>
       <path id="DejaVuSans-20" transform="scale(0.015625)"/>
      </defs>
      <use xlink:href="#DejaVuSans-43"/>
      <use xlink:href="#DejaVuSans-20" x="69.824219"/>
      <use xlink:href="#DejaVuSans-31" x="101.611328"/>
     </g>
    </g>
   </g>
   <g id="text_12">
    <g clip-path="url(#p2a9500efb5)">
     <!-- C 2 -->
     <g transform="translate(191.885002 95.994272) scale(0.12 -0.12)">
      <use xlink:href="#DejaVuSans-43"/>
      <use xlink:href="#DejaVuSans-20" x="69.824219"/>
      <use xlink:href="#DejaVuSans-32" x="101.611328"/>
     </g>
    </g>
   </g>
  </g>
 </g>
 <defs>
  <clipPath id="p2a9500efb5">
   <rect x="10.8" y="10.8" width="439.2" height="324"/>
  </clipPath>
 </defs>
</svg>
