<?xml version="1.0" encoding="UTF-8"?><svg id="b" xmlns="http://www.w3.org/2000/svg" viewBox="0 0 468.42 546.28"><defs><style>.d{fill:#f4eab5;}.d,.e,.f,.g,.h,.i,.j{stroke:#000;stroke-miterlimit:10;stroke-width:5px;}.e,.k{fill:#ecd684;}.f{fill:#ede3bd;}.g{fill:#fcf3d6;}.h{fill:#f4e3a5;}.i,.j{fill:none;}.j{stroke-dasharray:0 0 12.16 12.16;}</style></defs><g id="c"><rect class="d" x="2.5" y="2.5" width="463.42" height="541.28"/><rect class="g" x="13.79" y="24.99" width="440.85" height="62.74"/><rect class="g" x="13.79" y="98.79" width="440.85" height="419.74"/><rect class="e" x="27.6" y="124.71" width="413.22" height="21.43"/><rect class="k" x="27.6" y="44.64" width="413.22" height="21.43"/><polyline class="i" points="440.82 60.07 440.82 66.07 434.82 66.07"/><line class="j" x1="422.66" y1="66.07" x2="39.68" y2="66.07"/><polyline class="i" points="33.6 66.07 27.6 66.07 27.6 60.07"/><polyline class="i" points="27.6 50.64 27.6 44.64 33.6 44.64"/><line class="j" x1="45.76" y1="44.64" x2="428.74" y2="44.64"/><polyline class="i" points="434.82 44.64 440.82 44.64 440.82 50.64"/><rect class="e" x="27.6" y="156.19" width="413.22" height="336.89"/><rect class="h" x="45.92" y="360.85" width="376.58" height="105.25"/><rect class="f" x="76.11" y="387.58" width="316.2" height="21.71"/><rect class="f" x="76.11" y="417.67" width="316.2" height="21.71"/><path d="m18.97,11.62c-.33.32-.85.79-1.54,1.4.29.29.75.7,1.37,1.24.2.16.29.33.29.53s-.08.35-.23.5c-.15.14-.33.21-.54.21-.22,0-.49-.14-.82-.42l-.68-.66c-.36-.35-.71-.58-1.04-.7-.39-.14-.59-.35-.59-.65,0-.27.18-.48.53-.64s.74-.44,1.17-.85c.59-.57.94-.9,1.06-.99.16-.12.33-.18.5-.18.21,0,.39.07.54.21.15.14.23.3.23.49s-.08.35-.25.5Z"/><path d="m23.45,11.28c.29-.28.59-.49.92-.63s.67-.21,1.05-.21c.67,0,1.15.19,1.44.56.22.28.35.71.4,1.29.02.48.04.96.06,1.45.06.63.1,1.01.12,1.15.05.43.12.81.2,1.14.02.08.03.15.03.22,0,.22-.08.4-.25.54s-.36.21-.58.21c-.39,0-.65-.2-.77-.59-.09-.32-.18-.76-.26-1.34-.07-.55-.11-1-.11-1.36,0-.1,0-.25.01-.44s.01-.34.01-.44c0-.29,0-.46-.01-.5-.04-.21-.14-.32-.3-.32-.43,0-.83.2-1.18.6-.18.2-.43.58-.74,1.14,0,1.41-.07,2.27-.21,2.55-.15.32-.39.48-.73.48-.22,0-.41-.07-.58-.22s-.25-.33-.25-.54c0-.07.02-.18.06-.31.03-.09.05-.61.07-1.58-.02-.79-.02-2.09.01-3.92v-.19c.04-.46.05-.77.05-.93,0-.12-.02-.3-.06-.54s-.06-.42-.06-.54c0-.22.08-.41.24-.55s.35-.21.58-.21c.39,0,.65.21.78.62.07.23.11.59.11,1.08,0,.39-.01.79-.04,1.19-.02.38-.04.76-.04,1.14Z"/><path d="m32.78,11.92c-.08,0-.18,0-.29,0s-.21,0-.29,0c-.16,0-.35.02-.56.05.07,1.58.11,2.61.11,3.09,0,.05,0,.15,0,.28s0,.25,0,.34c0,.9-.28,1.35-.85,1.35-.21,0-.4-.07-.56-.2-.17-.14-.26-.32-.26-.53,0-.14,0-.35.02-.63s.02-.49.02-.63c0-.47-.04-1.48-.11-3.04-.24-.01-.61-.04-1.1-.1s-.74-.31-.74-.76c0-.22.07-.4.22-.56s.34-.23.57-.23c.14,0,.48.02,1,.07,0-.12-.01-.33-.03-.62-.02-.25-.02-.44-.02-.58,0-.22.08-.4.24-.54s.35-.22.58-.22c.58,0,.87.49.87,1.46v.48c.23-.04.43-.05.58-.05.45,0,.76.03.92.09.31.11.47.35.47.71,0,.22-.08.41-.23.56s-.35.22-.58.22Z"/><path d="m35.81,11.45c.59-.68,1.15-1.03,1.68-1.03.6,0,1.04.23,1.32.69.24-.21.5-.37.79-.47s.6-.16.94-.16c.77,0,1.29.38,1.56,1.14.05.16.14.69.25,1.59.11.63.25,1.69.42,3.16.02.22-.06.41-.23.55s-.37.22-.59.22c-.45,0-.71-.22-.79-.67-.07-.4-.14-.97-.22-1.71-.08-.8-.14-1.38-.19-1.71-.11-.7-.24-1.05-.4-1.05-.09,0-.29.09-.62.27s-.55.33-.7.46c0,.45.05,1.09.16,1.92.11.86.16,1.5.16,1.92,0,.22-.08.41-.23.56s-.35.22-.58.22-.43-.07-.58-.22-.23-.33-.23-.56c0-.45-.05-1.1-.14-1.97s-.14-1.52-.14-1.97c0-.25-.02-.45-.06-.6-.45.26-.91.7-1.37,1.31-.02.03-.05.07-.1.12-.02.79-.02,1.41-.02,1.86,0,.11,0,.26-.01.44s-.01.32-.01.41c0,.21-.09.38-.26.5-.16.11-.35.17-.58.17-.33,0-.56-.14-.67-.43-.08-.2-.12-.51-.12-.93v-2.18c0-.2,0-.48-.02-.86s-.02-.66-.02-.86c0-.35.06-.66.19-.94.15-.35.37-.53.64-.53.22,0,.41.08.59.25s.26.36.26.56c0-.08-.02.09-.05.5Z"/><path d="m45.42,15.78c0,.74-.27,1.11-.81,1.11-.23,0-.43-.07-.58-.22s-.23-.34-.23-.57V7.99c0-.23.08-.41.25-.56.16-.13.35-.2.58-.2s.42.07.57.21.22.32.22.55v7.79Z"/><path d="m52.17,13.3c-.94.81-1.93,1.52-2.95,2.12-.14.09-.29.13-.43.13-.21,0-.39-.07-.54-.22-.15-.15-.22-.31-.22-.5,0-.21.11-.4.32-.55.46-.31,1.13-.78,2.03-1.42-.45-.32-.88-.68-1.29-1.08-.52-.49-.79-.84-.79-1.04s.08-.36.24-.49c.16-.14.34-.21.54-.21s.4.09.57.26c.88.9,1.66,1.51,2.35,1.85.32.15.47.35.47.6,0,.19-.1.37-.3.54Z"/><path d="m28.77,34.47c-.33.32-.85.79-1.54,1.4.29.29.75.7,1.37,1.24.2.16.29.33.29.53s-.08.35-.23.5c-.15.14-.33.21-.54.21-.22,0-.49-.14-.82-.42l-.68-.66c-.36-.35-.71-.58-1.04-.7-.39-.14-.59-.35-.59-.65,0-.27.18-.48.53-.64s.74-.44,1.17-.85c.59-.57.94-.9,1.06-.99.16-.12.33-.18.5-.18.21,0,.39.07.54.21.15.14.23.3.23.49s-.08.35-.25.5Z"/><path d="m33.25,34.13c.29-.28.59-.49.92-.63s.67-.21,1.05-.21c.67,0,1.15.19,1.44.56.22.28.35.71.4,1.29.02.48.04.96.06,1.45.06.63.1,1.01.12,1.15.05.43.12.81.2,1.14.02.08.03.15.03.22,0,.22-.08.4-.25.54s-.36.21-.58.21c-.39,0-.65-.2-.77-.59-.09-.32-.18-.76-.26-1.34-.07-.55-.11-1-.11-1.36,0-.1,0-.25.01-.44s.01-.34.01-.44c0-.29,0-.46-.01-.5-.04-.21-.14-.32-.3-.32-.43,0-.83.2-1.18.6-.18.2-.43.58-.74,1.14,0,1.41-.07,2.27-.21,2.55-.15.32-.39.48-.73.48-.22,0-.41-.07-.58-.22s-.25-.33-.25-.54c0-.07.02-.18.06-.31.03-.09.05-.61.07-1.58-.02-.79-.02-2.09.01-3.92v-.19c.04-.46.05-.77.05-.93,0-.12-.02-.3-.06-.54s-.06-.42-.06-.54c0-.22.08-.41.24-.55s.35-.21.58-.21c.39,0,.65.21.78.62.07.23.11.59.11,1.08,0,.39-.01.79-.04,1.19-.02.38-.04.76-.04,1.14Z"/><path d="m41.39,39.76c-.93,0-1.7-.22-2.29-.67-.66-.49-.98-1.19-.98-2.08,0-.99.26-1.82.78-2.51.58-.76,1.36-1.14,2.34-1.14.68,0,1.24.11,1.69.33.59.29.88.74.88,1.35,0,.43-.24.81-.72,1.14-.22.15-.66.38-1.32.67l-1.97.87c.19.2.41.36.68.46s.57.15.91.15c.52,0,.97-.11,1.33-.32.32-.19.58-.29.78-.29.41,0,.61.2.61.59,0,.45-.33.81-.98,1.09-.55.23-1.13.35-1.74.35Zm-.16-4.97c-.36,0-.67.12-.93.36s-.46.61-.62,1.09c.44-.19.88-.38,1.32-.57.53-.24.95-.46,1.26-.66-.26-.15-.6-.22-1.03-.22Z"/><path d="m50.2,39.81c-.18,0-.46-.17-.86-.52-.36.17-.68.3-.95.39s-.51.13-.7.13c-.94,0-1.65-.25-2.12-.76s-.71-1.26-.71-2.26c0-.94.35-1.75,1.04-2.42s1.53-1,2.5-1c.37,0,.8.1,1.29.31.59.25.88.54.88.88,0,.14-.04.26-.13.37-.04.15-.07.35-.09.58-.02.23-.03.51-.03.82,0,.74.05,1.27.16,1.6.01.03.1.24.27.6.15.33.23.52.23.57,0,.2-.08.38-.24.51s-.34.2-.55.2Zm-1.45-3.96c0-.12,0-.27.03-.43s.04-.34.08-.54c-.08-.04-.15-.07-.21-.08s-.11-.03-.16-.03c-.53,0-1,.21-1.39.62s-.6.9-.6,1.44.09.92.28,1.18.47.4.84.4c.24,0,.47-.04.69-.12s.42-.2.61-.35c-.12-.93-.18-1.62-.18-2.09Z"/><path d="m56.1,33.6c.05-1.33.11-2.25.18-2.76.07-.46.32-.69.76-.69.23,0,.42.08.56.22.14.15.21.33.21.55,0,.57-.04,1.42-.13,2.56-.09,1.13-.13,1.98-.13,2.56,0,1.4.04,2.33.13,2.8.01.06.02.12.02.17,0,.22-.08.4-.23.54s-.34.21-.54.21c-.29,0-.5-.13-.64-.39-.27.16-.54.26-.83.31s-.58.07-.88.07c-.88,0-1.6-.28-2.18-.84-.59-.57-.88-1.3-.88-2.18,0-1.05.3-1.9.89-2.55s1.37-.97,2.33-.97c.29,0,.55.03.79.09s.43.16.6.28Zm-.12,1.85c-.13-.25-.3-.43-.5-.55s-.45-.18-.74-.18c-.58,0-1.01.17-1.3.5s-.43.83-.43,1.5c0,.42.16.78.47,1.08s.68.45,1.09.45c.3,0,.53-.04.69-.11.11-.05.29-.17.54-.38.07-.05.13-.12.19-.18,0-.19,0-.9,0-2.14Z"/><path d="m64.13,36.15c-.94.81-1.93,1.52-2.95,2.12-.14.09-.29.13-.43.13-.21,0-.39-.07-.54-.22-.15-.15-.22-.31-.22-.5,0-.21.11-.4.32-.55.46-.31,1.13-.78,2.03-1.42-.45-.32-.88-.68-1.29-1.08-.52-.49-.79-.84-.79-1.04s.08-.36.24-.49c.16-.14.34-.21.54-.21s.4.09.57.26c.88.9,1.66,1.51,2.35,1.85.32.15.47.35.47.6,0,.19-.1.37-.3.54Z"/><path d="m28.77,110.39c-.33.32-.85.79-1.54,1.4.29.29.75.7,1.37,1.24.2.16.29.33.29.53s-.08.35-.23.5c-.15.14-.33.21-.54.21-.22,0-.49-.14-.82-.42l-.68-.66c-.36-.35-.71-.58-1.04-.7-.39-.14-.59-.35-.59-.65,0-.27.18-.48.53-.64s.74-.44,1.17-.85c.59-.57.94-.9,1.06-.99.16-.12.33-.18.5-.18.21,0,.39.07.54.21.15.14.23.3.23.49s-.08.35-.25.5Z"/><path d="m34.29,115.65c-.55,0-1.07-.1-1.56-.29-.14.14-.32.22-.53.22s-.39-.07-.54-.21-.23-.32-.23-.53c0-.09,0-.24.02-.43s.02-.34.02-.43v-6.64c0-.28.06-.53.19-.75.16-.28.38-.42.67-.42.42,0,.63.23.63.68,0,.05,0,.13-.02.24s-.02.19-.02.24v2.24c.29-.16.57-.28.83-.36s.52-.12.77-.12c.92,0,1.66.33,2.23,1,.53.62.79,1.38.79,2.27s-.31,1.67-.92,2.3c-.62.64-1.4.97-2.32.97Zm.22-5.04c-.2,0-.44.06-.7.18s-.56.29-.9.53c0,.37,0,1.2,0,2.49.54.23.99.35,1.38.35.5,0,.9-.17,1.22-.5s.48-.75.48-1.26-.13-.93-.39-1.26c-.27-.34-.64-.52-1.09-.52Z"/><path d="m41.04,115.75c-.72,0-1.34-.25-1.86-.74-.57-.54-.87-1.27-.9-2.17-.03-.86.21-1.63.71-2.31.59-.8,1.42-1.2,2.48-1.2.78,0,1.4.31,1.86.94.41.56.62,1.26.62,2.09,0,.91-.24,1.68-.73,2.32-.54.71-1.27,1.07-2.19,1.07Zm.35-4.88c-.48,0-.86.21-1.14.66-.23.37-.35.8-.35,1.3,0,.47.13.83.4,1.08.21.2.46.3.74.3.34,0,.63-.12.88-.35.29-.27.44-.63.46-1.1.05-1.26-.28-1.89-.99-1.89Z"/><path d="m49.22,109.52c.05-1.33.11-2.25.18-2.76.07-.46.32-.69.76-.69.23,0,.42.08.56.22.14.15.21.33.21.55,0,.57-.04,1.42-.13,2.56-.09,1.13-.13,1.98-.13,2.56,0,1.4.04,2.33.13,2.8.01.06.02.12.02.17,0,.22-.08.4-.23.54s-.34.21-.54.21c-.29,0-.5-.13-.64-.39-.27.16-.54.26-.83.31s-.58.07-.88.07c-.88,0-1.6-.28-2.18-.84-.59-.57-.88-1.3-.88-2.18,0-1.05.3-1.9.89-2.55s1.37-.97,2.33-.97c.29,0,.55.03.79.09s.43.16.6.28Zm-.12,1.85c-.13-.25-.3-.43-.5-.55s-.45-.18-.74-.18c-.58,0-1.01.17-1.3.5s-.43.83-.43,1.5c0,.42.16.78.47,1.08s.68.45,1.09.45c.3,0,.53-.04.69-.11.11-.05.29-.17.54-.38.07-.05.13-.12.19-.18,0-.19,0-.9,0-2.14Z"/><path d="m57.81,110.46c-.43.89-1.1,2.28-2.02,4.18-.5,1.02-.88,1.87-1.14,2.54-.08.24-.21.6-.39,1.08-.14.37-.39.55-.75.55-.22,0-.42-.07-.59-.22s-.25-.33-.25-.54c0-.36.41-1.44,1.24-3.23-.43-.85-1.11-2.1-2.04-3.74-.09-.15-.19-.3-.29-.45-.11-.18-.16-.34-.16-.49,0-.21.08-.4.25-.56s.36-.24.58-.24c.26,0,.46.1.6.29.55.74,1.2,1.85,1.94,3.33.42-.93.67-1.48.76-1.68.28-.58.55-1.09.81-1.54.17-.28.4-.42.69-.42.22,0,.41.07.59.22s.26.33.26.54c0,.11-.03.24-.1.38Z"/><path d="m63.88,112.07c-.94.81-1.93,1.52-2.95,2.12-.14.09-.29.13-.43.13-.21,0-.39-.07-.54-.22-.15-.15-.22-.31-.22-.5,0-.21.11-.4.32-.55.46-.31,1.13-.78,2.03-1.42-.45-.32-.88-.68-1.29-1.08-.52-.49-.79-.84-.79-1.04s.08-.36.24-.49c.16-.14.34-.21.54-.21s.4.09.57.26c.88.9,1.66,1.51,2.35,1.85.32.15.47.35.47.6,0,.19-.1.37-.3.54Z"/><path d="m39.8,134.37c-.33.32-.85.79-1.54,1.4.29.29.75.7,1.37,1.24.2.16.29.33.29.53s-.08.35-.23.5c-.15.14-.33.21-.54.21-.22,0-.49-.14-.82-.42l-.68-.66c-.36-.35-.71-.58-1.04-.7-.39-.14-.59-.35-.59-.65,0-.27.18-.48.53-.64s.74-.44,1.17-.85c.59-.57.94-.9,1.06-.99.16-.12.33-.18.5-.18.21,0,.39.07.54.21.15.14.23.3.23.49s-.08.35-.25.5Z"/><path d="m44.28,134.02c.29-.28.59-.49.92-.63s.67-.21,1.05-.21c.67,0,1.15.19,1.44.56.22.28.35.71.4,1.29.02.48.04.96.06,1.45.06.63.1,1.01.12,1.15.05.43.12.81.2,1.14.02.08.03.15.03.22,0,.22-.08.4-.25.54s-.36.21-.58.21c-.39,0-.65-.2-.77-.59-.09-.32-.18-.76-.26-1.34-.07-.55-.11-1-.11-1.36,0-.1,0-.25.01-.44s.01-.34.01-.44c0-.29,0-.46-.01-.5-.04-.21-.14-.32-.3-.32-.43,0-.83.2-1.18.6-.18.2-.43.58-.74,1.14,0,1.41-.07,2.27-.21,2.55-.15.32-.39.48-.73.48-.22,0-.41-.07-.58-.22s-.25-.33-.25-.54c0-.07.02-.18.06-.31.03-.09.05-.61.07-1.58-.02-.79-.02-2.09.01-3.92v-.19c.04-.46.05-.77.05-.93,0-.12-.02-.3-.06-.54s-.06-.42-.06-.54c0-.22.08-.41.24-.55s.35-.21.58-.21c.39,0,.65.21.78.62.07.23.11.59.11,1.08,0,.39-.01.79-.04,1.19-.02.38-.04.76-.04,1.14Z"/><path d="m53.69,139.39h-2.33c-.74,0-1.11-.24-1.11-.7,0-.52.41-.79,1.24-.79.08,0,.16,0,.26,0v-5.2c-.34.23-.56.35-.66.35-.22,0-.41-.08-.57-.23s-.24-.34-.24-.54.13-.44.39-.66l.66-.48.71-.57c.29-.21.58-.32.85-.32.35,0,.53.21.53.63,0,.46-.02,1.12-.06,1.96s-.06,2.05-.06,3.62v1.42h.39c.23,0,.42.07.57.22s.23.32.23.54-.08.39-.23.54-.34.22-.57.22Z"/><path d="m62.06,136.04c-.94.81-1.93,1.52-2.95,2.12-.14.09-.29.13-.43.13-.21,0-.39-.07-.54-.22-.15-.15-.22-.31-.22-.5,0-.21.11-.4.32-.55.46-.31,1.13-.78,2.03-1.42-.45-.32-.88-.68-1.29-1.08-.52-.49-.79-.84-.79-1.04s.08-.36.24-.49c.16-.14.34-.21.54-.21s.4.09.57.26c.88.9,1.66,1.51,2.35,1.85.32.15.47.35.47.6,0,.19-.1.37-.3.54Z"/><path d="m39.8,54.57c-.33.32-.85.79-1.54,1.4.29.29.75.7,1.37,1.24.2.16.29.33.29.53s-.08.35-.23.5c-.15.14-.33.21-.54.21-.22,0-.49-.14-.82-.42l-.68-.66c-.36-.35-.71-.58-1.04-.7-.39-.14-.59-.35-.59-.65,0-.27.18-.48.53-.64s.74-.44,1.17-.85c.59-.57.94-.9,1.06-.99.16-.12.33-.18.5-.18.21,0,.39.07.54.21.15.14.23.3.23.49s-.08.35-.25.5Z"/><path d="m44.06,54.4c.59-.68,1.15-1.03,1.68-1.03.6,0,1.04.23,1.32.69.24-.21.5-.37.79-.47s.6-.16.94-.16c.77,0,1.29.38,1.56,1.14.05.16.14.69.25,1.59.11.63.25,1.69.42,3.16.02.22-.06.41-.23.55s-.37.22-.59.22c-.45,0-.71-.22-.79-.67-.07-.4-.14-.97-.22-1.71-.08-.8-.14-1.38-.19-1.71-.11-.7-.24-1.05-.4-1.05-.09,0-.29.09-.62.27s-.55.33-.7.46c0,.45.05,1.09.16,1.92.11.86.16,1.5.16,1.92,0,.22-.08.41-.23.56s-.35.22-.58.22-.43-.07-.58-.22-.23-.33-.23-.56c0-.45-.05-1.1-.14-1.97s-.14-1.52-.14-1.97c0-.25-.02-.45-.06-.6-.45.26-.91.7-1.37,1.31-.02.03-.05.07-.1.12-.02.79-.02,1.41-.02,1.86,0,.11,0,.26-.01.44s-.01.32-.01.41c0,.21-.09.38-.26.5-.16.11-.35.17-.58.17-.33,0-.56-.14-.67-.43-.08-.2-.12-.51-.12-.93v-2.18c0-.2,0-.48-.02-.86s-.02-.66-.02-.86c0-.35.06-.66.19-.94.15-.35.37-.53.64-.53.22,0,.41.08.59.25s.26.36.26.56c0-.08-.02.09-.05.5Z"/><path d="m54.81,59.86c-.93,0-1.7-.22-2.29-.67-.66-.49-.98-1.19-.98-2.08,0-.99.26-1.82.78-2.51.58-.76,1.36-1.14,2.34-1.14.68,0,1.24.11,1.69.33.59.29.88.74.88,1.35,0,.43-.24.81-.72,1.14-.22.15-.66.38-1.32.67l-1.97.87c.19.2.41.36.68.46s.57.15.91.15c.52,0,.97-.11,1.33-.32.32-.19.58-.29.78-.29.41,0,.61.2.61.59,0,.45-.33.81-.98,1.09-.55.23-1.13.35-1.74.35Zm-.16-4.97c-.36,0-.67.12-.93.36s-.46.61-.62,1.09c.44-.19.88-.38,1.32-.57.53-.24.95-.46,1.26-.66-.26-.15-.6-.22-1.03-.22Z"/><path d="m62.71,54.87c-.08,0-.18,0-.29,0s-.21,0-.29,0c-.16,0-.35.02-.56.05.07,1.58.11,2.61.11,3.09,0,.05,0,.15,0,.28s0,.25,0,.34c0,.9-.28,1.35-.85,1.35-.21,0-.4-.07-.56-.2-.17-.14-.26-.32-.26-.53,0-.14,0-.35.02-.63s.02-.49.02-.63c0-.47-.04-1.48-.11-3.04-.24-.01-.61-.04-1.1-.1s-.74-.31-.74-.76c0-.22.07-.4.22-.56s.34-.23.57-.23c.14,0,.48.02,1,.07,0-.12-.01-.33-.03-.62-.02-.25-.02-.44-.02-.58,0-.22.08-.4.24-.54s.35-.22.58-.22c.58,0,.87.49.87,1.46v.48c.23-.04.43-.05.58-.05.45,0,.76.03.92.09.31.11.47.35.47.71,0,.22-.08.41-.23.56s-.35.22-.58.22Z"/><path d="m69.28,59.91c-.18,0-.46-.17-.86-.52-.36.17-.68.3-.95.39s-.51.13-.7.13c-.94,0-1.65-.25-2.12-.76s-.71-1.26-.71-2.26c0-.94.35-1.75,1.04-2.42s1.53-1,2.5-1c.37,0,.8.1,1.29.31.59.25.88.54.88.88,0,.14-.04.26-.13.37-.04.15-.07.35-.09.58-.02.23-.03.51-.03.82,0,.74.05,1.27.16,1.6.01.03.1.24.27.6.15.33.23.52.23.57,0,.2-.08.38-.24.51s-.34.2-.55.2Zm-1.45-3.96c0-.12,0-.27.03-.43s.04-.34.08-.54c-.08-.04-.15-.07-.21-.08s-.11-.03-.16-.03c-.53,0-1,.21-1.39.62s-.6.9-.6,1.44.09.92.28,1.18.47.4.84.4c.24,0,.47-.04.69-.12s.42-.2.61-.35c-.12-.93-.18-1.62-.18-2.09Z"/><path d="m76.15,56.25c-.94.81-1.93,1.52-2.95,2.12-.14.09-.29.13-.43.13-.21,0-.39-.07-.54-.22-.15-.15-.22-.31-.22-.5,0-.21.11-.4.32-.55.46-.31,1.13-.78,2.03-1.42-.45-.32-.88-.68-1.29-1.08-.52-.49-.79-.84-.79-1.04s.08-.36.24-.49c.16-.14.34-.21.54-.21s.4.09.57.26c.88.9,1.66,1.51,2.35,1.85.32.15.47.35.47.6,0,.19-.1.37-.3.54Z"/><rect class="h" x="45.92" y="209.78" width="376.58" height="48.86"/><path d="m57.65,220.88c-.33.32-.85.79-1.54,1.4.29.29.75.7,1.37,1.24.2.16.29.33.29.53s-.08.35-.23.5c-.15.14-.33.21-.54.21-.22,0-.49-.14-.82-.42l-.68-.66c-.36-.35-.71-.58-1.04-.7-.39-.14-.59-.35-.59-.65,0-.27.18-.48.53-.64s.74-.44,1.17-.85c.59-.57.94-.9,1.06-.99.16-.12.33-.18.5-.18.21,0,.39.07.54.21.15.14.23.3.23.49s-.08.35-.25.5Z"/><path d="m62.22,223.15c0,.22,0,.58.02,1.07s.02.85.02,1.07-.08.41-.23.56-.35.22-.58.22-.43-.07-.58-.22-.23-.33-.23-.56,0-.58-.02-1.07-.02-.85-.02-1.07c0-.35.02-.78.06-1.31s.06-.96.06-1.31c0-.23.08-.41.23-.56s.35-.22.58-.22.43.07.58.22.23.33.23.56c0,.35-.02.78-.06,1.31s-.06.96-.06,1.31Zm-.5-4.29c-.25,0-.47-.08-.65-.25s-.28-.37-.28-.62.09-.45.28-.62.4-.25.65-.25.47.08.65.25.27.37.27.62-.09.45-.27.62-.4.25-.65.25Z"/><path d="m65.26,220.71c.59-.68,1.15-1.03,1.68-1.03.6,0,1.04.23,1.32.69.24-.21.5-.37.79-.47s.6-.16.94-.16c.77,0,1.29.38,1.56,1.14.05.16.14.69.25,1.59.11.63.25,1.69.42,3.16.02.22-.06.41-.23.55s-.37.22-.59.22c-.45,0-.71-.22-.79-.67-.07-.4-.14-.97-.22-1.71-.08-.8-.14-1.38-.19-1.71-.11-.7-.24-1.05-.4-1.05-.09,0-.29.09-.62.27s-.55.33-.7.46c0,.45.05,1.09.16,1.92.11.86.16,1.5.16,1.92,0,.22-.08.41-.23.56s-.35.22-.58.22-.43-.07-.58-.22-.23-.33-.23-.56c0-.45-.05-1.1-.14-1.97s-.14-1.52-.14-1.97c0-.25-.02-.45-.06-.6-.45.26-.91.7-1.37,1.31-.02.03-.05.07-.1.12-.02.79-.02,1.41-.02,1.86,0,.11,0,.26-.01.44s-.01.32-.01.41c0,.21-.09.38-.26.5-.16.11-.35.17-.58.17-.33,0-.56-.14-.67-.43-.08-.2-.12-.51-.12-.93v-2.18c0-.2,0-.48-.02-.86s-.02-.66-.02-.86c0-.35.06-.66.19-.94.15-.35.37-.53.64-.53.22,0,.41.08.59.25s.26.36.26.56c0-.08-.02.09-.05.5Z"/><path d="m78.5,222.4c-.16.92-.26,1.89-.29,2.91-.04,1.26-.25,2.18-.63,2.75-.51.76-1.42,1.14-2.72,1.14-1.52,0-2.28-.3-2.28-.9,0-.21.07-.39.21-.52s.32-.2.54-.2c.18,0,.43.03.76.1s.62.1.87.1c.58,0,1.01-.18,1.29-.53.27-.35.42-.9.47-1.66-.2.2-.42.36-.67.46s-.52.15-.82.15c-.78,0-1.41-.25-1.9-.76s-.73-1.15-.73-1.94c0-1.06.32-1.92.97-2.58.67-.68,1.58-1.02,2.72-1.02.37,0,.68.04.95.13s.48.23.64.41c.5.06.74.35.74.88,0,.26-.04.62-.12,1.08Zm-2.27-1.17c-.66,0-1.17.22-1.54.65-.33.39-.49.91-.49,1.54,0,.46.09.81.26,1.05s.44.35.79.35c.32,0,.64-.19.97-.56.3-.35.48-.7.52-1.04.07-.38.16-.96.26-1.75-.13-.08-.26-.14-.39-.18s-.25-.06-.38-.06Z"/><path d="m84.7,222.56c-.94.81-1.93,1.52-2.95,2.12-.14.09-.29.13-.43.13-.21,0-.39-.07-.54-.22-.15-.15-.22-.31-.22-.5,0-.21.11-.4.32-.55.46-.31,1.13-.78,2.03-1.42-.45-.32-.88-.68-1.29-1.08-.52-.49-.79-.84-.79-1.04s.08-.36.24-.49c.16-.14.34-.21.54-.21s.4.09.57.26c.88.9,1.66,1.51,2.35,1.85.32.15.47.35.47.6,0,.19-.1.37-.3.54Z"/><path d="m59.05,372.87c-.33.32-.85.79-1.54,1.41.29.29.75.7,1.37,1.24.2.16.29.33.29.53s-.08.35-.23.5c-.15.14-.33.21-.54.21-.22,0-.49-.14-.82-.42l-.68-.66c-.36-.35-.71-.58-1.04-.7-.39-.14-.59-.35-.59-.65,0-.27.18-.48.53-.64s.74-.44,1.17-.85c.59-.57.94-.9,1.06-.99.16-.12.33-.18.5-.18.21,0,.39.07.54.21.15.14.23.3.23.49s-.08.35-.25.5Z"/><path d="m66.92,374.5c0,.26,0,.66,0,1.18s0,.92,0,1.18c0,.08,0,.2.02.37s.02.28.02.37c0,.22-.08.4-.24.54s-.35.21-.58.21c-.32,0-.56-.15-.71-.44-.5.18-1.02.28-1.55.28s-1.02-.12-1.4-.35c-.43-.27-.68-.66-.76-1.17-.15-.97-.23-1.84-.23-2.6,0-.51.06-1.08.18-1.73.08-.44.34-.66.79-.66.23,0,.42.07.58.21s.24.32.24.54c0,.17-.03.44-.08.8-.06.36-.08.64-.08.83,0,.55.02,1.02.06,1.43s.09.75.17,1.02c.1.04.19.08.28.1s.18.04.27.04c.43,0,.91-.06,1.43-.19,0-.3,0-.64,0-1.03,0-.46-.01-.79-.01-.98,0-.8.04-1.49.11-2.07.06-.46.32-.7.8-.7.23,0,.43.07.59.22s.24.33.23.54c-.07,1.49-.11,2.18-.11,2.06Z"/><path d="m69.83,377.02c0,.74-.27,1.11-.81,1.11-.23,0-.43-.07-.58-.22s-.23-.34-.23-.57v-8.1c0-.23.08-.41.25-.56.16-.13.35-.2.58-.2s.42.07.57.21.22.32.22.55v7.79Z"/><path d="m76.58,374.55c-.94.81-1.93,1.52-2.95,2.12-.14.09-.29.13-.43.13-.21,0-.39-.07-.54-.22-.15-.15-.22-.31-.22-.5,0-.21.11-.4.32-.55.46-.31,1.13-.78,2.03-1.42-.45-.32-.88-.68-1.29-1.08-.52-.49-.79-.84-.79-1.04s.08-.36.24-.49c.16-.14.34-.21.54-.21s.4.09.57.26c.88.9,1.66,1.51,2.35,1.85.32.15.47.35.47.6,0,.19-.1.37-.3.54Z"/><path d="m87.2,397.09c-.33.32-.85.79-1.54,1.41.29.29.75.7,1.37,1.24.2.16.29.33.29.53s-.08.35-.23.5c-.15.14-.33.21-.54.21-.22,0-.49-.14-.82-.42l-.68-.66c-.36-.35-.71-.58-1.04-.7-.39-.14-.59-.35-.59-.65,0-.27.18-.48.53-.64s.74-.44,1.17-.85c.59-.57.94-.9,1.06-.99.16-.12.33-.18.5-.18.21,0,.39.07.54.21.15.14.23.3.23.49s-.08.35-.25.5Z"/><path d="m91.74,401.25c0,.74-.27,1.11-.81,1.11-.23,0-.43-.07-.58-.22s-.23-.34-.23-.57v-8.1c0-.23.08-.41.25-.56.16-.13.35-.2.58-.2s.42.07.57.21.22.32.22.55v7.79Z"/><path d="m95.06,399.36c0,.22,0,.58.02,1.07s.02.85.02,1.07-.08.41-.23.56-.35.22-.58.22-.43-.07-.58-.22-.23-.33-.23-.56,0-.58-.02-1.07-.02-.85-.02-1.07c0-.35.02-.78.06-1.31s.06-.96.06-1.31c0-.23.08-.41.23-.56s.35-.22.58-.22.43.07.58.22.23.33.23.56c0,.35-.02.78-.06,1.31s-.06.96-.06,1.31Zm-.5-4.29c-.25,0-.47-.08-.65-.25s-.28-.37-.28-.62.09-.45.28-.62.4-.25.65-.25.47.08.65.25.27.37.27.62-.09.45-.27.62-.4.25-.65.25Z"/><path d="m101.85,398.77c-.94.81-1.93,1.52-2.95,2.12-.14.09-.29.13-.43.13-.21,0-.39-.07-.54-.22-.15-.15-.22-.31-.22-.5,0-.21.11-.4.32-.55.46-.31,1.13-.78,2.03-1.42-.45-.32-.88-.68-1.29-1.08-.52-.49-.79-.84-.79-1.04s.08-.36.24-.49c.16-.14.34-.21.54-.21s.4.09.57.26c.88.9,1.66,1.51,2.35,1.85.32.15.47.35.47.6,0,.19-.1.37-.3.54Z"/><path d="m364.46,397.09c-.33.32-.85.79-1.54,1.41.29.29.75.7,1.37,1.24.2.16.29.33.29.53s-.08.35-.23.5c-.15.14-.33.21-.54.21-.22,0-.49-.14-.82-.42l-.68-.66c-.36-.35-.71-.58-1.04-.7-.39-.14-.59-.35-.59-.65,0-.27.18-.48.53-.64s.74-.44,1.17-.85c.59-.57.94-.9,1.06-.99.16-.12.33-.18.5-.18.21,0,.39.07.54.21.15.14.23.3.23.49s-.08.35-.25.5Z"/><path d="m372.44,393.68c-.15.33-.37.84-.66,1.52-.27.69-.64,1.49-1.12,2.4-.43.77-.85,1.55-1.28,2.33-.08.16-.44.9-1.06,2.24-.14.31-.37.46-.69.46-.2,0-.38-.06-.53-.19-.16-.14-.25-.31-.25-.52,0-.09.02-.18.05-.27.31-.8.88-1.96,1.73-3.47s1.42-2.67,1.73-3.48c.23-.61.41-1.03.52-1.25.3-.6.59-.89.86-.88.2,0,.38.08.53.21.16.14.25.31.25.51,0,.12-.03.25-.08.39Z"/><path d="m375.14,401.25c0,.74-.27,1.11-.81,1.11-.23,0-.43-.07-.58-.22s-.23-.34-.23-.57v-8.1c0-.23.08-.41.25-.56.16-.13.35-.2.58-.2s.42.07.57.21.22.32.22.55v7.79Z"/><path d="m378.45,399.36c0,.22,0,.58.02,1.07s.02.85.02,1.07-.08.41-.23.56-.35.22-.58.22-.43-.07-.58-.22-.23-.33-.23-.56,0-.58-.02-1.07-.02-.85-.02-1.07c0-.35.02-.78.06-1.31s.06-.96.06-1.31c0-.23.08-.41.23-.56s.35-.22.58-.22.43.07.58.22.23.33.23.56c0,.35-.02.78-.06,1.31s-.06.96-.06,1.31Zm-.5-4.29c-.25,0-.47-.08-.65-.25s-.28-.37-.28-.62.09-.45.28-.62.4-.25.65-.25.47.08.65.25.27.37.27.62-.09.45-.27.62-.4.25-.65.25Z"/><path d="m385.24,398.77c-.94.81-1.93,1.52-2.95,2.12-.14.09-.29.13-.43.13-.21,0-.39-.07-.54-.22-.15-.15-.22-.31-.22-.5,0-.21.11-.4.32-.55.46-.31,1.13-.78,2.03-1.42-.45-.32-.88-.68-1.29-1.08-.52-.49-.79-.84-.79-1.04s.08-.36.24-.49c.16-.14.34-.21.54-.21s.4.09.57.26c.88.9,1.66,1.51,2.35,1.85.32.15.47.35.47.6,0,.19-.1.37-.3.54Z"/><path d="m87.2,428.13c-.33.32-.85.79-1.54,1.4.29.29.75.7,1.37,1.24.2.16.29.33.29.53s-.08.35-.23.5-.33.21-.54.21c-.22,0-.49-.14-.82-.42l-.68-.66c-.36-.35-.71-.58-1.04-.7-.39-.14-.59-.35-.59-.65,0-.27.18-.48.53-.64s.74-.44,1.17-.85c.59-.57.94-.9,1.06-.99.16-.12.33-.18.5-.18.21,0,.39.07.54.21s.23.3.23.49-.08.35-.25.5Z"/><path d="m91.74,432.28c0,.74-.27,1.11-.81,1.11-.23,0-.43-.07-.58-.22s-.23-.34-.23-.57v-8.1c0-.23.08-.41.25-.56.16-.13.35-.2.58-.2s.42.07.57.21.22.32.22.55v7.79Z"/><path d="m95.06,430.4c0,.22,0,.58.02,1.07s.02.85.02,1.07-.08.41-.23.56-.35.22-.58.22-.43-.07-.58-.22-.23-.33-.23-.56,0-.58-.02-1.07-.02-.85-.02-1.07c0-.35.02-.78.06-1.31s.06-.96.06-1.31c0-.23.08-.41.23-.56s.35-.22.58-.22.43.07.58.22.23.33.23.56c0,.35-.02.78-.06,1.31s-.06.96-.06,1.31Zm-.5-4.29c-.25,0-.47-.08-.65-.25s-.28-.37-.28-.62.09-.45.28-.62.4-.25.65-.25.47.08.65.25.27.37.27.62-.09.45-.27.62-.4.25-.65.25Z"/><path d="m101.85,429.8c-.94.81-1.93,1.52-2.95,2.12-.14.09-.29.13-.43.13-.21,0-.39-.07-.54-.22s-.22-.31-.22-.5c0-.21.11-.4.32-.55.46-.31,1.13-.78,2.03-1.42-.45-.32-.88-.68-1.29-1.08-.52-.49-.79-.84-.79-1.04s.08-.36.24-.49.34-.21.54-.21.4.09.57.26c.88.9,1.66,1.51,2.35,1.85.32.15.47.35.47.6,0,.19-.1.37-.3.54Z"/><path d="m364.46,428.13c-.33.32-.85.79-1.54,1.4.29.29.75.7,1.37,1.24.2.16.29.33.29.53s-.08.35-.23.5-.33.21-.54.21c-.22,0-.49-.14-.82-.42l-.68-.66c-.36-.35-.71-.58-1.04-.7-.39-.14-.59-.35-.59-.65,0-.27.18-.48.53-.64s.74-.44,1.17-.85c.59-.57.94-.9,1.06-.99.16-.12.33-.18.5-.18.21,0,.39.07.54.21s.23.3.23.49-.08.35-.25.5Z"/><path d="m372.44,424.72c-.15.33-.37.84-.66,1.52-.27.69-.64,1.49-1.12,2.4-.43.77-.85,1.55-1.28,2.33-.08.16-.44.9-1.06,2.24-.14.31-.37.46-.69.46-.2,0-.38-.06-.53-.19-.16-.14-.25-.31-.25-.52,0-.09.02-.18.05-.27.31-.8.88-1.96,1.73-3.47s1.42-2.67,1.73-3.48c.23-.61.41-1.03.52-1.25.3-.6.59-.89.86-.88.2,0,.38.08.53.21.16.14.25.31.25.51,0,.12-.03.25-.08.39Z"/><path d="m375.14,432.28c0,.74-.27,1.11-.81,1.11-.23,0-.43-.07-.58-.22s-.23-.34-.23-.57v-8.1c0-.23.08-.41.25-.56.16-.13.35-.2.58-.2s.42.07.57.21.22.32.22.55v7.79Z"/><path d="m378.45,430.4c0,.22,0,.58.02,1.07s.02.85.02,1.07-.08.41-.23.56-.35.22-.58.22-.43-.07-.58-.22-.23-.33-.23-.56,0-.58-.02-1.07-.02-.85-.02-1.07c0-.35.02-.78.06-1.31s.06-.96.06-1.31c0-.23.08-.41.23-.56s.35-.22.58-.22.43.07.58.22.23.33.23.56c0,.35-.02.78-.06,1.31s-.06.96-.06,1.31Zm-.5-4.29c-.25,0-.47-.08-.65-.25s-.28-.37-.28-.62.09-.45.28-.62.4-.25.65-.25.47.08.65.25.27.37.27.62-.09.45-.27.62-.4.25-.65.25Z"/><path d="m385.24,429.8c-.94.81-1.93,1.52-2.95,2.12-.14.09-.29.13-.43.13-.21,0-.39-.07-.54-.22s-.22-.31-.22-.5c0-.21.11-.4.32-.55.46-.31,1.13-.78,2.03-1.42-.45-.32-.88-.68-1.29-1.08-.52-.49-.79-.84-.79-1.04s.08-.36.24-.49.34-.21.54-.21.4.09.57.26c.88.9,1.66,1.51,2.35,1.85.32.15.47.35.47.6,0,.19-.1.37-.3.54Z"/><path d="m59.05,452.13c-.33.32-.85.79-1.54,1.41.29.29.75.7,1.37,1.24.2.16.29.33.29.53s-.08.35-.23.5c-.15.14-.33.21-.54.21-.22,0-.49-.14-.82-.42l-.68-.66c-.36-.35-.71-.58-1.04-.7-.39-.14-.59-.35-.59-.65,0-.27.18-.48.53-.64s.74-.44,1.17-.85c.59-.57.94-.9,1.06-.99.16-.12.33-.18.5-.18.21,0,.39.07.54.21.15.14.23.3.23.49s-.08.35-.25.5Z"/><path d="m67.04,448.72c-.15.33-.37.84-.66,1.52-.27.69-.64,1.49-1.12,2.4-.43.77-.85,1.55-1.28,2.33-.08.16-.44.9-1.06,2.24-.14.31-.37.46-.69.46-.2,0-.38-.06-.53-.19-.16-.14-.25-.31-.25-.52,0-.09.02-.18.05-.27.31-.8.88-1.96,1.73-3.47s1.42-2.67,1.73-3.48c.23-.61.41-1.03.52-1.25.3-.6.59-.89.86-.88.2,0,.38.08.53.21.16.14.25.31.25.51,0,.12-.03.25-.08.39Z"/><path d="m73.06,453.76c0,.26,0,.66,0,1.18s0,.92,0,1.18c0,.08,0,.2.02.37s.02.28.02.37c0,.22-.08.4-.24.54s-.35.21-.58.21c-.32,0-.56-.15-.71-.44-.5.18-1.02.28-1.55.28s-1.02-.12-1.4-.35c-.43-.27-.68-.66-.76-1.17-.15-.97-.23-1.84-.23-2.6,0-.51.06-1.08.18-1.73.08-.44.34-.66.79-.66.23,0,.42.07.58.21s.24.32.24.54c0,.17-.03.44-.08.8-.06.36-.08.64-.08.83,0,.55.02,1.02.06,1.43s.09.75.17,1.02c.1.04.19.08.28.1s.18.04.27.04c.43,0,.91-.06,1.43-.19,0-.3,0-.64,0-1.03,0-.46-.01-.79-.01-.98,0-.8.04-1.49.11-2.07.06-.46.32-.7.8-.7.23,0,.43.07.59.22s.24.33.23.54c-.07,1.49-.11,2.18-.11,2.06Z"/><path d="m75.97,456.29c0,.74-.27,1.11-.81,1.11-.23,0-.43-.07-.58-.22s-.23-.34-.23-.57v-8.1c0-.23.08-.41.25-.56.16-.13.35-.2.58-.2s.42.07.57.21.22.32.22.55v7.79Z"/><path d="m82.72,453.81c-.94.81-1.93,1.52-2.95,2.12-.14.09-.29.13-.43.13-.21,0-.39-.07-.54-.22-.15-.15-.22-.31-.22-.5,0-.21.11-.4.32-.55.46-.31,1.13-.78,2.03-1.42-.45-.32-.88-.68-1.29-1.08-.52-.49-.79-.84-.79-1.04s.08-.36.24-.49c.16-.14.34-.21.54-.21s.4.09.57.26c.88.9,1.66,1.51,2.35,1.85.32.15.47.35.47.6,0,.19-.1.37-.3.54Z"/><rect class="h" x="45.92" y="178.28" width="376.58" height="23.08"/><path d="m57.65,189.85c-.33.32-.85.79-1.54,1.4.29.29.75.7,1.37,1.24.2.16.29.33.29.53s-.08.35-.23.5c-.15.14-.33.21-.54.21-.22,0-.49-.14-.82-.42l-.68-.66c-.36-.35-.71-.58-1.04-.7-.39-.14-.59-.35-.59-.65,0-.27.18-.48.53-.64s.74-.44,1.17-.85c.59-.57.94-.9,1.06-.99.16-.12.33-.18.5-.18.21,0,.39.07.54.21.15.14.23.3.23.49s-.08.35-.25.5Z"/><path d="m62.12,189.51c.29-.28.59-.49.92-.63s.67-.21,1.05-.21c.67,0,1.15.19,1.44.56.22.28.35.71.4,1.29.02.48.04.96.06,1.45.06.63.1,1.01.12,1.15.05.43.12.81.2,1.14.02.08.03.15.03.22,0,.22-.08.4-.25.54s-.36.21-.58.21c-.39,0-.65-.2-.77-.59-.09-.32-.18-.76-.26-1.34-.07-.55-.11-1-.11-1.36,0-.1,0-.25.01-.44s.01-.34.01-.44c0-.29,0-.46-.01-.5-.04-.21-.14-.32-.3-.32-.43,0-.83.2-1.18.6-.18.2-.43.58-.74,1.14,0,1.41-.07,2.27-.21,2.55-.15.32-.39.48-.73.48-.22,0-.41-.07-.58-.22s-.25-.33-.25-.54c0-.07.02-.18.06-.31.03-.09.05-.61.07-1.58-.02-.79-.02-2.09.01-3.92v-.19c.04-.46.05-.77.05-.93,0-.12-.02-.3-.06-.54s-.06-.42-.06-.54c0-.22.08-.41.24-.55s.35-.21.58-.21c.39,0,.65.21.78.62.07.23.11.59.11,1.08,0,.39-.01.79-.04,1.19-.02.38-.04.76-.04,1.14Z"/><path d="m72.62,194.88c-.1,0-.25-.02-.45-.05s-.35-.05-.44-.05h-1.72c-.15,0-.37.01-.67.05s-.53.06-.68.06c-.04,0-.11,0-.19-.02s-.14-.02-.19-.02c-.35,0-.59-.14-.71-.43-.08-.18-.12-.46-.12-.83,0-.73.16-1.34.49-1.83.25-.38.65-.76,1.21-1.14.53-.35,1.05-.69,1.58-1.04.62-.45.93-.96.93-1.53,0-.15-.12-.3-.37-.44s-.49-.22-.72-.22c-.41,0-.85.18-1.32.55s-.78.55-.95.55c-.21,0-.39-.05-.54-.15-.2-.12-.29-.3-.29-.52,0-.24.1-.44.29-.62.47-.42.88-.72,1.24-.91.51-.28,1.03-.42,1.58-.42.68,0,1.29.18,1.83.53.62.41.93.94.93,1.59s-.15,1.23-.46,1.69c-.24.37-.62.73-1.13,1.08-.49.31-.98.62-1.46.92-.74.48-1.14,1.04-1.2,1.66.21-.03.53-.06.95-.09.83-.04,1.43-.06,1.79-.06.34,0,.67.07,1,.22.41.18.61.41.61.69,0,.2-.07.38-.22.53-.15.16-.34.25-.57.25Z"/><path d="m79.9,191.53c-.94.81-1.93,1.52-2.95,2.12-.14.09-.29.13-.43.13-.21,0-.39-.07-.54-.22-.15-.15-.22-.31-.22-.5,0-.21.11-.4.32-.55.46-.31,1.13-.78,2.03-1.42-.45-.32-.88-.68-1.29-1.08-.52-.49-.79-.84-.79-1.04s.08-.36.24-.49c.16-.14.34-.21.54-.21s.4.09.57.26c.88.9,1.66,1.51,2.35,1.85.32.15.47.35.47.6,0,.19-.1.37-.3.54Z"/><path d="m387.88,189.85c-.33.32-.85.79-1.54,1.4.29.29.75.7,1.37,1.24.2.16.29.33.29.53s-.08.35-.23.5c-.15.14-.33.21-.54.21-.22,0-.49-.14-.82-.42l-.68-.66c-.36-.35-.71-.58-1.04-.7-.39-.14-.59-.35-.59-.65,0-.27.18-.48.53-.64s.74-.44,1.17-.85c.59-.57.94-.9,1.06-.99.16-.12.33-.18.5-.18.21,0,.39.07.54.21.15.14.23.3.23.49s-.08.35-.25.5Z"/><path d="m395.86,186.44c-.15.33-.37.84-.66,1.52-.27.69-.64,1.49-1.12,2.4-.43.77-.85,1.55-1.28,2.33-.08.16-.44.9-1.06,2.24-.14.31-.37.46-.69.46-.2,0-.38-.06-.53-.19-.16-.14-.25-.31-.25-.52,0-.09.02-.18.05-.27.31-.8.88-1.96,1.73-3.47s1.42-2.67,1.73-3.48c.23-.61.41-1.03.52-1.25.3-.6.59-.89.86-.88.2,0,.38.08.53.21.16.14.25.31.25.51,0,.12-.03.25-.08.39Z"/><path d="m398.49,189.51c.29-.28.59-.49.92-.63s.67-.21,1.05-.21c.67,0,1.15.19,1.44.56.22.28.35.71.4,1.29.02.48.04.96.06,1.45.06.63.1,1.01.12,1.15.05.43.12.81.2,1.14.02.08.03.15.03.22,0,.22-.08.4-.25.54s-.36.21-.58.21c-.39,0-.65-.2-.77-.59-.09-.32-.18-.76-.26-1.34-.07-.55-.11-1-.11-1.36,0-.1,0-.25.01-.44s.01-.34.01-.44c0-.29,0-.46-.01-.5-.04-.21-.14-.32-.3-.32-.43,0-.83.2-1.18.6-.18.2-.43.58-.74,1.14,0,1.41-.07,2.27-.21,2.55-.15.32-.39.48-.73.48-.22,0-.41-.07-.58-.22s-.25-.33-.25-.54c0-.07.02-.18.06-.31.03-.09.05-.61.07-1.58-.02-.79-.02-2.09.01-3.92v-.19c.04-.46.05-.77.05-.93,0-.12-.02-.3-.06-.54s-.06-.42-.06-.54c0-.22.08-.41.24-.55s.35-.21.58-.21c.39,0,.65.21.78.62.07.23.11.59.11,1.08,0,.39-.01.79-.04,1.19-.02.38-.04.76-.04,1.14Z"/><path d="m408.99,194.88c-.1,0-.25-.02-.45-.05s-.35-.05-.44-.05h-1.72c-.15,0-.37.01-.67.05s-.53.06-.68.06c-.04,0-.11,0-.19-.02s-.14-.02-.19-.02c-.35,0-.59-.14-.71-.43-.08-.18-.12-.46-.12-.83,0-.73.16-1.34.49-1.83.25-.38.65-.76,1.21-1.14.53-.35,1.05-.69,1.58-1.04.62-.45.93-.96.93-1.53,0-.15-.12-.3-.37-.44s-.49-.22-.72-.22c-.41,0-.85.18-1.32.55s-.78.55-.95.55c-.21,0-.39-.05-.54-.15-.2-.12-.29-.3-.29-.52,0-.24.1-.44.29-.62.47-.42.88-.72,1.24-.91.51-.28,1.03-.42,1.58-.42.68,0,1.29.18,1.83.53.62.41.93.94.93,1.59s-.15,1.23-.46,1.69c-.24.37-.62.73-1.13,1.08-.49.31-.98.62-1.46.92-.74.48-1.14,1.04-1.2,1.66.21-.03.53-.06.95-.09.83-.04,1.43-.06,1.79-.06.34,0,.67.07,1,.22.41.18.61.41.61.69,0,.2-.07.38-.22.53-.15.16-.34.25-.57.25Z"/><path d="m416.27,191.53c-.94.81-1.93,1.52-2.95,2.12-.14.09-.29.13-.43.13-.21,0-.39-.07-.54-.22-.15-.15-.22-.31-.22-.5,0-.21.11-.4.32-.55.46-.31,1.13-.78,2.03-1.42-.45-.32-.88-.68-1.29-1.08-.52-.49-.79-.84-.79-1.04s.08-.36.24-.49c.16-.14.34-.21.54-.21s.4.09.57.26c.88.9,1.66,1.51,2.35,1.85.32.15.47.35.47.6,0,.19-.1.37-.3.54Z"/><rect class="h" x="45.92" y="267.06" width="376.58" height="84.42"/><rect class="f" x="100.75" y="288.06" width="133.46" height="21.71"/><rect class="f" x="248.71" y="310.86" width="90.98" height="21.71"/><path d="m57.65,279.73c-.33.32-.85.79-1.54,1.4.29.29.75.7,1.37,1.24.2.16.29.33.29.53s-.08.35-.23.5c-.15.14-.33.21-.54.21-.22,0-.49-.14-.82-.42l-.68-.66c-.36-.35-.71-.58-1.04-.7-.39-.14-.59-.35-.59-.65,0-.27.18-.48.53-.64s.74-.44,1.17-.85c.59-.57.94-.9,1.06-.99.16-.12.33-.18.5-.18.21,0,.39.07.54.21.15.14.23.3.23.49s-.08.35-.25.5Z"/><path d="m63.09,285.09c-.34,0-.69-.04-1.06-.12v2.39c0,.23-.08.41-.23.56s-.35.22-.58.22-.43-.07-.58-.22-.23-.34-.23-.56c0-.18,0-.91.01-2.19,0-.95,0-1.72,0-2.31-.01-.84-.04-1.57-.08-2.18-.06-.84-.09-1.22-.09-1.15,0-.32.07-.6.22-.83.17-.26.39-.39.68-.39.22,0,.4.07.55.22s.22.33.22.53v.06c.26-.15.52-.26.78-.33s.53-.11.79-.11c.9,0,1.55.38,1.97,1.14.31.57.46,1.32.46,2.23,0,.86-.24,1.56-.73,2.13-.52.61-1.22.91-2.1.91Zm.4-4.85c-.25,0-.5.06-.75.17s-.51.29-.77.52c.05.8.07,1.61.07,2.42.35.11.7.17,1.04.17.4,0,.71-.14.93-.43.2-.26.29-.61.29-1.04,0-.53-.02-.89-.07-1.1-.11-.48-.36-.71-.74-.71Z"/><path d="m72.06,281.41c-.94.81-1.93,1.52-2.95,2.12-.14.09-.29.13-.43.13-.21,0-.39-.07-.54-.22-.15-.15-.22-.31-.22-.5,0-.21.11-.4.32-.55.46-.31,1.13-.78,2.03-1.42-.45-.32-.88-.68-1.29-1.08-.52-.49-.79-.84-.79-1.04s.08-.36.24-.49c.16-.14.34-.21.54-.21s.4.09.57.26c.88.9,1.66,1.51,2.35,1.85.32.15.47.35.47.6,0,.19-.1.37-.3.54Z"/><path d="m111.13,297.06c-.33.32-.85.79-1.54,1.4.29.29.75.7,1.37,1.24.2.16.29.33.29.53s-.08.35-.23.5c-.15.14-.33.21-.54.21-.22,0-.49-.14-.82-.42l-.68-.66c-.36-.35-.71-.58-1.04-.7-.39-.14-.59-.35-.59-.65,0-.27.18-.48.53-.64s.74-.44,1.17-.85c.59-.57.94-.9,1.06-.99.16-.12.33-.18.5-.18.21,0,.39.07.54.21.15.14.23.3.23.49s-.08.35-.25.5Z"/><path d="m117.99,297.78c-.39,0-.62-.16-.7-.49-.16-.03-.32-.04-.48-.04-.94,0-1.41.13-1.41.39,0,.15.28.36.85.62.77.36,1.3.63,1.57.83.57.41.85.87.85,1.39,0,.67-.31,1.18-.94,1.53-.5.28-1.12.42-1.86.42-.52,0-.99-.08-1.42-.24-.59-.22-.88-.54-.88-.97,0-.39.23-.59.7-.59.18,0,.44.06.78.17s.6.17.79.17c.79,0,1.19-.16,1.2-.48,0-.2-.28-.42-.83-.66-.8-.36-1.32-.61-1.55-.77-.55-.39-.83-.86-.83-1.41,0-.79.42-1.31,1.25-1.59.49-.16,1.23-.24,2.23-.24.39,0,.68.05.87.15.26.14.39.39.39.76,0,.7-.19,1.05-.57,1.05Z"/><path d="m123.85,297.36c-.08,0-.18,0-.29,0s-.21,0-.29,0c-.16,0-.35.02-.56.05.07,1.58.11,2.61.11,3.09,0,.05,0,.15,0,.28s0,.25,0,.34c0,.9-.28,1.35-.85,1.35-.21,0-.4-.07-.56-.2-.17-.14-.26-.32-.26-.53,0-.14,0-.35.02-.63s.02-.49.02-.63c0-.47-.04-1.48-.11-3.04-.24-.01-.61-.04-1.1-.1s-.74-.31-.74-.76c0-.22.07-.4.22-.56s.34-.23.57-.23c.14,0,.48.02,1,.07,0-.12-.01-.33-.03-.62-.02-.25-.02-.44-.02-.58,0-.22.08-.4.24-.54s.35-.22.58-.22c.58,0,.87.49.87,1.46v.48c.23-.04.43-.05.58-.05.45,0,.76.03.92.09.31.11.47.35.47.71,0,.22-.08.41-.23.56s-.35.22-.58.22Z"/><path d="m130.28,297.85c-.04.6-.31.9-.81.9s-.74-.25-.74-.76l-.03-.59c-.88.14-1.51.59-1.89,1.35v2.95c0,.22-.07.41-.22.55s-.35.22-.58.22-.43-.08-.56-.23c-.12-.14-.19-.32-.19-.54v-3.84c0-.12,0-.3.01-.54s.01-.42.01-.54c0-.22.07-.4.2-.55s.32-.22.56-.22c.43,0,.69.22.77.67.69-.52,1.46-.77,2.3-.77.78,0,1.17.52,1.17,1.56,0,.2,0,.33,0,.39Z"/><path d="m133.54,302.42c-.72,0-1.34-.25-1.86-.74-.57-.54-.87-1.27-.9-2.17-.03-.86.21-1.63.71-2.31.59-.8,1.42-1.2,2.48-1.2.78,0,1.4.31,1.86.94.41.56.62,1.26.62,2.09,0,.91-.24,1.68-.73,2.32-.54.71-1.27,1.07-2.19,1.07Zm.35-4.88c-.48,0-.86.21-1.14.66-.23.37-.35.8-.35,1.3,0,.47.13.83.4,1.08.21.2.46.3.74.3.34,0,.63-.12.88-.35.29-.27.44-.63.46-1.1.05-1.26-.28-1.89-.99-1.89Z"/><path d="m142.06,302.49c-.48,0-.75-.24-.8-.71-.05-.4-.11-.81-.16-1.21-.06-.43-.09-.83-.09-1.21,0-.1,0-.28.02-.52s.02-.42.02-.52c0-.03,0-.1.01-.21s.01-.2.01-.27c0-.32-.08-.49-.23-.49-.33,0-.66.22-.98.65s-.57.98-.76,1.64c0,.13-.02.31-.05.53-.02.18-.03.36-.03.53,0,.11-.01.28-.04.51-.03.23-.04.4-.04.51,0,.23-.08.42-.23.57-.15.15-.35.23-.58.23s-.43-.07-.58-.22c-.15-.15-.23-.34-.23-.56,0-.11-.01-.28-.04-.5-.02-.22-.04-.39-.04-.5,0-.38.03-.91.08-1.59s.08-1.21.08-1.59c0-.12,0-.3-.02-.53s-.02-.41-.02-.53c0-.22.08-.41.24-.55s.35-.22.58-.22c.51,0,.79.31.82.92v.06c.58-.57,1.18-.86,1.81-.86.74,0,1.25.31,1.53.93.19.41.28,1.03.28,1.86v.42c0,.18,0,.31,0,.38,0,.3.04.7.13,1.18s.13.87.13,1.17c0,.22-.08.4-.23.54s-.35.22-.58.22Z"/><path d="m149.15,298.58c-.16.92-.26,1.89-.29,2.91-.04,1.26-.25,2.18-.63,2.75-.51.76-1.42,1.14-2.72,1.14-1.52,0-2.28-.3-2.28-.9,0-.21.07-.39.21-.52s.32-.2.54-.2c.18,0,.43.03.76.1s.62.1.87.1c.58,0,1.01-.18,1.29-.53.27-.35.42-.9.47-1.66-.2.2-.42.36-.67.46s-.52.15-.82.15c-.78,0-1.41-.25-1.9-.76s-.73-1.15-.73-1.94c0-1.06.32-1.92.97-2.58.67-.68,1.58-1.02,2.72-1.02.37,0,.68.04.95.13s.48.23.64.41c.5.06.74.35.74.88,0,.26-.04.62-.12,1.08Zm-2.27-1.17c-.66,0-1.17.22-1.54.65-.33.39-.49.91-.49,1.54,0,.46.09.81.26,1.05s.44.35.79.35c.32,0,.64-.19.97-.56.3-.35.48-.7.52-1.04.07-.38.16-.96.26-1.75-.13-.08-.26-.14-.39-.18s-.25-.06-.38-.06Z"/><path d="m155.35,298.73c-.94.81-1.93,1.52-2.95,2.12-.14.09-.29.13-.43.13-.21,0-.39-.07-.54-.22-.15-.15-.22-.31-.22-.5,0-.21.11-.4.32-.55.46-.31,1.13-.78,2.03-1.42-.45-.32-.88-.68-1.29-1.08-.52-.49-.79-.84-.79-1.04s.08-.36.24-.49c.16-.14.34-.21.54-.21s.4.09.57.26c.88.9,1.66,1.51,2.35,1.85.32.15.47.35.47.6,0,.19-.1.37-.3.54Z"/><path d="m257.73,320.14c-.33.32-.85.79-1.54,1.4.29.29.75.7,1.37,1.24.2.16.29.33.29.53s-.08.35-.23.5c-.15.14-.33.21-.54.21-.22,0-.49-.14-.82-.42l-.68-.66c-.36-.35-.71-.58-1.04-.7-.39-.14-.59-.35-.59-.65,0-.27.18-.48.53-.64s.74-.44,1.17-.85c.59-.57.94-.9,1.06-.99.16-.12.33-.18.5-.18.21,0,.39.07.54.21.15.14.23.3.23.49s-.08.35-.25.5Z"/><path d="m265.52,325.48c-.18,0-.46-.17-.86-.52-.36.17-.68.3-.95.39s-.51.13-.7.13c-.94,0-1.65-.25-2.12-.76s-.71-1.26-.71-2.26c0-.94.35-1.75,1.04-2.42s1.53-1,2.5-1c.37,0,.8.1,1.29.31.59.25.88.54.88.88,0,.14-.04.26-.13.37-.04.15-.07.35-.09.58-.02.23-.03.51-.03.82,0,.74.05,1.27.16,1.6.01.04.1.24.27.6.15.33.23.52.23.57,0,.21-.08.38-.24.51-.16.13-.34.2-.55.2Zm-1.45-3.96c0-.12,0-.27.03-.43s.04-.34.08-.54c-.08-.04-.15-.07-.21-.08s-.11-.03-.16-.03c-.53,0-1,.21-1.39.62s-.6.9-.6,1.44.09.92.28,1.18.47.4.84.4c.24,0,.47-.04.69-.12s.42-.2.61-.35c-.12-.93-.18-1.63-.18-2.09Z"/><path d="m272.39,321.82c-.94.81-1.93,1.52-2.95,2.12-.14.09-.29.13-.43.13-.21,0-.39-.07-.54-.22-.15-.15-.22-.31-.22-.5,0-.21.11-.4.32-.55.46-.31,1.13-.78,2.03-1.42-.45-.32-.88-.68-1.29-1.08-.52-.49-.79-.84-.79-1.04s.08-.36.24-.49c.16-.14.34-.21.54-.21s.4.09.57.26c.88.9,1.66,1.51,2.35,1.85.32.15.47.35.47.6,0,.19-.1.37-.3.54Z"/><path d="m312.56,320.14c-.33.32-.85.79-1.54,1.4.29.29.75.7,1.37,1.24.2.16.29.33.29.53s-.08.35-.23.5c-.15.14-.33.21-.54.21-.22,0-.49-.14-.82-.42l-.68-.66c-.36-.35-.71-.58-1.04-.7-.39-.14-.59-.35-.59-.65,0-.27.18-.48.53-.64s.74-.44,1.17-.85c.59-.57.94-.9,1.06-.99.16-.12.33-.18.5-.18.21,0,.39.07.54.21.15.14.23.3.23.49s-.08.35-.25.5Z"/><path d="m320.54,316.73c-.15.33-.37.84-.66,1.52-.27.69-.64,1.49-1.12,2.4-.43.77-.85,1.55-1.28,2.33-.08.16-.44.9-1.06,2.24-.14.31-.37.46-.69.46-.2,0-.38-.06-.53-.19-.16-.14-.25-.31-.25-.52,0-.09.02-.18.05-.27.31-.8.88-1.96,1.73-3.47.84-1.51,1.42-2.67,1.73-3.48.23-.61.41-1.03.52-1.25.3-.6.59-.89.86-.88.2,0,.38.08.53.21.16.14.25.31.25.51,0,.12-.03.25-.08.39Z"/><path d="m326.49,325.48c-.18,0-.46-.17-.86-.52-.36.17-.68.3-.95.39s-.51.13-.7.13c-.94,0-1.65-.25-2.12-.76s-.71-1.26-.71-2.26c0-.94.35-1.75,1.04-2.42s1.53-1,2.5-1c.37,0,.8.1,1.29.31.59.25.88.54.88.88,0,.14-.04.26-.13.37-.04.15-.07.35-.09.58-.02.23-.03.51-.03.82,0,.74.05,1.27.16,1.6.01.04.1.24.27.6.15.33.23.52.23.57,0,.21-.08.38-.24.51-.16.13-.34.2-.55.2Zm-1.45-3.96c0-.12,0-.27.03-.43s.04-.34.08-.54c-.08-.04-.15-.07-.21-.08s-.11-.03-.16-.03c-.53,0-1,.21-1.39.62s-.6.9-.6,1.44.09.92.28,1.18.47.4.84.4c.24,0,.47-.04.69-.12s.42-.2.61-.35c-.12-.93-.18-1.63-.18-2.09Z"/><path d="m333.36,321.82c-.94.81-1.93,1.52-2.95,2.12-.14.09-.29.13-.43.13-.21,0-.39-.07-.54-.22-.15-.15-.22-.31-.22-.5,0-.21.11-.4.32-.55.46-.31,1.13-.78,2.03-1.42-.45-.32-.88-.68-1.29-1.08-.52-.49-.79-.84-.79-1.04s.08-.36.24-.49c.16-.14.34-.21.54-.21s.4.09.57.26c.88.9,1.66,1.51,2.35,1.85.32.15.47.35.47.6,0,.19-.1.37-.3.54Z"/><path d="m177.38,297.06c-.33.32-.85.79-1.54,1.4.29.29.75.7,1.37,1.24.2.16.29.33.29.53s-.08.35-.23.5c-.15.14-.33.21-.54.21-.22,0-.49-.14-.82-.42l-.68-.66c-.36-.35-.71-.58-1.04-.7-.39-.14-.59-.35-.59-.65,0-.27.18-.48.53-.64s.74-.44,1.17-.85c.59-.57.94-.9,1.06-.99.16-.12.33-.18.5-.18.21,0,.39.07.54.21.15.14.23.3.23.49s-.08.35-.25.5Z"/><path d="m185.37,293.65c-.15.33-.37.84-.66,1.52-.27.69-.64,1.49-1.12,2.4-.43.77-.85,1.55-1.28,2.33-.08.16-.44.9-1.06,2.24-.14.31-.37.46-.69.46-.2,0-.38-.06-.53-.19-.16-.14-.25-.31-.25-.52,0-.09.02-.18.05-.27.31-.8.88-1.96,1.73-3.47s1.42-2.67,1.73-3.48c.23-.61.41-1.03.52-1.25.3-.6.59-.89.86-.88.2,0,.38.08.53.21.16.14.25.31.25.51,0,.12-.03.25-.08.39Z"/><path d="m190.39,297.78c-.39,0-.62-.16-.7-.49-.16-.03-.32-.04-.48-.04-.94,0-1.41.13-1.41.39,0,.15.28.36.85.62.77.36,1.3.63,1.57.83.57.41.85.87.85,1.39,0,.67-.31,1.18-.94,1.53-.5.28-1.12.42-1.86.42-.52,0-.99-.08-1.42-.24-.59-.22-.88-.54-.88-.97,0-.39.23-.59.7-.59.18,0,.44.06.78.17s.6.17.79.17c.79,0,1.19-.16,1.2-.48,0-.2-.28-.42-.83-.66-.8-.36-1.32-.61-1.55-.77-.55-.39-.83-.86-.83-1.41,0-.79.42-1.31,1.25-1.59.49-.16,1.23-.24,2.23-.24.39,0,.68.05.87.15.26.14.39.39.39.76,0,.7-.19,1.05-.57,1.05Z"/><path d="m196.24,297.36c-.08,0-.18,0-.29,0s-.21,0-.29,0c-.16,0-.35.02-.56.05.07,1.58.11,2.61.11,3.09,0,.05,0,.15,0,.28s0,.25,0,.34c0,.9-.28,1.35-.85,1.35-.21,0-.4-.07-.56-.2-.17-.14-.26-.32-.26-.53,0-.14,0-.35.02-.63s.02-.49.02-.63c0-.47-.04-1.48-.11-3.04-.24-.01-.61-.04-1.1-.1s-.74-.31-.74-.76c0-.22.07-.4.22-.56s.34-.23.57-.23c.14,0,.48.02,1,.07,0-.12-.01-.33-.03-.62-.02-.25-.02-.44-.02-.58,0-.22.08-.4.24-.54s.35-.22.58-.22c.58,0,.87.49.87,1.46v.48c.23-.04.43-.05.58-.05.45,0,.76.03.92.09.31.11.47.35.47.71,0,.22-.08.41-.23.56s-.35.22-.58.22Z"/><path d="m202.67,297.85c-.04.6-.31.9-.81.9s-.74-.25-.74-.76l-.03-.59c-.88.14-1.51.59-1.89,1.35v2.95c0,.22-.07.41-.22.55s-.35.22-.58.22-.43-.08-.56-.23c-.12-.14-.19-.32-.19-.54v-3.84c0-.12,0-.3.01-.54s.01-.42.01-.54c0-.22.07-.4.2-.55s.32-.22.56-.22c.43,0,.69.22.77.67.69-.52,1.46-.77,2.3-.77.78,0,1.17.52,1.17,1.56,0,.2,0,.33,0,.39Z"/><path d="m205.94,302.42c-.72,0-1.34-.25-1.86-.74-.57-.54-.87-1.27-.9-2.17-.03-.86.21-1.63.71-2.31.59-.8,1.42-1.2,2.48-1.2.78,0,1.4.31,1.86.94.41.56.62,1.26.62,2.09,0,.91-.24,1.68-.73,2.32-.54.71-1.27,1.07-2.19,1.07Zm.35-4.88c-.48,0-.86.21-1.14.66-.23.37-.35.8-.35,1.3,0,.47.13.83.4,1.08.21.2.46.3.74.3.34,0,.63-.12.88-.35.29-.27.44-.63.46-1.1.05-1.26-.28-1.89-.99-1.89Z"/><path d="m214.45,302.49c-.48,0-.75-.24-.8-.71-.05-.4-.11-.81-.16-1.21-.06-.43-.09-.83-.09-1.21,0-.1,0-.28.02-.52s.02-.42.02-.52c0-.03,0-.1.01-.21s.01-.2.01-.27c0-.32-.08-.49-.23-.49-.33,0-.66.22-.99.65-.32.43-.57.98-.75,1.64,0,.13-.02.31-.05.53-.02.18-.03.36-.03.53,0,.11-.01.28-.04.51-.03.23-.04.4-.04.51,0,.23-.08.42-.23.57-.15.15-.35.23-.58.23s-.43-.07-.58-.22c-.15-.15-.23-.34-.23-.56,0-.11-.01-.28-.04-.5-.02-.22-.04-.39-.04-.5,0-.38.03-.91.08-1.59s.08-1.21.08-1.59c0-.12,0-.3-.02-.53s-.02-.41-.02-.53c0-.22.08-.41.24-.55s.35-.22.58-.22c.51,0,.79.31.82.92v.06c.58-.57,1.18-.86,1.81-.86.74,0,1.25.31,1.53.93.19.41.28,1.03.28,1.86v.42c0,.18,0,.31,0,.38,0,.3.04.7.13,1.18s.13.87.13,1.17c0,.22-.08.4-.23.54s-.35.22-.58.22Z"/><path d="m221.55,298.58c-.16.92-.26,1.89-.29,2.91-.04,1.26-.25,2.18-.63,2.75-.51.76-1.42,1.14-2.72,1.14-1.52,0-2.28-.3-2.28-.9,0-.21.07-.39.21-.52s.32-.2.54-.2c.18,0,.43.03.76.1s.62.1.87.1c.58,0,1.01-.18,1.29-.53.27-.35.42-.9.47-1.66-.2.2-.42.36-.67.46s-.52.15-.82.15c-.78,0-1.41-.25-1.9-.76s-.73-1.15-.73-1.94c0-1.06.32-1.92.97-2.58.67-.68,1.58-1.02,2.72-1.02.37,0,.68.04.95.13s.48.23.64.41c.5.06.74.35.74.88,0,.26-.04.62-.12,1.08Zm-2.27-1.17c-.66,0-1.17.22-1.54.65-.33.39-.49.91-.49,1.54,0,.46.09.81.26,1.05s.44.35.79.35c.32,0,.64-.19.97-.56.3-.35.48-.7.52-1.04.07-.38.16-.96.26-1.75-.13-.08-.26-.14-.39-.18s-.25-.06-.38-.06Z"/><path d="m227.75,298.73c-.94.81-1.93,1.52-2.95,2.12-.14.09-.29.13-.43.13-.21,0-.39-.07-.54-.22-.15-.15-.22-.31-.22-.5,0-.21.11-.4.32-.55.46-.31,1.13-.78,2.03-1.42-.45-.32-.88-.68-1.29-1.08-.52-.49-.79-.84-.79-1.04s.08-.36.24-.49c.16-.14.34-.21.54-.21s.4.09.57.26c.88.9,1.66,1.51,2.35,1.85.32.15.47.35.47.6,0,.19-.1.37-.3.54Z"/><path d="m57.65,336.59c-.33.32-.85.79-1.54,1.4.29.29.75.7,1.37,1.24.2.16.29.33.29.53s-.08.35-.23.5-.33.21-.54.21c-.22,0-.49-.14-.82-.42l-.68-.66c-.36-.35-.71-.58-1.04-.7-.39-.14-.59-.35-.59-.65,0-.27.18-.48.53-.64s.74-.44,1.17-.85c.59-.57.94-.9,1.06-.99.16-.12.33-.18.5-.18.21,0,.39.07.54.21s.23.3.23.49-.08.35-.25.5Z"/><path d="m65.63,333.18c-.15.33-.37.84-.66,1.52-.27.69-.64,1.49-1.12,2.4-.43.77-.85,1.55-1.28,2.33-.08.16-.44.9-1.06,2.24-.14.31-.37.46-.69.46-.2,0-.38-.06-.53-.19-.16-.14-.25-.31-.25-.52,0-.09.02-.18.05-.27.31-.8.88-1.96,1.73-3.47s1.42-2.67,1.73-3.48c.23-.61.41-1.03.52-1.25.3-.6.59-.89.86-.88.2,0,.38.08.53.21.16.14.25.31.25.51,0,.12-.03.25-.08.39Z"/><path d="m69.23,341.95c-.34,0-.69-.04-1.06-.12v2.39c0,.23-.08.41-.23.56s-.35.22-.58.22-.43-.07-.58-.22-.23-.34-.23-.56c0-.18,0-.91.01-2.19,0-.95,0-1.72,0-2.31-.01-.84-.04-1.57-.08-2.18-.06-.84-.09-1.22-.09-1.15,0-.32.07-.6.22-.83.17-.26.39-.39.68-.39.22,0,.4.07.55.22s.22.33.22.53v.06c.26-.15.52-.26.78-.33s.53-.11.79-.11c.9,0,1.55.38,1.97,1.14.31.57.46,1.32.46,2.23,0,.86-.24,1.56-.73,2.13-.52.61-1.22.91-2.1.91Zm.4-4.85c-.25,0-.5.06-.75.17s-.51.29-.77.52c.05.8.07,1.61.07,2.42.35.11.7.17,1.04.17.4,0,.71-.14.93-.43.2-.26.29-.61.29-1.04,0-.53-.02-.89-.07-1.1-.11-.48-.36-.71-.74-.71Z"/><path d="m78.2,338.26c-.94.81-1.93,1.52-2.95,2.12-.14.09-.29.13-.43.13-.21,0-.39-.07-.54-.22s-.22-.31-.22-.5c0-.21.11-.4.32-.55.46-.31,1.13-.78,2.03-1.42-.45-.32-.88-.68-1.29-1.08-.52-.49-.79-.84-.79-1.04s.08-.36.24-.49.34-.21.54-.21.4.09.57.26c.88.9,1.66,1.51,2.35,1.85.32.15.47.35.47.6,0,.19-.1.37-.3.54Z"/><path d="m41.21,167.01c-.33.32-.85.79-1.54,1.4.29.29.75.7,1.37,1.24.2.16.29.33.29.53s-.08.35-.23.5c-.15.14-.33.21-.54.21-.22,0-.49-.14-.82-.42l-.68-.66c-.36-.35-.71-.58-1.04-.7-.39-.14-.59-.35-.59-.65,0-.27.18-.48.53-.64s.74-.44,1.17-.85c.59-.57.94-.9,1.06-.99.16-.12.33-.18.5-.18.21,0,.39.07.54.21.15.14.23.3.23.49s-.08.35-.25.5Z"/><path d="m48.23,166.13c.05-1.33.11-2.25.18-2.76.07-.46.32-.69.76-.69.23,0,.42.08.56.22.14.15.21.33.21.55,0,.57-.04,1.42-.13,2.56-.09,1.13-.13,1.98-.13,2.56,0,1.4.04,2.33.13,2.8.01.06.02.12.02.17,0,.22-.08.4-.23.54s-.34.21-.54.21c-.29,0-.5-.13-.64-.39-.27.16-.54.26-.83.31s-.58.07-.88.07c-.88,0-1.6-.28-2.18-.84-.59-.57-.88-1.3-.88-2.18,0-1.05.3-1.9.89-2.55s1.37-.97,2.33-.97c.29,0,.55.03.79.09s.43.16.6.28Zm-.12,1.85c-.13-.25-.3-.43-.5-.55s-.45-.18-.74-.18c-.58,0-1.01.17-1.3.5s-.43.83-.43,1.5c0,.42.16.78.47,1.08s.68.45,1.09.45c.3,0,.53-.04.69-.11.11-.05.29-.17.54-.38.07-.05.13-.12.19-.18,0-.19,0-.9,0-2.14Z"/><path d="m52.83,169.27c0,.22,0,.58.02,1.07s.02.85.02,1.07-.08.41-.23.56-.35.22-.58.22-.43-.07-.58-.22-.23-.33-.23-.56,0-.58-.02-1.07-.02-.85-.02-1.07c0-.35.02-.78.06-1.31s.06-.96.06-1.31c0-.23.08-.41.23-.56s.35-.22.58-.22.43.07.58.22.23.33.23.56c0,.35-.02.78-.06,1.31s-.06.96-.06,1.31Zm-.5-4.29c-.25,0-.47-.08-.65-.25s-.28-.37-.28-.62.09-.45.28-.62.4-.25.65-.25.47.08.65.25.27.37.27.62-.09.45-.27.62-.4.25-.65.25Z"/><path d="m57.5,171.59c-.02.2-.1.36-.24.48s-.31.19-.52.19c-.39,0-.67-.2-.84-.61-.42-1.05-1.07-2.63-1.94-4.72-.05-.12-.08-.23-.08-.33,0-.21.08-.39.25-.54s.36-.22.58-.22c.34,0,.58.15.72.46.22.47.66,1.58,1.3,3.32.21-.44.49-1.11.86-2.02.11-.3.28-.72.51-1.26.16-.31.4-.47.73-.47.22,0,.41.07.58.22s.25.32.25.54c0,.14-.32.91-.95,2.32-.52,1.15-.92,2.03-1.22,2.64Z"/><path d="m65.45,168.68c-.94.81-1.93,1.52-2.95,2.12-.14.09-.29.13-.43.13-.21,0-.39-.07-.54-.22-.15-.15-.22-.31-.22-.5,0-.21.11-.4.32-.55.46-.31,1.13-.78,2.03-1.42-.45-.32-.88-.68-1.29-1.08-.52-.49-.79-.84-.79-1.04s.08-.36.24-.49c.16-.14.34-.21.54-.21s.4.09.57.26c.88.9,1.66,1.51,2.35,1.85.32.15.47.35.47.6,0,.19-.1.37-.3.54Z"/><path d="m41.21,478.09c-.33.32-.85.79-1.54,1.41.29.29.75.7,1.37,1.24.2.16.29.33.29.53s-.08.35-.23.5c-.15.14-.33.21-.54.21-.22,0-.49-.14-.82-.42l-.68-.66c-.36-.35-.71-.58-1.04-.7-.39-.14-.59-.35-.59-.65,0-.27.18-.48.53-.63s.74-.44,1.17-.85c.59-.57.94-.9,1.06-.99.16-.12.33-.18.5-.18.21,0,.39.07.54.21s.23.3.23.49-.08.35-.25.5Z"/><path d="m49.19,474.69c-.15.33-.37.84-.66,1.52-.27.69-.64,1.49-1.12,2.4-.43.77-.85,1.55-1.28,2.33-.08.16-.44.9-1.06,2.24-.14.31-.37.46-.69.46-.2,0-.38-.06-.53-.19-.16-.14-.25-.31-.25-.52,0-.09.02-.18.05-.27.31-.8.88-1.96,1.73-3.46s1.42-2.67,1.73-3.48c.23-.61.41-1.03.52-1.25.3-.6.59-.89.86-.88.2,0,.38.08.53.21.16.14.25.31.25.51,0,.12-.03.25-.08.39Z"/><path d="m54.37,477.22c.05-1.33.11-2.25.18-2.76.07-.46.32-.69.76-.69.23,0,.42.08.56.22.14.15.21.33.21.55,0,.57-.04,1.42-.13,2.56-.09,1.13-.13,1.98-.13,2.56,0,1.4.04,2.33.13,2.8.01.06.02.12.02.17,0,.22-.08.4-.23.54-.16.14-.34.21-.54.21-.29,0-.5-.13-.64-.39-.27.16-.54.27-.83.31s-.58.07-.88.07c-.88,0-1.6-.28-2.18-.84-.59-.57-.88-1.3-.88-2.18,0-1.05.3-1.9.89-2.54s1.37-.97,2.33-.97c.29,0,.55.03.79.09s.43.16.6.28Zm-.12,1.85c-.13-.25-.3-.43-.5-.55s-.45-.18-.74-.18c-.58,0-1.01.17-1.3.5s-.43.83-.43,1.5c0,.42.16.78.47,1.08s.68.45,1.09.45c.3,0,.53-.04.69-.11.11-.05.29-.17.54-.38.07-.05.13-.12.19-.18,0-.19,0-.9,0-2.14Z"/><path d="m58.97,480.36c0,.22,0,.58.02,1.07s.02.85.02,1.07-.08.41-.23.56-.35.22-.58.22-.43-.07-.58-.22-.23-.33-.23-.56,0-.58-.02-1.07-.02-.85-.02-1.07c0-.35.02-.78.06-1.31s.06-.96.06-1.31c0-.23.08-.41.23-.56s.35-.22.58-.22.43.07.58.22.23.33.23.56c0,.35-.02.78-.06,1.31s-.06.96-.06,1.31Zm-.5-4.29c-.25,0-.47-.08-.65-.25s-.28-.37-.28-.62.09-.45.28-.62.4-.25.65-.25.47.08.65.25.27.37.27.62-.09.45-.27.62-.4.25-.65.25Z"/><path d="m63.64,482.68c-.02.2-.1.36-.24.48s-.31.19-.52.19c-.39,0-.67-.2-.84-.61-.42-1.05-1.07-2.63-1.94-4.72-.05-.12-.08-.23-.08-.33,0-.21.08-.39.25-.54s.36-.22.58-.22c.34,0,.58.15.72.46.22.47.66,1.58,1.3,3.32.21-.44.49-1.11.86-2.02.11-.3.28-.72.51-1.26.16-.31.4-.47.73-.47.22,0,.41.07.58.22s.25.32.25.54c0,.14-.32.91-.95,2.32-.52,1.15-.92,2.03-1.22,2.64Z"/><path d="m71.59,479.77c-.94.81-1.93,1.52-2.95,2.12-.14.09-.29.13-.43.13-.21,0-.39-.07-.54-.22s-.22-.31-.22-.5c0-.21.11-.4.32-.55.46-.31,1.13-.78,2.03-1.42-.45-.32-.88-.68-1.29-1.08-.52-.49-.79-.84-.79-1.04s.08-.36.24-.49c.16-.14.34-.21.54-.21s.4.09.57.26c.88.9,1.66,1.51,2.35,1.85.32.15.47.35.47.6,0,.19-.1.37-.3.54Z"/><path d="m404.51,134.37c-.33.32-.85.79-1.54,1.4.29.29.75.7,1.37,1.24.2.16.29.33.29.53s-.08.35-.23.5c-.15.14-.33.21-.54.21-.22,0-.49-.14-.82-.42l-.68-.66c-.36-.35-.71-.58-1.04-.7-.39-.14-.59-.35-.59-.65,0-.27.18-.48.53-.64s.74-.44,1.17-.85c.59-.57.94-.9,1.06-.99.16-.12.33-.18.5-.18.21,0,.39.07.54.21.15.14.23.3.23.49s-.08.35-.25.5Z"/><path d="m412.5,130.96c-.15.33-.37.84-.66,1.52-.27.69-.64,1.49-1.12,2.4-.43.77-.85,1.55-1.28,2.33-.08.16-.44.9-1.06,2.24-.14.31-.37.46-.69.46-.2,0-.38-.06-.53-.19-.16-.14-.25-.31-.25-.52,0-.09.02-.18.05-.27.31-.8.88-1.96,1.73-3.47s1.42-2.67,1.73-3.48c.23-.61.41-1.03.52-1.25.3-.6.59-.89.86-.88.2,0,.38.08.53.21.16.14.25.31.25.51,0,.12-.03.25-.08.39Z"/><path d="m415.13,134.02c.29-.28.59-.49.92-.63s.67-.21,1.05-.21c.67,0,1.15.19,1.44.56.22.28.35.71.4,1.29.02.48.04.96.06,1.45.06.63.1,1.01.12,1.15.05.43.12.81.2,1.14.02.08.03.15.03.22,0,.22-.08.4-.25.54s-.36.21-.58.21c-.39,0-.65-.2-.77-.59-.09-.32-.18-.76-.26-1.34-.07-.55-.11-1-.11-1.36,0-.1,0-.25.01-.44s.01-.34.01-.44c0-.29,0-.46-.01-.5-.04-.21-.14-.32-.3-.32-.43,0-.83.2-1.18.6-.18.2-.43.58-.74,1.14,0,1.41-.07,2.27-.21,2.55-.15.32-.39.48-.73.48-.22,0-.41-.07-.58-.22s-.25-.33-.25-.54c0-.07.02-.18.06-.31.03-.09.05-.61.07-1.58-.02-.79-.02-2.09.01-3.92v-.19c.04-.46.05-.77.05-.93,0-.12-.02-.3-.06-.54s-.06-.42-.06-.54c0-.22.08-.41.24-.55s.35-.21.58-.21c.39,0,.65.21.78.62.07.23.11.59.11,1.08,0,.39-.01.79-.04,1.19-.02.38-.04.76-.04,1.14Z"/><path d="m424.54,139.39h-2.33c-.74,0-1.11-.24-1.11-.7,0-.52.41-.79,1.24-.79.08,0,.16,0,.26,0v-5.2c-.34.23-.56.35-.66.35-.22,0-.41-.08-.57-.23s-.24-.34-.24-.54.13-.44.39-.66l.66-.48.71-.57c.29-.21.58-.32.85-.32.35,0,.53.21.53.63,0,.46-.02,1.12-.06,1.96s-.06,2.05-.06,3.62v1.42h.39c.23,0,.42.07.57.22s.23.32.23.54-.08.39-.23.54-.34.22-.57.22Z"/><path d="m432.91,136.04c-.94.81-1.93,1.52-2.95,2.12-.14.09-.29.13-.43.13-.21,0-.39-.07-.54-.22-.15-.15-.22-.31-.22-.5,0-.21.11-.4.32-.55.46-.31,1.13-.78,2.03-1.42-.45-.32-.88-.68-1.29-1.08-.52-.49-.79-.84-.79-1.04s.08-.36.24-.49c.16-.14.34-.21.54-.21s.4.09.57.26c.88.9,1.66,1.51,2.35,1.85.32.15.47.35.47.6,0,.19-.1.37-.3.54Z"/><path d="m28.77,504.7c-.33.32-.85.79-1.54,1.41.29.29.75.7,1.37,1.24.2.16.29.33.29.53s-.08.35-.23.5c-.15.14-.33.21-.54.21-.22,0-.49-.14-.82-.42l-.68-.66c-.36-.35-.71-.58-1.04-.7-.39-.14-.59-.35-.59-.65,0-.27.18-.48.53-.64s.74-.44,1.17-.85c.59-.57.94-.9,1.06-.99.16-.12.33-.18.5-.18.21,0,.39.07.54.21.15.14.23.3.23.49s-.08.35-.25.5Z"/><path d="m36.76,501.3c-.15.33-.37.84-.66,1.52-.27.69-.64,1.49-1.12,2.4-.43.77-.85,1.55-1.28,2.33-.08.16-.44.9-1.06,2.24-.14.31-.37.46-.69.46-.2,0-.38-.06-.53-.19-.16-.14-.25-.31-.25-.52,0-.09.02-.18.05-.27.31-.8.88-1.96,1.73-3.47s1.42-2.67,1.73-3.48c.23-.61.41-1.03.52-1.25.3-.6.59-.89.86-.88.2,0,.38.08.53.21.16.14.25.31.25.51,0,.12-.03.25-.08.39Z"/><path d="m40.43,509.97c-.55,0-1.07-.1-1.56-.29-.14.14-.32.22-.53.22s-.39-.07-.54-.21-.23-.32-.23-.53c0-.09,0-.24.02-.43s.02-.34.02-.43v-6.64c0-.28.06-.53.19-.75.16-.28.38-.42.67-.42.42,0,.63.23.63.68,0,.05,0,.13-.02.24s-.02.19-.02.24v2.24c.29-.16.57-.28.83-.36s.52-.12.77-.12c.92,0,1.66.33,2.23,1,.53.62.79,1.38.79,2.27s-.31,1.67-.92,2.3c-.62.64-1.4.97-2.32.97Zm.22-5.04c-.2,0-.44.06-.7.18s-.56.29-.9.53c0,.37,0,1.2,0,2.49.54.23.99.35,1.38.35.5,0,.9-.17,1.22-.5s.48-.75.48-1.26-.13-.93-.39-1.26c-.27-.34-.64-.52-1.09-.52Z"/><path d="m47.18,510.07c-.72,0-1.34-.25-1.86-.74-.57-.54-.87-1.27-.9-2.17-.03-.86.21-1.63.71-2.31.59-.8,1.42-1.2,2.48-1.2.78,0,1.4.31,1.86.94.41.56.62,1.26.62,2.09,0,.91-.24,1.68-.73,2.32-.54.71-1.27,1.07-2.19,1.07Zm.35-4.88c-.48,0-.86.21-1.14.66-.23.37-.35.8-.35,1.3,0,.47.13.83.4,1.08.21.2.46.3.74.3.34,0,.63-.12.88-.35.29-.27.44-.63.46-1.1.05-1.26-.28-1.89-.99-1.89Z"/><path d="m55.37,503.83c.05-1.33.11-2.25.18-2.76.07-.46.32-.69.76-.69.23,0,.42.08.56.22.14.15.21.33.21.55,0,.57-.04,1.42-.13,2.56s-.13,1.98-.13,2.56c0,1.4.04,2.33.13,2.8.01.06.02.12.02.17,0,.22-.08.4-.23.54-.16.14-.34.21-.54.21-.29,0-.5-.13-.64-.39-.27.16-.54.26-.83.31s-.58.07-.88.07c-.88,0-1.6-.28-2.18-.84-.59-.57-.88-1.3-.88-2.18,0-1.05.3-1.9.89-2.55s1.37-.97,2.33-.97c.29,0,.55.03.79.09s.43.16.6.28Zm-.12,1.85c-.13-.25-.3-.43-.5-.55s-.45-.18-.74-.18c-.58,0-1.01.17-1.3.5s-.43.83-.43,1.5c0,.42.16.78.47,1.08s.68.45,1.09.45c.3,0,.53-.04.69-.11.11-.05.29-.17.54-.38.07-.05.13-.12.19-.18,0-.19,0-.9,0-2.14Z"/><path d="m63.95,504.77c-.43.89-1.1,2.28-2.02,4.18-.5,1.02-.88,1.87-1.14,2.54-.08.24-.21.6-.39,1.08-.14.37-.39.55-.75.55-.22,0-.42-.07-.59-.22s-.25-.33-.25-.54c0-.36.41-1.44,1.24-3.23-.43-.85-1.11-2.1-2.04-3.74-.09-.15-.19-.3-.29-.45-.11-.18-.16-.34-.16-.49,0-.21.08-.4.25-.56s.36-.24.58-.24c.26,0,.46.1.6.29.55.74,1.2,1.85,1.94,3.33.42-.93.67-1.48.76-1.68.28-.58.55-1.09.81-1.54.17-.28.4-.42.69-.42.22,0,.41.07.59.22s.26.33.26.54c0,.11-.03.24-.1.38Z"/><path d="m70.02,506.38c-.94.81-1.93,1.52-2.95,2.12-.14.09-.29.13-.43.13-.21,0-.39-.07-.54-.22-.15-.15-.22-.31-.22-.5,0-.21.11-.4.32-.55.46-.31,1.13-.78,2.03-1.42-.45-.32-.88-.68-1.29-1.08-.52-.49-.79-.84-.79-1.04s.08-.36.24-.49c.16-.14.34-.21.54-.21s.4.09.57.26c.88.9,1.66,1.51,2.35,1.85.32.15.47.35.47.6,0,.19-.1.37-.3.54Z"/><path d="m28.77,75.29c-.33.32-.85.79-1.54,1.4.29.29.75.7,1.37,1.24.2.16.29.33.29.53s-.08.35-.23.5c-.15.14-.33.21-.54.21-.22,0-.49-.14-.82-.42l-.68-.66c-.36-.35-.71-.58-1.04-.7-.39-.14-.59-.35-.59-.65,0-.27.18-.48.53-.64s.74-.44,1.17-.85c.59-.57.94-.9,1.06-.99.16-.12.33-.18.5-.18.21,0,.39.07.54.21.15.14.23.3.23.49s-.08.35-.25.5Z"/><path d="m36.76,71.88c-.15.33-.37.84-.66,1.52-.27.69-.64,1.49-1.12,2.4-.43.77-.85,1.55-1.28,2.33-.08.16-.44.9-1.06,2.24-.14.31-.37.46-.69.46-.2,0-.38-.06-.53-.19-.16-.14-.25-.31-.25-.52,0-.09.02-.18.05-.27.31-.8.88-1.96,1.73-3.47s1.42-2.67,1.73-3.48c.23-.61.41-1.03.52-1.25.3-.6.59-.89.86-.88.2,0,.38.08.53.21.16.14.25.31.25.51,0,.12-.03.25-.08.39Z"/><path d="m39.39,74.94c.29-.28.59-.49.92-.63s.67-.21,1.05-.21c.67,0,1.15.19,1.44.56.22.28.35.71.4,1.29.02.48.04.96.06,1.45.06.63.1,1.01.12,1.15.05.43.12.81.2,1.14.02.08.03.15.03.22,0,.22-.08.4-.25.54s-.36.21-.58.21c-.39,0-.65-.2-.77-.59-.09-.32-.18-.76-.26-1.34-.07-.55-.11-1-.11-1.36,0-.1,0-.25.01-.44s.01-.34.01-.44c0-.29,0-.46-.01-.5-.04-.21-.14-.32-.3-.32-.43,0-.83.2-1.18.6-.18.2-.43.58-.74,1.14,0,1.41-.07,2.27-.21,2.55-.15.32-.39.48-.73.48-.22,0-.41-.07-.58-.22s-.25-.33-.25-.54c0-.07.02-.18.06-.31.03-.09.05-.61.07-1.58-.02-.79-.02-2.09.01-3.92v-.19c.04-.46.05-.77.05-.93,0-.12-.02-.3-.06-.54s-.06-.42-.06-.54c0-.22.08-.41.24-.55s.35-.21.58-.21c.39,0,.65.21.78.62.07.23.11.59.11,1.08,0,.39-.01.79-.04,1.19-.02.38-.04.76-.04,1.14Z"/><path d="m47.53,80.57c-.93,0-1.7-.22-2.29-.67-.66-.49-.98-1.19-.98-2.08,0-.99.26-1.82.78-2.51.58-.76,1.36-1.14,2.34-1.14.68,0,1.24.11,1.69.33.59.29.88.74.88,1.35,0,.43-.24.81-.72,1.14-.22.15-.66.38-1.32.67l-1.97.87c.19.2.41.36.68.46s.57.15.91.15c.52,0,.97-.11,1.33-.32.32-.19.58-.29.78-.29.41,0,.61.2.61.59,0,.45-.33.81-.98,1.09-.55.23-1.13.35-1.74.35Zm-.16-4.97c-.36,0-.67.12-.93.36s-.46.61-.62,1.09c.44-.19.88-.38,1.32-.57.53-.24.95-.46,1.26-.66-.26-.15-.6-.22-1.03-.22Z"/><path d="m56.34,80.63c-.18,0-.46-.17-.86-.52-.36.17-.68.3-.95.39s-.51.13-.7.13c-.94,0-1.65-.25-2.12-.76s-.71-1.26-.71-2.26c0-.94.35-1.75,1.04-2.42s1.53-1,2.5-1c.37,0,.8.1,1.29.31.59.25.88.54.88.88,0,.14-.04.26-.13.37-.04.15-.07.35-.09.58-.02.23-.03.51-.03.82,0,.74.05,1.27.16,1.6.01.03.1.24.27.6.15.33.23.52.23.57,0,.2-.08.38-.24.51s-.34.2-.55.2Zm-1.45-3.96c0-.12,0-.27.03-.43s.04-.34.08-.54c-.08-.04-.15-.07-.21-.08s-.11-.03-.16-.03c-.53,0-1,.21-1.39.62s-.6.9-.6,1.44.09.92.28,1.18.47.4.84.4c.24,0,.47-.04.69-.12s.42-.2.61-.35c-.12-.93-.18-1.62-.18-2.09Z"/><path d="m62.24,74.41c.05-1.33.11-2.25.18-2.76.07-.46.32-.69.76-.69.23,0,.42.08.56.22.14.15.21.33.21.55,0,.57-.04,1.42-.13,2.56-.09,1.13-.13,1.98-.13,2.56,0,1.4.04,2.33.13,2.8.01.06.02.12.02.17,0,.22-.08.4-.23.54s-.34.21-.54.21c-.29,0-.5-.13-.64-.39-.27.16-.54.26-.83.31s-.58.07-.88.07c-.88,0-1.6-.28-2.18-.84-.59-.57-.88-1.3-.88-2.18,0-1.05.3-1.9.89-2.55s1.37-.97,2.33-.97c.29,0,.55.03.79.09s.43.16.6.28Zm-.12,1.85c-.13-.25-.3-.43-.5-.55s-.45-.18-.74-.18c-.58,0-1.01.17-1.3.5s-.43.83-.43,1.5c0,.42.16.78.47,1.08s.68.45,1.09.45c.3,0,.53-.04.69-.11.11-.05.29-.17.54-.38.07-.05.13-.12.19-.18,0-.19,0-.9,0-2.14Z"/><path d="m70.27,76.96c-.94.81-1.93,1.52-2.95,2.12-.14.09-.29.13-.43.13-.21,0-.39-.07-.54-.22-.15-.15-.22-.31-.22-.5,0-.21.11-.4.32-.55.46-.31,1.13-.78,2.03-1.42-.45-.32-.88-.68-1.29-1.08-.52-.49-.79-.84-.79-1.04s.08-.36.24-.49c.16-.14.34-.21.54-.21s.4.09.57.26c.88.9,1.66,1.51,2.35,1.85.32.15.47.35.47.6,0,.19-.1.37-.3.54Z"/><path d="m18.97,530.14c-.33.32-.85.79-1.54,1.41.29.29.75.7,1.37,1.24.2.16.29.33.29.53s-.08.35-.23.5c-.15.14-.33.21-.54.21-.22,0-.49-.14-.82-.42l-.68-.66c-.36-.35-.71-.58-1.04-.7-.39-.14-.59-.35-.59-.65,0-.27.18-.48.53-.64s.74-.44,1.17-.85c.59-.57.94-.9,1.06-.99.16-.12.33-.18.5-.18.21,0,.39.07.54.21s.23.3.23.49-.08.35-.25.5Z"/><path d="m26.96,526.73c-.15.33-.37.84-.66,1.52-.27.69-.64,1.49-1.12,2.4-.43.77-.85,1.55-1.28,2.33-.08.16-.44.9-1.06,2.24-.14.31-.37.46-.69.46-.2,0-.38-.06-.53-.19-.16-.14-.25-.31-.25-.52,0-.09.02-.18.05-.27.31-.8.88-1.96,1.73-3.47s1.42-2.67,1.73-3.48c.23-.61.41-1.03.52-1.25.3-.6.59-.89.86-.88.2,0,.38.08.53.21.16.14.25.31.25.51,0,.12-.03.25-.08.39Z"/><path d="m29.59,529.8c.29-.28.59-.49.92-.63s.67-.21,1.05-.21c.67,0,1.15.19,1.44.56.22.28.35.71.4,1.29.02.48.04.96.06,1.45.06.63.1,1.01.12,1.15.05.43.12.81.2,1.14.02.08.03.15.03.22,0,.22-.08.4-.25.54s-.36.21-.58.21c-.39,0-.65-.2-.77-.59-.09-.32-.18-.76-.26-1.34-.07-.55-.11-1-.11-1.36,0-.1,0-.25.01-.44s.01-.34.01-.44c0-.29,0-.46-.01-.5-.04-.21-.14-.32-.3-.32-.43,0-.83.2-1.18.6-.18.2-.43.58-.74,1.14,0,1.41-.07,2.27-.21,2.55-.15.32-.39.48-.73.48-.22,0-.41-.07-.58-.22s-.25-.33-.25-.54c0-.07.02-.18.06-.31.03-.09.05-.61.07-1.58-.02-.79-.02-2.09.01-3.92v-.19c.04-.46.05-.77.05-.93,0-.12-.02-.3-.06-.54s-.06-.42-.06-.54c0-.22.08-.41.24-.55s.35-.21.58-.21c.39,0,.65.21.78.62.07.23.11.59.11,1.08,0,.39-.01.79-.04,1.19-.02.38-.04.76-.04,1.14Z"/><path d="m38.92,530.44c-.08,0-.18,0-.29,0s-.21,0-.29,0c-.16,0-.35.02-.56.05.07,1.58.11,2.61.11,3.09,0,.05,0,.15,0,.28s0,.25,0,.34c0,.9-.28,1.35-.85,1.35-.21,0-.4-.07-.56-.2-.17-.14-.26-.32-.26-.53,0-.14,0-.35.02-.63s.02-.49.02-.63c0-.47-.04-1.48-.11-3.04-.24-.01-.61-.04-1.1-.1s-.74-.31-.74-.76c0-.22.07-.4.22-.56s.34-.23.57-.23c.14,0,.48.02,1,.07,0-.12-.01-.33-.03-.62-.02-.25-.02-.44-.02-.58,0-.22.08-.4.24-.54s.35-.22.58-.22c.58,0,.87.49.87,1.46v.48c.23-.04.43-.05.58-.05.45,0,.76.03.92.09.31.11.47.35.47.71,0,.22-.08.41-.23.56s-.35.22-.58.22Z"/><path d="m41.95,529.97c.59-.68,1.15-1.03,1.68-1.03.6,0,1.04.23,1.32.69.24-.21.5-.37.79-.47s.6-.16.94-.16c.77,0,1.29.38,1.56,1.14.05.16.14.69.25,1.59.11.63.25,1.69.42,3.16.02.22-.06.41-.23.55s-.37.22-.59.22c-.45,0-.71-.22-.79-.67-.07-.4-.14-.97-.22-1.71-.08-.8-.14-1.38-.19-1.71-.11-.7-.24-1.05-.4-1.05-.09,0-.29.09-.62.27s-.55.33-.7.46c0,.45.05,1.09.16,1.92.11.86.16,1.5.16,1.92,0,.22-.08.41-.23.56s-.35.22-.58.22-.43-.07-.58-.22-.23-.33-.23-.56c0-.45-.05-1.1-.14-1.97s-.14-1.52-.14-1.97c0-.25-.02-.45-.06-.6-.45.26-.91.7-1.37,1.31-.02.03-.05.07-.1.12-.02.79-.02,1.41-.02,1.86,0,.11,0,.26-.01.44s-.01.32-.01.41c0,.21-.09.38-.26.5-.16.11-.35.17-.58.17-.33,0-.56-.14-.67-.43-.08-.2-.12-.51-.12-.93v-2.18c0-.2,0-.48-.02-.86s-.02-.66-.02-.86c0-.35.06-.66.19-.94.15-.35.37-.53.64-.53.22,0,.41.08.59.25s.26.36.26.56c0-.08-.02.09-.05.5Z"/><path d="m51.56,534.3c0,.74-.27,1.11-.81,1.11-.23,0-.43-.07-.58-.22s-.23-.34-.23-.57v-8.1c0-.23.08-.41.25-.56.16-.13.35-.2.58-.2s.42.07.57.21.22.32.22.55v7.79Z"/><path d="m58.31,531.82c-.94.81-1.93,1.52-2.95,2.12-.14.09-.29.13-.43.13-.21,0-.39-.07-.54-.22s-.22-.31-.22-.5c0-.21.11-.4.32-.55.46-.31,1.13-.78,2.03-1.42-.45-.32-.88-.68-1.29-1.08-.52-.49-.79-.84-.79-1.04s.08-.36.24-.49c.16-.14.34-.21.54-.21s.4.09.57.26c.88.9,1.66,1.51,2.35,1.85.32.15.47.35.47.6,0,.19-.1.37-.3.54Z"/></g></svg>
