<?xml version="1.0" encoding="UTF-8"?><svg id="b" xmlns="http://www.w3.org/2000/svg" viewBox="0 0 487.56 214.76"><defs><style>.d{stroke:#387eb8;}.d,.e,.f,.g,.h,.i,.j,.k,.l{stroke-width:1.4px;}.d,.e,.f,.g,.h,.i,.j,.k,.l,.m,.n{fill:none;stroke-linecap:round;stroke-miterlimit:10;}.e{stroke:#652d90;}.f{stroke:#33a02c;}.g{stroke:#74a9cf;}.h,.m{stroke:#dd3497;}.i{stroke:#ff8700;}.j{stroke:#999;}.k,.n{stroke:#b58b5b;}.l{stroke:#666;}.o{fill:#e5e5e5;}.p{fill:#ff8700;}.q{fill:#999;}.r{fill:#b58b5b;}.s{fill:#666;}.t{fill:#bfbfbf;}.u{fill:#d9d9d9;}.v{fill:#dd3497;}.w{fill:#652d90;}.x{fill:#387eb8;}.y{fill:#33a02c;}.z{fill:#74a9cf;}.m,.n{stroke-width:.93px;}</style></defs><g id="c"><path class="o" d="m253.05,97.93c0,35.34-28.65,63.98-63.98,63.98s-63.98-28.65-63.98-63.98,28.65-63.98,63.98-63.98,63.98,28.65,63.98,63.98"/><path class="t" d="m170.63,106.69c0,5.72-4.64,10.36-10.35,10.36s-10.36-4.64-10.36-10.36,4.64-10.36,10.36-10.36,10.35,4.64,10.35,10.36"/><path class="t" d="m150.88,89.61c0,5.8-4.7,10.5-10.5,10.5s-10.5-4.7-10.5-10.5,4.7-10.5,10.5-10.5,10.5,4.7,10.5,10.5"/><path class="t" d="m175.67,54.91c0,5.55-4.5,10.05-10.05,10.05s-10.05-4.5-10.05-10.05,4.5-10.05,10.05-10.05,10.05,4.5,10.05,10.05"/><path class="t" d="m176.3,79.43c0,6.4-5.19,11.59-11.59,11.59s-11.59-5.19-11.59-11.59,5.19-11.59,11.59-11.59,11.59,5.19,11.59,11.59"/><path class="t" d="m198.3,95.94c0,6.72-5.44,12.16-12.16,12.16s-12.16-5.44-12.16-12.16,5.44-12.16,12.16-12.16,12.16,5.44,12.16,12.16"/><path class="t" d="m189.72,122.9c0,5.8-4.7,10.5-10.5,10.5s-10.5-4.7-10.5-10.5,4.7-10.5,10.5-10.5,10.5,4.7,10.5,10.5"/><path class="t" d="m165.96,130.93c0,5.72-4.64,10.35-10.36,10.35s-10.35-4.64-10.35-10.35,4.64-10.36,10.35-10.36,10.36,4.64,10.36,10.36"/><path class="t" d="m185,147.35c0,5.15-4.17,9.32-9.32,9.32s-9.32-4.17-9.32-9.32,4.17-9.32,9.32-9.32,9.32,4.17,9.32,9.32"/><path class="u" d="m27.77,42.41H7.22c-4.91,0-6.79,2.37-6.79,5.29s1.88,5.29,6.79,5.29h20.55"/><path class="u" d="m27.77,58.43H7.22c-4.91,0-6.79,2.37-6.79,5.29s1.88,5.29,6.79,5.29h20.55"/><path class="u" d="m27.77,74.46H7.22c-4.91,0-6.79,2.37-6.79,5.29s1.88,5.29,6.79,5.29h20.55"/><path class="u" d="m27.77,107.26H7.22c-4.91,0-6.79,2.37-6.79,5.29s1.88,5.29,6.79,5.29h20.55"/><path class="u" d="m27.49,90.48H6.94c-4.91,0-6.79,2.37-6.79,5.29s1.88,5.29,6.79,5.29h20.55"/><path class="u" d="m27.34,124.18H6.79c-4.91,0-6.79,2.37-6.79,5.29s1.88,5.29,6.79,5.29h20.55"/><path class="u" d="m27.99,141.05H7.44c-4.91,0-6.79,2.37-6.79,5.29s1.88,5.29,6.79,5.29h20.55"/><path class="j" d="m169.95,147.91c-85.75,0-64.61-51.28-85.29-51.28-25.27,0,2.07,33.94-52.02,35.02l-23.43.1"/><path class="f" d="m150.95,135.05c-3.58-2.76-15.35-2.2-21.08-2.2-29.29,0-27.35-36.22-45.21-36.22-25.27,0,2.07,48.86-52.02,49.94l-23.43.1"/><path class="l" d="m135.45,90.1c-10.64-.12-1.38,0-12.61,0-24.18,0-17.5,6.53-38.17,6.53-25.42,0,2.28,30.2-52.02,31.29l-23.43.1"/><path class="d" d="m175.54,126.47c-5.6-1.08-4.46-6.14-14.28-6.14-6.72,0-13.54.05-19.93,0-44.61-.35-36-23.7-56.67-23.7-25.27,0,2.07,16.22-52.02,17.3l-23.43.1"/><path class="g" d="m163.1,83.51c-10.21.68-10.82-7.4-18.02-7.4h-17.59c-22.87,0-22.16,20.51-42.83,20.51-25.27,0,2.07,12.49-52.02,13.57l-23.43.1"/><path class="f" d="m151.85,127.15c-7.81,1.55-15.61,2.26-21.91,2.26-27.71,0-27.17-33.2-45.28-33.2-25.27,0,2.28-.48-52.02,0l-23.43.1"/><path class="g" d="m157.48,76.2c-4.62-.87-4.25-3.25-12.85-3.25h-17.14c-24.51,0-22.16,23.31-42.83,23.31-25.27,0,2.07-33-52.02-34.08l-23.43-.1"/><path class="k" d="m160.25,51.11c-9.32,2.47-16.87,2.26-28.1,2.26-42.58,0-26.83,42.89-47.5,42.89-25.27,0,2.07-48.86-52.02-49.94l-23.43-.1"/><path class="d" d="m174.61,118.64c-4.5.02-4.88-.93-14.29-.93-5.68,0-11.22-.1-19.77,0-35.57.4-35.22-21.45-55.89-21.45-26.94,0,3.06-29.25-52.02-30.36l-23.43-.1"/><path class="k" d="m161.88,59.43c-8.31-3.29-18.49-2.33-29.72-2.33-37.9,0-26.83,39.16-47.5,39.16-31.42,0,4.47-17.1-52.02-18.23l-23.43-.1"/><path class="i" d="m181.14,101.85c-3.74,1.02-6.78,5.6-15.53,5.6h-33.45c-30.77,0-26.82-11.19-47.49-11.19-25.27,0,2.07-46.06-52.02-47.14l-23.43-.1m171.92,43.51c-4.98,1.47-3.54,12.12-15.51,12.12h-33.46c-33.06,0-26.82-8.39-47.49-8.39-25.27,0,2.07-13.42-52.02-14.5l-23.43-.1"/><path class="u" d="m457.86,63.24c0,17.17-13.92,31.08-31.08,31.08s-31.08-13.92-31.08-31.08,13.92-31.08,31.08-31.08,31.08,13.92,31.08,31.08"/><path class="t" d="m198.44,70.19c0,5.34-4.33,9.67-9.67,9.67s-9.66-4.33-9.66-9.67,4.33-9.67,9.66-9.67,9.67,4.33,9.67,9.67"/><path class="p" d="m27.07,47.29c1.17,0,2.11.95,2.11,2.12s-.95,2.11-2.11,2.11-2.11-.95-2.11-2.11.95-2.12,2.11-2.12"/><path class="r" d="m27.07,44.05c1.17,0,2.11.95,2.11,2.11s-.95,2.11-2.11,2.11-2.11-.95-2.11-2.11.95-2.11,2.11-2.11"/><path class="x" d="m27.07,63.69c1.17,0,2.11.95,2.11,2.11s-.95,2.12-2.11,2.12-2.12-.95-2.12-2.12.95-2.11,2.12-2.11"/><path class="z" d="m27.07,59.88c1.17,0,2.11.95,2.11,2.11s-.95,2.11-2.11,2.11-2.11-.95-2.11-2.11.95-2.11,2.11-2.11"/><path class="p" d="m27.07,79.33c1.17,0,2.11.95,2.11,2.11s-.95,2.12-2.11,2.12-2.11-.95-2.11-2.12.95-2.11,2.11-2.11"/><path class="r" d="m27.07,75.81c1.17,0,2.11.95,2.11,2.11s-.95,2.12-2.11,2.12-2.11-.95-2.11-2.12.95-2.11,2.11-2.11"/><path class="x" d="m27.07,111.95c1.17,0,2.11.95,2.11,2.11s-.95,2.11-2.11,2.11-2.11-.95-2.11-2.11.95-2.11,2.11-2.11"/><path class="z" d="m27.07,108.18c1.17,0,2.11.95,2.11,2.11s-.95,2.11-2.11,2.11-2.11-.95-2.11-2.11.95-2.11,2.11-2.11"/><path class="t" d="m211.96,137.66c0,6.34-5.14,11.48-11.48,11.48s-11.48-5.14-11.48-11.48,5.14-11.48,11.48-11.48,11.48,5.14,11.48,11.48"/><path class="t" d="m221.42,77.22c0,5.8-4.7,10.5-10.5,10.5s-10.5-4.7-10.5-10.5,4.7-10.5,10.5-10.5,10.5,4.7,10.5,10.5"/><path class="t" d="m233.51,135.54c0,3.96-3.21,7.16-7.16,7.16s-7.16-3.21-7.16-7.16,3.21-7.16,7.16-7.16,7.16,3.21,7.16,7.16"/><path class="t" d="m245.69,114.61c0,5.95-4.83,10.78-10.78,10.78s-10.78-4.83-10.78-10.78,4.83-10.78,10.78-10.78,10.78,4.83,10.78,10.78"/><path class="k" d="m164.63,56.68c-1.36.32-2.43,1.39-2.75,2.75-.33,1.37.15,2.81,1.23,3.71m-.52-15.15c-1.3.52-2.21,1.72-2.33,3.11-.13,1.4.55,2.76,1.75,3.5"/><path class="l" d="m137.55,86.73c-1.28.56-2.15,1.8-2.22,3.19-.08,1.41.65,2.74,1.87,3.44"/><path class="r" d="m245.96,47.43c0,2.07-1.68,3.74-3.74,3.74s-3.74-1.68-3.74-3.74,1.67-3.74,3.74-3.74,3.74,1.68,3.74,3.74"/><line class="k" x1="242.23" y1="47.5" x2="242.2" y2="57.84"/><path class="v" d="m254.82,51.3c0,2.07-1.67,3.74-3.74,3.74s-3.74-1.68-3.74-3.74,1.68-3.74,3.74-3.74,3.74,1.68,3.74,3.74"/><path class="x" d="m277.52,93.07c0,2.07-1.67,3.74-3.74,3.74s-3.74-1.68-3.74-3.74,1.68-3.74,3.74-3.74,3.74,1.68,3.74,3.74"/><path class="h" d="m167.12,61.17c1.39.18,2.76-.43,3.55-1.59.79-1.16.86-2.68.17-3.91m14.89,8.86c.82-1.14,2.21-1.72,3.59-1.5,1.39.22,2.54,1.21,2.96,2.55m-27.57,7.09c1.31-.49,2.79-.2,3.82.74,1.04.95,1.45,2.42,1.05,3.77m1.44-17.51c2.96,2.78,7.23,1.96,10.52.21m7.83,3.08c.11-3.73,1.25-6.42,7.95-5.85"/><path class="e" d="m251.9,151.65l-3.89-7.85c-1.45-1.18-1.81-2.18-5.67-4.59-6.93-4.32-10.01-5.08-13.73-4.63m9.01-18.82c1.46.53,7.74,6.35,10.4,14.77.35,1.11,2.54,9.2-.96,13.45-1.57,1.9-4.03,2.27-6.24,2.88-9.3,2.55-17,.7-23.17-1.54-5.82-2.11-8.49-3.69-11.88-6.17"/><path class="w" d="m256.32,151.31c0,2.07-1.67,3.74-3.74,3.74s-3.74-1.68-3.74-3.74,1.68-3.74,3.74-3.74,3.74,1.68,3.74,3.74"/><path class="e" d="m205.21,134.92c.89,1.08,1.1,2.57.54,3.85-.56,1.29-1.82,2.15-3.22,2.22m23.74-9.52c1.3.52,2.21,1.72,2.33,3.11.13,1.4-.55,2.76-1.75,3.5m7.9-26.19c1.3.52,2.21,1.72,2.33,3.11.13,1.4-.55,2.76-1.75,3.5"/><path d="m36.83,36.41c0-1.11.3-1.97.89-2.6.59-.63,1.36-.94,2.3-.94.62,0,1.17.15,1.67.44.49.29.87.71,1.13,1.23.26.53.39,1.12.39,1.79s-.14,1.28-.41,1.82c-.27.53-.66.94-1.16,1.21-.5.27-1.04.41-1.62.41-.63,0-1.19-.15-1.68-.46-.49-.3-.87-.72-1.12-1.24-.25-.53-.38-1.08-.38-1.67Zm.91.01c0,.8.22,1.44.65,1.9.43.46.97.69,1.63.69s1.21-.23,1.64-.7c.43-.47.64-1.13.64-1.99,0-.54-.09-1.02-.28-1.42-.18-.4-.45-.72-.81-.94-.35-.22-.75-.33-1.19-.33-.63,0-1.16.21-1.61.64-.45.43-.68,1.15-.68,2.15Z"/><path d="m44.05,37.52l.83-.07c.04.33.13.61.28.82s.37.39.67.52c.3.13.64.2,1.02.2.34,0,.63-.05.89-.15.26-.1.45-.24.58-.41.13-.17.19-.37.19-.57s-.06-.39-.18-.55c-.12-.16-.32-.29-.6-.39-.18-.07-.58-.18-1.19-.33s-1.04-.29-1.29-.42c-.32-.17-.56-.38-.71-.62s-.23-.52-.23-.83c0-.34.1-.65.29-.94.19-.29.47-.52.84-.67s.78-.23,1.22-.23c.49,0,.93.08,1.31.24.38.16.67.39.87.7.2.31.31.66.33,1.05l-.85.06c-.05-.42-.2-.74-.46-.96s-.65-.32-1.16-.32-.92.1-1.17.29c-.24.2-.37.43-.37.71,0,.24.09.44.26.59.17.15.61.31,1.33.48s1.21.3,1.48.43c.39.18.68.41.86.68s.28.59.28.95-.1.69-.31,1c-.2.31-.5.56-.88.73-.38.17-.81.26-1.29.26-.6,0-1.11-.09-1.52-.26s-.73-.44-.96-.79c-.23-.35-.35-.75-.37-1.2Z"/><path d="m50.56,39.66v-6.67h.91l3.51,5.24v-5.24h.85v6.67h-.91l-3.51-5.25v5.25h-.85Z"/><path d="m56.87,38.22l.81-.13c.05.32.17.57.38.75.21.17.5.26.87.26s.66-.08.84-.23c.18-.15.27-.33.27-.54,0-.19-.08-.33-.24-.44-.11-.07-.39-.17-.84-.28-.6-.15-1.02-.28-1.25-.39-.23-.11-.41-.26-.53-.46-.12-.2-.18-.41-.18-.65,0-.22.05-.42.15-.6.1-.18.23-.34.4-.46.13-.09.3-.17.52-.24s.46-.1.71-.1c.38,0,.71.05,1,.16.29.11.5.26.63.44.14.19.23.44.28.75l-.8.11c-.04-.25-.14-.44-.32-.58-.17-.14-.42-.21-.74-.21-.38,0-.65.06-.81.19-.16.12-.24.27-.24.44,0,.11.03.2.1.29.07.09.17.16.31.22.08.03.32.1.72.21.58.15.98.28,1.21.38.23.1.41.24.54.43.13.19.2.42.2.7s-.08.53-.24.77-.39.43-.69.56c-.3.13-.64.2-1.02.2-.63,0-1.11-.13-1.44-.39-.33-.26-.54-.65-.63-1.16Z"/><path d="m259.94,73.36v-6.67h2.52c.44,0,.78.02,1.02.06.33.05.6.16.82.31.22.15.4.37.54.64s.2.58.2.91c0,.57-.18,1.05-.54,1.44-.36.39-1.01.59-1.96.59h-1.71v2.71h-.88Zm.88-3.5h1.73c.57,0,.98-.11,1.22-.32.24-.21.36-.51.36-.9,0-.28-.07-.52-.21-.72-.14-.2-.33-.33-.56-.39-.15-.04-.42-.06-.82-.06h-1.71v2.39Z"/><path d="m266.15,73.36v-6.67h.91l3.51,5.24v-5.24h.85v6.67h-.91l-3.51-5.25v5.25h-.85Z"/><path d="m272.46,71.92l.81-.13c.05.32.17.57.38.75.21.17.5.26.87.26s.66-.08.84-.23c.18-.15.27-.33.27-.54,0-.19-.08-.33-.24-.44-.11-.07-.39-.17-.84-.28-.6-.15-1.02-.28-1.25-.39-.23-.11-.41-.26-.53-.46-.12-.2-.18-.41-.18-.65,0-.22.05-.42.15-.6.1-.18.23-.34.4-.46.13-.09.3-.17.52-.24s.46-.1.71-.1c.38,0,.71.05,1,.16.29.11.5.26.63.44.14.19.23.44.28.75l-.8.11c-.04-.25-.14-.44-.32-.58-.17-.14-.42-.21-.74-.21-.38,0-.65.06-.81.19-.16.12-.24.27-.24.44,0,.11.03.2.1.29.07.09.17.16.31.22.08.03.32.1.72.21.58.15.98.28,1.21.38.23.1.41.24.54.43.13.19.2.42.2.7s-.08.53-.24.77-.39.43-.69.56c-.3.13-.64.2-1.02.2-.63,0-1.11-.13-1.44-.39-.33-.26-.54-.65-.63-1.16Z"/><path d="m256.06,142.9v-6.67h.88v5.89h3.29v.79h-4.17Z"/><path d="m261.28,142.9v-6.67h.91l3.51,5.24v-5.24h.85v6.67h-.91l-3.51-5.25v5.25h-.85Z"/><path d="m267.58,141.46l.81-.13c.05.32.17.57.38.75.21.17.5.26.87.26s.66-.08.84-.23c.18-.15.27-.33.27-.54,0-.19-.08-.33-.24-.44-.11-.07-.39-.17-.84-.28-.6-.15-1.02-.28-1.25-.39-.23-.11-.41-.26-.53-.46-.12-.2-.18-.41-.18-.65,0-.22.05-.42.15-.6.1-.18.23-.34.4-.46.13-.09.3-.17.52-.24s.46-.1.71-.1c.38,0,.71.05,1,.16.29.11.5.26.63.44.14.19.23.44.28.75l-.8.11c-.04-.25-.14-.44-.32-.58-.17-.14-.42-.21-.74-.21-.38,0-.65.06-.81.19-.16.12-.24.27-.24.44,0,.11.03.2.1.29.07.09.17.16.31.22.08.03.32.1.72.21.58.15.98.28,1.21.38.23.1.41.24.54.43.13.19.2.42.2.7s-.08.53-.24.77-.39.43-.69.56c-.3.13-.64.2-1.02.2-.63,0-1.11-.13-1.44-.39-.33-.26-.54-.65-.63-1.16Z"/><path d="m11.62,189.35h-6.56l3.43-7.58,3.12,7.58Zm-1.29-.45l-2.18-5.28-2.4,5.28h4.58Z"/><path d="m14.81,186.1c0-1.11.3-1.97.89-2.6.59-.63,1.36-.94,2.3-.94.62,0,1.17.15,1.67.44.49.29.87.71,1.13,1.23.26.53.39,1.12.39,1.79s-.14,1.28-.41,1.82c-.27.53-.66.94-1.16,1.21-.5.27-1.04.41-1.62.41-.63,0-1.19-.15-1.68-.46-.49-.3-.87-.72-1.12-1.24-.25-.53-.38-1.08-.38-1.67Zm.91.01c0,.8.22,1.44.65,1.9.43.46.97.69,1.63.69s1.21-.23,1.64-.7c.43-.47.64-1.13.64-1.99,0-.54-.09-1.02-.28-1.42-.18-.4-.45-.72-.81-.94-.35-.22-.75-.33-1.19-.33-.63,0-1.16.21-1.61.64-.45.43-.68,1.15-.68,2.15Z"/><path d="m22.03,187.21l.83-.07c.04.33.13.61.28.82s.37.39.67.52c.3.13.64.2,1.02.2.34,0,.63-.05.89-.15.26-.1.45-.24.58-.41.13-.17.19-.37.19-.57s-.06-.39-.18-.55c-.12-.16-.32-.29-.6-.39-.18-.07-.58-.18-1.19-.33s-1.04-.29-1.29-.42c-.32-.17-.56-.38-.71-.62s-.23-.52-.23-.83c0-.34.1-.65.29-.94.19-.29.47-.52.84-.67s.78-.23,1.22-.23c.49,0,.93.08,1.31.24.38.16.67.39.87.7.2.31.31.66.33,1.05l-.85.06c-.05-.42-.2-.74-.46-.96s-.65-.32-1.16-.32-.92.1-1.17.29c-.24.2-.37.43-.37.71,0,.24.09.44.26.59.17.15.61.31,1.33.48s1.21.3,1.48.43c.39.18.68.41.86.68s.28.59.28.95-.1.69-.31,1c-.2.31-.5.56-.88.73-.38.17-.81.26-1.29.26-.6,0-1.11-.09-1.52-.26s-.73-.44-.96-.79c-.23-.35-.35-.75-.37-1.2Z"/><path d="m28.54,189.35v-6.67h.91l3.51,5.24v-5.24h.85v6.67h-.91l-3.51-5.25v5.25h-.85Z"/><path d="m37.77,189.35v-4.83h.74v.69c.36-.53.87-.8,1.54-.8.29,0,.56.05.8.16.24.1.43.24.55.41s.21.37.25.61c.03.15.05.42.05.8v2.97h-.82v-2.94c0-.33-.03-.58-.1-.75-.06-.17-.18-.3-.34-.4-.16-.1-.35-.15-.57-.15-.35,0-.65.11-.9.33-.25.22-.38.64-.38,1.26v2.64h-.82Z"/><path d="m46.12,189.35v-.71c-.38.55-.89.82-1.53.82-.29,0-.55-.05-.8-.16-.25-.11-.43-.25-.55-.41-.12-.17-.2-.37-.25-.61-.03-.16-.05-.42-.05-.76v-3h.82v2.68c0,.43.02.72.05.87.05.21.16.38.33.51.17.12.37.18.62.18s.48-.06.69-.19.37-.3.46-.51.13-.53.13-.94v-2.59h.82v4.83h-.73Z"/><path d="m48.14,189.35v-4.83h.73v.68c.15-.24.35-.43.61-.57.25-.14.54-.22.86-.22.36,0,.65.07.88.22.23.15.39.36.48.62.38-.56.88-.85,1.49-.85.48,0,.85.13,1.11.4.26.27.39.67.39,1.23v3.32h-.81v-3.05c0-.33-.03-.56-.08-.71-.05-.14-.15-.26-.29-.35-.14-.09-.3-.13-.49-.13-.34,0-.62.11-.85.34-.22.23-.34.59-.34,1.08v2.81h-.82v-3.14c0-.36-.07-.64-.2-.82-.13-.18-.35-.27-.66-.27-.23,0-.44.06-.64.18-.2.12-.34.3-.43.53-.09.23-.13.57-.13,1.01v2.51h-.82Z"/><path d="m56.66,189.35h-.76v-6.67h.82v2.38c.35-.43.79-.65,1.32-.65.3,0,.58.06.84.18s.48.29.66.51c.17.22.31.48.4.79s.15.63.15.98c0,.83-.21,1.47-.61,1.92s-.9.68-1.48.68-1.02-.24-1.34-.71v.61Zm0-2.45c0,.58.08,1,.24,1.26.26.42.61.63,1.05.63.36,0,.67-.16.93-.47.26-.31.39-.77.39-1.39s-.12-1.1-.38-1.4c-.25-.3-.55-.45-.91-.45s-.67.16-.93.47c-.26.31-.39.76-.39,1.35Z"/><path d="m64.4,187.8l.85.1c-.13.49-.38.88-.74,1.15-.36.27-.82.41-1.38.41-.71,0-1.27-.22-1.68-.65-.41-.44-.62-1.05-.62-1.83s.21-1.44.63-1.89.96-.67,1.63-.67,1.17.22,1.58.66.61,1.06.61,1.86c0,.05,0,.12,0,.22h-3.61c.03.53.18.94.45,1.22.27.28.61.42,1.01.42.3,0,.56-.08.77-.24.21-.16.38-.41.51-.75Zm-2.69-1.33h2.7c-.04-.41-.14-.71-.31-.92-.26-.32-.6-.47-1.02-.47-.38,0-.69.13-.95.38-.26.25-.4.59-.43,1.01Z"/><path d="m66.27,189.35v-4.83h.74v.73c.19-.34.36-.57.52-.68.16-.11.33-.16.53-.16.28,0,.56.09.84.26l-.28.76c-.2-.12-.4-.18-.6-.18-.18,0-.34.05-.48.16-.14.11-.24.26-.31.45-.09.29-.14.61-.14.96v2.53h-.82Z"/><path d="m11.62,200.54h-6.56l3.43-7.58,3.12,7.58Zm-1.29-.45l-2.18-5.28-2.4,5.28h4.58Z"/><path d="m14.81,197.29c0-1.11.3-1.97.89-2.6.59-.63,1.36-.94,2.3-.94.62,0,1.17.15,1.67.44.49.29.87.71,1.13,1.23.26.53.39,1.12.39,1.79s-.14,1.28-.41,1.82c-.27.53-.66.94-1.16,1.21-.5.27-1.04.41-1.62.41-.63,0-1.19-.15-1.68-.46-.49-.3-.87-.72-1.12-1.24-.25-.53-.38-1.08-.38-1.67Zm.91.01c0,.8.22,1.44.65,1.9.43.46.97.69,1.63.69s1.21-.23,1.64-.7c.43-.47.64-1.13.64-1.99,0-.54-.09-1.02-.28-1.42-.18-.4-.45-.72-.81-.94-.35-.22-.75-.33-1.19-.33-.63,0-1.16.21-1.61.64-.45.43-.68,1.15-.68,2.15Z"/><path d="m22.03,198.4l.83-.07c.04.33.13.61.28.82s.37.39.67.52c.3.13.64.2,1.02.2.34,0,.63-.05.89-.15.26-.1.45-.24.58-.41.13-.17.19-.37.19-.57s-.06-.39-.18-.55c-.12-.16-.32-.29-.6-.39-.18-.07-.58-.18-1.19-.33s-1.04-.29-1.29-.42c-.32-.17-.56-.38-.71-.62s-.23-.52-.23-.83c0-.34.1-.65.29-.94.19-.29.47-.52.84-.67s.78-.23,1.22-.23c.49,0,.93.08,1.31.24.38.16.67.39.87.7.2.31.31.66.33,1.05l-.85.06c-.05-.42-.2-.74-.46-.96s-.65-.32-1.16-.32-.92.1-1.17.29c-.24.2-.37.43-.37.71,0,.24.09.44.26.59.17.15.61.31,1.33.48s1.21.3,1.48.43c.39.18.68.41.86.68s.28.59.28.95-.1.69-.31,1c-.2.31-.5.56-.88.73-.38.17-.81.26-1.29.26-.6,0-1.11-.09-1.52-.26s-.73-.44-.96-.79c-.23-.35-.35-.75-.37-1.2Z"/><path d="m28.54,200.54v-6.67h.91l3.51,5.24v-5.24h.85v6.67h-.91l-3.51-5.25v5.25h-.85Z"/><path d="m39.56,199.81l.12.72c-.23.05-.44.07-.62.07-.3,0-.53-.05-.69-.14-.16-.09-.28-.22-.35-.37-.07-.15-.1-.48-.1-.97v-2.78h-.6v-.64h.6v-1.2l.81-.49v1.69h.82v.64h-.82v2.83c0,.23.01.38.04.45.03.07.08.12.14.16.07.04.16.06.28.06.09,0,.21-.01.36-.03Z"/><path d="m43.53,200.54v-.71c-.38.55-.89.82-1.53.82-.29,0-.55-.05-.8-.16-.25-.11-.43-.25-.55-.41-.12-.17-.2-.37-.25-.61-.03-.16-.05-.42-.05-.76v-3h.82v2.68c0,.43.02.72.05.87.05.21.16.38.33.51.17.12.37.18.62.18s.48-.06.69-.19.37-.3.46-.51.13-.53.13-.94v-2.59h.82v4.83h-.73Z"/><path d="m45.55,200.54v-4.83h.74v.69c.36-.53.87-.8,1.54-.8.29,0,.56.05.8.16.24.1.43.24.55.41s.21.37.25.61c.03.15.05.42.05.8v2.97h-.82v-2.94c0-.33-.03-.58-.1-.75-.06-.17-.18-.3-.34-.4-.16-.1-.35-.15-.57-.15-.35,0-.65.11-.9.33-.25.22-.38.64-.38,1.26v2.64h-.82Z"/><path d="m50.74,194.81v-.94h.82v.94h-.82Zm0,5.73v-4.83h.82v4.83h-.82Z"/><path d="m52.8,200.54v-4.83h.74v.69c.36-.53.87-.8,1.54-.8.29,0,.56.05.8.16.24.1.43.24.55.41s.21.37.25.61c.03.15.05.42.05.8v2.97h-.82v-2.94c0-.33-.03-.58-.1-.75-.06-.17-.18-.3-.34-.4-.16-.1-.35-.15-.57-.15-.35,0-.65.11-.9.33-.25.22-.38.64-.38,1.26v2.64h-.82Z"/><path d="m57.84,200.94l.8.12c.03.25.13.43.28.54.2.15.48.23.83.23.38,0,.67-.08.88-.23.21-.15.35-.36.42-.64.04-.17.06-.52.06-1.05-.36.42-.8.63-1.34.63-.66,0-1.18-.24-1.54-.72-.36-.48-.55-1.05-.55-1.73,0-.46.08-.89.25-1.28.17-.39.41-.69.73-.9.32-.21.69-.32,1.12-.32.57,0,1.04.23,1.41.69v-.58h.76v4.18c0,.75-.08,1.29-.23,1.6-.15.31-.4.56-.73.75-.33.18-.74.27-1.23.27-.58,0-1.04-.13-1.4-.39-.36-.26-.53-.65-.51-1.17Zm.68-2.9c0,.63.13,1.1.38,1.39.25.29.57.44.95.44s.69-.14.95-.43.38-.74.38-1.36-.13-1.04-.39-1.34c-.26-.3-.58-.45-.95-.45s-.67.15-.93.44c-.26.3-.38.74-.38,1.32Z"/><path d="m8.77,209.11v-.78h2.83s0,2.47,0,2.47c-.43.35-.88.61-1.34.78-.46.17-.93.26-1.42.26-.66,0-1.25-.14-1.79-.42-.54-.28-.94-.69-1.21-1.22-.27-.53-.41-1.12-.41-1.78s.14-1.26.41-1.82c.27-.56.66-.98,1.17-1.25.51-.27,1.1-.41,1.76-.41.48,0,.92.08,1.31.23s.7.37.92.65.39.64.51,1.09l-.8.22c-.1-.34-.22-.61-.37-.8-.15-.19-.36-.35-.64-.47-.28-.12-.58-.17-.92-.17-.4,0-.75.06-1.05.18-.29.12-.53.28-.71.48s-.32.42-.42.66c-.17.41-.25.86-.25,1.34,0,.6.1,1.09.31,1.49.2.4.5.7.89.89s.81.29,1.25.29c.38,0,.76-.07,1.12-.22.36-.15.64-.3.83-.47v-1.24h-1.96Z"/><path d="m15.95,211.13c-.3.26-.6.44-.88.55-.28.11-.58.16-.9.16-.53,0-.94-.13-1.23-.39-.29-.26-.43-.59-.43-.99,0-.24.05-.45.16-.65.11-.2.25-.35.42-.47.17-.12.37-.21.59-.27.16-.04.4-.08.73-.12.66-.08,1.15-.17,1.46-.28,0-.11,0-.18,0-.21,0-.33-.08-.57-.23-.71-.21-.19-.52-.28-.93-.28-.39,0-.67.07-.85.2-.18.13-.32.37-.41.72l-.8-.11c.07-.34.19-.62.36-.83.17-.21.41-.37.72-.49.32-.11.68-.17,1.1-.17s.75.05,1.01.15c.26.1.45.22.57.37.12.15.21.33.25.56.03.14.04.39.04.75v1.09c0,.76.02,1.24.05,1.45.03.2.1.39.21.58h-.86c-.08-.17-.14-.37-.16-.6Zm-.07-1.83c-.3.12-.74.22-1.34.31-.34.05-.58.1-.71.16s-.25.15-.32.27c-.08.12-.11.25-.11.39,0,.22.08.4.25.55.17.15.41.22.73.22s.6-.07.84-.21c.25-.14.43-.33.54-.57.09-.19.13-.46.13-.82v-.3Z"/><path d="m17.98,206v-.94h.82v.94h-.82Zm0,5.73v-4.83h.82v4.83h-.82Z"/><path d="m20.05,211.73v-4.83h.74v.69c.36-.53.87-.8,1.54-.8.29,0,.56.05.8.16.24.1.43.24.55.41s.21.37.25.61c.03.15.05.42.05.8v2.97h-.82v-2.94c0-.33-.03-.58-.1-.75-.06-.17-.18-.3-.34-.4-.16-.1-.35-.15-.57-.15-.35,0-.65.11-.9.33-.25.22-.38.64-.38,1.26v2.64h-.82Z"/><path d="m24.62,211.85l1.94-6.9h.66l-1.93,6.9h-.66Z"/><path d="m27.81,211.73v-6.67h.82v6.67h-.82Z"/><path d="m29.59,209.31c0-.89.25-1.56.75-1.99.42-.36.92-.54,1.52-.54.67,0,1.21.22,1.63.65.42.44.63,1.04.63,1.8,0,.62-.09,1.11-.28,1.47s-.46.63-.81.83c-.36.2-.75.3-1.17.3-.68,0-1.22-.22-1.64-.65-.42-.43-.63-1.06-.63-1.88Zm.84,0c0,.62.14,1.08.41,1.39.27.31.61.46,1.02.46s.75-.16,1.02-.46c.27-.31.41-.78.41-1.42,0-.6-.14-1.05-.41-1.36-.27-.31-.61-.46-1.01-.46s-.75.15-1.02.46c-.27.31-.41.77-.41,1.39Z"/><path d="m34.75,210.29l.81-.13c.05.32.17.57.38.75.21.17.5.26.87.26s.66-.08.84-.23c.18-.15.27-.33.27-.54,0-.19-.08-.33-.24-.44-.11-.07-.39-.17-.84-.28-.6-.15-1.02-.28-1.25-.39-.23-.11-.41-.26-.53-.46-.12-.2-.18-.41-.18-.65,0-.22.05-.42.15-.6.1-.18.23-.34.4-.46.13-.09.3-.17.52-.24s.46-.1.71-.1c.38,0,.71.05,1,.16.29.11.5.26.63.44.14.19.23.44.28.75l-.8.11c-.04-.25-.14-.44-.32-.58-.17-.14-.42-.21-.74-.21-.38,0-.65.06-.81.19-.16.12-.24.27-.24.44,0,.11.03.2.1.29.07.09.17.16.31.22.08.03.32.1.72.21.58.15.98.28,1.21.38.23.1.41.24.54.43.13.19.2.42.2.7s-.08.53-.24.77-.39.43-.69.56c-.3.13-.64.2-1.02.2-.63,0-1.11-.13-1.44-.39-.33-.26-.54-.65-.63-1.16Z"/><path d="m39.42,210.29l.81-.13c.05.32.17.57.38.75.21.17.5.26.87.26s.66-.08.84-.23c.18-.15.27-.33.27-.54,0-.19-.08-.33-.24-.44-.11-.07-.39-.17-.84-.28-.6-.15-1.02-.28-1.25-.39-.23-.11-.41-.26-.53-.46-.12-.2-.18-.41-.18-.65,0-.22.05-.42.15-.6.1-.18.23-.34.4-.46.13-.09.3-.17.52-.24s.46-.1.71-.1c.38,0,.71.05,1,.16.29.11.5.26.63.44.14.19.23.44.28.75l-.8.11c-.04-.25-.14-.44-.32-.58-.17-.14-.42-.21-.74-.21-.38,0-.65.06-.81.19-.16.12-.24.27-.24.44,0,.11.03.2.1.29.07.09.17.16.31.22.08.03.32.1.72.21.58.15.98.28,1.21.38.23.1.41.24.54.43.13.19.2.42.2.7s-.08.53-.24.77-.39.43-.69.56c-.3.13-.64.2-1.02.2-.63,0-1.11-.13-1.44-.39-.33-.26-.54-.65-.63-1.16Z"/><path d="m46.69,209.31c0-.89.25-1.56.75-1.99.42-.36.92-.54,1.52-.54.67,0,1.21.22,1.63.65.42.44.63,1.04.63,1.8,0,.62-.09,1.11-.28,1.47s-.46.63-.81.83c-.36.2-.75.3-1.17.3-.68,0-1.22-.22-1.64-.65-.42-.43-.63-1.06-.63-1.88Zm.84,0c0,.62.14,1.08.41,1.39.27.31.61.46,1.02.46s.75-.16,1.02-.46c.27-.31.41-.78.41-1.42,0-.6-.14-1.05-.41-1.36-.27-.31-.61-.46-1.01-.46s-.75.15-1.02.46c-.27.31-.41.77-.41,1.39Z"/><path d="m52.38,211.73v-4.2h-.72v-.64h.72v-.51c0-.33.03-.57.09-.72.08-.21.22-.38.42-.52.2-.13.48-.2.84-.2.23,0,.49.03.76.08l-.12.71c-.17-.03-.33-.05-.48-.05-.25,0-.42.05-.53.16-.1.11-.15.31-.15.6v.45h.94v.64h-.94v4.2h-.81Z"/><path d="m57.2,208.48c0-1.11.3-1.97.89-2.6.59-.63,1.36-.94,2.3-.94.62,0,1.17.15,1.67.44.49.29.87.71,1.13,1.23.26.53.39,1.12.39,1.79s-.14,1.28-.41,1.82c-.27.53-.66.94-1.16,1.21-.5.27-1.04.41-1.62.41-.63,0-1.19-.15-1.68-.46-.49-.3-.87-.72-1.12-1.24-.25-.53-.38-1.08-.38-1.67Zm.91.01c0,.8.22,1.44.65,1.9.43.46.97.69,1.63.69s1.21-.23,1.64-.7c.43-.47.64-1.13.64-1.99,0-.54-.09-1.02-.28-1.42-.18-.4-.45-.72-.81-.94-.35-.22-.75-.33-1.19-.33-.63,0-1.16.21-1.61.64-.45.43-.68,1.15-.68,2.15Z"/><path d="m64.42,209.59l.83-.07c.04.33.13.61.28.82s.37.39.67.52c.3.13.64.2,1.02.2.34,0,.63-.05.89-.15.26-.1.45-.24.58-.41.13-.17.19-.37.19-.57s-.06-.39-.18-.55c-.12-.16-.32-.29-.6-.39-.18-.07-.58-.18-1.19-.33s-1.04-.29-1.29-.42c-.32-.17-.56-.38-.71-.62s-.23-.52-.23-.83c0-.34.1-.65.29-.94.19-.29.47-.52.84-.67s.78-.23,1.22-.23c.49,0,.93.08,1.31.24.38.16.67.39.87.7.2.31.31.66.33,1.05l-.85.06c-.05-.42-.2-.74-.46-.96s-.65-.32-1.16-.32-.92.1-1.17.29c-.24.2-.37.43-.37.71,0,.24.09.44.26.59.17.15.61.31,1.33.48s1.21.3,1.48.43c.39.18.68.41.86.68s.28.59.28.95-.1.69-.31,1c-.2.31-.5.56-.88.73-.38.17-.81.26-1.29.26-.6,0-1.11-.09-1.52-.26s-.73-.44-.96-.79c-.23-.35-.35-.75-.37-1.2Z"/><path d="m70.93,211.73v-6.67h.91l3.51,5.24v-5.24h.85v6.67h-.91l-3.51-5.25v5.25h-.85Z"/><path d="m81.95,211l.12.72c-.23.05-.44.07-.62.07-.3,0-.53-.05-.69-.14-.16-.09-.28-.22-.35-.37-.07-.15-.1-.48-.1-.97v-2.78h-.6v-.64h.6v-1.2l.81-.49v1.69h.82v.64h-.82v2.83c0,.23.01.38.04.45.03.07.08.12.14.16.07.04.16.06.28.06.09,0,.21-.01.36-.03Z"/><path d="m82.71,213.59l-.09-.77c.18.05.33.07.47.07.18,0,.33-.03.44-.09s.2-.15.27-.25c.05-.08.14-.29.25-.61.02-.04.04-.11.07-.2l-1.83-4.84h.88l1.01,2.8c.13.36.25.73.35,1.12.09-.38.21-.74.34-1.1l1.03-2.82h.82l-1.84,4.92c-.2.53-.35.9-.46,1.1-.15.27-.31.47-.5.59-.19.13-.41.19-.67.19-.16,0-.33-.03-.53-.1Z"/><path d="m87.41,213.58v-6.69h.75v.63c.18-.25.38-.43.6-.55.22-.12.49-.18.81-.18.41,0,.78.11,1.09.32.32.21.55.51.71.9.16.39.24.81.24,1.27,0,.5-.09.94-.27,1.34-.18.4-.44.7-.77.91s-.69.32-1.07.32c-.27,0-.52-.06-.74-.17-.22-.12-.4-.26-.54-.44v2.35h-.82Zm.74-4.24c0,.62.13,1.08.38,1.38.25.3.56.45.92.45s.68-.15.94-.46c.26-.31.39-.79.39-1.43s-.13-1.08-.38-1.38-.56-.46-.91-.46-.66.16-.93.49c-.27.33-.4.8-.4,1.42Z"/><path d="m95.91,210.17l.85.1c-.13.49-.38.88-.74,1.15-.36.27-.82.41-1.38.41-.71,0-1.27-.22-1.68-.65-.41-.44-.62-1.05-.62-1.83s.21-1.44.63-1.89.96-.67,1.63-.67,1.17.22,1.58.66.61,1.06.61,1.86c0,.05,0,.12,0,.22h-3.61c.03.53.18.94.45,1.22.27.28.61.42,1.01.42.3,0,.56-.08.77-.24.21-.16.38-.41.51-.75Zm-2.69-1.33h2.7c-.04-.41-.14-.71-.31-.92-.26-.32-.6-.47-1.02-.47-.38,0-.69.13-.95.38-.26.25-.4.59-.43,1.01Z"/><path d="m97.45,210.29l.81-.13c.05.32.17.57.38.75.21.17.5.26.87.26s.66-.08.84-.23c.18-.15.27-.33.27-.54,0-.19-.08-.33-.24-.44-.11-.07-.39-.17-.84-.28-.6-.15-1.02-.28-1.25-.39-.23-.11-.41-.26-.53-.46-.12-.2-.18-.41-.18-.65,0-.22.05-.42.15-.6.1-.18.23-.34.4-.46.13-.09.3-.17.52-.24s.46-.1.71-.1c.38,0,.71.05,1,.16.29.11.5.26.63.44.14.19.23.44.28.75l-.8.11c-.04-.25-.14-.44-.32-.58-.17-.14-.42-.21-.74-.21-.38,0-.65.06-.81.19-.16.12-.24.27-.24.44,0,.11.03.2.1.29.07.09.17.16.31.22.08.03.32.1.72.21.58.15.98.28,1.21.38.23.1.41.24.54.43.13.19.2.42.2.7s-.08.53-.24.77-.39.43-.69.56c-.3.13-.64.2-1.02.2-.63,0-1.11-.13-1.44-.39-.33-.26-.54-.65-.63-1.16Z"/><path d="m141.82,189.35h-5.46l2.86-6.31,2.6,6.31Zm-1.07-.37l-1.82-4.4-2,4.4h3.82Z"/><path d="m145.25,189.35v-6.67h2.52c.44,0,.78.02,1.02.06.33.05.6.16.82.31.22.15.4.37.54.64s.2.58.2.91c0,.57-.18,1.05-.54,1.44-.36.39-1.01.59-1.96.59h-1.71v2.71h-.88Zm.88-3.5h1.73c.57,0,.98-.11,1.22-.32.24-.21.36-.51.36-.9,0-.28-.07-.52-.21-.72-.14-.2-.33-.33-.56-.39-.15-.04-.42-.06-.82-.06h-1.71v2.39Z"/><path d="m151.46,189.35v-6.67h.91l3.51,5.24v-5.24h.85v6.67h-.91l-3.51-5.25v5.25h-.85Z"/><path d="m157.49,189.47l1.94-6.9h.66l-1.93,6.9h-.66Z"/><path d="m160.76,189.35v-6.67h.88v5.89h3.29v.79h-4.17Z"/><path d="m165.97,189.35v-6.67h.91l3.51,5.24v-5.24h.85v6.67h-.91l-3.51-5.25v5.25h-.85Z"/><path d="m175.2,189.35v-4.83h.74v.69c.36-.53.87-.8,1.54-.8.29,0,.56.05.8.16.24.1.43.24.55.41s.21.37.25.61c.03.15.05.42.05.8v2.97h-.82v-2.94c0-.33-.03-.58-.1-.75-.06-.17-.18-.3-.34-.4-.16-.1-.35-.15-.57-.15-.35,0-.65.11-.9.33-.25.22-.38.64-.38,1.26v2.64h-.82Z"/><path d="m183.56,189.35v-.71c-.38.55-.89.82-1.53.82-.29,0-.55-.05-.8-.16-.25-.11-.43-.25-.55-.41-.12-.17-.2-.37-.25-.61-.03-.16-.05-.42-.05-.76v-3h.82v2.68c0,.43.02.72.05.87.05.21.16.38.33.51.17.12.37.18.62.18s.48-.06.69-.19.37-.3.46-.51.13-.53.13-.94v-2.59h.82v4.83h-.73Z"/><path d="m185.57,189.35v-4.83h.73v.68c.15-.24.35-.43.61-.57.25-.14.54-.22.86-.22.36,0,.65.07.88.22.23.15.39.36.48.62.38-.56.88-.85,1.49-.85.48,0,.85.13,1.11.4.26.27.39.67.39,1.23v3.32h-.81v-3.05c0-.33-.03-.56-.08-.71-.05-.14-.15-.26-.29-.35-.14-.09-.3-.13-.49-.13-.34,0-.62.11-.85.34-.22.23-.34.59-.34,1.08v2.81h-.82v-3.14c0-.36-.07-.64-.2-.82-.13-.18-.35-.27-.66-.27-.23,0-.44.06-.64.18-.2.12-.34.3-.43.53-.09.23-.13.57-.13,1.01v2.51h-.82Z"/><path d="m194.1,189.35h-.76v-6.67h.82v2.38c.35-.43.79-.65,1.32-.65.3,0,.58.06.84.18s.48.29.66.51c.17.22.31.48.4.79s.15.63.15.98c0,.83-.21,1.47-.61,1.92s-.9.68-1.48.68-1.02-.24-1.34-.71v.61Zm0-2.45c0,.58.08,1,.24,1.26.26.42.61.63,1.05.63.36,0,.67-.16.93-.47.26-.31.39-.77.39-1.39s-.12-1.1-.38-1.4c-.25-.3-.55-.45-.91-.45s-.67.16-.93.47c-.26.31-.39.76-.39,1.35Z"/><path d="m201.83,187.8l.85.1c-.13.49-.38.88-.74,1.15-.36.27-.82.41-1.38.41-.71,0-1.27-.22-1.68-.65-.41-.44-.62-1.05-.62-1.83s.21-1.44.63-1.89.96-.67,1.63-.67,1.17.22,1.58.66.61,1.06.61,1.86c0,.05,0,.12,0,.22h-3.61c.03.53.18.94.45,1.22.27.28.61.42,1.01.42.3,0,.56-.08.77-.24.21-.16.38-.41.51-.75Zm-2.69-1.33h2.7c-.04-.41-.14-.71-.31-.92-.26-.32-.6-.47-1.02-.47-.38,0-.69.13-.95.38-.26.25-.4.59-.43,1.01Z"/><path d="m203.7,189.35v-4.83h.74v.73c.19-.34.36-.57.52-.68.16-.11.33-.16.53-.16.28,0,.56.09.84.26l-.28.76c-.2-.12-.4-.18-.6-.18-.18,0-.34.05-.48.16-.14.11-.24.26-.31.45-.09.29-.14.61-.14.96v2.53h-.82Z"/><path d="m141.82,200.54h-5.46l2.86-6.31,2.6,6.31Zm-1.07-.37l-1.82-4.4-2,4.4h3.82Z"/><path d="m145.25,200.54v-6.67h2.52c.44,0,.78.02,1.02.06.33.05.6.16.82.31.22.15.4.37.54.64s.2.58.2.91c0,.57-.18,1.05-.54,1.44-.36.39-1.01.59-1.96.59h-1.71v2.71h-.88Zm.88-3.5h1.73c.57,0,.98-.11,1.22-.32.24-.21.36-.51.36-.9,0-.28-.07-.52-.21-.72-.14-.2-.33-.33-.56-.39-.15-.04-.42-.06-.82-.06h-1.71v2.39Z"/><path d="m151.46,200.54v-6.67h.91l3.51,5.24v-5.24h.85v6.67h-.91l-3.51-5.25v5.25h-.85Z"/><path d="m157.49,200.66l1.94-6.9h.66l-1.93,6.9h-.66Z"/><path d="m160.76,200.54v-6.67h.88v5.89h3.29v.79h-4.17Z"/><path d="m165.97,200.54v-6.67h.91l3.51,5.24v-5.24h.85v6.67h-.91l-3.51-5.25v5.25h-.85Z"/><path d="m176.99,199.81l.12.72c-.23.05-.44.07-.62.07-.3,0-.53-.05-.69-.14-.16-.09-.28-.22-.35-.37-.07-.15-.1-.48-.1-.97v-2.78h-.6v-.64h.6v-1.2l.81-.49v1.69h.82v.64h-.82v2.83c0,.23.01.38.04.45.03.07.08.12.14.16.07.04.16.06.28.06.09,0,.21-.01.36-.03Z"/><path d="m180.96,200.54v-.71c-.38.55-.89.82-1.53.82-.29,0-.55-.05-.8-.16-.25-.11-.43-.25-.55-.41-.12-.17-.2-.37-.25-.61-.03-.16-.05-.42-.05-.76v-3h.82v2.68c0,.43.02.72.05.87.05.21.16.38.33.51.17.12.37.18.62.18s.48-.06.69-.19.37-.3.46-.51.13-.53.13-.94v-2.59h.82v4.83h-.73Z"/><path d="m182.98,200.54v-4.83h.74v.69c.36-.53.87-.8,1.54-.8.29,0,.56.05.8.16.24.1.43.24.55.41s.21.37.25.61c.03.15.05.42.05.8v2.97h-.82v-2.94c0-.33-.03-.58-.1-.75-.06-.17-.18-.3-.34-.4-.16-.1-.35-.15-.57-.15-.35,0-.65.11-.9.33-.25.22-.38.64-.38,1.26v2.64h-.82Z"/><path d="m188.17,194.81v-.94h.82v.94h-.82Zm0,5.73v-4.83h.82v4.83h-.82Z"/><path d="m190.23,200.54v-4.83h.74v.69c.36-.53.87-.8,1.54-.8.29,0,.56.05.8.16.24.1.43.24.55.41s.21.37.25.61c.03.15.05.42.05.8v2.97h-.82v-2.94c0-.33-.03-.58-.1-.75-.06-.17-.18-.3-.34-.4-.16-.1-.35-.15-.57-.15-.35,0-.65.11-.9.33-.25.22-.38.64-.38,1.26v2.64h-.82Z"/><path d="m195.27,200.94l.8.12c.03.25.13.43.28.54.2.15.48.23.83.23.38,0,.67-.08.88-.23.21-.15.35-.36.42-.64.04-.17.06-.52.06-1.05-.36.42-.8.63-1.34.63-.66,0-1.18-.24-1.54-.72-.36-.48-.55-1.05-.55-1.73,0-.46.08-.89.25-1.28.17-.39.41-.69.73-.9.32-.21.69-.32,1.12-.32.57,0,1.04.23,1.41.69v-.58h.76v4.18c0,.75-.08,1.29-.23,1.6-.15.31-.4.56-.73.75-.33.18-.74.27-1.23.27-.58,0-1.04-.13-1.4-.39-.36-.26-.53-.65-.51-1.17Zm.68-2.9c0,.63.13,1.1.38,1.39.25.29.57.44.95.44s.69-.14.95-.43.38-.74.38-1.36-.13-1.04-.39-1.34c-.26-.3-.58-.45-.95-.45s-.67.15-.93.44c-.26.3-.38.74-.38,1.32Z"/><path d="m199.99,200.66l1.94-6.9h.66l-1.93,6.9h-.66Z"/><path d="m206.35,198.77l.81.11c-.09.55-.31.99-.68,1.3-.36.31-.81.47-1.34.47-.66,0-1.19-.22-1.6-.65-.4-.43-.6-1.05-.6-1.86,0-.52.09-.98.26-1.37.17-.39.44-.69.79-.88.35-.2.74-.29,1.15-.29.52,0,.95.13,1.29.4.33.27.55.64.64,1.13l-.8.12c-.08-.32-.21-.57-.4-.73-.19-.16-.43-.25-.7-.25-.41,0-.75.15-1.01.44-.26.3-.39.76-.39,1.4s.12,1.12.37,1.42c.25.29.57.44.97.44.32,0,.59-.1.81-.3.22-.2.35-.5.41-.91Z"/><path d="m207.55,198.12c0-.89.25-1.56.75-1.99.42-.36.92-.54,1.52-.54.67,0,1.21.22,1.63.65.42.44.63,1.04.63,1.8,0,.62-.09,1.11-.28,1.47s-.46.63-.81.83c-.36.2-.75.3-1.17.3-.68,0-1.22-.22-1.64-.65-.42-.43-.63-1.06-.63-1.88Zm.84,0c0,.62.14,1.08.41,1.39.27.31.61.46,1.02.46s.75-.16,1.02-.46c.27-.31.41-.78.41-1.42,0-.6-.14-1.05-.41-1.36-.27-.31-.61-.46-1.01-.46s-.75.15-1.02.46c-.27.31-.41.77-.41,1.39Z"/><path d="m213.04,200.54v-4.83h.74v.69c.36-.53.87-.8,1.54-.8.29,0,.56.05.8.16.24.1.43.24.55.41s.21.37.25.61c.03.15.05.42.05.8v2.97h-.82v-2.94c0-.33-.03-.58-.1-.75-.06-.17-.18-.3-.34-.4-.16-.1-.35-.15-.57-.15-.35,0-.65.11-.9.33-.25.22-.38.64-.38,1.26v2.64h-.82Z"/><path d="m218.23,200.54v-4.83h.74v.69c.36-.53.87-.8,1.54-.8.29,0,.56.05.8.16.24.1.43.24.55.41s.21.37.25.61c.03.15.05.42.05.8v2.97h-.82v-2.94c0-.33-.03-.58-.1-.75-.06-.17-.18-.3-.34-.4-.16-.1-.35-.15-.57-.15-.35,0-.65.11-.9.33-.25.22-.38.64-.38,1.26v2.64h-.82Z"/><path d="m226.72,198.99l.85.1c-.13.49-.38.88-.74,1.15-.36.27-.82.41-1.38.41-.71,0-1.27-.22-1.68-.65-.41-.44-.62-1.05-.62-1.83s.21-1.44.63-1.89.96-.67,1.63-.67,1.17.22,1.58.66.61,1.06.61,1.86c0,.05,0,.12,0,.22h-3.61c.03.53.18.94.45,1.22.27.28.61.42,1.01.42.3,0,.56-.08.77-.24.21-.16.38-.41.51-.75Zm-2.69-1.33h2.7c-.04-.41-.14-.71-.31-.92-.26-.32-.6-.47-1.02-.47-.38,0-.69.13-.95.38-.26.25-.4.59-.43,1.01Z"/><path d="m231.76,198.77l.81.11c-.09.55-.31.99-.68,1.3-.36.31-.81.47-1.34.47-.66,0-1.19-.22-1.6-.65-.4-.43-.6-1.05-.6-1.86,0-.52.09-.98.26-1.37.17-.39.44-.69.79-.88.35-.2.74-.29,1.15-.29.52,0,.95.13,1.29.4.33.27.55.64.64,1.13l-.8.12c-.08-.32-.21-.57-.4-.73-.19-.16-.43-.25-.7-.25-.41,0-.75.15-1.01.44-.26.3-.39.76-.39,1.4s.12,1.12.37,1.42c.25.29.57.44.97.44.32,0,.59-.1.81-.3.22-.2.35-.5.41-.91Z"/><path d="m235.05,199.81l.12.72c-.23.05-.44.07-.62.07-.3,0-.53-.05-.69-.14-.16-.09-.28-.22-.35-.37-.07-.15-.1-.48-.1-.97v-2.78h-.6v-.64h.6v-1.2l.81-.49v1.69h.82v.64h-.82v2.83c0,.23.01.38.04.45.03.07.08.12.14.16.07.04.16.06.28.06.09,0,.21-.01.36-.03Z"/><path d="m235.86,194.81v-.94h.82v.94h-.82Zm0,5.73v-4.83h.82v4.83h-.82Z"/><path d="m239.27,200.54l-1.84-4.83h.87l1.04,2.9c.11.31.22.64.31.97.07-.25.17-.56.31-.92l1.07-2.95h.84l-1.83,4.83h-.77Z"/><path d="m242.59,194.81v-.94h.82v.94h-.82Zm0,5.73v-4.83h.82v4.83h-.82Z"/><path d="m246.45,199.81l.12.72c-.23.05-.44.07-.62.07-.3,0-.53-.05-.69-.14-.16-.09-.28-.22-.35-.37-.07-.15-.1-.48-.1-.97v-2.78h-.6v-.64h.6v-1.2l.81-.49v1.69h.82v.64h-.82v2.83c0,.23.01.38.04.45.03.07.08.12.14.16.07.04.16.06.28.06.09,0,.21-.01.36-.03Z"/><path d="m247.21,202.41l-.09-.77c.18.05.33.07.47.07.18,0,.33-.03.44-.09s.2-.15.27-.25c.05-.08.14-.29.25-.61.02-.04.04-.11.07-.2l-1.83-4.84h.88l1.01,2.8c.13.36.25.73.35,1.12.09-.38.21-.74.34-1.1l1.03-2.82h.82l-1.84,4.92c-.2.53-.35.9-.46,1.1-.15.27-.31.47-.5.59-.19.13-.41.19-.67.19-.16,0-.33-.03-.53-.1Z"/><path d="m140.08,209.11v-.78h2.83s0,2.47,0,2.47c-.43.35-.88.61-1.34.78-.46.17-.93.26-1.42.26-.66,0-1.25-.14-1.79-.42-.54-.28-.94-.69-1.21-1.22-.27-.53-.41-1.12-.41-1.78s.14-1.26.41-1.82c.27-.56.66-.98,1.17-1.25.51-.27,1.1-.41,1.76-.41.48,0,.92.08,1.31.23s.7.37.92.65.39.64.51,1.09l-.8.22c-.1-.34-.22-.61-.37-.8-.15-.19-.36-.35-.64-.47-.28-.12-.58-.17-.92-.17-.4,0-.75.06-1.05.18-.29.12-.53.28-.71.48s-.32.42-.42.66c-.17.41-.25.86-.25,1.34,0,.6.1,1.09.31,1.49.2.4.5.7.89.89s.81.29,1.25.29c.38,0,.76-.07,1.12-.22.36-.15.64-.3.83-.47v-1.24h-1.96Z"/><path d="m147.26,211.13c-.3.26-.6.44-.88.55-.28.11-.58.16-.9.16-.53,0-.94-.13-1.23-.39-.29-.26-.43-.59-.43-.99,0-.24.05-.45.16-.65.11-.2.25-.35.42-.47.17-.12.37-.21.59-.27.16-.04.4-.08.73-.12.66-.08,1.15-.17,1.46-.28,0-.11,0-.18,0-.21,0-.33-.08-.57-.23-.71-.21-.19-.52-.28-.93-.28-.39,0-.67.07-.85.2-.18.13-.32.37-.41.72l-.8-.11c.07-.34.19-.62.36-.83.17-.21.41-.37.72-.49.32-.11.68-.17,1.1-.17s.75.05,1.01.15c.26.1.45.22.57.37.12.15.21.33.25.56.03.14.04.39.04.75v1.09c0,.76.02,1.24.05,1.45.03.2.1.39.21.58h-.86c-.08-.17-.14-.37-.16-.6Zm-.07-1.83c-.3.12-.74.22-1.34.31-.34.05-.58.1-.71.16s-.25.15-.32.27c-.08.12-.11.25-.11.39,0,.22.08.4.25.55.17.15.41.22.73.22s.6-.07.84-.21c.25-.14.43-.33.54-.57.09-.19.13-.46.13-.82v-.3Z"/><path d="m149.3,206v-.94h.82v.94h-.82Zm0,5.73v-4.83h.82v4.83h-.82Z"/><path d="m151.36,211.73v-4.83h.74v.69c.36-.53.87-.8,1.54-.8.29,0,.56.05.8.16.24.1.43.24.55.41s.21.37.25.61c.03.15.05.42.05.8v2.97h-.82v-2.94c0-.33-.03-.58-.1-.75-.06-.17-.18-.3-.34-.4-.16-.1-.35-.15-.57-.15-.35,0-.65.11-.9.33-.25.22-.38.64-.38,1.26v2.64h-.82Z"/><path d="m155.93,211.85l1.94-6.9h.66l-1.93,6.9h-.66Z"/><path d="m159.12,211.73v-6.67h.82v6.67h-.82Z"/><path d="m160.9,209.31c0-.89.25-1.56.75-1.99.42-.36.92-.54,1.52-.54.67,0,1.21.22,1.63.65.42.44.63,1.04.63,1.8,0,.62-.09,1.11-.28,1.47s-.46.63-.81.83c-.36.2-.75.3-1.17.3-.68,0-1.22-.22-1.64-.65-.42-.43-.63-1.06-.63-1.88Zm.84,0c0,.62.14,1.08.41,1.39.27.31.61.46,1.02.46s.75-.16,1.02-.46c.27-.31.41-.78.41-1.42,0-.6-.14-1.05-.41-1.36-.27-.31-.61-.46-1.01-.46s-.75.15-1.02.46c-.27.31-.41.77-.41,1.39Z"/><path d="m166.07,210.29l.81-.13c.05.32.17.57.38.75.21.17.5.26.87.26s.66-.08.84-.23c.18-.15.27-.33.27-.54,0-.19-.08-.33-.24-.44-.11-.07-.39-.17-.84-.28-.6-.15-1.02-.28-1.25-.39-.23-.11-.41-.26-.53-.46-.12-.2-.18-.41-.18-.65,0-.22.05-.42.15-.6.1-.18.23-.34.4-.46.13-.09.3-.17.52-.24s.46-.1.71-.1c.38,0,.71.05,1,.16.29.11.5.26.63.44.14.19.23.44.28.75l-.8.11c-.04-.25-.14-.44-.32-.58-.17-.14-.42-.21-.74-.21-.38,0-.65.06-.81.19-.16.12-.24.27-.24.44,0,.11.03.2.1.29.07.09.17.16.31.22.08.03.32.1.72.21.58.15.98.28,1.21.38.23.1.41.24.54.43.13.19.2.42.2.7s-.08.53-.24.77-.39.43-.69.56c-.3.13-.64.2-1.02.2-.63,0-1.11-.13-1.44-.39-.33-.26-.54-.65-.63-1.16Z"/><path d="m170.73,210.29l.81-.13c.05.32.17.57.38.75.21.17.5.26.87.26s.66-.08.84-.23c.18-.15.27-.33.27-.54,0-.19-.08-.33-.24-.44-.11-.07-.39-.17-.84-.28-.6-.15-1.02-.28-1.25-.39-.23-.11-.41-.26-.53-.46-.12-.2-.18-.41-.18-.65,0-.22.05-.42.15-.6.1-.18.23-.34.4-.46.13-.09.3-.17.52-.24s.46-.1.71-.1c.38,0,.71.05,1,.16.29.11.5.26.63.44.14.19.23.44.28.75l-.8.11c-.04-.25-.14-.44-.32-.58-.17-.14-.42-.21-.74-.21-.38,0-.65.06-.81.19-.16.12-.24.27-.24.44,0,.11.03.2.1.29.07.09.17.16.31.22.08.03.32.1.72.21.58.15.98.28,1.21.38.23.1.41.24.54.43.13.19.2.42.2.7s-.08.53-.24.77-.39.43-.69.56c-.3.13-.64.2-1.02.2-.63,0-1.11-.13-1.44-.39-.33-.26-.54-.65-.63-1.16Z"/><path d="m178.01,209.31c0-.89.25-1.56.75-1.99.42-.36.92-.54,1.52-.54.67,0,1.21.22,1.63.65.42.44.63,1.04.63,1.8,0,.62-.09,1.11-.28,1.47s-.46.63-.81.83c-.36.2-.75.3-1.17.3-.68,0-1.22-.22-1.64-.65-.42-.43-.63-1.06-.63-1.88Zm.84,0c0,.62.14,1.08.41,1.39.27.31.61.46,1.02.46s.75-.16,1.02-.46c.27-.31.41-.78.41-1.42,0-.6-.14-1.05-.41-1.36-.27-.31-.61-.46-1.01-.46s-.75.15-1.02.46c-.27.31-.41.77-.41,1.39Z"/><path d="m183.69,211.73v-4.2h-.72v-.64h.72v-.51c0-.33.03-.57.09-.72.08-.21.22-.38.42-.52.2-.13.48-.2.84-.2.23,0,.49.03.76.08l-.12.71c-.17-.03-.33-.05-.48-.05-.25,0-.42.05-.53.16-.1.11-.15.31-.15.6v.45h.94v.64h-.94v4.2h-.81Z"/><path d="m188.78,211.73v-6.67h2.52c.44,0,.78.02,1.02.06.33.05.6.16.82.31.22.15.4.37.54.64s.2.58.2.91c0,.57-.18,1.05-.54,1.44-.36.39-1.01.59-1.96.59h-1.71v2.71h-.88Zm.88-3.5h1.73c.57,0,.98-.11,1.22-.32.24-.21.36-.51.36-.9,0-.28-.07-.52-.21-.72-.14-.2-.33-.33-.56-.39-.15-.04-.42-.06-.82-.06h-1.71v2.39Z"/><path d="m194.99,211.73v-6.67h.91l3.51,5.24v-5.24h.85v6.67h-.91l-3.51-5.25v5.25h-.85Z"/><path d="m201.02,211.85l1.94-6.9h.66l-1.93,6.9h-.66Z"/><path d="m204.29,211.73v-6.67h.88v5.89h3.29v.79h-4.17Z"/><path d="m209.5,211.73v-6.67h.91l3.51,5.24v-5.24h.85v6.67h-.91l-3.51-5.25v5.25h-.85Z"/><path d="m220.52,211l.12.72c-.23.05-.44.07-.62.07-.3,0-.53-.05-.69-.14-.16-.09-.28-.22-.35-.37-.07-.15-.1-.48-.1-.97v-2.78h-.6v-.64h.6v-1.2l.81-.49v1.69h.82v.64h-.82v2.83c0,.23.01.38.04.45.03.07.08.12.14.16.07.04.16.06.28.06.09,0,.21-.01.36-.03Z"/><path d="m221.28,213.59l-.09-.77c.18.05.33.07.47.07.18,0,.33-.03.44-.09s.2-.15.27-.25c.05-.08.14-.29.25-.61.02-.04.04-.11.07-.2l-1.83-4.84h.88l1.01,2.8c.13.36.25.73.35,1.12.09-.38.21-.74.34-1.1l1.03-2.82h.82l-1.84,4.92c-.2.53-.35.9-.46,1.1-.15.27-.31.47-.5.59-.19.13-.41.19-.67.19-.16,0-.33-.03-.53-.1Z"/><path d="m225.98,213.58v-6.69h.75v.63c.18-.25.38-.43.6-.55.22-.12.49-.18.81-.18.41,0,.78.11,1.09.32.32.21.55.51.71.9.16.39.24.81.24,1.27,0,.5-.09.94-.27,1.34-.18.4-.44.7-.77.91s-.69.32-1.07.32c-.27,0-.52-.06-.74-.17-.22-.12-.4-.26-.54-.44v2.35h-.82Zm.74-4.24c0,.62.13,1.08.38,1.38.25.3.56.45.92.45s.68-.15.94-.46c.26-.31.39-.79.39-1.43s-.13-1.08-.38-1.38-.56-.46-.91-.46-.66.16-.93.49c-.27.33-.4.8-.4,1.42Z"/><path d="m234.48,210.17l.85.1c-.13.49-.38.88-.74,1.15-.36.27-.82.41-1.38.41-.71,0-1.27-.22-1.68-.65-.41-.44-.62-1.05-.62-1.83s.21-1.44.63-1.89.96-.67,1.63-.67,1.17.22,1.58.66.61,1.06.61,1.86c0,.05,0,.12,0,.22h-3.61c.03.53.18.94.45,1.22.27.28.61.42,1.01.42.3,0,.56-.08.77-.24.21-.16.38-.41.51-.75Zm-2.69-1.33h2.7c-.04-.41-.14-.71-.31-.92-.26-.32-.6-.47-1.02-.47-.38,0-.69.13-.95.38-.26.25-.4.59-.43,1.01Z"/><path d="m236.03,210.29l.81-.13c.05.32.17.57.38.75.21.17.5.26.87.26s.66-.08.84-.23c.18-.15.27-.33.27-.54,0-.19-.08-.33-.24-.44-.11-.07-.39-.17-.84-.28-.6-.15-1.02-.28-1.25-.39-.23-.11-.41-.26-.53-.46-.12-.2-.18-.41-.18-.65,0-.22.05-.42.15-.6.1-.18.23-.34.4-.46.13-.09.3-.17.52-.24s.46-.1.71-.1c.38,0,.71.05,1,.16.29.11.5.26.63.44.14.19.23.44.28.75l-.8.11c-.04-.25-.14-.44-.32-.58-.17-.14-.42-.21-.74-.21-.38,0-.65.06-.81.19-.16.12-.24.27-.24.44,0,.11.03.2.1.29.07.09.17.16.31.22.08.03.32.1.72.21.58.15.98.28,1.21.38.23.1.41.24.54.43.13.19.2.42.2.7s-.08.53-.24.77-.39.43-.69.56c-.3.13-.64.2-1.02.2-.63,0-1.11-.13-1.44-.39-.33-.26-.54-.65-.63-1.16Z"/><path d="m322.62,189.35h-6.56l3.43-7.58,3.12,7.58Zm-1.29-.45l-2.18-5.28-2.4,5.28h4.58Z"/><path d="m326.08,189.35v-6.67h2.52c.44,0,.78.02,1.02.06.33.05.6.16.82.31.22.15.4.37.54.64s.2.58.2.91c0,.57-.18,1.05-.54,1.44-.36.39-1.01.59-1.96.59h-1.71v2.71h-.88Zm.88-3.5h1.73c.57,0,.98-.11,1.22-.32.24-.21.36-.51.36-.9,0-.28-.07-.52-.21-.72-.14-.2-.33-.33-.56-.39-.15-.04-.42-.06-.82-.06h-1.71v2.39Z"/><path d="m332.29,189.35v-6.67h.91l3.51,5.24v-5.24h.85v6.67h-.91l-3.51-5.25v5.25h-.85Z"/><path d="m341.52,191.21v-6.69h.75v.63c.18-.25.38-.43.6-.55.22-.12.49-.18.81-.18.41,0,.78.11,1.09.32.32.21.55.51.71.9.16.39.24.81.24,1.27,0,.5-.09.94-.27,1.34-.18.4-.44.7-.77.91s-.69.32-1.07.32c-.27,0-.52-.06-.74-.17-.22-.12-.4-.26-.54-.44v2.35h-.82Zm.74-4.24c0,.62.13,1.08.38,1.38.25.3.56.45.92.45s.68-.15.94-.46c.26-.31.39-.79.39-1.43s-.13-1.08-.38-1.38-.56-.46-.91-.46-.66.16-.93.49c-.27.33-.4.8-.4,1.42Z"/><path d="m346.69,189.35v-4.83h.74v.73c.19-.34.36-.57.52-.68.16-.11.33-.16.53-.16.28,0,.56.09.84.26l-.28.76c-.2-.12-.4-.18-.6-.18-.18,0-.34.05-.48.16-.14.11-.24.26-.31.45-.09.29-.14.61-.14.96v2.53h-.82Z"/><path d="m349.5,186.94c0-.89.25-1.56.75-1.99.42-.36.92-.54,1.52-.54.67,0,1.21.22,1.63.65.42.44.63,1.04.63,1.8,0,.62-.09,1.11-.28,1.47s-.46.63-.81.83c-.36.2-.75.3-1.17.3-.68,0-1.22-.22-1.64-.65-.42-.43-.63-1.06-.63-1.88Zm.84,0c0,.62.14,1.08.41,1.39.27.31.61.46,1.02.46s.75-.16,1.02-.46c.27-.31.41-.78.41-1.42,0-.6-.14-1.05-.41-1.36-.27-.31-.61-.46-1.01-.46s-.75.15-1.02.46c-.27.31-.41.77-.41,1.39Z"/><path d="m353.95,191.23l.15-.7c.16.04.29.06.39.06.17,0,.29-.06.37-.17.08-.11.12-.39.12-.83v-5.08h.82v5.1c0,.6-.08,1.01-.23,1.24-.2.3-.52.46-.98.46-.22,0-.44-.03-.64-.09Zm1.04-7.6v-.95h.82v.95h-.82Z"/><path d="m360.37,187.8l.85.1c-.13.49-.38.88-.74,1.15-.36.27-.82.41-1.38.41-.71,0-1.27-.22-1.68-.65s-.62-1.05-.62-1.83.21-1.44.63-1.89.96-.67,1.63-.67,1.17.22,1.58.66c.41.44.62,1.06.62,1.86,0,.05,0,.12,0,.22h-3.61c.03.53.18.94.45,1.22.27.28.61.42,1.01.42.3,0,.56-.08.77-.24.21-.16.38-.41.51-.75Zm-2.69-1.33h2.7c-.04-.41-.14-.71-.31-.92-.26-.32-.6-.47-1.02-.47-.38,0-.69.13-.95.38-.26.25-.4.59-.43,1.01Z"/><path d="m365.4,187.58l.81.11c-.09.55-.31.99-.68,1.3-.36.31-.81.47-1.34.47-.66,0-1.19-.22-1.6-.65-.4-.43-.6-1.05-.6-1.86,0-.52.09-.98.26-1.37s.44-.69.79-.88c.35-.2.74-.29,1.15-.29.53,0,.96.13,1.29.4s.55.64.64,1.13l-.8.12c-.08-.32-.21-.57-.4-.73-.19-.16-.43-.25-.7-.25-.41,0-.75.15-1.01.44-.26.3-.39.76-.39,1.4s.12,1.12.37,1.42c.25.29.57.44.97.44.32,0,.59-.1.81-.3.21-.2.35-.5.41-.91Z"/><path d="m368.7,188.62l.12.72c-.23.05-.44.07-.62.07-.3,0-.53-.05-.69-.14-.16-.09-.28-.22-.35-.37-.07-.15-.1-.48-.1-.97v-2.78h-.6v-.64h.6v-1.2l.82-.49v1.69h.82v.64h-.82v2.83c0,.23.01.38.04.45.03.07.08.12.14.16.06.04.16.06.28.06.09,0,.21-.01.36-.03Z"/><path d="m369.51,183.62v-.94h.82v.94h-.82Zm0,5.73v-4.83h.82v4.83h-.82Z"/><path d="m371.27,186.94c0-.89.25-1.56.75-1.99.42-.36.92-.54,1.52-.54.66,0,1.21.22,1.63.65s.63,1.04.63,1.8c0,.62-.09,1.11-.28,1.47s-.46.63-.81.83c-.36.2-.75.3-1.17.3-.68,0-1.22-.22-1.64-.65-.42-.43-.63-1.06-.63-1.88Zm.84,0c0,.62.13,1.08.4,1.39.27.31.61.46,1.02.46s.75-.16,1.01-.46c.27-.31.41-.78.41-1.42,0-.6-.14-1.05-.41-1.36-.27-.31-.61-.46-1.01-.46s-.75.15-1.02.46c-.27.31-.4.77-.4,1.39Z"/><path d="m376.76,189.35v-4.83h.74v.69c.35-.53.87-.8,1.54-.8.29,0,.56.05.8.16s.43.24.55.41.21.37.25.61c.03.15.05.42.05.8v2.97h-.82v-2.94c0-.33-.03-.58-.1-.75-.06-.17-.18-.3-.34-.4-.16-.1-.35-.15-.57-.15-.35,0-.65.11-.9.33-.25.22-.38.64-.38,1.26v2.64h-.82Z"/><path d="m381.62,187.91l.81-.13c.04.32.17.57.38.75s.5.26.87.26.66-.08.84-.23c.18-.15.27-.33.27-.54,0-.19-.08-.33-.24-.44-.11-.07-.39-.17-.84-.28-.6-.15-1.02-.28-1.25-.39-.23-.11-.41-.26-.53-.46-.12-.2-.18-.41-.18-.65,0-.22.05-.42.15-.6.1-.18.23-.34.4-.46.13-.09.3-.17.52-.24.22-.07.46-.1.71-.1.38,0,.71.05,1,.16.29.11.5.26.63.44s.23.44.28.75l-.8.11c-.04-.25-.14-.44-.32-.58-.17-.14-.42-.21-.74-.21-.38,0-.64.06-.81.19-.16.12-.24.27-.24.44,0,.11.03.2.1.29.07.09.17.16.31.22.08.03.32.1.72.21.58.15.98.28,1.21.38.23.1.41.24.54.43.13.19.2.42.2.7s-.08.53-.24.77-.39.43-.69.56c-.3.13-.64.2-1.02.2-.63,0-1.11-.13-1.44-.39-.33-.26-.54-.65-.63-1.16Z"/><path d="m385.99,189.47l1.93-6.9h.66l-1.93,6.9h-.66Z"/><path d="m392.35,187.58l.81.11c-.09.55-.31.99-.68,1.3-.36.31-.81.47-1.34.47-.66,0-1.19-.22-1.6-.65-.4-.43-.6-1.05-.6-1.86,0-.52.09-.98.26-1.37s.44-.69.79-.88c.35-.2.74-.29,1.15-.29.53,0,.96.13,1.29.4s.55.64.64,1.13l-.8.12c-.08-.32-.21-.57-.4-.73-.19-.16-.43-.25-.7-.25-.41,0-.75.15-1.01.44-.26.3-.39.76-.39,1.4s.12,1.12.37,1.42c.25.29.57.44.97.44.32,0,.59-.1.81-.3.21-.2.35-.5.41-.91Z"/><path d="m393.56,186.94c0-.89.25-1.56.75-1.99.42-.36.92-.54,1.52-.54.66,0,1.21.22,1.63.65s.63,1.04.63,1.8c0,.62-.09,1.11-.28,1.47s-.46.63-.81.83c-.36.2-.75.3-1.17.3-.68,0-1.22-.22-1.64-.65-.42-.43-.63-1.06-.63-1.88Zm.84,0c0,.62.13,1.08.4,1.39.27.31.61.46,1.02.46s.75-.16,1.01-.46c.27-.31.41-.78.41-1.42,0-.6-.14-1.05-.41-1.36-.27-.31-.61-.46-1.01-.46s-.75.15-1.02.46c-.27.31-.4.77-.4,1.39Z"/><path d="m399.05,189.35v-4.83h.74v.69c.35-.53.87-.8,1.54-.8.29,0,.56.05.8.16s.43.24.55.41.21.37.25.61c.03.15.05.42.05.8v2.97h-.82v-2.94c0-.33-.03-.58-.1-.75-.06-.17-.18-.3-.34-.4-.16-.1-.35-.15-.57-.15-.35,0-.65.11-.9.33-.25.22-.38.64-.38,1.26v2.64h-.82Z"/><path d="m404.23,189.35v-4.83h.74v.69c.35-.53.87-.8,1.54-.8.29,0,.56.05.8.16s.43.24.55.41.21.37.25.61c.03.15.05.42.05.8v2.97h-.82v-2.94c0-.33-.03-.58-.1-.75-.06-.17-.18-.3-.34-.4-.16-.1-.35-.15-.57-.15-.35,0-.65.11-.9.33-.25.22-.38.64-.38,1.26v2.64h-.82Z"/><path d="m412.73,187.8l.85.1c-.13.49-.38.88-.74,1.15-.36.27-.82.41-1.38.41-.71,0-1.27-.22-1.68-.65s-.62-1.05-.62-1.83.21-1.44.63-1.89.96-.67,1.63-.67,1.17.22,1.58.66c.41.44.62,1.06.62,1.86,0,.05,0,.12,0,.22h-3.61c.03.53.18.94.45,1.22.27.28.61.42,1.01.42.3,0,.56-.08.77-.24.21-.16.38-.41.51-.75Zm-2.69-1.33h2.7c-.04-.41-.14-.71-.31-.92-.26-.32-.6-.47-1.02-.47-.38,0-.69.13-.95.38-.26.25-.4.59-.43,1.01Z"/><path d="m417.76,187.58l.81.11c-.09.55-.31.99-.68,1.3-.36.31-.81.47-1.34.47-.66,0-1.19-.22-1.6-.65-.4-.43-.6-1.05-.6-1.86,0-.52.09-.98.26-1.37s.44-.69.79-.88c.35-.2.74-.29,1.15-.29.53,0,.96.13,1.29.4s.55.64.64,1.13l-.8.12c-.08-.32-.21-.57-.4-.73-.19-.16-.43-.25-.7-.25-.41,0-.75.15-1.01.44-.26.3-.39.76-.39,1.4s.12,1.12.37,1.42c.25.29.57.44.97.44.32,0,.59-.1.81-.3.21-.2.35-.5.41-.91Z"/><path d="m421.05,188.62l.12.72c-.23.05-.44.07-.62.07-.3,0-.53-.05-.69-.14-.16-.09-.28-.22-.35-.37-.07-.15-.1-.48-.1-.97v-2.78h-.6v-.64h.6v-1.2l.82-.49v1.69h.82v.64h-.82v2.83c0,.23.01.38.04.45.03.07.08.12.14.16.06.04.16.06.28.06.09,0,.21-.01.36-.03Z"/><path d="m421.86,183.62v-.94h.82v.94h-.82Zm0,5.73v-4.83h.82v4.83h-.82Z"/><path d="m425.27,189.35l-1.84-4.83h.87l1.04,2.9c.11.31.22.64.31.97.07-.25.17-.56.3-.92l1.08-2.95h.84l-1.83,4.83h-.76Z"/><path d="m428.59,183.62v-.94h.82v.94h-.82Zm0,5.73v-4.83h.82v4.83h-.82Z"/><path d="m432.45,188.62l.12.72c-.23.05-.44.07-.62.07-.3,0-.53-.05-.69-.14-.16-.09-.28-.22-.35-.37-.07-.15-.1-.48-.1-.97v-2.78h-.6v-.64h.6v-1.2l.82-.49v1.69h.82v.64h-.82v2.83c0,.23.01.38.04.45.03.07.08.12.14.16.06.04.16.06.28.06.09,0,.21-.01.36-.03Z"/><path d="m433.21,191.22l-.09-.77c.18.05.33.07.47.07.18,0,.33-.03.44-.09.11-.06.2-.15.27-.25.05-.08.13-.29.25-.61.02-.04.04-.11.07-.2l-1.83-4.84h.88l1.01,2.8c.13.36.25.73.35,1.12.09-.38.21-.74.34-1.1l1.03-2.82h.82l-1.84,4.92c-.2.53-.35.9-.46,1.1-.15.27-.31.47-.5.59s-.41.19-.67.19c-.16,0-.33-.03-.53-.1Z"/><path d="m316.37,197.29c0-1.11.3-1.97.89-2.6.59-.63,1.36-.94,2.3-.94.62,0,1.17.15,1.67.44.49.29.87.71,1.13,1.23.26.53.39,1.12.39,1.79s-.14,1.28-.41,1.82c-.27.53-.66.94-1.16,1.21-.5.27-1.04.41-1.62.41-.63,0-1.19-.15-1.68-.46-.49-.3-.87-.72-1.12-1.24-.25-.53-.38-1.08-.38-1.67Zm.91.01c0,.8.22,1.44.65,1.9.43.46.97.69,1.63.69s1.21-.23,1.64-.7c.43-.47.64-1.13.64-1.99,0-.54-.09-1.02-.28-1.42-.18-.4-.45-.72-.81-.94-.35-.22-.75-.33-1.19-.33-.63,0-1.16.21-1.61.64-.45.43-.68,1.15-.68,2.15Z"/><path d="m325.58,199.81l.12.72c-.23.05-.44.07-.62.07-.3,0-.53-.05-.69-.14-.16-.09-.28-.22-.35-.37-.07-.15-.1-.48-.1-.97v-2.78h-.6v-.64h.6v-1.2l.81-.49v1.69h.82v.64h-.82v2.83c0,.23.01.38.04.45.03.07.08.12.14.16.07.04.16.06.28.06.09,0,.21-.01.36-.03Z"/><path d="m326.38,200.54v-6.67h.82v2.4c.38-.44.87-.67,1.45-.67.36,0,.67.07.93.21.26.14.45.34.57.58.11.25.17.61.17,1.08v3.06h-.82v-3.06c0-.41-.09-.71-.27-.89-.18-.19-.43-.28-.75-.28-.24,0-.47.06-.69.19s-.37.3-.46.51c-.09.21-.14.51-.14.89v2.65h-.82Z"/><path d="m334.88,198.99l.85.1c-.13.49-.38.88-.74,1.15-.36.27-.82.41-1.38.41-.71,0-1.27-.22-1.68-.65-.41-.44-.62-1.05-.62-1.83s.21-1.44.63-1.89.96-.67,1.63-.67,1.17.22,1.58.66.61,1.06.61,1.86c0,.05,0,.12,0,.22h-3.61c.03.53.18.94.45,1.22.27.28.61.42,1.01.42.3,0,.56-.08.77-.24.21-.16.38-.41.51-.75Zm-2.69-1.33h2.7c-.04-.41-.14-.71-.31-.92-.26-.32-.6-.47-1.02-.47-.38,0-.69.13-.95.38-.26.25-.4.59-.43,1.01Z"/><path d="m336.74,200.54v-4.83h.74v.73c.19-.34.36-.57.52-.68.16-.11.33-.16.53-.16.28,0,.56.09.84.26l-.28.76c-.2-.12-.4-.18-.6-.18-.18,0-.34.05-.48.16-.14.11-.24.26-.31.45-.09.29-.14.61-.14.96v2.53h-.82Z"/><path d="m345.6,198.77l.81.11c-.09.55-.31.99-.68,1.3-.36.31-.81.47-1.34.47-.66,0-1.19-.22-1.6-.65-.4-.43-.6-1.05-.6-1.86,0-.52.09-.98.26-1.37.17-.39.44-.69.79-.88.35-.2.74-.29,1.15-.29.52,0,.95.13,1.29.4.33.27.55.64.64,1.13l-.8.12c-.08-.32-.21-.57-.4-.73-.19-.16-.43-.25-.7-.25-.41,0-.75.15-1.01.44-.26.3-.39.76-.39,1.4s.12,1.12.37,1.42c.25.29.57.44.97.44.32,0,.59-.1.81-.3.22-.2.35-.5.41-.91Z"/><path d="m350.42,198.99l.85.1c-.13.49-.38.88-.74,1.15-.36.27-.82.41-1.38.41-.71,0-1.27-.22-1.68-.65-.41-.44-.62-1.05-.62-1.83s.21-1.44.63-1.89.96-.67,1.63-.67,1.17.22,1.58.66.61,1.06.61,1.86c0,.05,0,.12,0,.22h-3.61c.03.53.18.94.45,1.22.27.28.61.42,1.01.42.3,0,.56-.08.77-.24.21-.16.38-.41.51-.75Zm-2.69-1.33h2.7c-.04-.41-.14-.71-.31-.92-.26-.32-.6-.47-1.02-.47-.38,0-.69.13-.95.38-.26.25-.4.59-.43,1.01Z"/><path d="m352.3,200.54v-4.83h.74v.69c.36-.53.87-.8,1.54-.8.29,0,.56.05.8.16.24.1.43.24.55.41s.21.37.26.61c.03.15.04.42.04.8v2.97h-.82v-2.94c0-.33-.03-.58-.1-.75-.06-.17-.18-.3-.34-.4-.16-.1-.35-.15-.57-.15-.35,0-.65.11-.9.33-.25.22-.38.64-.38,1.26v2.64h-.82Z"/><path d="m359.27,199.81l.12.72c-.23.05-.44.07-.62.07-.3,0-.53-.05-.69-.14-.16-.09-.28-.22-.35-.37-.07-.15-.1-.48-.1-.97v-2.78h-.6v-.64h.6v-1.2l.82-.49v1.69h.82v.64h-.82v2.83c0,.23.01.38.04.45.03.07.08.12.14.16.06.04.16.06.28.06.09,0,.21-.01.36-.03Z"/><path d="m360.06,200.54v-4.83h.74v.73c.19-.34.36-.57.52-.68s.33-.16.53-.16c.28,0,.56.09.84.26l-.28.76c-.2-.12-.4-.18-.6-.18-.18,0-.34.05-.48.16-.14.11-.24.26-.3.45-.09.29-.14.61-.14.96v2.53h-.82Z"/><path d="m366.33,199.95c-.3.26-.6.44-.88.55-.28.11-.58.16-.9.16-.53,0-.94-.13-1.22-.39-.29-.26-.43-.59-.43-.99,0-.24.05-.45.16-.65.11-.2.25-.35.42-.47s.37-.21.59-.27c.16-.04.4-.08.73-.12.66-.08,1.15-.17,1.46-.28,0-.11,0-.18,0-.21,0-.33-.08-.57-.23-.71-.21-.19-.52-.28-.93-.28-.38,0-.67.07-.85.2s-.32.37-.41.72l-.8-.11c.07-.34.19-.62.36-.83s.41-.37.72-.49c.32-.11.68-.17,1.1-.17s.75.05,1.01.15c.26.1.45.22.57.37.12.15.21.33.25.56.03.14.04.39.04.75v1.09c0,.76.02,1.24.05,1.45.04.2.1.39.21.58h-.86c-.08-.17-.14-.37-.16-.6Zm-.07-1.83c-.3.12-.74.22-1.34.31-.34.05-.58.1-.71.16s-.25.15-.32.27c-.08.12-.11.25-.11.39,0,.22.08.4.25.55.17.15.41.22.73.22s.6-.07.84-.21c.25-.14.43-.33.54-.57.09-.19.13-.46.13-.82v-.3Z"/><path d="m368.35,200.54v-6.67h.82v6.67h-.82Z"/><path d="m376.18,198.77l.81.11c-.09.55-.31.99-.68,1.3-.36.31-.81.47-1.34.47-.66,0-1.19-.22-1.6-.65-.4-.43-.6-1.05-.6-1.86,0-.52.09-.98.26-1.37s.44-.69.79-.88c.35-.2.74-.29,1.15-.29.53,0,.96.13,1.29.4s.55.64.64,1.13l-.8.12c-.08-.32-.21-.57-.4-.73-.19-.16-.43-.25-.7-.25-.41,0-.75.15-1.01.44-.26.3-.39.76-.39,1.4s.12,1.12.37,1.42c.25.29.57.44.97.44.32,0,.59-.1.81-.3.21-.2.35-.5.41-.91Z"/><path d="m377.69,200.54v-6.67h.82v2.4c.38-.44.86-.67,1.45-.67.36,0,.67.07.93.21.26.14.45.34.57.58.11.25.17.61.17,1.08v3.06h-.82v-3.06c0-.41-.09-.71-.27-.89s-.43-.28-.75-.28c-.24,0-.47.06-.69.19s-.37.3-.46.51c-.09.21-.14.51-.14.89v2.65h-.82Z"/><path d="m386.03,199.95c-.3.26-.6.44-.88.55-.28.11-.58.16-.9.16-.53,0-.94-.13-1.22-.39-.29-.26-.43-.59-.43-.99,0-.24.05-.45.16-.65.11-.2.25-.35.42-.47s.37-.21.59-.27c.16-.04.4-.08.73-.12.66-.08,1.15-.17,1.46-.28,0-.11,0-.18,0-.21,0-.33-.08-.57-.23-.71-.21-.19-.52-.28-.93-.28-.38,0-.67.07-.85.2s-.32.37-.41.72l-.8-.11c.07-.34.19-.62.36-.83s.41-.37.72-.49c.32-.11.68-.17,1.1-.17s.75.05,1.01.15c.26.1.45.22.57.37.12.15.21.33.25.56.03.14.04.39.04.75v1.09c0,.76.02,1.24.05,1.45.04.2.1.39.21.58h-.86c-.08-.17-.14-.37-.16-.6Zm-.07-1.83c-.3.12-.74.22-1.34.31-.34.05-.58.1-.71.16s-.25.15-.32.27c-.08.12-.11.25-.11.39,0,.22.08.4.25.55.17.15.41.22.73.22s.6-.07.84-.21c.25-.14.43-.33.54-.57.09-.19.13-.46.13-.82v-.3Z"/><path d="m388.06,200.54v-4.83h.74v.69c.35-.53.87-.8,1.54-.8.29,0,.56.05.8.16s.43.24.55.41.21.37.25.61c.03.15.05.42.05.8v2.97h-.82v-2.94c0-.33-.03-.58-.1-.75-.06-.17-.18-.3-.34-.4-.16-.1-.35-.15-.57-.15-.35,0-.65.11-.9.33-.25.22-.38.64-.38,1.26v2.64h-.82Z"/><path d="m393.09,200.94l.8.12c.03.25.13.43.28.54.2.15.48.23.83.23.38,0,.67-.08.88-.23.21-.15.35-.36.42-.64.04-.17.06-.52.06-1.05-.36.42-.8.63-1.34.63-.67,0-1.18-.24-1.54-.72-.36-.48-.55-1.05-.55-1.73,0-.46.08-.89.25-1.28.17-.39.41-.69.73-.9.32-.21.69-.32,1.12-.32.57,0,1.04.23,1.41.69v-.58h.75v4.18c0,.75-.08,1.29-.23,1.6-.15.31-.4.56-.73.75-.33.18-.74.27-1.23.27-.58,0-1.04-.13-1.4-.39-.35-.26-.53-.65-.51-1.17Zm.68-2.9c0,.63.13,1.1.38,1.39.25.29.57.44.95.44s.69-.14.95-.43c.25-.29.38-.74.38-1.36s-.13-1.04-.39-1.34-.58-.45-.95-.45-.67.15-.93.44-.38.74-.38,1.32Z"/><path d="m401.74,198.99l.85.1c-.13.49-.38.88-.74,1.15-.36.27-.82.41-1.38.41-.71,0-1.27-.22-1.68-.65s-.62-1.05-.62-1.83.21-1.44.63-1.89.96-.67,1.63-.67,1.17.22,1.58.66c.41.44.62,1.06.62,1.86,0,.05,0,.12,0,.22h-3.61c.03.53.18.94.45,1.22.27.28.61.42,1.01.42.3,0,.56-.08.77-.24.21-.16.38-.41.51-.75Zm-2.69-1.33h2.7c-.04-.41-.14-.71-.31-.92-.26-.32-.6-.47-1.02-.47-.38,0-.69.13-.95.38-.26.25-.4.59-.43,1.01Z"/><path d="m403.29,199.1l.81-.13c.04.32.17.57.38.75s.5.26.87.26.66-.08.84-.23c.18-.15.27-.33.27-.54,0-.19-.08-.33-.24-.44-.11-.07-.39-.17-.84-.28-.6-.15-1.02-.28-1.25-.39-.23-.11-.41-.26-.53-.46-.12-.2-.18-.41-.18-.65,0-.22.05-.42.15-.6.1-.18.23-.34.4-.46.13-.09.3-.17.52-.24.22-.07.46-.1.71-.1.38,0,.71.05,1,.16.29.11.5.26.63.44s.23.44.28.75l-.8.11c-.04-.25-.14-.44-.32-.58-.17-.14-.42-.21-.74-.21-.38,0-.64.06-.81.19-.16.12-.24.27-.24.44,0,.11.03.2.1.29.07.09.17.16.31.22.08.03.32.1.72.21.58.15.98.28,1.21.38.23.1.41.24.54.43.13.19.2.42.2.7s-.08.53-.24.77-.39.43-.69.56c-.3.13-.64.2-1.02.2-.63,0-1.11-.13-1.44-.39-.33-.26-.54-.65-.63-1.16Z"/><path class="k" d="m410.24,46.94c.86-1.32,4.5-5.56,10.46-7.53,5.54-1.83,10.24-.51,11.79,0"/><path class="i" d="m409.88,82.55c2.24,2.14,5.56,4.25,11.84.62"/><path class="h" d="m415.67,62.46c.86-1.32,3.93-5.64,9.89-7.61,5.54-1.83,10.24-.51,11.79,0"/><path d="m3.76,9.6V1.59h3.02c.53,0,.94.03,1.22.08.39.07.72.19.99.37.27.18.48.44.64.77.16.33.24.7.24,1.09,0,.68-.22,1.26-.65,1.73s-1.22.71-2.35.71h-2.05v3.26h-1.06Zm1.06-4.2h2.07c.69,0,1.17-.13,1.46-.38.29-.25.43-.61.43-1.08,0-.33-.08-.62-.25-.86-.17-.24-.39-.4-.67-.47-.18-.05-.51-.07-.99-.07h-2.05v2.86Z"/><path d="m15.07,7.73l1.02.12c-.16.59-.46,1.05-.89,1.38-.43.33-.99.49-1.66.49-.85,0-1.52-.26-2.02-.78-.5-.52-.75-1.25-.75-2.2s.25-1.73.75-2.27c.5-.54,1.15-.81,1.96-.81s1.41.26,1.9.79c.49.53.74,1.27.74,2.23,0,.06,0,.15,0,.26h-4.33c.04.64.22,1.12.54,1.46s.73.51,1.21.51c.36,0,.67-.09.92-.28s.46-.49.61-.91Zm-3.23-1.59h3.24c-.04-.49-.17-.85-.37-1.1-.31-.38-.72-.57-1.22-.57-.45,0-.83.15-1.14.45-.31.3-.48.71-.51,1.21Z"/><path d="m17.31,9.6V3.8h.89v.88c.23-.41.43-.68.63-.81.19-.13.4-.2.63-.2.33,0,.67.11,1.01.32l-.34.91c-.24-.14-.48-.21-.72-.21-.22,0-.41.06-.58.19-.17.13-.29.31-.37.54-.11.35-.16.73-.16,1.15v3.04h-.98Z"/><path d="m21.05,2.72v-1.13h.98v1.13h-.98Zm0,6.88V3.8h.98v5.8h-.98Z"/><path d="m23.53,11.83V3.8h.9v.75c.21-.29.45-.52.72-.66.27-.15.59-.22.97-.22.5,0,.93.13,1.31.38s.66.61.86,1.08c.19.46.29.97.29,1.53,0,.59-.11,1.13-.32,1.6-.21.47-.52.84-.93,1.09-.41.25-.83.38-1.28.38-.33,0-.62-.07-.88-.21-.26-.14-.47-.31-.64-.52v2.82h-.98Zm.89-5.09c0,.75.15,1.3.45,1.66.3.36.67.54,1.1.54s.81-.18,1.12-.55c.31-.37.47-.94.47-1.72s-.15-1.29-.46-1.66c-.3-.37-.67-.55-1.09-.55s-.79.2-1.11.59c-.32.39-.48.96-.48,1.71Z"/><path d="m29.75,9.6V1.59h.98v2.87c.46-.53,1.04-.8,1.74-.8.43,0,.8.08,1.12.25.32.17.54.4.68.7.14.3.2.73.2,1.3v3.68h-.98v-3.68c0-.49-.11-.85-.32-1.07-.21-.22-.51-.34-.9-.34-.29,0-.57.08-.82.23-.26.15-.44.36-.55.61s-.16.62-.16,1.07v3.17h-.98Z"/><path d="m39.95,7.73l1.02.12c-.16.59-.46,1.05-.89,1.38-.43.33-.99.49-1.66.49-.85,0-1.52-.26-2.02-.78-.5-.52-.75-1.25-.75-2.2s.25-1.73.75-2.27c.5-.54,1.15-.81,1.96-.81s1.41.26,1.9.79c.49.53.74,1.27.74,2.23,0,.06,0,.15,0,.26h-4.33c.04.64.22,1.12.54,1.46s.73.51,1.21.51c.36,0,.67-.09.92-.28s.46-.49.61-.91Zm-3.23-1.59h3.24c-.04-.49-.17-.85-.37-1.1-.31-.38-.72-.57-1.22-.57-.45,0-.83.15-1.14.45-.31.3-.48.71-.51,1.21Z"/><path d="m42.19,9.6V3.8h.89v.88c.23-.41.43-.68.63-.81.19-.13.4-.2.63-.2.33,0,.67.11,1.01.32l-.34.91c-.24-.14-.48-.21-.72-.21-.22,0-.41.06-.58.19-.17.13-.29.31-.37.54-.11.35-.16.73-.16,1.15v3.04h-.98Z"/><path d="m49.71,8.89c-.36.31-.71.53-1.05.66-.34.13-.7.19-1.08.19-.64,0-1.13-.16-1.47-.47s-.51-.71-.51-1.19c0-.28.06-.54.19-.78.13-.23.3-.42.51-.57.21-.14.45-.25.71-.32.19-.05.48-.1.87-.15.79-.09,1.38-.21,1.75-.34,0-.13,0-.22,0-.26,0-.4-.09-.68-.28-.85-.25-.22-.62-.33-1.12-.33-.46,0-.8.08-1.02.24-.22.16-.38.45-.49.86l-.96-.13c.09-.41.23-.74.43-1,.2-.25.49-.45.87-.58s.82-.21,1.32-.21.9.06,1.21.17c.31.12.54.26.68.44.15.18.25.4.31.67.03.17.05.47.05.91v1.31c0,.92.02,1.49.06,1.74.04.24.12.47.25.7h-1.03c-.1-.2-.17-.44-.2-.72Zm-.08-2.2c-.36.15-.89.27-1.61.37-.4.06-.69.12-.86.2s-.3.18-.39.32c-.09.14-.14.3-.14.47,0,.26.1.48.3.66s.49.26.87.26.72-.08,1.01-.25.51-.39.65-.68c.11-.22.16-.55.16-.98v-.36Z"/><path d="m52.13,9.6V1.59h.98v8.01h-.98Z"/><path d="m57.38,6.7c0-1.07.3-1.87.9-2.39.5-.43,1.11-.64,1.82-.64.8,0,1.45.26,1.96.78.51.52.76,1.25.76,2.17,0,.75-.11,1.33-.34,1.76-.22.43-.55.76-.98,1-.43.24-.9.35-1.4.35-.81,0-1.47-.26-1.97-.78-.5-.52-.75-1.27-.75-2.25Zm1.01,0c0,.74.16,1.3.49,1.67.32.37.73.55,1.22.55s.89-.19,1.22-.56c.32-.37.49-.94.49-1.7,0-.72-.16-1.26-.49-1.63-.33-.37-.73-.55-1.22-.55s-.9.18-1.22.55-.49.92-.49,1.67Z"/><path d="m63.95,9.6V3.8h.89v.88c.23-.41.43-.68.63-.81.19-.13.4-.2.63-.2.33,0,.67.11,1.01.32l-.34.91c-.24-.14-.48-.21-.72-.21-.22,0-.41.06-.58.19-.17.13-.29.31-.37.54-.11.35-.16.73-.16,1.15v3.04h-.98Z"/><path d="m67.51,10.08l.96.14c.04.29.15.51.33.64.24.18.58.27,1,.27.46,0,.81-.09,1.05-.27.25-.18.42-.44.5-.76.05-.2.07-.62.07-1.26-.43.51-.97.76-1.61.76-.8,0-1.42-.29-1.85-.86s-.66-1.27-.66-2.07c0-.55.1-1.06.3-1.53.2-.47.49-.83.87-1.08.38-.25.83-.38,1.34-.38.69,0,1.25.28,1.69.83v-.7h.91v5.01c0,.9-.09,1.54-.28,1.92-.18.38-.48.67-.87.89-.4.22-.89.33-1.47.33-.69,0-1.25-.16-1.68-.47-.43-.31-.63-.78-.62-1.41Zm.81-3.49c0,.76.15,1.32.45,1.67s.68.52,1.14.52.83-.17,1.14-.52c.31-.35.46-.89.46-1.64s-.16-1.25-.47-1.61-.69-.54-1.14-.54-.81.18-1.11.53c-.31.36-.46.88-.46,1.58Z"/><path d="m77.7,8.89c-.36.31-.71.53-1.05.66-.34.13-.7.19-1.08.19-.64,0-1.13-.16-1.47-.47s-.51-.71-.51-1.19c0-.28.06-.54.19-.78.13-.23.3-.42.51-.57.21-.14.45-.25.71-.32.19-.05.48-.1.87-.15.79-.09,1.38-.21,1.75-.34,0-.13,0-.22,0-.26,0-.4-.09-.68-.28-.85-.25-.22-.62-.33-1.12-.33-.46,0-.8.08-1.02.24-.22.16-.38.45-.49.86l-.96-.13c.09-.41.23-.74.43-1,.2-.25.49-.45.87-.58s.82-.21,1.32-.21.9.06,1.21.17c.31.12.54.26.68.44.15.18.25.4.31.67.03.17.05.47.05.91v1.31c0,.92.02,1.49.06,1.74.04.24.12.47.25.7h-1.03c-.1-.2-.17-.44-.2-.72Zm-.08-2.2c-.36.15-.89.27-1.61.37-.4.06-.69.12-.86.2s-.3.18-.39.32c-.09.14-.14.3-.14.47,0,.26.1.48.3.66s.49.26.87.26.72-.08,1.01-.25.51-.39.65-.68c.11-.22.16-.55.16-.98v-.36Z"/><path d="m80.14,9.6V3.8h.88v.82c.43-.64,1.04-.96,1.85-.96.35,0,.67.06.96.19.29.13.51.29.66.5.15.2.25.45.31.73.04.18.05.5.05.96v3.57h-.98v-3.53c0-.4-.04-.7-.11-.9-.08-.2-.21-.36-.41-.48s-.42-.18-.69-.18c-.42,0-.78.13-1.08.4-.3.27-.46.77-.46,1.51v3.17h-.98Z"/><path d="m85.97,7.87l.97-.15c.05.39.21.69.46.9.25.21.6.31,1.05.31s.79-.09,1-.28c.22-.18.33-.4.33-.65,0-.22-.1-.4-.29-.52-.13-.09-.47-.2-1.01-.33-.72-.18-1.22-.34-1.5-.47-.28-.13-.49-.32-.63-.55-.14-.23-.22-.49-.22-.78,0-.26.06-.5.18-.72.12-.22.28-.4.48-.55.15-.11.36-.21.63-.29.26-.08.55-.12.85-.12.46,0,.85.07,1.2.2.34.13.6.31.76.53.16.22.28.52.34.9l-.96.13c-.04-.3-.17-.53-.38-.7-.21-.17-.51-.25-.89-.25-.45,0-.77.08-.97.22-.19.15-.29.32-.29.52,0,.13.04.24.12.34.08.11.21.19.38.26.1.04.39.12.87.25.7.19,1.18.34,1.46.46.27.12.49.29.65.52.16.23.23.51.23.84s-.1.64-.29.93c-.19.29-.47.51-.83.67-.36.16-.77.24-1.22.24-.75,0-1.33-.16-1.72-.47-.4-.31-.65-.78-.76-1.39Z"/><path d="m155.48,9.6l3.08-8.01h1.14l3.28,8.01h-1.21l-.93-2.43h-3.35l-.88,2.43h-1.13Zm2.31-3.29h2.72l-.84-2.22c-.25-.67-.44-1.23-.57-1.66-.1.51-.25,1.02-.43,1.53l-.88,2.35Z"/><path d="m163.69,9.6V3.8h.88v.82c.43-.64,1.04-.96,1.85-.96.35,0,.67.06.96.19.29.13.51.29.66.5.15.2.25.45.31.73.04.18.05.5.05.96v3.57h-.98v-3.53c0-.4-.04-.7-.11-.9-.08-.2-.21-.36-.41-.48s-.42-.18-.69-.18c-.42,0-.78.13-1.08.4-.3.27-.46.77-.46,1.51v3.17h-.98Z"/><path d="m172.06,8.72l.14.87c-.28.06-.52.09-.74.09-.36,0-.63-.06-.83-.17-.2-.11-.33-.26-.42-.45s-.12-.57-.12-1.16v-3.34h-.72v-.76h.72v-1.44l.98-.59v2.03h.99v.76h-.99v3.39c0,.28.02.46.05.54s.09.14.17.19c.08.05.19.07.34.07.11,0,.25-.01.43-.04Z"/><path d="m177,7.73l1.02.12c-.16.59-.46,1.05-.89,1.38-.43.33-.99.49-1.66.49-.85,0-1.52-.26-2.02-.78-.5-.52-.75-1.25-.75-2.2s.25-1.73.75-2.27c.5-.54,1.15-.81,1.96-.81s1.41.26,1.9.79c.49.53.74,1.27.74,2.23,0,.06,0,.15,0,.26h-4.33c.04.64.22,1.12.54,1.46s.73.51,1.21.51c.36,0,.67-.09.92-.28s.46-.49.61-.91Zm-3.23-1.59h3.24c-.04-.49-.17-.85-.37-1.1-.31-.38-.72-.57-1.22-.57-.45,0-.83.15-1.14.45-.31.3-.48.71-.51,1.21Z"/><path d="m179.25,9.6V3.8h.88v.82c.43-.64,1.04-.96,1.85-.96.35,0,.67.06.96.19.29.13.51.29.66.5.15.2.25.45.31.73.04.18.05.5.05.96v3.57h-.98v-3.53c0-.4-.04-.7-.11-.9-.08-.2-.21-.36-.41-.48s-.42-.18-.69-.18c-.42,0-.78.13-1.08.4-.3.27-.46.77-.46,1.51v3.17h-.98Z"/><path d="m185.47,9.6V3.8h.88v.82c.43-.64,1.04-.96,1.85-.96.35,0,.67.06.96.19.29.13.51.29.66.5.15.2.25.45.31.73.04.18.05.5.05.96v3.57h-.98v-3.53c0-.4-.04-.7-.11-.9-.08-.2-.21-.36-.41-.48s-.42-.18-.69-.18c-.42,0-.78.13-1.08.4-.3.27-.46.77-.46,1.51v3.17h-.98Z"/><path d="m195.48,8.89c-.36.31-.71.53-1.05.66-.34.13-.7.19-1.08.19-.64,0-1.13-.16-1.47-.47s-.51-.71-.51-1.19c0-.28.06-.54.19-.78.13-.23.3-.42.51-.57.21-.14.45-.25.71-.32.19-.05.48-.1.87-.15.79-.09,1.38-.21,1.75-.34,0-.13,0-.22,0-.26,0-.4-.09-.68-.28-.85-.25-.22-.62-.33-1.12-.33-.46,0-.8.08-1.02.24-.22.16-.38.45-.49.86l-.96-.13c.09-.41.23-.74.43-1,.2-.25.49-.45.87-.58s.82-.21,1.32-.21.9.06,1.21.17c.31.12.54.26.68.44.15.18.25.4.31.67.03.17.05.47.05.91v1.31c0,.92.02,1.49.06,1.74.04.24.12.47.25.7h-1.03c-.1-.2-.17-.44-.2-.72Zm-.08-2.2c-.36.15-.89.27-1.61.37-.4.06-.69.12-.86.2s-.3.18-.39.32c-.09.14-.14.3-.14.47,0,.26.1.48.3.66s.49.26.87.26.72-.08,1.01-.25.51-.39.65-.68c.11-.22.16-.55.16-.98v-.36Z"/><path d="m197.89,9.6V1.59h.98v8.01h-.98Z"/><path d="m203.49,9.6V1.59h.98v8.01h-.98Z"/><path d="m205.63,6.7c0-1.07.3-1.87.9-2.39.5-.43,1.11-.64,1.82-.64.8,0,1.45.26,1.96.78.51.52.76,1.25.76,2.17,0,.75-.11,1.33-.34,1.76-.22.43-.55.76-.98,1-.43.24-.9.35-1.4.35-.81,0-1.47-.26-1.97-.78-.5-.52-.75-1.27-.75-2.25Zm1.01,0c0,.74.16,1.3.49,1.67.32.37.73.55,1.22.55s.89-.19,1.22-.56c.32-.37.49-.94.49-1.7,0-.72-.16-1.26-.49-1.63-.33-.37-.73-.55-1.22-.55s-.9.18-1.22.55-.49.92-.49,1.67Z"/><path d="m213.13,9.6h-.91V1.59h.98v2.86c.42-.52.95-.78,1.59-.78.36,0,.69.07,1.01.22.32.14.58.35.79.61.21.26.37.58.48.94.12.37.18.76.18,1.18,0,.99-.25,1.76-.74,2.31-.49.54-1.08.81-1.77.81s-1.22-.29-1.61-.86v.73Zm-.01-2.94c0,.7.09,1.2.28,1.51.31.51.73.76,1.26.76.43,0,.8-.19,1.11-.56.31-.37.47-.93.47-1.67s-.15-1.32-.45-1.68c-.3-.36-.66-.54-1.09-.54s-.8.19-1.11.56c-.31.37-.47.91-.47,1.62Z"/><path d="m222.41,7.73l1.02.12c-.16.59-.46,1.05-.89,1.38-.43.33-.99.49-1.66.49-.85,0-1.52-.26-2.02-.78-.5-.52-.75-1.25-.75-2.2s.25-1.73.75-2.27c.5-.54,1.15-.81,1.96-.81s1.41.26,1.9.79c.49.53.74,1.27.74,2.23,0,.06,0,.15,0,.26h-4.33c.04.64.22,1.12.54,1.46s.73.51,1.21.51c.36,0,.67-.09.92-.28s.46-.49.61-.91Zm-3.23-1.59h3.24c-.04-.49-.17-.85-.37-1.1-.31-.38-.72-.57-1.22-.57-.45,0-.83.15-1.14.45-.31.3-.48.71-.51,1.21Z"/><path d="m280.35,9.6V1.59h1.6l1.9,5.67c.17.53.3.92.38,1.19.09-.29.23-.72.43-1.28l1.92-5.57h1.43v8.01h-1.02V2.9l-2.33,6.7h-.96l-2.32-6.82v6.82h-1.02Z"/><path d="m293.38,9.6v-.85c-.45.66-1.07.98-1.84.98-.34,0-.66-.07-.96-.2s-.52-.3-.66-.49c-.14-.2-.25-.44-.3-.73-.04-.19-.06-.5-.06-.92v-3.59h.98v3.22c0,.51.02.86.06,1.04.06.26.19.46.39.61.2.15.45.22.74.22s.57-.08.83-.23.44-.36.55-.62c.11-.26.16-.64.16-1.13v-3.11h.98v5.8h-.88Z"/><path d="m295.41,7.87l.97-.15c.05.39.21.69.46.9.25.21.6.31,1.05.31s.79-.09,1-.28c.22-.18.33-.4.33-.65,0-.22-.1-.4-.29-.52-.13-.09-.47-.2-1.01-.33-.72-.18-1.22-.34-1.5-.47-.28-.13-.49-.32-.63-.55-.14-.23-.22-.49-.22-.78,0-.26.06-.5.18-.72.12-.22.28-.4.48-.55.15-.11.36-.21.63-.29.26-.08.55-.12.85-.12.46,0,.85.07,1.2.2.34.13.6.31.76.53.16.22.28.52.34.9l-.96.13c-.04-.3-.17-.53-.38-.7-.21-.17-.51-.25-.89-.25-.45,0-.77.08-.97.22-.19.15-.29.32-.29.52,0,.13.04.24.12.34.08.11.21.19.38.26.1.04.39.12.87.25.7.19,1.18.34,1.46.46.27.12.49.29.65.52.16.23.23.51.23.84s-.1.64-.29.93c-.19.29-.47.51-.83.67-.36.16-.77.24-1.22.24-.75,0-1.33-.16-1.72-.47-.4-.31-.65-.78-.76-1.39Z"/><path d="m301.4,9.6V1.59h.98v2.87c.46-.53,1.04-.8,1.74-.8.43,0,.8.08,1.12.25.32.17.54.4.68.7.14.3.2.73.2,1.3v3.68h-.98v-3.68c0-.49-.11-.85-.32-1.07-.21-.22-.51-.34-.9-.34-.29,0-.57.08-.82.23-.26.15-.44.36-.55.61s-.16.62-.16,1.07v3.17h-.98Z"/><path d="m307.61,9.6V3.8h.89v.88c.23-.41.43-.68.63-.81.19-.13.4-.2.63-.2.33,0,.67.11,1.01.32l-.34.91c-.24-.14-.48-.21-.72-.21-.22,0-.41.06-.58.19-.17.13-.29.31-.37.54-.11.35-.16.73-.16,1.15v3.04h-.98Z"/><path d="m310.98,6.7c0-1.07.3-1.87.9-2.39.5-.43,1.11-.64,1.82-.64.8,0,1.45.26,1.96.78.51.52.76,1.25.76,2.17,0,.75-.11,1.33-.34,1.76-.22.43-.55.76-.98,1-.43.24-.9.35-1.4.35-.81,0-1.47-.26-1.97-.78-.5-.52-.75-1.27-.75-2.25Zm1.01,0c0,.74.16,1.3.49,1.67.32.37.73.55,1.22.55s.89-.19,1.22-.56c.32-.37.49-.94.49-1.7,0-.72-.16-1.26-.49-1.63-.33-.37-.73-.55-1.22-.55s-.9.18-1.22.55-.49.92-.49,1.67Z"/><path d="m317.2,6.7c0-1.07.3-1.87.9-2.39.5-.43,1.11-.64,1.82-.64.8,0,1.45.26,1.96.78.51.52.76,1.25.76,2.17,0,.75-.11,1.33-.34,1.76-.22.43-.55.76-.98,1-.43.24-.9.35-1.4.35-.81,0-1.47-.26-1.97-.78-.5-.52-.75-1.27-.75-2.25Zm1.01,0c0,.74.16,1.3.49,1.67.32.37.73.55,1.22.55s.89-.19,1.22-.56c.32-.37.49-.94.49-1.7,0-.72-.16-1.26-.49-1.63-.33-.37-.73-.55-1.22-.55s-.9.18-1.22.55-.49.92-.49,1.67Z"/><path d="m323.79,9.6V3.8h.88v.81c.18-.28.42-.51.73-.69s.65-.26,1.03-.26c.43,0,.78.09,1.06.27.27.18.47.43.58.75.46-.68,1.06-1.02,1.79-1.02.58,0,1.02.16,1.33.48.31.32.46.81.46,1.47v3.98h-.98v-3.66c0-.39-.03-.68-.1-.85-.06-.17-.18-.31-.35-.42-.17-.11-.36-.16-.59-.16-.41,0-.75.14-1.02.41s-.4.71-.4,1.3v3.37h-.98v-3.77c0-.44-.08-.76-.24-.98-.16-.22-.42-.33-.79-.33-.28,0-.53.07-.77.22s-.41.36-.51.64c-.11.28-.16.69-.16,1.21v3.01h-.98Z"/><path d="m337.13,9.6h-.91V1.59h.98v2.86c.42-.52.95-.78,1.59-.78.36,0,.69.07,1.01.22.32.14.58.35.79.61.21.26.37.58.48.94.12.37.18.76.18,1.18,0,.99-.25,1.76-.74,2.31-.49.54-1.08.81-1.77.81s-1.22-.29-1.61-.86v.73Zm-.01-2.94c0,.7.09,1.2.28,1.51.31.51.73.76,1.26.76.43,0,.8-.19,1.11-.56.31-.37.47-.93.47-1.67s-.15-1.32-.45-1.68c-.3-.36-.66-.54-1.09-.54s-.8.19-1.11.56c-.31.37-.47.91-.47,1.62Z"/><path d="m342.08,6.7c0-1.07.3-1.87.9-2.39.5-.43,1.11-.64,1.82-.64.8,0,1.45.26,1.96.78.51.52.76,1.25.76,2.17,0,.75-.11,1.33-.34,1.76-.22.43-.55.76-.98,1-.43.24-.9.35-1.4.35-.81,0-1.47-.26-1.97-.78-.5-.52-.75-1.27-.75-2.25Zm1.01,0c0,.74.16,1.3.49,1.67.32.37.73.55,1.22.55s.89-.19,1.22-.56c.32-.37.49-.94.49-1.7,0-.72-.16-1.26-.49-1.63-.33-.37-.73-.55-1.22-.55s-.9.18-1.22.55-.49.92-.49,1.67Z"/><path d="m352.43,9.6v-.73c-.37.58-.91.86-1.62.86-.46,0-.89-.13-1.28-.38s-.69-.61-.9-1.07c-.21-.46-.32-.98-.32-1.58s.1-1.1.29-1.58c.19-.47.48-.83.87-1.08.39-.25.82-.38,1.29-.38.35,0,.66.07.93.22.27.15.5.34.67.58V1.59h.98v8.01h-.91Zm-3.11-2.9c0,.74.16,1.3.47,1.67.31.37.68.55,1.11.55s.79-.18,1.1-.53c.3-.35.45-.89.45-1.61,0-.79-.15-1.38-.46-1.75-.31-.37-.68-.56-1.13-.56s-.8.18-1.1.54c-.29.36-.44.92-.44,1.69Z"/><path d="m354.85,11.84l-.11-.92c.22.06.4.09.56.09.22,0,.39-.04.52-.11.13-.07.24-.17.32-.31.06-.1.16-.34.3-.73.02-.05.05-.13.09-.24l-2.2-5.81h1.06l1.21,3.36c.16.43.3.87.42,1.34.11-.45.25-.89.4-1.32l1.24-3.38h.98l-2.21,5.9c-.24.64-.42,1.08-.55,1.32-.17.32-.38.56-.6.71-.23.15-.5.23-.81.23-.19,0-.4-.04-.63-.12Z"/><path d="m395.31,9.6V1.59h1.06v7.06h3.94v.95h-5Z"/><path d="m405.24,8.89c-.36.31-.71.53-1.05.66-.34.13-.7.19-1.08.19-.64,0-1.13-.16-1.47-.47-.34-.31-.51-.71-.51-1.19,0-.28.06-.54.19-.78.13-.23.3-.42.51-.57.21-.14.45-.25.71-.32.19-.05.48-.1.88-.15.79-.09,1.38-.21,1.75-.34,0-.13,0-.22,0-.26,0-.4-.09-.68-.28-.85-.25-.22-.62-.33-1.12-.33-.46,0-.8.08-1.02.24-.22.16-.38.45-.49.86l-.96-.13c.09-.41.23-.74.43-1s.49-.45.87-.58.82-.21,1.32-.21.9.06,1.21.17c.31.12.54.26.68.44s.25.4.31.67c.03.17.05.47.05.91v1.31c0,.92.02,1.49.06,1.74s.12.47.25.7h-1.03c-.1-.2-.17-.44-.2-.72Zm-.08-2.2c-.36.15-.89.27-1.61.37-.4.06-.69.12-.86.2-.17.07-.3.18-.39.32-.09.14-.14.3-.14.47,0,.26.1.48.3.66s.49.26.87.26.72-.08,1.01-.25.51-.39.65-.68c.11-.22.16-.55.16-.98v-.36Z"/><path d="m409.82,8.72l.14.87c-.28.06-.52.09-.74.09-.36,0-.63-.06-.83-.17-.2-.11-.33-.26-.42-.45s-.12-.57-.12-1.16v-3.34h-.72v-.76h.72v-1.44l.98-.59v2.03h.99v.76h-.99v3.39c0,.28.02.46.05.54.04.08.09.14.17.19.08.05.19.07.34.07.11,0,.25-.01.43-.04Z"/><path d="m414.76,7.73l1.02.12c-.16.59-.46,1.05-.89,1.38-.43.33-.99.49-1.66.49-.85,0-1.52-.26-2.02-.78-.5-.52-.75-1.25-.75-2.2s.25-1.73.75-2.27c.5-.54,1.15-.81,1.96-.81s1.41.26,1.9.79c.49.53.74,1.27.74,2.23,0,.06,0,.15,0,.26h-4.33c.04.64.22,1.12.54,1.46s.73.51,1.21.51c.36,0,.67-.09.92-.28.25-.19.46-.49.61-.91Zm-3.23-1.59h3.24c-.04-.49-.17-.85-.37-1.1-.31-.38-.72-.57-1.22-.57-.45,0-.83.15-1.14.45-.31.3-.48.71-.51,1.21Z"/><path d="m417,9.6V3.8h.88v.88c.23-.41.43-.68.63-.81.19-.13.4-.2.63-.2.33,0,.67.11,1.01.32l-.34.91c-.24-.14-.48-.21-.72-.21-.21,0-.41.06-.58.19-.17.13-.29.31-.37.54-.11.35-.16.73-.16,1.15v3.04h-.98Z"/><path d="m424.52,8.89c-.36.31-.71.53-1.05.66-.34.13-.7.19-1.08.19-.64,0-1.13-.16-1.47-.47-.34-.31-.51-.71-.51-1.19,0-.28.06-.54.19-.78.13-.23.3-.42.51-.57.21-.14.45-.25.71-.32.19-.05.48-.1.88-.15.79-.09,1.38-.21,1.75-.34,0-.13,0-.22,0-.26,0-.4-.09-.68-.28-.85-.25-.22-.62-.33-1.12-.33-.46,0-.8.08-1.02.24-.22.16-.38.45-.49.86l-.96-.13c.09-.41.23-.74.43-1s.49-.45.87-.58.82-.21,1.32-.21.9.06,1.21.17c.31.12.54.26.68.44s.25.4.31.67c.03.17.05.47.05.91v1.31c0,.92.02,1.49.06,1.74s.12.47.25.7h-1.03c-.1-.2-.17-.44-.2-.72Zm-.08-2.2c-.36.15-.89.27-1.61.37-.4.06-.69.12-.86.2-.17.07-.3.18-.39.32-.09.14-.14.3-.14.47,0,.26.1.48.3.66s.49.26.87.26.72-.08,1.01-.25.51-.39.65-.68c.11-.22.16-.55.16-.98v-.36Z"/><path d="m426.93,9.6V1.59h.98v8.01h-.98Z"/><path d="m432.55,9.6V1.59h.98v2.87c.46-.53,1.04-.8,1.74-.8.43,0,.8.08,1.12.25.32.17.54.4.68.7.14.3.21.73.21,1.3v3.68h-.98v-3.68c0-.49-.11-.85-.32-1.07-.21-.22-.51-.34-.9-.34-.29,0-.57.08-.82.23-.26.15-.44.36-.55.61s-.16.62-.16,1.07v3.17h-.98Z"/><path d="m438.41,6.7c0-1.07.3-1.87.9-2.39.5-.43,1.11-.64,1.83-.64.8,0,1.45.26,1.96.78.51.52.76,1.25.76,2.17,0,.75-.11,1.33-.34,1.76-.22.43-.55.76-.98,1-.43.24-.9.35-1.4.35-.81,0-1.47-.26-1.97-.78-.5-.52-.75-1.27-.75-2.25Zm1.01,0c0,.74.16,1.3.49,1.67.32.37.73.55,1.22.55s.89-.19,1.22-.56c.32-.37.49-.94.49-1.7,0-.72-.16-1.26-.49-1.63-.33-.37-.73-.55-1.21-.55s-.9.18-1.22.55-.49.92-.49,1.67Z"/><path d="m444.98,9.6V3.8h.88v.88c.23-.41.43-.68.63-.81.19-.13.4-.2.63-.2.33,0,.67.11,1.01.32l-.34.91c-.24-.14-.48-.21-.72-.21-.21,0-.41.06-.58.19-.17.13-.29.31-.37.54-.11.35-.16.73-.16,1.15v3.04h-.98Z"/><path d="m448.72,9.6V3.8h.89v.82c.43-.64,1.04-.96,1.85-.96.35,0,.67.06.96.19.29.13.51.29.66.5s.25.45.31.73c.04.18.05.5.05.96v3.57h-.98v-3.53c0-.4-.04-.7-.11-.9-.08-.2-.21-.36-.41-.48s-.42-.18-.69-.18c-.42,0-.78.13-1.08.4-.3.27-.46.77-.46,1.51v3.17h-.98Z"/><path class="l" d="m471.66,71.72c-18.03,2.33-.25,18.11-45.55,10.5m17.7-11.93c2.09.76,4.19,6.13,2.64,13.9"/><polygon class="s" points="476.59 71.43 469.46 69.07 471.3 71.8 469.85 74.74 476.59 71.43"/><path class="l" d="m454.53,83.25v8.88m-31.4-12.47c1.16.22,2.1,1.08,2.42,2.21.33,1.14-.02,2.37-.9,3.18"/><path class="s" d="m457.87,92.26c0,1.85-1.5,3.36-3.36,3.36s-3.36-1.5-3.36-3.36,1.5-3.36,3.36-3.36,3.36,1.5,3.36,3.36"/><path class="l" d="m444.15,67.02c.51,1.07.37,2.33-.35,3.26-.72.94-1.93,1.39-3.09,1.16"/><path class="y" d="m26.79,94.2c1.17,0,2.11.95,2.11,2.11s-.95,2.12-2.11,2.12-2.11-.95-2.11-2.12.95-2.11,2.11-2.11"/><path class="q" d="m26.79,129.5c1.17,0,2.11.95,2.11,2.11s-.95,2.12-2.11,2.12-2.11-.95-2.11-2.12.95-2.11,2.11-2.11"/><path class="s" d="m26.64,125.81c1.17,0,2.11.95,2.11,2.12s-.95,2.11-2.11,2.11-2.11-.95-2.11-2.11.95-2.12,2.11-2.12"/><path class="y" d="m27.29,144.55c1.17,0,2.11.95,2.11,2.12s-.95,2.11-2.11,2.11-2.12-.95-2.12-2.11.95-2.12,2.12-2.12"/><path class="t" d="m225.23,97.65c0,3.96-3.21,7.16-7.16,7.16s-7.16-3.21-7.16-7.16,3.21-7.16,7.16-7.16,7.16,3.21,7.16,7.16"/><path class="t" d="m218.03,115.32c0,5.72-4.64,10.36-10.36,10.36s-10.36-4.64-10.36-10.36,4.64-10.36,10.36-10.36,10.36,4.64,10.36,10.36"/><path class="t" d="m204.97,46.5c0,5.15-4.17,9.32-9.32,9.32s-9.32-4.17-9.32-9.32,4.17-9.32,9.32-9.32,9.32,4.17,9.32,9.32"/><path class="t" d="m247.72,84.26c0,6.4-5.19,11.59-11.59,11.59s-11.59-5.19-11.59-11.59,5.19-11.59,11.59-11.59,11.59,5.19,11.59,11.59"/><path d="m381.08,125.12c0-1.11.3-1.97.89-2.6s1.36-.94,2.3-.94c.62,0,1.17.15,1.67.44.49.29.87.71,1.13,1.23.26.53.39,1.12.39,1.79s-.14,1.28-.41,1.82-.66.94-1.16,1.21c-.5.27-1.04.41-1.62.41-.63,0-1.19-.15-1.68-.46-.5-.3-.87-.72-1.12-1.24-.25-.53-.38-1.08-.38-1.67Zm.91.01c0,.8.22,1.44.65,1.9s.98.69,1.63.69,1.21-.23,1.64-.7c.43-.47.64-1.13.64-1.99,0-.54-.09-1.02-.28-1.42-.18-.4-.45-.72-.81-.94-.35-.22-.75-.33-1.19-.33-.62,0-1.16.21-1.61.64-.45.43-.68,1.15-.68,2.15Z"/><path d="m390.28,127.64l.12.72c-.23.05-.44.07-.62.07-.3,0-.53-.05-.69-.14-.16-.09-.28-.22-.35-.37-.07-.15-.1-.48-.1-.97v-2.78h-.6v-.64h.6v-1.2l.82-.49v1.69h.82v.64h-.82v2.83c0,.23.01.38.04.45.03.07.08.12.14.16.06.04.16.06.28.06.09,0,.21-.01.36-.03Z"/><path d="m391.08,128.38v-6.67h.82v2.4c.38-.44.86-.67,1.45-.67.36,0,.67.07.93.21.26.14.45.34.57.58.11.25.17.61.17,1.08v3.06h-.82v-3.06c0-.41-.09-.71-.27-.89s-.43-.28-.75-.28c-.24,0-.47.06-.69.19s-.37.3-.46.51c-.09.21-.14.51-.14.89v2.65h-.82Z"/><path d="m399.58,126.82l.85.1c-.13.49-.38.88-.74,1.15-.36.27-.82.41-1.38.41-.71,0-1.27-.22-1.68-.65s-.62-1.05-.62-1.83.21-1.44.63-1.89.96-.67,1.63-.67,1.17.22,1.58.66c.41.44.62,1.06.62,1.86,0,.05,0,.12,0,.22h-3.61c.03.53.18.94.45,1.22.27.28.61.42,1.01.42.3,0,.56-.08.77-.24.21-.16.38-.41.51-.75Zm-2.69-1.33h2.7c-.04-.41-.14-.71-.31-.92-.26-.32-.6-.47-1.02-.47-.38,0-.69.13-.95.38-.26.25-.4.59-.43,1.01Z"/><path d="m401.45,128.38v-4.83h.74v.73c.19-.34.36-.57.52-.68s.33-.16.53-.16c.28,0,.56.09.84.26l-.28.76c-.2-.12-.4-.18-.6-.18-.18,0-.34.05-.48.16-.14.11-.24.26-.3.45-.09.29-.14.61-.14.96v2.53h-.82Z"/><path d="m410.31,126.6l.81.11c-.09.55-.31.99-.68,1.3-.36.31-.81.47-1.34.47-.66,0-1.19-.22-1.6-.65-.4-.43-.6-1.05-.6-1.86,0-.52.09-.98.26-1.37s.44-.69.79-.88c.35-.2.74-.29,1.15-.29.53,0,.96.13,1.29.4s.55.64.64,1.13l-.8.12c-.08-.32-.21-.57-.4-.73-.19-.16-.43-.25-.7-.25-.41,0-.75.15-1.01.44-.26.3-.39.76-.39,1.4s.12,1.12.37,1.42c.25.29.57.44.97.44.32,0,.59-.1.81-.3.21-.2.35-.5.41-.91Z"/><path d="m415.12,126.82l.85.1c-.13.49-.38.88-.74,1.15-.36.27-.82.41-1.38.41-.71,0-1.27-.22-1.68-.65s-.62-1.05-.62-1.83.21-1.44.63-1.89.96-.67,1.63-.67,1.17.22,1.58.66c.41.44.62,1.06.62,1.86,0,.05,0,.12,0,.22h-3.61c.03.53.18.94.45,1.22.27.28.61.42,1.01.42.3,0,.56-.08.77-.24.21-.16.38-.41.51-.75Zm-2.69-1.33h2.7c-.04-.41-.14-.71-.31-.92-.26-.32-.6-.47-1.02-.47-.38,0-.69.13-.95.38-.26.25-.4.59-.43,1.01Z"/><path d="m417,128.38v-4.83h.74v.69c.35-.53.87-.8,1.54-.8.29,0,.56.05.8.16s.43.24.55.41.21.37.25.61c.03.15.05.42.05.8v2.97h-.82v-2.94c0-.33-.03-.58-.1-.75-.06-.17-.18-.3-.34-.4-.16-.1-.35-.15-.57-.15-.35,0-.65.11-.9.33-.25.22-.38.64-.38,1.26v2.64h-.82Z"/><path d="m423.97,127.64l.12.72c-.23.05-.44.07-.62.07-.3,0-.53-.05-.69-.14-.16-.09-.28-.22-.35-.37-.07-.15-.1-.48-.1-.97v-2.78h-.6v-.64h.6v-1.2l.82-.49v1.69h.82v.64h-.82v2.83c0,.23.01.38.04.45.03.07.08.12.14.16.06.04.16.06.28.06.09,0,.21-.01.36-.03Z"/><path d="m424.77,128.38v-4.83h.74v.73c.19-.34.36-.57.52-.68s.33-.16.53-.16c.28,0,.56.09.84.26l-.28.76c-.2-.12-.4-.18-.6-.18-.18,0-.34.05-.48.16-.14.11-.24.26-.3.45-.09.29-.14.61-.14.96v2.53h-.82Z"/><path d="m431.04,127.78c-.3.26-.6.44-.88.55-.28.11-.58.16-.9.16-.53,0-.94-.13-1.22-.39-.29-.26-.43-.59-.43-.99,0-.24.05-.45.16-.65.11-.2.25-.35.42-.47s.37-.21.59-.27c.16-.04.4-.08.73-.12.66-.08,1.15-.17,1.46-.28,0-.11,0-.18,0-.21,0-.33-.08-.57-.23-.71-.21-.19-.52-.28-.93-.28-.38,0-.67.07-.85.2s-.32.37-.41.72l-.8-.11c.07-.34.19-.62.36-.83s.41-.37.72-.49c.32-.11.68-.17,1.1-.17s.75.05,1.01.15c.26.1.45.22.57.37.12.15.21.33.25.56.03.14.04.39.04.75v1.09c0,.76.02,1.24.05,1.45.04.2.1.39.21.58h-.86c-.08-.17-.14-.37-.16-.6Zm-.07-1.83c-.3.12-.74.22-1.34.31-.34.05-.58.1-.71.16s-.25.15-.32.27c-.08.12-.11.25-.11.39,0,.22.08.4.25.55.17.15.41.22.73.22s.6-.07.84-.21c.25-.14.43-.33.54-.57.09-.19.13-.46.13-.82v-.3Z"/><path d="m433.05,128.38v-6.67h.82v6.67h-.82Z"/><path d="m439.52,127.64l.12.72c-.23.05-.44.07-.62.07-.3,0-.53-.05-.69-.14-.16-.09-.28-.22-.35-.37-.07-.15-.1-.48-.1-.97v-2.78h-.6v-.64h.6v-1.2l.82-.49v1.69h.82v.64h-.82v2.83c0,.23.01.38.04.45.03.07.08.12.14.16.06.04.16.06.28.06.09,0,.21-.01.36-.03Z"/><path d="m443.47,127.78c-.3.26-.6.44-.88.55-.28.11-.58.16-.9.16-.53,0-.94-.13-1.22-.39-.29-.26-.43-.59-.43-.99,0-.24.05-.45.16-.65.11-.2.25-.35.42-.47s.37-.21.59-.27c.16-.04.4-.08.73-.12.66-.08,1.15-.17,1.46-.28,0-.11,0-.18,0-.21,0-.33-.08-.57-.23-.71-.21-.19-.52-.28-.93-.28-.38,0-.67.07-.85.2s-.32.37-.41.72l-.8-.11c.07-.34.19-.62.36-.83s.41-.37.72-.49c.32-.11.68-.17,1.1-.17s.75.05,1.01.15c.26.1.45.22.57.37.12.15.21.33.25.56.03.14.04.39.04.75v1.09c0,.76.02,1.24.05,1.45.04.2.1.39.21.58h-.86c-.08-.17-.14-.37-.16-.6Zm-.07-1.83c-.3.12-.74.22-1.34.31-.34.05-.58.1-.71.16s-.25.15-.32.27c-.08.12-.11.25-.11.39,0,.22.08.4.25.55.17.15.41.22.73.22s.6-.07.84-.21c.25-.14.43-.33.54-.57.09-.19.13-.46.13-.82v-.3Z"/><path d="m445.49,128.38v-4.83h.74v.73c.19-.34.36-.57.52-.68s.33-.16.53-.16c.28,0,.56.09.84.26l-.28.76c-.2-.12-.4-.18-.6-.18-.18,0-.34.05-.48.16-.14.11-.24.26-.3.45-.09.29-.14.61-.14.96v2.53h-.82Z"/><path d="m448.46,128.78l.8.12c.03.25.13.43.28.54.2.15.48.23.83.23.38,0,.67-.08.88-.23.21-.15.35-.36.42-.64.04-.17.06-.52.06-1.05-.36.42-.8.63-1.34.63-.67,0-1.18-.24-1.54-.72-.36-.48-.55-1.05-.55-1.73,0-.46.08-.89.25-1.28.17-.39.41-.69.73-.9.32-.21.69-.32,1.12-.32.57,0,1.04.23,1.41.69v-.58h.75v4.18c0,.75-.08,1.29-.23,1.6-.15.31-.4.56-.73.75-.33.18-.74.27-1.23.27-.58,0-1.04-.13-1.4-.39-.35-.26-.53-.65-.51-1.17Zm.68-2.9c0,.63.13,1.1.38,1.39.25.29.57.44.95.44s.69-.14.95-.43c.25-.29.38-.74.38-1.36s-.13-1.04-.39-1.34-.58-.45-.95-.45-.67.15-.93.44-.38.74-.38,1.32Z"/><path d="m457.1,126.82l.85.1c-.13.49-.38.88-.74,1.15-.36.27-.82.41-1.38.41-.71,0-1.27-.22-1.68-.65s-.62-1.05-.62-1.83.21-1.44.63-1.89.96-.67,1.63-.67,1.17.22,1.58.66c.41.44.62,1.06.62,1.86,0,.05,0,.12,0,.22h-3.61c.03.53.18.94.45,1.22.27.28.61.42,1.01.42.3,0,.56-.08.77-.24.21-.16.38-.41.51-.75Zm-2.69-1.33h2.7c-.04-.41-.14-.71-.31-.92-.26-.32-.6-.47-1.02-.47-.38,0-.69.13-.95.38-.26.25-.4.59-.43,1.01Z"/><path d="m460.77,127.64l.12.72c-.23.05-.44.07-.62.07-.3,0-.53-.05-.69-.14-.16-.09-.28-.22-.35-.37-.07-.15-.1-.48-.1-.97v-2.78h-.6v-.64h.6v-1.2l.82-.49v1.69h.82v.64h-.82v2.83c0,.23.01.38.04.45.03.07.08.12.14.16.06.04.16.06.28.06.09,0,.21-.01.36-.03Z"/><path d="m461.24,126.93l.81-.13c.04.32.17.57.38.75s.5.26.87.26.66-.08.84-.23c.18-.15.27-.33.27-.54,0-.19-.08-.33-.24-.44-.11-.07-.39-.17-.84-.28-.6-.15-1.02-.28-1.25-.39-.23-.11-.41-.26-.53-.46-.12-.2-.18-.41-.18-.65,0-.22.05-.42.15-.6.1-.18.23-.34.4-.46.13-.09.3-.17.52-.24.22-.07.46-.1.71-.1.38,0,.71.05,1,.16.29.11.5.26.63.44s.23.44.28.75l-.8.11c-.04-.25-.14-.44-.32-.58-.17-.14-.42-.21-.74-.21-.38,0-.64.06-.81.19-.16.12-.24.27-.24.44,0,.11.03.2.1.29.07.09.17.16.31.22.08.03.32.1.72.21.58.15.98.28,1.21.38.23.1.41.24.54.43.13.19.2.42.2.7s-.08.53-.24.77-.39.43-.69.56c-.3.13-.64.2-1.02.2-.63,0-1.11-.13-1.44-.39-.33-.26-.54-.65-.63-1.16Z"/><path class="g" d="m164.92,80.08c-1.21.71-1.91,2.04-1.83,3.43.09,1.4.97,2.64,2.27,3.19"/><path class="k" d="m167.38,47.99c1.3.52,2.21,1.72,2.33,3.11.13,1.4-.55,2.76-1.75,3.5"/><path class="g" d="m160.01,73.24c-1.33.43-2.31,1.57-2.53,2.95-.22,1.39.37,2.79,1.52,3.61"/><path class="e" d="m179.68,145.48c.8,1.15.88,2.66.21,3.88-.67,1.24-1.99,1.99-3.4,1.94m70.81-8.04c-3.48,6.93-12.66,10-23.72,11.28-9.12,1.05-35.48-1.75-43.24-4.74m26.4-38.71c1.3.51,2.21,1.72,2.33,3.11.13,1.4-.55,2.76-1.75,3.5m40.69,26.08c.09-7.76-6.66-14.69-15.91-20.9-7.62-5.12-14.07-7.59-22.33-8.49"/><path class="i" d="m189.91,95.06c1.22.69,1.95,2,1.89,3.4-.06,1.41-.92,2.66-2.21,3.23"/><path class="p" d="m269.28,90.25c0,2.07-1.68,3.74-3.74,3.74s-3.74-1.68-3.74-3.74,1.68-3.74,3.74-3.74,3.74,1.68,3.74,3.74"/><path class="d" d="m185.42,117.83c14.99-19.04,21.7-15.21,36-16.16,26.59-1.77,27.59-20.08,52.37-19.76,17.88.23,28.32.04,51.34.32,50.34.62,56.01,12.42,63.65,31.31m-209.8,10.06c-1.38.2-2.54,1.17-2.99,2.5-.45,1.33-.1,2.81.9,3.81m.42-14.21c-1.3.51-2.21,1.72-2.33,3.11-.13,1.4.55,2.76,1.75,3.5m4.3-4.94c1.32-.46,2.8-.13,3.8.84,1.01.98,1.38,2.45.96,3.8"/><polygon class="x" points="390.65 118.12 385.39 112.75 388.64 113.2 390.65 110.6 390.65 118.12"/><path class="i" d="m191.78,98.28c22.81-2.86,34.77,2.82,47.33-6.13,21.73-15.49,26.58-13.07,60.45-12.95,25.72.09,32.49-.06,56.85,0,30.76.08,44.13,7.31,57.07,1.7"/><path class="u" d="m311.63,32.85h9.65c9.26,0,16.78,7.52,16.78,16.78v74.35c0,9.26-7.52,16.78-16.78,16.78h-9.65c-9.26,0-16.78-7.52-16.78-16.78V49.63c0-9.26,7.52-16.78,16.78-16.78Z"/><path class="l" d="m320.99,127.98V43.52m-8.07,83.85V43.52m-8.07,83.85V43.52"/><path class="s" d="m307.55,127.7c0,1.48-1.2,2.69-2.69,2.69s-2.68-1.2-2.68-2.69,1.2-2.68,2.68-2.68,2.69,1.2,2.69,2.68"/><path class="s" d="m315.61,127.7c0,1.48-1.2,2.69-2.68,2.69s-2.68-1.2-2.68-2.69,1.2-2.68,2.68-2.68,2.68,1.2,2.68,2.68"/><path class="s" d="m323.68,127.7c0,1.48-1.2,2.69-2.69,2.69s-2.68-1.2-2.68-2.69,1.2-2.68,2.68-2.68,2.69,1.2,2.69,2.68"/><path class="n" d="m320.46,60.39c-.7-.34-1.14-1.05-1.15-1.82,0-.78.43-1.5,1.12-1.85"/><line class="l" x1="329.38" y1="127.98" x2="329.38" y2="43.52"/><path class="s" d="m332.07,127.7c0,1.48-1.2,2.69-2.68,2.69s-2.69-1.2-2.69-2.69,1.2-2.68,2.69-2.68,2.68,1.2,2.68,2.68"/><path class="h" d="m168.53,73.42c13.46-17.84,16.35-18.82,52.16-13.43,11.08,1.67,25.13,1.64,43.14,1.51,28.71-.21,25.15,0,55.56,0,54.46,0,82.47-7.58,96.29.96,0,0,5.41,4.21,9.89,5.72,4.48,1.51,13.01.74,15.6,0"/><path class="k" d="m170.01,50.83c21.3-.39,29.24,1.59,51.33,5.51,13.02,2.31,23.77,2.13,37.09,2.22,28.57.2,30.74,0,66.9,0,29.94,0,32.74-2.93,52.59-9.06,25-7.73,21.56-1.13,40.94-2.8"/><path class="m" d="m328.88,63.28c-.69-.35-1.13-1.06-1.13-1.83,0-.78.44-1.49,1.14-1.84"/><line class="h" x1="251.09" y1="50.43" x2="251.07" y2="61.6"/><line class="i" x1="265.69" y1="80.47" x2="265.69" y2="90.36"/><line class="d" x1="273.78" y1="82.33" x2="273.78" y2="92.23"/><path class="f" d="m153.7,132.29c-1.36.33-2.43,1.4-2.74,2.76-.32,1.37.16,2.81,1.25,3.71m.71-15.35c-1.03.95-1.44,2.4-1.06,3.74.38,1.35,1.51,2.38,2.89,2.64"/><path class="j" d="m171.98,144.42c-1.21.7-1.94,2.02-1.87,3.41.07,1.4.94,2.65,2.24,3.21"/><path class="i" d="m183.45,98.38c-1.22.68-1.96,1.99-1.91,3.39.05,1.41.9,2.67,2.19,3.24m-.99-16.47c-1.11.85-1.65,2.26-1.4,3.63.26,1.38,1.28,2.51,2.64,2.89"/><path class="m" d="m312.4,63.28c-.69-.35-1.14-1.05-1.14-1.83,0-.78.43-1.5,1.13-1.85"/><path d="m462.34,87.72v-6.67h.88v5.89h3.29v.79h-4.17Z"/><path d="m467.59,87.72v-6.67h.88v2.74h3.47v-2.74h.88v6.67h-.88v-3.15h-3.47v3.15h-.88Z"/><path d="m474.03,84.47c0-1.11.3-1.97.89-2.6s1.36-.94,2.3-.94c.62,0,1.17.15,1.67.44.49.29.87.71,1.13,1.23.26.53.39,1.12.39,1.79s-.14,1.28-.41,1.82-.66.94-1.16,1.21c-.5.27-1.04.41-1.62.41-.63,0-1.19-.15-1.68-.46-.5-.3-.87-.72-1.12-1.24-.25-.53-.38-1.08-.38-1.67Zm.91.01c0,.8.22,1.44.65,1.9s.98.69,1.63.69,1.21-.23,1.64-.7c.43-.47.64-1.13.64-1.99,0-.54-.09-1.02-.28-1.42-.18-.4-.45-.72-.81-.94-.35-.22-.75-.33-1.19-.33-.62,0-1.16.21-1.61.64-.45.43-.68,1.15-.68,2.15Z"/><path d="m481.54,87.72v-6.67h.91l3.51,5.24v-5.24h.85v6.67h-.91l-3.51-5.25v5.25h-.85Z"/><path d="m334.37,121.65v-6.67h.88v3.31l3.31-3.31h1.2l-2.8,2.71,2.92,3.97h-1.17l-2.38-3.38-1.09,1.07v2.31h-.88Z"/><path d="m345.38,119.31l.88.22c-.19.73-.52,1.28-1,1.66-.48.38-1.07.57-1.76.57s-1.3-.15-1.75-.44-.79-.72-1.03-1.27c-.24-.56-.35-1.15-.35-1.79,0-.69.13-1.3.4-1.82s.64-.91,1.13-1.18c.49-.27,1.03-.4,1.62-.4.67,0,1.23.17,1.68.51.46.34.77.82.95,1.43l-.87.2c-.15-.49-.38-.84-.67-1.06s-.66-.33-1.11-.33c-.51,0-.94.12-1.29.37-.34.25-.59.58-.73.99-.14.42-.21.84-.21,1.28,0,.57.08,1.06.25,1.49.17.42.42.74.77.95.35.21.73.31,1.13.31.49,0,.91-.14,1.26-.43.34-.29.58-.71.7-1.27Z"/><path d="m346.92,120.21l.81-.13c.05.32.17.57.38.75.21.17.5.26.87.26s.66-.08.84-.23c.18-.15.27-.33.27-.54,0-.19-.08-.33-.24-.44-.11-.07-.39-.17-.84-.28-.6-.15-1.02-.28-1.25-.39-.23-.11-.41-.26-.53-.46-.12-.2-.18-.41-.18-.65,0-.22.05-.42.15-.6.1-.18.23-.34.4-.46.13-.09.3-.17.52-.24s.46-.1.71-.1c.38,0,.71.05,1,.16.29.11.5.26.63.44.14.19.23.44.28.75l-.8.11c-.04-.25-.14-.44-.32-.58-.17-.14-.42-.21-.74-.21-.38,0-.65.06-.81.19-.16.12-.24.27-.24.44,0,.11.03.2.1.29.07.09.17.16.31.22.08.03.32.1.72.21.58.15.98.28,1.21.38.23.1.41.24.54.43.13.19.2.42.2.7s-.08.53-.24.77-.39.43-.69.56c-.3.13-.64.2-1.02.2-.63,0-1.11-.13-1.44-.39-.33-.26-.54-.65-.63-1.16Z"/></g></svg>